<svg fill="none" xmlns="http://www.w3.org/2000/svg" viewBox="0 0 194 56"><path d="M0 9.333A9.333 9.333 0 019.333 0h175.334A9.333 9.333 0 01194 9.333v37.334A9.333 9.333 0 01184.667 56H9.333A9.333 9.333 0 010 46.667V9.333z" fill="#EFF1F5"/><path d="M51.702 23.16s-3.25 1.677-3.25 5.748c0 4.59 4.048 6.173 4.048 6.173s-2.83 8.041-6.653 8.041c-1.757 0-3.12-1.194-4.972-1.194-1.885 0-3.756 1.239-4.973 1.239C32.41 43.167 28 35.54 28 29.409c0-6.032 3.732-9.197 7.234-9.197 2.277 0 4.044 1.325 5.225 1.325 1.017 0 2.902-1.41 5.357-1.41 4.223 0 5.886 3.034 5.886 3.034zM46.237 12.834s.41 2.47-1.553 4.848c-2.095 2.54-4.474 2.124-4.474 2.124s-.448-1.998 1.307-4.333c1.975-2.627 4.72-2.64 4.72-2.64z" fill="#1F2023"/><path d="M66.147 16.897c-.024.395-.07.714-.138.958a1.571 1.571 0 01-.326.632v.054H68.9v-4.986h-2.537l-.216 3.342zm-1.213 2.366v1.27h-.767V18.54h.491c.23-.119.399-.314.506-.584.11-.273.18-.633.207-1.078l.253-4.046h4.104v5.708h.827v1.991h-.768v-1.27h-4.853zm7.402-1.074c.254.312.616.468 1.085.468.468 0 .83-.156 1.084-.468.254-.315.382-.758.382-1.328 0-.57-.128-1.011-.382-1.323-.254-.315-.616-.472-1.084-.472-.47 0-.83.157-1.085.472-.254.312-.382.753-.382 1.323s.128 1.013.382 1.328zm2.753.494c-.408.443-.964.664-1.668.664-.705 0-1.263-.221-1.673-.664-.408-.445-.612-1.053-.612-1.822 0-.772.204-1.38.612-1.822.407-.443.965-.664 1.672-.664.708 0 1.266.221 1.673.664.408.443.611 1.05.611 1.822 0 .77-.205 1.377-.615 1.822zm5.766-2.753h-.8a1.09 1.09 0 00-.437-.62c-.22-.163-.5-.244-.841-.244-.444 0-.798.16-1.062.48-.26.322-.39.754-.39 1.297 0 .553.132.994.395 1.324.264.326.616.49 1.057.49.334 0 .611-.073.832-.219a1.04 1.04 0 00.445-.623h.8a1.711 1.711 0 01-.657 1.109c-.364.282-.836.423-1.415.423-.696 0-1.249-.226-1.66-.677-.41-.454-.615-1.063-.615-1.827 0-.748.205-1.347.616-1.795.41-.449.962-.673 1.654-.673.58 0 1.051.147 1.415.441.368.294.589.665.663 1.114zm4.331-1.47v.641h-1.608v4.162h-.79V15.1h-1.61v-.641h4.008zM86.484 21c-.125 0-.243-.009-.353-.027v-.654c.08.014.19.022.33.022.23 0 .413-.06.547-.178.139-.12.26-.323.364-.61l.091-.286-1.833-4.807h.855l1.36 3.952h.074l1.355-3.952h.841l-1.934 5.097c-.212.555-.437.934-.676 1.136-.239.205-.58.307-1.02.307zm7.71-1.737V15.1h-2.426v4.162h-.79V14.46h4.007v4.803h-.79zm2.08 0V14.46h.79v1.987h2.473V14.46h.791v4.803h-.791v-2.175h-2.472v2.175h-.79zm6.299-1.074c.254.312.616.468 1.084.468.469 0 .831-.156 1.085-.468.254-.315.382-.758.382-1.328 0-.57-.128-1.011-.382-1.323-.254-.315-.616-.472-1.085-.472-.468 0-.83.157-1.084.472-.254.312-.381.753-.381 1.323s.127 1.013.381 1.328zm2.753.494c-.408.443-.964.664-1.669.664-.704 0-1.262-.221-1.672-.664-.408-.445-.612-1.053-.612-1.822 0-.772.204-1.38.612-1.822.407-.443.965-.664 1.672-.664.708 0 1.266.221 1.673.664.408.443.611 1.05.611 1.822 0 .77-.205 1.377-.615 1.822zm6.035-3.582h-1.209v1.355h1.08c.622 0 .933-.229.933-.686a.62.62 0 00-.203-.49c-.131-.12-.332-.179-.601-.179zm-.06 1.996h-1.149v1.524h1.301c.303 0 .532-.064.689-.192.159-.13.239-.317.239-.561 0-.264-.091-.459-.272-.584-.177-.124-.447-.187-.808-.187zm-1.939 2.166V14.46h2.1c.462 0 .825.111 1.089.334.263.22.395.518.395.895 0 .238-.078.455-.234.65a.967.967 0 01-.575.362v.071c.313.042.562.165.749.37.187.202.281.448.281.74 0 .421-.15.757-.451 1.006-.3.25-.715.375-1.245.375h-2.109zM75.544 40.448l-1.337-3.971h-5.82l-1.36 3.97h-2.86l5.612-15.528h3.178l5.624 15.529h-3.037zm-4.33-12.57l-2.17 6.404h4.505l-2.148-6.403h-.186zm15.66.603c1.52 0 2.721.542 3.606 1.625.891 1.083 1.337 2.569 1.337 4.455 0 1.88-.442 3.365-1.326 4.456-.877 1.083-2.072 1.625-3.585 1.625-.855 0-1.604-.173-2.247-.517a3.32 3.32 0 01-1.414-1.464h-.186v5.704H80.34v-15.69h2.62v1.948h.186a3.78 3.78 0 011.501-1.572 4.403 4.403 0 012.225-.57zm-.856 9.89c.943 0 1.677-.337 2.204-1.012.533-.674.8-1.607.8-2.798 0-1.19-.267-2.123-.8-2.798-.527-.674-1.257-1.011-2.193-1.011-.928 0-1.662.34-2.203 1.022-.54.682-.815 1.61-.822 2.787.007 1.177.278 2.106.811 2.788.54.681 1.275 1.022 2.203 1.022zm14.388-9.89c1.52 0 2.722.542 3.606 1.625.891 1.083 1.337 2.569 1.337 4.455 0 1.88-.442 3.365-1.326 4.456-.878 1.083-2.072 1.625-3.584 1.625-.855 0-1.605-.173-2.248-.517a3.321 3.321 0 01-1.413-1.464h-.188v5.704h-2.718v-15.69h2.62v1.948h.186a3.783 3.783 0 011.503-1.572c.665-.38 1.406-.57 2.225-.57zm-.855 9.89c.942 0 1.677-.337 2.203-1.012.533-.674.799-1.607.799-2.798 0-1.19-.266-2.123-.799-2.798-.526-.674-1.257-1.011-2.193-1.011-.928 0-1.662.34-2.203 1.022-.54.682-.814 1.61-.822 2.787.008 1.177.278 2.106.811 2.788.54.681 1.275 1.022 2.204 1.022zm12.726-2.142h2.763c.087.696.457 1.252 1.107 1.669.65.408 1.476.613 2.478.613.935 0 1.702-.208 2.301-.624.607-.424.91-.962.91-1.615 0-.56-.231-1.015-.691-1.366-.452-.352-1.188-.642-2.203-.872l-2.05-.463c-1.432-.315-2.495-.828-3.189-1.539-.688-.717-1.031-1.653-1.031-2.808 0-1.414.538-2.547 1.612-3.4 1.081-.862 2.506-1.292 4.274-1.292 1.659 0 3.033.423 4.122 1.27 1.089.846 1.666 1.937 1.732 3.271h-2.707a2.306 2.306 0 00-.998-1.625c-.57-.402-1.29-.603-2.159-.603-.914 0-1.648.201-2.204.603-.548.395-.822.922-.822 1.582 0 .524.216.95.647 1.28.431.324 1.136.596 2.115.819l1.82.409c1.601.351 2.759.875 3.474 1.57.724.697 1.086 1.636 1.086 2.82 0 1.514-.559 2.712-1.677 3.594-1.111.876-2.624 1.313-4.538 1.313-1.812 0-3.278-.416-4.396-1.248-1.111-.832-1.702-1.951-1.776-3.358zm15.473-10.438h2.708v2.96h2.564v2.13h-2.564v5.779c0 .581.131 1.008.394 1.28.263.266.679.399 1.25.399.248 0 .555-.018.92-.054v2.088c-.452.086-.928.129-1.425.129-1.373 0-2.36-.248-2.96-.743-.591-.495-.887-1.313-.887-2.453V30.88h-1.896v-2.13h1.896v-2.96zm10.178 11.644c.518.674 1.254 1.011 2.203 1.011.95 0 1.681-.337 2.192-1.011.52-.682.779-1.64.779-2.874 0-1.226-.259-2.18-.779-2.862-.519-.682-1.249-1.023-2.192-1.023-.949 0-1.685.341-2.203 1.023-.519.681-.778 1.636-.778 2.862 0 1.234.259 2.192.778 2.874zm2.203 3.25c-1.798 0-3.207-.542-4.231-1.625-1.023-1.09-1.535-2.59-1.535-4.499 0-1.894.516-3.386 1.546-4.476 1.03-1.098 2.437-1.647 4.22-1.647 1.79 0 3.197.545 4.22 1.636 1.03 1.09 1.545 2.586 1.545 4.487 0 1.909-.515 3.408-1.545 4.499-1.023 1.083-2.43 1.625-4.22 1.625zm7.833-.237V28.675h2.62v1.83h.186c.168-.589.544-1.073 1.129-1.453.592-.38 1.271-.57 2.039-.57.489 0 .865.039 1.129.118v2.475c-.278-.1-.742-.151-1.393-.151-.884 0-1.603.251-2.159.753-.555.495-.833 1.152-.833 1.97v6.8h-2.718zm13.389-9.89c-.811 0-1.48.262-2.005.786-.527.523-.819 1.216-.878 2.077h5.645c-.029-.876-.292-1.572-.789-2.088-.497-.517-1.154-.775-1.973-.775zm2.785 6.65h2.576c-.257 1.077-.859 1.927-1.809 2.551-.943.617-2.116.926-3.519.926-1.761 0-3.146-.538-4.154-1.614-1.001-1.084-1.502-2.573-1.502-4.467 0-1.894.504-3.393 1.513-4.498 1.008-1.112 2.382-1.668 4.121-1.668 1.71 0 3.048.527 4.012 1.582.972 1.047 1.457 2.5 1.457 4.358v.861h-8.374v.14c.037.983.322 1.762.855 2.336.542.566 1.257.85 2.149.85 1.374 0 2.265-.452 2.675-1.356z" fill="#212126"/></svg>