<svg fill="none" xmlns="http://www.w3.org/2000/svg" viewBox="0 0 194 56"><path d="M0 9.333A9.333 9.333 0 019.333 0h175.334A9.333 9.333 0 01194 9.333v37.334A9.333 9.333 0 01184.667 56H9.333A9.333 9.333 0 010 46.667V9.333z" fill="#EFF1F5"/><path d="M46.382 32.673c3.16-1.976 5.556-3.483 5.763-3.6.66-.4 1.342-1.46 0-2.282a693.386 693.386 0 01-5.763-3.6l-4.151 4.776 4.151 4.706z" fill="#FFD900"/><path d="M42.23 27.967L29.012 43.144c.31.047.661-.047 1.074-.305.867-.54 10.059-6.26 16.297-10.165l-4.151-4.707z" fill="#F43249"/><path d="M42.231 27.967l4.152-4.753S31.016 13.66 30.086 13.096a1.446 1.446 0 00-1.094-.237l13.24 15.108z" fill="#00EE76"/><path d="M42.231 27.965l-13.24-15.107c-.537.141-.991.682-.991 1.788v26.708c0 1.013.351 1.742 1.012 1.812l13.22-15.2z" fill="#00D3FF"/><path d="M65.492 16.897a4.82 4.82 0 01-.138.958 1.572 1.572 0 01-.326.632v.054h3.217v-4.986h-2.537l-.216 3.342zm-1.213 2.366v1.27h-.768V18.54h.492c.23-.119.398-.314.505-.584.11-.273.18-.633.207-1.078l.253-4.046h4.104v5.708h.827v1.991h-.767v-1.27h-4.853zm7.401-1.074c.255.312.616.468 1.085.468s.83-.156 1.085-.468c.254-.315.38-.758.38-1.328 0-.57-.126-1.011-.38-1.323-.255-.315-.616-.472-1.085-.472s-.83.157-1.085.472c-.254.312-.381.753-.381 1.323s.127 1.013.381 1.328zm2.753.494c-.407.443-.963.664-1.668.664s-1.262-.221-1.673-.664c-.407-.445-.611-1.053-.611-1.822 0-.772.204-1.38.611-1.822.407-.443.965-.664 1.673-.664.708 0 1.265.221 1.673.664.407.443.611 1.05.611 1.822 0 .77-.205 1.377-.616 1.822zM80.2 15.93h-.8a1.09 1.09 0 00-.436-.62c-.221-.163-.501-.244-.841-.244-.445 0-.799.16-1.062.48-.26.322-.39.754-.39 1.297 0 .553.131.994.394 1.324.264.326.616.49 1.058.49.333 0 .61-.073.831-.219a1.04 1.04 0 00.446-.623h.8a1.71 1.71 0 01-.657 1.109c-.365.282-.837.423-1.416.423-.695 0-1.248-.226-1.659-.677-.41-.454-.616-1.063-.616-1.827 0-.748.206-1.347.616-1.795.41-.449.962-.673 1.654-.673.58 0 1.052.147 1.416.441.367.294.588.665.662 1.114zm4.332-1.47v.641h-1.609v4.162h-.79V15.1h-1.609v-.641h4.008zM85.829 21c-.126 0-.243-.009-.354-.027v-.654c.08.014.19.022.33.022.231 0 .413-.06.548-.178.138-.12.259-.323.363-.61l.092-.286-1.834-4.807h.855l1.36 3.952h.074l1.355-3.952h.842l-1.935 5.097c-.212.555-.436.934-.675 1.136-.24.205-.58.307-1.021.307zm7.71-1.737V15.1h-2.427v4.162h-.79V14.46h4.007v4.803h-.79zm2.08 0V14.46h.79v1.987h2.472V14.46h.791v4.803h-.79v-2.175h-2.473v2.175h-.79zm6.298-1.074c.254.312.616.468 1.085.468s.83-.156 1.084-.468c.255-.315.382-.758.382-1.328 0-.57-.127-1.011-.382-1.323-.254-.315-.615-.472-1.084-.472-.469 0-.831.157-1.085.472-.254.312-.381.753-.381 1.323s.127 1.013.381 1.328zm2.753.494c-.408.443-.963.664-1.668.664s-1.262-.221-1.673-.664c-.407-.445-.611-1.053-.611-1.822 0-.772.204-1.38.611-1.822.407-.443.965-.664 1.673-.664.708 0 1.265.221 1.673.664.407.443.611 1.05.611 1.822 0 .77-.205 1.377-.616 1.822zm6.035-3.582h-1.209v1.355h1.08c.622 0 .933-.229.933-.686a.619.619 0 00-.202-.49c-.132-.12-.333-.179-.602-.179zm-.06 1.996h-1.149v1.524h1.301c.303 0 .533-.064.689-.192.16-.13.239-.317.239-.561 0-.264-.09-.459-.271-.584-.177-.124-.447-.187-.809-.187zm-1.939 2.166V14.46h2.1c.463 0 .826.111 1.089.334.264.22.395.518.395.895 0 .238-.077.455-.234.65a.965.965 0 01-.574.362v.071c.312.042.562.165.749.37.187.202.28.448.28.74 0 .421-.15.757-.45 1.006-.301.25-.716.375-1.246.375h-2.109zM76.138 33.6c0 1.809-.55 3.25-1.65 4.326-1.099 1.068-2.578 1.603-4.436 1.603-2.02 0-3.615-.654-4.785-1.96-1.17-1.314-1.756-3.1-1.756-5.36 0-2.228.589-4.001 1.765-5.321 1.177-1.326 2.756-1.99 4.737-1.99 1.608 0 2.955.426 4.042 1.275 1.087.85 1.743 1.987 1.968 3.41h-2.48c-.25-.793-.681-1.401-1.292-1.826-.605-.425-1.35-.637-2.238-.637-1.216 0-2.18.454-2.894 1.361-.707.908-1.061 2.144-1.061 3.709 0 1.583.36 2.832 1.08 3.746.727.915 1.71 1.372 2.952 1.372 1.061 0 1.923-.296 2.585-.889.663-.592 1.004-1.368 1.023-2.327l.01-.29H70.36v-1.95h5.778v1.747zm4.665 2.877c.457.605 1.103.908 1.94.908.835 0 1.478-.303 1.928-.908.457-.611.685-1.47.685-2.578 0-1.101-.228-1.957-.685-2.569-.456-.611-1.1-.917-1.929-.917-.836 0-1.482.306-1.939.917-.456.612-.685 1.468-.685 2.569 0 1.107.229 1.967.685 2.578zm1.94 2.917c-1.583 0-2.824-.486-3.724-1.459-.9-.978-1.351-2.324-1.351-4.036 0-1.7.453-3.039 1.36-4.017.907-.985 2.145-1.478 3.714-1.478 1.576 0 2.814.49 3.714 1.468.906.979 1.36 2.32 1.36 4.027 0 1.712-.454 3.058-1.36 4.036-.9.973-2.138 1.459-3.714 1.459zm9.507-2.917c.456.605 1.102.908 1.938.908.837 0 1.48-.303 1.93-.908.457-.611.685-1.47.685-2.578 0-1.101-.228-1.957-.685-2.569-.457-.611-1.1-.917-1.93-.917-.836 0-1.482.306-1.938.917-.457.612-.685 1.468-.685 2.569 0 1.107.228 1.967.685 2.578zm1.938 2.917c-1.582 0-2.823-.486-3.723-1.459-.9-.978-1.35-2.324-1.35-4.036 0-1.7.453-3.039 1.359-4.017.907-.985 2.145-1.478 3.714-1.478 1.576 0 2.814.49 3.714 1.468.907.979 1.36 2.32 1.36 4.027 0 1.712-.453 3.058-1.36 4.036-.9.973-2.138 1.459-3.714 1.459zm13.386-3.206c.476-.593.713-1.394.713-2.405 0-1.01-.237-1.812-.713-2.405-.477-.598-1.129-.898-1.959-.898-.823 0-1.466.296-1.929.889-.457.592-.685 1.397-.685 2.414 0 1.017.228 1.822.685 2.414.457.586 1.1.879 1.929.879.83 0 1.482-.296 1.959-.889zm-1.959 7.01c-1.344 0-2.437-.273-3.28-.82-.835-.548-1.302-1.278-1.398-2.193h2.402c.077.367.318.657.723.87.412.212.943.318 1.592.318.817 0 1.453-.183 1.91-.55.457-.367.685-.882.685-1.545v-2h-.164a3.114 3.114 0 01-1.293 1.304c-.553.297-1.196.445-1.929.445-1.325 0-2.376-.474-3.154-1.42-.779-.953-1.168-2.227-1.168-3.824 0-1.622.392-2.916 1.177-3.882.784-.972 1.846-1.458 3.184-1.458.72 0 1.372.167 1.957.502a3.214 3.214 0 011.312 1.361h.164v-1.69h2.306V39.22c0 1.223-.454 2.192-1.36 2.907-.907.714-2.129 1.071-3.666 1.071zm7.472-4.017v-14.65h2.393v14.65h-2.393zm9.256-8.874c-.714 0-1.302.235-1.765.704-.463.47-.72 1.092-.772 1.864h4.969c-.027-.785-.258-1.41-.695-1.873-.437-.464-1.017-.695-1.737-.695zm2.451 5.968h2.267c-.226.965-.756 1.728-1.592 2.288-.83.554-1.861.83-3.096.83-1.55 0-2.769-.482-3.657-1.448-.881-.972-1.321-2.308-1.321-4.008 0-1.7.444-3.045 1.331-4.036.888-.998 2.097-1.497 3.627-1.497 1.505 0 2.682.473 3.531 1.42.855.94 1.283 2.243 1.283 3.91v.773h-7.37v.126c.032.882.282 1.58.752 2.095.476.509 1.106.763 1.891.763 1.209 0 1.993-.405 2.354-1.216zm9.107-11.029h5.614c1.39 0 2.515.435 3.377 1.304.868.87 1.302 2.005 1.302 3.409 0 1.378-.447 2.498-1.341 3.36-.887.863-2.035 1.294-3.444 1.294h-3.019v4.568h-2.489V25.246zm2.489 2.086v5.215h2.46c.894 0 1.585-.225 2.074-.676.495-.45.742-1.088.742-1.912 0-.85-.243-1.5-.732-1.95-.483-.451-1.174-.677-2.075-.677h-2.469zm9.806 11.85v-14.65h2.392v14.65h-2.392zm8.437-1.71c.72 0 1.321-.206 1.803-.618.483-.419.724-.934.724-1.545v-.84l-2.382.154c-1.312.084-1.968.56-1.968 1.43 0 .437.167.785.501 1.042.341.251.782.377 1.322.377zm-.705 1.883c-1.029 0-1.868-.29-2.517-.87-.649-.579-.975-1.345-.975-2.297 0-.953.344-1.7 1.033-2.24.694-.542 1.685-.85 2.97-.928l2.721-.164v-.889c0-.521-.17-.92-.511-1.197-.341-.277-.833-.415-1.476-.415-.553 0-1.009.096-1.37.29-.36.186-.595.457-.704.81h-2.258c.097-.933.547-1.673 1.351-2.22.81-.554 1.842-.83 3.097-.83 1.35 0 2.392.311 3.126.936.739.624 1.108 1.5 1.108 2.627v7.213h-2.305v-1.448h-.164c-.296.508-.72.907-1.274 1.197-.546.283-1.164.425-1.852.425zm8.717 3.66c-.496 0-.81-.013-.945-.039v-1.96c.122.026.341.039.655.039.509 0 .91-.107 1.206-.32.302-.212.531-.56.685-1.042l.126-.464-3.772-10.612h2.624l2.469 8.247h.164l2.46-8.247h2.527l-3.81 10.902c-.444 1.307-.99 2.215-1.64 2.723-.643.515-1.56.773-2.749.773z" fill="#212126"/></svg>