<svg version="1.1" id="Layer_1" xmlns="http://www.w3.org/2000/svg" xmlns:xlink="http://www.w3.org/1999/xlink" x="0px" y="0px" viewBox="0 0 2320 2320" enable-background="new 0 0 2320 2320" xml:space="preserve" class="qr-link"><rect x="0" y="0" width="2320" height="2320" fill="rgb(255,255,255)"></rect><g transform="translate(160,160)"><g transform="translate(720,0) scale(0.8,0.8)"><g transform="" style="fill: rgb(0, 0, 0);"><rect width="100" height="100"></rect></g></g><g transform="translate(880,0) scale(0.8,0.8)"><g transform="" style="fill: rgb(0, 0, 0);"><rect width="100" height="100"></rect></g></g><g transform="translate(1040,0) scale(0.8,0.8)"><g transform="" style="fill: rgb(0, 0, 0);"><rect width="100" height="100"></rect></g></g><g transform="translate(1120,0) scale(0.8,0.8)"><g transform="" style="fill: rgb(0, 0, 0);"><rect width="100" height="100"></rect></g></g><g transform="translate(640,80) scale(0.8,0.8)"><g transform="" style="fill: rgb(0, 0, 0);"><rect width="100" height="100"></rect></g></g><g transform="translate(800,80) scale(0.8,0.8)"><g transform="" style="fill: rgb(0, 0, 0);"><rect width="100" height="100"></rect></g></g><g transform="translate(1280,80) scale(0.8,0.8)"><g transform="" style="fill: rgb(0, 0, 0);"><rect width="100" height="100"></rect></g></g><g transform="translate(640,160) scale(0.8,0.8)"><g transform="" style="fill: rgb(0, 0, 0);"><rect width="100" height="100"></rect></g></g><g transform="translate(720,160) scale(0.8,0.8)"><g transform="" style="fill: rgb(0, 0, 0);"><rect width="100" height="100"></rect></g></g><g transform="translate(960,160) scale(0.8,0.8)"><g transform="" style="fill: rgb(0, 0, 0);"><rect width="100" height="100"></rect></g></g><g transform="translate(1120,160) scale(0.8,0.8)"><g transform="" style="fill: rgb(0, 0, 0);"><rect width="100" height="100"></rect></g></g><g transform="translate(1280,160) scale(0.8,0.8)"><g transform="" style="fill: rgb(0, 0, 0);"><rect width="100" height="100"></rect></g></g><g transform="translate(640,240) scale(0.8,0.8)"><g transform="" style="fill: rgb(0, 0, 0);"><rect width="100" height="100"></rect></g></g><g transform="translate(720,240) scale(0.8,0.8)"><g transform="" style="fill: rgb(0, 0, 0);"><rect width="100" height="100"></rect></g></g><g transform="translate(880,240) scale(0.8,0.8)"><g transform="" style="fill: rgb(0, 0, 0);"><rect width="100" height="100"></rect></g></g><g transform="translate(1040,240) scale(0.8,0.8)"><g transform="" style="fill: rgb(0, 0, 0);"><rect width="100" height="100"></rect></g></g><g transform="translate(1200,240) scale(0.8,0.8)"><g transform="" style="fill: rgb(0, 0, 0);"><rect width="100" height="100"></rect></g></g><g transform="translate(1280,240) scale(0.8,0.8)"><g transform="" style="fill: rgb(0, 0, 0);"><rect width="100" height="100"></rect></g></g><g transform="translate(800,320) scale(0.8,0.8)"><g transform="" style="fill: rgb(0, 0, 0);"><rect width="100" height="100"></rect></g></g><g transform="translate(1120,320) scale(0.8,0.8)"><g transform="" style="fill: rgb(0, 0, 0);"><rect width="100" height="100"></rect></g></g><g transform="translate(800,400) scale(0.8,0.8)"><g transform="" style="fill: rgb(0, 0, 0);"><rect width="100" height="100"></rect></g></g><g transform="translate(1280,400) scale(0.8,0.8)"><g transform="" style="fill: rgb(0, 0, 0);"><rect width="100" height="100"></rect></g></g><g transform="translate(640,480) scale(0.8,0.8)"><g transform="" style="fill: rgb(0, 0, 0);"><rect width="100" height="100"></rect></g></g><g transform="translate(800,480) scale(0.8,0.8)"><g transform="" style="fill: rgb(0, 0, 0);"><rect width="100" height="100"></rect></g></g><g transform="translate(960,480) scale(0.8,0.8)"><g transform="" style="fill: rgb(0, 0, 0);"><rect width="100" height="100"></rect></g></g><g transform="translate(1120,480) scale(0.8,0.8)"><g transform="" style="fill: rgb(0, 0, 0);"><rect width="100" height="100"></rect></g></g><g transform="translate(1280,480) scale(0.8,0.8)"><g transform="" style="fill: rgb(0, 0, 0);"><rect width="100" height="100"></rect></g></g><g transform="translate(640,560) scale(0.8,0.8)"><g transform="" style="fill: rgb(0, 0, 0);"><rect width="100" height="100"></rect></g></g><g transform="translate(720,560) scale(0.8,0.8)"><g transform="" style="fill: rgb(0, 0, 0);"><rect width="100" height="100"></rect></g></g><g transform="translate(880,560) scale(0.8,0.8)"><g transform="" style="fill: rgb(0, 0, 0);"><rect width="100" height="100"></rect></g></g><g transform="translate(960,560) scale(0.8,0.8)"><g transform="" style="fill: rgb(0, 0, 0);"><rect width="100" height="100"></rect></g></g><g transform="translate(1280,560) scale(0.8,0.8)"><g transform="" style="fill: rgb(0, 0, 0);"><rect width="100" height="100"></rect></g></g><g transform="translate(0,640) scale(0.8,0.8)"><g transform="" style="fill: rgb(0, 0, 0);"><rect width="100" height="100"></rect></g></g><g transform="translate(480,640) scale(0.8,0.8)"><g transform="" style="fill: rgb(0, 0, 0);"><rect width="100" height="100"></rect></g></g><g transform="translate(640,640) scale(0.8,0.8)"><g transform="" style="fill: rgb(0, 0, 0);"><rect width="100" height="100"></rect></g></g><g transform="translate(720,640) scale(0.8,0.8)"><g transform="" style="fill: rgb(0, 0, 0);"><rect width="100" height="100"></rect></g></g><g transform="translate(960,640) scale(0.8,0.8)"><g transform="" style="fill: rgb(0, 0, 0);"><rect width="100" height="100"></rect></g></g><g transform="translate(1040,640) scale(0.8,0.8)"><g transform="" style="fill: rgb(0, 0, 0);"><rect width="100" height="100"></rect></g></g><g transform="translate(1120,640) scale(0.8,0.8)"><g transform="" style="fill: rgb(0, 0, 0);"><rect width="100" height="100"></rect></g></g><g transform="translate(1200,640) scale(0.8,0.8)"><g transform="" style="fill: rgb(0, 0, 0);"><rect width="100" height="100"></rect></g></g><g transform="translate(1280,640) scale(0.8,0.8)"><g transform="" style="fill: rgb(0, 0, 0);"><rect width="100" height="100"></rect></g></g><g transform="translate(1360,640) scale(0.8,0.8)"><g transform="" style="fill: rgb(0, 0, 0);"><rect width="100" height="100"></rect></g></g><g transform="translate(1440,640) scale(0.8,0.8)"><g transform="" style="fill: rgb(0, 0, 0);"><rect width="100" height="100"></rect></g></g><g transform="translate(1680,640) scale(0.8,0.8)"><g transform="" style="fill: rgb(0, 0, 0);"><rect width="100" height="100"></rect></g></g><g transform="translate(1760,640) scale(0.8,0.8)"><g transform="" style="fill: rgb(0, 0, 0);"><rect width="100" height="100"></rect></g></g><g transform="translate(1840,640) scale(0.8,0.8)"><g transform="" style="fill: rgb(0, 0, 0);"><rect width="100" height="100"></rect></g></g><g transform="translate(0,720) scale(0.8,0.8)"><g transform="" style="fill: rgb(0, 0, 0);"><rect width="100" height="100"></rect></g></g><g transform="translate(80,720) scale(0.8,0.8)"><g transform="" style="fill: rgb(0, 0, 0);"><rect width="100" height="100"></rect></g></g><g transform="translate(240,720) scale(0.8,0.8)"><g transform="" style="fill: rgb(0, 0, 0);"><rect width="100" height="100"></rect></g></g><g transform="translate(320,720) scale(0.8,0.8)"><g transform="" style="fill: rgb(0, 0, 0);"><rect width="100" height="100"></rect></g></g><g transform="translate(400,720) scale(0.8,0.8)"><g transform="" style="fill: rgb(0, 0, 0);"><rect width="100" height="100"></rect></g></g><g transform="translate(560,720) scale(0.8,0.8)"><g transform="" style="fill: rgb(0, 0, 0);"><rect width="100" height="100"></rect></g></g><g transform="translate(640,720) scale(0.8,0.8)"><g transform="" style="fill: rgb(0, 0, 0);"><rect width="100" height="100"></rect></g></g><g transform="translate(800,720) scale(0.8,0.8)"><g transform="" style="fill: rgb(0, 0, 0);"><rect width="100" height="100"></rect></g></g><g transform="translate(960,720) scale(0.8,0.8)"><g transform="" style="fill: rgb(0, 0, 0);"><rect width="100" height="100"></rect></g></g><g transform="translate(1200,720) scale(0.8,0.8)"><g transform="" style="fill: rgb(0, 0, 0);"><rect width="100" height="100"></rect></g></g><g transform="translate(1520,720) scale(0.8,0.8)"><g transform="" style="fill: rgb(0, 0, 0);"><rect width="100" height="100"></rect></g></g><g transform="translate(1600,720) scale(0.8,0.8)"><g transform="" style="fill: rgb(0, 0, 0);"><rect width="100" height="100"></rect></g></g><g transform="translate(1680,720) scale(0.8,0.8)"><g transform="" style="fill: rgb(0, 0, 0);"><rect width="100" height="100"></rect></g></g><g transform="translate(1760,720) scale(0.8,0.8)"><g transform="" style="fill: rgb(0, 0, 0);"><rect width="100" height="100"></rect></g></g><g transform="translate(1840,720) scale(0.8,0.8)"><g transform="" style="fill: rgb(0, 0, 0);"><rect width="100" height="100"></rect></g></g><g transform="translate(80,800) scale(0.8,0.8)"><g transform="" style="fill: rgb(0, 0, 0);"><rect width="100" height="100"></rect></g></g><g transform="translate(320,800) scale(0.8,0.8)"><g transform="" style="fill: rgb(0, 0, 0);"><rect width="100" height="100"></rect></g></g><g transform="translate(480,800) scale(0.8,0.8)"><g transform="" style="fill: rgb(0, 0, 0);"><rect width="100" height="100"></rect></g></g><g transform="translate(560,800) scale(0.8,0.8)"><g transform="" style="fill: rgb(0, 0, 0);"><rect width="100" height="100"></rect></g></g><g transform="translate(800,800) scale(0.8,0.8)"><g transform="" style="fill: rgb(0, 0, 0);"><rect width="100" height="100"></rect></g></g><g transform="translate(1200,800) scale(0.8,0.8)"><g transform="" style="fill: rgb(0, 0, 0);"><rect width="100" height="100"></rect></g></g><g transform="translate(1440,800) scale(0.8,0.8)"><g transform="" style="fill: rgb(0, 0, 0);"><rect width="100" height="100"></rect></g></g><g transform="translate(1520,800) scale(0.8,0.8)"><g transform="" style="fill: rgb(0, 0, 0);"><rect width="100" height="100"></rect></g></g><g transform="translate(1680,800) scale(0.8,0.8)"><g transform="" style="fill: rgb(0, 0, 0);"><rect width="100" height="100"></rect></g></g><g transform="translate(1840,800) scale(0.8,0.8)"><g transform="" style="fill: rgb(0, 0, 0);"><rect width="100" height="100"></rect></g></g><g transform="translate(1920,800) scale(0.8,0.8)"><g transform="" style="fill: rgb(0, 0, 0);"><rect width="100" height="100"></rect></g></g><g transform="translate(0,880) scale(0.8,0.8)"><g transform="" style="fill: rgb(0, 0, 0);"><rect width="100" height="100"></rect></g></g><g transform="translate(240,880) scale(0.8,0.8)"><g transform="" style="fill: rgb(0, 0, 0);"><rect width="100" height="100"></rect></g></g><g transform="translate(320,880) scale(0.8,0.8)"><g transform="" style="fill: rgb(0, 0, 0);"><rect width="100" height="100"></rect></g></g><g transform="translate(400,880) scale(0.8,0.8)"><g transform="" style="fill: rgb(0, 0, 0);"><rect width="100" height="100"></rect></g></g><g transform="translate(560,880) scale(0.8,0.8)"><g transform="" style="fill: rgb(0, 0, 0);"><rect width="100" height="100"></rect></g></g><g transform="translate(640,880) scale(0.8,0.8)"><g transform="" style="fill: rgb(0, 0, 0);"><rect width="100" height="100"></rect></g></g><g transform="translate(720,880) scale(0.8,0.8)"><g transform="" style="fill: rgb(0, 0, 0);"><rect width="100" height="100"></rect></g></g><g transform="translate(1200,880) scale(0.8,0.8)"><g transform="" style="fill: rgb(0, 0, 0);"><rect width="100" height="100"></rect></g></g><g transform="translate(1360,880) scale(0.8,0.8)"><g transform="" style="fill: rgb(0, 0, 0);"><rect width="100" height="100"></rect></g></g><g transform="translate(1440,880) scale(0.8,0.8)"><g transform="" style="fill: rgb(0, 0, 0);"><rect width="100" height="100"></rect></g></g><g transform="translate(1600,880) scale(0.8,0.8)"><g transform="" style="fill: rgb(0, 0, 0);"><rect width="100" height="100"></rect></g></g><g transform="translate(1680,880) scale(0.8,0.8)"><g transform="" style="fill: rgb(0, 0, 0);"><rect width="100" height="100"></rect></g></g><g transform="translate(1920,880) scale(0.8,0.8)"><g transform="" style="fill: rgb(0, 0, 0);"><rect width="100" height="100"></rect></g></g><g transform="translate(160,960) scale(0.8,0.8)"><g transform="" style="fill: rgb(0, 0, 0);"><rect width="100" height="100"></rect></g></g><g transform="translate(240,960) scale(0.8,0.8)"><g transform="" style="fill: rgb(0, 0, 0);"><rect width="100" height="100"></rect></g></g><g transform="translate(400,960) scale(0.8,0.8)"><g transform="" style="fill: rgb(0, 0, 0);"><rect width="100" height="100"></rect></g></g><g transform="translate(480,960) scale(0.8,0.8)"><g transform="" style="fill: rgb(0, 0, 0);"><rect width="100" height="100"></rect></g></g><g transform="translate(560,960) scale(0.8,0.8)"><g transform="" style="fill: rgb(0, 0, 0);"><rect width="100" height="100"></rect></g></g><g transform="translate(880,960) scale(0.8,0.8)"><g transform="" style="fill: rgb(0, 0, 0);"><rect width="100" height="100"></rect></g></g><g transform="translate(1040,960) scale(0.8,0.8)"><g transform="" style="fill: rgb(0, 0, 0);"><rect width="100" height="100"></rect></g></g><g transform="translate(1120,960) scale(0.8,0.8)"><g transform="" style="fill: rgb(0, 0, 0);"><rect width="100" height="100"></rect></g></g><g transform="translate(1200,960) scale(0.8,0.8)"><g transform="" style="fill: rgb(0, 0, 0);"><rect width="100" height="100"></rect></g></g><g transform="translate(1440,960) scale(0.8,0.8)"><g transform="" style="fill: rgb(0, 0, 0);"><rect width="100" height="100"></rect></g></g><g transform="translate(1920,960) scale(0.8,0.8)"><g transform="" style="fill: rgb(0, 0, 0);"><rect width="100" height="100"></rect></g></g><g transform="translate(0,1040) scale(0.8,0.8)"><g transform="" style="fill: rgb(0, 0, 0);"><rect width="100" height="100"></rect></g></g><g transform="translate(160,1040) scale(0.8,0.8)"><g transform="" style="fill: rgb(0, 0, 0);"><rect width="100" height="100"></rect></g></g><g transform="translate(320,1040) scale(0.8,0.8)"><g transform="" style="fill: rgb(0, 0, 0);"><rect width="100" height="100"></rect></g></g><g transform="translate(560,1040) scale(0.8,0.8)"><g transform="" style="fill: rgb(0, 0, 0);"><rect width="100" height="100"></rect></g></g><g transform="translate(640,1040) scale(0.8,0.8)"><g transform="" style="fill: rgb(0, 0, 0);"><rect width="100" height="100"></rect></g></g><g transform="translate(800,1040) scale(0.8,0.8)"><g transform="" style="fill: rgb(0, 0, 0);"><rect width="100" height="100"></rect></g></g><g transform="translate(960,1040) scale(0.8,0.8)"><g transform="" style="fill: rgb(0, 0, 0);"><rect width="100" height="100"></rect></g></g><g transform="translate(1040,1040) scale(0.8,0.8)"><g transform="" style="fill: rgb(0, 0, 0);"><rect width="100" height="100"></rect></g></g><g transform="translate(1200,1040) scale(0.8,0.8)"><g transform="" style="fill: rgb(0, 0, 0);"><rect width="100" height="100"></rect></g></g><g transform="translate(1280,1040) scale(0.8,0.8)"><g transform="" style="fill: rgb(0, 0, 0);"><rect width="100" height="100"></rect></g></g><g transform="translate(1360,1040) scale(0.8,0.8)"><g transform="" style="fill: rgb(0, 0, 0);"><rect width="100" height="100"></rect></g></g><g transform="translate(1520,1040) scale(0.8,0.8)"><g transform="" style="fill: rgb(0, 0, 0);"><rect width="100" height="100"></rect></g></g><g transform="translate(1840,1040) scale(0.8,0.8)"><g transform="" style="fill: rgb(0, 0, 0);"><rect width="100" height="100"></rect></g></g><g transform="translate(0,1120) scale(0.8,0.8)"><g transform="" style="fill: rgb(0, 0, 0);"><rect width="100" height="100"></rect></g></g><g transform="translate(160,1120) scale(0.8,0.8)"><g transform="" style="fill: rgb(0, 0, 0);"><rect width="100" height="100"></rect></g></g><g transform="translate(400,1120) scale(0.8,0.8)"><g transform="" style="fill: rgb(0, 0, 0);"><rect width="100" height="100"></rect></g></g><g transform="translate(480,1120) scale(0.8,0.8)"><g transform="" style="fill: rgb(0, 0, 0);"><rect width="100" height="100"></rect></g></g><g transform="translate(560,1120) scale(0.8,0.8)"><g transform="" style="fill: rgb(0, 0, 0);"><rect width="100" height="100"></rect></g></g><g transform="translate(640,1120) scale(0.8,0.8)"><g transform="" style="fill: rgb(0, 0, 0);"><rect width="100" height="100"></rect></g></g><g transform="translate(1040,1120) scale(0.8,0.8)"><g transform="" style="fill: rgb(0, 0, 0);"><rect width="100" height="100"></rect></g></g><g transform="translate(1120,1120) scale(0.8,0.8)"><g transform="" style="fill: rgb(0, 0, 0);"><rect width="100" height="100"></rect></g></g><g transform="translate(1200,1120) scale(0.8,0.8)"><g transform="" style="fill: rgb(0, 0, 0);"><rect width="100" height="100"></rect></g></g><g transform="translate(1440,1120) scale(0.8,0.8)"><g transform="" style="fill: rgb(0, 0, 0);"><rect width="100" height="100"></rect></g></g><g transform="translate(1520,1120) scale(0.8,0.8)"><g transform="" style="fill: rgb(0, 0, 0);"><rect width="100" height="100"></rect></g></g><g transform="translate(1600,1120) scale(0.8,0.8)"><g transform="" style="fill: rgb(0, 0, 0);"><rect width="100" height="100"></rect></g></g><g transform="translate(1680,1120) scale(0.8,0.8)"><g transform="" style="fill: rgb(0, 0, 0);"><rect width="100" height="100"></rect></g></g><g transform="translate(1840,1120) scale(0.8,0.8)"><g transform="" style="fill: rgb(0, 0, 0);"><rect width="100" height="100"></rect></g></g><g transform="translate(1920,1120) scale(0.8,0.8)"><g transform="" style="fill: rgb(0, 0, 0);"><rect width="100" height="100"></rect></g></g><g transform="translate(0,1200) scale(0.8,0.8)"><g transform="" style="fill: rgb(0, 0, 0);"><rect width="100" height="100"></rect></g></g><g transform="translate(160,1200) scale(0.8,0.8)"><g transform="" style="fill: rgb(0, 0, 0);"><rect width="100" height="100"></rect></g></g><g transform="translate(400,1200) scale(0.8,0.8)"><g transform="" style="fill: rgb(0, 0, 0);"><rect width="100" height="100"></rect></g></g><g transform="translate(560,1200) scale(0.8,0.8)"><g transform="" style="fill: rgb(0, 0, 0);"><rect width="100" height="100"></rect></g></g><g transform="translate(640,1200) scale(0.8,0.8)"><g transform="" style="fill: rgb(0, 0, 0);"><rect width="100" height="100"></rect></g></g><g transform="translate(960,1200) scale(0.8,0.8)"><g transform="" style="fill: rgb(0, 0, 0);"><rect width="100" height="100"></rect></g></g><g transform="translate(1040,1200) scale(0.8,0.8)"><g transform="" style="fill: rgb(0, 0, 0);"><rect width="100" height="100"></rect></g></g><g transform="translate(1120,1200) scale(0.8,0.8)"><g transform="" style="fill: rgb(0, 0, 0);"><rect width="100" height="100"></rect></g></g><g transform="translate(1200,1200) scale(0.8,0.8)"><g transform="" style="fill: rgb(0, 0, 0);"><rect width="100" height="100"></rect></g></g><g transform="translate(1520,1200) scale(0.8,0.8)"><g transform="" style="fill: rgb(0, 0, 0);"><rect width="100" height="100"></rect></g></g><g transform="translate(1680,1200) scale(0.8,0.8)"><g transform="" style="fill: rgb(0, 0, 0);"><rect width="100" height="100"></rect></g></g><g transform="translate(1760,1200) scale(0.8,0.8)"><g transform="" style="fill: rgb(0, 0, 0);"><rect width="100" height="100"></rect></g></g><g transform="translate(1920,1200) scale(0.8,0.8)"><g transform="" style="fill: rgb(0, 0, 0);"><rect width="100" height="100"></rect></g></g><g transform="translate(0,1280) scale(0.8,0.8)"><g transform="" style="fill: rgb(0, 0, 0);"><rect width="100" height="100"></rect></g></g><g transform="translate(240,1280) scale(0.8,0.8)"><g transform="" style="fill: rgb(0, 0, 0);"><rect width="100" height="100"></rect></g></g><g transform="translate(480,1280) scale(0.8,0.8)"><g transform="" style="fill: rgb(0, 0, 0);"><rect width="100" height="100"></rect></g></g><g transform="translate(560,1280) scale(0.8,0.8)"><g transform="" style="fill: rgb(0, 0, 0);"><rect width="100" height="100"></rect></g></g><g transform="translate(800,1280) scale(0.8,0.8)"><g transform="" style="fill: rgb(0, 0, 0);"><rect width="100" height="100"></rect></g></g><g transform="translate(960,1280) scale(0.8,0.8)"><g transform="" style="fill: rgb(0, 0, 0);"><rect width="100" height="100"></rect></g></g><g transform="translate(1120,1280) scale(0.8,0.8)"><g transform="" style="fill: rgb(0, 0, 0);"><rect width="100" height="100"></rect></g></g><g transform="translate(1280,1280) scale(0.8,0.8)"><g transform="" style="fill: rgb(0, 0, 0);"><rect width="100" height="100"></rect></g></g><g transform="translate(1360,1280) scale(0.8,0.8)"><g transform="" style="fill: rgb(0, 0, 0);"><rect width="100" height="100"></rect></g></g><g transform="translate(1440,1280) scale(0.8,0.8)"><g transform="" style="fill: rgb(0, 0, 0);"><rect width="100" height="100"></rect></g></g><g transform="translate(1520,1280) scale(0.8,0.8)"><g transform="" style="fill: rgb(0, 0, 0);"><rect width="100" height="100"></rect></g></g><g transform="translate(1600,1280) scale(0.8,0.8)"><g transform="" style="fill: rgb(0, 0, 0);"><rect width="100" height="100"></rect></g></g><g transform="translate(1760,1280) scale(0.8,0.8)"><g transform="" style="fill: rgb(0, 0, 0);"><rect width="100" height="100"></rect></g></g><g transform="translate(640,1360) scale(0.8,0.8)"><g transform="" style="fill: rgb(0, 0, 0);"><rect width="100" height="100"></rect></g></g><g transform="translate(720,1360) scale(0.8,0.8)"><g transform="" style="fill: rgb(0, 0, 0);"><rect width="100" height="100"></rect></g></g><g transform="translate(800,1360) scale(0.8,0.8)"><g transform="" style="fill: rgb(0, 0, 0);"><rect width="100" height="100"></rect></g></g><g transform="translate(1280,1360) scale(0.8,0.8)"><g transform="" style="fill: rgb(0, 0, 0);"><rect width="100" height="100"></rect></g></g><g transform="translate(1600,1360) scale(0.8,0.8)"><g transform="" style="fill: rgb(0, 0, 0);"><rect width="100" height="100"></rect></g></g><g transform="translate(720,1440) scale(0.8,0.8)"><g transform="" style="fill: rgb(0, 0, 0);"><rect width="100" height="100"></rect></g></g><g transform="translate(960,1440) scale(0.8,0.8)"><g transform="" style="fill: rgb(0, 0, 0);"><rect width="100" height="100"></rect></g></g><g transform="translate(1040,1440) scale(0.8,0.8)"><g transform="" style="fill: rgb(0, 0, 0);"><rect width="100" height="100"></rect></g></g><g transform="translate(1120,1440) scale(0.8,0.8)"><g transform="" style="fill: rgb(0, 0, 0);"><rect width="100" height="100"></rect></g></g><g transform="translate(1280,1440) scale(0.8,0.8)"><g transform="" style="fill: rgb(0, 0, 0);"><rect width="100" height="100"></rect></g></g><g transform="translate(1440,1440) scale(0.8,0.8)"><g transform="" style="fill: rgb(0, 0, 0);"><rect width="100" height="100"></rect></g></g><g transform="translate(1600,1440) scale(0.8,0.8)"><g transform="" style="fill: rgb(0, 0, 0);"><rect width="100" height="100"></rect></g></g><g transform="translate(1920,1440) scale(0.8,0.8)"><g transform="" style="fill: rgb(0, 0, 0);"><rect width="100" height="100"></rect></g></g><g transform="translate(800,1520) scale(0.8,0.8)"><g transform="" style="fill: rgb(0, 0, 0);"><rect width="100" height="100"></rect></g></g><g transform="translate(880,1520) scale(0.8,0.8)"><g transform="" style="fill: rgb(0, 0, 0);"><rect width="100" height="100"></rect></g></g><g transform="translate(1120,1520) scale(0.8,0.8)"><g transform="" style="fill: rgb(0, 0, 0);"><rect width="100" height="100"></rect></g></g><g transform="translate(1280,1520) scale(0.8,0.8)"><g transform="" style="fill: rgb(0, 0, 0);"><rect width="100" height="100"></rect></g></g><g transform="translate(1600,1520) scale(0.8,0.8)"><g transform="" style="fill: rgb(0, 0, 0);"><rect width="100" height="100"></rect></g></g><g transform="translate(1920,1520) scale(0.8,0.8)"><g transform="" style="fill: rgb(0, 0, 0);"><rect width="100" height="100"></rect></g></g><g transform="translate(800,1600) scale(0.8,0.8)"><g transform="" style="fill: rgb(0, 0, 0);"><rect width="100" height="100"></rect></g></g><g transform="translate(880,1600) scale(0.8,0.8)"><g transform="" style="fill: rgb(0, 0, 0);"><rect width="100" height="100"></rect></g></g><g transform="translate(1200,1600) scale(0.8,0.8)"><g transform="" style="fill: rgb(0, 0, 0);"><rect width="100" height="100"></rect></g></g><g transform="translate(1280,1600) scale(0.8,0.8)"><g transform="" style="fill: rgb(0, 0, 0);"><rect width="100" height="100"></rect></g></g><g transform="translate(1360,1600) scale(0.8,0.8)"><g transform="" style="fill: rgb(0, 0, 0);"><rect width="100" height="100"></rect></g></g><g transform="translate(1440,1600) scale(0.8,0.8)"><g transform="" style="fill: rgb(0, 0, 0);"><rect width="100" height="100"></rect></g></g><g transform="translate(1520,1600) scale(0.8,0.8)"><g transform="" style="fill: rgb(0, 0, 0);"><rect width="100" height="100"></rect></g></g><g transform="translate(1600,1600) scale(0.8,0.8)"><g transform="" style="fill: rgb(0, 0, 0);"><rect width="100" height="100"></rect></g></g><g transform="translate(1760,1600) scale(0.8,0.8)"><g transform="" style="fill: rgb(0, 0, 0);"><rect width="100" height="100"></rect></g></g><g transform="translate(1840,1600) scale(0.8,0.8)"><g transform="" style="fill: rgb(0, 0, 0);"><rect width="100" height="100"></rect></g></g><g transform="translate(1920,1600) scale(0.8,0.8)"><g transform="" style="fill: rgb(0, 0, 0);"><rect width="100" height="100"></rect></g></g><g transform="translate(720,1680) scale(0.8,0.8)"><g transform="" style="fill: rgb(0, 0, 0);"><rect width="100" height="100"></rect></g></g><g transform="translate(960,1680) scale(0.8,0.8)"><g transform="" style="fill: rgb(0, 0, 0);"><rect width="100" height="100"></rect></g></g><g transform="translate(1040,1680) scale(0.8,0.8)"><g transform="" style="fill: rgb(0, 0, 0);"><rect width="100" height="100"></rect></g></g><g transform="translate(1200,1680) scale(0.8,0.8)"><g transform="" style="fill: rgb(0, 0, 0);"><rect width="100" height="100"></rect></g></g><g transform="translate(1360,1680) scale(0.8,0.8)"><g transform="" style="fill: rgb(0, 0, 0);"><rect width="100" height="100"></rect></g></g><g transform="translate(1440,1680) scale(0.8,0.8)"><g transform="" style="fill: rgb(0, 0, 0);"><rect width="100" height="100"></rect></g></g><g transform="translate(1840,1680) scale(0.8,0.8)"><g transform="" style="fill: rgb(0, 0, 0);"><rect width="100" height="100"></rect></g></g><g transform="translate(1920,1680) scale(0.8,0.8)"><g transform="" style="fill: rgb(0, 0, 0);"><rect width="100" height="100"></rect></g></g><g transform="translate(1040,1760) scale(0.8,0.8)"><g transform="" style="fill: rgb(0, 0, 0);"><rect width="100" height="100"></rect></g></g><g transform="translate(1120,1760) scale(0.8,0.8)"><g transform="" style="fill: rgb(0, 0, 0);"><rect width="100" height="100"></rect></g></g><g transform="translate(1200,1760) scale(0.8,0.8)"><g transform="" style="fill: rgb(0, 0, 0);"><rect width="100" height="100"></rect></g></g><g transform="translate(1360,1760) scale(0.8,0.8)"><g transform="" style="fill: rgb(0, 0, 0);"><rect width="100" height="100"></rect></g></g><g transform="translate(1680,1760) scale(0.8,0.8)"><g transform="" style="fill: rgb(0, 0, 0);"><rect width="100" height="100"></rect></g></g><g transform="translate(1760,1760) scale(0.8,0.8)"><g transform="" style="fill: rgb(0, 0, 0);"><rect width="100" height="100"></rect></g></g><g transform="translate(1920,1760) scale(0.8,0.8)"><g transform="" style="fill: rgb(0, 0, 0);"><rect width="100" height="100"></rect></g></g><g transform="translate(800,1840) scale(0.8,0.8)"><g transform="" style="fill: rgb(0, 0, 0);"><rect width="100" height="100"></rect></g></g><g transform="translate(960,1840) scale(0.8,0.8)"><g transform="" style="fill: rgb(0, 0, 0);"><rect width="100" height="100"></rect></g></g><g transform="translate(1040,1840) scale(0.8,0.8)"><g transform="" style="fill: rgb(0, 0, 0);"><rect width="100" height="100"></rect></g></g><g transform="translate(1200,1840) scale(0.8,0.8)"><g transform="" style="fill: rgb(0, 0, 0);"><rect width="100" height="100"></rect></g></g><g transform="translate(1280,1840) scale(0.8,0.8)"><g transform="" style="fill: rgb(0, 0, 0);"><rect width="100" height="100"></rect></g></g><g transform="translate(1360,1840) scale(0.8,0.8)"><g transform="" style="fill: rgb(0, 0, 0);"><rect width="100" height="100"></rect></g></g><g transform="translate(1440,1840) scale(0.8,0.8)"><g transform="" style="fill: rgb(0, 0, 0);"><rect width="100" height="100"></rect></g></g><g transform="translate(1520,1840) scale(0.8,0.8)"><g transform="" style="fill: rgb(0, 0, 0);"><rect width="100" height="100"></rect></g></g><g transform="translate(1600,1840) scale(0.8,0.8)"><g transform="" style="fill: rgb(0, 0, 0);"><rect width="100" height="100"></rect></g></g><g transform="translate(1920,1840) scale(0.8,0.8)"><g transform="" style="fill: rgb(0, 0, 0);"><rect width="100" height="100"></rect></g></g><g transform="translate(640,1920) scale(0.8,0.8)"><g transform="" style="fill: rgb(0, 0, 0);"><rect width="100" height="100"></rect></g></g><g transform="translate(720,1920) scale(0.8,0.8)"><g transform="" style="fill: rgb(0, 0, 0);"><rect width="100" height="100"></rect></g></g><g transform="translate(880,1920) scale(0.8,0.8)"><g transform="" style="fill: rgb(0, 0, 0);"><rect width="100" height="100"></rect></g></g><g transform="translate(960,1920) scale(0.8,0.8)"><g transform="" style="fill: rgb(0, 0, 0);"><rect width="100" height="100"></rect></g></g><g transform="translate(1040,1920) scale(0.8,0.8)"><g transform="" style="fill: rgb(0, 0, 0);"><rect width="100" height="100"></rect></g></g><g transform="translate(1280,1920) scale(0.8,0.8)"><g transform="" style="fill: rgb(0, 0, 0);"><rect width="100" height="100"></rect></g></g><g transform="translate(1440,1920) scale(0.8,0.8)"><g transform="" style="fill: rgb(0, 0, 0);"><rect width="100" height="100"></rect></g></g><g transform="translate(1680,1920) scale(0.8,0.8)"><g transform="" style="fill: rgb(0, 0, 0);"><rect width="100" height="100"></rect></g></g><g transform="translate(1920,1920) scale(0.8,0.8)"><g transform="" style="fill: rgb(0, 0, 0);"><rect width="100" height="100"></rect></g></g><g transform="translate(0,0) scale(5.6, 5.6)"><g transform="" style="fill: rgb(0, 0, 0);"><g><rect x="15" y="15" width="70" height="70" style="fill: none;"></rect><path d="M85,0H15H0v15v70v15h15h70h15V85V15V0H85z M85,85H15V15h70V85z"></path></g></g></g><g transform="translate(1440,0) scale(5.6, 5.6)"><g transform="" style="fill: rgb(0, 0, 0);"><g><rect x="15" y="15" width="70" height="70" style="fill: none;"></rect><path d="M85,0H15H0v15v70v15h15h70h15V85V15V0H85z M85,85H15V15h70V85z"></path></g></g></g><g transform="translate(0,1440) scale(5.6, 5.6)"><g transform="" style="fill: rgb(0, 0, 0);"><g><rect x="15" y="15" width="70" height="70" style="fill: none;"></rect><path d="M85,0H15H0v15v70v15h15h70h15V85V15V0H85z M85,85H15V15h70V85z"></path></g></g></g><g transform="translate(160,160) scale(2.4, 2.4)"><g transform="" style="fill: rgb(0, 0, 0);"><rect width="100" height="100"></rect></g></g><g transform="translate(1600,160) scale(2.4, 2.4)"><g transform="" style="fill: rgb(0, 0, 0);"><rect width="100" height="100"></rect></g></g><g transform="translate(160,1600) scale(2.4, 2.4)"><g transform="" style="fill: rgb(0, 0, 0);"><rect width="100" height="100"></rect></g></g></g></svg>