<svg width="48" height="48" viewBox="0 0 48 48" fill="none" xmlns="http://www.w3.org/2000/svg">
    <rect width="48" height="48" rx="8" fill="#EFF1F5"/>
    <path d="M31.6382 13.6875C27.792 14.7415 24.1463 15.7794 20.2895 16.8816C19.7243 17.0863 19.0559 17.6187 19.0559 18.3559C19.0557 21.6553 19.0559 24.8822 19.0559 28.184C16.5888 27.6926 13.875 29.9039 13.875 32.1152C13.875 33.5894 15.1086 34.3265 16.3428 34.3123C18.6192 34.3039 21.0296 32.6066 21.0296 30.3953C21.015 28.2557 21.0296 23.7385 21.0296 21.55L30.6513 18.8473V24.9898C28.1842 24.7441 25.2237 26.7098 25.2237 28.9211C25.2237 30.3953 26.4177 31.3733 27.6908 31.3781C30.1579 31.3781 32.625 29.6582 32.625 27.2011C32.6104 22.7312 32.6245 18.1221 32.625 14.4246C32.625 13.9332 32.1316 13.6875 31.6382 13.6875Z" fill="#D8DAE0"/>
</svg>
