<svg width="64" height="64" viewBox="0 0 64 64" fill="none" xmlns="http://www.w3.org/2000/svg">
    <path d="M56.4417 39.2172L53.3359 37.8369L45.0664 56.4448L48.1721 57.825L56.4417 39.2172Z" fill="#1F1F1F"/>
    <path d="M51.1574 58.0054L49.0894 58.752L48.54 58.5067L57.0787 39.0547L57.956 39.472L58.728 41.44C58.728 41.44 58.504 43.1094 55.5147 49.6107C52.5254 56.112 51.1574 58.0054 51.1574 58.0054Z" fill="url(#paint0_linear_36110_579468)"/>
    <path d="M45.3164 57.3667C44.8817 57.9907 42.2297 58.7027 41.5497 58.412C41.1071 58.2227 38.0377 56.7853 36.2057 55.9413C35.2044 55.48 34.8537 54.6213 35.2817 53.4707C36.1297 51.1907 37.9724 47.0147 40.0951 42.484C42.3537 37.6653 44.4284 33.776 45.4511 31.9107C45.8751 31.1373 46.7617 31.0107 47.6511 31.424C49.4764 32.2733 52.3351 33.6013 52.7764 33.7973C53.4324 34.0893 54.8177 36.64 54.5497 37.6613C54.2484 38.8147 53.7244 40.9293 50.4204 47.7973C46.7751 55.3733 45.7511 56.7427 45.3164 57.3667Z" fill="url(#paint1_linear_36110_579468)"/>
    <path d="M56.0573 30.6667C56.0573 11.7907 40.576 6.66667 32 6.66667V4C50.3133 4 58.1747 17.772 58.1747 29.9213C58.1747 34.8347 56.844 37.2773 57.5507 39.2867C57.5507 39.2867 53.7027 49.976 48.4453 58.8667C48.3747 58.9853 48.2253 59.0293 48.1013 58.9707L46.2 58.0667C46.0573 57.9987 45.996 57.828 46.084 57.6973C47.0347 56.28 51.928 47.512 54.8093 39.3187C55.3987 37.6387 56.0573 34.5933 56.0573 30.6667Z" fill="url(#paint2_linear_36110_579468)"/>
    <path d="M40.6729 58.0254L41.6835 58.4867L52.9275 33.8507L51.9169 33.3894L40.6729 58.0254Z" fill="url(#paint3_linear_36110_579468)"/>
    <path d="M15.8298 57.8292L18.9355 56.449L10.666 37.8411L7.56019 39.2214L15.8298 57.8292Z" fill="#1F1F1F"/>
    <path d="M12.8429 58.0054L14.9109 58.752L15.4602 58.5067L6.9202 39.0547L6.04286 39.472L5.26953 41.44C5.26953 41.44 5.49353 43.1094 8.48286 49.6107C11.4722 56.112 12.8429 58.0054 12.8429 58.0054Z" fill="url(#paint4_linear_36110_579468)"/>
    <path d="M18.6843 57.3667C19.119 57.9907 21.771 58.7027 22.451 58.412C22.8936 58.2227 25.963 56.7853 27.795 55.9413C28.7963 55.48 29.147 54.6213 28.719 53.4707C27.871 51.1907 26.0283 47.0147 23.9056 42.484C21.647 37.6653 19.5723 33.776 18.5496 31.9107C18.1256 31.1373 17.239 31.0107 16.3496 31.424C14.5243 32.2733 11.6656 33.6013 11.2243 33.7973C10.5683 34.0893 9.18297 36.64 9.45097 37.6613C9.7523 38.8147 10.2763 40.9293 13.5803 47.7973C17.2256 55.3733 18.2496 56.7427 18.6843 57.3667Z" fill="url(#paint5_linear_36110_579468)"/>
    <path d="M7.94253 30.6667C7.94253 11.7907 23.4239 6.66667 31.9999 6.66667V4C13.6865 4 5.8252 17.772 5.8252 29.9213C5.8252 34.8347 7.15586 37.2773 6.4492 39.2867C6.4492 39.2867 10.2972 49.976 15.5545 58.8667C15.6252 58.9853 15.7745 59.0293 15.8985 58.9707L17.7999 58.0667C17.9425 57.9987 18.0039 57.828 17.9159 57.6973C16.9652 56.28 12.0719 47.512 9.19053 39.3187C8.6012 37.6387 7.94253 34.5933 7.94253 30.6667Z" fill="url(#paint6_linear_36110_579468)"/>
    <path d="M23.3269 58.0254L22.3163 58.4867L11.0723 33.8507L12.0829 33.3894L23.3269 58.0254Z" fill="url(#paint7_linear_36110_579468)"/>
    <path d="M31.9998 6.66675C16.9625 6.66675 10.4092 17.6681 10.4092 17.6681L11.4905 18.0734C11.9705 18.2534 12.5118 18.1281 12.8518 17.7454C15.4598 14.8121 21.0412 10.6667 31.9998 10.6667C42.9585 10.6667 48.5398 14.8121 51.1465 17.7454C51.4879 18.1294 52.0279 18.2547 52.5079 18.0734L53.5892 17.6681C53.5905 17.6681 47.0372 6.66675 31.9998 6.66675Z" fill="url(#paint8_radial_36110_579468)"/>
    <defs>
        <linearGradient id="paint0_linear_36110_579468" x1="49.512" y1="59.0387" x2="58.3107" y2="39.9734" gradientUnits="userSpaceOnUse">
            <stop stop-color="#2B2B2B"/>
            <stop offset="0.632" stop-color="#4A4A4A"/>
            <stop offset="0.903" stop-color="#383838"/>
            <stop offset="1" stop-color="#303030"/>
        </linearGradient>
        <linearGradient id="paint1_linear_36110_579468" x1="39.5164" y1="57.6373" x2="50.8764" y2="32.9493" gradientUnits="userSpaceOnUse">
            <stop stop-color="#2B2B2B"/>
            <stop offset="0.632" stop-color="#4A4A4A"/>
            <stop offset="0.903" stop-color="#383838"/>
            <stop offset="1" stop-color="#303030"/>
        </linearGradient>
        <linearGradient id="paint2_linear_36110_579468" x1="51.7387" y1="3.52667" x2="33.8653" y2="50.0667" gradientUnits="userSpaceOnUse">
            <stop offset="0.442" stop-color="#5E5E5E"/>
            <stop offset="0.585" stop-color="#3D3D3D"/>
            <stop offset="0.646" stop-color="#4F4F4F"/>
            <stop offset="0.765" stop-color="#7D7D7D"/>
            <stop offset="1" stop-color="#404040"/>
        </linearGradient>
        <linearGradient id="paint3_linear_36110_579468" x1="52.1769" y1="33.5561" x2="41.3995" y2="58.3774" gradientUnits="userSpaceOnUse">
            <stop stop-color="#575757"/>
            <stop offset="0.244" stop-color="#C9C9C9"/>
            <stop offset="0.345" stop-color="#FAFAFA"/>
            <stop offset="0.402" stop-color="#D2D2D2"/>
            <stop offset="0.488" stop-color="#9B9B9B"/>
            <stop offset="0.569" stop-color="#6F6F6F"/>
            <stop offset="0.64" stop-color="#505050"/>
            <stop offset="0.701" stop-color="#3D3D3D"/>
            <stop offset="0.743" stop-color="#363636"/>
            <stop offset="0.841" stop-color="#484848"/>
            <stop offset="1" stop-color="#6E6E6E"/>
        </linearGradient>
        <linearGradient id="paint4_linear_36110_579468" x1="14.4895" y1="59.0387" x2="5.69087" y2="39.9734" gradientUnits="userSpaceOnUse">
            <stop stop-color="#2B2B2B"/>
            <stop offset="0.632" stop-color="#4A4A4A"/>
            <stop offset="0.903" stop-color="#383838"/>
            <stop offset="1" stop-color="#303030"/>
        </linearGradient>
        <linearGradient id="paint5_linear_36110_579468" x1="24.4843" y1="57.6373" x2="13.1256" y2="32.9493" gradientUnits="userSpaceOnUse">
            <stop stop-color="#2B2B2B"/>
            <stop offset="0.632" stop-color="#4A4A4A"/>
            <stop offset="0.903" stop-color="#383838"/>
            <stop offset="1" stop-color="#303030"/>
        </linearGradient>
        <linearGradient id="paint6_linear_36110_579468" x1="12.2612" y1="3.52667" x2="30.1359" y2="50.0667" gradientUnits="userSpaceOnUse">
            <stop offset="0.442" stop-color="#5E5E5E"/>
            <stop offset="0.585" stop-color="#3D3D3D"/>
            <stop offset="0.646" stop-color="#4F4F4F"/>
            <stop offset="0.765" stop-color="#7D7D7D"/>
            <stop offset="1" stop-color="#404040"/>
        </linearGradient>
        <linearGradient id="paint7_linear_36110_579468" x1="11.8243" y1="33.5561" x2="22.6016" y2="58.3774" gradientUnits="userSpaceOnUse">
            <stop stop-color="#575757"/>
            <stop offset="0.244" stop-color="#C9C9C9"/>
            <stop offset="0.345" stop-color="#FAFAFA"/>
            <stop offset="0.402" stop-color="#D2D2D2"/>
            <stop offset="0.488" stop-color="#9B9B9B"/>
            <stop offset="0.569" stop-color="#6F6F6F"/>
            <stop offset="0.64" stop-color="#505050"/>
            <stop offset="0.701" stop-color="#3D3D3D"/>
            <stop offset="0.743" stop-color="#363636"/>
            <stop offset="0.841" stop-color="#484848"/>
            <stop offset="1" stop-color="#6E6E6E"/>
        </linearGradient>
        <radialGradient id="paint8_radial_36110_579468" cx="0" cy="0" r="1" gradientUnits="userSpaceOnUse" gradientTransform="translate(31.9385 32.8761) scale(26.4)">
            <stop offset="0.863" stop-color="#424242"/>
            <stop offset="0.967" stop-color="#303030"/>
            <stop offset="1" stop-color="#292929"/>
        </radialGradient>
    </defs>
</svg>
