<svg width="190" height="33" viewBox="0 0 190 33" fill="none" xmlns="http://www.w3.org/2000/svg">
<path d="M14.4729 26H11.5634V19.902H7.05356L5.80487 19.7929C4.31776 19.5505 3.21455 18.9201 2.49524 17.9017C1.77594 16.8753 1.41628 15.6509 1.41628 14.2284C1.41628 13.2666 1.57792 12.3938 1.90121 11.6098C2.22449 10.8177 2.71346 10.1631 3.36811 9.64584C4.02276 9.12858 4.85522 8.79318 5.86549 8.63962C6.09987 8.59921 6.34637 8.57496 6.605 8.56688C6.87171 8.55071 7.08993 8.54263 7.25965 8.54263H14.4729V26ZM4.44707 26H1.13745L4.91988 18.2412L7.89006 18.8958L4.44707 26ZM11.5634 17.1743V11.2825H7.38088C7.21924 11.2825 7.03739 11.2906 6.83534 11.3067C6.63329 11.3148 6.4474 11.3431 6.27767 11.3916C5.79275 11.5128 5.40885 11.727 5.12597 12.0341C4.85118 12.3412 4.65721 12.6928 4.54406 13.0888C4.43091 13.4768 4.37434 13.8566 4.37434 14.2284C4.37434 14.6002 4.43091 14.98 4.54406 15.368C4.65721 15.7559 4.85118 16.1035 5.12597 16.4106C5.40885 16.7177 5.79275 16.9319 6.27767 17.0531C6.4474 17.1016 6.63329 17.1339 6.83534 17.1501C7.03739 17.1662 7.21924 17.1743 7.38088 17.1743H11.5634ZM17.8712 26V8.54263H25.0845C25.2542 8.54263 25.4724 8.55071 25.7392 8.56688C26.0059 8.57496 26.2524 8.59921 26.4787 8.63962C27.4889 8.79318 28.3214 9.12858 28.976 9.64584C29.6388 10.1631 30.1277 10.8177 30.4429 11.6098C30.7662 12.3938 30.9279 13.2666 30.9279 14.2284C30.9279 15.6509 30.5682 16.8753 29.8489 17.9017C29.1296 18.9201 28.0264 19.5505 26.5393 19.7929L25.2906 19.902H20.7929V26H17.8712ZM27.8971 26L24.4541 18.8958L27.4243 18.2412L31.2067 26H27.8971ZM20.7929 17.1743H24.9633C25.1249 17.1743 25.3068 17.1662 25.5088 17.1501C25.7109 17.1339 25.8968 17.1016 26.0665 17.0531C26.5514 16.9319 26.9313 16.7177 27.2061 16.4106C27.4889 16.1035 27.6869 15.7559 27.8001 15.368C27.9213 14.98 27.9819 14.6002 27.9819 14.2284C27.9819 13.8566 27.9213 13.4768 27.8001 13.0888C27.6869 12.6928 27.4889 12.3412 27.2061 12.0341C26.9313 11.727 26.5514 11.5128 26.0665 11.3916C25.8968 11.3431 25.7109 11.3148 25.5088 11.3067C25.3068 11.2906 25.1249 11.2825 24.9633 11.2825H20.7929V17.1743ZM40.909 26.3637C39.5189 26.3637 38.2945 26.0808 37.2357 25.5151C36.185 24.9493 35.3607 24.1532 34.7626 23.1268C34.1726 22.1004 33.8776 20.8961 33.8776 19.5141V8.56688L36.8356 8.54263V19.4414C36.8356 20.096 36.9448 20.682 37.163 21.1992C37.3893 21.7165 37.6923 22.157 38.0722 22.5206C38.4521 22.8763 38.8885 23.147 39.3815 23.3329C39.8745 23.5188 40.3837 23.6117 40.909 23.6117C41.4505 23.6117 41.9637 23.5188 42.4487 23.3329C42.9417 23.1389 43.3781 22.8641 43.758 22.5085C44.1378 22.1448 44.4369 21.7044 44.6551 21.1871C44.8733 20.6698 44.9824 20.0879 44.9824 19.4414V8.54263H47.9405V19.5141C47.9405 20.8961 47.6414 22.1004 47.0434 23.1268C46.4534 24.1532 45.629 24.9493 44.5702 25.5151C43.5196 26.0808 42.2992 26.3637 40.909 26.3637ZM57.056 26.3637C55.779 26.3637 54.6273 26.1414 53.6009 25.6969C52.5825 25.2524 51.742 24.618 51.0792 23.7936C50.4246 22.9611 50.0084 21.9751 49.8305 20.8355L52.8613 20.3748C53.12 21.4094 53.6493 22.2095 54.4495 22.7752C55.2577 23.341 56.1871 23.6239 57.2378 23.6239C57.8601 23.6239 58.4461 23.5269 58.9957 23.3329C59.5452 23.1389 59.9898 22.8561 60.3292 22.4843C60.6767 22.1125 60.8505 21.6559 60.8505 21.1144C60.8505 20.8719 60.8101 20.6496 60.7293 20.4476C60.6485 20.2375 60.5272 20.0516 60.3656 19.8899C60.212 19.7283 60.01 19.5828 59.7594 19.4535C59.517 19.3161 59.2341 19.1989 58.9108 19.1019L54.401 17.7684C54.013 17.6552 53.5928 17.5057 53.1402 17.3198C52.6957 17.1258 52.2713 16.8632 51.8672 16.5318C51.4712 16.1924 51.1439 15.764 50.8853 15.2467C50.6347 14.7214 50.5094 14.0748 50.5094 13.307C50.5094 12.1836 50.7923 11.2421 51.3581 10.4823C51.9319 9.71454 52.6997 9.14071 53.6615 8.76085C54.6313 8.38099 55.7062 8.1951 56.8862 8.20318C58.0824 8.21126 59.1492 8.41736 60.0867 8.82146C61.0243 9.21749 61.8082 9.79536 62.4386 10.5551C63.069 11.3148 63.5136 12.2321 63.7722 13.307L60.6323 13.8526C60.503 13.2383 60.2524 12.717 59.8807 12.2887C59.517 11.8523 59.0684 11.5209 58.535 11.2946C58.0096 11.0683 57.4479 10.9471 56.8499 10.9309C56.2679 10.9228 55.7264 11.0117 55.2254 11.1976C54.7323 11.3754 54.3323 11.634 54.0252 11.9735C53.7261 12.3129 53.5766 12.709 53.5766 13.1616C53.5766 13.5899 53.7059 13.9415 53.9645 14.2163C54.2232 14.483 54.5424 14.6972 54.9223 14.8588C55.3102 15.0124 55.7022 15.1417 56.0982 15.2467L59.226 16.1196C59.6544 16.2328 60.1352 16.3863 60.6687 16.5803C61.2021 16.7743 61.7153 17.045 62.2083 17.3925C62.7013 17.7401 63.1054 18.1967 63.4206 18.7625C63.7439 19.3282 63.9055 20.0475 63.9055 20.9204C63.9055 21.8256 63.7156 22.6217 63.3358 23.3087C62.964 23.9876 62.4588 24.5533 61.8204 25.0059C61.1819 25.4585 60.4504 25.7979 59.6261 26.0242C58.8098 26.2505 57.9531 26.3637 57.056 26.3637Z" fill="#282828"/>
<rect x="70.0332" y="5.1755" width="22.649" height="22.649" rx="5.03311" fill="url(#paint0_linear_31585_487660)"/>
<circle cx="81.358" cy="16.5556" r="8.13048" fill="white"/>
<circle cx="81.3579" cy="16.5555" r="2.2661" fill="url(#paint1_linear_31585_487660)"/>
<circle cx="81.3579" cy="16.5555" r="2.2661" fill="url(#paint2_linear_31585_487660)"/>
<path d="M81.358 8.41793L86.3183 6.56501C90.0523 9.90752 91.5968 14.4722 88.2543 18.2063C86.9504 19.663 84.0524 21.7729 82.2791 22.1749C89.9713 15.0522 87.7277 8.41793 81.358 8.41793Z" fill="#FF4383"/>
<path d="M99.4766 26V8.54263H102.107L108.145 20.9083L114.182 8.54263H116.813V26H114.085V14.8103L108.727 26H107.563L102.216 14.8103V26H99.4766ZM121.94 31.8191L124.462 24.8968L124.51 26.9335L118.8 12.907H121.843L125.892 23.2844H125.116L129.056 12.907H131.978L124.68 31.8191H121.94ZM138.441 26.3637C137.197 26.3637 136.061 26.101 135.035 25.5757C134.008 25.0504 133.2 24.331 132.61 23.4178L134.914 21.8781C135.382 22.4358 135.904 22.8682 136.478 23.1753C137.051 23.4743 137.69 23.6239 138.393 23.6239C139.128 23.6239 139.706 23.4622 140.127 23.1389C140.547 22.8156 140.757 22.3833 140.757 21.8418C140.757 21.3649 140.616 21.0295 140.333 20.8355C140.05 20.6335 139.678 20.5122 139.217 20.4718C138.757 20.4314 138.264 20.4112 137.738 20.4112H136.768V18.0957H137.726C138.462 18.0957 139.076 18.0108 139.569 17.8411C140.07 17.6714 140.321 17.2956 140.321 16.7137C140.321 16.1883 140.127 15.8165 139.739 15.5983C139.351 15.372 138.898 15.2589 138.381 15.2589C137.75 15.2589 137.128 15.3922 136.514 15.6589C135.9 15.9256 135.35 16.2489 134.865 16.6288L133.216 14.6406C133.944 13.994 134.756 13.4848 135.653 13.1131C136.55 12.7332 137.508 12.5433 138.526 12.5433C139.367 12.5433 140.151 12.6888 140.878 12.9797C141.614 13.2707 142.204 13.7071 142.648 14.289C143.101 14.8709 143.327 15.5902 143.327 16.4469C143.327 17.0612 143.194 17.6391 142.927 18.1806C142.668 18.7221 142.252 19.2353 141.678 19.7202L141.642 18.7746C142.086 18.9605 142.462 19.2191 142.769 19.5505C143.085 19.8818 143.323 20.2698 143.485 20.7143C143.654 21.1588 143.739 21.6316 143.739 22.1327C143.739 23.046 143.497 23.8178 143.012 24.4482C142.527 25.0786 141.88 25.5555 141.072 25.8788C140.272 26.2021 139.395 26.3637 138.441 26.3637ZM146.394 26L146.382 12.907H149.304V17.2713H150.771C151.135 17.2713 151.543 17.2794 151.995 17.2956C152.456 17.3117 152.84 17.3481 153.147 17.4047C153.883 17.5663 154.509 17.8249 155.026 18.1806C155.551 18.5362 155.952 19.0009 156.226 19.5747C156.501 20.1485 156.639 20.8396 156.639 21.6478C156.639 22.8035 156.339 23.7289 155.741 24.424C155.143 25.111 154.307 25.5797 153.232 25.8303C152.917 25.903 152.525 25.9515 152.056 25.9758C151.587 25.9919 151.171 26 150.807 26H146.394ZM149.304 23.7087H151.062C151.24 23.7087 151.438 23.7006 151.656 23.6845C151.874 23.6683 152.08 23.6319 152.274 23.5754C152.638 23.4784 152.961 23.2602 153.244 22.9207C153.527 22.5732 153.668 22.1489 153.668 21.6478C153.668 21.1224 153.527 20.6901 153.244 20.3506C152.961 20.0112 152.614 19.7889 152.201 19.6838C152.007 19.6353 151.809 19.603 151.607 19.5868C151.413 19.5707 151.232 19.5626 151.062 19.5626H149.304V23.7087ZM158.008 26V12.907H160.93V26H158.008ZM164.307 26L164.331 12.907H167.289V19.211L172.078 12.907H175.727L170.647 19.4535L176.163 26H172.296L167.289 19.696V26H164.307ZM181.039 26.3637C180.093 26.3637 179.293 26.1859 178.638 25.8303C177.984 25.4666 177.487 24.9857 177.147 24.3876C176.816 23.7895 176.65 23.1308 176.65 22.4115C176.65 21.7811 176.755 21.2154 176.965 20.7143C177.175 20.2051 177.499 19.7687 177.935 19.405C178.372 19.0332 178.937 18.7301 179.632 18.4958C180.158 18.326 180.772 18.1725 181.475 18.0351C182.186 17.8977 182.954 17.7724 183.779 17.6593C184.611 17.538 185.48 17.4087 186.385 17.2713L185.342 17.8654C185.35 16.9602 185.148 16.2934 184.736 15.865C184.324 15.4367 183.629 15.2225 182.651 15.2225C182.061 15.2225 181.491 15.3599 180.942 15.6347C180.392 15.9095 180.008 16.3823 179.79 17.0531L177.123 16.2166C177.446 15.1093 178.06 14.2203 178.966 13.5495C179.879 12.8787 181.107 12.5433 182.651 12.5433C183.815 12.5433 184.837 12.7332 185.718 13.1131C186.607 13.4929 187.266 14.1153 187.694 14.98C187.929 15.4407 188.07 15.9135 188.119 16.3984C188.167 16.8753 188.191 17.3966 188.191 17.9623V26H185.633V23.1632L186.058 23.6239C185.468 24.5695 184.777 25.2645 183.985 25.709C183.201 26.1455 182.219 26.3637 181.039 26.3637ZM181.621 24.036C182.283 24.036 182.849 23.9189 183.318 23.6845C183.787 23.4501 184.158 23.1632 184.433 22.8237C184.716 22.4843 184.906 22.165 185.003 21.866C185.157 21.4942 185.241 21.0699 185.258 20.5931C185.282 20.1081 185.294 19.7162 185.294 19.4171L186.191 19.6838C185.31 19.8212 184.554 19.9425 183.924 20.0475C183.294 20.1526 182.752 20.2536 182.299 20.3506C181.847 20.4395 181.447 20.5405 181.099 20.6537C180.76 20.7749 180.473 20.9163 180.239 21.078C180.004 21.2396 179.822 21.4255 179.693 21.6357C179.572 21.8458 179.511 22.0923 179.511 22.3752C179.511 22.6985 179.592 22.9854 179.754 23.2359C179.915 23.4784 180.15 23.6724 180.457 23.8178C180.772 23.9633 181.16 24.036 181.621 24.036Z" fill="#282828"/>
<defs>
<linearGradient id="paint0_linear_31585_487660" x1="92.6822" y1="5.18379" x2="70.0332" y2="27.8328" gradientUnits="userSpaceOnUse">
<stop stop-color="#FF437B"/>
<stop offset="1" stop-color="#FF43B4"/>
</linearGradient>
<linearGradient id="paint1_linear_31585_487660" x1="83.624" y1="14.2911" x2="79.0918" y2="18.8233" gradientUnits="userSpaceOnUse">
<stop stop-color="#FF437B"/>
<stop offset="1" stop-color="#FF43B4"/>
</linearGradient>
<linearGradient id="paint2_linear_31585_487660" x1="83.624" y1="14.2911" x2="79.0918" y2="18.8233" gradientUnits="userSpaceOnUse">
<stop stop-color="#FF437B"/>
<stop offset="1" stop-color="#FF43B4"/>
</linearGradient>
</defs>
</svg>
