<svg width="64" height="64" viewBox="0 0 64 64" fill="none" xmlns="http://www.w3.org/2000/svg">
    <path d="M32 56C45.2548 56 56 45.2548 56 32C56 18.7452 45.2548 8 32 8C18.7452 8 8 18.7452 8 32C8 45.2548 18.7452 56 32 56Z" fill="url(#paint0_radial_36555_598295)"/>
    <path d="M36.6667 33.3333C37.0349 33.3333 37.3333 33.0349 37.3333 32.6667C37.3333 32.2985 37.0349 32 36.6667 32C36.2985 32 36 32.2985 36 32.6667C36 33.0349 36.2985 33.3333 36.6667 33.3333Z" fill="#212121"/>
    <path d="M45.6768 32.0813C45.6768 32.0813 43.3755 33.34 41.3328 33.34C39.2901 33.34 36.9888 32.0813 36.9888 32.0813L36.1475 33.0866C36.1475 33.0866 38.5008 36 41.3328 36C44.1648 36 46.5181 33.0866 46.5181 33.0866L45.6768 32.0813Z" fill="#212121"/>
    <path d="M45.9997 33.3333C46.3679 33.3333 46.6663 33.0349 46.6663 32.6667C46.6663 32.2985 46.3679 32 45.9997 32C45.6315 32 45.333 32.2985 45.333 32.6667C45.333 33.0349 45.6315 33.3333 45.9997 33.3333Z" fill="#212121"/>
    <path d="M17.9997 33.3333C18.3679 33.3333 18.6663 33.0349 18.6663 32.6667C18.6663 32.2985 18.3679 32 17.9997 32C17.6315 32 17.333 32.2985 17.333 32.6667C17.333 33.0349 17.6315 33.3333 17.9997 33.3333Z" fill="#212121"/>
    <path d="M27.0108 32.0813C27.0108 32.0813 24.7094 33.34 22.6668 33.34C20.6241 33.34 18.3228 32.0813 18.3228 32.0813L17.4814 33.0866C17.4814 33.0866 19.8348 36 22.6668 36C25.4988 36 27.8521 33.0866 27.8521 33.0866L27.0108 32.0813Z" fill="#212121"/>
    <path d="M27.3337 33.3333C27.7018 33.3333 28.0003 33.0349 28.0003 32.6667C28.0003 32.2985 27.7018 32 27.3337 32C26.9655 32 26.667 32.2985 26.667 32.6667C26.667 33.0349 26.9655 33.3333 27.3337 33.3333Z" fill="#212121"/>
    <path d="M48.6093 26.664C47.5066 26.6054 46.4666 26.4667 45.4053 26.2747C44.3493 26.08 43.3013 25.8227 42.2626 25.496C40.1946 24.828 38.1453 23.852 36.3786 22.2934C35.8159 21.7974 35.7626 20.94 36.2586 20.3774C36.7546 19.8147 37.6119 19.7614 38.1746 20.2574C38.2133 20.292 38.2493 20.3267 38.2826 20.364L38.2906 20.3734C39.5119 21.724 41.1719 22.7987 42.9799 23.6067C44.7879 24.404 46.7679 25.0027 48.7253 25.336L48.7573 25.3414C49.1199 25.404 49.3639 25.748 49.3026 26.1107C49.2439 26.448 48.9426 26.6827 48.6093 26.664Z" fill="#805B2A"/>
    <path d="M15.2758 25.3361C17.2331 25.0014 19.2131 24.4027 21.0211 23.6067C22.8291 22.7987 24.4905 21.7241 25.7105 20.3734L25.7171 20.3654C26.2198 19.8094 27.0785 19.7654 27.6345 20.2681C28.1905 20.7707 28.2345 21.6294 27.7318 22.1854C27.6971 22.2241 27.6598 22.2601 27.6225 22.2934C25.8545 23.8521 23.8051 24.8281 21.7385 25.4961C20.6998 25.8227 19.6505 26.0814 18.5958 26.2747C17.5345 26.4667 16.4931 26.6054 15.3918 26.6641C15.0238 26.6841 14.7105 26.4014 14.6905 26.0334C14.6718 25.6921 14.9145 25.3974 15.2438 25.3414L15.2758 25.3361Z" fill="#805B2A"/>
    <path d="M25.5596 45.6693C25.5596 45.6693 27.0476 46.6667 31.9996 46.6667C36.5862 46.6667 38.4356 45.6693 38.4356 45.6693C38.4356 45.6693 37.2849 43.6893 31.9996 43.6893C26.7142 43.6893 25.5596 45.6693 25.5596 45.6693Z" fill="url(#paint1_radial_36555_598295)"/>
    <path d="M31.9996 45.3334C36.5223 45.3334 37.7463 46.1454 37.7463 46.1454C37.7463 46.1454 36.5729 48 31.9996 48C27.4263 48 26.2529 46.1454 26.2529 46.1454C26.2529 46.1454 27.4769 45.3334 31.9996 45.3334Z" fill="url(#paint2_radial_36555_598295)"/>
    <path d="M38.268 45.5934C38.936 45.9614 39.5946 45.116 39.0786 44.5547C37.58 42.9254 35.2773 41.3334 32 41.3334C28.7226 41.3334 26.42 42.9254 24.9213 44.5547C24.4053 45.116 25.064 45.9614 25.732 45.5934C27.2666 44.7454 29.3653 44 32 44C34.6346 44 36.7333 44.7454 38.268 45.5934Z" fill="url(#paint3_radial_36555_598295)"/>
    <defs>
        <radialGradient id="paint0_radial_36555_598295" cx="0" cy="0" r="1" gradientUnits="userSpaceOnUse" gradientTransform="translate(32 32) rotate(180) scale(24)">
            <stop stop-color="#FFE16E"/>
            <stop offset="0.629" stop-color="#FFD426"/>
            <stop offset="0.72" stop-color="#FDCD23"/>
            <stop offset="0.854" stop-color="#F8B919"/>
            <stop offset="1" stop-color="#F09C0C"/>
        </radialGradient>
        <radialGradient id="paint1_radial_36555_598295" cx="0" cy="0" r="1" gradientUnits="userSpaceOnUse" gradientTransform="translate(31.9906 42.281) rotate(89.194) scale(4.94958 14.6192)">
            <stop offset="0.629" stop-color="#FFE16E"/>
            <stop offset="0.871" stop-color="#FFE16E" stop-opacity="0"/>
        </radialGradient>
        <radialGradient id="paint2_radial_36555_598295" cx="0" cy="0" r="1" gradientUnits="userSpaceOnUse" gradientTransform="translate(31.9837 43.7177) rotate(180) scale(6.82025 4.16719)">
            <stop offset="0.284" stop-color="#CC9000"/>
            <stop offset="1" stop-color="#CC9000" stop-opacity="0"/>
        </radialGradient>
        <radialGradient id="paint3_radial_36555_598295" cx="0" cy="0" r="1" gradientUnits="userSpaceOnUse" gradientTransform="translate(31.9726 44.7254) scale(7.3052 3.91767)">
            <stop stop-color="#1C1911"/>
            <stop offset="0.999" stop-color="#171714"/>
        </radialGradient>
    </defs>
</svg>
