<svg width="194" height="56" viewBox="0 0 194 56" fill="none" xmlns="http://www.w3.org/2000/svg">
<path d="M0 9.33333C0 4.17868 4.17868 0 9.33333 0H184.667C189.821 0 194 4.17868 194 9.33333V46.6667C194 51.8213 189.821 56 184.667 56H9.33333C4.17867 56 0 51.8213 0 46.6667V9.33333Z" fill="#F6F7FB"/>
<g clip-path="url(#clip0_6189_46186)">
<path d="M80.6366 35.9045C80.1965 34.4952 79.5469 33.2755 78.6848 32.2482C77.8257 31.2209 76.9217 30.5725 75.9787 30.3031C79.2536 29.64 80.888 27.7808 80.888 24.7314C80.888 20.7288 77.7868 19.0383 71.7878 19.0383C70.9287 19.0383 69.7642 19.1005 68.2525 19.1834C66.5313 19.2663 65.0525 19.1331 63.6665 19.1331C63.2474 19.6097 63.0469 20.1071 63.0469 20.936C63.7593 20.936 64.9058 20.6903 65.2411 20.939C65.5764 21.1877 65.5883 22.0373 65.5883 22.5969L65.8518 37.3936C65.8518 37.9531 65.1932 38.8354 64.7322 38.791C64.3221 38.7525 63.7773 39.0189 63.0768 38.7318C63.0768 39.4571 63.3163 40.1114 63.8012 40.6916H71.6591C72.1201 40.1321 71.8687 39.7324 71.8687 38.9864C71.2191 38.9864 70.7551 39.1166 70.357 38.8561C69.9588 38.5985 70.2223 37.6837 70.2223 37.1449V31.4548H72.2997C72.8685 31.6413 73.3295 32.1387 73.6857 32.9498C74.0419 33.7581 74.3772 34.7765 74.6915 35.9992C74.9849 37.0975 75.3052 37.9857 75.6524 38.6607C75.9997 39.3357 76.5325 39.8804 77.2569 40.2949C77.9814 40.7094 78.9722 40.9166 80.2295 40.9166C81.5705 40.9166 82.4835 40.585 82.9655 39.9219V38.3647C82.3788 38.2818 81.8998 38.0479 81.5346 37.666C81.1664 37.2781 80.8671 36.692 80.6366 35.9045ZM74.5658 28.139C73.8533 28.9176 72.8685 29.3054 71.6082 29.3054C71.0634 29.3054 70.6024 29.2847 70.2252 29.2433V21.2173C70.5396 21.1344 71.0544 21.0929 71.7669 21.0929C73.108 21.0929 74.0898 21.4186 74.7095 22.0729C75.3291 22.7271 75.6375 23.7189 75.6375 25.0452C75.6345 26.3301 75.2782 27.3633 74.5658 28.139Z" fill="#00A4EA"/>
<path d="M54.8289 35.9073C55.269 34.4952 55.9186 33.2784 56.7807 32.2511C57.6398 31.2238 58.5438 30.5754 59.4868 30.306C56.2119 29.6429 54.5775 27.7837 54.5775 24.7343C54.5775 20.7317 57.5769 19.0412 63.5759 19.0412C64.435 19.0412 65.6234 19.0294 67.1351 19.0412C68.8773 19.056 70.3202 18.9791 71.8409 19.0412C72.26 19.5179 72.4516 20.2965 72.4516 21.1254C71.0416 21.0189 70.2244 21.2202 70.2244 21.2202L70.2633 37.1863C70.3292 37.7251 70.5058 38.1189 70.8321 38.3675C71.1584 38.6162 71.6762 38.7406 72.3887 38.7406C72.3887 39.4689 72.1492 40.1202 71.6643 40.7004H63.7645C63.3035 40.1409 63.073 39.4866 63.073 38.7406C63.7226 38.7406 64.2464 38.6133 64.6475 38.3527C65.0457 38.0952 65.2432 37.6955 65.2432 37.1567V31.4547H63.1658C62.597 31.6412 62.136 32.1386 61.7798 32.9468C61.4236 33.758 61.0883 34.7735 60.774 35.9991C60.4806 37.0975 60.1603 37.9856 59.8131 38.6606C59.4658 39.3356 58.933 39.8804 58.2086 40.2948C57.4841 40.7093 56.4933 40.9165 55.236 40.9165C53.895 40.9165 52.982 40.585 52.5 39.9218V38.3646C53.0867 38.2817 53.5657 38.0478 53.9309 37.6659C54.2991 37.281 54.5984 36.6948 54.8289 35.9073ZM63.8603 29.3083C64.4051 29.3083 64.8661 29.2876 65.2432 29.2462V21.2172C64.9289 21.1343 64.4141 21.0929 63.7016 21.0929C62.3605 21.0929 61.3787 21.4185 60.759 22.0728C60.1394 22.7271 59.831 23.7189 59.831 25.0452C59.831 26.333 60.1873 27.3633 60.8997 28.1419C61.6122 28.9205 62.6 29.3083 63.8603 29.3083Z" fill="#003861"/>
</g>
<path d="M93.4077 21.7182H93.8295C94.8267 21.7182 95.1207 21.1813 95.3892 20.5676L97.652 15.0833H96.8082L95.1591 19.1486L93.3565 15.0833H92.5L94.7628 20.0946L94.6605 20.3375C94.5199 20.6571 94.2898 20.9767 93.8168 20.9767H93.4077V21.7182Z" fill="#1F2023"/>
<path d="M99.8764 21.731C100.963 21.731 101.679 21.0662 101.807 20.1969H101.053C100.912 20.7338 100.464 21.0534 99.8764 21.0534C98.9815 21.0534 98.4062 20.3119 98.4062 19.1742C98.4062 18.0619 98.9943 17.3333 99.8764 17.3333C100.541 17.3333 100.938 17.7423 101.053 18.1898H101.807C101.679 17.2693 100.899 16.6557 99.8636 16.6557C98.5341 16.6557 97.652 17.704 97.652 19.1997C97.652 20.6699 98.4957 21.731 99.8764 21.731Z" fill="#1F2023"/>
<path d="M102.523 17.4227H104.146V21.6287H104.901V17.4227H106.511V16.7196H102.523V17.4227Z" fill="#1F2023"/>
<path d="M108.801 21.7438C109.658 21.7438 110.105 21.2835 110.259 20.9639H110.297V21.6287H111.051V18.3943C111.051 16.8347 109.862 16.6557 109.236 16.6557C108.494 16.6557 107.651 16.9114 107.267 17.8063L107.983 18.0619C108.149 17.704 108.542 17.3205 109.262 17.3205C109.955 17.3205 110.297 17.688 110.297 18.3176V18.3432C110.297 18.7075 109.926 18.6756 109.031 18.7906C108.121 18.9089 107.127 19.1102 107.127 20.2352C107.127 21.194 107.868 21.7438 108.801 21.7438ZM108.916 21.0662C108.316 21.0662 107.881 20.7977 107.881 20.2736C107.881 19.6983 108.405 19.5193 108.993 19.4426C109.313 19.4043 110.169 19.3148 110.297 19.1614V19.8517C110.297 20.4654 109.811 21.0662 108.916 21.0662Z" fill="#1F2023"/>
<path d="M113.182 16.7196H112.428V21.6287H113.182V19.5321H115.535V21.6287H116.289V16.7196H115.535V18.829H113.182V16.7196Z" fill="#1F2023"/>
<path d="M119.661 21.731C120.99 21.731 121.885 20.721 121.885 19.1997C121.885 17.6656 120.99 16.6557 119.661 16.6557C118.331 16.6557 117.436 17.6656 117.436 19.1997C117.436 20.721 118.331 21.731 119.661 21.731ZM119.661 21.0534C118.651 21.0534 118.19 20.1841 118.19 19.1997C118.19 18.2154 118.651 17.3333 119.661 17.3333C120.671 17.3333 121.131 18.2154 121.131 19.1997C121.131 20.1841 120.671 21.0534 119.661 21.0534Z" fill="#1F2023"/>
<path d="M123.036 21.6287H125.35C126.347 21.6287 126.948 21.0662 126.948 20.3119C126.948 19.5417 126.363 19.1262 125.823 19.0463C126.376 18.9313 126.769 18.6212 126.769 18.0236C126.769 17.2406 126.098 16.7196 125.044 16.7196H123.036V21.6287ZM123.752 20.9384V19.4298H125.35C125.868 19.4298 126.181 19.7399 126.181 20.248C126.181 20.6763 125.868 20.9384 125.35 20.9384H123.752ZM123.752 18.7779V17.41H125.044C125.648 17.41 126.015 17.6624 126.015 18.0747C126.015 18.5126 125.648 18.7779 125.044 18.7779H123.752Z" fill="#1F2023"/>
<path d="M128.844 20.5165V16.7196H128.09V21.6287H128.972L131.324 17.8318V21.6287H132.079V16.7196H131.209L128.844 20.5165Z" fill="#1F2023"/>
<path d="M132.792 17.4227H134.416V21.6287H135.17V17.4227H136.781V16.7196H132.792V17.4227Z" fill="#1F2023"/>
<path d="M138.635 18.4966V16.7196H137.881V21.6287H139.939C141.09 21.6287 141.716 20.9256 141.716 20.0435C141.716 19.1486 141.09 18.4966 139.939 18.4966H138.635ZM138.635 19.1997H139.939C140.537 19.1997 140.962 19.5641 140.962 20.0818C140.962 20.5772 140.537 20.9256 139.939 20.9256H138.635V19.1997Z" fill="#1F2023"/>
<path d="M95.1719 39.5618L96.3121 36.1545H101.507L102.654 39.5618H105.326L100.455 25.7437H97.3647L92.5 39.5618H95.1719ZM96.9869 34.1439L98.8558 28.5775H98.9638L100.833 34.1439H96.9869Z" fill="#1F2023"/>
<path d="M107.146 39.5618H109.65V34.8928H112.294C115.486 34.8928 117.2 32.9766 117.2 30.3182C117.2 27.6801 115.506 25.7437 112.328 25.7437H107.146V39.5618ZM109.65 32.8349V27.8353H111.944C113.819 27.8353 114.649 28.8473 114.649 30.3182C114.649 31.7891 113.819 32.8349 111.957 32.8349H109.65Z" fill="#1F2023"/>
<path d="M127.653 39.5618H130.736L125.042 32.0455L130.5 25.7437H127.417L122.505 31.4248H121.877V25.7437H119.374V39.5618H121.877V33.5231H123.105L127.653 39.5618Z" fill="#1F2023"/>
<defs>
<clipPath id="clip0_6189_46186">
<rect width="30" height="22.5" fill="white" transform="translate(52.5 18.4165)"/>
</clipPath>
</defs>
</svg>
