<svg width="194" height="56" viewBox="0 0 194 56" fill="none" xmlns="http://www.w3.org/2000/svg">
<path d="M0 9.33333C0 4.17868 4.17868 0 9.33333 0H184.667C189.821 0 194 4.17868 194 9.33333V46.6667C194 51.8213 189.821 56 184.667 56H9.33333C4.17867 56 0 51.8213 0 46.6667V9.33333Z" fill="#F6F7FB"/>
<path d="M51.7023 23.1606C51.7023 23.1606 48.4511 24.8373 48.4511 28.9081V28.9073C48.4511 33.4985 52.5 35.0807 52.5 35.0807C52.5 35.0807 49.6702 43.1221 45.8474 43.1221C44.0898 43.1221 42.727 41.9279 40.8749 41.9279C38.9905 41.9279 37.1191 43.1666 35.9016 43.1666C32.4106 43.1666 28 35.5396 28 29.4083C28 23.3764 31.7324 20.2113 35.2339 20.2113C37.5115 20.2113 39.2779 21.5365 40.4591 21.5365C41.4756 21.5365 43.3615 20.1273 45.8159 20.1273C50.0392 20.1273 51.7023 23.1606 51.7023 23.1606Z" fill="#1F2023"/>
<path d="M46.2373 12.8333C46.2373 12.8333 46.6467 15.3034 44.684 17.6814C42.5889 20.2219 40.2096 19.8057 40.2096 19.8057C40.2096 19.8057 39.7624 17.8083 41.5175 15.4731C43.4923 12.8454 46.2373 12.8333 46.2373 12.8333Z" fill="#1F2023"/>
<path d="M66.1467 16.8965C66.1223 17.2916 66.0763 17.6109 66.0089 17.8545C65.9445 18.098 65.8358 18.3089 65.6826 18.4871V18.5406H68.8996V13.555H66.3627L66.1467 16.8965ZM64.9335 19.2623V20.5321H64.166V18.5406H64.6577C64.8875 18.4218 65.056 18.2272 65.1633 17.9569C65.2736 17.6836 65.3425 17.3243 65.3701 16.8787L65.6228 12.8333H69.7268V18.5406H70.5541V20.5321H69.7866V19.2623H64.9335ZM72.3352 18.1886C72.5895 18.5005 72.951 18.6564 73.4198 18.6564C73.8886 18.6564 74.2501 18.5005 74.5044 18.1886C74.7587 17.8737 74.8858 17.4312 74.8858 16.8609C74.8858 16.2906 74.7587 15.8495 74.5044 15.5376C74.2501 15.2228 73.8886 15.0654 73.4198 15.0654C72.951 15.0654 72.5895 15.2228 72.3352 15.5376C72.0809 15.8495 71.9538 16.2906 71.9538 16.8609C71.9538 17.4312 72.0809 17.8737 72.3352 18.1886ZM75.0881 18.6831C74.6806 19.1257 74.1245 19.347 73.4198 19.347C72.7151 19.347 72.1575 19.1257 71.7469 18.6831C71.3395 18.2376 71.1357 17.6302 71.1357 16.8609C71.1357 16.0887 71.3395 15.4812 71.7469 15.0387C72.1544 14.5961 72.7121 14.3748 73.4198 14.3748C74.1275 14.3748 74.6852 14.5961 75.0927 15.0387C75.5001 15.4812 75.7039 16.0887 75.7039 16.8609C75.7039 17.6302 75.4986 18.2376 75.0881 18.6831ZM80.8538 15.9297H80.0538C79.9869 15.6772 79.841 15.4708 79.6174 15.3104C79.3968 15.147 79.1165 15.0654 78.7764 15.0654C78.3321 15.0654 77.9783 15.2258 77.7148 15.5466C77.4544 15.8673 77.3242 16.2995 77.3242 16.8431C77.3242 17.3956 77.4559 17.8366 77.7194 18.1663C77.9829 18.493 78.3352 18.6564 78.7764 18.6564C79.1104 18.6564 79.3876 18.5836 79.6083 18.4381C79.8321 18.2925 79.9806 18.0847 80.0538 17.8144H80.8538C80.7801 18.2688 80.561 18.6386 80.1966 18.9237C79.8321 19.2059 79.3601 19.347 78.781 19.347C78.0855 19.347 77.5325 19.1213 77.1219 18.6698C76.7114 18.2153 76.5061 17.6064 76.5061 16.8431C76.5061 16.0946 76.7114 15.4961 77.1219 15.0475C77.5325 14.5991 78.084 14.3748 78.7764 14.3748C79.3555 14.3748 79.8274 14.5218 80.1919 14.8159C80.5594 15.1099 80.7801 15.4812 80.8538 15.9297ZM85.1855 14.4595V15.101H83.5771V19.2623H82.7864V15.101H81.178V14.4595H85.1855ZM86.4838 20.9999C86.3583 20.9999 86.2407 20.991 86.1303 20.9732V20.3183C86.2098 20.3331 86.3202 20.3406 86.4608 20.3406C86.6909 20.3406 86.8734 20.2812 87.0078 20.1623C87.1458 20.0435 87.2666 19.84 87.3712 19.5519L87.4627 19.2668L85.6294 14.4595H86.4838L87.8444 18.4114H87.9181L89.2735 14.4595H90.1148L88.1801 19.5564C87.9683 20.1118 87.7435 20.4906 87.5045 20.6925C87.2655 20.8975 86.9251 20.9999 86.4838 20.9999ZM94.1939 19.2623V15.101H91.7671V19.2623H90.9765V14.4595H94.984V19.2623H94.1939ZM96.2734 19.2623V14.4595H97.064V16.4465H99.5363V14.4595H100.327V19.2623H99.5363V17.0881H97.064V19.2623H96.2734ZM102.572 18.1886C102.826 18.5005 103.188 18.6564 103.657 18.6564C104.126 18.6564 104.487 18.5005 104.741 18.1886C104.996 17.8737 105.123 17.4312 105.123 16.8609C105.123 16.2906 104.996 15.8495 104.741 15.5376C104.487 15.2228 104.126 15.0654 103.657 15.0654C103.188 15.0654 102.826 15.2228 102.572 15.5376C102.318 15.8495 102.191 16.2906 102.191 16.8609C102.191 17.4312 102.318 17.8737 102.572 18.1886ZM105.325 18.6831C104.917 19.1257 104.362 19.347 103.657 19.347C102.952 19.347 102.394 19.1257 101.984 18.6831C101.577 18.2376 101.373 17.6302 101.373 16.8609C101.373 16.0887 101.577 15.4812 101.984 15.0387C102.391 14.5961 102.949 14.3748 103.657 14.3748C104.365 14.3748 104.922 14.5961 105.329 15.0387C105.737 15.4812 105.941 16.0887 105.941 16.8609C105.941 17.6302 105.736 18.2376 105.325 18.6831ZM111.36 15.101H110.151V16.4555H111.231C111.853 16.4555 112.164 16.2267 112.164 15.7693C112.164 15.5614 112.097 15.3981 111.962 15.2793C111.83 15.1604 111.629 15.101 111.36 15.101ZM111.3 17.097H110.151V18.6208H111.452C111.755 18.6208 111.985 18.5569 112.141 18.4292C112.301 18.2985 112.38 18.1114 112.38 17.8678C112.38 17.6034 112.29 17.4089 112.109 17.2842C111.931 17.1594 111.662 17.097 111.3 17.097ZM109.361 19.2623V14.4595H111.461C111.924 14.4595 112.287 14.5708 112.55 14.7936C112.814 15.0134 112.945 15.3119 112.945 15.6891C112.945 15.9267 112.867 16.1436 112.711 16.3396C112.558 16.5327 112.367 16.653 112.136 16.7005V16.7718C112.449 16.8134 112.699 16.9366 112.886 17.1416C113.072 17.3435 113.166 17.5901 113.166 17.8812C113.166 18.3029 113.016 18.6386 112.716 18.8881C112.415 19.1376 112 19.2623 111.47 19.2623H109.361Z" fill="#212126"/>
<path d="M75.5437 40.4477L74.2064 36.4767H68.3861L67.0269 40.4477H64.166L69.7781 24.9188H72.9569L78.5799 40.4477H75.5437ZM71.2141 27.8783L69.0438 34.2814H73.5488L71.4004 27.8783H71.2141ZM86.8726 28.481C88.3926 28.481 89.5947 29.0226 90.4789 30.1059C91.3703 31.1893 91.8159 32.6744 91.8159 34.5611C91.8159 36.4408 91.374 37.9259 90.4898 39.0164C89.6129 40.0997 88.4182 40.6413 86.9056 40.6413C86.0506 40.6413 85.3015 40.4692 84.6585 40.1248C84.0228 39.7733 83.5514 39.2855 83.2445 38.6613H83.0582V44.3648H80.3399V28.6746H82.9595V30.6225H83.1459C83.4893 29.9552 83.9899 29.4315 84.6475 29.0512C85.3126 28.6711 86.0542 28.481 86.8726 28.481ZM86.0177 38.3707C86.9604 38.3707 87.6947 38.0335 88.2208 37.3591C88.7543 36.6847 89.021 35.7521 89.021 34.5611C89.021 33.3702 88.7543 32.4375 88.2208 31.7632C87.6947 31.0888 86.964 30.7516 86.0287 30.7516C85.1006 30.7516 84.3662 31.0924 83.8255 31.7739C83.2847 32.4555 83.0107 33.3846 83.0034 34.5611C83.0107 35.7377 83.2811 36.6668 83.8145 37.3484C84.3552 38.0299 85.0897 38.3707 86.0177 38.3707ZM100.405 28.481C101.925 28.481 103.127 29.0226 104.011 30.1059C104.902 31.1893 105.348 32.6744 105.348 34.5611C105.348 36.4408 104.906 37.9259 104.022 39.0164C103.145 40.0997 101.95 40.6413 100.438 40.6413C99.583 40.6413 98.8338 40.4692 98.1903 40.1248C97.5552 39.7733 97.0837 39.2855 96.7769 38.6613H96.5899V44.3648H93.8718V28.6746H96.4917V30.6225H96.6778C97.0211 29.9552 97.5224 29.4315 98.18 29.0512C98.845 28.6711 99.5867 28.481 100.405 28.481ZM99.5503 38.3707C100.492 38.3707 101.227 38.0335 101.753 37.3591C102.286 36.6847 102.553 35.7521 102.553 34.5611C102.553 33.3702 102.286 32.4375 101.753 31.7632C101.227 31.0888 100.496 30.7516 99.5605 30.7516C98.6327 30.7516 97.8984 31.0924 97.3578 31.7739C96.8172 32.4555 96.5431 33.3846 96.5356 34.5611C96.5431 35.7377 96.8134 36.6668 97.3466 37.3484C97.8872 38.0299 98.6215 38.3707 99.5503 38.3707ZM112.277 36.2291H115.04C115.127 36.9251 115.496 37.4811 116.146 37.8972C116.796 38.3062 117.622 38.5106 118.624 38.5106C119.559 38.5106 120.326 38.3026 120.926 37.8864C121.532 37.4632 121.835 36.9251 121.835 36.2722C121.835 35.7127 121.605 35.2571 121.145 34.9055C120.692 34.554 119.957 34.2634 118.941 34.0338L116.892 33.5711C115.46 33.2555 114.396 32.7425 113.702 32.0322C113.015 31.3148 112.671 30.3786 112.671 29.2234C112.671 27.8101 113.209 26.6766 114.283 25.8228C115.364 24.9619 116.79 24.5315 118.557 24.5315C120.217 24.5315 121.59 24.9547 122.68 25.8013C123.768 26.6479 124.345 27.7384 124.411 29.0728H121.704C121.609 28.3913 121.277 27.8495 120.706 27.4479C120.136 27.046 119.416 26.8452 118.547 26.8452C117.633 26.8452 116.899 27.046 116.343 27.4479C115.795 27.8424 115.521 28.3698 115.521 29.0298C115.521 29.5535 115.737 29.9804 116.169 30.3103C116.6 30.6332 117.304 30.9059 118.283 31.1283L120.104 31.5372C121.704 31.8887 122.862 32.4124 123.577 33.1083C124.301 33.8042 124.663 34.7441 124.663 35.9278C124.663 37.4417 124.104 38.6397 122.986 39.5222C121.875 40.3974 120.363 40.8351 118.448 40.8351C116.636 40.8351 115.171 40.419 114.053 39.5868C112.942 38.7545 112.35 37.6353 112.277 36.2291ZM127.749 25.7906H130.457V28.7499H133.022V30.8807H130.457V36.6596C130.457 37.2407 130.588 37.6677 130.852 37.9402C131.115 38.2057 131.531 38.3384 132.101 38.3384C132.349 38.3384 132.656 38.3205 133.022 38.2846V40.3724C132.569 40.4584 132.094 40.5015 131.596 40.5015C130.223 40.5015 129.236 40.254 128.637 39.7589C128.046 39.2639 127.749 38.446 127.749 37.3053V30.8807H125.853V28.7499H127.749V25.7906ZM137.928 37.4345C138.446 38.1088 139.181 38.446 140.13 38.446C141.081 38.446 141.811 38.1088 142.323 37.4345C142.842 36.7529 143.101 35.7951 143.101 34.5611C143.101 33.3343 142.842 32.3801 142.323 31.6986C141.804 31.0171 141.073 30.6763 140.13 30.6763C139.181 30.6763 138.446 31.0171 137.928 31.6986C137.408 32.3801 137.149 33.3343 137.149 34.5611C137.149 35.7951 137.408 36.7529 137.928 37.4345ZM140.13 40.6844C138.333 40.6844 136.923 40.1428 135.9 39.0595C134.876 37.969 134.365 36.4696 134.365 34.5611C134.365 32.6671 134.88 31.1748 135.91 30.0843C136.941 28.9867 138.348 28.4379 140.13 28.4379C141.921 28.4379 143.327 28.9831 144.351 30.0736C145.38 31.1641 145.896 32.6599 145.896 34.5611C145.896 36.4696 145.38 37.969 144.351 39.0595C143.327 40.1428 141.921 40.6844 140.13 40.6844ZM147.963 40.4477V28.6746H150.583V30.5041H150.769C150.937 29.9157 151.313 29.4315 151.898 29.0512C152.49 28.6711 153.169 28.481 153.937 28.481C154.426 28.481 154.802 28.5204 155.066 28.5993V31.0745C154.788 30.974 154.324 30.9238 153.673 30.9238C152.789 30.9238 152.07 31.1748 151.514 31.6771C150.959 32.1721 150.681 32.8285 150.681 33.6465V40.4477H147.963ZM161.352 30.5579C160.542 30.5579 159.873 30.8197 159.347 31.3434C158.82 31.8672 158.529 32.5596 158.47 33.4205H164.115C164.086 32.5451 163.823 31.8492 163.325 31.3327C162.828 30.8161 162.171 30.5579 161.352 30.5579ZM164.137 37.2085H166.713C166.457 38.2846 165.854 39.1348 164.904 39.7589C163.961 40.376 162.788 40.6844 161.385 40.6844C159.624 40.6844 158.24 40.1464 157.231 39.0702C156.231 37.9869 155.729 36.4982 155.729 34.6042C155.729 32.7102 156.233 31.2107 157.243 30.1059C158.251 28.9938 159.624 28.4379 161.364 28.4379C163.074 28.4379 164.411 28.9652 165.375 30.0198C166.347 31.0673 166.833 32.5201 166.833 34.3782V35.2391H158.459V35.3791C158.495 36.3619 158.78 37.1403 159.313 37.7142C159.855 38.281 160.571 38.5644 161.462 38.5644C162.836 38.5644 163.727 38.1124 164.137 37.2085Z" fill="#212126"/>
</svg>
