<svg width="421" height="41" viewBox="0 0 421 41" fill="none" xmlns="http://www.w3.org/2000/svg">
    <path d="M4.90997 3.95886V38.4189H0.640015V0.0688477H18.64V38.4189H14.36V3.95886H4.90997Z" fill="white"/>
    <path d="M39.3199 0.0688477C42.3466 0.0688477 44.5366 0.898838 45.89 2.55884C47.3388 4.54865 48.0463 6.98242 47.89 9.43884V14.0388C47.89 17.1122 47.1699 19.4222 45.7299 20.9688C44.2799 22.5188 42.03 23.2989 38.96 23.2989H35.1799V38.4189H30.9099V0.0688477H39.3199ZM38.9999 19.5089C39.6423 19.5635 40.2891 19.4871 40.9011 19.2842C41.513 19.0814 42.0774 18.7564 42.5599 18.3289C43.4467 17.1947 43.8589 15.7608 43.71 14.3289V9.23886C43.8115 7.84879 43.4607 6.46316 42.71 5.28885C42.2906 4.82122 41.7669 4.45894 41.1814 4.23135C40.5959 4.00376 39.9651 3.91726 39.34 3.97885H35.2299V19.5089H38.9999Z" fill="white"/>
    <path d="M72.8499 17.0489V20.8889H63.4799V34.5089H74.9999V38.3989H59.21V0.0688477H74.9999V3.95886H63.4799V17.0489H72.8499Z" fill="white"/>
    <path d="M101 38.3688H96.9001L90.55 7.84885V38.4189H86.8201V0.0688477H92.8201L99.1201 30.6888L105.2 0.0688477H111.2V38.4189H107.2V7.56885L101 38.3688Z" fill="white"/>
    <path d="M131.53 15.1888C134.603 15.1888 136.86 15.9655 138.3 17.5189C139.74 19.0722 140.46 21.3822 140.46 24.4489V29.0489C140.605 31.5117 139.88 33.9472 138.41 35.9289C137.043 37.5889 134.86 38.4189 131.86 38.4189H123.48V0.0688477H127.75V15.1888H131.53ZM131.86 34.5288C132.485 34.5904 133.116 34.5039 133.701 34.2763C134.287 34.0487 134.811 33.6865 135.23 33.2188C135.984 32.046 136.335 30.6592 136.23 29.2689V24.1689C136.378 22.737 135.966 21.3035 135.08 20.1689C134.597 19.7428 134.032 19.4187 133.42 19.2159C132.809 19.0132 132.162 18.936 131.52 18.9889H127.74V34.5089L131.86 34.5288Z" fill="white"/>
    <path d="M165.94 17.0489V20.8889H156.57V34.5089H168.08V38.3989H152.3V0.0688477H168.08V3.95886H156.57V17.0489H165.94Z" fill="white"/>
    <path d="M188.35 0.0688477C191.377 0.0688477 193.57 0.898838 194.93 2.55884C196.375 4.55052 197.082 6.98289 196.93 9.43884V14.0388C196.93 17.1122 196.21 19.4222 194.77 20.9688C193.33 22.5155 191.073 23.2922 188 23.2989H184.22V38.4189H180V0.0688477H188.35ZM188 19.5089C188.642 19.5641 189.289 19.488 189.901 19.2851C190.513 19.0822 191.078 18.7569 191.56 18.3289C192.447 17.1947 192.859 15.7608 192.71 14.3289V9.23886C192.817 7.84835 192.465 6.46111 191.71 5.28885C191.291 4.82122 190.767 4.45894 190.181 4.23135C189.596 4.00376 188.965 3.91726 188.34 3.97885H184.23V19.5089H188Z" fill="white"/>
    <path d="M212.57 30.6888L211.09 38.4189H207.09L214.44 0.0688477H220.63L228 38.4189H223.73L222.25 30.6888H212.57ZM213.12 27.0189H221.67L217.34 4.88885L213.12 27.0189Z" fill="white"/>
    <path d="M264.35 0.0688477C267.343 0.0688477 269.48 0.772197 270.76 2.17886C272.04 3.58553 272.68 5.71217 272.68 8.55884V10.3688C272.752 12.0916 272.409 13.8065 271.68 15.3688C271.308 16.0275 270.804 16.6026 270.2 17.0585C269.597 17.5144 268.905 17.8413 268.17 18.0189C269.003 18.1989 269.788 18.5506 270.477 19.0517C271.166 19.5528 271.742 20.1922 272.17 20.9289C273.001 22.5719 273.404 24.3985 273.34 26.2389V29.4688C273.34 32.3555 272.63 34.5755 271.21 36.1288C269.79 37.6822 267.58 38.4589 264.58 38.4589H255.76V0.0688477H264.35ZM263.35 16.3388C264.712 16.4481 266.072 16.0959 267.21 15.3388C268.07 14.6388 268.5 13.2888 268.5 11.2788V9.03885C268.592 7.6937 268.241 6.35548 267.5 5.22885C267.089 4.78513 266.581 4.44302 266.015 4.22955C265.449 4.01608 264.842 3.93709 264.24 3.99884H260V16.3788L263.35 16.3388ZM264.57 34.5089C267.57 34.5089 269.11 32.7789 269.11 29.2989V25.9088C269.11 23.7488 268.68 22.2588 267.83 21.4388C266.678 20.5214 265.217 20.0812 263.75 20.2089H260V34.5089H264.57Z" fill="white"/>
    <path d="M349.53 31.4086C348.837 28.9961 347.682 26.7411 346.13 24.7686C344.947 23.1444 343.302 21.9143 341.41 21.2386C347.117 20.0386 349.97 16.6652 349.97 11.1186C349.97 3.85856 344.56 0.788574 334.1 0.788574C332.6 0.788574 330.57 0.898584 327.93 1.04858C324.93 1.19858 322.35 0.958588 319.93 0.958588C319.156 1.86553 318.769 3.03931 318.85 4.22858C320.09 4.22858 322.09 3.78858 322.68 4.22858C323.27 4.66858 323.28 6.22858 323.28 7.22858L323.73 33.8986C323.73 34.8986 322.61 36.4786 321.82 36.3986C321.03 36.3186 320.22 36.9086 319.02 36.3986C319.002 37.6373 319.432 38.8409 320.23 39.7886H333.64C334.43 38.7886 334 38.0786 334 36.7886C332.89 36.7886 332.1 37.0186 331.42 36.5486C330.74 36.0786 331.19 34.4586 331.19 33.5486V23.3286H334.99C335.563 23.5847 336.075 23.9596 336.492 24.4285C336.91 24.8974 337.222 25.4496 337.41 26.0486C338.135 27.8441 338.72 29.693 339.16 31.5786C339.553 33.2452 340.116 34.867 340.84 36.4186C341.453 37.6758 342.428 38.7208 343.64 39.4186C345.234 40.2544 347.023 40.6448 348.82 40.5486C351.16 40.5486 352.75 39.9486 353.59 38.7486V35.9186C352.636 35.8016 351.755 35.3519 351.1 34.6486C350.334 33.7042 349.796 32.5953 349.53 31.4086ZM338.74 17.5086C338.093 18.2194 337.297 18.7775 336.408 19.1424C335.519 19.5074 334.56 19.67 333.6 19.6186C332.795 19.6288 331.991 19.5921 331.19 19.5086V4.89859C332.071 4.71454 332.971 4.6373 333.87 4.66858C336.21 4.66858 337.87 5.25858 338.99 6.44858C340.11 7.63858 340.61 9.44857 340.61 11.8486C340.712 13.9021 340.045 15.92 338.74 17.5086Z" fill="white"/>
    <path d="M418.68 23.4386C417.623 21.8544 416.264 20.4949 414.68 19.4386C412.831 18.2589 410.922 17.1774 408.96 16.1986C407.742 15.5943 406.557 14.9268 405.41 14.1986C404.555 13.6459 403.812 12.9369 403.22 12.1086C402.618 11.1698 402.316 10.0703 402.354 8.95591C402.391 7.84151 402.766 6.76479 403.43 5.86857C403.845 5.43221 404.352 5.09368 404.914 4.87748C405.476 4.66129 406.079 4.57283 406.68 4.61857C410.466 4.61857 413.013 7.33858 414.32 12.7786H418.81V11.9386C418.81 9.28858 418.72 6.93858 418.54 4.93858C418.459 3.27579 418.034 1.64796 417.29 0.158581L412.69 1.60859C411.653 1.05055 410.526 0.681467 409.36 0.518597C408.082 0.288856 406.788 0.168404 405.49 0.158581C403.361 0.129581 401.252 0.566452 399.31 1.43858C397.536 2.24391 396.024 3.53325 394.95 5.15858C393.864 6.86901 393.311 8.86329 393.36 10.8886C393.293 13.6637 394.23 16.3696 396 18.5086C398.152 20.9123 400.772 22.8518 403.7 24.2086C405.757 25.1847 407.707 26.371 409.52 27.7486C410.141 28.2143 410.645 28.8182 410.992 29.5125C411.339 30.2068 411.52 30.9724 411.52 31.7486C411.526 32.8466 411.14 33.9107 410.43 34.7486C410.015 35.2188 409.496 35.585 408.914 35.8178C408.333 36.0505 407.704 36.1433 407.08 36.0886C405.944 36.0871 404.821 35.8438 403.787 35.3749C402.752 34.9059 401.829 34.2219 401.08 33.3686C399.249 31.2851 398.064 28.7139 397.67 25.9686H392.26C392.289 28.6518 392.544 31.3278 393.02 33.9686C393.321 36.2468 393.92 38.4757 394.8 40.5986L398.98 38.6986C401.719 39.9307 404.686 40.5778 407.69 40.5986C410.025 40.6479 412.338 40.1297 414.43 39.0886C416.244 38.2026 417.767 36.8154 418.818 35.0911C419.869 33.3667 420.404 31.3775 420.36 29.3586C420.429 27.2585 419.842 25.1891 418.68 23.4386Z" fill="white"/>
    <path d="M376.66 0.928558C375.829 1.92228 375.407 3.19509 375.48 4.48856C376.5 4.40768 377.52 4.63407 378.41 5.13855C378.722 5.40358 378.965 5.7404 379.118 6.12012C379.272 6.49983 379.331 6.91108 379.29 7.31854V26.9385C379.387 29.0001 378.849 31.0419 377.75 32.7885C377.185 33.5508 376.435 34.1559 375.57 34.5463C374.705 34.9366 373.755 35.0992 372.81 35.0186C371.836 35.0757 370.864 34.8802 369.988 34.4509C369.112 34.0216 368.362 33.3732 367.81 32.5685C366.623 30.6041 366.049 28.3308 366.16 26.0385V6.64856C366.122 6.25339 366.17 5.85466 366.301 5.47998C366.432 5.1053 366.644 4.7636 366.92 4.47855C367.683 3.9716 368.598 3.74214 369.51 3.82855C369.558 2.52826 369.116 1.25736 368.27 0.268555H354.64C353.99 1.44066 353.559 2.7217 353.37 4.04855C354.295 3.95853 355.223 4.18791 356 4.69855C356.556 5.29045 356.889 6.05785 356.94 6.86853V25.0685C356.77 30.1185 358.11 33.9785 360.82 36.6585C363.53 39.3385 367.24 40.6585 371.99 40.6585C376.74 40.6585 380.24 39.2685 382.64 36.4985C385.04 33.7285 386.22 29.7285 386.64 24.4985V6.86853C386.457 6.50103 386.41 6.08067 386.507 5.68173C386.604 5.28279 386.839 4.93098 387.17 4.68854C388.083 4.17784 389.127 3.9515 390.17 4.03854C390.038 2.91567 389.622 1.8451 388.96 0.928558H376.66Z" fill="white"/>
    <path d="M305 31.4186C305.684 29.0006 306.843 26.7433 308.41 24.7786C309.588 23.1496 311.234 21.9182 313.13 21.2486C307.41 20.0353 304.553 16.662 304.56 11.1286C304.56 3.85863 309.8 0.788635 320.28 0.788635C321.78 0.788635 323.86 0.788635 326.5 0.788635C329.5 0.788635 332.07 0.678635 334.72 0.788635C335.493 1.8956 335.87 3.23091 335.79 4.57864C334.492 4.43785 333.18 4.49516 331.9 4.74863L331.97 33.5386C331.988 33.9441 332.091 34.3413 332.272 34.7047C332.453 35.0681 332.707 35.3896 333.02 35.6487C333.894 36.1557 334.902 36.3858 335.91 36.3086C335.911 37.6026 335.43 38.8506 334.56 39.8086H319.88C319.04 38.8377 318.584 37.5926 318.6 36.3086C319.619 36.3607 320.632 36.1214 321.52 35.6186C321.88 35.3974 322.172 35.0821 322.366 34.7067C322.56 34.3314 322.648 33.9102 322.62 33.4886V23.3286H319.51C318.937 23.5825 318.425 23.9556 318.008 24.4229C317.591 24.8901 317.278 25.4409 317.09 26.0386C316.363 27.8378 315.775 29.6898 315.33 31.5786C314.937 33.2453 314.374 34.8671 313.65 36.4186C313.037 37.6759 312.062 38.7208 310.85 39.4186C309.252 40.253 307.46 40.6432 305.66 40.5486C303.313 40.5486 301.72 39.9486 300.88 38.7486V35.9186C301.836 35.7998 302.72 35.3506 303.38 34.6487C304.159 33.7096 304.713 32.6048 305 31.4186ZM320.27 19.5886C321.071 19.5938 321.872 19.5571 322.67 19.4786V4.89865C321.789 4.7146 320.889 4.63736 319.99 4.66864C317.657 4.66864 315.95 5.26197 314.87 6.44864C313.79 7.6353 313.25 9.4353 313.25 11.8486C313.148 13.8882 313.812 15.8923 315.11 17.4686C315.754 18.175 316.546 18.7311 317.429 19.0975C318.312 19.4639 319.265 19.6315 320.22 19.5886H320.27Z" fill="white"/>
</svg>
