<svg width="349" height="60" viewBox="0 0 349 60" fill="none" xmlns="http://www.w3.org/2000/svg">
    <path d="M7.66186 33.2296C7.64053 33.316 7.58986 33.3923 7.51849 33.4455C7.44713 33.4987 7.35951 33.5255 7.2706 33.5212H1.35906C1.29187 33.5253 1.2246 33.5147 1.16194 33.4902C1.09927 33.4656 1.04273 33.4276 0.996254 33.3789C0.958181 33.3302 0.9375 33.2701 0.9375 33.2082C0.9375 33.1463 0.958181 33.0862 0.996254 33.0375L11.0836 0.299893C11.1035 0.212159 11.1536 0.134186 11.2251 0.0795852C11.2966 0.0249842 11.385 -0.00279098 11.4748 0.00110532H17.2868C17.3557 -0.00370836 17.4249 0.00724321 17.489 0.0331268C17.5531 0.0590105 17.6104 0.0991622 17.6567 0.15051C17.6909 0.191436 17.7096 0.243035 17.7096 0.296333C17.7096 0.349631 17.6909 0.401252 17.6567 0.442177L7.66186 33.2296ZM22.8569 33.5212C22.768 33.5255 22.6803 33.4987 22.609 33.4455C22.5376 33.3923 22.4869 33.316 22.4656 33.2296L16.362 13.2043L19.2929 3.72162C19.3142 3.6352 19.3649 3.55887 19.4362 3.50567C19.5076 3.45247 19.5952 3.42571 19.6841 3.42995C19.7728 3.42704 19.8597 3.45433 19.9308 3.50732C20.0019 3.56031 20.0529 3.63586 20.0754 3.72162L29.1597 33.0232C29.1966 33.0725 29.2166 33.1324 29.2166 33.194C29.2166 33.2555 29.1966 33.3155 29.1597 33.3647C29.1138 33.4142 29.0574 33.4527 28.9946 33.4773C28.9317 33.502 28.8642 33.5121 28.7969 33.507L22.8569 33.5212Z" fill="#C30C01"/>
    <path d="M41.1251 21.5557C41.1068 21.6257 41.0658 21.6876 41.0085 21.7318C40.9512 21.776 40.8809 21.8 40.8086 21.8C40.7362 21.8 40.6659 21.776 40.6086 21.7318C40.5513 21.6876 40.5103 21.6257 40.492 21.5557L30.8599 0.598504C30.8285 0.547104 30.8119 0.488008 30.8119 0.427758C30.8119 0.367508 30.8285 0.308434 30.8599 0.257035C30.899 0.204681 30.9511 0.163387 31.0109 0.137198C31.0708 0.111009 31.1364 0.100831 31.2014 0.107652H37.6038C37.6767 0.11526 37.7464 0.141512 37.8062 0.183874C37.866 0.226236 37.9139 0.283278 37.9453 0.349517L44.1485 14.1787C44.172 14.1951 44.1911 14.2169 44.2044 14.2423C44.2176 14.2677 44.2245 14.2959 44.2245 14.3245C44.2245 14.3532 44.2176 14.3814 44.2044 14.4068C44.1911 14.4321 44.172 14.454 44.1485 14.4704L41.1251 21.5557ZM39.7024 33.521C39.3467 33.521 39.2329 33.3432 39.3609 32.9875L52.5498 0.349517C52.5729 0.277676 52.6187 0.215265 52.6802 0.171651C52.7418 0.128037 52.8159 0.105578 52.8913 0.107652H58.8526C59.2083 0.107652 59.3222 0.27127 59.1941 0.598504L46.055 33.2792C46.0329 33.3516 45.9874 33.4148 45.9256 33.4585C45.8638 33.5023 45.7892 33.5243 45.7135 33.521H39.7024Z" fill="#C30C01"/>
    <path d="M67.6024 0.107785C67.8656 0.107785 67.9937 0.221592 67.9937 0.449232V10.316C67.9949 10.8604 68.0618 11.4026 68.1928 11.9309C68.3204 12.4805 68.5628 12.9969 68.9042 13.4461C69.2818 13.9291 69.7697 14.3145 70.327 14.5701C71.0575 14.8879 71.8499 15.0386 72.6461 15.0111H76.5089C76.5554 15.0038 76.6029 15.0076 76.6477 15.0222C76.6924 15.0368 76.7331 15.0617 76.7664 15.095C76.7997 15.1283 76.8246 15.169 76.8392 15.2138C76.8538 15.2585 76.8576 15.3061 76.8503 15.3526V20.5741C76.8503 20.8373 76.7365 20.9654 76.5089 20.9654H72.454C70.7842 21.011 69.1223 20.7207 67.5668 20.1117C66.3217 19.6082 65.211 18.8215 64.323 17.814C63.4825 16.8412 62.8571 15.7018 62.4876 14.4705C62.0933 13.1723 61.8966 11.8222 61.9043 10.4654V0.449232C61.9043 0.221592 62.0323 0.107785 62.2955 0.107785H67.6024ZM85.3868 0.0579834C85.6429 0.0579834 85.7781 0.171812 85.7781 0.399452V33.1228C85.7851 33.1758 85.7798 33.2298 85.7626 33.2804C85.7455 33.3311 85.7168 33.3771 85.679 33.415C85.6412 33.4528 85.5951 33.4814 85.5445 33.4986C85.4938 33.5158 85.4399 33.5211 85.3868 33.5141H79.8168C79.7634 33.5226 79.7088 33.5184 79.6575 33.5018C79.6061 33.4851 79.5594 33.4566 79.5212 33.4184C79.483 33.3802 79.4544 33.3335 79.4378 33.2821C79.4212 33.2307 79.4169 33.1761 79.4255 33.1228V0.399452C79.4255 0.171812 79.5536 0.0579834 79.8168 0.0579834H85.3868Z" fill="#C30C01"/>
    <path d="M91.6897 24.9705C91.462 24.9705 91.3482 24.8424 91.3482 24.5864V0.449307C91.3409 0.402801 91.3447 0.355233 91.3593 0.310474C91.3739 0.265716 91.3988 0.225031 91.4321 0.191745C91.4654 0.158459 91.5061 0.133512 91.5508 0.118931C91.5956 0.104351 91.6432 0.100566 91.6897 0.107859H97.3024C97.5656 0.107859 97.6937 0.221666 97.6937 0.449307V24.5864C97.701 24.6391 97.6958 24.6929 97.6786 24.7433C97.6615 24.7938 97.6327 24.8395 97.5947 24.8768C97.5567 24.9142 97.5104 24.9421 97.4597 24.9583C97.4089 24.9746 97.3551 24.9788 97.3024 24.9705H91.6897ZM130.815 27.2184C130.868 27.2114 130.922 27.2167 130.973 27.2339C131.024 27.2511 131.07 27.2797 131.108 27.3175C131.145 27.3553 131.174 27.4014 131.191 27.4521C131.208 27.5027 131.214 27.5567 131.207 27.6097V33.13C131.215 33.1833 131.211 33.2379 131.194 33.2893C131.178 33.3407 131.149 33.3874 131.111 33.4256C131.073 33.4637 131.026 33.4923 130.975 33.509C130.923 33.5256 130.869 33.5298 130.815 33.5213H91.6897C91.462 33.5213 91.3482 33.3932 91.3482 33.13V27.6097C91.3482 27.3536 91.462 27.2184 91.6897 27.2184H130.815ZM108.201 24.9705C108.148 24.9788 108.094 24.9746 108.043 24.9583C107.993 24.9421 107.947 24.9142 107.908 24.8768C107.87 24.8395 107.842 24.7938 107.825 24.7433C107.807 24.6929 107.802 24.6391 107.809 24.5864V0.449307C107.809 0.221666 107.938 0.107859 108.201 0.107859H114.091C114.347 0.107859 114.482 0.221666 114.482 0.449307V24.5864C114.49 24.6391 114.484 24.6929 114.467 24.7433C114.45 24.7938 114.421 24.8395 114.383 24.8768C114.345 24.9142 114.299 24.9421 114.248 24.9583C114.197 24.9746 114.144 24.9788 114.091 24.9705H108.201ZM124.954 24.9705C124.901 24.9788 124.847 24.9746 124.796 24.9583C124.746 24.9421 124.699 24.9142 124.661 24.8768C124.623 24.8395 124.595 24.7938 124.577 24.7433C124.56 24.6929 124.555 24.6391 124.562 24.5864V0.449307C124.562 0.221666 124.69 0.107859 124.954 0.107859H130.815C131.079 0.107859 131.207 0.221666 131.207 0.449307V24.5864C131.214 24.6391 131.209 24.6929 131.192 24.7433C131.174 24.7938 131.146 24.8395 131.108 24.8768C131.07 24.9142 131.023 24.9421 130.973 24.9583C130.922 24.9746 130.868 24.9788 130.815 24.9705H124.954Z" fill="#C30C01"/>
    <path d="M138.584 33.5708C138.53 33.5794 138.476 33.5752 138.424 33.5586C138.373 33.5419 138.326 33.5133 138.288 33.4751C138.25 33.437 138.221 33.3903 138.205 33.3389C138.188 33.2875 138.184 33.2329 138.192 33.1796V29.7579L158.758 0.257049C158.772 0.226613 158.793 0.199811 158.819 0.178808C158.845 0.157805 158.875 0.143175 158.908 0.136105C158.971 0.125749 159.036 0.125749 159.1 0.136105H163.887C164.151 0.136105 164.279 0.249934 164.279 0.477574V4.43283L143.905 33.4499C143.866 33.5023 143.814 33.5436 143.754 33.5698C143.694 33.5959 143.628 33.6061 143.563 33.5993L138.584 33.5708ZM138.875 24.4866C138.832 24.5602 138.763 24.6154 138.682 24.6416C138.601 24.6678 138.513 24.6633 138.434 24.6288C138.357 24.5995 138.291 24.5451 138.247 24.4744C138.203 24.4036 138.184 24.3203 138.192 24.2376V0.449113C138.192 0.221473 138.321 0.107666 138.584 0.107666H144.204C144.46 0.107666 144.595 0.221473 144.595 0.449113V16.3271L138.875 24.4866ZM158.196 33.5708C157.969 33.5708 157.855 33.4428 157.855 33.1796V17.7925L163.546 9.6828C163.594 9.60842 163.666 9.55293 163.751 9.52571C163.835 9.49849 163.926 9.50121 164.008 9.53342C164.09 9.55988 164.161 9.61254 164.21 9.68325C164.259 9.75397 164.283 9.83881 164.279 9.92466V33.1796C164.287 33.2329 164.283 33.2875 164.266 33.3389C164.25 33.3903 164.221 33.437 164.183 33.4751C164.145 33.5133 164.098 33.5419 164.047 33.5586C163.995 33.5752 163.941 33.5794 163.887 33.5708H158.196Z" fill="#C30C01"/>
    <path d="M171.115 33.521C171.062 33.528 171.008 33.5227 170.957 33.5055C170.907 33.4884 170.861 33.4597 170.823 33.4219C170.785 33.3841 170.756 33.3381 170.739 33.2874C170.722 33.2367 170.717 33.1828 170.724 33.1297V0.44907C170.724 0.221429 170.859 0.107622 171.115 0.107622H176.934C177.19 0.107622 177.318 0.221429 177.318 0.44907V33.1297C177.327 33.1824 177.322 33.2362 177.306 33.287C177.29 33.3377 177.262 33.384 177.225 33.422C177.187 33.46 177.142 33.4888 177.091 33.506C177.041 33.5232 176.987 33.5283 176.934 33.521H171.115ZM180.207 6.48868C180.153 6.49569 180.1 6.49038 180.049 6.4732C179.998 6.45602 179.952 6.4274 179.914 6.38957C179.877 6.35174 179.848 6.30573 179.831 6.25506C179.814 6.2044 179.808 6.15045 179.815 6.09741V0.406389C179.815 0.178748 179.943 0.0649414 180.207 0.0649414H192.905C193.168 0.0649414 193.296 0.178748 193.296 0.406389V6.09741C193.303 6.15045 193.298 6.2044 193.28 6.25506C193.263 6.30573 193.235 6.35174 193.197 6.38957C193.159 6.4274 193.113 6.45602 193.062 6.4732C193.012 6.49038 192.958 6.49569 192.905 6.48868H180.207ZM189.732 13.6665C189.785 13.6595 189.839 13.6647 189.889 13.6819C189.94 13.6991 189.986 13.7277 190.024 13.7656C190.062 13.8034 190.09 13.8494 190.108 13.9001C190.125 13.9508 190.13 14.0047 190.123 14.0577V19.6776C190.13 19.7306 190.125 19.7846 190.108 19.8353C190.09 19.8859 190.062 19.9319 190.024 19.9698C189.986 20.0076 189.94 20.0362 189.889 20.0534C189.839 20.0706 189.785 20.0759 189.732 20.0689H180.207C180.153 20.0774 180.099 20.0732 180.047 20.0566C179.996 20.0399 179.949 20.0114 179.911 19.9732C179.873 19.935 179.844 19.8883 179.828 19.8369C179.811 19.7855 179.807 19.7309 179.815 19.6776V14.0577C179.808 14.0047 179.814 13.9508 179.831 13.9001C179.848 13.8494 179.877 13.8034 179.914 13.7656C179.952 13.7277 179.998 13.6991 180.049 13.6819C180.1 13.6647 180.153 13.6595 180.207 13.6665H189.732ZM180.207 33.521C180.153 33.5296 180.099 33.5254 180.047 33.5087C179.996 33.4921 179.949 33.4635 179.911 33.4253C179.873 33.3871 179.844 33.3404 179.828 33.2891C179.811 33.2377 179.807 33.1831 179.815 33.1297V27.517C179.807 27.4637 179.811 27.4091 179.828 27.3577C179.844 27.3063 179.873 27.2596 179.911 27.2214C179.949 27.1832 179.996 27.1546 180.047 27.138C180.099 27.1214 180.153 27.1172 180.207 27.1257H192.905C192.958 27.1172 193.012 27.1214 193.064 27.138C193.115 27.1546 193.162 27.1832 193.2 27.2214C193.238 27.2596 193.267 27.3063 193.284 27.3577C193.3 27.4091 193.304 27.4637 193.296 27.517V33.1297C193.304 33.1831 193.3 33.2377 193.284 33.2891C193.267 33.3404 193.238 33.3871 193.2 33.4253C193.162 33.4635 193.115 33.4921 193.064 33.5087C193.012 33.5254 192.958 33.5296 192.905 33.521H180.207Z" fill="#C30C01"/>
    <path d="M221.139 33.1298C221.148 33.1831 221.144 33.2377 221.127 33.2891C221.11 33.3404 221.082 33.3872 221.044 33.4253C221.005 33.4635 220.959 33.4921 220.907 33.5087C220.856 33.5254 220.801 33.5296 220.748 33.521H215.057C214.829 33.521 214.716 33.393 214.716 33.1298V0.406407C214.708 0.359902 214.712 0.312334 214.727 0.267575C214.741 0.222817 214.766 0.182132 214.799 0.148846C214.833 0.11556 214.873 0.0906126 214.918 0.076032C214.963 0.0614515 215.01 0.057667 215.057 0.0649602H220.748C221.011 0.0649602 221.139 0.178767 221.139 0.406407V33.1298ZM238.283 9.58317C238.305 10.8802 237.968 12.1579 237.309 13.2752C236.768 14.2327 236.056 15.0836 235.21 15.7864C236.454 16.5623 237.443 17.685 238.056 19.016C238.645 20.3187 238.946 21.7335 238.938 23.1634C238.965 24.6294 238.724 26.0879 238.227 27.4672C237.774 28.6793 237.073 29.784 236.171 30.7111C235.269 31.6265 234.179 32.3352 232.977 32.7883C231.622 33.2876 230.187 33.5289 228.744 33.4997H224.006C223.953 33.5067 223.899 33.5014 223.848 33.4842C223.798 33.467 223.752 33.4384 223.714 33.4006C223.676 33.3628 223.647 33.3167 223.63 33.2661C223.613 33.2154 223.608 33.1615 223.615 33.1084V27.8371C223.608 27.7841 223.613 27.7301 223.63 27.6795C223.647 27.6288 223.676 27.5828 223.714 27.5449C223.752 27.5071 223.798 27.4785 223.848 27.4613C223.899 27.4441 223.953 27.4389 224.006 27.4459H229.135C229.636 27.4533 230.131 27.347 230.585 27.1351C231.038 26.9231 231.438 26.611 231.753 26.2223C232.433 25.4558 232.805 24.4652 232.799 23.4408V23.1918C232.798 22.6917 232.708 22.1957 232.536 21.7264C232.357 21.2484 232.1 20.8036 231.774 20.4103C231.454 20.0199 231.054 19.7022 230.601 19.4784C230.146 19.2503 229.644 19.1333 229.135 19.137H224.006C223.953 19.144 223.899 19.1387 223.848 19.1215C223.798 19.1043 223.752 19.0757 223.714 19.0379C223.676 19 223.647 18.954 223.63 18.9034C223.613 18.8527 223.608 18.7988 223.615 18.7457V13.325C223.615 13.0974 223.75 12.9836 224.006 12.9836H228.623C229.098 13.0164 229.575 12.9513 230.024 12.7922C230.473 12.6331 230.885 12.3835 231.234 12.0588C231.531 11.7561 231.764 11.3966 231.919 11.0018C232.074 10.607 232.149 10.1851 232.137 9.76101V9.46937C232.15 8.65737 231.852 7.87111 231.305 7.27119C230.951 6.93296 230.528 6.67474 230.065 6.51397C229.602 6.35319 229.111 6.29362 228.623 6.33929H223.978C223.925 6.3463 223.871 6.34102 223.82 6.32383C223.769 6.30665 223.723 6.27804 223.685 6.24021C223.648 6.20238 223.619 6.15634 223.602 6.10568C223.585 6.05501 223.579 6.00108 223.586 5.94804V0.377946C223.586 0.150306 223.722 0.036499 223.978 0.036499H228.182C231.302 0.036499 233.769 0.852213 235.58 2.48364C237.392 4.11506 238.293 6.48157 238.283 9.58317Z" fill="#C30C01"/>
    <path d="M267.108 27.7094C266.845 28.62 266.561 29.5519 266.255 30.4909C265.949 31.43 265.657 32.369 265.401 33.2795C265.379 33.3653 265.328 33.4408 265.257 33.4938C265.185 33.5468 265.098 33.5741 265.01 33.5712H259.098C259.029 33.576 258.96 33.5651 258.896 33.5392C258.832 33.5133 258.775 33.4732 258.728 33.4218C258.694 33.3717 258.675 33.3121 258.675 33.2511C258.675 33.19 258.694 33.1304 258.728 33.0803L267.763 3.77161C267.784 3.68519 267.835 3.60886 267.906 3.55567C267.978 3.50247 268.065 3.4757 268.154 3.47994C268.243 3.4757 268.331 3.50247 268.402 3.55567C268.473 3.60886 268.524 3.68519 268.545 3.77161L271.526 13.2472L268.937 21.3071H273.625C273.715 21.3032 273.803 21.3309 273.874 21.3855C273.946 21.4401 273.996 21.5181 274.016 21.6058L275.73 27.2186C275.765 27.2687 275.784 27.3283 275.784 27.3893C275.784 27.4504 275.765 27.51 275.73 27.5601C275.685 27.6113 275.629 27.6514 275.566 27.6773C275.503 27.7032 275.435 27.7142 275.368 27.7094H267.108ZM280.553 33.5712C280.472 33.5693 280.393 33.5392 280.331 33.4861C280.269 33.4329 280.227 33.36 280.212 33.2795L270.203 0.49927C270.166 0.459729 270.145 0.407605 270.145 0.353447C270.145 0.299289 270.166 0.247144 270.203 0.207603C270.248 0.156395 270.304 0.116267 270.367 0.0903496C270.43 0.0644325 270.498 0.0534358 270.566 0.0582195H276.335C276.424 0.0553116 276.511 0.0825803 276.582 0.135571C276.653 0.188561 276.704 0.264133 276.726 0.349887L286.885 33.0732C286.949 33.4005 286.821 33.5641 286.493 33.5641L280.553 33.5712Z" fill="#C30C01"/>
    <path d="M288.748 27.5598C288.741 27.507 288.746 27.4532 288.764 27.4028C288.781 27.3523 288.809 27.3066 288.847 27.2693C288.885 27.232 288.932 27.204 288.982 27.1878C289.033 27.1715 289.087 27.1673 289.14 27.1756H291.63L298.814 3.7713C298.84 3.68831 298.891 3.61565 298.961 3.56404C299.031 3.51243 299.115 3.48458 299.202 3.48458C299.289 3.48458 299.373 3.51243 299.443 3.56404C299.513 3.61565 299.564 3.68831 299.59 3.7713L302.606 13.2469L298.338 27.1756H318.256C318.309 27.1673 318.363 27.1715 318.414 27.1878C318.464 27.204 318.511 27.232 318.549 27.2693C318.587 27.3066 318.615 27.3523 318.633 27.4028C318.65 27.4532 318.655 27.507 318.648 27.5598V33.1298C318.655 33.1829 318.649 33.2368 318.632 33.2875C318.615 33.3382 318.586 33.3842 318.549 33.422C318.511 33.4598 318.465 33.4884 318.414 33.5056C318.363 33.5228 318.309 33.5281 318.256 33.5211H289.14C289.086 33.5297 289.032 33.5255 288.98 33.5088C288.929 33.4922 288.882 33.4636 288.844 33.4254C288.806 33.3872 288.777 33.3405 288.761 33.2891C288.744 33.2378 288.74 33.1832 288.748 33.1298V27.5598ZM309.073 24.9703C308.983 24.976 308.895 24.9498 308.823 24.8963C308.752 24.8429 308.701 24.7658 308.681 24.6787L301.254 0.491838C301.22 0.450913 301.202 0.399314 301.202 0.346016C301.202 0.292717 301.22 0.241096 301.254 0.200171C301.301 0.148823 301.358 0.108693 301.422 0.0828095C301.486 0.0569258 301.555 0.0459743 301.624 0.0507879H307.436C307.525 0.0465468 307.613 0.0733129 307.684 0.126511C307.756 0.179708 307.806 0.256039 307.828 0.342455L315.368 24.4866C315.405 24.5359 315.425 24.5958 315.425 24.6573C315.425 24.7189 315.405 24.7788 315.368 24.8281C315.323 24.878 315.266 24.9168 315.203 24.9414C315.14 24.9661 315.073 24.976 315.005 24.9703H309.073Z" fill="#C30C01"/>
    <path d="M329.88 21.5557C329.862 21.6257 329.821 21.6876 329.764 21.7318C329.706 21.776 329.636 21.8 329.564 21.8C329.491 21.8 329.421 21.776 329.364 21.7318C329.306 21.6876 329.265 21.6257 329.247 21.5557L319.622 0.598504C319.591 0.547104 319.574 0.488008 319.574 0.427758C319.574 0.367508 319.591 0.308434 319.622 0.257035C319.661 0.204681 319.713 0.163387 319.773 0.137198C319.833 0.111009 319.899 0.100831 319.964 0.107652H326.366C326.439 0.11526 326.509 0.141512 326.568 0.183874C326.628 0.226236 326.676 0.283278 326.707 0.349517L332.911 14.1787C332.933 14.196 332.951 14.2181 332.963 14.2434C332.975 14.2687 332.982 14.2964 332.982 14.3245C332.982 14.3526 332.975 14.3804 332.963 14.4057C332.951 14.4309 332.933 14.4531 332.911 14.4704L329.88 21.5557ZM328.457 33.521C328.097 33.521 327.983 33.3432 328.116 32.9875L341.305 0.349517C341.328 0.277676 341.374 0.215265 341.435 0.171651C341.497 0.128037 341.571 0.105578 341.646 0.107652H347.608C347.963 0.107652 348.077 0.27127 347.949 0.598504L334.81 33.2792C334.786 33.3516 334.739 33.4142 334.676 33.4578C334.613 33.5013 334.538 33.5235 334.462 33.521H328.457Z" fill="#C30C01"/>
    <path d="M7.3841 45.4434C7.76017 45.4089 8.13922 45.4586 8.49364 45.5891C8.84806 45.7195 9.16892 45.9274 9.43286 46.1975C9.88902 46.8119 10.1133 47.5678 10.066 48.3316V51.5186C10.1114 52.2822 9.88737 53.0375 9.43286 53.6527C9.16421 53.914 8.8415 54.1131 8.4875 54.236C8.1335 54.3589 7.75684 54.4026 7.3841 54.3641H6.53756V55.6446H5.24996V54.3641H4.45322C4.08039 54.4041 3.70332 54.3611 3.34909 54.2381C2.99485 54.1151 2.67225 53.9152 2.40446 53.6527C1.94464 53.0398 1.71772 52.2834 1.76421 51.5186V48.3601C1.71583 47.5951 1.94295 46.838 2.40446 46.226C2.66701 45.956 2.98662 45.7482 3.33988 45.6177C3.69314 45.4872 4.07111 45.4374 4.44611 45.4719H5.24996V44.1132H6.52333V45.4719L7.3841 45.4434ZM4.48879 46.5816C4.28944 46.5633 4.08855 46.5916 3.90208 46.6645C3.71562 46.7374 3.5487 46.8527 3.41461 47.0013C3.16468 47.3688 3.0468 47.8102 3.08026 48.2534V51.5826C3.0491 52.03 3.16664 52.4752 3.41461 52.8489C3.5487 52.9975 3.71562 53.1129 3.90208 53.1857C4.08855 53.2586 4.28944 53.2869 4.48879 53.2686H5.24996V46.5816H4.48879ZM7.3841 53.2686C8.33734 53.2686 8.80685 52.7066 8.80685 51.5826V48.2534C8.84031 47.8102 8.72244 47.3688 8.4725 47.0013C8.33489 46.8533 8.16535 46.7386 7.97676 46.6658C7.78817 46.5931 7.58548 46.5643 7.3841 46.5816H6.53756V53.2686H7.3841Z" fill="white"/>
    <path d="M16.7316 50.3235L15.0314 55.6731H13.6869V44.0847H14.8322V52.728L15.8566 49.5339L17.7062 44.0847H19.129V55.6731H17.9908V46.4252L16.7316 50.3235Z" fill="white"/>
    <path d="M25.318 45.2587L25.0548 52.7921C25.0397 53.2035 24.9897 53.6128 24.9054 54.0157C24.8457 54.3403 24.7171 54.6484 24.5284 54.9191C24.3462 55.1688 24.1006 55.3653 23.817 55.4882C23.468 55.633 23.092 55.7009 22.7144 55.6874H22.501V54.5137C22.721 54.5199 22.9404 54.4861 23.1483 54.4141C23.3032 54.3512 23.4366 54.245 23.5325 54.1082C23.6373 53.953 23.7031 53.7749 23.7246 53.5889C23.7619 53.3535 23.7833 53.1158 23.7886 52.8775L24.1087 44.1062H28.8251V55.6945H27.5375V45.2587H25.318Z" fill="white"/>
    <path d="M35.0353 48.6731C35.4064 48.6422 35.7799 48.6895 36.1316 48.8121C36.4833 48.9346 36.8053 49.1296 37.0769 49.3845C37.5553 49.9718 37.7896 50.7206 37.7314 51.4759V52.8987C37.7741 53.6421 37.5551 54.3771 37.1125 54.9759C36.8609 55.2424 36.5524 55.4487 36.21 55.5793C35.8675 55.7098 35.5 55.7614 35.1348 55.73H32.6023V44.0847H33.8899V48.6731H35.0353ZM35.1348 54.5135C35.3232 54.5325 35.5134 54.5069 35.6901 54.439C35.8667 54.371 36.025 54.2625 36.1521 54.1223C36.3817 53.7679 36.4892 53.3482 36.458 52.9272V51.3906C36.5019 50.9598 36.3769 50.5288 36.1094 50.1883C35.9642 50.0587 35.794 49.9603 35.6092 49.8991C35.4245 49.8379 35.2291 49.8153 35.0353 49.8327H33.8899V54.5135H35.1348Z" fill="white"/>
    <path d="M45.5782 55.6517H44.3333L42.4125 46.4394V55.6873H41.2886V44.0847H43.0955L44.9948 53.3326L46.8373 44.0847H48.6442V55.6731H47.4206V46.354L45.5782 55.6517Z" fill="white"/>
    <path d="M61.4487 49.2138V50.3733H58.6032V54.4922H62.0747V55.6731H57.3085V44.0847H62.0747V45.2585H58.6032V49.2138H61.4487Z" fill="white"/>
    <path d="M68.2781 44.0849C68.6275 44.05 68.9803 44.089 69.3137 44.1993C69.647 44.3096 69.9535 44.4888 70.2131 44.7252C70.644 45.271 70.8524 45.9598 70.7964 46.653V47.2008C70.8176 47.7154 70.7152 48.2277 70.4976 48.6946C70.3854 48.894 70.2334 49.0683 70.051 49.2066C69.8687 49.3448 69.6599 49.4442 69.4377 49.4985C69.6869 49.5552 69.922 49.662 70.1287 49.8125C70.3354 49.9629 70.5093 50.1538 70.6399 50.3735C70.8909 50.8713 71.0132 51.424 70.9956 51.9812V52.9416C71.0464 53.6709 70.8146 54.3918 70.3482 54.9548C70.0847 55.2085 69.7701 55.4032 69.4254 55.5259C69.0807 55.6486 68.7139 55.6964 68.3493 55.6661H65.7172V44.0849H68.2781ZM67.9651 49.0005C68.3781 49.0303 68.7891 48.92 69.1318 48.6875C69.2826 48.5247 69.3959 48.3307 69.4635 48.1193C69.5311 47.9078 69.5514 47.6841 69.523 47.464V46.7526C69.5521 46.3493 69.4498 45.9475 69.2314 45.6073C69.1087 45.472 68.9559 45.3673 68.7854 45.3019C68.6149 45.2364 68.4314 45.2119 68.2497 45.2302H66.9763V48.9721L67.9651 49.0005ZM68.3493 54.4924C69.2598 54.4924 69.7222 53.9731 69.7222 52.9202V51.8958C69.773 51.4137 69.6325 50.9309 69.331 50.5514C68.9849 50.2713 68.5438 50.1361 68.1003 50.1743H66.9763V54.4924H68.3493Z" fill="white"/>
    <path d="M75.8612 45.2585V55.6731H74.5878V44.0847H79.2331V45.2585H75.8612Z" fill="white"/>
    <path d="M86.9803 49.2138V50.3733H84.1348V54.4922H87.6134V55.6731H82.8472V44.0847H87.6134V45.2585H84.1348V49.2138H86.9803Z" fill="white"/>
    <path d="M92.5075 50.4587V55.6731H91.2128V44.0847H92.5075V49.2991H95.353V44.0847H96.6406V55.6731H95.353V50.4587H92.5075Z" fill="white"/>
    <path d="M103.42 50.3235L101.713 55.6731H100.375V44.0847H101.513V52.728L102.545 49.5339L104.395 44.0847H105.817V55.6731H104.665V46.4252L103.42 50.3235Z" fill="white"/>
    <path d="M112.533 50.722C112.085 50.6916 111.641 50.8228 111.281 51.0919C111.115 51.2723 110.989 51.4863 110.913 51.7196C110.837 51.9528 110.812 52.1997 110.84 52.4435V54.2646C110.847 54.5548 110.83 54.8451 110.79 55.1325C110.762 55.3196 110.706 55.5017 110.626 55.6732H109.318C109.419 55.4677 109.484 55.2463 109.51 55.0187C109.537 54.7826 109.552 54.5451 109.552 54.3073V52.5075C109.533 51.9678 109.642 51.4312 109.872 50.9425C109.989 50.7305 110.149 50.545 110.341 50.3981C110.533 50.2511 110.754 50.1458 110.989 50.0888C110.043 49.7829 109.566 48.9862 109.566 47.7057V46.7596C109.517 46.0527 109.732 45.3525 110.171 44.7962C110.43 44.5422 110.741 44.3471 111.082 44.2243C111.424 44.1016 111.787 44.054 112.149 44.0848H114.731V55.6732H113.443V50.6935L112.533 50.722ZM112.184 45.2586C111.992 45.2394 111.798 45.2654 111.618 45.3345C111.437 45.4037 111.276 45.5141 111.146 45.657C110.918 46.0123 110.811 46.4312 110.84 46.8521V47.9618C110.81 48.192 110.833 48.4261 110.909 48.6457C110.984 48.8654 111.109 49.0647 111.274 49.2281C111.625 49.4602 112.042 49.5726 112.462 49.5482H113.443V45.2799L112.184 45.2586Z" fill="white"/>
    <path d="M124.712 45.2585V55.6731H123.417V44.0847H128.845V55.6731H127.557V45.2585H124.712Z" fill="white"/>
    <path d="M135.105 44.0849C135.471 44.053 135.84 44.1042 136.184 44.2348C136.527 44.3653 136.837 44.5719 137.09 44.839C137.527 45.4401 137.743 46.174 137.701 46.9162V48.339C137.758 49.0962 137.524 49.8466 137.047 50.4375C136.775 50.6924 136.453 50.8874 136.102 51.0099C135.75 51.1325 135.376 51.1798 135.005 51.1489H133.86V55.7159H132.587V44.0849H135.105ZM135.005 49.9467C135.199 49.962 135.394 49.9383 135.578 49.8773C135.763 49.8162 135.933 49.7189 136.079 49.591C136.342 49.2482 136.467 48.819 136.428 48.3888V46.8522C136.457 46.4313 136.349 46.0124 136.122 45.6571C135.995 45.516 135.837 45.4064 135.661 45.3373C135.484 45.2681 135.294 45.2412 135.105 45.2587H133.86V49.9467H135.005Z" fill="white"/>
    <path d="M144.154 50.3235L142.446 55.6731H141.123V44.0847H142.261V52.728L143.293 49.5339L145.142 44.0847H146.565V55.6731H145.391V46.4252L144.154 50.3235Z" fill="white"/>
    <path d="M151.566 45.2585V55.6731H150.293V44.0847H154.909V45.2585H151.566Z" fill="white"/>
    <path d="M158.467 46.8804C158.426 46.1141 158.658 45.3581 159.121 44.7463C159.372 44.4739 159.682 44.262 160.027 44.1265C160.372 43.991 160.743 43.9353 161.113 43.9638C161.484 43.9358 161.858 43.9915 162.205 44.1269C162.552 44.2624 162.864 44.474 163.119 44.7463C163.588 45.3554 163.823 46.1128 163.781 46.8804V52.8702C163.824 53.638 163.589 54.3958 163.119 55.0043C162.866 55.2787 162.554 55.4918 162.206 55.6274C161.859 55.763 161.485 55.8175 161.113 55.7869C160.742 55.8162 160.369 55.7596 160.024 55.6214C159.678 55.4832 159.369 55.2672 159.121 54.9901C158.656 54.3791 158.424 53.6225 158.467 52.856V46.8804ZM159.74 52.9414C159.713 53.3782 159.834 53.8113 160.081 54.172C160.214 54.3142 160.375 54.4275 160.554 54.505C160.733 54.5825 160.925 54.6224 161.12 54.6224C161.315 54.6224 161.507 54.5825 161.686 54.505C161.865 54.4275 162.025 54.3142 162.159 54.172C162.391 53.8057 162.498 53.3739 162.464 52.9414V46.8164C162.492 46.3815 162.377 45.9495 162.137 45.5857C162.004 45.4436 161.843 45.3303 161.665 45.2528C161.486 45.1753 161.293 45.1353 161.099 45.1353C160.904 45.1353 160.711 45.1753 160.533 45.2528C160.354 45.3303 160.193 45.4436 160.06 45.5857C159.812 45.9464 159.692 46.3796 159.719 46.8164L159.74 52.9414Z" fill="white"/>
    <path d="M173.064 50.2097L172.452 51.2981V55.6731H171.179V51.2981L170.581 50.1955L168.362 55.6731H167.038L169.685 49.0003L167.102 44.0847H168.397L171.179 49.4129V44.0847H172.424V49.3845L175.219 44.0563H176.507L173.946 48.9434L176.578 55.6446H175.269L173.064 50.2097Z" fill="white"/>
    <path d="M182.995 50.3235L181.288 55.6731H179.95V44.0847H181.088V52.728L182.113 49.5339L183.969 44.0847H185.392V55.6731H184.233V46.4252L182.995 50.3235Z" fill="white"/>
    <path d="M190.407 50.4587V55.6731H189.113V44.0847H190.407V49.2991H193.253V44.0847H194.54V55.6731H193.253V50.4587H190.407Z" fill="white"/>
    <path d="M199.57 53.3397L199.129 55.6731H197.934L200.167 44.0847H202.038L204.251 55.6731H202.963L202.515 53.3397H199.57ZM199.741 52.23H202.302L200.993 45.5431L199.741 52.23Z" fill="white"/>
    <path d="M215.661 50.3235L213.954 55.6731H212.609V44.0847H213.755V52.728L214.779 49.5339L216.636 44.0847H218.058V55.6731H216.899V46.4252L215.661 50.3235Z" fill="white"/>
    <path d="M228.053 53.3397L227.605 55.6731H226.417L228.623 44.0847H230.493L232.713 55.6731H231.418L230.977 53.3397H228.053ZM228.217 52.23H230.799L229.49 45.5431L228.217 52.23Z" fill="white"/>
    <path d="M238.582 45.2587L238.311 52.7921C238.296 53.2035 238.246 53.6128 238.162 54.0157C238.102 54.3403 237.974 54.6484 237.785 54.9191C237.603 55.1688 237.357 55.3653 237.074 55.4882C236.725 55.633 236.348 55.7009 235.971 55.6874H235.758V54.5137C235.978 54.5199 236.197 54.4861 236.405 54.4141C236.561 54.3494 236.696 54.2437 236.796 54.1082C236.896 53.951 236.959 53.7736 236.981 53.5889C237.018 53.3532 237.041 53.1157 237.052 52.8775L237.365 44.1062H242.139V55.6945H240.844V45.2587H238.582Z" fill="white"/>
    <path d="M249.964 49.2138V50.3733H247.118V54.4922H250.675V55.6731H245.909V44.0847H250.675V45.2585H247.204V49.2138H249.964Z" fill="white"/>
    <path d="M256.203 50.6365L255.491 51.7818V55.6731H254.232V44.0847H255.52V49.6833L258.6 44.0847H259.923L256.978 49.3845L260.008 55.6944H258.685L256.203 50.6365Z" fill="white"/>
    <path d="M265.899 43.9709C266.268 43.941 266.638 43.9975 266.982 44.1358C267.325 44.2741 267.631 44.4904 267.876 44.7676C268.332 45.3824 268.556 46.1381 268.509 46.9018V47.9617H267.286V46.852C267.312 46.4182 267.2 45.9874 266.966 45.6213C266.833 45.4814 266.673 45.37 266.496 45.2938C266.318 45.2177 266.127 45.1785 265.934 45.1785C265.741 45.1785 265.55 45.2177 265.373 45.2938C265.196 45.37 265.036 45.4814 264.903 45.6213C264.663 45.9851 264.548 46.4171 264.576 46.852V52.9414C264.548 53.3762 264.663 53.8083 264.903 54.1721C265.036 54.312 265.196 54.4234 265.373 54.4995C265.55 54.5756 265.741 54.6149 265.934 54.6149C266.127 54.6149 266.318 54.5756 266.496 54.4995C266.673 54.4234 266.833 54.312 266.966 54.1721C267.2 53.806 267.312 53.3751 267.286 52.9414V51.4333H268.509V52.856C268.556 53.6197 268.331 54.3752 267.876 54.9901C267.346 55.4988 266.64 55.7828 265.906 55.7828C265.171 55.7828 264.465 55.4988 263.935 54.9901C263.48 54.3752 263.256 53.6197 263.302 52.856V46.8662C263.296 46.4623 263.349 46.0597 263.459 45.6711C263.547 45.3336 263.71 45.0201 263.935 44.7534C264.153 44.4929 264.432 44.2901 264.746 44.163C265.114 44.0241 265.506 43.9588 265.899 43.9709Z" fill="white"/>
    <path d="M276.207 49.2138V50.3733H273.361V54.4922H276.84V55.6731H272.074V44.0847H276.84V45.2585H273.361V49.2138H276.207Z" fill="white"/>
    <path d="M283.441 50.722C282.993 50.6916 282.549 50.8228 282.189 51.0919C282.023 51.2723 281.898 51.4863 281.821 51.7196C281.745 51.9528 281.72 52.1997 281.748 52.4435V54.2646C281.756 54.5548 281.739 54.8451 281.698 55.1325C281.67 55.3196 281.615 55.5017 281.535 55.6732H280.226C280.327 55.4677 280.392 55.2463 280.418 55.0187C280.446 54.7826 280.46 54.5451 280.461 54.3073V52.5075C280.441 51.9678 280.551 51.4312 280.781 50.9425C280.899 50.7313 281.058 50.5465 281.251 50.3996C281.443 50.2528 281.663 50.147 281.898 50.0888C280.952 49.7829 280.475 48.9862 280.475 47.7057V46.7596C280.425 46.0527 280.641 45.3525 281.08 44.7962C281.339 44.5422 281.649 44.3471 281.991 44.2243C282.332 44.1016 282.696 44.054 283.057 44.0848H285.639V55.6732H284.352V50.6935L283.441 50.722ZM283.093 45.2586C282.901 45.2394 282.707 45.2654 282.526 45.3345C282.346 45.4037 282.184 45.5141 282.054 45.657C281.827 46.0123 281.72 46.4312 281.748 46.8521V47.9618C281.718 48.192 281.742 48.4261 281.817 48.6457C281.892 48.8654 282.017 49.0647 282.182 49.2281C282.533 49.4602 282.95 49.5726 283.37 49.5482H284.352V45.2799L283.093 45.2586Z" fill="white"/>
    <path d="M295.62 50.4587V55.6731H294.325V44.0847H295.62V49.2991H298.466V44.0847H299.76V55.6731H298.473V50.4587H295.62Z" fill="white"/>
    <path d="M304.782 53.3397L304.341 55.6731H303.146L305.366 44.0847H307.237L309.449 55.6731H308.162L307.713 53.3397H304.782ZM304.953 52.23H307.535L306.227 45.5431L304.953 52.23Z" fill="white"/>
    <path d="M314.151 45.2585V55.6731H312.878V44.0847H317.495V45.2585H314.151Z" fill="white"/>
    <path d="M324.196 50.3235L322.524 55.6731H321.18V44.0847H322.325V52.728L323.349 49.5339L325.199 44.0847H326.622V55.6731H325.462V46.4252L324.196 50.3235Z" fill="white"/>
    <path d="M331.609 50.4587V55.6731H330.35V44.0847H331.637V49.2991H334.483V44.0847H335.777V55.6731H334.483V50.4587H331.609Z" fill="white"/>
    <path d="M340.778 53.3397L340.33 55.6731H339.142L341.354 44.0847H343.225L345.445 55.6731H344.15L343.709 53.3397H340.778ZM340.942 52.23H343.524L342.215 45.5431L340.942 52.23Z" fill="white"/>
    <path d="M347.736 40.1367H223.956V59.3439H347.736V40.1367Z" stroke="white" stroke-miterlimit="10"/>
</svg>
