<svg width="148" height="16" viewBox="0 0 148 16" fill="none" xmlns="http://www.w3.org/2000/svg">
    <path d="M1.69903 1.72291V14.3382H0.200012V0.298828H6.51913V14.3382H5.01657V1.72291H1.69903Z" fill="white"/>
    <path d="M13.779 0.298828C14.8415 0.298828 15.6104 0.602675 16.0855 1.21038C16.5941 1.93882 16.8425 2.82979 16.7876 3.72905V5.41304C16.7876 6.53814 16.5348 7.3838 16.0293 7.95001C15.5202 8.51744 14.7304 8.803 13.6526 8.803H12.3256V14.3382H10.8265V0.298828H13.779ZM13.6666 7.41553C13.8922 7.43554 14.1192 7.40756 14.3341 7.3333C14.5489 7.25905 14.747 7.14006 14.9164 6.98355C15.2277 6.56835 15.3725 6.04342 15.3202 5.51921V3.65584C15.3558 3.14695 15.2326 2.63969 14.9691 2.20979C14.8218 2.0386 14.638 1.90598 14.4325 1.82266C14.2269 1.73934 14.0055 1.70768 13.786 1.73022H12.3431V7.41553H13.6666Z" fill="white"/>
    <path d="M25.5501 6.51496V7.92073H22.2607V12.9068H26.3049V14.3309H20.7617V0.298828H26.3049V1.72291H22.2607V6.51496H25.5501Z" fill="white"/>
    <path d="M35.4323 14.3199H33.9929L31.7636 3.14697V14.3382H30.4542V0.298828H32.5606L34.7723 11.5084L36.9067 0.298828H39.0131V14.3382H37.6088V3.04447L35.4323 14.3199Z" fill="white"/>
    <path d="M46.1503 5.83404C47.2293 5.83404 48.0215 6.11837 48.527 6.68702C49.0326 7.25568 49.2853 8.10133 49.2853 9.22399V10.908C49.3364 11.8096 49.0816 12.7012 48.5656 13.4267C48.0858 14.0344 47.3194 14.3382 46.2662 14.3382H43.3243V0.298828H44.8233V5.83404H46.1503ZM46.2662 12.9141C46.4856 12.9367 46.7071 12.905 46.9127 12.8217C47.1182 12.7384 47.302 12.6058 47.4493 12.4346C47.714 12.0052 47.8372 11.4975 47.8003 10.9885V9.12149C47.8523 8.59731 47.7076 8.07252 47.3966 7.65715C47.2269 7.50118 47.0287 7.38253 46.8139 7.3083C46.5992 7.23407 46.3723 7.2058 46.1468 7.22517H44.8198V12.9068L46.2662 12.9141Z" fill="white"/>
    <path d="M58.2309 6.51496V7.92073H54.9414V12.9068H58.9822V14.3309H53.4424V0.298828H58.9822V1.72291H54.9414V6.51496H58.2309Z" fill="white"/>
    <path d="M66.0976 0.298828C67.1602 0.298828 67.9302 0.602675 68.4076 1.21038C68.9149 1.9395 69.1632 2.82996 69.1098 3.72905V5.41304C69.1098 6.53814 68.857 7.3838 68.3515 7.95001C67.846 8.51622 67.0537 8.80056 65.9748 8.803H64.6478V14.3382H63.1663V0.298828H66.0976ZM65.9748 7.41553C66.2003 7.43575 66.4274 7.40788 66.6423 7.33362C66.8571 7.25935 67.0553 7.14024 67.2246 6.98355C67.5359 6.56835 67.6806 6.04342 67.6283 5.51921V3.65584C67.6657 3.14679 67.5424 2.63894 67.2772 2.20979C67.13 2.0386 66.9462 1.90598 66.7406 1.82266C66.5351 1.73934 66.3136 1.70768 66.0942 1.73022H64.6513V7.41553H65.9748Z" fill="white"/>
    <path d="M74.6005 11.5084L74.081 14.3382H72.6767L75.257 0.298828H77.4301L80.0174 14.3382H78.5184L77.9988 11.5084H74.6005ZM74.7936 10.1648H77.7952L76.2751 2.06336L74.7936 10.1648Z" fill="white"/>
    <path d="M92.7787 0.298828C93.8296 0.298828 94.5797 0.556314 95.0291 1.07127C95.4784 1.58623 95.7031 2.36477 95.7031 3.40689V4.0695C95.7285 4.70018 95.6081 5.32798 95.352 5.89993C95.2214 6.14106 95.0445 6.35161 94.8326 6.51849C94.6206 6.68538 94.378 6.80505 94.1198 6.87007C94.4121 6.93596 94.6879 7.06474 94.9297 7.24818C95.1715 7.43162 95.374 7.66568 95.524 7.93538C95.8159 8.53687 95.9573 9.20557 95.9348 9.87929V11.0617C95.9348 12.1185 95.6855 12.9312 95.187 13.4999C94.6885 14.0685 93.9127 14.3529 92.8595 14.3529H89.7631V0.298828H92.7787ZM92.4277 6.25503C92.906 6.29504 93.3833 6.16609 93.7828 5.88895C94.0847 5.63269 94.2357 5.13847 94.2357 4.40264V3.58261C94.2679 3.09018 94.1446 2.60027 93.8846 2.18783C93.7404 2.02539 93.5619 1.90015 93.3633 1.822C93.1646 1.74385 92.9513 1.71493 92.7401 1.73754H91.2516V6.26968L92.4277 6.25503ZM92.856 12.9068C93.9092 12.9068 94.4498 12.2735 94.4498 10.9995V9.75847C94.4498 8.96773 94.2988 8.42226 94.0004 8.12207C93.5959 7.78622 93.0832 7.62505 92.5681 7.67179H91.2516V12.9068H92.856Z" fill="white"/>
    <path d="M122.682 11.772C122.438 10.8889 122.033 10.0634 121.488 9.34123C121.073 8.74666 120.495 8.29633 119.831 8.04895C121.834 7.60965 122.836 6.37471 122.836 4.34416C122.836 1.68638 120.937 0.5625 117.265 0.5625C116.738 0.5625 116.026 0.602773 115.099 0.657686C114.046 0.712599 113.14 0.624739 112.29 0.624739C112.019 0.956757 111.883 1.38646 111.911 1.82183C112.346 1.82183 113.049 1.66076 113.256 1.82183C113.463 1.98291 113.466 2.55401 113.466 2.92009L113.624 12.6836C113.624 13.0497 113.231 13.6281 112.954 13.5988C112.676 13.5695 112.392 13.7855 111.971 13.5988C111.965 14.0523 112.115 14.4929 112.396 14.8398H117.103C117.381 14.4737 117.23 14.2138 117.23 13.7416C116.84 13.7416 116.563 13.8258 116.324 13.6537C116.085 13.4817 116.243 12.8886 116.243 12.5555V8.81407H117.577C117.778 8.90781 117.958 9.04506 118.105 9.21673C118.251 9.3884 118.361 9.59056 118.427 9.80982C118.681 10.4672 118.887 11.144 119.041 11.8343C119.179 12.4444 119.377 13.0381 119.631 13.6061C119.846 14.0664 120.188 14.4489 120.614 14.7044C121.173 15.0104 121.802 15.1533 122.432 15.1181C123.254 15.1181 123.812 14.8984 124.107 14.4591V13.4231C123.772 13.3803 123.463 13.2156 123.233 12.9582C122.964 12.6124 122.775 12.2065 122.682 11.772V11.772ZM118.894 6.68345C118.667 6.94367 118.387 7.14798 118.075 7.28158C117.763 7.41517 117.426 7.47471 117.089 7.45588C116.807 7.45964 116.524 7.4462 116.243 7.41562V2.06712C116.552 1.99974 116.868 1.97146 117.184 1.98291C118.006 1.98291 118.588 2.1989 118.982 2.63454C119.375 3.07019 119.55 3.7328 119.55 4.6114C119.586 5.36317 119.352 6.10188 118.894 6.68345Z" fill="white"/>
    <path d="M146.958 8.85451C146.587 8.27456 146.11 7.77689 145.553 7.39016C144.905 6.95831 144.234 6.56239 143.545 6.20405C143.118 5.98285 142.702 5.73846 142.299 5.47188C141.999 5.26956 141.738 5.00998 141.53 4.70676C141.319 4.36309 141.213 3.96058 141.226 3.55261C141.239 3.14465 141.371 2.75047 141.604 2.42238C141.75 2.26264 141.928 2.13871 142.125 2.05956C142.322 1.98041 142.534 1.94803 142.745 1.96478C144.074 1.96478 144.968 2.96053 145.427 4.95203H147.003V4.64452C147.003 3.6744 146.972 2.8141 146.909 2.08193C146.88 1.4732 146.731 0.877279 146.47 0.332039L144.855 0.862867C144.491 0.658577 144.095 0.52346 143.686 0.463836C143.237 0.37973 142.783 0.335635 142.327 0.332039C141.58 0.321422 140.839 0.481354 140.158 0.800628C139.535 1.09545 139.004 1.56746 138.627 2.16247C138.246 2.78863 138.052 3.51871 138.069 4.26014C138.045 5.27607 138.374 6.26666 138.996 7.04971C139.751 7.92968 140.671 8.63971 141.699 9.1364C142.421 9.49372 143.106 9.92801 143.742 10.4323C143.96 10.6028 144.137 10.8239 144.259 11.0781C144.381 11.3323 144.444 11.6125 144.444 11.8967C144.446 12.2987 144.311 12.6882 144.061 12.9949C143.916 13.1671 143.734 13.3011 143.529 13.3863C143.325 13.4716 143.105 13.5055 142.885 13.4855C142.487 13.485 142.093 13.3959 141.729 13.2242C141.366 13.0525 141.042 12.8021 140.779 12.4897C140.136 11.727 139.72 10.7857 139.582 9.7807H137.683C137.693 10.763 137.782 11.7426 137.949 12.7094C138.055 13.5434 138.265 14.3594 138.574 15.1365L140.042 14.441C141.004 14.892 142.045 15.1289 143.1 15.1365C143.92 15.1546 144.731 14.9649 145.466 14.5837C146.103 14.2594 146.637 13.7516 147.006 13.1203C147.375 12.4891 147.563 11.7608 147.547 11.0217C147.572 10.2529 147.366 9.49535 146.958 8.85451V8.85451Z" fill="white"/>
    <path d="M132.206 0.613688C131.915 0.977474 131.766 1.44343 131.792 1.91695C132.15 1.88734 132.508 1.97022 132.821 2.1549C132.93 2.25193 133.016 2.37523 133.069 2.51424C133.123 2.65325 133.144 2.8038 133.13 2.95297V10.1356C133.164 10.8903 132.975 11.6378 132.589 12.2772C132.391 12.5562 132.127 12.7777 131.824 12.9206C131.52 13.0635 131.187 13.1231 130.855 13.0935C130.513 13.1145 130.172 13.0429 129.864 12.8857C129.556 12.7286 129.293 12.4912 129.099 12.1966C128.683 11.4775 128.481 10.6452 128.52 9.80609V2.7077C128.507 2.56303 128.524 2.41706 128.57 2.2799C128.616 2.14273 128.69 2.01764 128.787 1.91329C129.055 1.7277 129.376 1.6437 129.696 1.67533C129.713 1.19932 129.558 0.734058 129.261 0.37207H124.476C124.248 0.801161 124.097 1.27013 124.03 1.75587C124.355 1.72292 124.681 1.80689 124.953 1.99383C125.149 2.21051 125.265 2.49145 125.283 2.78823V9.45098C125.224 11.2997 125.694 12.7128 126.645 13.6939C127.597 14.675 128.899 15.1583 130.567 15.1583C132.234 15.1583 133.463 14.6494 134.306 13.6353C135.148 12.6213 135.562 11.1569 135.71 9.24231V2.78823C135.646 2.65369 135.629 2.4998 135.663 2.35376C135.697 2.20771 135.78 2.07892 135.896 1.99016C136.216 1.8032 136.583 1.72034 136.949 1.75221C136.903 1.34114 136.757 0.949222 136.524 0.613688H132.206Z" fill="white"/>
    <path d="M107.049 11.7755C107.289 10.8903 107.696 10.0639 108.246 9.34472C108.66 8.74835 109.238 8.29757 109.903 8.05244C107.895 7.60825 106.892 6.37333 106.895 4.34765C106.895 1.68621 108.734 0.562331 112.413 0.562331C112.94 0.562331 113.67 0.562331 114.597 0.562331C115.65 0.562331 116.552 0.522062 117.483 0.562331C117.754 0.967576 117.886 1.45641 117.858 1.9498C117.403 1.89826 116.942 1.91924 116.493 2.01203L116.517 12.5516C116.524 12.7001 116.56 12.8455 116.623 12.9785C116.687 13.1115 116.776 13.2292 116.886 13.3241C117.193 13.5097 117.547 13.5939 117.9 13.5657C117.901 14.0394 117.732 14.4962 117.427 14.847H112.273C111.978 14.4916 111.818 14.0357 111.824 13.5657C112.181 13.5848 112.537 13.4971 112.849 13.3131C112.975 13.2321 113.078 13.1167 113.146 12.9792C113.214 12.8418 113.245 12.6876 113.235 12.5333V8.8139H112.143C111.942 8.90685 111.762 9.04341 111.616 9.21447C111.469 9.38554 111.359 9.58718 111.293 9.80599C111.038 10.4646 110.832 11.1426 110.676 11.8341C110.538 12.4442 110.34 13.038 110.086 13.606C109.871 14.0662 109.528 14.4487 109.103 14.7042C108.542 15.0097 107.913 15.1525 107.281 15.1179C106.457 15.1179 105.898 14.8982 105.603 14.4589V13.4229C105.938 13.3794 106.249 13.215 106.48 12.958C106.754 12.6142 106.949 12.2098 107.049 11.7755ZM112.41 7.44473C112.691 7.44663 112.972 7.43319 113.252 7.40447V2.06695C112.943 1.99957 112.627 1.97129 112.312 1.98274C111.492 1.98274 110.893 2.19995 110.514 2.63438C110.135 3.0688 109.945 3.72775 109.945 4.61123C109.91 5.3579 110.143 6.09155 110.598 6.66863C110.825 6.92724 111.102 7.13082 111.412 7.26494C111.722 7.39906 112.057 7.46043 112.392 7.44473H112.41Z" fill="white"/>
</svg>
