<svg width="194" height="56" viewBox="0 0 194 56" fill="none" xmlns="http://www.w3.org/2000/svg">
<path d="M0 9.33333C0 4.17868 4.17868 0 9.33333 0H184.667C189.821 0 194 4.17868 194 9.33333V46.6667C194 51.8213 189.821 56 184.667 56H9.33333C4.17867 56 0 51.8213 0 46.6667V9.33333Z" fill="#F6F7FB"/>
<path d="M46.3821 32.6731C49.5423 30.6963 51.9381 29.19 52.1446 29.073C52.8052 28.6728 53.4874 27.6135 52.1446 26.7907C51.7111 26.5321 49.3769 25.0727 46.3821 23.1907L42.2305 27.967L46.3821 32.6731Z" fill="#FFD900"/>
<path d="M42.2309 27.9666L29.0117 43.144C29.322 43.1908 29.6723 43.0972 30.0853 42.8386C30.9524 42.2979 40.1443 36.5794 46.3825 32.6738L42.2309 27.9666Z" fill="#F43249"/>
<path d="M42.232 27.9665L46.3835 23.2136C46.3835 23.2136 31.0161 13.6597 30.0864 13.0956C29.736 12.8592 29.3436 12.789 28.9922 12.8592L42.232 27.9665Z" fill="#00EE76"/>
<path d="M42.2311 27.9649L28.9914 12.8577C28.4541 12.9992 28 13.54 28 14.646C28 16.4109 28 39.8945 28 41.3539C28 42.3664 28.3514 43.0955 29.0119 43.1657L42.2311 27.9649Z" fill="#00D3FF"/>
<path d="M65.4924 16.8965C65.468 17.2916 65.422 17.6109 65.3546 17.8545C65.2902 18.098 65.1815 18.3089 65.0283 18.4871V18.5406H68.2453V13.555H65.7084L65.4924 16.8965ZM64.2792 19.2623V20.5321H63.5117V18.5406H64.0034C64.2332 18.4218 64.4017 18.2272 64.509 17.9569C64.6193 17.6836 64.6882 17.3243 64.7158 16.8787L64.9686 12.8333H69.0725V18.5406H69.8998V20.5321H69.1323V19.2623H64.2792ZM71.6809 18.1886C71.9352 18.5005 72.2967 18.6564 72.7655 18.6564C73.2343 18.6564 73.5958 18.5005 73.8501 18.1886C74.1044 17.8737 74.2315 17.4312 74.2315 16.8609C74.2315 16.2906 74.1044 15.8495 73.8501 15.5376C73.5958 15.2228 73.2343 15.0654 72.7655 15.0654C72.2967 15.0654 71.9352 15.2228 71.6809 15.5376C71.4266 15.8495 71.2995 16.2906 71.2995 16.8609C71.2995 17.4312 71.4266 17.8737 71.6809 18.1886ZM74.4338 18.6831C74.0263 19.1257 73.4702 19.347 72.7655 19.347C72.0608 19.347 71.5032 19.1257 71.0926 18.6831C70.6852 18.2376 70.4814 17.6302 70.4814 16.8609C70.4814 16.0887 70.6852 15.4812 71.0926 15.0387C71.5001 14.5961 72.0578 14.3748 72.7655 14.3748C73.4732 14.3748 74.0309 14.5961 74.4384 15.0387C74.8458 15.4812 75.0496 16.0887 75.0496 16.8609C75.0496 17.6302 74.8443 18.2376 74.4338 18.6831ZM80.1995 15.9297H79.3995C79.3326 15.6772 79.1867 15.4708 78.9631 15.3104C78.7425 15.147 78.4622 15.0654 78.1221 15.0654C77.6778 15.0654 77.324 15.2258 77.0605 15.5466C76.8001 15.8673 76.6699 16.2995 76.6699 16.8431C76.6699 17.3956 76.8016 17.8366 77.0651 18.1663C77.3286 18.493 77.6809 18.6564 78.1221 18.6564C78.4561 18.6564 78.7333 18.5836 78.954 18.4381C79.1778 18.2926 79.3263 18.0847 79.3995 17.8144H80.1995C80.1258 18.2688 79.9067 18.6386 79.5423 18.9237C79.1778 19.2059 78.7058 19.347 78.1267 19.347C77.4312 19.347 76.8782 19.1213 76.4676 18.6698C76.0571 18.2153 75.8518 17.6064 75.8518 16.8431C75.8518 16.0946 76.0571 15.4961 76.4676 15.0475C76.8782 14.5991 77.4297 14.3748 78.1221 14.3748C78.7012 14.3748 79.1731 14.5218 79.5376 14.8159C79.9051 15.1099 80.1258 15.4812 80.1995 15.9297ZM84.5312 14.4595V15.101H82.9228V19.2623H82.1321V15.101H80.5237V14.4595H84.5312ZM85.8295 20.9999C85.704 20.9999 85.5864 20.991 85.4761 20.9732V20.3183C85.5555 20.3331 85.6659 20.3406 85.8065 20.3406C86.0366 20.3406 86.2191 20.2812 86.3535 20.1623C86.4915 20.0435 86.6123 19.84 86.7169 19.5519L86.8084 19.2668L84.9751 14.4595H85.8295L87.1901 18.4114H87.2638L88.6192 14.4595H89.4605L87.5258 19.5564C87.314 20.1118 87.0892 20.4906 86.8502 20.6925C86.6113 20.8975 86.2708 20.9999 85.8295 20.9999ZM93.5396 19.2623V15.101H91.1128V19.2623H90.3222V14.4595H94.3297V19.2623H93.5396ZM95.6191 19.2623V14.4595H96.4097V16.4465H98.882V14.4595H99.6726V19.2623H98.882V17.0881H96.4097V19.2623H95.6191ZM101.918 18.1886C102.172 18.5005 102.534 18.6564 103.002 18.6564C103.471 18.6564 103.833 18.5005 104.087 18.1886C104.342 17.8737 104.469 17.4312 104.469 16.8609C104.469 16.2906 104.342 15.8495 104.087 15.5376C103.833 15.2228 103.471 15.0654 103.002 15.0654C102.534 15.0654 102.172 15.2228 101.918 15.5376C101.664 15.8495 101.537 16.2906 101.537 16.8609C101.537 17.4312 101.664 17.8737 101.918 18.1886ZM104.671 18.6831C104.263 19.1257 103.707 19.347 103.002 19.347C102.298 19.347 101.74 19.1257 101.33 18.6831C100.922 18.2376 100.718 17.6302 100.718 16.8609C100.718 16.0887 100.922 15.4812 101.33 15.0387C101.737 14.5961 102.295 14.3748 103.002 14.3748C103.71 14.3748 104.268 14.5961 104.675 15.0387C105.083 15.4812 105.286 16.0887 105.286 16.8609C105.286 17.6302 105.081 18.2376 104.671 18.6831ZM110.706 15.101H109.497V16.4555H110.577C111.199 16.4555 111.51 16.2267 111.51 15.7693C111.51 15.5614 111.442 15.3981 111.307 15.2793C111.176 15.1604 110.975 15.101 110.706 15.101ZM110.646 17.097H109.497V18.6208H110.798C111.101 18.6208 111.33 18.5569 111.487 18.4292C111.646 18.2985 111.726 18.1114 111.726 17.8678C111.726 17.6034 111.635 17.4089 111.454 17.2842C111.277 17.1594 111.007 17.097 110.646 17.097ZM108.707 19.2623V14.4595H110.807C111.269 14.4595 111.632 14.5708 111.896 14.7936C112.159 15.0134 112.291 15.3119 112.291 15.6891C112.291 15.9267 112.213 16.1436 112.057 16.3396C111.904 16.5327 111.712 16.653 111.482 16.7005V16.7718C111.795 16.8134 112.044 16.9366 112.231 17.1416C112.418 17.3435 112.512 17.5901 112.512 17.8812C112.512 18.3029 112.362 18.6386 112.062 18.8881C111.761 19.1376 111.346 19.2623 110.816 19.2623H108.707Z" fill="#212126"/>
<path d="M76.139 33.5993C76.139 35.4083 75.5892 36.8504 74.4895 37.9255C73.3898 38.9942 71.9106 39.5286 70.0521 39.5286C68.0327 39.5286 66.4378 38.8751 65.2674 37.5682C64.0969 36.2549 63.5117 34.4683 63.5117 32.2087C63.5117 29.9811 64.1001 28.2075 65.277 26.8877C66.4539 25.5616 68.0327 24.8984 70.0135 24.8984C71.6213 24.8984 72.9686 25.3233 74.0554 26.1731C75.1422 27.0229 75.7982 28.1592 76.0233 29.582H73.5441C73.2933 28.7901 72.8625 28.1817 72.2515 27.7568C71.647 27.332 70.901 27.1195 70.0135 27.1195C68.798 27.1195 67.8334 27.5734 67.1195 28.4811C66.4121 29.3889 66.0584 30.6249 66.0584 32.1893C66.0584 33.7731 66.4185 35.022 67.1388 35.9362C67.8656 36.8504 68.8495 37.3075 70.0907 37.3075C71.1517 37.3075 72.0135 37.0113 72.6759 36.419C73.3383 35.8268 73.6792 35.051 73.6985 34.0917L73.7081 33.8021H70.3608V31.8514H76.139V33.5993ZM80.8038 36.477C81.2603 37.0821 81.9067 37.3847 82.7427 37.3847C83.5788 37.3847 84.2218 37.0821 84.672 36.477C85.1286 35.8654 85.3569 35.0059 85.3569 33.8986C85.3569 32.7977 85.1286 31.9414 84.672 31.3299C84.2154 30.7183 83.5723 30.4125 82.7427 30.4125C81.9067 30.4125 81.2603 30.7183 80.8038 31.3299C80.3472 31.9414 80.1188 32.7977 80.1188 33.8986C80.1188 35.0059 80.3472 35.8654 80.8038 36.477ZM82.7427 39.3933C81.1607 39.3933 79.9194 38.9073 79.0191 37.9352C78.1187 36.9566 77.6686 35.6111 77.6686 33.8986C77.6686 32.199 78.122 30.8599 79.0288 29.8813C79.9356 28.8963 81.1735 28.4039 82.7427 28.4039C84.3183 28.4039 85.5563 28.8931 86.4566 29.8717C87.363 30.8502 87.8166 32.1925 87.8166 33.8986C87.8166 35.6111 87.363 36.9566 86.4566 37.9352C85.5563 38.9073 84.3183 39.3933 82.7427 39.3933ZM92.2502 36.477C92.7063 37.0821 93.3525 37.3847 94.1888 37.3847C95.0251 37.3847 95.668 37.0821 96.1183 36.477C96.5752 35.8654 96.8032 35.0059 96.8032 33.8986C96.8032 32.7977 96.5752 31.9414 96.1183 31.3299C95.6614 30.7183 95.0186 30.4125 94.1888 30.4125C93.3525 30.4125 92.7063 30.7183 92.2502 31.3299C91.7934 31.9414 91.5653 32.7977 91.5653 33.8986C91.5653 35.0059 91.7934 35.8654 92.2502 36.477ZM94.1888 39.3933C92.6067 39.3933 91.3653 38.9073 90.4656 37.9352C89.565 36.9566 89.1148 35.6111 89.1148 33.8986C89.1148 32.199 89.5683 30.8599 90.4746 29.8813C91.3818 28.8963 92.6198 28.4039 94.1888 28.4039C95.7643 28.4039 97.0024 28.8931 97.903 29.8717C98.8093 30.8502 99.2628 32.1925 99.2628 33.8986C99.2628 35.6111 98.8093 36.9566 97.903 37.9352C97.0024 38.9073 95.7643 39.3933 94.1888 39.3933ZM107.574 36.1873C108.05 35.595 108.288 34.7935 108.288 33.7827C108.288 32.772 108.05 31.9705 107.574 31.3781C107.098 30.7795 106.446 30.4801 105.616 30.4801C104.793 30.4801 104.149 30.7762 103.687 31.3685C103.23 31.9608 103.002 32.7655 103.002 33.7827C103.002 34.7999 103.23 35.6047 103.687 36.1969C104.143 36.7828 104.786 37.0757 105.616 37.0757C106.446 37.0757 107.098 36.7795 107.574 36.1873ZM105.616 43.1982C104.272 43.1982 103.179 42.9246 102.336 42.3773C101.5 41.8301 101.033 41.0994 100.937 40.1853H103.339C103.417 40.5522 103.658 40.8419 104.063 41.0543C104.474 41.2667 105.005 41.373 105.655 41.373C106.471 41.373 107.108 41.1895 107.565 40.8226C108.021 40.4556 108.249 39.9406 108.249 39.2775V37.2785H108.086C107.783 37.845 107.352 38.2796 106.792 38.5822C106.24 38.8783 105.596 39.0264 104.864 39.0264C103.538 39.0264 102.487 38.5532 101.709 37.6068C100.931 36.654 100.542 35.3793 100.542 33.7827C100.542 32.1604 100.934 30.8664 101.718 29.9007C102.503 28.9286 103.565 28.4425 104.902 28.4425C105.623 28.4425 106.275 28.6099 106.86 28.9446C107.445 29.2794 107.883 29.7333 108.172 30.3063H108.336V28.6163H110.642V39.2196C110.642 40.4427 110.188 41.4116 109.282 42.1262C108.375 42.8409 107.153 43.1982 105.616 43.1982ZM113.088 39.1809V24.5315H115.48V39.1809H113.088ZM122.344 30.3063C121.63 30.3063 121.042 30.5412 120.579 31.0112C120.115 31.4811 119.859 32.1025 119.807 32.875H124.775C124.749 32.0895 124.518 31.4651 124.081 31.0015C123.644 30.538 123.064 30.3063 122.344 30.3063ZM124.794 36.2742H127.061C126.836 37.2399 126.306 38.0028 125.469 38.5629C124.64 39.1166 123.608 39.3933 122.373 39.3933C120.823 39.3933 119.604 38.9105 118.717 37.9448C117.836 36.9727 117.396 35.6368 117.396 33.9372C117.396 32.2376 117.839 30.8921 118.727 29.9007C119.614 28.9028 120.823 28.4039 122.354 28.4039C123.858 28.4039 125.036 28.877 125.884 29.8234C126.739 30.7634 127.168 32.067 127.168 33.7344V34.507H119.798V34.6326C119.83 35.5145 120.08 36.213 120.55 36.728C121.026 37.2366 121.656 37.4909 122.441 37.4909C123.649 37.4909 124.434 37.0853 124.794 36.2742ZM133.902 25.246H139.516C140.905 25.246 142.031 25.6806 142.893 26.5498C143.76 27.4189 144.195 28.5552 144.195 29.9586C144.195 31.3364 143.748 32.4565 142.854 33.3192C141.967 34.1819 140.818 34.6132 139.41 34.6132H136.39V39.1809H133.902V25.246ZM136.39 27.332V32.5466H138.851C139.745 32.5466 140.435 32.3213 140.924 31.8707C141.42 31.42 141.667 30.7827 141.667 29.9586C141.667 29.1088 141.423 28.4586 140.934 28.0079C140.452 27.5572 139.76 27.332 138.86 27.332H136.39ZM146.197 39.1809V24.5315H148.589V39.1809H146.197ZM154.634 37.4717C155.354 37.4717 155.955 37.2656 156.437 36.8536C156.919 36.4352 157.161 35.9201 157.161 35.3085V34.4683L154.778 34.6229C153.466 34.7066 152.81 35.1829 152.81 36.0521C152.81 36.4899 152.977 36.8375 153.311 37.0951C153.652 37.3461 154.094 37.4717 154.634 37.4717ZM153.929 39.3547C152.9 39.3547 152.061 39.065 151.412 38.4856C150.762 37.9062 150.437 37.1401 150.437 36.1873C150.437 35.2344 150.781 34.4877 151.469 33.9469C152.164 33.4061 153.154 33.0971 154.44 33.0198L157.161 32.8557V31.9672C157.161 31.4458 156.99 31.0466 156.649 30.7698C156.309 30.4929 155.816 30.3546 155.174 30.3546C154.62 30.3546 154.164 30.4511 153.804 30.6442C153.444 30.831 153.209 31.1013 153.1 31.4554H150.842C150.939 30.5219 151.389 29.7816 152.193 29.2344C153.003 28.6807 154.035 28.4039 155.29 28.4039C156.64 28.4039 157.682 28.7161 158.415 29.3406C159.154 29.965 159.524 30.8406 159.524 31.9672V39.1809H157.218V37.7324H157.054C156.759 38.241 156.334 38.6402 155.781 38.9298C155.234 39.2131 154.617 39.3547 153.929 39.3547ZM162.645 43.0146C162.15 43.0146 161.835 43.0018 161.7 42.9761V41.0157C161.822 41.0415 162.041 41.0543 162.356 41.0543C162.864 41.0543 163.266 40.9481 163.562 40.7356C163.864 40.5232 164.093 40.1755 164.247 39.6927L164.372 39.2292L160.601 28.6163H163.224L165.694 36.8633H165.857L168.318 28.6163H170.845L167.035 39.5189C166.591 40.8258 166.044 41.7336 165.395 42.2421C164.752 42.7571 163.835 43.0146 162.645 43.0146Z" fill="#212126"/>
</svg>
