<svg
        id="Слой_1"
        width="116"
        height="116"
        data-name="Слой 1"
        xmlns="http://www.w3.org/2000/svg"
        viewBox="0 0 1304 1304"
>
    <defs>
        <style>
            .cls-1 {
            fill: #fff;
            }
        </style>
    </defs>
    <rect class="cls-1" width="1304" height="1304" />
    <path d="M1043.22,1134l.15,0-.14-.13S1043.22,1134,1043.22,1134Z" />
    <path d="M765,996.67v-.15l-.12.15Z" />
    <path d="M1132.81,765.65h.14s0-.09,0-.13h-.13Z" />
    <path d="M580.77,1180.76h.13v-.14Z" />
    <path
            d="M954,1133.51c-15,0-30,0-45,0-6,0-6.85-1-6.86-7.09,0-10.33,0-20.66,0-31a8.58,8.58,0,0,1,8.87-8.7c10.82,0,21.65-.14,32.48.06,3.86.07,5.3-1.13,5.2-5.13-.23-10-.07-20-.07-30v-8.33h84.14a9.51,9.51,0,0,0,9.71-9.8V812.68h43c.14,2.12.37,4.06.38,6q0,16,0,32c0,4.43,2.89,8.28,6.2,8.45,13.23.7,26.51.29,40.61.29,0-3.68,0-6.81,0-9.94l.15-83.82c-13.1,0-26.2,0-39.29-.13-7.41-.06-7.66-.36-7.66-7.51,0-10.15-.16-20.31.07-30.45.09-4.13-1.29-5.42-5.44-5.39-26,.16-51.91.08-77.86.08-7,0-7.06,0-7.11-7.26-.07-11.14,0-22.29,0-33.44v-5.89H949q-.16,18.15-.31,36.31c0,1.66,0,3.33-.08,5-.14,3.66-1.38,5.55-5.73,5.41-11-.35-22-.14-33-.11-7.41,0-7.72.34-7.73,7.45q0,14.24,0,28.47c0,5.92,1.23,7.26,7.27,7.32,11.49.1,23,0,34.47,0,1.29,0,2.58.22,4.31.37v46.52H817.8c-1.95,0-3.89.13-5.84.2-.12,17.44-.32,34.88-.34,52.32q-.07,62.46,0,124.93v6.77H765q-.08,21.14-.14,42.26c0,14.63-.15,29.27-.16,43.91,0,2.71-1,3.89-3.84,3.87-11.81-.08-23.63-.12-35.44,0-3.54,0-4-1.73-4-4.66.09-10.65,0-21.3,0-32,0-6.53-.11-6.74-7.23-6.77q-25.21-.12-50.42,0c-11.93,0-23.86.21-35.78.32-.14,12.44-.08,24.89-.53,37.32-.17,4.58,1.61,5.76,5.72,5.72,11.49-.11,23,0,34.47,0,6.66,0,6.92.24,7,7.1.06,9.5,0,19,0,28.48v11.42H627.4v47.06H580.9c0,12.12-.09,24.24-.08,36.36a10,10,0,0,0,10.08,10.07h120c6.06,0,10.51-4.56,10.51-10.77q0-38,0-76v-6.59h43.26v6.29q0,15.49,0,31c0,9.22,0,9.22,9,9.23H811.6v5.95c0,11.16-.07,22.33,0,33.49.06,7.05.45,7.35,7.32,7.36h28c8.27,0,11.55-3.29,11.55-11.59v-35.2c13.35,0,26,.17,38.61-.1,4.2-.1,5.11,1.59,5.07,5.26-.12,10.66-.07,21.33,0,32,0,4.17,4.55,9.61,8,9.62,11.17,0,22.33-.05,33.5.08,2.69,0,4.13-.86,4.25-3.54.27-6.13.6-12.26.69-18.39.12-8.11,0-16.22,0-25H1043a30.9,30.9,0,0,1-.55-4.25q0-18.72,0-37.42a30.48,30.48,0,0,1,.7-4.7c-1.6-.16-3.2-.45-4.8-.45Q996.2,1133.49,954,1133.51Zm41.54-343.94c0-6.65.12-13.31.08-20,0-2.85.93-4.16,4.06-4.12q18.47.21,36.94,0c4.28,0,6,1.79,5.92,6-.08,12.32.06,24.63-.13,36.94,0,1.34-1.58,3.79-2.46,3.8-14.6.24-29.2.17-44.42.17C995.5,804.45,995.49,797,995.51,789.57ZM855.68,1133.39H811.84v-89.75h46.24c.15,1.58.39,2.87.39,4.16q0,40.46,0,80.91C858.46,1130.73,859.18,1133.39,855.68,1133.39Zm3-137.12V859.64H995.34V996.27Z"
    />
    <path
            d="M443.42,817.47c-.09-4,1.31-5.22,5.16-5.08,6.49.24,13,.06,19.49.05h22.07v-137c-13.88,0-27.37-.2-40.84.1-4.74.11-6-1.57-5.87-6,.23-11.5.05-23,.08-34.49,0-6.55.06-6.61,6.62-6.61,26,0,52,0,78,0,3.06,0,6.12-.52,9.43-.82V592.38c0-7.55-3.11-10.59-10.89-10.59q-18.24,0-36.49,0c-13.66,0-27.33,0-41-.08-2.49,0-5.68.59-5.66-3.67,0-12.16-.07-24.33.17-36.49,0-1.06,2-2.66,3.27-3,2-.52,4.29-.2,6.46-.2h36.87v-47H538a16.8,16.8,0,0,1-.42-2.79q0-41.64,0-83.28a18.4,18.4,0,0,1,.55-3.25c-3.09-.32-6.19-.87-9.28-.9-10.82-.11-21.64-.25-32.45.06-4.3.12-5.72-1.8-5.78-5.47-.11-6.16-.06-12.32-.07-18.48V354.91H443.31V491.65H400.94c-.18,11.7-.82,23.42-.31,35.09.21,4.87-2.92,7.38-4.64,10.87-.37.75-2.7.71-4.13.72-10.94,0-21.88,0-32.82,0a45.51,45.51,0,0,0-4.78.48,6.82,6.82,0,0,1-.67-2.19q.06-22.5.22-45c-1.25-.1-2.51-.27-3.76-.27q-64.74,0-129.47,0a35,35,0,0,0-3.58.35v46.76h42.74c0,13.1-.14,25.57.08,38,.07,4.29-1.64,5.38-5.61,5.3-10.16-.21-20.33-.07-30.5-.07-7,0-7.19.12-7.24,7.29-.08,10.84,0,21.67,0,32.5,0,6.39-.21,6.73-6.74,6.8-11.5.12-23,0-34.5.06-1.76,0-3.51.16-5.36.25V812.39c14.65,0,29,0,43.24,0,3.56,0,3.37-2.38,3.36-4.8q0-24.72,0-49.44V675.52h43.36q0-21.16,0-42.33c0-2.53.2-4.66,3.6-4.65,14.13.06,28.26,0,43.08,0,0,4.44-.05,8.56,0,12.69q.24,17.13.52,34.25c28.95,0,57.89-.1,86.83,0,6.31,0,6.6.5,6.61,7q0,14.74,0,29.5a10.06,10.06,0,0,1-10.12,10.31q-38,0-76,0c-2.45,0-4.9.24-7.35.37a22.74,22.74,0,0,0-.47,3.34q0,41,0,81.95c0,1.29.23,2.59.42,4.51,4.82,0,9.44-.05,14.06,0,11.1.16,22.21.38,33.31.57-.23,11.08-.5,22.15-.71,33.22-.08,4.26,0,8.52,0,12.9H443.1c.14-3.06.36-5.87.37-8.68C443.52,839.46,443.65,828.46,443.42,817.47Zm-49.81-5.1c-11.32.18-22.64,0-34,.09-1.77,0-3.54.29-5.31.46a13.93,13.93,0,0,1-.76-3.22c-.05-13,.07-26-.08-39,0-4.08,1.39-5.41,5.52-5.31,11,.27,22,.07,33,.11,4.22,0,8.38,4,8.41,8.29.08,11.16-.07,22.31.07,33.46C400.51,812.42,396.79,812.32,393.61,812.37Zm1.64-184.1c-13.63.16-27.25.06-41.4.06-.12-2.1-.31-3.86-.31-5.61,0-11.5-.08-23,0-34.49,0-4.5-1.53-6.63-6.46-6.53-11.82.26-23.65,0-35.48.13-3.75,0-5.34-1-5.24-5.07.25-11.32.08-22.65.1-34,0-1.29.21-2.58.37-4.42,10.85,0,21.47-.07,32.08,0,5.09,0,10.17.39,15.26.6-.21,6.58-.51,13.15-.63,19.72-.11,6.17.14,12.34-.09,18.49-.12,3.47,1,4.69,4.54,4.64,11-.16,22-.08,33,0a9.49,9.49,0,0,1,9.41,9.33c0,10.32-.2,20.66.11,31C400.63,626.24,398.93,628.23,395.25,628.27Z"
    />
    <path d="M260,675.52h-.14v.14H260v-.14Z" />
    <path
            d="M812.16,722.25h5.93c25.83,0,51.66-.14,77.49.13,4.52,0,6.24-1.89,6.3-5.55q.35-19.25,0-38.48c0-1-2.58-2.78-4-2.8-13.16-.19-26.33-.06-39.5,0H811.91V492a6.38,6.38,0,0,1,1.57-.48q67.66,0,135.34.06V444.44H858.3V307.8H811.6V316q0,61.72,0,123.45c0,3.28-.27,5.2-4.45,5.18-43-.14-86-.08-129-.11a27,27,0,0,1-3.79-.6V354.7H627.79c-.09,2.1-.24,3.88-.25,5.66,0,11,0,22,0,33,0,7.14-.73,7.76-7.6,7.77-10.66,0-21.33-.05-32,0-6.83,0-7.09.35-7.11,7q0,14,0,28c0,8,.39,8.34,8.54,8.4h38.37V538h46.55V491.57h90.07c.11,2.39.3,4.51.3,6.63q0,38,0,76c0,16.33-.11,32.65.08,49,0,4.09-1.14,5.4-5.35,5.37-26.15-.18-52.31-.09-78.46-.09h-6.4v47.08H628.17c-.12,14.08-.3,28.16-.33,42.23,0,3.59,2.29,4.6,5.67,4.57,11.66-.13,23.33-.06,35,0,1.91,0,3.82.27,6.1.45,0,13-.13,25.48.08,37.95.06,3.72-1.1,5-4.81,4.91-11.33-.17-22.66-.07-34,0-8.19,0-8.32.13-8.33,8.3q0,38.73,0,77.48c0,2.58.45,5.17.69,7.76h46.28V812.54c14.77,0,28.58,0,42.4,0,3.36,0,4.58,1.41,4.52,4.85-.18,11.16-.11,22.33,0,33.49,0,2.76.38,5.52.58,8.2h41.77a18.38,18.38,0,0,0,.36-2.3c.19-13,.53-26,.43-39,0-4.21,1.41-5.46,5.42-5.41,13.95.18,27.89.12,41.84.14q-.09-43.92-.16-87.85A15.34,15.34,0,0,1,812.16,722.25ZM764.31,718c0,3.27-1.66,4.41-5,4.34-10.82-.22-21.65-.3-32.46,0-4.14.13-5.32-1.66-5.33-5.15,0-13.64,0-27.28,0-41.35h42.87C764.33,690.11,764.36,704.05,764.31,718Z"
    />
    <path d="M628,675.49h.14v-.11Z" />
    <path d="M811.82,812.54v.12H812v-.11Z" />
    <path
            d="M86.38,401.12H389.8c5.52,0,10.6-4.95,10.6-10.35q0-151.71,0-303.42A10.69,10.69,0,0,0,389.94,76.8H86c-6.13,0-10.06,3.91-10.06,10q0,152,0,303.92A10.06,10.06,0,0,0,86.38,401.12Zm46-273.75q105.44.22,210.88,0c4.37,0,6,.88,6,5.7q-.24,105.69-.12,211.39c0,1.62-.15,3.25-.24,5.13H126.89c-.09-1.89-.23-3.66-.23-5.43q0-105.44-.11-210.88C126.55,128.79,127.67,127.36,132.36,127.37Z"
    />
    <path
            d="M911.6,401.12H1216a10.67,10.67,0,0,0,10.44-10.4q0-76,0-152V88.3c0-7.88-3.65-11.5-11.64-11.5H913.91c-8.42,0-11.77,3.42-11.77,12.06q0,150.21,0,300.42c0,.83,0,1.67,0,2.5C902.31,396.38,907.07,401.12,911.6,401.12Zm47.24-273.74q105.23.2,210.45,0c3.84,0,6,.27,6,5.2q-.24,106.47-.12,213c0,1.15-.11,2.3-.19,4H952.74V343.9q0-105.22-.1-210.45C952.63,128.57,954.12,127.37,958.84,127.38Z"
    />
    <path
            d="M389.87,903H86c-6.16,0-10,3.88-10,10.12q0,51.23,0,102.46,0,100.22,0,200.44c0,7.33,3.81,11.18,11,11.18h302.4a10.68,10.68,0,0,0,11.06-10.78q0-151.46,0-302.91A10.33,10.33,0,0,0,389.87,903ZM348.6,1175.82H126.65V960c0-6.45,0-6.46,6.56-6.46H348.6Z"
    />
    <path d="M948.94,491.67a.66.66,0,0,1,0-.14h-.13v.14Z" />
    <path d="M948.82,675.53v.13H949v-.13Z" />
    <path
            d="M948.25,538.36H921.42c-4.34,0-8.67,0-13,0s-6.58,1.44-6.4,6.47c.38,10.31,0,20.66.18,31,.08,4.49-1.43,6.18-6.09,6-10.82-.28-21.66.07-32.49-.17-3.55-.09-5,1.43-5,4.49-.08,13.81,0,27.61,0,42,2.07.09,3.84.23,5.61.23,10.66,0,21.34.28,32-.11,4.85-.17,6,1.74,5.95,6.05-.18,7.16-.06,14.33,0,21.49,0,6.65-1.31,13.59,5.24,19.7h41.44q-.09-44.09-.18-88.16c0-4.19,1.66-5.74,6-5.67,13.76.22,27.52,0,41.27,0v46.46c1.89.09,3.52.23,5.15.23,26.3,0,52.6-.09,78.9.12,4.59,0,6-1.28,6-5.87-.18-26,0-51.93-.18-77.89,0-4.65,1.11-6.57,6-6.47,12.49.23,25,.07,37.46.09a31.77,31.77,0,0,1,3.43.41v32.5c0,10.49,0,10.49,10.74,10.5h25c11.19,0,11.19,0,11.19,11.5q0,37.22,0,74.43c0,1.88.13,3.76.25,5.64v2.31H1133c-.12,1.48-.29,2.59-.29,3.71q0,41.65,0,83.3a27.46,27.46,0,0,0,.27,2.85c13.45,0,26.91.26,40.34-.12,4.22-.12,5.88,1.08,6.28,4v5.24c-.16,5.78,0,11.56,0,17.34v20.45h27.12c3.76,0,7.52.08,11.28,0h8.65V722.37h-4.8c-.89-.06-1.93-.09-3.19-.1-11.16-.08-22.33-.17-33.49.07-3.77.08-5.54-1-5.51-4.88.12-12,.16-24,.21-36h46.64V658.69c0-15.51,0-31,0-46.51V569.55q.09-8.67,0-17.34v-13.5H1222a33.51,33.51,0,0,0-6.35-.33c-11.78,0-23.55,0-36.08,0v-9q0-38.24,0-76.48c0-8.2-.12-8.34-8.27-8.34q-61.47,0-122.94,0c-1.76,0-3.51.18-5.85.3,0,14.22-.12,27.87.08,41.51.06,3.73-1.17,5-4.8,5-12.33-.09-24.66,0-37,0q-25.92.11-51.84.27c-.1,12.61-.18,25.22-.32,37.83C948.59,532.29,948.39,535.09,948.25,538.36Zm94.24.37V555.9c0,6.66-.3,13.35.11,20,.28,4.57-1.69,5.9-5.72,5.87-13.61-.09-27.22-.12-40.83-.18V538.73Z"
    />
    <path d="M1133,1086.68v-.13h-.13Z" />
    <path d="M538.15,260.29H538v.15l0,0,0,0h.12c0-.05,0-.1,0-.15Zm0,0Z" />
    <path
            d="M537.82,170.68h-47v-47c-12.58-.08-25.16-.18-37.75-.22-9.55,0-9.57,0-9.57,9.52q0,60.42,0,120.85c0,6.46,0,6.72,6.74,6.72,29.26,0,58.52-.16,87.78-.26-.16-7.93-.45-15.86-.44-23.78C537.59,214.57,537.73,192.62,537.82,170.68Z"
    />
    <path d="M537.82,170.68H538v-.12h-.15Z" />
    <path
            d="M542.66,902.93c10.49.16,21,.07,31.47.05,6.48,0,6.67-.17,6.68-6.76q0-38.19,0-76.39c0-2.29-.3-4.58-.47-7H537.2v46.8H443.48v35.62c0,7.25.21,7.58,7.51,7.66,10.83.12,21.65,0,32.48,0,6.25,0,7,.75,7.06,7.26.05,11.16,0,22.31,0,33.47,0,1.76.17,3.53.29,5.58h47.2c-.12-14.09-.3-28.16-.32-42.24C537.72,904.06,539.52,902.88,542.66,902.93Z"
    />
    <path d="M538.19,949.3h-.14v.14h.11s0-.09,0-.14Z" />
    <path d="M123,581.66v-.13h-.14Z" />
    <path
            d="M122.58,545.22l.45,36.31c13.61.07,27.23.07,40.84.27,4.17.06,5.75-1.19,5.72-5.72-.22-26.48-.11-53-.12-79.45,0-1.61-.14-3.21-.23-5.24h-8c-11.17,0-22.33-.17-33.49.09-2.63.06-4.06-.48-4.75-1.87V445h-1.1c0-.15,0-.28,0-.43h-36a13.37,13.37,0,0,0-3.48.43H75.59v96.4h47C122.57,542.7,122.57,544,122.58,545.22Z"
    />
    <path d="M627.82,1043.55v.1H628v-.1Z" />
    <path
            d="M627.81,949.67c-2.1-.06-4.2-.17-6.3-.17q-41.67,0-83.35-.06a37.35,37.35,0,0,0-.57,4.77q-.06,41.68,0,83.37a51.84,51.84,0,0,0,.72,6.28,3.67,3.67,0,0,1,1.3-.45q44.1,0,88.21.14c-.11-17.23-.29-34.47-.3-51.7C627.51,977.79,627.7,963.73,627.81,949.67Z"
    />
    <path
            d="M764.57,222.78c.26,10.32.08,20.65.09,31,0,6.74,0,6.82,7,6.83q28.49.07,57,0c8.32,0,16.65-.15,25-.13,3.81,0,5-1.59,5-5.46-.33-13.48-.38-27-.37-40.46,0-28,.18-56,.27-83.94,0-1.17.24-2.59-.33-3.43-.92-1.37-2.4-3.35-3.67-3.37-14-.24-27.93-.15-42.86-.15v41.43c0,15.16,0,30.32-.06,45.48,0,6.65-.26,6.7-6.68,6.71-11.66,0-23.32.12-35,0C765.8,217.18,764.46,218.66,764.57,222.78Z"
    />
    <path
            d="M628,949.52h86.52c6.19,0,6.82.78,6.85,7.15.06,10.65,0,21.3,0,32v7.89h43.44c-.09-15.67-.22-31.34-.26-47h.3v-47H627.81v6.32a3.42,3.42,0,0,0,0,.45c-.27,9.45-.12,18.91,0,28.37v11.9l.1.08-.1-.08v.15H628Z"
    />
    <path d="M765,996.52h-.12v.15Z" />
    <path d="M538.22,401.93l-.09,0h0s0,.07,0,.11h.1Z" />
    <path
            d="M571.82,401.13c8.41,0,9-.52,9-9q0-61.14,0-122.27c0-1.33-.1-2.65-.13-4-.09-3.76-1.52-5.44-5.74-5.36-12.26.25-24.54,0-36.81-.06-.21,2.11-.55,4.21-.56,6.3,0,27.15-.1,54.29,0,81.43.07,17.92.41,35.84.64,53.76a26.7,26.7,0,0,1,4.65-.77C552.52,401.09,562.17,401.13,571.82,401.13Z"
    />
    <path d="M538.22,1180.92v.08h.1Z" />
    <path
            d="M450,1180.42c-2,0-3.9.27-6.2.44-.11,2.16-.27,3.94-.27,5.73q0,15.24,0,30.47c0,6.33,3.76,10.13,10,10.13q31.73,0,63.44,0c7.25,0,15.08,1.9,20.58-6.67,0-7.31-.08-15.79,0-24.27.07-5.08.42-10.16.64-15.24a41.7,41.7,0,0,0-4.83-.53Q491.68,1180.4,450,1180.42Z"
    />
    <path d="M1043.37,1134l-.09-.14h-.06Z" />
    <path d="M1133,1086.68l-.13-.13v.13Z" />
    <path
            d="M1042.86,1090.36q-.12,21.18-.14,42.35a2.67,2.67,0,0,0,.56,1.15c1.78-.13,3.57-.35,5.36-.35q38.85,0,77.71,0h6.55v-46.81h-89.41A26.26,26.26,0,0,0,1042.86,1090.36Z"
    />
    <path
            d="M761,123.49a5.3,5.3,0,0,0,.59,0h3v-2.57a8.76,8.76,0,0,0,.1-1.32c-.06-7.32,0-14.65,0-22,0-4.82.13-9.66-.08-14.47V76.65h-90v46.8h63.88Z"
    />
    <path d="M538.09,491.52s0-.08,0-.12H538a.59.59,0,0,0,0,.13Z" />
    <path
            d="M537.48,577.78c0,3.61,1.72,4.05,4.62,4,10.66-.08,21.33,0,32,0,6.64,0,6.71,0,6.72-6.67q0-38.72,0-77.43c0-1.95-.29-3.9-.47-6.16H538.09a9.85,9.85,0,0,0-.5,2.27C537.55,521.79,537.6,549.78,537.48,577.78Z"
    />
    <path
            d="M628.39,218c.41-.22.81-.58,1.22-.58q22.6.06,45.2.21V170.82H627.53c0,6.28-.1,12.09,0,17.9C627.76,198.47,628.1,208.22,628.39,218Z"
    />
    <path d="M628.39,218.1V218l-.08,0Z" />
    <path
            d="M627.53,628.42c-13.61,0-26.37,0-39.12,0-6.65,0-7.54.84-7.56,7.42,0,13.24.1,26.47.16,39.71l47-.18q-.25-16.59-.49-33.18C627.49,637.77,627.53,633.34,627.53,628.42Z"
    />
    <path d="M580.87,675.56v.15H581l-.1-.1.1.1v-.15Z" />
    <path d="M628,675.5l.14-.12H628Z" />
    <path d="M306.81,675.67H307v-.16h-.16Z" />
    <path d="M306.83,722.56v.09h.11s0,0,0-.08Z" />
    <path
            d="M260,675.66c-.06,12.78-.17,25.56-.16,38.34,0,3.5,5.13,8.21,8.69,8.25l38.35.31q0-23.44,0-46.89Z"
    />
    <path
            d="M537.55,86.25a9.61,9.61,0,0,0-9.46-9.43c-10.64-.06-21.29.14-31.94-.11-3.61-.08-5.46,1.2-5.45,4.62,0,14.06.19,28.12.31,42.19h46.81Q537.68,104.89,537.55,86.25Z"
    />
    <path d="M491,123.52h-.2v.16h.2Z" />
    <path d="M123,581.66l-.14-.13v.13Z" />
    <path
            d="M76,593.16q0,13.23,0,26.47c0,8.48.3,8.77,9.13,8.78,10.48,0,21-.24,31.45.11,4.78.16,6.24-1.23,6.16-6.08-.22-13.59.09-27.19.19-40.78l-35.82.12C79.2,581.8,76,585.1,76,593.16Z"
    />
    <path d="M581.07,123.59h-.15l.15.15Z" />
    <path
            d="M627.42,81.79c0-.47-.36-.94-.42-1.42-.33-2.52-1.52-3.65-4.27-3.62-11.3.13-22.61,0-33.91.09-3,0-8,5-8,8,0,12.91.14,25.83.22,38.74h46.37C627.44,109,627.45,95.39,627.42,81.79Z"
    />
    <path d="M400.91,491.59l0,.06h.07v-.11h-.07v.11Z" />
    <path d="M354,491.52h-.22v.16l.22,0Z" />
    <path
            d="M400.34,471.24c-.62-9,3.23-18.85-5.32-26.27H354v46.55l46.84,0C400.72,484.77,400.81,478,400.34,471.24Z"
    />
    <path d="M580.9,1180.62h-.13v.13Z" />
    <path
            d="M580.77,1133.91H537.54c0,12.2-.06,24,0,35.77,0,3.74.47,7.48.72,11.23l42.47-.28Z"
    />
    <path d="M538.21,1180.91l.1.1a.34.34,0,0,0,0-.1Z" />
    <path d="M538,123.66v-.13h-.13v.13Z" />
    <path d="M580.92,123.59v.15h.15Z" />
    <path
            d="M580.2,170.56c.23-3.61.57-6.55.59-9.5.1-12.44.1-24.88.13-37.32l-43-.08q0,23.46,0,46.9Z"
    />
    <path d="M674.93,217.7v-.11h-.12v.11Z" />
    <path
            d="M674.74,257.45c0,1,1.76,3,2.73,3,13.29.17,26.59.07,39.89,0,3.27,0,4.11-1.85,4.07-4.86-.11-10.47-.08-21,0-31.42a61.59,61.59,0,0,1,.66-6.19l-47.15-.28C674.82,231,674.65,244.2,674.74,257.45Z"
    />
    <path d="M628.38,218.09l-.07-.08s0,.06,0,.08Z" />
    <path
            d="M583.62,218c-1,0-2.64,3-2.68,4.62-.25,10.64.11,21.31-.24,32-.16,4.84,1.91,6.08,6.14,6,12.15-.08,24.3-.11,36.45,0,3.32,0,4.32-1.26,4.29-4.43-.13-11-.08-22,0-33a36.86,36.86,0,0,1,.72-5.18C613.39,218,598.5,217.81,583.62,218Z"
    />
    <path d="M538.22,1044h.1l0,0,0,0s0-.08,0-.12l-.09,0Z" />
    <path
            d="M490.76,1084.12c0,.88,2.43,2.37,3.79,2.44,5.31.29,10.64.14,16,.13,7.15,0,14.3,0,21.45-.14,3.63-.1,6.12-1.18,5.71-5.94a177.36,177.36,0,0,1-.1-18.45c.11-6.06.42-12.13.65-18.19H490.59C490.59,1057.29,490.51,1070.71,490.76,1084.12Z"
    />
    <path d="M216.81,812.74v46.38h42.42V812.74Z" />
    <path d="M538.23,722H580.5c.12-15.59.24-30.92.36-46.25H538.23Z" />
    <path
            d="M721.43,394c.11,6.47.9,7.13,7.21,7.13h28.45c6.35,0,7.37-.85,7.51-7.48.17-8.32,0-16.64,0-25V354.61H721.39v13.92C721.39,377,721.29,385.51,721.43,394Z"
    />
    <path
            d="M764.26,307.15c0-14.68.07-29.27-.17-43.85,0-.92-2.42-2.54-3.74-2.56-11.49-.21-23,0-34.49-.19-3.37-.05-4.39,1.41-4.38,4.42,0,5-.07,10-.08,15,0,9,0,17.92,0,27.18Z"
    />
    <path d="M722.21,217.83h-.11s0,.09,0,.13h.13Z" />
    <path
            d="M757.41,217.28c7,0,7.12,0,7.19-7.22.13-11.81.06-23.63,0-35.45a31.94,31.94,0,0,0-.45-3.86h-42v47.08a40.12,40.12,0,0,1,4.75-.53C737.11,217.25,747.26,217.28,757.41,217.28Z"
    />
    <path
            d="M1042.53,1220.15c.07,6.77.5,7,7,7H1077c8,0,8.74-.68,8.8-8.67.08-11.15,0-22.3,0-33.44,0-1.44-.3-2.88-.49-4.6h-42.19a11.8,11.8,0,0,0-.62,2.73C1042.49,1195.52,1042.41,1207.84,1042.53,1220.15Z"
    />
    <path d="M1043.15,1180.48l0-.12H1043a.59.59,0,0,1,0,.13Z" />
    <path
            d="M948.63,928c0-6,.1-12,0-18s-1.18-7-6.93-7h-29.5a9.72,9.72,0,0,0-10,9.87c0,9.84,0,19.67,0,29.5,0,5.75,1.16,7,6.94,7.1,11.83.1,23.66,0,35.5.08,3,0,4.17-1,4.09-4C948.52,939.67,948.63,933.83,948.63,928Z"
    />
    <path d="M306.12,170.79H169.83v136.4H306.12Z" />
    <path d="M1132.36,170.69H995.77v136.4h136.59Z" />
    <path d="M169.78,1133.19H306.09V996.83H169.78Z" />
    <path
            d="M1228.41,903h-11.59a11.15,11.15,0,0,0-3.84-.23c-.85.1-1.7.17-2.55.23h-30.8v4.81c-.07,1.19-.07,2.65-.07,4.49v84.44h-92.79a8.5,8.5,0,0,0-.76,2q-.09,18.49-.1,37a3.73,3.73,0,0,0,.58,2.36c3.22,3.2,6.2,5.85,11.71,5.48,11.24-.76,22.56-.23,34.46-.23,0,2.51,0,4.46,0,6.42q.18,18.4.37,36.81c13.62,0,27.24.24,40.85.06,4.23,0,5.69,1.72,5.66,5.54,0,1.5,0,3,0,4.5q0,60.21,0,120.44c0,1,0,1.9.06,2.85v7.26h3.76a9.55,9.55,0,0,0,1.66.09c1.86,0,3.71-.07,5.56-.09h37.8Z"
    />
    <path d="M122.15,859.12V674.6H75.6V859.12h46.55Z" />
</svg>
