<svg width="106" height="35" viewBox="0 0 106 35" fill="none" xmlns="http://www.w3.org/2000/svg">
<g clip-path="url(#clip0_18025_970)">
<path d="M43.3656 26.9703C42.6951 24.8308 41.7055 22.979 40.392 21.4193C39.0831 19.8596 37.7058 18.8753 36.2692 18.4663C41.2585 17.4594 43.7487 14.6367 43.7487 10.0072C43.7487 3.93026 39.0238 1.36377 29.8843 1.36377C28.5753 1.36377 26.8013 1.45816 24.4981 1.58401C21.8757 1.70986 19.6228 1.5076 17.5112 1.5076C16.8727 2.23125 16.5671 2.98637 16.5671 4.2449C17.6526 4.2449 19.3993 3.87183 19.9101 4.24939C20.4209 4.62695 20.4391 5.91694 20.4391 6.76645L20.8405 29.2311C20.8405 30.0807 19.8371 31.4201 19.1348 31.3527C18.51 31.2942 17.6799 31.6988 16.6127 31.2628C16.6127 32.364 16.9776 33.3573 17.7164 34.2383H29.6882C30.3905 33.3888 30.0074 32.782 30.0074 31.6493C29.0177 31.6493 28.3108 31.8471 27.7043 31.4516C27.0977 31.0605 27.499 29.6716 27.499 28.8536V20.2147H30.6641C31.5307 20.4979 32.233 21.253 32.7757 22.4845C33.3184 23.7116 33.8292 25.2578 34.3081 27.1141C34.755 28.7817 35.243 30.1301 35.7721 31.1549C36.3011 32.1797 37.1129 33.0067 38.2166 33.636C39.3203 34.2653 40.8298 34.5799 42.7453 34.5799C44.7885 34.5799 46.1795 34.0765 46.9137 33.0697V30.7054C46.0199 30.5796 45.2902 30.2245 44.7338 29.6447C44.1728 29.0559 43.7167 28.1659 43.3656 26.9703ZM34.1165 15.1806C33.0311 16.3627 31.5307 16.9515 29.6106 16.9515C28.7806 16.9515 28.0782 16.9201 27.5036 16.8571V4.6719C27.9825 4.54604 28.7669 4.48312 29.8523 4.48312C31.8955 4.48312 33.3914 4.97754 34.3355 5.97088C35.2795 6.96421 35.7493 8.46995 35.7493 10.4836C35.7447 12.4343 35.202 14.003 34.1165 15.1806Z" fill="white"/>
<path d="M104.013 20.098C103.019 18.6956 101.847 17.5719 100.488 16.7179C99.1289 15.8684 97.4414 14.956 95.4302 13.9761C94.1213 13.3469 93.0723 12.785 92.2879 12.2996C91.5034 11.8097 90.8604 11.2209 90.345 10.5287C89.8342 9.8365 89.5788 9.01845 89.5788 8.07006C89.5788 6.90593 89.8981 5.96653 90.5366 5.25636C91.1751 4.54619 92.1328 4.1956 93.4098 4.1956C96.7664 4.1956 99.0194 6.49691 100.169 11.095H104.15V10.3849C104.15 8.14647 104.068 6.17328 103.908 4.4563C103.749 2.73931 103.379 1.39538 102.805 0.415527L98.7275 1.64259C97.9933 1.23357 97.0127 0.927927 95.7813 0.721169C94.55 0.518906 93.4098 0.415527 92.3563 0.415527C90.3405 0.415527 88.5208 0.779601 86.8881 1.50325C85.2599 2.22691 83.9738 3.27418 83.0297 4.64507C82.0857 6.01597 81.6159 7.62958 81.6159 9.48591C81.6159 12.0075 82.3821 14.1469 83.9145 15.9134C85.4469 17.6798 87.7181 19.2844 90.7236 20.7317C92.9628 21.8015 94.6777 22.8038 95.8771 23.7297C97.0766 24.6601 97.674 25.8018 97.674 27.1547C97.674 28.0671 97.3548 28.9032 96.7163 29.6583C96.0778 30.4134 95.0881 30.791 93.7427 30.791C91.695 30.791 89.9209 30.0269 88.4204 28.4986C86.9154 26.9704 85.9121 24.8849 85.4013 22.2375H80.608C80.608 24.1927 80.8315 26.4356 81.2784 28.9706C81.7254 31.5056 82.2544 33.3709 82.861 34.571L86.5551 32.9664C89.1091 34.0362 91.6813 34.571 94.2718 34.571C96.543 34.571 98.5268 34.144 100.237 33.2945C101.947 32.445 103.247 31.3034 104.146 29.8695C105.039 28.4357 105.486 26.8401 105.486 25.0737C105.5 23.1634 105.003 21.5003 104.013 20.098Z" fill="white"/>
<path d="M67.195 0.986428C66.4926 1.71008 66.1415 2.70342 66.1415 3.96194C67.3546 3.96194 68.2257 4.14173 68.7547 4.50581C69.2792 4.86988 69.5437 5.47667 69.5437 6.32618V23.2893C69.5437 25.303 69.0876 26.9345 68.1755 28.1796C67.2679 29.4246 65.804 30.0449 63.7927 30.0449C61.7815 30.0449 60.2856 29.3617 59.3096 27.9908C58.3336 26.6199 57.8456 24.7995 57.8456 22.5342V6.32618C57.8456 5.47667 58.0691 4.86988 58.516 4.50581C58.963 4.14623 59.7292 3.96194 60.8192 3.96194C60.8192 2.76634 60.4543 1.77301 59.7155 0.986428H47.7301C46.9958 1.77301 46.6264 2.76634 46.6264 3.96194C47.7118 3.96194 48.478 4.14173 48.925 4.50581C49.3719 4.86988 49.5954 5.47667 49.5954 6.32618V21.5409C49.5954 25.7614 50.7766 28.9886 53.1436 31.227C55.5106 33.4654 58.7669 34.5801 62.9216 34.5801C67.0445 34.5801 70.1503 33.4205 72.2436 31.1057C74.337 28.7909 75.3813 25.4423 75.3813 21.0644V6.32168C75.3813 5.47218 75.6459 4.86539 76.1703 4.50131C76.6994 4.14173 77.5659 3.95745 78.7836 3.95745C78.7836 2.76185 78.4324 1.76851 77.7301 0.981934H67.195V0.986428Z" fill="white"/>
<path d="M4.04819 26.975C4.71861 24.831 5.70827 22.9836 7.02174 21.424C8.33065 19.8643 9.70797 18.8799 11.1446 18.4709C6.15521 17.4641 3.6651 14.6414 3.6651 10.0118C3.6651 3.93493 8.23487 1.36844 17.3744 1.36844C18.6833 1.36844 20.4939 1.35046 22.7971 1.36844C25.4514 1.39091 27.6496 1.27405 29.9664 1.36844C30.6049 2.09209 30.8968 3.27421 30.8968 4.53273C28.7487 4.37092 27.5036 4.67656 27.5036 4.67656L27.5629 28.9167C27.6633 29.7347 27.9324 30.3325 28.4295 30.7101C28.9266 31.0876 29.7156 31.2764 30.801 31.2764C30.801 32.3821 30.4361 33.371 29.6973 34.2519H17.6618C16.9594 33.4024 16.6082 32.4091 16.6082 31.2764C17.5979 31.2764 18.396 31.0831 19.0071 30.6876C19.6137 30.2966 19.9147 29.6898 19.9147 28.8717V20.2149H16.7496C15.8831 20.498 15.1808 21.2532 14.638 22.4802C14.0953 23.7118 13.5845 25.2535 13.1057 27.1143C12.6587 28.7818 12.1707 30.1303 11.6417 31.1551C11.1126 32.1799 10.3009 33.0069 9.19717 33.6362C8.09349 34.2654 6.58392 34.58 4.66844 34.58C2.62527 34.58 1.23427 34.0766 0.5 33.0698V30.7056C1.39389 30.5797 2.12359 30.2246 2.67999 29.6448C3.24095 29.0605 3.69702 28.1706 4.04819 26.975ZM17.8077 16.9562C18.6377 16.9562 19.3401 16.9247 19.9147 16.8618V4.67207C19.4358 4.54622 18.6514 4.48329 17.566 4.48329C15.5228 4.48329 14.0269 4.97771 13.0829 5.97105C12.1388 6.96438 11.669 8.47012 11.669 10.4838C11.669 12.439 12.2118 14.0031 13.2972 15.1853C14.3826 16.3674 15.8877 16.9562 17.8077 16.9562Z" fill="#1E385D"/>
</g>
<defs>
<clipPath id="clip0_18025_970">
<rect width="105" height="34.16" fill="white" transform="translate(0.5 0.419922)"/>
</clipPath>
</defs>
</svg>
