<?xml version="1.0" encoding="utf-8"?>
<!-- Generator: Adobe Illustrator 26.0.2, SVG Export Plug-In . SVG Version: 6.00 Build 0)  -->
<svg version="1.1" id="Layer_1" xmlns="http://www.w3.org/2000/svg" xmlns:xlink="http://www.w3.org/1999/xlink" x="0px" y="0px"
     viewBox="0 0 458.1 156.2" style="enable-background:new 0 0 458.1 156.2;" xml:space="preserve">
<style type="text/css">
	.st0{fill:#FFFFFF;}
	.st1{fill:#0F3D63;}
	.st2{fill:#F178AA;}
</style>
    <path class="st0" d="M451.7,89.9c-4-6.1-9.3-11.4-15.4-15.4c-7.1-4.6-14.5-8.8-22.1-12.6c-4.7-2.3-9.3-4.8-13.7-7.5
	c-3.3-2.1-6.2-4.9-8.5-8.1c-2.3-3.3-3.4-7.2-3.3-11.2c-0.2-4.7,1.3-9.2,4.2-12.9c3.3-3.4,7.9-5.2,12.6-4.8
	c14.6,0,24.5,10.5,29.5,31.5h17.4v-3.3c0-10.2-0.4-19.2-1.1-27.1c-0.3-6.4-2-12.7-4.9-18.4l-17.8,5.6c-4-2.1-8.3-3.5-12.8-4.2
	c-4.9-0.9-9.9-1.3-14.9-1.4c-8.2-0.1-16.4,1.6-23.9,5c-14.4,6.3-23.4,20.7-23,36.4c-0.3,10.7,3.3,21.1,10,29.4
	c6.7,8,16.6,15.4,29.7,22c7.9,3.8,15.5,8.4,22.5,13.7c5,3.7,7.9,9.5,7.9,15.7c-0.1,4.1-1.6,8-4.2,11.2c-3.3,3.7-8.1,5.6-13,5.2
	c-8.9,0-17.3-3.8-23.2-10.5c-6.6-7-10.9-16.5-13.2-28.6h-20.9c0.1,10.3,1,20.6,2.8,30.8c1.2,8.8,3.5,17.5,7,25.7l16.1-7.3
	c10.6,4.8,22.1,7.3,33.7,7.3c9,0.2,17.9-1.8,26-5.8c7-3.5,12.9-8.9,17-15.6c4-6.7,6-14.3,5.9-22.1
	C458.4,104.6,456.1,96.6,451.7,89.9"/>
    <path class="st0" d="M291.1,0c-3.2,3.8-4.9,8.6-4.6,13.6c4-0.3,7.9,0.6,11.4,2.5c2.5,2,3.8,5.1,3.5,8.3v79.9
	c0.4,7.9-1.7,15.7-6,22.4c-4,5.7-10.4,8.5-19.1,8.5s-15.3-3.1-19.4-9.4s-6.4-14.6-6.4-24.9V24.6c-0.3-3.1,0.8-6.1,3-8.3
	c3-1.9,6.6-2.8,10.1-2.5c0.2-5-1.6-9.9-4.9-13.6h-52.4c-3.3,3.8-4.9,8.7-4.7,13.7c3.5-0.3,7.1,0.6,10.1,2.5c2.2,2.2,3.3,5.2,3,8.3
	v71.8c0,19.3,5.2,34,15.5,44.3s24.5,15.4,42.5,15.4s31.6-5.3,40.7-15.9s13.7-25.9,13.7-45.9V24.5c-0.3-3.2,1-6.3,3.4-8.3
	c3.5-1.9,7.4-2.8,11.4-2.5c0.2-4.9-1.5-9.8-4.6-13.6L291.1,0L291.1,0z"/>
    <path class="st0" d="M187.1,120.3c-2.6-9.5-7-18.3-13-26.1c-5.7-7.3-11.7-11.9-18-13.8c21.8-4.7,32.7-18,32.7-39.7
	c0-28.5-20.7-40.6-60.6-40.6c-5.7,0-13.4,0.5-23.5,1.1C93.3,1.7,83.5,0.8,74.3,0.8c-3,3.6-4.5,8.2-4.1,12.9c4.7,0,12.4-1.8,14.6,0
	s2.3,7.9,2.3,11.8l1.8,108c0,3.9-4.7,7.9-7.5,8.9c-3.5,1.5-7.4,1.5-10.9,0c-0.1,4.9,1.6,9.8,4.7,13.6h52.4c3.1-4,1.4-6.9,1.4-12.2
	c-4.3,0-7.4,1-10.1-0.9s-0.9-7.3-0.9-11.1V88.6h13.8c3.8,1.3,6.9,4.9,9.2,10.6c2.8,7,5,14.2,6.7,21.6c1.5,6.5,3.7,12.9,6.4,19
	c2.3,4.9,6,8.9,10.7,11.6c6.1,3.3,12.9,4.9,19.8,4.6c8.9,0,15-2.4,18.2-7.1v-11.2c-3.7-0.5-7-2.3-9.5-5
	C190.2,129.2,188.1,124.9,187.1,120.3 M146.8,64.9c-5,5.6-12.2,8.7-19.7,8.3c-3.4,0-6.7-0.2-10.1-0.6V15.4c3.3-0.7,6.7-0.9,10.1-0.8
	c9,0,16.5,2.5,20.7,7.1s6.2,11.7,6.2,21.2C154.3,50.9,151.7,58.7,146.8,64.9z"/>
    <path class="st1" d="M15.5,120.3c2.6-9.5,7-18.3,13-26.1c5.7-7.3,11.7-11.9,18-13.8c-21.8-4.7-32.7-18-32.7-39.7
	C13.9,12.2,33.8,0,73.7,0h54.9c2.9,4.4,4.4,9.7,4.1,15c-4.9-0.7-9.9-0.4-14.8,0.6l0.3,116.4c0.1,2.9,1.5,5.6,3.8,7.4
	c3,2,6.7,3,10.3,2.7c0.1,5.1-1.7,10.1-4.9,14H74.9c-3.1-4-4.7-8.9-4.6-14c3.7,0.2,7.4-0.8,10.5-2.8c2.7-1.5,4.2-4.4,3.9-7.5V88.6H71
	c-3.8,1.3-6.9,4.9-9.2,10.6c-2.8,7-5,14.2-6.7,21.6c-1.5,6.5-3.6,12.9-6.4,19c-2.3,4.9-6,9-10.7,11.7c-6.1,3.3-12.9,4.9-19.8,4.6
	c-8.9,0-15-2.5-18.2-7.2v-11.1c3.7-0.4,7.1-2.2,9.5-5C12.5,129.2,14.5,124.9,15.5,120.3 M75.6,73.3c3.1,0,6.1-0.1,9.2-0.4V15.7
	c-3.4-0.7-6.8-1-10.3-0.9c-8.9,0-15.4,2.3-19.6,7S48.7,33.5,48.7,43c-0.4,8,2.1,15.8,7.1,22.1C60.8,70.7,68.1,73.7,75.6,73.3"/>
    <path class="st2" d="M132.1,89.9c2.2,2,4.2,4.3,5.8,6.8c6,9.7,0.5,16.8-7.5,19.2c-1.6,0.4-2.9,1.4-3.8,2.8c-2.7,4-6.4,6.6-11.5,6.4
	c-4.3-0.2-7.1-2.9-9.6-5.9c-1.6-2-2.9-4.2-4.1-6.5c-0.8,0.2-0.9,0.9-1.2,1.5c-1.3,2.5-2.9,4.7-4.8,6.7c-6.5,6.8-14,4.9-18.9-1.3
	c-1.4-1.9-3.3-3.4-5.6-4.1c-4.3-1.4-7.6-4.1-8.7-8.8c-0.8-3.4,0.3-6.4,1.9-9.4c1.6-2.8,3.7-5.3,6.1-7.4c-1.5-0.8-3-0.6-4.4-1
	c-2.8-0.6-5.4-1.8-7.8-3.3c-4.4-3-6-7.3-4.6-12.4c0.4-1.9,1.3-3.7,2.5-5.2c1.6-1.7,1.9-3.5,1.8-5.8c-0.3-3.8,1.2-7.4,4-10
	c3.2-3.1,7.2-3.2,11.3-2.3c2.4,0.5,4.7,1.3,6.9,2.4c0.6,0.3,1.2,1.1,1.8,0.5c0.4-0.4,0.1-1.2-0.1-1.8c-0.6-3.4-0.5-6.9,0.3-10.3
	c1.4-6.1,7.5-9.8,13.5-8.4c0.3,0.1,0.5,0.1,0.8,0.2c3.2,0.8,6.4,0.8,9.6,0c8.3-1.7,13.8,2.3,14.8,10.9c0.3,2.7,0.2,5.4-0.3,8
	c-0.1,0.4-0.2,1,0.1,1.3c0.4,0.5,0.9-0.1,1.3-0.3c2.9-1.5,6-2.6,9.3-3c8.9-1.1,12.9,5,13.3,10.9c0.1,3.2,1.1,6.2,2.8,8.9
	c4.5,6.9,2.3,13.8-5.2,17.5c-1.5,0.8-3.1,1.4-4.8,1.8C135.5,89.3,133.8,89.8,132.1,89.9z M102.8,67.9c0.2-0.2,0.4-0.5,0.6-0.7
	c1.2-1.2,1.3-3.1,0.1-4.4c-0.9-0.9-2.2-1.2-3.4-0.7c-1.6,0.6-2,1.9-1.9,3.5c0.1,1.1,1.1,1.5,1.5,2.3v7.9c0,2.2,1.6,0.5,2.3,0.9
	c0.9,0.5,0.8-0.4,0.8-0.9V67.9z M112.2,74.8c-2.6,0.8-5.2,1.6-7.9,2.4c-0.4,0.1-0.9,0.4-0.4,0.9c0.7,0.6,0,2.5,1.1,2.2
	c2.7-0.8,5.6-1.2,8-2.8c2.1,1.5,3.7,1.4,5-0.4c1-1.5,0.6-3.2-1-4.4C115.3,71.3,113.6,72.1,112.2,74.8L112.2,74.8z M89.5,77.4
	c2.4,1.7,5.3,2.1,8,2.8c1.1,0.3,0.4-1.5,1.1-2.2c0.5-0.5,0-0.8-0.4-0.9c-2.6-0.8-5.2-1.6-7.9-2.4c-1.4-2.7-3.1-3.4-4.8-2.2
	s-2,2.9-1,4.4C85.8,78.8,87.4,78.9,89.5,77.4z M106.9,90.4v1.3c-0.1,1.7,1.1,3.2,2.8,3.3c0,0,0.1,0,0.1,0c1.6,0.1,3.1-1.1,3.3-2.7
	c0.4-1.9-1.1-3.5-3.6-3.7c-1.1-1.5-2.1-3.1-3.2-4.6c-1.8-2.5-1.8-2.5-4.5-0.8C103.5,85.7,105.2,88,106.9,90.4z M95.6,90.4l5.1-7.2
	c-0.6-0.3-1.1-0.7-1.6-1.1c-0.7-0.8-1.1-0.6-1.7,0.2c-1.4,2.1-3,4.2-4.4,6.3c-0.5,0.1-1,0.1-1.5,0.2c-1.3,0.4-2.2,1.6-2.2,2.9
	c0,1.3,0.8,2.4,1.9,3c1.3,0.7,2.5,0.1,3.5-0.7C95.9,93.2,95.6,91.7,95.6,90.4z"/>
    <path class="st0" d="M95.6,90.4c0,1.3,0.3,2.7-0.9,3.7c-0.9,0.9-2.3,1.2-3.5,0.7c-1.6-0.7-2.3-2.5-1.7-4.1c0.4-0.8,1.1-1.5,2-1.8
	c0.5-0.2,1-0.2,1.5-0.2C94,89,94.9,89.6,95.6,90.4z"/>
    <path class="st0" d="M109.5,88.6c2.5,0.3,4,1.8,3.6,3.7c-0.3,1.6-1.7,2.7-3.3,2.7c-1.7-0.1-3-1.6-2.9-3.3v-1.3
	C107.6,89.6,108.5,89,109.5,88.6z"/>
    <path class="st0" d="M89.5,77.4c-2.1,1.5-3.7,1.4-5-0.4c-1-1.5-0.6-3.2,1-4.4s3.4-0.5,4.8,2.2C90.4,75.7,90.1,76.7,89.5,77.4z"/>
    <path class="st0" d="M112.2,74.8c1.4-2.7,3.1-3.4,4.8-2.2s2,2.9,1,4.4c-1.3,1.8-2.9,1.9-5,0.4C112.4,76.7,112.1,75.7,112.2,74.8z"/>
    <path class="st0" d="M99.8,67.9c-0.4-0.8-1.4-1.2-1.5-2.3c-0.4-1.7,0.7-3.3,2.4-3.7c1.7-0.4,3.3,0.7,3.7,2.4
	c0.2,1.1-0.1,2.2-0.9,2.9c-0.2,0.2-0.4,0.5-0.6,0.7C101.9,68.2,100.8,68.2,99.8,67.9z"/>
    <path class="st1" d="M89.5,77.4c0.6-0.7,0.9-1.7,0.8-2.6c2.6,0.8,5.2,1.6,7.9,2.4c0.4,0.1,0.9,0.4,0.4,0.9c-0.7,0.6,0,2.5-1.1,2.2
	C94.8,79.4,91.9,79,89.5,77.4z"/>
    <path class="st1" d="M112.2,74.8c0,0.9,0.2,1.9,0.8,2.6c-2.4,1.7-5.3,2.1-8,2.8c-1.1,0.3-0.4-1.5-1.1-2.2c-0.5-0.5,0-0.8,0.4-0.9
	C106.9,76.3,109.6,75.5,112.2,74.8z"/>
    <path class="st1" d="M95.6,90.4c-0.8-0.7-1.5-1.6-2.6-1.8c1.5-2.1,3-4.2,4.4-6.3c0.6-0.8,1-1,1.7-0.2c0.5,0.4,1,0.8,1.6,1.1
	C99,85.7,97.3,88,95.6,90.4z"/>
    <path class="st1" d="M109.5,88.6c-1.1,0.2-1.8,1.1-2.6,1.8l-5.1-7.2c2.7-1.7,2.7-1.7,4.5,0.8C107.4,85.6,108.4,87.1,109.5,88.6z"/>
    <path class="st1" d="M99.8,67.9c1,0.3,2,0.3,3,0v7.9c0,0.5,0.1,1.5-0.8,0.9s-2.3,1.2-2.3-0.9C99.7,73.2,99.7,70.5,99.8,67.9z"/>
</svg>
