<?xml version="1.0" encoding="utf-8"?>
<!-- Generator: Adobe Illustrator 25.4.1, SVG Export Plug-In . SVG Version: 6.00 Build 0)  -->
<svg version="1.1" id="Layer_1" xmlns="http://www.w3.org/2000/svg" xmlns:xlink="http://www.w3.org/1999/xlink" x="0px" y="0px"
	 viewBox="0 0 497.3 158.6" style="enable-background:new 0 0 497.3 158.6;" xml:space="preserve">
<style type="text/css">
	.st0{fill:#FFFFFF;}
	.st1{fill:#0F3C62;}
	.st2{fill:#241F20;}
</style>
<g>
	<path class="st0" d="M474.2,91.8c-4-6.1-9.3-11.4-15.4-15.4c-7.1-4.6-14.5-8.8-22.1-12.6c-4.7-2.3-9.3-4.8-13.7-7.5
		c-3.3-2.1-6.2-4.9-8.5-8.1c-2.3-3.3-3.4-7.2-3.3-11.2c-0.2-4.7,1.3-9.2,4.2-12.9c3.2-3.4,7.9-5.2,12.6-4.8
		c14.6,0,24.5,10.5,29.5,31.5h17.4v-3.3c0-10.2-0.4-19.2-1.1-27.1c-0.3-6.4-2-12.6-4.9-18.4l-17.8,5.6c-4-2.1-8.4-3.5-12.8-4.2
		c-4.9-0.9-9.9-1.3-14.9-1.4c-8.2-0.1-16.4,1.6-23.9,5c-6.8,3.1-12.7,8.1-16.8,14.3c-4.2,6.6-6.3,14.3-6.2,22.1
		c-0.3,10.7,3.3,21.1,10,29.4c6.7,8,16.6,15.4,29.7,22c7.9,3.8,15.5,8.4,22.5,13.7c5,3.7,7.9,9.5,7.9,15.7c-0.1,4.1-1.6,8-4.2,11.2
		c-3.3,3.7-8.1,5.6-13,5.2c-8.9,0-17.3-3.8-23.2-10.5c-6.6-7-10.9-16.5-13.2-28.6h-20.9c0.1,10.3,1,20.7,2.8,30.8
		c1.2,8.8,3.5,17.5,7,25.7l16.1-7.3c10.6,4.8,22.1,7.3,33.7,7.3c9,0.2,18-1.8,26-5.8c7-3.5,13-8.9,17-15.6c4-6.7,6-14.3,5.9-22.1
		C480.9,106.4,478.6,98.5,474.2,91.8"/>
	<path class="st0" d="M313.6,1.9c-3.2,3.8-4.9,8.7-4.6,13.6c4-0.3,7.9,0.6,11.4,2.5c2.5,2,3.8,5.2,3.5,8.3v79.9
		c0.4,7.9-1.7,15.7-6,22.4c-4,5.7-10.4,8.5-19.1,8.5c-8.8,0-15.3-3.1-19.4-9.4c-4.1-6.3-6.4-14.6-6.4-24.9V26.5
		c-0.3-3.1,0.8-6.1,3-8.3c3-1.9,6.5-2.8,10.1-2.5c0.2-5-1.6-9.9-4.9-13.6h-52.4c-3.3,3.8-4.9,8.7-4.7,13.7c3.5-0.3,7.1,0.6,10.1,2.5
		c2.2,2.2,3.2,5.2,3,8.3v71.8c0,19.3,5.2,34,15.5,44.3c10.3,10.2,24.5,15.4,42.5,15.4c18,0,31.6-5.3,40.7-15.9
		c9.1-10.6,13.7-25.9,13.7-45.9V26.4c-0.3-3.2,1-6.3,3.4-8.3c3.5-1.9,7.4-2.8,11.4-2.5c0.2-4.9-1.5-9.8-4.6-13.6H313.6z"/>
	<path class="st0" d="M209.6,122.2c-2.6-9.4-7-18.3-13-26.1c-5.7-7.3-11.7-11.9-18-13.8c21.8-4.7,32.7-18,32.7-39.7
		c0-28.5-20.7-40.6-60.6-40.6c-5.7,0-13.4,0.5-23.5,1.1C115.8,3.6,106,2.7,96.8,2.7c-3,3.6-4.5,8.2-4.1,12.9c4.7,0,12.4-1.8,14.6,0
		c2.2,1.8,2.3,7.9,2.3,11.8l1.8,108c0,3.9-4.7,7.9-7.5,8.9c-3.5,1.5-7.4,1.5-10.9,0c-0.1,4.9,1.6,9.7,4.7,13.6h52.4
		c3.1-4,1.4-6.9,1.4-12.2c-4.3,0-7.4,1-10.1-0.9c-2.7-1.9-0.9-7.3-0.9-11.1V90.5h13.8c3.8,1.3,6.9,4.9,9.2,10.6
		c2.8,7,5,14.3,6.7,21.6c1.5,6.5,3.7,12.9,6.4,19c2.3,4.8,6,8.9,10.7,11.6c6,3.3,12.9,4.9,19.8,4.6c8.9,0,15-2.4,18.2-7.1v-11.2
		c-3.7-0.5-7.1-2.3-9.5-5C212.7,131,210.6,126.8,209.6,122.2 M169.3,66.8c-4.9,5.6-12.2,8.7-19.7,8.3c-3.4,0-6.7-0.2-10.1-0.6V17.3
		c3.3-0.7,6.7-0.9,10.1-0.8c9,0,16.5,2.5,20.7,7.1c4.1,4.6,6.2,11.7,6.2,21.2C176.8,52.8,174.2,60.6,169.3,66.8L169.3,66.8z"/>
	<path class="st1" d="M38,122.2c2.6-9.4,7-18.3,13-26.1c5.7-7.3,11.7-11.9,18-13.8c-21.8-4.7-32.7-18-32.7-39.7
		c0.1-28.5,20-40.7,59.9-40.7h54.9c2.9,4.4,4.4,9.7,4.1,15c-4.9-0.7-10-0.4-14.8,0.6l0.3,116.4c0.1,2.9,1.5,5.6,3.8,7.4
		c3,2,6.7,3,10.3,2.7c0.1,5.1-1.7,10.1-4.9,14H97.4c-3.1-4-4.7-8.9-4.6-14c3.7,0.2,7.4-0.8,10.5-2.8c2.7-1.5,4.2-4.5,3.9-7.5V90.5
		H93.5c-3.8,1.3-6.9,4.9-9.2,10.6c-2.8,7-5,14.3-6.7,21.6c-1.5,6.5-3.6,12.9-6.4,19c-2.3,4.9-6,8.9-10.7,11.7
		c-6,3.3-12.9,4.9-19.8,4.6c-8.9,0-15-2.5-18.2-7.2v-11.1c3.7-0.5,7.1-2.2,9.5-5C35,131.1,37,126.8,38,122.2 M98.1,75.2
		c3.1,0,6.1-0.1,9.2-0.4V17.6c-3.4-0.7-6.8-1-10.3-0.9c-8.9,0-15.4,2.3-19.6,7c-4.1,4.7-6.2,11.7-6.2,21.2c-0.4,8,2.1,15.8,7.1,22.1
		C83.3,72.5,90.6,75.6,98.1,75.2"/>
	<g>
		<path class="st0" d="M114.1,1.3c0.6-0.6,1.6-1,2.4-0.6c0.4,0.2,0.7,0.6,1,0.9c0.3,0.3,0.5,0.7,0.6,1.1c0.4,1,0.6,2.2,0.9,3.3
			c0.2,1.1,0.4,2.2,0.6,3.4c0.6,4.5,0.5,9,0.1,13.4c-0.4,4.2-1.1,8.3-2.1,12.4c-1,4-2.2,8-3.4,12c-1.2,3.8-2.5,7.6-3.7,11.3
			c-0.1,0.4-0.3,0.8-0.4,1.3c-0.1,0.4,0.5,0.5,0.6,0.2c1.2-3.9,2.5-7.7,3.8-11.6c1.3-4.1,2.6-8.2,3.6-12.4c1.1-4.2,1.8-8.4,2.3-12.7
			c0.5-4.6,0.6-9.2,0-13.8c-0.2-1.2-0.4-2.3-0.6-3.5c-0.2-1.1-0.5-2.3-0.9-3.4c-0.3-0.8-0.8-1.5-1.5-2.1c-0.7-0.6-1.6-0.6-2.4-0.3
			c-0.4,0.2-0.8,0.4-1.1,0.7C113.4,1.2,113.9,1.6,114.1,1.3L114.1,1.3z"/>
		<path class="st0" d="M109.1,1.1c0.1,7.8-0.9,15.6-2.5,23.3c-0.8,3.8-1.8,7.7-2.7,11.5c-1,3.8-2,7.6-3,11.4
			c-1.2,4.2-2.4,8.4-3.8,12.6c-0.1,0.4,0.5,0.5,0.6,0.2c2.5-7.5,4.6-15,6.5-22.7c1.9-7.6,3.8-15.1,4.8-22.9
			c0.6-4.4,0.8-8.8,0.8-13.3C109.7,0.7,109.1,0.7,109.1,1.1L109.1,1.1z"/>
		<path class="st0" d="M102.3,0.8c-1,4.5-2.3,8.9-3.9,13.1c-1.6,4.3-3.4,8.4-5.5,12.5c-1.9,3.7-3.9,7.3-6.1,10.8
			c-2.1,3.5-4.4,6.9-7,10.1c-2.5,3.1-5.3,5.9-8.6,8.2c-0.4,0.3-0.8,0.5-1.2,0.8c-0.3,0.2,0,0.7,0.3,0.5c3.3-2.1,6.3-4.9,8.9-7.9
			c2.7-3.1,5.1-6.5,7.3-10c2.2-3.5,4.3-7.1,6.2-10.7c2.1-4,4.1-8.2,5.7-12.4c1.7-4.3,3.1-8.7,4.1-13.1c0.1-0.6,0.3-1.1,0.4-1.7
			C103,0.6,102.4,0.5,102.3,0.8L102.3,0.8z"/>
		<path class="st0" d="M100,0.9c-2.6,3.3-4.8,6.8-6.9,10.3c-2.3,3.7-4.5,7.4-6.9,11.1c-2.4,3.8-4.8,7.5-7.4,11.1
			c-2.5,3.4-5.1,6.7-7.9,10c-2.6,3-5.4,6-8.7,8.3c-0.4,0.3-0.8,0.5-1.2,0.8c-0.3,0.2,0,0.7,0.3,0.5c3.5-2,6.4-4.9,9-7.9
			c2.8-3.1,5.4-6.4,7.9-9.7c2.7-3.6,5.1-7.3,7.5-11.1c2.4-3.7,4.7-7.4,7-11.2c2.1-3.5,4.3-7.1,6.8-10.4c0.3-0.5,0.7-0.9,1-1.4
			C100.7,1,100.3,0.6,100,0.9L100,0.9z"/>
		<g>
			<g>
				<path class="st0" d="M61.1,52.6c5.1,0.3,10.1,3,13.2,7c3.1,4,4.3,9.3,4.7,14.2c0.7,9.6-0.6,19.7-1.7,29.3
					c-1,9.3-2.8,18.7-6.9,27.2c-2,4.3-4.3,8.8-7.9,12c-3.7,3.2-8.3,5.4-13.1,6.6c-7.7,2-19.1,3.6-25.8-1.6
					c-3.8-2.9-5.8-7.7-6.5-12.4c-0.9-5.6,0.5-10.5,3.1-15.5c3.1-6.1,7-11.6,10.3-17.6c5.8-10.6,8.6-23,11-34.8
					c0.4-1.9,0.8-3.9,1.8-5.6c0.9-1.5,2.3-2.7,3.8-3.7c5.9-3.8,5.5-5.1,12.6-5.1"/>
				<path class="st2" d="M61.1,52.9c3.9,0.3,7.8,1.9,10.7,4.5c3.1,2.8,5,6.5,6,10.5c1.1,4.3,1.1,8.8,1.1,13.2
					c-0.1,4.8-0.5,9.7-1,14.5c-1,9.2-1.9,18.4-4.8,27.3c-1.4,4.2-3.1,8.2-5.2,12c-1,1.8-2.1,3.6-3.5,5.2c-1.4,1.6-3,3-4.7,4.1
					c-3.5,2.3-7.3,3.8-11.4,4.8c-3.4,0.8-7,1.4-10.5,1.6c-3.6,0.1-7.3-0.2-10.6-1.5c-3.5-1.4-6.2-4.2-7.8-7.6c-1.8-3.7-2.6-8-2.1-12
					c0.5-4.5,2.4-8.5,4.5-12.4c2.3-4,4.8-7.9,7.2-11.9c2.3-3.8,4.2-7.8,5.8-11.9c3.2-8.3,5.1-16.9,6.9-25.6c0.5-2.2,0.8-4.5,2.1-6.3
					c1.2-1.8,2.9-2.9,4.6-4c2.1-1.4,4.1-3.4,6.6-4c1.5-0.4,3.1-0.4,4.7-0.4c0.4,0,0.4-0.6,0-0.6c-1.6,0-3.3,0-4.9,0.4
					c-1.1,0.3-2.1,0.8-3.1,1.4c-1.3,0.9-2.5,1.8-3.7,2.6c-1.7,1.1-3.4,2.2-4.6,3.9c-1.3,1.8-1.8,4.1-2.2,6.2
					c-0.5,2.2-0.9,4.5-1.4,6.7c-1,4.4-2.1,8.9-3.4,13.2c-1.4,4.4-3,8.7-5.1,12.8c-2.1,4.2-4.7,8.2-7.2,12.3c-2.4,3.9-4.9,8-6.3,12.4
					c-1.4,4.1-1.6,8.4-0.6,12.7c0.9,3.7,2.6,7.4,5.5,10c2.7,2.4,6.2,3.5,9.7,4c3.7,0.5,7.4,0.2,11.1-0.4c3.8-0.6,7.6-1.5,11.2-3
					c3.9-1.6,7.6-4,10.3-7.2c2.7-3.3,4.6-7.2,6.3-11.1c3.8-8.6,5.4-17.8,6.4-27.1c1.1-9.7,2.4-19.6,1.5-29.3
					c-0.4-4.1-1.4-8.3-3.6-11.8c-2.1-3.4-5.3-5.9-8.9-7.4c-1.8-0.7-3.7-1.2-5.6-1.3C60.7,52.3,60.7,52.9,61.1,52.9L61.1,52.9z"/>
			</g>
			<g>
				<path class="st0" d="M85.8,67.3c4.3-5,10.3-8.9,16.8-9.6c12.7-1.3,18.9,9.5,20.2,20.7c0.9,7.4,1.1,14.9,0.9,22.3
					c-0.4,12.9-2.6,25.6-5.9,38c-1.3,4.8-2.8,9.8-6,13.8c-3.2,3.9-8.4,5.4-13.2,5.8c-6,0.6-11.8,1-17.8-0.4
					c-6.5-1.6-13.9-5.8-16.4-12.4c-2.4-6.4,1.1-13.7,2.7-19.9c3.4-12.7,4.8-14.9,7.5-27.8c0.7-3.1,3-13.4,4.1-16.4
					C80.7,76.6,81.9,72.9,85.8,67.3"/>
				<path class="st2" d="M86,67.5c5.4-6.3,14.1-11.2,22.6-9.2c7,1.7,11.1,8.1,12.9,14.7c1.2,4.3,1.5,8.9,1.7,13.3
					c0.3,5.3,0.4,10.7,0.1,16c-0.5,10.6-2.1,21.2-4.6,31.5c-1.1,4.7-2.3,9.5-4.4,13.8c-1,2-2.2,4-3.8,5.6c-1.5,1.5-3.4,2.5-5.4,3.2
					c-2,0.7-4.1,1.1-6.1,1.3c-2.6,0.3-5.2,0.5-7.8,0.6c-4.8,0.2-9.7-0.3-14.2-2.1c-3.7-1.5-7.3-3.7-9.8-6.8
					c-1.3-1.5-2.3-3.3-2.8-5.3c-0.6-2.3-0.6-4.7-0.2-7c0.4-2.3,1.1-4.6,1.8-6.8c0.7-2.3,1.4-4.6,2-6.9c1-3.7,2.1-7.4,3.2-11.1
					c1-3.5,2-6.9,2.8-10.5c0.8-3.3,1.4-6.5,2.2-9.8c0.7-3.2,1.4-6.3,2.4-9.4c0.4-1.4,1-2.8,1.5-4.2c0.7-1.8,1.5-3.6,2.3-5.4
					C83.6,71.3,84.8,69.3,86,67.5c0.3-0.4-0.3-0.7-0.5-0.4c-1.3,2-2.6,4-3.6,6.2c-0.9,1.8-1.6,3.6-2.3,5.4c-0.5,1.4-1.1,2.8-1.6,4.3
					c-0.5,1.5-0.9,3.1-1.2,4.6c-1.7,7-3.1,14.1-5,21.1c-0.9,3.4-2,6.7-3,10c-0.7,2.3-1.3,4.6-1.9,6.9c-0.6,2.3-1.4,4.6-2.1,6.9
					c-1.3,4.4-2.2,9.2-0.4,13.6c1.6,3.7,4.6,6.5,8,8.6c3.7,2.2,7.8,3.6,12.1,4.1c2.7,0.3,5.4,0.3,8.1,0.2c2.5-0.1,5.1-0.3,7.6-0.6
					c4.1-0.6,8.4-1.9,11.3-5c3.2-3.4,4.8-8.1,6.1-12.5c3-10.3,5-20.8,6-31.5c0.5-5.4,0.7-10.9,0.6-16.3c-0.1-5.3-0.4-10.6-1.1-15.8
					c-1-6.8-3.9-14.1-10.1-17.8c-7.3-4.3-16.4-1.7-22.7,3.1c-1.7,1.3-3.3,2.8-4.7,4.5C85.3,67.4,85.8,67.8,86,67.5L86,67.5z"/>
			</g>
			<g>
				<path class="st0" d="M77.5,125.1c8.3,1.5,18.5,7.5,26.9,3.2c3.7-1.9,6-5.7,7.5-9.5c2.6-6.4,3.7-13.3,4.8-20.1
					c1.1-7,2.2-14.1,1.4-21.1c-0.4-3.7-1.4-7.5-3.7-10.4c-4.4-5.7-13.1-7-19.8-4.3c-6.7,2.8-10.5,5.5-13.1,12.2
					c-2.4,6.4-3.5,17.2-4.5,24.4c-0.8,5.7-3,11.6-3.8,17.3C72.8,120.3,73.6,124.1,77.5,125.1"/>
				<path class="st2" d="M77.4,125.4c6.1,1.1,11.7,3.9,17.8,4.6c2.9,0.3,5.9,0.1,8.6-1.1c2.8-1.2,4.9-3.6,6.4-6.2
					c1.7-2.9,2.8-6.1,3.8-9.3c1-3.5,1.7-7.1,2.3-10.7c0.6-3.7,1.3-7.5,1.7-11.2c0.5-3.8,0.8-7.6,0.6-11.4c-0.2-3.4-0.7-6.9-2.1-10
					c-1.2-2.7-3.1-5-5.6-6.5c-4.6-2.8-10.7-3.2-15.7-1.3c-2.5,0.9-4.9,2.1-7.1,3.6c-1.9,1.3-3.6,3-4.8,5c-1.4,2.3-2.3,4.8-3,7.4
					c-0.8,2.9-1.3,5.9-1.8,8.8c-0.5,3-0.9,6-1.2,9c-0.2,1.4-0.3,2.8-0.6,4.3c-0.3,1.8-0.7,3.7-1.2,5.5c-0.9,3.6-2,7.1-2.5,10.7
					c-0.3,2.3-0.2,5,1.4,6.9C75.1,124.5,76.2,125.1,77.4,125.4c0.4,0.1,0.5-0.5,0.2-0.6c-1.2-0.3-2.3-1-3-2c-0.7-1-1-2.1-1.1-3.3
					c-0.1-1.3,0-2.7,0.3-4c0.3-1.8,0.7-3.5,1.2-5.2c0.9-3.5,1.9-6.9,2.4-10.5c0.4-2.8,0.7-5.6,1.1-8.4c0.4-3,0.9-6,1.5-9
					c0.5-2.6,1.2-5.2,2.1-7.7c0.9-2.3,2.2-4.4,3.9-6.2c1.7-1.7,3.7-3,5.8-4c2.4-1.2,4.9-2.2,7.6-2.6c2.6-0.3,5.4-0.1,7.9,0.7
					c2.5,0.8,4.8,2.2,6.5,4.3c2.1,2.5,3.2,5.6,3.7,8.7c1.3,7.3,0.2,14.8-1,22.1c-1.1,7-2.2,14.2-4.9,20.8c-1.1,2.8-2.5,5.5-4.7,7.6
					c-2.1,2.1-5,3.2-7.9,3.5c-3,0.2-6-0.3-8.8-1.1c-2.9-0.8-5.8-1.8-8.7-2.6c-1.3-0.4-2.7-0.7-4-1C77.2,124.8,77,125.3,77.4,125.4
					L77.4,125.4z"/>
			</g>
			<g>
				<path class="st1" d="M77.6,114.7c1-4.9,2.6-9.7,3.5-14.6c1-5.2,1.6-10.4,2.5-15.6c0.7-4.6,1.7-9.3,4.5-13
					c2.1-2.8,5.2-4.9,8.6-5.6s7.2,0,10,2c4.8,3.4,6.5,9.7,6.8,15.6c0.3,7.3-0.7,14.6-2.2,21.7c-0.8,3.6-1.7,7.1-2.7,10.6
					c-0.9,3.2-2,5.8-4.8,7.8c-2.4,1.7-5.4,2.3-8.3,2.2c-4.5-0.1-9-1.8-13.2-3.4C78.3,121,77.1,119,77.6,114.7"/>
				<path class="st2" d="M77.9,114.8c0.6-2.8,1.3-5.6,2.1-8.4c0.7-2.8,1.4-5.6,1.9-8.5c0.5-2.9,0.9-5.8,1.4-8.8
					c0.4-2.7,0.8-5.5,1.3-8.2c0.5-2.5,1.3-5,2.5-7.2c1.2-2.1,2.8-4,4.8-5.4c2-1.3,4.3-2.2,6.7-2.3c2.5-0.1,5,0.4,7.1,1.7
					c3.9,2.3,6,6.6,6.9,10.9c0.5,2.4,0.7,4.8,0.7,7.2c0,2.9-0.1,5.8-0.5,8.7c-0.6,5.8-1.9,11.6-3.4,17.2c-0.4,1.4-0.8,2.8-1.2,4.2
					c-0.3,1.1-0.7,2.1-1.1,3.1c-1,2.1-2.5,3.8-4.4,4.9c-4.8,2.7-10.7,1.5-15.7-0.1c-1.3-0.4-2.7-0.9-4-1.4c-1-0.4-2-0.7-2.8-1.3
					c-1.3-0.9-2.2-2.1-2.4-3.7C77.7,116.5,77.8,115.6,77.9,114.8c0.1-0.5-0.5-0.5-0.6-0.1c-0.2,1.7-0.2,3.6,0.7,5.2
					c1,1.6,2.8,2.4,4.4,3c5.2,2,10.8,4.1,16.4,3.1c2.5-0.4,4.9-1.5,6.6-3.4c1.6-1.6,2.5-3.7,3.1-5.8c0.9-2.8,1.6-5.6,2.3-8.5
					c0.7-2.9,1.3-5.9,1.8-8.9c0.5-3,0.9-6,1-9c0.2-2.8,0.2-5.7,0-8.5c-0.4-4.5-1.7-9.2-4.8-12.5c-3.4-3.7-8.8-5-13.5-3.5
					c-2.3,0.7-4.5,2-6.2,3.7c-1.8,1.8-3.1,4.1-4,6.4c-0.9,2.5-1.4,5-1.9,7.6c-0.5,3-0.9,5.9-1.3,8.9c-0.5,3-0.9,6-1.6,9
					c-0.6,2.9-1.5,5.8-2.2,8.7c-0.4,1.4-0.7,2.8-1,4.2C77.2,115,77.8,115.1,77.9,114.8L77.9,114.8z"/>
			</g>
			<g>
				<path class="st0" d="M45.4,54.5c2.1-2.2,5.8-3.3,8.9-3.2c3,0.1,6,1.1,8.7,2.5c6.4,3.4,9.8,9.1,10.6,16.3
					c0.5,4.2,0.1,8.4-0.6,12.6c-1.2,7.1-3.4,13.9-5.6,20.7c-1.6,4.8-3.5,9.9-7.5,13.1c-7,5.6-20,4.4-27.1-0.5c-1.8-1.2-3.3-3-4-5.1
					c-1.3-4.1,0.8-8.8,2.4-12.6c1.8-4.2,3.9-8.3,5.2-12.7C39.4,75.4,37.3,62.3,45.4,54.5"/>
				<path class="st2" d="M45.6,54.7c2-2,4.9-3,7.7-3.1c3.3-0.2,6.6,0.9,9.5,2.4c2.3,1.2,4.5,2.9,6.1,5c1.6,2,2.8,4.3,3.5,6.8
					c1.9,6.6,1,13.7-0.4,20.3c-0.8,3.6-1.7,7.1-2.8,10.5c-1,3.3-2,6.5-3.2,9.7c-1,2.8-2.3,5.5-4.2,7.8c-1.7,2-3.8,3.5-6.3,4.4
					c-4.9,1.8-10.5,1.6-15.4,0.3c-2.4-0.6-4.7-1.6-6.8-3c-1.2-0.8-2.3-1.8-3.1-3c-0.9-1.3-1.3-2.8-1.4-4.4c-0.1-3.2,1.1-6.4,2.4-9.3
					c1.3-3.2,2.8-6.3,4.1-9.5c1.1-2.8,2-5.6,2.5-8.6c0.5-2.7,0.7-5.4,1.1-8c0.6-5.3,1.5-10.8,4.4-15.3
					C43.9,56.6,44.7,55.6,45.6,54.7c0.3-0.3-0.1-0.7-0.4-0.4c-4,3.9-5.6,9.3-6.5,14.6c-0.9,5.4-1,11-2.6,16.4c-1,3.5-2.6,6.8-4,10.1
					c-0.7,1.6-1.4,3.1-2,4.7c-0.6,1.5-1.2,3.1-1.5,4.7c-0.4,1.6-0.5,3.2-0.3,4.8c0.2,1.5,0.9,2.9,1.8,4.1c1.6,2.1,4.1,3.5,6.5,4.5
					c4.9,2,10.6,2.7,15.8,1.7c2.5-0.5,5-1.4,7-2.8c2.4-1.7,4.2-4.1,5.5-6.8c1.4-2.8,2.4-5.9,3.4-8.9c1.2-3.5,2.3-7.1,3.2-10.7
					c0.9-3.6,1.7-7.2,2.2-10.9c0.5-3.6,0.6-7.3,0-10.9c-0.4-2.7-1.2-5.3-2.5-7.6c-1.3-2.3-3-4.3-5.1-5.9c-2.5-1.9-5.5-3.3-8.6-4
					c-3-0.7-6.1-0.5-9,0.7c-1.3,0.5-2.4,1.2-3.4,2.2C45,54.5,45.4,55,45.6,54.7L45.6,54.7z"/>
			</g>
			<g>
				<path class="st1" d="M46,63.1c2.8-3.2,7.1-5.1,11.3-4.8c3.2,0.3,6.4,2,8,4.8c1.4,2.4,1.6,5.2,1.4,8c-0.8,10.6-1.4,21.7-5.3,31.7
					c-1,2.4-2.1,4.8-3.8,6.8c-4.8,5.7-12.3,6.7-19,4.3c-3-1.1-5-3.3-4.8-6.6c0.2-2.6,1.4-5,2.6-7.3c4.1-8.7,5.6-17.7,6.7-27.2
					c0.4-3.3,0.8-6.7,2.7-9.3"/>
				<path class="st2" d="M46.2,63.3c2.9-3.3,7.6-5.4,12-4.6c2.1,0.4,4.1,1.4,5.6,2.9c1.6,1.7,2.4,4,2.6,6.4c0.1,1.2,0,2.4-0.1,3.6
					c-0.1,1.3-0.2,2.5-0.3,3.8c-0.2,2.6-0.4,5.1-0.7,7.7c-0.5,5.1-1.3,10.3-2.8,15.2c-1.4,4.6-3.2,9.5-6.9,12.8
					c-3.2,2.7-7.3,3.9-11.5,3.7c-2.1-0.1-4.2-0.6-6.1-1.4c-1.7-0.7-3.1-2-3.7-3.8c-0.7-2.2,0-4.7,0.9-6.7c0.5-1.2,1.1-2.3,1.6-3.5
					c0.5-1.2,1-2.3,1.5-3.5c1.8-4.8,3-9.7,3.8-14.7c0.4-2.5,0.7-5.1,1-7.6c0.3-2.4,0.5-4.7,1.2-7c0.4-1.1,0.9-2.1,1.6-3
					c0.2-0.3-0.3-0.6-0.5-0.3c-1.5,1.9-2.1,4.3-2.4,6.7c-0.4,2.5-0.6,5.1-0.9,7.6C41.5,82.8,40.5,88,38.9,93c-0.8,2.5-1.8,5-3,7.4
					c-1.1,2.3-2.3,4.7-2.3,7.3c0,1.9,0.8,3.7,2.3,5c1.6,1.3,3.6,1.9,5.6,2.4c4.1,0.9,8.6,0.4,12.3-1.7c1.9-1.1,3.6-2.7,4.9-4.5
					c1.5-2.1,2.6-4.5,3.4-6.9c1.8-5,2.9-10.2,3.6-15.5c0.3-2.6,0.6-5.3,0.8-7.9c0.2-2.6,0.4-5.3,0.6-7.9c0.1-2.4-0.1-5-1.2-7.2
					c-1-2-2.7-3.5-4.7-4.4c-4.2-1.9-9.2-1-12.9,1.7c-0.9,0.6-1.7,1.4-2.4,2.2C45.6,63.2,46,63.6,46.2,63.3L46.2,63.3z"/>
			</g>
			<path class="st2" d="M112.6,100.5c0.6,0.1,1.1,0.3,1.6,0.6c0.5,0.3,1,0.7,1.5,1c0.2,0.1,0.4,0,0.5-0.1c0.1-0.2,0-0.4-0.1-0.5
				c-1-0.7-2-1.5-3.3-1.6c-0.2,0-0.4,0-0.4,0.3C112.3,100.2,112.4,100.4,112.6,100.5L112.6,100.5z"/>
			<path class="st2" d="M111.5,104.9c1.2,0.5,2.4,1,3.4,1.8c0.2,0.1,0.4,0.1,0.5,0c0.1-0.1,0.2-0.4,0-0.5c-1.1-0.9-2.3-1.4-3.5-1.9
				c-0.2-0.1-0.4-0.1-0.5,0.1C111.2,104.6,111.3,104.8,111.5,104.9L111.5,104.9z"/>
			<path class="st2" d="M110.7,108.9c1.1,0.5,2.2,1.2,3.1,2.1c0.3,0.3,0.8-0.2,0.5-0.5c-0.9-0.9-2.1-1.6-3.3-2.2
				c-0.2-0.1-0.4,0-0.5,0.1C110.5,108.6,110.5,108.8,110.7,108.9L110.7,108.9z"/>
			<path class="st2" d="M109.6,112.3c0.3,0.4,0.7,0.7,1,1c0.5,0.5,1,0.9,1.5,1.4c0.2,0.2,0.4,0.4,0.6,0.6c0.1,0.1,0.4,0.1,0.5,0
				c0.1-0.1,0.1-0.4,0-0.5c-0.4-0.4-0.8-0.8-1.3-1.2c-0.5-0.4-1-0.8-1.4-1.3c-0.1-0.1-0.2-0.2-0.3-0.2c0,0-0.1-0.1-0.1-0.1
				c0,0-0.1-0.1,0,0c-0.1-0.2-0.3-0.2-0.5-0.1C109.6,111.9,109.5,112.1,109.6,112.3L109.6,112.3z"/>
			<path class="st2" d="M108.7,116.6c0.8,0.9,1.8,1.7,2.6,2.6c0.1,0.1,0.4,0.1,0.5,0c0.1-0.1,0.1-0.4,0-0.5
				c-0.8-0.9-1.8-1.7-2.6-2.6c-0.1-0.1-0.4-0.1-0.5,0C108.5,116.2,108.5,116.4,108.7,116.6L108.7,116.6z"/>
			<path class="st2" d="M107.2,120.5c0.9,0.8,1.6,1.8,1.9,3c0.1,0.5,0.8,0.3,0.7-0.2c-0.3-1.3-1-2.5-2-3.3c-0.2-0.1-0.4-0.1-0.5,0
				C107,120.1,107,120.3,107.2,120.5L107.2,120.5z"/>
			<path class="st2" d="M104.8,123.5C104.8,123.5,104.7,123.4,104.8,123.5C104.8,123.5,104.7,123.4,104.8,123.5
				C104.8,123.5,104.8,123.5,104.8,123.5c0,0.1,0.1,0.2,0.1,0.2c0,0,0,0.1,0,0c0,0,0,0.1,0.1,0.1c0.1,0.4,0.2,0.7,0.3,1.1
				c0.2,0.7,0.3,1.4,0.5,2.1c0.1,0.5,0.8,0.3,0.7-0.2c-0.2-0.8-0.3-1.5-0.5-2.3c-0.1-0.4-0.2-0.8-0.4-1.2c-0.1-0.3-0.3-0.6-0.5-0.6
				C104.5,122.7,104.4,123.3,104.8,123.5L104.8,123.5z"/>
			<path class="st2" d="M101.2,125.3c0.5,1.1,0.7,2.2,0.7,3.4c0,0.5,0.7,0.5,0.7,0c0-0.6,0-1.3-0.2-1.9c-0.1-0.6-0.4-1.2-0.6-1.8
				c-0.1-0.2-0.3-0.2-0.5-0.1C101.1,125,101.1,125.2,101.2,125.3L101.2,125.3z"/>
			<path class="st2" d="M113,96.1c1.2,0.4,2.4,0.9,3.4,1.7c0.2,0.1,0.4,0.1,0.5,0c0.1-0.1,0.2-0.4,0-0.5c-1.1-0.9-2.4-1.4-3.8-1.8
				C112.7,95.3,112.6,96,113,96.1L113,96.1z"/>
			<path class="st2" d="M113.5,91.7c1.3,0.3,2.6,1,3.5,2.1c0.1,0.2,0.4,0.1,0.5,0c0.1-0.1,0.1-0.4,0-0.5c-0.9-1.2-2.4-1.9-3.8-2.3
				C113.3,90.8,113.1,91.5,113.5,91.7L113.5,91.7z"/>
			<path class="st2" d="M113.9,86.5c0.7,0.2,1.4,0.5,2,0.9c0.6,0.4,1.2,0.9,1.7,1.5c0.3,0.3,0.8-0.2,0.5-0.5
				c-0.6-0.6-1.2-1.1-1.8-1.6c-0.7-0.4-1.4-0.7-2.2-1C113.6,85.7,113.4,86.4,113.9,86.5L113.9,86.5z"/>
			<path class="st2" d="M113.5,81.4c1.6,0.4,3.3,1,4.6,2.2c0.3,0.3,0.9-0.2,0.5-0.5c-1.3-1.2-3.1-2-4.9-2.4
				C113.2,80.6,113,81.3,113.5,81.4L113.5,81.4z"/>
			<path class="st2" d="M112.4,76.2c2,0,3.7,1.2,5.3,2.3c0.4,0.3,0.7-0.4,0.4-0.6c-1.7-1.1-3.6-2.3-5.7-2.4
				C111.9,75.4,111.9,76.2,112.4,76.2L112.4,76.2z"/>
			<path class="st2" d="M110.4,72c2.3,0.6,4.6,1.3,6.7,2.3c0.4,0.2,0.8-0.4,0.4-0.6c-2.2-1.1-4.5-1.8-6.8-2.4
				C110.2,71.2,110,71.9,110.4,72L110.4,72z"/>
			<path class="st2" d="M108,69.1c2.6-0.6,5.4-0.2,7.8,1c0.4,0.2,0.8-0.4,0.4-0.6c-2.5-1.3-5.5-1.7-8.3-1.1
				C107.3,68.5,107.5,69.2,108,69.1L108,69.1z"/>
			<path class="st2" d="M105.3,66.9c1.7-1.3,3.8-2,5.9-2c0.5,0,0.5-0.7,0-0.7c-2.3,0.1-4.5,0.8-6.4,2.3
				C104.5,66.7,105,67.2,105.3,66.9L105.3,66.9z"/>
			<path class="st2" d="M101.2,65.8c0.9-1.5,2.2-2.8,3.7-3.7c0.4-0.2,0-0.9-0.4-0.6c-1.6,0.9-3,2.4-4,4
				C100.4,65.8,101,66.2,101.2,65.8L101.2,65.8z"/>
			<path class="st2" d="M97.2,126.2c0.3,1.1,0.1,2.2,0,3.3c0,0.5,0.7,0.5,0.7,0c0.1-1.2,0.2-2.4-0.1-3.5
				C97.8,125.6,97.1,125.8,97.2,126.2L97.2,126.2z"/>
			<path class="st2" d="M92.5,126.1c0,0.1,0.1,0.2,0.1,0.3c0-0.1,0,0,0,0.1c0,0.1,0,0.2,0,0.2c0,0.3,0.1,0.6,0.1,0.9
				c0.1,0.6,0.2,1.2,0.3,1.8c0,0.2,0.3,0.3,0.4,0.3c0.2-0.1,0.3-0.3,0.3-0.4c-0.1-0.6-0.2-1.2-0.3-1.8c0-0.3-0.1-0.6-0.1-0.8
				c0-0.2-0.1-0.4-0.1-0.6c-0.1-0.2-0.2-0.3-0.4-0.3C92.6,125.7,92.5,125.9,92.5,126.1L92.5,126.1z"/>
			<path class="st2" d="M87.8,125c0.3,1,0.5,2.1,0.6,3.1c0,0.2,0.3,0.3,0.4,0.3c0.2-0.1,0.3-0.2,0.3-0.4c-0.2-1.1-0.3-2.1-0.6-3.1
				c-0.1-0.2-0.2-0.3-0.4-0.3C87.9,124.6,87.8,124.8,87.8,125L87.8,125z"/>
			<path class="st2" d="M83.8,123.5c0.3,1.2,0.4,2.4,0.6,3.6c0,0.2,0.3,0.3,0.4,0.3c0.2-0.1,0.3-0.3,0.3-0.4
				c-0.2-1.2-0.3-2.4-0.6-3.6C84.4,122.9,83.7,123.1,83.8,123.5L83.8,123.5z"/>
			<path class="st2" d="M80.7,122.2c-0.2,1.1-0.3,2.1-0.6,3.2c0,0.2,0.1,0.4,0.3,0.4c0.2,0,0.4-0.1,0.4-0.3c0.2-1.1,0.4-2.1,0.6-3.2
				c0-0.2-0.1-0.4-0.3-0.4C80.9,121.9,80.7,122,80.7,122.2L80.7,122.2z"/>
			<path class="st2" d="M78.3,120.3c-0.4,0.6-0.9,1.3-1.4,1.9c-0.5,0.6-1,1.1-1.7,1.4c-0.2,0.1-0.2,0.3-0.1,0.5
				c0.1,0.2,0.3,0.2,0.5,0.1c0.7-0.3,1.4-1,1.9-1.6c0.6-0.6,1-1.3,1.5-2C79.2,120.2,78.6,119.9,78.3,120.3L78.3,120.3z"/>
			<path class="st2" d="M77.3,117.6c-1.3,0.3-2.6,0.6-3.8,0.9c-0.4,0.1-0.3,0.8,0.2,0.7c1.3-0.3,2.6-0.6,3.8-0.9
				C77.9,118.1,77.7,117.4,77.3,117.6L77.3,117.6z"/>
			<path class="st2" d="M77.4,114.1c-0.6,0.3-1.2,0.5-1.9,0.6c-0.7,0.2-1.3,0.3-2,0.4c-0.2,0-0.3,0.3-0.3,0.4
				c0.1,0.2,0.3,0.3,0.4,0.3c0.7-0.1,1.4-0.3,2-0.4c0.7-0.2,1.4-0.3,2-0.7C78.2,114.5,77.8,113.8,77.4,114.1L77.4,114.1z"/>
			<path class="st2" d="M78.3,109.9c-0.5,0.4-1.1,0.6-1.8,0.7c-0.6,0.2-1.3,0.3-1.9,0.3c-0.5,0-0.5,0.7,0,0.7c0.7,0,1.4-0.2,2.1-0.3
				c0.7-0.2,1.4-0.4,1.9-0.8C79,110.2,78.7,109.6,78.3,109.9L78.3,109.9z"/>
			<path class="st2" d="M79.4,105.7c-0.5,0.3-1.2,0.4-1.8,0.5c-0.6,0.1-1.3,0.2-1.9,0.3c-0.2,0-0.3,0.3-0.3,0.4
				c0.1,0.2,0.2,0.3,0.4,0.3c0.7-0.1,1.3-0.2,2-0.3c0.7-0.1,1.3-0.3,2-0.6C80.2,106.1,79.8,105.5,79.4,105.7L79.4,105.7z"/>
			<path class="st2" d="M80.4,102.4c-1.3,0.4-2.7,0.5-4,0.8c-0.5,0.1-0.3,0.8,0.2,0.7c1.3-0.3,2.7-0.4,4-0.8
				C81,103,80.9,102.3,80.4,102.4L80.4,102.4z"/>
			<path class="st2" d="M81,98.4c-0.2,0.1-0.5,0.2-0.8,0.3c-0.3,0.1-0.7,0.2-1,0.2c-0.6,0.1-1.2,0.2-1.9,0.2c-0.5,0-0.5,0.7,0,0.7
				c0.7,0,1.4-0.1,2.1-0.2c0.7-0.1,1.4-0.2,2-0.6c0.2-0.1,0.2-0.3,0.1-0.5C81.4,98.4,81.2,98.3,81,98.4L81,98.4z"/>
			<path class="st2" d="M81.5,94.7c-0.5,0.3-1.2,0.4-1.8,0.5c-0.6,0.1-1.3,0.2-1.9,0.3c-0.2,0-0.3,0.3-0.3,0.4
				c0.1,0.2,0.3,0.3,0.4,0.3c0.7-0.1,1.3-0.2,2-0.3c0.6-0.1,1.3-0.3,1.9-0.6C82.3,95.1,82,94.5,81.5,94.7L81.5,94.7z"/>
			<path class="st2" d="M82.3,91.1c-1.4,0.3-2.8,0.4-4.2,0.9c-0.4,0.1-0.2,0.8,0.2,0.7c1.3-0.5,2.8-0.6,4.2-0.9
				C82.9,91.7,82.7,91,82.3,91.1L82.3,91.1z"/>
			<path class="st2" d="M83,87.1c-1.3,0.4-2.7,0.5-4.1,0.6c-0.2,0-0.4,0.2-0.4,0.4c0,0.2,0.2,0.4,0.4,0.4c1.4-0.1,2.9-0.3,4.3-0.6
				C83.6,87.6,83.4,86.9,83,87.1L83,87.1z"/>
			<path class="st2" d="M83.3,83.6c-1.2,0-2.4,0.1-3.6,0.1c-0.5,0-0.5,0.7,0,0.7c1.2,0,2.4-0.1,3.6-0.1
				C83.8,84.3,83.8,83.6,83.3,83.6L83.3,83.6z"/>
			<path class="st2" d="M84,80.1c-1.2-0.1-2.5-0.2-3.7-0.2c-0.2,0-0.4,0.2-0.4,0.4c0,0.2,0.2,0.3,0.4,0.4c1.2,0.1,2.5,0.2,3.7,0.2
				c0.2,0,0.4-0.2,0.4-0.4C84.4,80.2,84.2,80.1,84,80.1L84,80.1z"/>
			<path class="st2" d="M84.9,76.9c-1.1-0.1-2.2-0.2-3.3-0.5c-0.4-0.1-0.6,0.6-0.2,0.7c1.1,0.3,2.3,0.4,3.5,0.5
				c0.2,0,0.4-0.2,0.4-0.4C85.3,77,85.1,76.9,84.9,76.9L84.9,76.9z"/>
			<path class="st2" d="M86.1,74.6c-0.5-0.4-1-0.7-1.5-1c-0.3-0.2-0.5-0.3-0.8-0.5c-0.1-0.1-0.2-0.2-0.4-0.2c-0.1,0-0.1-0.1-0.2-0.1
				c-0.1-0.1,0.1,0,0,0c0,0,0,0-0.1-0.1c-0.2-0.1-0.4-0.1-0.5,0c-0.1,0.1-0.2,0.4,0,0.5c0.5,0.4,1,0.7,1.5,1
				c0.3,0.2,0.5,0.3,0.8,0.5c0.1,0.1,0.2,0.2,0.4,0.2c0.1,0,0.1,0.1,0.2,0.1c0.1,0.1-0.1,0,0,0c0,0,0,0,0.1,0.1
				c0.2,0.1,0.4,0.1,0.5,0C86.2,75,86.2,74.7,86.1,74.6L86.1,74.6z"/>
			<path class="st2" d="M87.8,71.7c-0.7-0.9-1.5-1.8-2.2-2.7c-0.1-0.2-0.4-0.1-0.5,0c-0.1,0.1-0.1,0.4,0,0.5
				c0.7,0.9,1.5,1.8,2.2,2.7c0.1,0.2,0.4,0.1,0.5,0C87.9,72.1,87.9,71.8,87.8,71.7L87.8,71.7z"/>
			<path class="st2" d="M90,69.1c-0.3-0.4-0.5-0.9-0.7-1.4c-0.2-0.4-0.4-0.9-0.5-1.3c-0.1-0.4-0.8-0.3-0.7,0.2
				c0.1,0.5,0.3,1,0.5,1.5c0.2,0.5,0.5,1,0.7,1.4C89.6,69.9,90.3,69.5,90,69.1L90,69.1z"/>
			<path class="st2" d="M93.1,67.2c0-1-0.1-2.1-0.1-3.1c0-0.2-0.2-0.4-0.4-0.4c-0.2,0-0.4,0.2-0.4,0.4c0.1,1,0.1,2.1,0.1,3.1
				C92.4,67.7,93.1,67.7,93.1,67.2L93.1,67.2z"/>
			<path class="st2" d="M97,65.8c0.1-0.6,0.2-1.1,0.3-1.7c0.1-0.6,0.2-1.1,0.4-1.7c0.1-0.2-0.1-0.4-0.3-0.4
				c-0.2-0.1-0.4,0.1-0.4,0.3c-0.2,0.5-0.3,1.1-0.4,1.7c-0.1,0.6-0.2,1.1-0.3,1.7c0,0.2,0.1,0.4,0.3,0.4C96.7,66.1,96.9,66,97,65.8
				L97,65.8z"/>
			<path class="st2" d="M97.3,129.5c-2,0.7-4,1.6-5.8,2.5c-2.1,1.1-4.2,2.2-6.3,3.4c-1.9,1.1-3.8,2.3-5.4,3.8c-2,1.8-3.7,3.8-5.2,6
				c-1.6,2.4-2.9,5.1-3.6,7.9c-0.1,0.4,0.6,0.6,0.7,0.2c1.3-5,4.3-9.5,8-13c1.6-1.5,3.4-2.8,5.3-3.9c2-1.2,4-2.3,6-3.3
				c2.1-1.1,4.3-2.1,6.5-2.9C98,130.1,97.8,129.4,97.3,129.5L97.3,129.5z"/>
			<path class="st2" d="M86,127.5c-3.3,1.2-6.8,1.9-9.9,3.6c-1.8,0.9-3.2,2.5-4.5,4c-1.4,1.8-2.5,3.7-3.5,5.7
				c-1.1,2.3-2,4.7-2.7,7.1c-0.1,0.4,0.6,0.6,0.7,0.2c1.1-4.2,3-8.4,5.6-11.9c1.2-1.6,2.6-3.3,4.3-4.3c1.5-0.9,3.2-1.4,4.8-2
				c1.8-0.6,3.6-1.1,5.4-1.8C86.6,128,86.5,127.3,86,127.5L86,127.5z"/>
			<path class="st2" d="M110.8,135.1c-2.3-0.3-4.8,0-7,0.6c-2.4,0.6-4.7,1.6-6.8,2.8c-1,0.6-1.9,1.2-2.8,1.9
				c-1.2,0.9-2.3,1.8-3.4,2.8c-2,1.9-3.7,4-5.2,6.4c-1.6,2.6-2.9,5.5-3.6,8.5c-0.1,0.5,0.6,0.6,0.7,0.2c1.3-5.1,4.1-10,7.8-13.7
				c1-1,2.1-1.9,3.2-2.8c0.9-0.7,1.9-1.4,2.9-2.1c2-1.2,4.3-2.2,6.5-2.9c2.5-0.7,5.1-1.2,7.7-0.8
				C111.3,135.8,111.3,135.1,110.8,135.1L110.8,135.1z"/>
			<path class="st2" d="M66.8,127.9c2.2,1,4.2,2.4,6,4c1.9,1.6,3.7,3.4,5.2,5.4c1.5,2,2.8,4.2,4,6.4c1.1,2.2,2,4.5,2.8,6.8
				c0.9,2.6,1.5,5.3,1.4,8.1c0,0.5,0.7,0.5,0.7,0c0.1-2.6-0.3-5.1-1.2-7.5c-0.8-2.3-1.7-4.6-2.7-6.8c-1.1-2.3-2.5-4.6-4-6.7
				c-1.4-2-3.2-3.9-5-5.5c-2.1-1.8-4.4-3.5-6.9-4.7C66.7,127,66.4,127.7,66.8,127.9L66.8,127.9z"/>
			<path class="st2" d="M80.1,126c4.6,2.2,8.3,6.1,10.6,10.6c1,1.9,1.7,4,2.4,6c0.8,2.2,1.4,4.5,2,6.7c0.7,2.9,1.2,5.7,1.5,8.7
				c0,0.5,0.8,0.5,0.7,0c-0.3-2.7-0.7-5.3-1.3-7.9c-0.6-2.3-1.2-4.7-1.9-7c-0.7-2.1-1.5-4.2-2.4-6.2c-1.1-2.3-2.5-4.5-4.3-6.4
				c-2-2.1-4.3-3.9-6.9-5.2C80.1,125.2,79.7,125.8,80.1,126L80.1,126z"/>
			<path class="st2" d="M92.8,129.7c3.1,2.5,5.8,5.5,7.8,9c2,3.4,3.3,7.1,4.2,11c0.5,2.3,0.9,4.5,1.1,6.8c0,0.5,0.8,0.5,0.7,0
				c-0.4-4.1-1.2-8.2-2.6-12.1c-1.3-3.7-3.2-7.3-5.7-10.4c-1.5-1.8-3.1-3.4-4.9-4.8C93,128.9,92.5,129.4,92.8,129.7L92.8,129.7z"/>
			<path class="st2" d="M105.6,128.2c1,0.6,1.8,1.7,2.5,2.6c0.8,1.1,1.6,2.3,2.2,3.6c0.7,1.3,1.2,2.6,1.7,4c0.5,1.6,1,3.2,1.3,4.8
				c0.3,1.9,0.4,3.9,0.4,5.9c0,0.5,0.7,0.5,0.7,0c0-3.6-0.4-7.1-1.6-10.4c-0.9-2.8-2.2-5.4-3.9-7.9c-0.8-1.1-1.7-2.4-2.9-3.1
				C105.6,127.3,105.2,127.9,105.6,128.2L105.6,128.2z"/>
			<path class="st2" d="M74.1,123.1c-2.8,0.7-5.9,1.8-7.5,4.3c-0.3,0.4,0.4,0.8,0.6,0.4c1.5-2.4,4.5-3.3,7.1-3.9
				C74.8,123.7,74.6,123,74.1,123.1L74.1,123.1z"/>
			<path class="st2" d="M36.7,117.7c-5.1-0.5-10.3,0.6-14.8,2.9c-1.3,0.7-2.5,1.4-3.7,2.3c-0.4,0.3,0,0.9,0.4,0.6
				c4-3,8.9-4.8,13.9-5.2c1.4-0.1,2.8-0.1,4.2,0C37.2,118.5,37.2,117.8,36.7,117.7L36.7,117.7z"/>
			<path class="st2" d="M45.3,119.6c-1.9,0.2-3.9,0.4-5.8,0.7c-2.1,0.4-4.1,1.3-6,2.2c-4.2,2-8.1,4.9-11.3,8.3
				c-1.8,1.9-3.4,4.1-4.8,6.4c-0.2,0.4,0.4,0.8,0.6,0.4c2.3-4,5.4-7.4,9.1-10.3c1.8-1.4,3.8-2.7,5.9-3.7c1-0.5,2.1-1,3.1-1.4
				c0.9-0.4,1.9-0.7,2.9-1c2-0.5,4.1-0.7,6.2-0.9C45.7,120.3,45.8,119.6,45.3,119.6L45.3,119.6z"/>
			<path class="st2" d="M67.9,123.1c-2.9-1.1-6.3-0.9-9.3-0.5c-3.6,0.5-7.2,1.5-10.7,2.7c-2.9,1-5.7,2.1-8.4,3.4
				c-1.7,0.8-3.2,2-4.6,3.3c-1.5,1.4-2.8,3-3.7,4.9c-0.8,1.5-1.4,3.2-1.8,4.8c-0.4,2-0.6,4-0.7,6c0,0.6-0.1,1.2-0.1,1.8
				c0,0.5,0.7,0.5,0.7,0c0.2-3.8,0.4-7.7,2-11.2c0.8-1.7,1.8-3.3,3.1-4.7c1.4-1.5,3-2.9,4.8-3.9c2.5-1.3,5.2-2.4,7.9-3.3
				c3.4-1.2,6.8-2.2,10.4-2.9c3-0.5,6.4-0.9,9.4,0c0.3,0.1,0.6,0.2,0.9,0.3C68.1,124,68.3,123.3,67.9,123.1L67.9,123.1z"/>
			<path class="st2" d="M23.4,113.9c1.7,1.7,3.1,3.6,4.4,5.6c1.5,2.2,2.9,4.5,4.2,6.9c1.2,2.2,2.3,4.5,3.2,6.8
				c0.8,2.1,1.4,4.3,1.7,6.6c0.5,3.6,0.5,7.2,0,10.8c-0.1,0.5,0.6,0.6,0.7,0.2c0.4-3.3,0.5-6.6,0.1-9.9c-0.3-2.4-0.7-4.8-1.5-7.1
				c-0.8-2.4-1.9-4.6-3.1-6.9c-1.3-2.4-2.7-4.8-4.2-7.1c-1.5-2.3-3.1-4.5-5-6.4C23.6,113.1,23.1,113.6,23.4,113.9L23.4,113.9z"/>
			<path class="st2" d="M19.3,121.3c2.1,3,3.6,6.3,4.6,9.7c1.1,3.6,1.6,7.3,1.6,11.1c0,2-0.1,4-0.4,6c-0.1,0.5,0.6,0.6,0.7,0.2
				c0.6-3.7,0.6-7.4,0.1-11.1c-0.5-3.8-1.5-7.5-3-10.9c-0.8-1.9-1.8-3.7-3-5.4C19.6,120.5,19,120.9,19.3,121.3L19.3,121.3z"/>
			<path class="st2" d="M36.4,118.3c2.5,3.6,4.7,7.4,6.3,11.5c1.6,4,2.6,8.3,2.7,12.6c0.1,2.4-0.1,4.9-0.6,7.3
				c-0.1,0.5,0.6,0.6,0.7,0.2c0.9-4.3,0.8-8.7,0-13.1c-0.8-4.3-2.4-8.5-4.5-12.4c-1.2-2.2-2.5-4.4-4-6.4
				C36.8,117.6,36.1,117.9,36.4,118.3L36.4,118.3z"/>
			<path class="st2" d="M48.4,120.5c2,3.2,3.3,6.8,4.1,10.5c0.8,3.6,1.4,7.3,1.1,10.9c-0.1,2-0.6,4-1.4,5.8
				c-0.2,0.4,0.4,0.8,0.6,0.4c1.6-3.4,1.8-7.2,1.4-10.9c-0.4-3.8-1.2-7.6-2.4-11.2c-0.7-2.1-1.7-4.1-2.8-5.9
				C48.8,119.7,48.2,120.1,48.4,120.5L48.4,120.5z"/>
			<path class="st2" d="M66.8,69.4c2.7,2.5,4.9,5.4,6.2,8.8c0.2,0.4,0.9,0.2,0.7-0.2c-0.6-1.8-1.5-3.4-2.6-5
				c-1.1-1.5-2.4-2.9-3.8-4.2C67,68.6,66.5,69.1,66.8,69.4L66.8,69.4z"/>
			<path class="st2" d="M66.7,76c1.3,0.9,2.4,1.8,3.3,3.2c0.4,0.7,0.9,1.4,1.3,2.1c0.5,0.7,0.9,1.4,1.1,2.3c0.1,0.4,0.8,0.3,0.7-0.2
				c-0.3-0.9-0.7-1.6-1.2-2.4c-0.5-0.8-0.9-1.5-1.4-2.3c-0.9-1.4-2.1-2.4-3.4-3.3C66.7,75.1,66.3,75.7,66.7,76L66.7,76z"/>
			<path class="st2" d="M66.1,81.2c0.6,0.2,1,0.9,1.4,1.3c0.5,0.6,1,1.3,1.5,2c0.9,1.4,1.7,2.8,2.3,4.4c0.2,0.4,0.9,0.2,0.7-0.2
				c-0.6-1.7-1.5-3.3-2.5-4.7c-0.5-0.7-1-1.4-1.6-2.1c-0.5-0.5-0.8-1.1-1.5-1.3C65.8,80.4,65.7,81.1,66.1,81.2L66.1,81.2z"/>
			<path class="st2" d="M65.2,86.5c1.1,2.2,2.4,4.3,3.7,6.4c0.3,0.5,0.6,0.9,0.8,1.4c0.2,0.4,0.8,0,0.6-0.4c-1.1-2-2.4-3.9-3.6-5.9
				c-0.4-0.6-0.7-1.3-1-1.9C65.7,85.7,65,86.1,65.2,86.5L65.2,86.5z"/>
			<path class="st2" d="M64.2,93.1c1.4,2.1,2.6,4.2,3.8,6.4c0.2,0.4,0.8,0,0.6-0.4c-1.2-2.2-2.4-4.3-3.8-6.4
				C64.6,92.3,64,92.7,64.2,93.1L64.2,93.1z"/>
			<path class="st2" d="M62.9,98.6c1.1,1.9,2.2,3.7,3.5,5.4c0.3,0.4,0.9,0,0.6-0.4c-1.3-1.7-2.4-3.5-3.5-5.4
				C63.2,97.9,62.6,98.2,62.9,98.6L62.9,98.6z"/>
			<path class="st2" d="M61.3,103.4c0.7,1,1.5,1.9,2.1,2.9c0.4,0.8,0.8,1.5,1.4,2.2c0.1,0.2,0.3,0.2,0.5,0.1
				c0.2-0.1,0.2-0.3,0.1-0.5c-0.5-0.7-0.9-1.4-1.4-2.2c-0.6-1-1.4-1.9-2.1-2.9C61.7,102.7,61,103.1,61.3,103.4L61.3,103.4z"/>
			<path class="st2" d="M59.2,107.4c0.5,0.8,1.1,1.6,1.6,2.4c0.6,0.9,1.1,1.9,1.6,2.8c0.2,0.4,0.9,0,0.6-0.4c-0.5-0.9-1-1.9-1.6-2.8
				c-0.5-0.8-1.1-1.6-1.6-2.4C59.5,106.7,58.9,107,59.2,107.4L59.2,107.4z"/>
			<path class="st2" d="M56.8,110.8c1,1.6,2.2,3.1,3.1,4.8c0.2,0.4,0.9,0,0.6-0.4c-0.9-1.7-2.1-3.2-3.1-4.8
				C57.2,110,56.5,110.4,56.8,110.8L56.8,110.8z"/>
			<path class="st2" d="M54.3,113.2c0.5,0.6,0.8,1.2,1.1,1.9c0.4,1,0.8,1.9,1.2,2.9c0.1,0.2,0.2,0.3,0.4,0.3c0.2,0,0.3-0.3,0.3-0.4
				c-0.4-1-0.8-2-1.2-3c-0.3-0.8-0.6-1.5-1.2-2.1C54.5,112.3,54,112.8,54.3,113.2L54.3,113.2z"/>
			<path class="st2" d="M51.2,114.4c0.7,1.7,1.5,3.4,2.4,5c0.2,0.4,0.8,0,0.6-0.4c-0.8-1.6-1.6-3.2-2.3-4.8
				c-0.1-0.2-0.2-0.3-0.4-0.3C51.3,114,51.2,114.2,51.2,114.4L51.2,114.4z"/>
			<path class="st2" d="M47.4,115.6c0.8,1.4,1.4,2.8,1.9,4.3c0.1,0.4,0.8,0.3,0.7-0.2c-0.5-1.6-1.2-3.1-2-4.5
				C47.8,114.8,47.2,115.2,47.4,115.6L47.4,115.6z"/>
			<path class="st2" d="M43.5,115.3c0.3,0.7,0.5,1.3,0.8,2c0.3,1,0.7,1.9,1.2,2.8c0.2,0.4,0.9,0,0.6-0.4c-0.5-0.8-0.8-1.8-1.2-2.7
				c-0.2-0.7-0.5-1.3-0.7-2c-0.1-0.2-0.2-0.3-0.4-0.3C43.6,114.9,43.4,115.1,43.5,115.3L43.5,115.3z"/>
			<path class="st2" d="M40.3,114.9c0.4,1.6,1,3.1,1.6,4.6c0.1,0.2,0.2,0.3,0.4,0.3c0.2,0,0.3-0.3,0.3-0.4c-0.6-1.5-1.1-3.1-1.6-4.6
				C40.9,114.2,40.2,114.4,40.3,114.9L40.3,114.9z"/>
			<path class="st2" d="M36.9,113.5c0.5,1.6,1,3.3,1.3,5c0.1,0.5,0.8,0.3,0.7-0.2c-0.3-1.7-0.8-3.3-1.3-5
				C37.5,112.8,36.8,113,36.9,113.5L36.9,113.5z"/>
			<path class="st2" d="M33.7,105.1c-0.9,0.2-1.9,0.4-2.8,0.6c-0.9,0.3-1.8,0.6-2.6,1.2c-0.4,0.3,0.2,0.8,0.5,0.5
				c0.7-0.6,1.6-0.8,2.4-1.1c0.9-0.2,1.8-0.4,2.6-0.6C34.4,105.7,34.2,105,33.7,105.1L33.7,105.1z"/>
			<path class="st2" d="M66,64.3c2.3,0.4,4.5,1.2,6.5,2.2c0.4,0.2,0.8-0.4,0.4-0.6c-2.1-1.1-4.4-1.9-6.7-2.3
				C65.7,63.5,65.5,64.2,66,64.3L66,64.3z"/>
			<path class="st2" d="M64,60.9c0.8-0.5,1.8-0.6,2.7-0.7c1-0.1,2.1-0.2,3.1,0c0.5,0.1,0.6-0.6,0.2-0.7c-1.1-0.3-2.3-0.2-3.4-0.1
				c-1,0.1-2.1,0.2-3,0.7C63.3,60.6,63.6,61.2,64,60.9L64,60.9z"/>
			<path class="st2" d="M61.2,59c0.9-1.5,2-2.7,3.3-3.8c0.2-0.1,0.1-0.4,0-0.5c-0.2-0.2-0.4-0.1-0.5,0c-1.4,1.1-2.6,2.4-3.5,3.9
				C60.4,59,61,59.4,61.2,59L61.2,59z"/>
			<path class="st2" d="M58.2,58.1c0.2-1.9,0.5-3.9,1-5.7c0.1-0.4-0.6-0.6-0.7-0.2c-0.6,1.9-0.8,3.9-1,5.9
				C57.4,58.5,58.1,58.5,58.2,58.1L58.2,58.1z"/>
			<path class="st2" d="M54.5,58.2c-0.8-2.2-1.5-4.4-2.3-6.6c-0.2-0.4-0.8-0.2-0.7,0.2c0.8,2.2,1.5,4.4,2.3,6.6
				C54,58.8,54.7,58.6,54.5,58.2L54.5,58.2z"/>
			<path class="st2" d="M50.6,59.3C49.9,58,49,56.8,48,55.7c-0.5-0.6-1.1-1.2-1.6-1.7c-0.3-0.3-0.8,0.2-0.5,0.5
				c0.5,0.6,1.1,1.1,1.6,1.7c1,1.1,1.8,2.2,2.5,3.5C50.2,60.1,50.9,59.7,50.6,59.3L50.6,59.3z"/>
			<path class="st2" d="M47.6,61.1c-1.5-1-3.3-1.7-4.9-2.5c-0.4-0.2-0.8,0.4-0.4,0.6c1.7,0.8,3.4,1.5,4.9,2.5
				C47.6,62,48,61.4,47.6,61.1L47.6,61.1z"/>
			<path class="st2" d="M45,63.9c-1.5-0.3-3-0.5-4.5-0.6c-0.5,0-0.5,0.7,0,0.7c1.4,0.1,2.9,0.2,4.3,0.6C45.2,64.7,45.4,64.1,45,63.9
				L45,63.9z"/>
			<path class="st2" d="M43.5,67.1c-0.7-0.2-1.3-0.3-2-0.3c-0.7,0-1.4,0-2,0.1c-0.2,0-0.3,0.3-0.3,0.4c0.1,0.2,0.3,0.3,0.4,0.3
				c0.6-0.1,1.2-0.1,1.8-0.1c0.6,0,1.2,0.1,1.8,0.3C43.8,68,44,67.3,43.5,67.1L43.5,67.1z"/>
			<path class="st2" d="M43.1,70.6c-1.4,0-2.8,0.2-4.2,0.5c-0.2,0-0.3,0.3-0.3,0.4c0.1,0.2,0.3,0.3,0.4,0.3c1.3-0.2,2.6-0.4,4-0.4
				C43.5,71.3,43.5,70.5,43.1,70.6L43.1,70.6z"/>
			<path class="st2" d="M42.7,74.5c-0.7-0.1-1.4-0.2-2.2-0.1c-0.7,0-1.5,0.1-2.1,0.4c-0.4,0.1-0.3,0.8,0.2,0.7
				c0.6-0.2,1.3-0.3,2-0.3c0.7,0,1.3,0,2,0.1C43,75.3,43.2,74.6,42.7,74.5L42.7,74.5z"/>
			<path class="st2" d="M42.1,78.8c-1.4,0.2-2.9,0.4-4.3,0.7c-0.5,0.1-0.3,0.8,0.2,0.7c1.4-0.3,2.7-0.5,4.1-0.7
				c0.2,0,0.4-0.1,0.4-0.4C42.5,79,42.3,78.8,42.1,78.8L42.1,78.8z"/>
			<path class="st2" d="M41.3,83.5c-1.5,0-2.9,0-4.4,0c-0.5,0-0.5,0.7,0,0.7c1.5,0,2.9,0,4.4,0C41.8,84.2,41.8,83.5,41.3,83.5
				L41.3,83.5z"/>
			<path class="st2" d="M40.2,87.6c-1.6-0.1-3.2-0.1-4.7,0.2c-0.5,0.1-0.3,0.8,0.2,0.7c1.5-0.3,3-0.3,4.5-0.2c0.2,0,0.4-0.2,0.4-0.4
				C40.5,87.7,40.4,87.6,40.2,87.6L40.2,87.6z"/>
			<path class="st2" d="M39.2,92.1c-2,0.5-4,0.7-6,1.2c-0.5,0.1-0.3,0.8,0.2,0.7c2-0.5,4-0.7,6-1.2C39.8,92.7,39.6,92,39.2,92.1
				L39.2,92.1z"/>
			<path class="st2" d="M37.5,96.5c-2.2-0.1-4.7,0.5-6.6,1.7c-0.4,0.3,0,0.9,0.4,0.6c1.8-1.2,4.1-1.7,6.2-1.6
				C38,97.2,38,96.5,37.5,96.5L37.5,96.5z"/>
			<path class="st2" d="M35.6,100.6c-2.2,0.4-4.4,1-6.4,2.2c-0.4,0.2,0,0.9,0.4,0.6c1.9-1.1,4.1-1.7,6.2-2.1
				C36.3,101.2,36.1,100.5,35.6,100.6L35.6,100.6z"/>
			<path class="st2" d="M33.5,109.1c-1.3,0.8-2.7,1.6-4.1,2.3c-0.4,0.2,0,0.8,0.4,0.6c1.4-0.7,2.7-1.4,4.1-2.3
				C34.2,109.5,33.8,108.9,33.5,109.1L33.5,109.1z"/>
			<path class="st2" d="M35,112.2c-0.6,1.2-1.4,2.2-2.3,3.2c-0.3,0.3,0.2,0.8,0.5,0.5c0.9-1,1.8-2.1,2.5-3.3
				C35.8,112.1,35.2,111.7,35,112.2L35,112.2z"/>
		</g>
	</g>
</g>
</svg>
