<svg fill="none" xmlns="http://www.w3.org/2000/svg" viewBox="0 0 194 56"><rect width="194" height="56" rx="9.333" fill="#F6F7FB"/><path opacity=".705" d="M63.5 16.5v15.374c0 .919-.153 2.666-1.3 4.247a8.425 8.425 0 0 1-.745.873l-.033.033c-.145.144-.59.572-1.253.998-.8.513-1.632.837-2.49 1.067-.478.128-1.605.4-4.954.408a37.365 37.365 0 0 1-2.705-.079v-7.387c0-.137.012-.307-.01-.51l-.02-.126.01.043c.134.453.388.996.867 1.47a3.446 3.446 0 0 0 1.448.843c.386.108.702.126.849.129h.106c1.834 0 3.35-1.41 3.35-3.327V16.5h6.88Zm-13.64 7.268v6.788c0 .113.013.328.069.598v.006l-.05-.144c-.035-.083-.187-.366-.499-.7-.342-.366-.692-.495-1.08-.678-.23-.109-.513-.249-.92-.36a10.295 10.295 0 0 0-2.36-.359c.45-.086 2.584-.598 3.88-2.516.646-.955.8-1.836.96-2.635Zm0-7.268v6.03a6.57 6.57 0 0 0-1.84-4.113c-1.395-1.432-3.148-1.82-3.76-1.917h5.6Z" fill="#FF325B"/><path d="M43.26 34.326a2.512 2.512 0 0 0-.42-.513 4.119 4.119 0 0 0-1.141-.767c-.451-.202-.904-.319-2.032-.436a28.297 28.297 0 0 0-2.367-.137v6.948h-5.8V16.5h12.6l.306.005c.612.097 2.266.448 3.661 1.88 1.518 1.557 1.74 3.345 1.793 4.025v1.438c-.074.756-.283 1.692-.905 2.611-1.296 1.918-3.351 2.36-3.801 2.446a9.425 9.425 0 0 1 2.238.32c.406.111.68.219.91.327.387.184.75.353 1.093.72.311.334.45.66.484.744.178.436.181 1.138.181 1.337v.248l.001 1.659v5.162c-1.052-.078-1.467-.192-1.723-.27-1.423-.431-2.273-1.05-2.564-1.275a7.273 7.273 0 0 1-1.457-1.496 6.806 6.806 0 0 1-.805-1.48 2.396 2.396 0 0 0-.251-.575Zm2.214-11.128-7.457-3.676a.64.64 0 0 0-.92.574v7.345a.64.64 0 0 0 .92.575l7.457-3.677a.635.635 0 0 0 0-1.141Z" fill="#FF325B"/><path d="M77.481 16.897c-.024.395-.07.714-.138.958a1.571 1.571 0 0 1-.326.632v.054h3.217v-4.986h-2.537l-.216 3.342Zm-1.213 2.366v1.27H75.5V18.54h.492c.23-.119.398-.314.505-.584.11-.273.18-.633.207-1.078l.253-4.046h4.104v5.708h.827v1.991h-.767v-1.27h-4.853Zm7.401-1.074c.255.312.616.468 1.085.468s.83-.156 1.085-.468c.254-.315.381-.758.381-1.328 0-.57-.127-1.011-.381-1.323-.255-.315-.616-.472-1.085-.472s-.83.157-1.085.472c-.254.312-.381.753-.381 1.323s.127 1.013.381 1.328Zm2.753.494c-.407.443-.963.664-1.668.664s-1.262-.221-1.673-.664c-.407-.445-.611-1.053-.611-1.822 0-.772.204-1.38.611-1.822.408-.443.965-.664 1.673-.664.708 0 1.265.221 1.673.664.407.443.611 1.05.611 1.822 0 .77-.205 1.377-.616 1.822Zm5.766-2.753h-.8a1.09 1.09 0 0 0-.436-.62c-.22-.163-.501-.244-.841-.244-.445 0-.799.16-1.062.48-.26.322-.39.754-.39 1.297 0 .553.131.994.395 1.324.263.326.615.49 1.057.49.334 0 .61-.073.831-.219a1.04 1.04 0 0 0 .446-.623h.8a1.711 1.711 0 0 1-.657 1.109c-.365.282-.837.423-1.416.423-.695 0-1.248-.226-1.659-.677-.41-.454-.616-1.063-.616-1.827 0-.748.206-1.347.616-1.795.41-.449.962-.673 1.655-.673.579 0 1.05.147 1.415.441.368.294.588.665.662 1.114Zm4.332-1.47v.641H94.91v4.162h-.79V15.1h-1.609v-.641h4.008ZM97.818 21c-.125 0-.243-.009-.353-.027v-.654c.08.014.19.022.33.022.23 0 .413-.06.547-.178.138-.12.259-.323.363-.61l.092-.286-1.833-4.807h.854l1.36 3.952h.074l1.356-3.952h.841l-1.935 5.097c-.212.555-.436.934-.675 1.136-.24.205-.58.307-1.02.307Zm7.71-1.737V15.1h-2.427v4.162h-.79V14.46h4.007v4.803h-.79Zm2.08 0V14.46h.79v1.987h2.473V14.46h.79v4.803h-.79v-2.175h-2.473v2.175h-.79Zm6.298-1.074c.255.312.616.468 1.085.468s.83-.156 1.084-.468c.255-.315.382-.758.382-1.328 0-.57-.127-1.011-.382-1.323-.254-.315-.615-.472-1.084-.472-.469 0-.83.157-1.085.472-.254.312-.381.753-.381 1.323s.127 1.013.381 1.328Zm2.753.494c-.407.443-.963.664-1.668.664-.704 0-1.262-.221-1.673-.664-.407-.445-.611-1.053-.611-1.822 0-.772.204-1.38.611-1.822.408-.443.965-.664 1.673-.664.708 0 1.265.221 1.673.664.407.443.611 1.05.611 1.822 0 .77-.205 1.377-.616 1.822Zm6.035-3.582h-1.209v1.355h1.081c.621 0 .932-.229.932-.686a.619.619 0 0 0-.202-.49c-.132-.12-.333-.179-.602-.179Zm-.059 1.996h-1.15v1.524h1.301c.303 0 .533-.064.689-.192.16-.13.239-.317.239-.561 0-.264-.09-.459-.271-.584-.177-.124-.447-.187-.808-.187Zm-1.94 2.166V14.46h2.1c.463 0 .826.111 1.089.334.264.22.396.518.396.895 0 .238-.078.455-.235.65a.965.965 0 0 1-.574.362v.071c.312.042.562.165.749.37.187.202.28.448.28.74 0 .421-.15.757-.45 1.006-.301.25-.716.375-1.246.375h-2.109ZM80.86 34.3h-2.825v5.622H75.5V25.334h5.13c1.684 0 2.983.377 3.898 1.132.915.755 1.372 1.847 1.372 3.276 0 .975-.235 1.792-.706 2.45-.47.658-1.127 1.164-1.969 1.518l3.277 6.082v.13h-2.716L80.861 34.3Zm-2.825-2.033h2.605c.855 0 1.523-.215 2.004-.646.481-.431.721-1.02.721-1.769 0-.781-.222-1.386-.666-1.813-.444-.428-1.107-.648-1.989-.662h-2.675v4.89ZM94.637 38.86c-.715.841-1.73 1.262-3.046 1.262-1.176 0-2.066-.344-2.67-1.032-.605-.688-.907-1.683-.907-2.986v-7.023h2.435v6.993c0 1.376.57 2.064 1.713 2.064 1.182 0 1.98-.424 2.395-1.272V29.08h2.434v10.84h-2.294l-.06-1.061ZM102.995 25.334l4.208 11.181 4.198-11.181h3.276v14.588h-2.524v-4.81l.25-6.432-4.308 11.242h-1.814l-4.298-11.232.25 6.422v4.81h-2.525V25.334h3.287ZM123.914 39.922c-.107-.207-.2-.544-.28-1.012-.775.808-1.724 1.212-2.846 1.212-1.089 0-1.977-.31-2.665-.932-.688-.62-1.032-1.389-1.032-2.304 0-1.156.429-2.042 1.288-2.66.858-.618 2.085-.927 3.682-.927h1.493v-.711c0-.562-.157-1.01-.471-1.348-.314-.337-.792-.506-1.433-.506-.555 0-1.009.139-1.363.416-.354.277-.531.63-.531 1.057h-2.435c0-.595.197-1.15.592-1.668.394-.518.93-.924 1.608-1.218.678-.294 1.434-.44 2.269-.44 1.269 0 2.281.318 3.036.956.755.638 1.142 1.535 1.162 2.69v4.89c0 .975.137 1.753.411 2.334v.17h-2.485Zm-2.675-1.754c.481 0 .934-.117 1.358-.35.424-.234.743-.548.957-.942v-2.044h-1.313c-.902 0-1.58.157-2.034.47-.454.315-.681.759-.681 1.334 0 .467.155.84.466 1.117.31.277.726.415 1.247.415ZM134.215 31.305a6.007 6.007 0 0 0-.991-.08c-1.116 0-1.867.427-2.255 1.282v7.415h-2.435V29.08h2.325l.06 1.212c.588-.942 1.403-1.413 2.445-1.413.347 0 .634.047.861.14l-.01 2.285ZM139.274 35.273l-1.082 1.112v3.537h-2.435v-15.39h2.435v8.877l.761-.952 2.996-3.376h2.926l-4.028 4.518 4.458 6.323h-2.815l-3.216-4.65ZM151.237 40.122c-1.543 0-2.793-.486-3.752-1.458-.958-.971-1.438-2.266-1.438-3.882v-.3c0-1.083.209-2.05.627-2.901.417-.852 1.003-1.515 1.758-1.99a4.648 4.648 0 0 1 2.525-.71c1.476 0 2.617.47 3.422 1.412.804.942 1.207 2.275 1.207 3.998v.982h-7.084c.074.895.373 1.603.897 2.124.524.521 1.184.782 1.979.782 1.115 0 2.024-.451 2.725-1.353l1.313 1.252a4.39 4.39 0 0 1-1.739 1.508c-.725.358-1.538.536-2.44.536Zm-.29-9.288c-.668 0-1.207.234-1.618.701-.411.468-.673 1.12-.787 1.954h4.639v-.18c-.053-.815-.27-1.431-.651-1.849-.381-.417-.908-.626-1.583-.626ZM160.526 26.445v2.635h1.914v1.804h-1.914v6.052c0 .414.082.713.245.897.164.183.456.275.877.275.281 0 .564-.033.852-.1v1.883a6.002 6.002 0 0 1-1.603.23c-1.871 0-2.806-1.031-2.806-3.095v-6.142h-1.783V29.08h1.783v-2.635h2.435Z" fill="#1F2023"/></svg>
