<svg width="149" height="43" viewBox="0 0 149 43" fill="none" xmlns="http://www.w3.org/2000/svg">
    <rect x="0.923218" width="147.641" height="42.4358" rx="7.07263" fill="#F6F7FB"/>
    <path fill-rule="evenodd" clip-rule="evenodd" d="M38.5142 31.8268C33.7132 31.8268 31.3127 31.8268 29.8212 30.3353C28.3297 28.8438 28.3297 26.4433 28.3297 21.6422L28.3297 20.7935C28.3297 15.9924 28.3297 13.5919 29.8211 12.1004C31.3127 10.6089 33.7132 10.6089 38.5142 10.6089L39.3629 10.6089C44.164 10.6089 46.5645 10.6089 48.056 12.1004C49.5475 13.5919 49.5475 15.9924 49.5475 20.7935V21.6422C49.5475 26.4433 49.5475 28.8438 48.056 30.3353C46.5645 31.8268 44.164 31.8268 39.3629 31.8268H38.5142Z" fill="#2B71F6"/>
    <path d="M40.5987 23.685C40.0271 23.5422 39.6263 23.0309 39.6263 22.4443V15.5346C39.6263 14.8684 40.2557 14.3798 40.9051 14.542L45.017 15.5692C45.5886 15.712 45.9895 16.2234 45.9895 16.8099V23.7196C45.9895 24.3858 45.36 24.8744 44.7107 24.7122L40.5987 23.685Z" fill="white"/>
    <path d="M32.8596 26.8668C32.288 26.724 31.8871 26.2127 31.8871 25.6262V18.7164C31.8871 18.0502 32.5166 17.5616 33.1659 17.7238L37.2779 18.7511C37.8495 18.8938 38.2503 19.4052 38.2503 19.9917V26.9015C38.2503 27.5677 37.6209 28.0563 36.9715 27.894L32.8596 26.8668Z" fill="white"/>
    <path d="M36.7292 25.2757C36.1575 25.1329 35.7567 24.6216 35.7567 24.0351V17.1253C35.7567 16.4591 36.3862 15.9705 37.0355 16.1327L41.1474 17.16C41.7191 17.3028 42.1199 17.8141 42.1199 18.4006V25.3104C42.1199 25.9766 41.4904 26.4651 40.8411 26.303L36.7292 25.2757Z" fill="white"/>
    <path d="M39.4204 25.9499C39.2403 25.904 39.1121 25.7448 39.1058 25.5591L38.9269 20.2821C38.8752 19.5838 38.3568 19.0283 37.815 18.8647C37.7846 18.8556 37.7521 18.8679 37.7341 18.8941C37.7158 18.9207 37.7229 18.9575 37.7484 18.9772C37.8822 19.0808 38.2504 19.4188 38.2504 20.0017L38.2493 25.6531L39.4204 25.9499Z" fill="#2B71F6"/>
    <path d="M43.2912 24.3576C43.1113 24.3126 42.983 24.1538 42.9767 23.9685L42.7978 18.6919C42.746 17.9935 42.2276 17.438 41.6858 17.2744C41.6554 17.2653 41.623 17.2776 41.6049 17.3038C41.5866 17.3304 41.5937 17.3672 41.6193 17.387C41.7531 17.4905 42.1212 17.8285 42.1212 18.4114L42.1202 24.0648L43.2912 24.3576Z" fill="#2B71F6"/>
    <path d="M58.1211 12.8039C58.1026 13.1033 58.0677 13.3453 58.0167 13.5298C57.9679 13.7144 57.8855 13.8742 57.7694 14.0092V14.0498H60.2072V10.2718H58.2848L58.1211 12.8039ZM57.2017 14.5967V15.5589H56.6201V14.0498H56.9928C57.1669 13.9597 57.2946 13.8123 57.3759 13.6075C57.4594 13.4004 57.5117 13.1281 57.5326 12.7905L57.7241 9.72485H60.834V14.0498H61.4609V15.5589H60.8793V14.5967H57.2017ZM62.8106 13.783C63.0033 14.0194 63.2773 14.1375 63.6325 14.1375C63.9877 14.1375 64.2617 14.0194 64.4544 13.783C64.6471 13.5444 64.7434 13.2091 64.7434 12.7769C64.7434 12.3448 64.6471 12.0105 64.4544 11.7742C64.2617 11.5356 63.9877 11.4163 63.6325 11.4163C63.2773 11.4163 63.0033 11.5356 62.8106 11.7742C62.6179 12.0105 62.5216 12.3448 62.5216 12.7769C62.5216 13.2091 62.6179 13.5444 62.8106 13.783ZM64.8967 14.1578C64.5879 14.4932 64.1665 14.6608 63.6325 14.6608C63.0985 14.6608 62.6759 14.4932 62.3648 14.1578C62.0561 13.8202 61.9017 13.3599 61.9017 12.7769C61.9017 12.1917 62.0561 11.7314 62.3648 11.3961C62.6736 11.0607 63.0962 10.893 63.6325 10.893C64.1688 10.893 64.5914 11.0607 64.9001 11.3961C65.2089 11.7314 65.3633 12.1917 65.3633 12.7769C65.3633 13.3599 65.2078 13.8202 64.8967 14.1578ZM69.2659 12.0713H68.6596C68.6089 11.88 68.4983 11.7236 68.3289 11.602C68.1618 11.4782 67.9493 11.4163 67.6916 11.4163C67.355 11.4163 67.0868 11.5379 66.8872 11.7809C66.6898 12.024 66.5911 12.3515 66.5911 12.7634C66.5911 13.1821 66.691 13.5163 66.8907 13.7662C67.0903 14.0137 67.3573 14.1375 67.6916 14.1375C67.9447 14.1375 68.1548 14.0824 68.322 13.9721C68.4916 13.8618 68.6041 13.7043 68.6596 13.4995H69.2659C69.21 13.8438 69.044 14.124 68.7678 14.3401C68.4916 14.5539 68.1339 14.6608 67.6951 14.6608C67.1681 14.6608 66.749 14.4898 66.4379 14.1477C66.1268 13.8033 65.9713 13.3419 65.9713 12.7634C65.9713 12.1962 66.1268 11.7427 66.4379 11.4028C66.749 11.063 67.1669 10.893 67.6916 10.893C68.1304 10.893 68.488 11.0044 68.7642 11.2272C69.0428 11.4501 69.21 11.7314 69.2659 12.0713ZM72.5483 10.9572V11.4433H71.3295V14.5967H70.7304V11.4433H69.5115V10.9572H72.5483ZM73.5322 15.9134C73.4371 15.9134 73.3479 15.9067 73.2643 15.8932V15.3969C73.3245 15.4081 73.4081 15.4138 73.5147 15.4138C73.6891 15.4138 73.8274 15.3687 73.9292 15.2787C74.0338 15.1887 74.1253 15.0345 74.2046 14.8162L74.2739 14.6001L72.8847 10.9572H73.5322L74.5632 13.9518H74.619L75.6461 10.9572H76.2836L74.8176 14.8195C74.6571 15.2404 74.4867 15.5274 74.3056 15.6805C74.1245 15.8358 73.8666 15.9134 73.5322 15.9134ZM79.3747 14.5967V11.4433H77.5358V14.5967H76.9366V10.9572H79.9734V14.5967H79.3747ZM80.9505 14.5967V10.9572H81.5497V12.4629H83.4231V10.9572H84.0222V14.5967H83.4231V12.9491H81.5497V14.5967H80.9505ZM85.7236 13.783C85.9162 14.0194 86.1904 14.1375 86.5454 14.1375C86.9009 14.1375 87.1747 14.0194 87.3672 13.783C87.5602 13.5444 87.6565 13.2091 87.6565 12.7769C87.6565 12.3448 87.5602 12.0105 87.3672 11.7742C87.1747 11.5356 86.9009 11.4163 86.5454 11.4163C86.1904 11.4163 85.9162 11.5356 85.7236 11.7742C85.5311 12.0105 85.4348 12.3448 85.4348 12.7769C85.4348 13.2091 85.5311 13.5444 85.7236 13.783ZM87.8098 14.1578C87.5008 14.4932 87.0796 14.6608 86.5454 14.6608C86.0117 14.6608 85.5889 14.4932 85.2779 14.1578C84.9692 13.8202 84.8147 13.3599 84.8147 12.7769C84.8147 12.1917 84.9692 11.7314 85.2779 11.3961C85.5865 11.0607 86.0093 10.893 86.5454 10.893C87.0819 10.893 87.5043 11.0607 87.813 11.3961C88.1221 11.7314 88.2762 12.1917 88.2762 12.7769C88.2762 13.3599 88.1209 13.8202 87.8098 14.1578ZM92.3828 11.4433H91.4667V12.4697H92.2853C92.7565 12.4697 92.9922 12.2964 92.9922 11.9498C92.9922 11.7922 92.9411 11.6684 92.8389 11.5784C92.739 11.4883 92.5869 11.4433 92.3828 11.4433ZM92.3376 12.9559H91.4667V14.1105H92.4526C92.6824 14.1105 92.8563 14.0621 92.9748 13.9653C93.0956 13.8663 93.1559 13.7245 93.1559 13.5399C93.1559 13.3396 93.0873 13.1922 92.9502 13.0977C92.8159 13.0031 92.6114 12.9559 92.3376 12.9559ZM90.868 14.5967V10.9572H92.4593C92.81 10.9572 93.085 11.0416 93.2847 11.2104C93.4844 11.3769 93.5842 11.6031 93.5842 11.889C93.5842 12.069 93.5252 12.2334 93.4067 12.3819C93.2906 12.5282 93.1456 12.6194 92.9712 12.6554V12.7094C93.2082 12.7409 93.3972 12.8343 93.539 12.9896C93.6805 13.1427 93.7514 13.3295 93.7514 13.5501C93.7514 13.8697 93.6377 14.124 93.4103 14.3131C93.1824 14.5022 92.8678 14.5967 92.4664 14.5967H90.868Z" fill="#1F2023"/>
    <path d="M61.2008 26.2439C62.6322 25.8789 63.5729 24.7841 63.5729 23.3514C63.5729 21.5807 62.1551 20.3372 60.1647 20.3372H56.6201V29.8663H58.2561V26.3655H59.4149L61.9506 29.8663H63.8728L61.2008 26.2439ZM60.1647 21.824C61.1872 21.824 61.8961 22.4458 61.8961 23.3514C61.8961 24.257 61.1872 24.8787 60.1647 24.8787H58.2561V21.824H60.1647Z" fill="#1F2023"/>
    <path d="M67.5537 30.0015C68.4126 30.0015 69.2033 29.5554 69.6532 28.812L69.9668 29.8663H71.1392V22.8377H69.5714V26.9062C69.5714 27.9064 68.9034 28.6093 67.99 28.6093C67.0902 28.6093 66.4631 27.9064 66.4631 26.9062V22.8377H64.8954V27.0819C64.8954 28.7715 66.0405 30.0015 67.5537 30.0015Z" fill="#1F2023"/>
    <path d="M76.1438 30.0015C77.957 30.0015 79.4566 28.9742 79.4566 27.2711C79.4566 25.3653 77.8889 24.8112 76.5392 24.3516C75.4894 24.0001 74.5761 23.6758 74.5761 22.8242C74.5761 22.0808 75.2713 21.6889 76.0893 21.6889C76.9482 21.6889 77.5617 22.1349 77.9025 22.8918L79.4566 22.635C78.9656 21.1482 77.7253 20.202 76.0348 20.202C74.2897 20.202 72.8992 21.2023 72.8992 22.9053C72.8992 24.8247 74.467 25.3518 75.8166 25.7978C76.8528 26.1358 77.7798 26.4601 77.7798 27.3252C77.7798 28.0821 77.0845 28.5146 76.1575 28.5146C75.0941 28.5146 74.5215 28.0146 74.0171 27.1089L72.4357 27.3793C72.8992 28.9877 74.3715 30.0015 76.1438 30.0015Z" fill="#1F2023"/>
    <path d="M83.7202 28.5147C83.1886 28.5147 82.9296 28.2579 82.9296 27.7307V24.1894H85.0424V22.8378H82.9296V20.8103H81.7572L81.3616 22.8378H80.2029V24.1894H81.3616V27.7307C81.3616 29.1094 82.1659 29.8663 83.7202 29.8663H85.0424L85.179 28.5147H83.7202Z" fill="#1F2023"/>
    <path d="M89.6588 30.0014C91.8813 30.0014 93.4488 28.4875 93.4488 26.352C93.4488 24.2164 91.8813 22.7025 89.6588 22.7025C87.4368 22.7025 85.8688 24.2164 85.8688 26.352C85.8688 28.4875 87.4368 30.0014 89.6588 30.0014ZM89.6588 28.5822C88.3772 28.5822 87.5049 27.6766 87.5049 26.352C87.5049 25.0274 88.3772 24.1217 89.6588 24.1217C90.9404 24.1217 91.8128 25.0274 91.8128 26.352C91.8128 27.6766 90.9404 28.5822 89.6588 28.5822Z" fill="#1F2023"/>
    <path d="M96.3801 29.8663V25.7168C96.3801 24.8247 96.8163 24.3246 97.7704 24.3246H98.6702L98.5341 22.8377H98.234C97.4027 22.8377 96.7619 23.0675 96.2847 23.8515L95.9846 22.8377H94.8121V29.8663H96.3801Z" fill="#1F2023"/>
    <path d="M106.385 26.2709C106.385 24.2434 104.858 22.7025 102.704 22.7025C100.55 22.7025 99.0234 24.2299 99.0234 26.352C99.0234 28.474 100.55 30.0014 102.704 30.0014C104.176 30.0014 105.567 29.3121 106.099 27.974L104.626 27.7306C104.285 28.2307 103.631 28.5822 102.8 28.5822C101.6 28.5822 100.809 27.8523 100.659 26.771H106.358C106.371 26.6223 106.385 26.4601 106.385 26.2709ZM102.704 24.0542C103.686 24.0542 104.422 24.6759 104.681 25.5545H100.754C101.014 24.6489 101.75 24.0542 102.704 24.0542Z" fill="#1F2023"/>
</svg>
