  <svg fill="none" xmlns="http://www.w3.org/2000/svg" viewBox="0 0 282 192">
          <path
            fill-rule="evenodd"
            clip-rule="evenodd"
            d="M131.904 16c15.876-.093 25.866 16.3 39.056 25.12 13.921 9.307 35.086 12.021 40.276 27.921 5.19 15.9-7.378 31.94-16.07 46.236-6.992 11.5-18.888 17.786-28.553 27.162-11.952 11.593-18.147 32.333-34.709 34.204-16.412 1.855-29.29-13.966-40.933-25.657-10.068-10.109-17.545-22.336-20.705-36.235-2.952-12.983-.33-26.083 3.649-38.79 4.023-12.847 9.9-24.696 19.267-34.382C104.2 30.186 116.037 16.094 131.904 16Z"
            fill="#F1F6FD"
          />
          <path
            d="M6.13 138.861v-18.502l40.215-63.367h16.44v25.116h-9.538L29.712 119.4v.767H87.95v18.694H6.13Zm47.405 16.297v-21.953l.48-8.101V56.992h22.192v98.166H53.535Zm87.453 2.396c-8.564 0-15.946-2.029-22.145-6.087-6.199-4.09-10.977-9.954-14.332-17.591-3.355-7.67-5.017-16.889-4.985-27.658.032-10.769 1.71-19.908 5.033-27.417 3.355-7.541 8.117-13.278 14.284-17.208 6.199-3.962 13.581-5.944 22.145-5.944s15.946 1.982 22.145 5.944c6.231 3.93 11.024 9.666 14.38 17.208 3.355 7.541 5.017 16.68 4.985 27.417 0 10.801-1.678 20.036-5.033 27.706-3.355 7.669-8.133 13.533-14.332 17.591-6.167 4.026-13.549 6.039-22.145 6.039Zm0-19.412c5.113 0 9.251-2.605 12.415-7.813 3.163-5.241 4.729-13.278 4.697-24.111 0-7.094-.719-12.941-2.157-17.543-1.438-4.633-3.435-8.085-5.992-10.353-2.556-2.27-5.544-3.404-8.963-3.404-5.081 0-9.187 2.573-12.319 7.717-3.131 5.113-4.713 12.974-4.745 23.583-.032 7.19.655 13.15 2.061 17.879 1.438 4.73 3.451 8.261 6.04 10.593 2.588 2.301 5.576 3.452 8.963 3.452Zm53.9.719v-18.502l40.216-63.367h16.441v25.116h-9.539L218.471 119.4v.767h58.239v18.694h-81.822Zm47.406 16.297v-21.953l.479-8.101V56.992h22.193v98.166h-22.672Z"
            fill="#C7D3FF"
          />
          <path
            d="m112.5 85.5 3.5-3 1-1 4 2.5 13 4.5h14l12.5-3 8-4 3 2.5 4 7 1.5 8.5v28l-1.5 9L174 151l-2.5 23 4 2 4 4.5.5 5-3 3-5.5 1.5h-13l-7-1.5-3.5-3-2-5.5v-8.5l1-10.5v-9h-9v6l1.5 16v8l-1.5 3.5-4 3-9 1.5h-12.5l-4.5-1.5-2.5-3V182l2.5-5 6-3-1.5-7.5-2-18-1-18-1.5-13v-15l1.5-11.5 3-5.5Z"
            fill="#D2DCFF"
          />
          <path
            d="m113 85 3-3 1-1 1 1-2 6-2 10.5-3 13-2.5 5.5V95.5l1.5-6 3-4.5ZM172.5 85l-3-3-1-1-1 1 2 6 2 10.5 3 13 2.5 5.5V95.5l-1.5-6-3-4.5Z"
            fill="#5D74F7"
          />
          <path
            d="m120 115.5 3-3.5 2.5-1.5 6.5-3 5 8 6 5.5 4.5-4 7.5-9.5 7 3 4.5 4.5 2 5v2.5L166 129l-4 4-3 2.5-4 2-4.5 1h-4l-3.5-1-3 1h-5l-6.5-2-5.5-4.5-4-7-1.5-5 2.5-4.5ZM119 166l-6-1 1 9.5-3 1.5-4 2.5-1.5 4.5.5 4 5 2.5h11.5L134 188l5-4.5V164l-11 2h-9ZM166.5 166l6-1-1 9.5 3 1.5 4 2.5 1.5 4.5-.5 4-5 2.5H163l-11.5-1.5-5-4.5V164l11 2h9Z"
            fill="#F9FAFC"
          />
          <path
            d="M114 123h3.5l1.5 3.5 3 5h-10l-2-2v-3l1-2.5 3-1ZM171 123h-3.5l-1.5 3.5-3 5h10l2-2v-3l-1-2.5-3-1Z"
            fill="#89A4F8"
          />
          <path
            d="m93.5 34.5 5-3.5h2.5l3.5-7 7.5-9.5L123 7l10-3.5 10-1L153.5 4l11 4 9 6.5 5 5 4.5 10 3.5 11.5-.5 13-3 9-6.5 11-6.5 6-10.5 6-8.5 2.5-9.5.5-9.5-1-10.5-3.5-8-6-6.5-7-6.5-12.5-1.5-.5-6-3.5-2-7.5.5-8 2-5Z"
            fill="#F9FAFC"
          />
          <path
            d="M142.67 83.91c24.306 0 44.01-15.204 44.01-33.96 0-18.755-19.704-33.96-44.01-33.96-24.306 0-44.01 15.205-44.01 33.96 0 18.756 19.704 33.96 44.01 33.96Z"
            fill="#5D74F7"
          />
          <path
            d="m96.5 32 4-1v1.5l-2 8.5v9.5L100 58h-3l-4-3-1-4-1-7.5 1-6.5 2.5-3 2-2ZM189 32l-4-1v1.5l2 8.5v9.5l-1.5 7.5h3l4-3 1-4 1-7.5-1-6.5-2.5-3-2-2Z"
            fill="#89A4F8"
          />
          <path
            d="M142.67 89.06c24.306 0 44.01-19.377 44.01-43.28 0-23.903-19.704-43.28-44.01-43.28-24.306 0-44.01 19.377-44.01 43.28 0 23.903 19.704 43.28 44.01 43.28Z"
            stroke="#1F2023"
            stroke-width="2"
            stroke-miterlimit="10"
            stroke-linecap="round"
            stroke-linejoin="round"
          />
          <path
            d="M100.64 32.95c5.56-12.55 22.27-21.66 42-21.66s36.45 9.1 42 21.63M118.24 81.77s-12.18 34.43-8.18 61.7c4 27.27 4.32 31.09 4.32 31.09"
            stroke="#1F2023"
            stroke-width="2"
            stroke-miterlimit="10"
            stroke-linecap="round"
            stroke-linejoin="round"
          />
          <path
            d="M129.17 176.56s-22.62-8.48-23.78 7.81c0 0-1.16 10 27.6 3.83 0 0 7.62-1.09 6.64-13.85-.98-12.76-1.46-22.4-1.46-22.4"
            stroke="#1F2023"
            stroke-width="2"
            stroke-miterlimit="10"
            stroke-linecap="round"
            stroke-linejoin="round"
          />
          <path
            d="M113.17 164.93s8.17 4.24 25.74-1.21M116.87 80.83s-9.31 6.28-8.48 20.58c.83 14.3-1.14 26.1.84 30.26M167.06 81.79s12.22 34.41 8.22 61.68c-4 27.27-4.32 31.09-4.32 31.09"
            stroke="#1F2023"
            stroke-width="2"
            stroke-miterlimit="10"
            stroke-linecap="round"
            stroke-linejoin="round"
          />
          <path
            d="M156.17 176.56s22.62-8.48 23.78 7.81c0 0 1.16 10-27.6 3.83 0 0-7.62-1.09-6.64-13.85.98-12.76 1.49-22.4 1.49-22.4"
            stroke="#1F2023"
            stroke-width="2"
            stroke-miterlimit="10"
            stroke-linecap="round"
            stroke-linejoin="round"
          />
          <path
            d="M172.17 164.93s-8.17 4.24-25.74-1.21M168.67 80.83s9.11 6.28 8.28 20.58c-.83 14.3 1.14 26.1-.84 30.26M126 146.24s15 12.64 33.34 0M163.32 91.15s-8.58 20-17.7 27.6c-9.12 7.6-6.13 23.17 6.83 19.62 12.96-3.55 15.2-12.08 16.64-19"
            stroke="#1F2023"
            stroke-width="2"
            stroke-miterlimit="10"
            stroke-linecap="round"
            stroke-linejoin="round"
          />
          <path
            d="M143.22 136.87c-2 1.84-5.14 2.62-9.25 1.5-13-3.54-15.19-12.08-16.63-19M123.11 91.15s8.58 20 17.7 27.6a15.497 15.497 0 0 1 2.41 2.54M154.71 107.48s13.33 3.72 14 13.81"
            stroke="#1F2023"
            stroke-width="2"
            stroke-miterlimit="10"
            stroke-linecap="round"
            stroke-linejoin="round"
          />
          <path
            d="M131.67 107.48s-13.33 3.72-14 13.81M122.51 131.71h-8.4a4.528 4.528 0 0 1-4.53-4.53v0a4.528 4.528 0 0 1 4.53-4.53h4M168.35 122.61h3.23a4.528 4.528 0 0 1 4.53 4.53v0a4.528 4.528 0 0 1-4.53 4.53h-7.66M183.73 30.85h.7a9.629 9.629 0 0 1 9.63 9.63v8.46a9.63 9.63 0 0 1-9.63 9.62v0M101.64 30.85h-.71a9.63 9.63 0 0 0-9.63 9.63v8.46a9.63 9.63 0 0 0 9.63 9.62v0"
            stroke="#1F2023"
            stroke-width="2"
            stroke-miterlimit="10"
            stroke-linecap="round"
            stroke-linejoin="round"
          />
          <path d="m89.036 25.533 2.5 4-1 1-5.5-1-4.5-1.5-1.5-1.5.5-2.5 2-1.5h4.5l3 3Z" fill="url(#a)" />
          <path
            d="M92.026 31.943s-3-13.9-11.34-8.83a3.31 3.31 0 0 0-1.62 3.54c.32 1.32 1.6 2.67 5.42 2.8 7.64.26 7.54 2.49 7.54 2.49Z"
            stroke="#1F2023"
            stroke-width="2"
            stroke-linecap="round"
            stroke-linejoin="round"
          />
          <path
            d="m78.528 36.517 4.072 2.38-.42 1.35-5.335 1.671-4.682.763-2.025-.631-.72-2.446 1.075-2.258 3.984-2.091 4.05 1.262Z"
            fill="url(#b)"
          />
          <path
            d="M84.154 40.804S75.04 29.89 70.01 38.254a3.31 3.31 0 0 0 .21 3.888c.897 1.02 2.658 1.62 6.1-.04 6.886-3.32 7.834-1.298 7.834-1.298Z"
            stroke="#1F2023"
            stroke-width="2"
            stroke-linecap="round"
            stroke-linejoin="round"
          />
          <path
            d="m203.626 36.517-4.072 2.38.421 1.35 5.335 1.671 4.681.763 2.025-.631.719-2.446-1.073-2.258-3.985-2.091-4.051 1.262Z"
            fill="url(#c)"
          />
          <path
            d="M198 40.804s9.116-10.914 14.145-2.55a3.309 3.309 0 0 1-.211 3.888c-.897 1.02-2.657 1.62-6.1-.04-6.886-3.32-7.834-1.298-7.834-1.298Z"
            stroke="#1F2023"
            stroke-width="2"
            stroke-linecap="round"
            stroke-linejoin="round"
          />
          <path
            d="m80.47 50.44 4.715.112.285 1.385-3.86 4.044-3.727 2.933-2.078.428-1.813-1.792-.153-2.495 2.475-3.759 4.156-.856Z"
            fill="url(#d)"
          />
          <path
            d="M87.468 51.468s-13.26-5.138-13.612 4.615a3.31 3.31 0 0 0 2.066 3.3c1.279.459 3.11.132 5.32-2.987 4.418-6.238 6.225-4.928 6.225-4.928Z"
            stroke="#1F2023"
            stroke-width="2"
            stroke-linecap="round"
            stroke-linejoin="round"
          />
          <path d="m195.99 25.533-2.5 4 1 1 5.5-1 4.5-1.5 1.5-1.5-.5-2.5-2-1.5h-4.5l-3 3Z" fill="url(#e)" />
          <path
            d="M193 31.943s3-13.9 11.34-8.83a3.31 3.31 0 0 1 1.62 3.54c-.32 1.32-1.6 2.67-5.42 2.8-7.64.26-7.54 2.49-7.54 2.49Z"
            stroke="#1F2023"
            stroke-width="2"
            stroke-linecap="round"
            stroke-linejoin="round"
          />
          <path
            d="m204.998 50.44-4.716.112-.285 1.385 3.86 4.044 3.727 2.933 2.078.428 1.813-1.792.153-2.495-2.475-3.759-4.155-.856Z"
            fill="url(#f)"
          />
          <path
            d="M198 51.468s13.259-5.138 13.611 4.615a3.307 3.307 0 0 1-2.066 3.3c-1.278.459-3.109.132-5.319-2.987-4.418-6.238-6.226-4.928-6.226-4.928Z"
            stroke="#1F2023"
            stroke-width="2"
            stroke-linecap="round"
            stroke-linejoin="round"
          />
          <ellipse opacity=".4" cx="164.92" cy="58.91" rx="4.92" ry="4.91" fill="#D2DCFF" />
          <ellipse opacity=".4" cx="168.337" cy="41.32" rx="8.337" ry="8.32" fill="#D2DCFF" />
          <path opacity=".4" d="M106.5 40.5c4-16 27-19 38-18.5 6 6-21 13.5-24.5 25.5s-18.5 13-13.5-7Z" fill="#D2DCFF" />
          <defs>
            <linearGradient id="a" x1="79.036" y1="24.033" x2="93.036" y2="31.533" gradientUnits="userSpaceOnUse">
              <stop stop-color="#C4D1FF" />
              <stop offset="1" stop-color="#586FF6" />
            </linearGradient>
            <linearGradient id="b" x1="68.976" y1="39.836" x2="84.858" y2="39.971" gradientUnits="userSpaceOnUse">
              <stop stop-color="#C4D1FF" />
              <stop offset="1" stop-color="#586FF6" />
            </linearGradient>
            <linearGradient id="c" x1="213.178" y1="39.836" x2="197.296" y2="39.971" gradientUnits="userSpaceOnUse">
              <stop stop-color="#C4D1FF" />
              <stop offset="1" stop-color="#586FF6" />
            </linearGradient>
            <linearGradient id="d" x1="73.717" y1="57.968" x2="87.681" y2="50.399" gradientUnits="userSpaceOnUse">
              <stop stop-color="#C4D1FF" />
              <stop offset="1" stop-color="#586FF6" />
            </linearGradient>
            <linearGradient id="e" x1="205.99" y1="24.033" x2="191.99" y2="31.533" gradientUnits="userSpaceOnUse">
              <stop stop-color="#C4D1FF" />
              <stop offset="1" stop-color="#586FF6" />
            </linearGradient>
            <linearGradient id="f" x1="211.75" y1="57.968" x2="197.787" y2="50.399" gradientUnits="userSpaceOnUse">
              <stop stop-color="#C4D1FF" />
              <stop offset="1" stop-color="#586FF6" />
            </linearGradient>
          </defs>
        </svg>
