<svg width="114" height="44" viewBox="0 0 114 44" fill="none" xmlns="http://www.w3.org/2000/svg">
<g clip-path="url(#clip0_8740_324141)">
<path d="M113.971 7.52985C113.953 7.43879 113.831 7.33603 113.732 7.2976C112.167 6.69775 110.615 6.05864 109.027 5.52563C106.309 4.6125 103.58 3.72192 100.831 2.91155C98.2596 2.15784 95.6448 1.55857 93.0006 1.11703C89.1956 0.471233 85.3846 -0.101042 81.5009 0.0150834C79.1545 0.0852602 76.803 0.0401465 74.4616 0.17131C71.1546 0.355942 67.9101 0.988369 64.6962 1.76282C61.8694 2.44454 59.0841 3.26661 56.3115 4.12794L58.2893 5.43624C58.2961 5.31844 58.3113 5.18561 58.324 5.01852C58.4686 4.90156 58.6275 4.70356 58.8313 4.62419C59.1611 4.49721 59.5196 4.4404 59.8705 4.37356C59.9115 4.37738 59.9508 4.39152 59.9847 4.41463C60.0186 4.43774 60.046 4.46905 60.0641 4.50556C60.1257 4.8093 60.1709 5.11606 60.1994 5.42454C60.2054 5.47801 60.1267 5.57158 60.0675 5.59163C59.7208 5.7111 59.3699 5.81553 59.019 5.92581L57.672 7.82476C61.4872 6.72699 65.8148 5.59832 66.7762 5.52563C66.8667 6.30927 66.9682 7.09291 67.0451 7.87906C67.6539 14.0925 68.2597 20.3059 68.8623 26.5194C68.9637 27.557 69.0483 28.5954 69.1591 29.6322C69.1844 29.872 69.1362 29.9747 68.8876 30.0499C66.3738 30.7709 63.8599 31.491 61.3545 32.2421C60.864 32.3891 60.3745 32.5404 59.8857 32.6957L61.3908 33.7275C61.4424 33.7158 61.4948 33.705 61.5473 33.6958C61.773 33.6573 62.0013 33.6281 62.2296 33.5947C62.3142 33.9038 62.392 34.1962 62.4647 34.4635L63.5259 35.1912L62.8224 35.9815C64.9583 35.3533 67.1069 34.7676 69.2808 34.268C73.5086 33.2964 77.7813 32.6866 82.1334 32.7175C86.7984 32.7509 91.3365 33.5679 95.7402 35.0333C98.8502 36.0676 101.896 37.289 104.97 38.431C105.472 38.6182 105.97 38.8162 106.492 39.0158C106.724 38.1896 106.955 37.4101 107.16 36.6248C107.246 36.2919 107.302 35.9523 107.329 35.6098C107.363 35.182 107.292 34.7501 106.933 34.4711C106.694 34.2847 106.689 34.1076 106.751 33.8603C107.116 32.4142 107.481 30.9681 107.834 29.5161C108.358 27.3573 108.878 25.1971 109.392 23.0356C109.784 21.3705 110.159 19.7022 110.532 18.0321C110.845 16.6278 111.146 15.2209 111.447 13.8132C111.616 13.0187 111.766 12.2192 111.932 11.4238C112.017 11.0195 112.219 10.9033 112.616 11.0153C112.667 11.0295 112.716 11.0495 112.767 11.0637C113.11 11.1648 113.238 11.088 113.278 10.7346C113.29 10.5791 113.29 10.423 113.278 10.2676C113.265 9.90249 113.233 9.53824 113.238 9.17482C113.245 8.69111 113.415 8.2667 113.844 7.99853C114.055 7.86319 114.003 7.68607 113.971 7.52985ZM61.2327 5.25829C61.1397 4.98176 61.0636 4.72946 60.9706 4.48301C60.8429 4.14131 60.8928 4.03187 61.2513 3.95835C61.4982 3.90739 61.7527 3.88817 61.9963 3.82552C62.1741 3.76747 62.3476 3.69712 62.5154 3.61499C62.589 3.58491 62.6626 3.55734 62.7361 3.53144C62.7784 3.61006 62.8084 3.69457 62.8249 3.78207C62.8317 3.9266 62.7894 4.07364 62.8004 4.21734C62.8208 4.35882 62.8525 4.49849 62.8951 4.63506C62.9154 4.65093 62.9357 4.6668 62.9551 4.68351C62.5028 5.25077 61.7468 4.95921 61.2327 5.25829ZM63.7466 4.52144C63.7466 4.11291 63.7398 3.71023 63.7373 3.36686L65.617 2.94496C65.6237 3.39861 65.6305 3.79043 65.6373 4.2282C64.9913 4.20898 64.4476 4.71108 63.744 4.52144H63.7466ZM68.3126 3.51891C68.1215 3.65258 67.9169 3.80296 67.6962 3.85309C67.3428 3.93162 66.9716 3.93663 66.5733 3.97339C66.5665 3.55567 66.5598 3.15633 66.5539 2.82048L68.1461 2.40277C68.256 2.72942 68.3566 2.98089 68.4183 3.2382C68.4244 3.29039 68.4177 3.34325 68.3989 3.39238C68.3801 3.4415 68.3496 3.48546 68.3101 3.52058L68.3126 3.51891ZM104.997 6.48639C105.042 6.24411 105.122 6.00684 105.197 5.73449C105.825 5.66097 106.381 5.87652 106.914 6.15221C106.938 6.16861 106.957 6.19038 106.97 6.21569C106.984 6.24099 106.991 6.26909 106.99 6.29758C106.939 6.60168 106.875 6.90411 106.81 7.22993C106.177 7.31347 105.609 7.07704 105.062 6.7838C104.997 6.75456 104.975 6.58747 104.993 6.48806L104.997 6.48639ZM102.326 5.5014C102.402 5.26581 102.485 5.03272 102.58 4.76288L104.247 5.31677C104.206 5.62171 104.171 5.97593 104.102 6.32515C104.09 6.38363 103.927 6.46884 103.854 6.45213C103.453 6.36358 103.058 6.24996 102.663 6.13801C102.268 6.02606 102.205 5.88153 102.326 5.5014ZM99.7262 4.07615C99.9393 4.13129 100.177 4.19478 100.415 4.25493C100.699 4.32761 100.984 4.40364 101.271 4.46797C101.589 4.53814 101.633 4.60498 101.541 4.91409C101.456 5.18644 101.381 5.46047 101.287 5.76791L99.5614 5.30842L99.7262 4.07615ZM96.8699 3.98676C96.9308 3.79126 97.001 3.59828 97.0636 3.41532C97.5616 3.53395 98.0698 3.6484 98.5737 3.7804C98.6121 3.79722 98.6459 3.82293 98.6721 3.85536C98.6983 3.88779 98.7162 3.92599 98.7242 3.9667C98.7445 4.31675 98.7428 4.66847 98.7513 5.12379C98.1044 4.94333 97.5075 4.81718 96.9452 4.60247C96.7076 4.5089 96.8057 4.20313 96.8699 3.98425V3.98676ZM94.2487 2.86476C94.8346 2.89651 95.4232 2.98757 95.9576 3.28248C96.032 3.32425 96.0835 3.48633 96.0717 3.58407C96.0389 3.80955 95.9842 4.0314 95.9085 4.24658C95.8915 4.2805 95.8665 4.3099 95.8356 4.33228C95.8047 4.35467 95.7688 4.3694 95.7309 4.37523C95.5737 4.38073 95.4165 4.36555 95.2633 4.33012C94.8702 4.23739 94.4804 4.12878 94.1125 4.0327C94.1506 3.68349 94.1971 3.28582 94.2461 2.86226L94.2487 2.86476ZM93.2543 2.70018C93.2619 3.01263 93.2796 3.37438 93.2703 3.73529C93.2567 3.77795 93.232 3.81639 93.1988 3.84684C93.1656 3.8773 93.125 3.89873 93.0809 3.90906C92.8718 3.90166 92.6639 3.87367 92.4603 3.82552C92.1153 3.74866 91.7754 3.65843 91.3822 3.55483C91.3754 3.22066 91.3687 2.81965 91.3585 2.30168L93.2543 2.70018ZM88.5986 2.7194C88.6832 2.47879 88.7381 2.22983 88.7982 2.01596L90.4309 2.22231C90.4309 2.57487 90.4394 2.98256 90.4453 3.47547C90.0876 3.44456 89.7596 3.42618 89.4306 3.3844C89.2444 3.35108 89.0603 3.30701 88.8793 3.25241C88.5022 3.15299 88.4735 3.08866 88.6037 2.7194H88.5986ZM83.0889 1.65254C83.0889 1.58487 83.2343 1.45956 83.2994 1.46791C83.8195 1.5314 84.3716 1.53642 84.8409 1.73024C85.1664 1.86558 84.9314 2.33008 84.9601 2.64421C84.9652 2.70102 84.742 2.81129 84.6126 2.83719C84.4832 2.86309 84.3226 2.80628 84.1763 2.79124C83.8338 2.75616 83.4914 2.72357 83.094 2.68514C83.0897 2.35598 83.0728 2.00343 83.0897 1.65254H83.0889ZM80.2495 1.61829C80.2748 1.56983 80.3628 1.54978 80.4245 1.52388C80.4559 1.51879 80.4879 1.51879 80.5192 1.52388L82.1478 1.50718C82.1478 1.94244 82.1554 2.34261 82.1596 2.77788C81.7047 2.78456 81.2828 2.82466 80.8667 2.78957C80.3298 2.74446 80.0026 2.09449 80.2503 1.61829H80.2495ZM79.3194 1.54143C79.3261 1.98087 79.3329 2.37687 79.3405 2.80879L77.6494 2.83051C77.6401 2.41279 77.6316 2.00092 77.6223 1.56064L79.3194 1.54143ZM76.6863 1.57234C76.6964 1.99006 76.7066 2.39358 76.7176 2.83719L74.8243 2.87228C74.8176 2.43869 74.8125 2.03684 74.8057 1.60242L76.6863 1.57234ZM73.8731 1.86474C73.8782 2.1772 73.8959 2.46542 73.879 2.75114C73.8667 2.79749 73.8441 2.84053 73.8128 2.8771C73.7815 2.91368 73.7423 2.94286 73.698 2.96251C73.162 3.18724 72.5988 3.18139 71.9968 3.16218C71.9968 2.71104 71.9968 2.31922 71.9908 1.88981L73.8731 1.86474ZM63.98 34.2304C63.4549 34.334 63.2502 34.1887 63.1961 33.6632C63.1767 33.4802 63.1877 33.2939 63.1851 33.1486L65.0733 32.6966C65.0834 33.1978 65.0919 33.6005 65.1003 33.9982C64.7055 34.0817 64.3461 34.1569 63.985 34.2304H63.98ZM66.0254 33.5103C66.0254 33.0993 66.0195 32.7074 66.0169 32.3616L67.6506 31.933C67.7706 32.3933 67.8729 32.7835 68.0015 33.2747C67.2447 33.0658 66.7187 33.705 66.0271 33.5103H66.0254ZM70.5255 32.3499C70.5148 32.3815 70.4973 32.4105 70.4742 32.4349C70.4512 32.4592 70.4231 32.4784 70.3919 32.4911C70.0444 32.6132 69.6904 32.7167 69.3315 32.801C68.6813 32.933 68.4944 32.7759 68.6737 31.882C68.8111 31.7459 68.9621 31.6239 69.1244 31.5178C69.2861 31.4419 69.4614 31.3982 69.6402 31.3891C70.4714 31.2964 70.6997 31.5453 70.5306 32.3499H70.5255ZM69.7459 3.44372C69.3425 3.43286 69.165 3.20061 69.1709 2.77955C69.1768 2.3777 69.3535 2.1655 69.7543 2.15297C70.1729 2.1396 70.5923 2.16968 71.0573 2.18221C71.0573 2.58573 71.0641 2.97671 71.0683 3.40111C70.6236 3.42033 70.1864 3.45876 69.7476 3.44623L69.7459 3.44372ZM73.3175 31.8319C73.2769 31.9781 73.003 32.1343 72.8195 32.1561C72.3849 32.207 71.9418 32.1794 71.4412 32.1845C71.421 31.9804 71.4122 31.7754 71.415 31.5704C71.4412 31.1752 71.6391 30.9547 72.0433 30.9196C72.4475 30.8845 72.8778 30.8979 73.337 30.8895C73.3437 31.227 73.4013 31.5487 73.3226 31.8344L73.3175 31.8319ZM74.3846 31.9798C74.2595 31.4927 74.1563 31.09 74.065 30.7358L75.9489 30.3858C75.9591 30.7792 75.9684 31.1752 75.9777 31.5554L74.3846 31.9798ZM76.9146 31.6097C76.9053 31.1836 76.8968 30.7935 76.8875 30.349L78.7731 30.3214C78.7816 30.7483 78.7892 31.1485 78.7968 31.5846L76.9146 31.6097ZM81.5965 31.1569C81.5882 31.2087 81.5676 31.2579 81.5364 31.3004C81.5053 31.3429 81.4645 31.3776 81.4172 31.4017C81.1424 31.4935 80.8558 31.5946 80.5716 31.6063C79.8884 31.6347 79.5223 31.1686 79.6813 30.5061C79.6984 30.4594 79.7267 30.4175 79.7638 30.384C79.8009 30.3506 79.8457 30.3265 79.8943 30.3139C80.4499 30.2914 81.0054 30.293 81.5982 30.2863C81.6041 30.6021 81.6218 30.882 81.6015 31.1594L81.5965 31.1569ZM73.2541 29.1443C72.7907 20.9737 72.3291 12.834 71.8657 4.67265C72.7113 4.59997 73.5365 4.52895 74.3652 4.45627C76.8241 4.24073 79.2813 3.99427 81.7546 4.02268C83.4457 4.04106 85.1242 4.18308 86.7671 4.62419C87.0377 4.69688 87.0817 4.80632 87.0622 5.05361C86.7696 8.71951 86.4703 12.3846 86.2056 16.0521C85.9089 20.1458 85.645 24.2394 85.3668 28.3373C85.3584 28.4592 85.3398 28.5812 85.3237 28.7291C81.3005 28.4233 77.3204 28.7575 73.2541 29.1443ZM84.4004 31.5086L82.5553 31.5428C82.5486 31.1076 82.5427 30.7158 82.5367 30.2763C83.028 30.2721 83.4981 30.2421 83.9649 30.2763C84.3513 30.303 84.4266 30.4225 84.4308 30.7968C84.4308 31.0048 84.4367 31.2145 84.4376 31.42C84.429 31.4512 84.4165 31.4813 84.4004 31.5094V31.5086ZM85.5326 31.7116C85.4845 31.7115 85.4369 31.7019 85.3926 31.6834C85.3483 31.6649 85.3081 31.6379 85.2745 31.6039C85.2409 31.5699 85.2145 31.5297 85.1968 31.4855C85.1791 31.4413 85.1705 31.394 85.1715 31.3465C85.1538 30.9463 85.2806 30.6481 85.5884 30.5478C85.8 30.4866 86.019 30.454 86.2395 30.4509C86.5008 30.4401 86.7629 30.4635 87.0614 30.4726C87.0614 30.897 87.0681 31.2805 87.0715 31.7342C86.5489 31.7342 86.0391 31.7433 85.5326 31.7124V31.7116ZM87.6025 3.10453L85.919 2.89902C85.9139 2.57904 85.9004 2.20059 85.9105 1.82297C85.9105 1.7695 86.0332 1.67677 86.1 1.67593C86.3079 1.67183 86.5157 1.69003 86.7197 1.73024C87.0664 1.80209 87.408 1.89733 87.7962 1.99674C87.9813 2.38606 87.5746 2.72859 87.6025 3.10537V3.10453ZM89.8923 32.0859C89.8923 32.1377 89.7638 32.2296 89.6961 32.2271C89.4568 32.2197 89.2186 32.1918 88.9842 32.1435C88.6781 32.0817 88.3779 31.9906 88.0084 31.8929C88.0084 31.6423 87.9881 31.3532 88.0084 31.065C88.0287 30.7767 88.2621 30.7642 88.4768 30.7843C88.6527 30.801 88.8218 30.8778 88.9986 30.9037C89.2751 30.9463 89.5541 30.9681 89.8872 31.0048C89.8889 31.3323 89.9033 31.7099 89.8923 32.0867V32.0859ZM92.6675 32.0792C92.6149 32.2044 92.5695 32.3324 92.5313 32.4627C92.5133 32.5706 92.5042 32.6799 92.5043 32.7893C92.1263 32.7317 91.7551 32.6724 91.383 32.618C90.8926 32.5462 90.8436 32.4961 90.8326 32.0174C90.8267 31.75 90.8258 31.4819 90.8224 31.2153C91.3611 31.3215 91.8684 31.4117 92.3698 31.5236C92.7469 31.6088 92.7943 31.7149 92.6675 32.08V32.0792ZM93.508 33.1544C93.4902 33.0709 93.4733 33.009 93.4665 32.9497C93.3634 32.0692 93.6069 31.8428 94.4812 32.0073C94.7585 32.0591 95.0367 32.1076 95.3581 32.1652C95.3648 32.5696 95.3724 32.9706 95.3792 33.375C94.696 33.5989 94.159 32.9873 93.508 33.1544ZM98.1679 33.5145C98.0875 33.7735 97.9987 34.0291 97.9142 34.2563C97.5092 34.1611 97.0441 34.045 96.5748 33.9472C96.3956 33.9096 96.2966 33.852 96.3042 33.6465C96.3169 33.3165 96.3042 32.9848 96.2975 32.5896C96.5298 32.6101 96.7605 32.6453 96.9883 32.6949C97.302 32.7785 97.5979 32.9355 97.9133 33.0082C98.2431 33.0809 98.2431 33.273 98.1679 33.512V33.5145ZM100.756 34.8779C100.731 35.0358 100.631 35.1001 100.458 35.0617C100.162 34.9965 99.8539 34.9731 99.5647 34.8863C99.0929 34.7442 98.7716 34.0893 98.95 33.6398C98.9809 33.5891 99.0233 33.5462 99.0737 33.5143C99.1242 33.4825 99.1814 33.4625 99.2409 33.456C99.3969 33.4615 99.5506 33.4943 99.695 33.5529C100.059 33.6674 100.419 33.7918 100.879 33.9447C100.845 34.2054 100.809 34.5412 100.756 34.8754V34.8779ZM103.373 35.8905C103.337 35.9394 103.29 35.9786 103.234 36.0043C103.179 36.03 103.118 36.0414 103.057 36.0375C102.597 35.9175 102.145 35.7696 101.704 35.5947C101.45 35.4894 101.562 35.233 101.607 35.0425C101.661 34.8119 101.755 34.5905 101.844 34.3265C102.396 34.3883 102.814 34.9397 103.467 34.7818C103.546 35.1517 103.513 35.5362 103.373 35.888V35.8905ZM106.002 37.2589C105.41 37.02 104.877 36.822 104.367 36.5805C104.287 36.5429 104.264 36.2956 104.287 36.1578C104.343 35.8992 104.415 35.6439 104.5 35.3934L106.285 35.9882C106.185 36.4352 106.096 36.8362 106.002 37.2564V37.2589ZM102.879 33.0316C98.4943 31.5378 94.1252 30.024 89.4146 29.4275C90.3447 21.3371 91.2748 13.2701 92.21 5.16138C97.598 5.78545 102.756 7.33937 107.907 9.26087C106.232 17.18 104.562 25.0732 102.879 33.0291V33.0316ZM109.474 8.18316C109.127 8.1205 108.797 8.07873 108.47 7.99853C108.341 7.96996 108.22 7.91476 108.113 7.83654C108.007 7.75832 107.919 7.65884 107.855 7.54463C107.79 7.43042 107.751 7.30405 107.74 7.1738C107.728 7.04355 107.745 6.91235 107.788 6.78881C107.824 6.68438 108.042 6.5975 108.179 6.5833C108.317 6.56909 108.458 6.66099 108.597 6.70778C108.941 6.8214 109.285 6.93669 109.727 7.08372C109.658 7.38615 109.574 7.7763 109.477 8.18065L109.474 8.18316ZM112.349 8.32518C112.343 8.4904 112.322 8.65477 112.287 8.81642C112.181 9.22746 112.089 9.27424 111.686 9.1364C111.579 9.09964 111.481 9.0328 111.376 8.98685C111.093 8.86321 110.808 8.7429 110.453 8.59169C110.446 8.41875 110.434 8.18149 110.429 7.94506C110.423 7.60337 110.626 7.43294 110.971 7.5098C111.131 7.5572 111.289 7.61611 111.441 7.68607C111.627 7.75709 111.814 7.88157 112 7.88324C112.349 7.88324 112.369 8.07706 112.351 8.32268L112.349 8.32518Z" fill="white"/>
<path opacity="0.2" d="M89.8963 4.26728C77.1283 2.3959 68.8798 4.21381 62.9549 5.52044C61.4439 5.85461 59.932 6.27985 58.4303 6.75605L56.439 9.56396L60.2043 11.8622L57.8747 14.4404L61.2274 16.5858L58.8936 18.6635L61.5453 21.5416L59.5878 23.4356L62.2531 25.9711L59.9557 27.7698L62.9515 30.2569L59.7384 32.5844L60.786 33.3029C65.7605 31.2862 64.2055 30.5418 77.2517 29.3814C95.3603 27.7698 104.98 34.6597 104.98 34.6597L110.424 9.87808C110.424 9.87808 102.666 6.13782 89.8963 4.26728Z" fill="white"/>
<path opacity="0.2" d="M54.8736 34.1409L53.826 33.4224L57.0391 31.0949L54.0433 28.6078L56.3407 26.8091L53.6755 24.2735L55.6262 22.3771L52.9711 19.4932L55.3049 17.4154L51.9556 15.2759L54.2851 12.7011L50.5198 10.4028L52.5111 7.58984C48.1277 8.97918 43.8272 10.7988 39.8496 12.0177C34.5099 13.6543 22.1883 14.6033 17.6814 13.7829C13.1746 12.9625 6.26631 10.7135 6.26631 10.7135L1.43896 35.978C1.43896 35.978 4.13801 38.273 14.4852 39.4401C24.8324 40.6072 26.5523 41.679 44.9036 37.1577C50.0311 35.897 52.9432 34.9229 54.8736 34.1409Z" fill="white"/>
<path d="M52.1596 38.2556C53.7383 37.7618 55.3178 37.2731 56.9049 36.8078L57.6085 36.0174L56.5473 35.2898C56.5701 35.3733 56.5929 35.461 56.6149 35.5404C56.1397 35.6791 55.7423 35.791 55.3466 35.9113C54.7648 36.0876 54.578 35.928 54.6583 35.3265C54.7056 34.9723 54.8815 34.725 55.2307 34.6139C55.3102 34.5888 55.3914 34.5688 55.4734 34.5512L53.9683 33.5195C52.7845 33.8912 51.6117 34.2764 50.4321 34.6515C50.3527 34.6766 50.2723 34.6999 50.1497 34.735C48.5643 26.6965 47.0093 18.6679 45.686 10.6042C46.3455 10.2701 48.9067 9.47139 51.7546 8.65183L53.1041 6.75455C53.0141 6.78342 52.9215 6.80411 52.8276 6.81637C52.4987 6.85313 52.3769 6.75538 52.3685 6.4329C52.3654 6.37725 52.3654 6.32147 52.3685 6.26582L50.3907 4.95752C48.9947 5.39111 47.6003 5.83389 46.206 6.27333C42.012 7.595 37.8112 8.89661 33.4946 9.78969C29.7437 10.5666 25.9598 11.0178 22.1192 10.9C19.4134 10.8164 16.7304 10.4923 14.1193 9.76797C12.8019 9.40205 11.5218 8.90079 10.2297 8.44798C9.19138 8.08373 8.14456 7.77963 7.02672 7.77963C6.74853 7.77963 6.62509 7.8874 6.57181 8.13887C6.51854 8.39033 6.62677 8.55659 6.86184 8.65517C7.04786 8.73036 7.23895 8.79385 7.42075 8.87656C7.79618 9.04866 7.94924 9.34273 7.88329 9.73957C7.82494 10.0913 7.68794 10.1874 7.33619 10.1088C7.09943 10.0562 6.8686 9.96012 6.62931 9.94174C6.46865 9.92754 6.24711 9.96012 6.14141 10.0612C5.78712 10.4029 5.97229 11.4104 6.4289 11.6235C6.76036 11.7789 7.12142 11.8741 7.46472 12.0036C7.97206 12.1991 8.47941 12.3954 8.98252 12.611C9.17278 12.6945 9.21927 12.8532 9.18037 13.078C8.8041 15.276 8.43289 17.4741 8.08114 19.6779C7.6685 22.2603 7.30069 24.8501 6.86692 27.43C6.47035 29.7943 6.02135 32.1494 5.57658 34.5061C5.4303 35.2822 5.23834 36.05 5.0557 36.8604C4.80203 36.7768 4.57205 36.7159 4.35305 36.6231C3.49988 36.2639 2.65769 35.8712 1.79522 35.5371C1.55592 35.4443 1.25321 35.4594 0.990235 35.4961C0.695978 35.5379 0.388174 35.9748 0.421997 36.248C0.465966 36.5822 0.772918 36.5529 1.0046 36.6206C1.03504 36.629 1.06801 36.6281 1.09845 36.634C1.74023 36.7526 1.93471 37.0149 1.85946 37.6574C1.81549 38.0384 1.65315 38.1386 1.27941 38.0016C1.04265 37.9139 0.819422 37.7919 0.580127 37.7117C0.231754 37.5956 0.0381165 37.7359 0.00598496 38.1044C-0.0633514 38.8947 0.295168 39.3483 1.08323 39.4912C1.38449 39.5399 1.68116 39.6131 1.97023 39.7101C2.50632 39.9022 3.02466 40.1412 3.5599 40.3341C7.04021 41.5963 10.6327 42.533 14.2901 43.132C18.2127 43.772 22.1539 44.0986 26.128 43.9675C30.1868 43.8346 34.1685 43.2005 38.1131 42.2916C42.8728 41.2005 47.509 39.7084 52.1596 38.2556ZM49.8766 6.38194C50.3772 6.22739 50.8811 6.08118 51.3555 5.93916C51.4578 6.24493 51.561 6.47885 51.6041 6.72196C51.6117 6.78716 51.6042 6.8532 51.5822 6.91513C51.5602 6.97706 51.5244 7.03327 51.4773 7.07953C51.2776 7.22425 51.0562 7.33702 50.8211 7.41371C50.4947 7.51897 50.1514 7.57495 49.8512 7.64429C49.7819 7.41621 49.7176 7.16224 49.6263 6.91746C49.497 6.56156 49.5172 6.49389 49.8808 6.38194H49.8766ZM46.9518 7.34938C47.4363 7.16725 47.8819 7.0152 48.3148 6.83391C48.5956 6.71612 48.7266 6.80384 48.7757 7.0787C48.7867 7.14052 48.807 7.19983 48.8188 7.26082C48.9397 7.8874 48.9118 7.94254 48.3292 8.16309C48.0682 8.27243 47.7995 8.36262 47.5251 8.43294C47.1251 8.51648 46.9577 8.37028 46.9526 7.97846C46.9543 7.76125 46.956 7.54404 46.956 7.34938H46.9518ZM3.20984 38.6683C2.46659 38.3425 2.46913 38.3425 2.74055 37.5822C2.77995 37.4478 2.81072 37.3111 2.83271 37.1728L4.48833 37.7234C4.49594 38.0434 4.5044 38.4402 4.51455 38.8604C4.06999 38.9224 3.61677 38.8557 3.20984 38.6683ZM38.9316 40.9841C38.7388 41.0225 38.5477 40.9841 38.5528 40.7076C38.541 40.6251 38.5153 40.5452 38.4767 40.4711C38.2949 39.9582 38.3304 39.873 38.8733 39.7326C39.3087 39.6198 39.7535 39.543 40.2448 39.4394C40.2541 39.8671 40.2634 40.2481 40.2727 40.6608C39.822 40.7744 39.3798 40.8972 38.9316 40.9875V40.9841ZM42.5362 40.0559C42.1135 40.1863 41.6907 40.3066 41.2155 40.4436C41.2045 39.9741 41.196 39.5848 41.1876 39.2188C41.6104 39.0751 42.0061 38.9323 42.4052 38.8111C42.7679 38.7017 42.8719 38.766 42.9903 39.1211C42.9962 39.1411 43.0013 39.1612 43.0072 39.1812C43.1772 39.7953 43.14 39.8721 42.5362 40.0593V40.0559ZM52.1385 35.6674C52.6594 35.5563 53.1667 35.38 53.6986 35.2254C53.74 35.5847 53.7831 35.9163 53.8262 36.3215C53.3958 36.7393 52.7465 36.8178 52.1596 36.9673C52.0649 36.6582 51.9804 36.3775 51.8933 36.0985C51.8214 35.8712 51.8358 35.7351 52.1385 35.6707V35.6674ZM49.5883 36.5563C49.6808 36.4872 49.7872 36.4382 49.9003 36.4126C50.2918 36.3458 50.6858 36.2973 51.112 36.2372C51.1171 36.5621 51.1289 36.8412 51.1196 37.1194C51.1144 37.1575 51.1007 37.194 51.0795 37.2262C51.0583 37.2584 51.0301 37.2856 50.997 37.3057C50.7194 37.4549 50.4325 37.5863 50.1379 37.6992C49.7303 37.8429 49.4614 37.751 49.3177 37.4669C49.1739 37.1829 49.2847 36.7668 49.5883 36.5596V36.5563ZM48.27 37.0559C48.3783 37.4736 48.4797 37.8604 48.5795 38.2455L46.677 38.8045C46.633 38.4569 46.5924 38.1194 46.5409 37.7184C46.9805 37.2898 47.6325 37.2096 48.27 37.0559ZM45.7968 38.9356C45.3393 39.3742 44.6823 39.4519 44.054 39.614L43.7336 38.4076C44.0963 38.3383 44.3906 38.304 44.6696 38.2205C44.8572 38.1541 45.0335 38.0597 45.1922 37.9406C45.4222 37.7835 45.5439 37.817 45.615 38.0927C45.6758 38.35 45.7266 38.6115 45.7976 38.9356H45.7968ZM45.8433 7.53234C45.8857 7.58006 45.9229 7.63215 45.954 7.68773C46.0491 7.91208 46.1294 8.14231 46.1942 8.37697C46.2483 8.61423 45.9549 8.98015 45.6023 9.07706C45.2006 9.18818 44.7846 9.24916 44.3449 9.33856C44.3407 8.90413 44.3373 8.51064 44.3331 8.06785C44.8802 8.01856 45.4298 7.96677 45.8441 7.53234H45.8433ZM42.1338 8.85818C42.5227 8.71699 42.9413 8.6535 43.397 8.54322C43.397 9.02777 43.4046 9.42043 43.408 9.75878C43.0613 9.87157 42.7569 9.97432 42.45 10.0662C42.3096 10.107 42.1663 10.1375 42.0213 10.1573C41.8361 10.1832 41.7118 10.1222 41.7101 9.90665C41.7059 9.85461 41.6925 9.80371 41.6704 9.75627C41.3905 9.03279 41.4505 9.1063 42.1346 8.85818H42.1338ZM41.4463 13.7538C42.5089 20.3321 43.5715 26.9103 44.6341 33.4886C44.7187 34.0232 44.7702 34.5646 44.8751 35.0959C44.9799 35.6273 44.7981 36.0525 44.3508 36.3006C43.7479 36.6348 43.1222 36.969 42.4652 37.1628C41.3973 37.4828 40.3006 37.7184 39.2064 37.944C37.3986 38.3166 35.5899 38.6875 33.7694 38.9908C32.6406 39.1787 31.4864 39.2414 30.3474 39.3583C29.7158 31.2337 29.0901 23.1876 28.4601 15.0922C32.7725 14.3988 36.9614 13.23 41.1935 12.1481C41.2806 12.7079 41.3635 13.2309 41.4472 13.7538H41.4463ZM38.9054 10.1798C38.9468 9.86822 39.1684 9.68777 39.4719 9.62177C39.8406 9.53823 40.2135 9.47807 40.6684 9.39119C40.7259 9.79972 40.7825 10.1966 40.8324 10.5483C40.3775 10.6828 40.0131 10.8198 39.6368 10.8958C38.8843 11.0495 38.7997 10.9677 38.9054 10.1798ZM36.7416 10.4305C37.1187 10.291 37.5296 10.2383 37.96 10.1389C37.9702 10.5967 37.9786 10.9902 37.9863 11.3486C37.648 11.4547 37.3622 11.5483 37.073 11.6343C36.9235 11.683 36.7702 11.7198 36.6148 11.7446C36.4321 11.7688 36.2765 11.7321 36.2765 11.494C36.2733 11.4522 36.263 11.4113 36.2461 11.3728C35.9772 10.6318 35.9586 10.7187 36.7416 10.4305ZM33.5699 11.2367C34.1406 11.1164 34.6869 10.819 35.3456 10.986C35.3588 11.2923 35.3562 11.599 35.338 11.905C35.3295 11.9886 35.1883 12.1097 35.0843 12.1389C34.8389 12.1967 34.5905 12.2413 34.3402 12.2726L33.4828 12.4213C33.4785 12.0788 33.4701 11.7279 33.4735 11.377C33.4762 11.3474 33.4865 11.3189 33.5034 11.2942C33.5202 11.2696 33.5431 11.2495 33.5699 11.2358V11.2367ZM31.2395 11.5984C31.6487 11.5249 32.0715 11.5266 32.5222 11.4923C32.5332 11.9426 32.5434 12.3428 32.5535 12.7455C32.0462 12.9485 31.4543 12.479 30.985 13.0278C30.8767 12.7772 30.7567 12.5709 30.6941 12.3453C30.6028 12.0178 30.8395 11.6694 31.2395 11.6001V11.5984ZM29.6524 11.8975C29.7225 12.1097 29.8215 12.3612 29.8866 12.6218C29.9356 12.8282 29.66 13.1406 29.348 13.1991C28.937 13.276 28.5159 13.3035 28.0441 13.3595C28.0441 12.9109 28.0373 12.5199 28.034 12.1515L29.6524 11.8975ZM22.4651 12.474C22.5242 12.2233 22.7619 12.1632 23.0003 12.1991C23.4138 12.2626 23.8256 12.3411 24.2746 12.4197C24.2746 12.748 24.2805 13.0546 24.2839 13.3837L22.3644 13.4122C22.3957 13.088 22.3898 12.7697 22.4608 12.4731L22.4651 12.474ZM19.5791 12.7012C19.6113 12.347 19.7829 12.1765 20.1863 12.1648C20.5896 12.1531 21.0022 12.1782 21.4546 12.1882C21.4546 12.6009 21.4631 12.9836 21.4673 13.4372C20.9895 13.4238 20.5296 13.4439 20.078 13.3879C19.7178 13.3436 19.5428 13.0471 19.5749 12.7004L19.5791 12.7012ZM17.8703 11.7722C18.138 11.8205 18.4028 11.8835 18.6634 11.961C18.7327 11.981 18.8325 12.0713 18.8325 12.1239C18.815 12.3073 18.7819 12.489 18.7336 12.6669C18.6938 12.834 18.6423 13.0011 18.5915 13.1857L16.9511 12.875C16.9452 12.5491 16.9393 12.1481 16.9308 11.651C17.2623 11.692 17.5667 11.7196 17.866 11.7714L17.8703 11.7722ZM14.1159 11.3002C14.1499 11.2516 14.1945 11.2114 14.2465 11.1824C14.2985 11.1535 14.3565 11.1366 14.4161 11.1331C14.5941 11.1371 14.7704 11.1683 14.9387 11.2258C15.2685 11.3244 15.5931 11.4405 15.9863 11.5708C15.9863 11.9 15.9956 12.2818 16.0016 12.6995C15.539 12.6218 15.0926 12.5759 14.6622 12.4664C14.1937 12.3453 13.9139 11.7346 14.1092 11.2993L14.1159 11.3002ZM11.526 10.2726L13.3524 10.8808C13.2763 11.1941 13.1833 11.5775 13.0767 12.0211L11.3594 11.5658C11.4093 11.1414 11.4609 10.7446 11.5217 10.2717L11.526 10.2726ZM9.05692 10.8047C8.63414 10.6494 8.58848 10.5408 8.7187 10.1247C8.77366 9.94759 8.81171 9.76463 8.86329 9.56162C9.50591 9.48726 10.0336 9.88911 10.672 10.0261C10.5688 10.4597 10.4749 10.8616 10.3828 11.2492C9.90671 11.0913 9.47547 10.9585 9.05269 10.8039L9.05692 10.8047ZM7.10366 39.7702L5.26455 39.3124C5.34911 38.9415 5.43791 38.5563 5.53684 38.1277C6.15664 38.0325 6.67665 38.477 7.27362 38.5939C7.21105 39.0024 7.15525 39.3842 7.09945 39.7694L7.10366 39.7702ZM8.44473 40.1512C8.1471 39.995 7.9374 39.3558 8.13357 39.096C8.21813 38.9841 8.43797 38.883 8.56734 38.9106C9.01372 39.0181 9.4538 39.1497 9.88558 39.3049C9.93462 39.3216 9.97014 39.4394 9.97014 39.5121C9.98282 39.7702 9.97774 40.0292 9.97943 40.335C9.43573 40.3442 8.9191 40.401 8.44389 40.1503L8.44473 40.1512ZM12.588 41.0342C11.9589 41.0142 11.345 40.8947 10.7979 40.5923C10.8563 40.2389 10.9079 39.9239 10.9671 39.5697C11.6291 39.5046 12.2024 39.7368 12.7428 40.0292C12.6853 40.3717 12.6387 40.6875 12.5872 41.0334L12.588 41.0342ZM14.2022 41.4453C13.6103 41.3183 13.3921 40.9056 13.5815 40.3333C13.6128 40.2364 13.7726 40.1462 13.8885 40.1219C14.0043 40.0977 14.1565 40.1462 14.291 40.1687C14.6588 40.2331 15.0266 40.2999 15.4342 40.3726C15.4401 40.6992 15.4469 41.091 15.4545 41.553C15.0266 41.5196 14.603 41.5305 14.2014 41.4444L14.2022 41.4453ZM18.0783 41.9683C17.4678 42.2097 17.0145 41.6073 16.404 41.7661C16.399 41.3149 16.3939 40.9248 16.388 40.4611L18.271 40.8287C18.463 41.2047 17.9988 41.5522 18.0774 41.9674L18.0783 41.9683ZM19.6383 42.2256C19.2418 42.2172 19.0388 42.0643 19.0211 41.8246C18.9881 41.3818 19.1775 41.0852 19.5605 40.9891C19.6521 40.9642 19.7463 40.9499 19.8413 40.9465C20.1795 40.9423 20.5126 40.9465 20.8915 40.9465C20.8991 41.3642 20.9067 41.7636 20.9143 42.1896C20.4737 42.2005 20.0552 42.2331 19.6375 42.2247L19.6383 42.2256ZM21.8706 42.4436C21.863 42.0309 21.8554 41.6341 21.8469 41.1905L23.7241 41.152C23.73 41.5906 23.7343 41.9816 23.7393 42.4052L21.8706 42.4436ZM23.0307 39.8187C20.6488 39.9022 18.2956 39.6282 15.9474 39.2564C13.9705 38.9423 11.9953 38.6198 9.96421 38.2923C10.5671 30.1142 11.8101 21.9929 12.6311 13.7864C16.6898 14.55 20.6885 15.4657 24.8665 15.1398C25.077 23.3163 24.891 31.4601 25.4009 39.6499C24.6001 39.7076 23.8163 39.7911 23.0299 39.8178L23.0307 39.8187ZM24.6872 42.401C24.6821 41.9833 24.6771 41.5956 24.6711 41.1428C25.1709 41.1428 25.6334 41.1153 26.0908 41.1554C26.4857 41.1896 26.5474 41.2991 26.5517 41.6825C26.5517 41.9006 26.5517 42.1178 26.5517 42.3734L24.6872 42.401ZM25.871 13.3963C25.6173 13.408 25.3493 13.3963 25.2318 13.1089C25.1404 12.8875 25.2884 12.504 25.5099 12.3303C25.8482 12.0671 26.6379 12.032 26.9787 12.2768C27.0094 12.3019 27.0347 12.3328 27.0533 12.3676C27.0719 12.4025 27.0833 12.4406 27.0869 12.4798C27.1013 12.748 27.0962 13.0162 27.0979 13.3019C26.6616 13.3361 26.2667 13.3779 25.871 13.3954V13.3963ZM29.3818 42.2239C29.3603 42.255 29.3322 42.2812 29.2995 42.3007C29.2668 42.3202 29.2303 42.3324 29.1924 42.3367C29.0355 42.3508 28.878 42.3561 28.7206 42.3526C28.3316 42.3526 27.9426 42.3526 27.5038 42.3576C27.4996 41.944 27.4962 41.5464 27.4911 41.0793C27.9477 41.091 28.3603 41.0677 28.7594 41.1194C29.2507 41.1813 29.5687 41.7761 29.3818 42.2231V42.2239ZM32.0073 41.472C31.9768 42.1571 31.9717 42.1587 31.2928 42.3074C31.1597 42.3392 31.0237 42.3574 30.8869 42.3617C30.7441 42.3634 30.6032 42.329 30.4777 42.2616C30.3522 42.1943 30.2463 42.0963 30.17 41.977C30.0937 41.8577 30.0496 41.7211 30.0418 41.5802C30.0341 41.4393 30.0631 41.2988 30.1259 41.1721C30.1524 41.1374 30.1862 41.109 30.2251 41.0888C30.264 41.0686 30.3069 41.0571 30.3508 41.0551C30.5615 41.0542 30.7721 41.0645 30.9816 41.086C31.3122 41.1136 31.6369 41.1295 31.861 40.8011L31.9802 40.8245C31.9887 41.0351 32.0166 41.2531 32.0073 41.4687V41.472ZM33.7694 41.9574C33.6849 41.9808 33.6105 42.0125 33.5293 42.0317C33.0346 42.1487 32.9602 42.0927 32.9509 41.6048C32.9458 41.3467 32.9416 41.0885 32.9374 40.8872L34.7976 40.4745C34.8086 40.934 34.8179 41.3317 34.8255 41.6625L33.7694 41.9574ZM37.117 41.335C36.6942 41.4436 36.2655 41.5021 35.7751 41.599C35.7641 41.1027 35.7548 40.7051 35.7472 40.3392C36.2292 40.2656 36.6536 40.2097 37.0739 40.132C37.3343 40.0835 37.4755 40.1787 37.5406 40.4185C37.5508 40.4586 37.5643 40.4979 37.5745 40.5388C37.725 41.1303 37.7106 41.1788 37.117 41.3317V41.335Z" fill="white"/>
</g>
<defs>
<clipPath id="clip0_8740_324141">
<rect width="114" height="44" fill="white"/>
</clipPath>
</defs>
</svg>
