<svg fill="none" xmlns="http://www.w3.org/2000/svg" viewBox="0 0 48 48"><rect width="48" height="48" rx="8" fill="#EFF1F5"/><path d="M31.638 13.688a1064.479 1064.479 0 0 0-11.349 3.194c-.565.204-1.233.737-1.233 1.474v9.828c-2.467-.491-5.181 1.72-5.181 3.931 0 1.474 1.234 2.212 2.468 2.197 2.276-.008 4.687-1.705 4.687-3.917-.015-2.14 0-6.657 0-8.845l9.621-2.703v6.143c-2.467-.246-5.427 1.72-5.427 3.931 0 1.474 1.194 2.452 2.467 2.457 2.467 0 4.934-1.72 4.934-4.177-.015-4.47 0-9.079 0-12.776 0-.492-.493-.738-.987-.738Z" fill="#D8DAE0"/></svg>