<svg width="41" height="40" viewBox="0 0 41 40" fill="none" xmlns="http://www.w3.org/2000/svg">
<path d="M26.1748 5.00277C27.4021 3.77216 29.068 3.0795 30.806 3.07715C32.544 3.07481 34.2117 3.76298 35.4423 4.99027C36.6729 6.21756 37.3656 7.88343 37.3679 9.62143C37.3703 11.3594 36.6821 13.0272 35.4548 14.2578L16.7823 32.9853C16.3889 33.3803 15.9123 33.6826 15.3873 33.8703L5.4648 37.4103C5.13019 37.5297 4.76852 37.5517 4.42192 37.4736C4.07532 37.3954 3.75806 37.2204 3.50708 36.9689C3.25611 36.7174 3.08176 36.3998 3.00434 36.053C2.92692 35.7062 2.94962 35.3446 3.0698 35.0103L6.6348 25.1028C6.82108 24.5852 7.11895 24.1149 7.5073 23.7253L26.1748 5.00277ZM33.6798 6.76277C33.3031 6.3862 32.8558 6.08759 32.3636 5.88402C31.8714 5.68044 31.3439 5.5759 30.8113 5.57637C30.2786 5.57683 29.7513 5.68229 29.2594 5.88672C28.7676 6.09116 28.3209 6.39054 27.9448 6.76777L25.9898 8.72777L31.7223 14.4603L33.6848 12.4928C34.4438 11.7322 34.8696 10.7013 34.8687 9.62673C34.8678 8.55221 34.4401 7.52205 33.6798 6.76277ZM29.9573 16.2303L24.2248 10.4978L9.2773 25.4903C9.14805 25.6205 9.04904 25.7775 8.9873 25.9503L5.8698 34.6103L14.5448 31.5153C14.7207 31.4531 14.8804 31.3523 15.0123 31.2203L29.9573 16.2303ZM22.6423 5.00027H4.2498C3.91828 5.00027 3.60034 5.13196 3.36592 5.36638C3.1315 5.6008 2.9998 5.91875 2.9998 6.25027C2.9998 6.58179 3.1315 6.89973 3.36592 7.13415C3.60034 7.36857 3.91828 7.50027 4.2498 7.50027H20.1498L22.6423 5.00027ZM17.6573 10.0003H4.2498C3.91828 10.0003 3.60034 10.132 3.36592 10.3664C3.1315 10.6008 2.9998 10.9187 2.9998 11.2503C2.9998 11.5818 3.1315 11.8997 3.36592 12.1342C3.60034 12.3686 3.91828 12.5003 4.2498 12.5003H15.1648L17.6573 10.0003ZM12.6748 15.0003H4.2498C3.91828 15.0003 3.60034 15.132 3.36592 15.3664C3.1315 15.6008 2.9998 15.9187 2.9998 16.2503C2.9998 16.5818 3.1315 16.8997 3.36592 17.1342C3.60034 17.3686 3.91828 17.5003 4.2498 17.5003H10.1823L12.6748 15.0003Z" fill="#77777B"/>
</svg>
