<svg width="20" height="20" viewBox="0 0 20 20" fill="none" xmlns="http://www.w3.org/2000/svg">
<circle cx="10" cy="10" r="10" fill="url(#paint0_linear_37745_663950)"/>
<ellipse cx="10" cy="10" rx="8" ry="8" transform="rotate(-180 10 10)" fill="url(#paint1_linear_37745_663950)" fill-opacity="0.2"/>
<g clip-path="url(#clip0_37745_663950)">
<path d="M9.99984 6.53727V7.81331M9.99984 6.53727C9.99984 6.2849 10.0747 6.03819 10.2149 5.82834C10.3551 5.6185 10.5544 5.45494 10.7876 5.35836C11.0207 5.26178 11.2773 5.23651 11.5248 5.28575C11.7724 5.33499 11.9997 5.45652 12.1782 5.63498C12.3566 5.81343 12.4782 6.0408 12.5274 6.28833C12.5766 6.53586 12.5514 6.79243 12.4548 7.02559C12.3582 7.25876 12.1947 7.45805 11.9848 7.59826C11.775 7.73848 11.5283 7.81331 11.2759 7.81331H9.99984M9.99984 6.53727C9.99984 6.2849 9.925 6.03819 9.78479 5.82834C9.64457 5.6185 9.44528 5.45494 9.21212 5.35836C8.97895 5.26178 8.72238 5.23651 8.47485 5.28575C8.22733 5.33499 7.99996 5.45652 7.8215 5.63498C7.64304 5.81343 7.52151 6.0408 7.47227 6.28833C7.42304 6.53586 7.44831 6.79243 7.54489 7.02559C7.64147 7.25876 7.80502 7.45805 8.01487 7.59826C8.22471 7.73848 8.47142 7.81331 8.7238 7.81331H9.99984" stroke="white" stroke-width="0.729167" stroke-miterlimit="10" stroke-linecap="round"/>
<path d="M13.6458 7.81348H6.35417C5.95146 7.81348 5.625 8.13994 5.625 8.54264V9.63639C5.625 10.0391 5.95146 10.3656 6.35417 10.3656H13.6458C14.0485 10.3656 14.375 10.0391 14.375 9.63639V8.54264C14.375 8.13994 14.0485 7.81348 13.6458 7.81348Z" stroke="white" stroke-width="0.729167" stroke-linecap="round" stroke-linejoin="round"/>
<path d="M13.6457 10.3656V13.6468C13.6457 13.9369 13.5304 14.2151 13.3253 14.4202C13.1202 14.6253 12.842 14.7406 12.5519 14.7406H7.44775C7.15767 14.7406 6.87947 14.6253 6.67436 14.4202C6.46924 14.2151 6.354 13.9369 6.354 13.6468V10.3656M9.99984 7.81348V14.7406" stroke="white" stroke-width="0.729167" stroke-linecap="round" stroke-linejoin="round"/>
</g>
<defs>
<linearGradient id="paint0_linear_37745_663950" x1="5.94118" y1="23.0397" x2="11.8911" y2="3.87535" gradientUnits="userSpaceOnUse">
<stop stop-color="#E88238"/>
<stop offset="1" stop-color="#FFD16F"/>
</linearGradient>
<linearGradient id="paint1_linear_37745_663950" x1="6.75294" y1="20.4317" x2="11.5129" y2="5.10028" gradientUnits="userSpaceOnUse">
<stop stop-color="#FF6B00"/>
<stop offset="1" stop-color="#EE9747"/>
</linearGradient>
<clipPath id="clip0_37745_663950">
<rect width="11.6667" height="11.6667" fill="white" transform="translate(4.1665 4.1665)"/>
</clipPath>
</defs>
</svg>
