<svg width="282" height="192" viewBox="0 0 282 192" fill="none" xmlns="http://www.w3.org/2000/svg">
<path fill-rule="evenodd" clip-rule="evenodd" d="M131.904 16.0004C147.78 15.9066 157.77 32.3007 170.96 41.1195C184.881 50.4273 206.046 53.141 211.236 69.0412C216.426 84.9409 203.858 100.981 195.166 115.277C188.174 126.777 176.278 133.063 166.613 142.439C154.661 154.032 148.466 174.772 131.904 176.643C115.492 178.498 102.614 162.677 90.9714 150.986C80.9033 140.877 73.4257 128.65 70.2656 114.751C67.314 101.768 69.9352 88.6679 73.9146 75.9618C77.9383 63.114 83.8149 51.2647 93.1819 41.579C104.201 30.1855 116.037 16.0941 131.904 16.0004Z" fill="#F1F6FD"/>
<path d="M50.1136 156.5C72.9775 156.5 88.2201 142.12 88.2201 121.892C88.2201 103.199 75.1824 89.8733 57.5431 89.8733C48.2442 89.8733 40.527 93.8518 37.2676 99.2682H36.6924L38.9452 76.1166H82.4202V56.9915H19.4366L15.1706 109.909L36.1172 113.84C38.7535 109.43 44.2178 106.698 49.9698 106.746C58.9811 106.746 65.4041 113.121 65.3562 122.563C65.4041 131.958 59.077 138.285 50.1136 138.285C42.4923 138.285 36.2131 133.54 35.8775 126.302H12.8698C13.1574 143.941 28.6397 156.5 50.1136 156.5ZM228.843 157.554C254.535 157.602 270.305 138.621 270.352 106.218C270.4 74.0076 254.535 55.6494 228.843 55.6494C203.151 55.6494 187.429 73.9597 187.381 106.218C187.285 138.525 203.151 157.554 228.843 157.554ZM228.843 138.142C218.633 138.142 211.683 127.884 211.779 106.218C211.827 84.9842 218.681 74.9183 228.843 74.9183C239.052 74.9183 245.907 84.9842 245.955 106.218C246.003 127.884 239.1 138.142 228.843 138.142Z" fill="#C7D3FF"/>
<path d="M112.5 85.5L116 82.5L117 81.5L121 84L134 88.5H148L160.5 85.5L168.5 81.5L171.5 84L175.5 91L177 99.5V112.5V127.5L175.5 136.5L174 151L171.5 174L175.5 176L179.5 180.5L180 185.5L177 188.5L171.5 190H158.5L151.5 188.5L148 185.5L146 180V171.5L147 161V152H144.5H138V158L139.5 174V182L138 185.5L134 188.5L125 190H112.5L108 188.5L105.5 185.5V182L108 177L114 174L112.5 166.5L110.5 148.5L109.5 130.5L108 117.5V102.5L109.5 91L112.5 85.5Z" fill="#D2DCFF"/>
<path d="M113 85L116 82L117 81L118 82L116 88L114 98.5L111 111.5L108.5 117V104.5V95.5L110 89.5L113 85Z" fill="#5D74F7"/>
<path d="M172.5 85L169.5 82L168.5 81L167.5 82L169.5 88L171.5 98.5L174.5 111.5L177 117V104.5V95.5L175.5 89.5L172.5 85Z" fill="#5D74F7"/>
<path d="M120 115.5L123 112L125.5 110.5L132 107.5L137 115.5L143 121L147.5 117L155 107.5L162 110.5L166.5 115L168.5 120V122.5L166 129L162 133L159 135.5L155 137.5L150.5 138.5H146.5L143 137.5L140 138.5H135L128.5 136.5L123 132L119 125L117.5 120L120 115.5Z" fill="#F9FAFC"/>
<path d="M119 166L113 165L114 174.5L111 176L107 178.5L105.5 183L106 187L111 189.5H122.5L134 188L139 183.5V178.5V164L128 166H119Z" fill="#F9FAFC"/>
<path d="M166.5 166L172.5 165L171.5 174.5L174.5 176L178.5 178.5L180 183L179.5 187L174.5 189.5H163L151.5 188L146.5 183.5V178.5V164L157.5 166H166.5Z" fill="#F9FAFC"/>
<path d="M114 123H117.5L119 126.5L122 131.5H112L110 129.5V126.5L111 124L114 123Z" fill="#89A4F8"/>
<path d="M171 123H167.5L166 126.5L163 131.5H173L175 129.5V126.5L174 124L171 123Z" fill="#89A4F8"/>
<path d="M93.5 34.5L98.5 31H101L104.5 24L112 14.5L123 7L133 3.5L143 2.5L153.5 4L164.5 8L173.5 14.5L178.5 19.5L183 29.5L186.5 41L186 54L183 63L176.5 74L170 80L159.5 86L151 88.5L141.5 89L132 88L121.5 84.5L113.5 78.5L107 71.5L100.5 59L99 58.5L93 55L91 47.5L91.5 39.5L93.5 34.5Z" fill="#F9FAFC"/>
<path d="M142.67 83.9102C166.976 83.9102 186.68 68.7058 186.68 49.9502C186.68 31.1946 166.976 15.9902 142.67 15.9902C118.364 15.9902 98.66 31.1946 98.66 49.9502C98.66 68.7058 118.364 83.9102 142.67 83.9102Z" fill="#5D74F7"/>
<path d="M96.5 32L100.5 31V32.5L98.5 41V50.5L100 58H97L93 55L92 51L91 43.5L92 37L94.5 34L96.5 32Z" fill="#89A4F8"/>
<path d="M189 32L185 31V32.5L187 41V50.5L185.5 58H188.5L192.5 55L193.5 51L194.5 43.5L193.5 37L191 34L189 32Z" fill="#89A4F8"/>
<path d="M142.67 89.06C166.976 89.06 186.68 69.6829 186.68 45.78C186.68 21.8771 166.976 2.5 142.67 2.5C118.364 2.5 98.66 21.8771 98.66 45.78C98.66 69.6829 118.364 89.06 142.67 89.06Z" stroke="#1F2023" stroke-width="2" stroke-miterlimit="10" stroke-linecap="round" stroke-linejoin="round"/>
<path d="M100.64 32.95C106.2 20.4 122.91 11.29 142.64 11.29C162.37 11.29 179.09 20.39 184.64 32.92" stroke="#1F2023" stroke-width="2" stroke-miterlimit="10" stroke-linecap="round" stroke-linejoin="round"/>
<path d="M118.24 81.77C118.24 81.77 106.06 116.2 110.06 143.47C114.06 170.74 114.38 174.56 114.38 174.56" stroke="#1F2023" stroke-width="2" stroke-miterlimit="10" stroke-linecap="round" stroke-linejoin="round"/>
<path d="M129.17 176.56C129.17 176.56 106.55 168.08 105.39 184.37C105.39 184.37 104.23 194.37 132.99 188.2C132.99 188.2 140.61 187.11 139.63 174.35C138.65 161.59 138.17 151.95 138.17 151.95" stroke="#1F2023" stroke-width="2" stroke-miterlimit="10" stroke-linecap="round" stroke-linejoin="round"/>
<path d="M113.17 164.93C113.17 164.93 121.34 169.17 138.91 163.72" stroke="#1F2023" stroke-width="2" stroke-miterlimit="10" stroke-linecap="round" stroke-linejoin="round"/>
<path d="M116.87 80.8301C116.87 80.8301 107.56 87.1101 108.39 101.41C109.22 115.71 107.25 127.51 109.23 131.67" stroke="#1F2023" stroke-width="2" stroke-miterlimit="10" stroke-linecap="round" stroke-linejoin="round"/>
<path d="M167.06 81.79C167.06 81.79 179.28 116.2 175.28 143.47C171.28 170.74 170.96 174.56 170.96 174.56" stroke="#1F2023" stroke-width="2" stroke-miterlimit="10" stroke-linecap="round" stroke-linejoin="round"/>
<path d="M156.17 176.56C156.17 176.56 178.79 168.08 179.95 184.37C179.95 184.37 181.11 194.37 152.35 188.2C152.35 188.2 144.73 187.11 145.71 174.35C146.69 161.59 147.2 151.95 147.2 151.95" stroke="#1F2023" stroke-width="2" stroke-miterlimit="10" stroke-linecap="round" stroke-linejoin="round"/>
<path d="M172.17 164.93C172.17 164.93 164 169.17 146.43 163.72" stroke="#1F2023" stroke-width="2" stroke-miterlimit="10" stroke-linecap="round" stroke-linejoin="round"/>
<path d="M168.67 80.8301C168.67 80.8301 177.78 87.1101 176.95 101.41C176.12 115.71 178.09 127.51 176.11 131.67" stroke="#1F2023" stroke-width="2" stroke-miterlimit="10" stroke-linecap="round" stroke-linejoin="round"/>
<path d="M126 146.24C126 146.24 141 158.88 159.34 146.24" stroke="#1F2023" stroke-width="2" stroke-miterlimit="10" stroke-linecap="round" stroke-linejoin="round"/>
<path d="M163.32 91.1499C163.32 91.1499 154.74 111.15 145.62 118.75C136.5 126.35 139.49 141.92 152.45 138.37C165.41 134.82 167.65 126.29 169.09 119.37" stroke="#1F2023" stroke-width="2" stroke-miterlimit="10" stroke-linecap="round" stroke-linejoin="round"/>
<path d="M143.22 136.87C141.22 138.71 138.08 139.49 133.97 138.37C120.97 134.83 118.78 126.29 117.34 119.37" stroke="#1F2023" stroke-width="2" stroke-miterlimit="10" stroke-linecap="round" stroke-linejoin="round"/>
<path d="M123.11 91.1499C123.11 91.1499 131.69 111.15 140.81 118.75C141.706 119.503 142.515 120.355 143.22 121.29" stroke="#1F2023" stroke-width="2" stroke-miterlimit="10" stroke-linecap="round" stroke-linejoin="round"/>
<path d="M154.71 107.48C154.71 107.48 168.04 111.2 168.71 121.29" stroke="#1F2023" stroke-width="2" stroke-miterlimit="10" stroke-linecap="round" stroke-linejoin="round"/>
<path d="M131.67 107.48C131.67 107.48 118.34 111.2 117.67 121.29" stroke="#1F2023" stroke-width="2" stroke-miterlimit="10" stroke-linecap="round" stroke-linejoin="round"/>
<path d="M122.51 131.71H114.11C112.909 131.71 111.756 131.233 110.907 130.383C110.057 129.534 109.58 128.381 109.58 127.18V127.18C109.58 125.978 110.057 124.826 110.907 123.977C111.756 123.127 112.909 122.65 114.11 122.65H118.11" stroke="#1F2023" stroke-width="2" stroke-miterlimit="10" stroke-linecap="round" stroke-linejoin="round"/>
<path d="M168.35 122.61H171.58C172.781 122.61 173.934 123.087 174.783 123.937C175.633 124.786 176.11 125.938 176.11 127.14V127.14C176.11 128.341 175.633 129.494 174.783 130.343C173.934 131.193 172.781 131.67 171.58 131.67H163.92" stroke="#1F2023" stroke-width="2" stroke-miterlimit="10" stroke-linecap="round" stroke-linejoin="round"/>
<path d="M183.73 30.8501H184.43C186.984 30.8501 189.433 31.8647 191.239 33.6707C193.045 35.4766 194.06 37.9261 194.06 40.4801V48.9401C194.057 51.4924 193.042 53.9393 191.236 55.7431C189.43 57.5469 186.982 58.5601 184.43 58.5601V58.5601" stroke="#1F2023" stroke-width="2" stroke-miterlimit="10" stroke-linecap="round" stroke-linejoin="round"/>
<path d="M101.64 30.8501H100.93C98.376 30.8501 95.9265 31.8647 94.1205 33.6707C92.3146 35.4766 91.3 37.9261 91.3 40.4801V48.9401C91.3026 51.4924 92.3184 53.9393 94.1241 55.7431C95.9298 57.5469 98.3777 58.5601 100.93 58.5601V58.5601" stroke="#1F2023" stroke-width="2" stroke-miterlimit="10" stroke-linecap="round" stroke-linejoin="round"/>
<path d="M89.0356 25.5327L91.5356 29.5327L90.5356 30.5327L85.0356 29.5327L80.5356 28.0327L79.0356 26.5327L79.5356 24.0327L81.5356 22.5327H86.0356L89.0356 25.5327Z" fill="url(#paint0_linear_8206_190826)"/>
<path d="M92.0257 31.9427C92.0257 31.9427 89.0257 18.0427 80.6857 23.1127C80.0763 23.4559 79.5912 23.9834 79.3002 24.6194C79.0092 25.2553 78.927 25.9672 79.0657 26.6527C79.3857 27.9727 80.6657 29.3227 84.4857 29.4527C92.1257 29.7127 92.0257 31.9427 92.0257 31.9427Z" stroke="#1F2023" stroke-width="2" stroke-linecap="round" stroke-linejoin="round"/>
<path d="M78.5279 36.5173L82.6004 38.8975L82.1796 40.2476L76.8448 41.918L72.1631 42.6809L70.1379 42.0497L69.4189 39.6037L70.4928 37.3461L74.4774 35.255L78.5279 36.5173Z" fill="url(#paint1_linear_8206_190826)"/>
<path d="M84.1542 40.8038C84.1542 40.8038 75.0385 29.8898 70.0097 38.2547C69.6296 38.8418 69.4452 39.5342 69.483 40.2326C69.5208 40.931 69.7789 41.5995 70.2202 42.1421C71.117 43.1622 72.8777 43.7628 76.3206 42.1028C83.2064 38.7828 84.1542 40.8038 84.1542 40.8038Z" stroke="#1F2023" stroke-width="2" stroke-linecap="round" stroke-linejoin="round"/>
<path d="M203.626 36.5173L199.554 38.8975L199.975 40.2476L205.309 41.918L209.991 42.6809L212.016 42.0497L212.735 39.6037L211.661 37.3461L207.677 35.255L203.626 36.5173Z" fill="url(#paint2_linear_8206_190826)"/>
<path d="M198 40.8038C198 40.8038 207.116 29.8898 212.145 38.2547C212.525 38.8418 212.709 39.5342 212.671 40.2326C212.633 40.931 212.375 41.5995 211.934 42.1421C211.037 43.1622 209.277 43.7628 205.834 42.1028C198.948 38.7828 198 40.8038 198 40.8038Z" stroke="#1F2023" stroke-width="2" stroke-linecap="round" stroke-linejoin="round"/>
<path d="M80.4695 50.4403L85.1852 50.552L85.4705 51.9372L81.6106 55.9809L77.8831 58.9144L75.8054 59.3423L73.9923 57.5499L73.8394 55.0546L76.3141 51.2961L80.4695 50.4403Z" fill="url(#paint3_linear_8206_190826)"/>
<path d="M87.4675 51.4681C87.4675 51.4681 74.2083 46.3296 73.8563 56.0834C73.8079 56.7812 73.9817 57.4763 74.3528 58.0692C74.7239 58.662 75.2733 59.122 75.9221 59.3833C77.2005 59.8419 79.032 59.5153 81.2413 56.3963C85.66 50.1583 87.4675 51.4681 87.4675 51.4681Z" stroke="#1F2023" stroke-width="2" stroke-linecap="round" stroke-linejoin="round"/>
<path d="M195.99 25.5327L193.49 29.5327L194.49 30.5327L199.99 29.5327L204.49 28.0327L205.99 26.5327L205.49 24.0327L203.49 22.5327H198.99L195.99 25.5327Z" fill="url(#paint4_linear_8206_190826)"/>
<path d="M193 31.9427C193 31.9427 196 18.0427 204.34 23.1127C204.949 23.4559 205.434 23.9834 205.726 24.6194C206.017 25.2553 206.099 25.9672 205.96 26.6527C205.64 27.9727 204.36 29.3227 200.54 29.4527C192.9 29.7127 193 31.9427 193 31.9427Z" stroke="#1F2023" stroke-width="2" stroke-linecap="round" stroke-linejoin="round"/>
<path d="M204.998 50.4403L200.282 50.552L199.997 51.9372L203.857 55.9809L207.584 58.9144L209.662 59.3423L211.475 57.5499L211.628 55.0546L209.153 51.2961L204.998 50.4403Z" fill="url(#paint5_linear_8206_190826)"/>
<path d="M198 51.4681C198 51.4681 211.259 46.3296 211.611 56.0834C211.66 56.7812 211.486 57.4763 211.115 58.0692C210.744 58.662 210.194 59.122 209.545 59.3833C208.267 59.8419 206.436 59.5153 204.226 56.3963C199.808 50.1583 198 51.4681 198 51.4681Z" stroke="#1F2023" stroke-width="2" stroke-linecap="round" stroke-linejoin="round"/>
<ellipse opacity="0.4" cx="164.92" cy="58.9098" rx="4.91995" ry="4.90977" fill="#D2DCFF"/>
<ellipse opacity="0.4" cx="168.337" cy="41.3202" rx="8.33745" ry="8.32019" fill="#D2DCFF"/>
<path opacity="0.4" d="M106.5 40.5002C110.5 24.5002 133.5 21.5002 144.5 22.0002C150.5 28.0005 123.5 35.5 120 47.5C116.5 59.5 101.5 60.5002 106.5 40.5002Z" fill="#D2DCFF"/>
<defs>
<linearGradient id="paint0_linear_8206_190826" x1="79.0356" y1="24.0327" x2="93.0356" y2="31.5327" gradientUnits="userSpaceOnUse">
<stop stop-color="#C4D1FF"/>
<stop offset="1" stop-color="#586FF6"/>
</linearGradient>
<linearGradient id="paint1_linear_8206_190826" x1="68.9762" y1="39.836" x2="84.858" y2="39.9714" gradientUnits="userSpaceOnUse">
<stop stop-color="#C4D1FF"/>
<stop offset="1" stop-color="#586FF6"/>
</linearGradient>
<linearGradient id="paint2_linear_8206_190826" x1="213.178" y1="39.836" x2="197.296" y2="39.9714" gradientUnits="userSpaceOnUse">
<stop stop-color="#C4D1FF"/>
<stop offset="1" stop-color="#586FF6"/>
</linearGradient>
<linearGradient id="paint3_linear_8206_190826" x1="73.7173" y1="57.9675" x2="87.6805" y2="50.3991" gradientUnits="userSpaceOnUse">
<stop stop-color="#C4D1FF"/>
<stop offset="1" stop-color="#586FF6"/>
</linearGradient>
<linearGradient id="paint4_linear_8206_190826" x1="205.99" y1="24.0327" x2="191.99" y2="31.5327" gradientUnits="userSpaceOnUse">
<stop stop-color="#C4D1FF"/>
<stop offset="1" stop-color="#586FF6"/>
</linearGradient>
<linearGradient id="paint5_linear_8206_190826" x1="211.75" y1="57.9675" x2="197.787" y2="50.3991" gradientUnits="userSpaceOnUse">
<stop stop-color="#C4D1FF"/>
<stop offset="1" stop-color="#586FF6"/>
</linearGradient>
</defs>
</svg>
