<svg id="Layer_1" data-name="Layer 1" xmlns="http://www.w3.org/2000/svg" viewBox="0 0 458.13 156.2"><defs><style>.cls-1{fill:#28a2db;}.cls-2{fill:#0f3d63;}.cls-3{fill:#f178aa;}.cls-4{fill:#fff;}</style></defs><path class="cls-1" d="M474.42,171.4A53.79,53.79,0,0,0,459,156a229,229,0,0,0-22.1-12.6c-4.7-2.3-9.3-4.8-13.7-7.5a31.2,31.2,0,0,1-8.5-8.1,18.65,18.65,0,0,1-3.3-11.2,19.45,19.45,0,0,1,4.2-12.9,15.6,15.6,0,0,1,12.6-4.8c14.6,0,24.5,10.5,29.5,31.5h17.4v-3.3c0-10.2-.4-19.2-1.1-27.1a45.82,45.82,0,0,0-4.9-18.4l-17.8,5.6a41.85,41.85,0,0,0-12.8-4.2,92.79,92.79,0,0,0-14.9-1.4,56.35,56.35,0,0,0-23.9,5,38.57,38.57,0,0,0-23,36.4,44.83,44.83,0,0,0,10,29.4c6.7,8,16.6,15.4,29.7,22a132.56,132.56,0,0,1,22.5,13.7,19.47,19.47,0,0,1,7.9,15.7,18.45,18.45,0,0,1-4.2,11.2,15.67,15.67,0,0,1-13,5.2,30.82,30.82,0,0,1-23.2-10.5c-6.6-7-10.9-16.5-13.2-28.6h-20.9a186.65,186.65,0,0,0,2.8,30.8,100,100,0,0,0,7,25.7l16.1-7.3a81.75,81.75,0,0,0,33.7,7.3,55.6,55.6,0,0,0,26-5.8,41.28,41.28,0,0,0,17-15.6,41.88,41.88,0,0,0,5.9-22.1,38.73,38.73,0,0,0-6.4-22.7" transform="translate(-22.72 -81.5)"/><path class="cls-1" d="M313.82,81.5a19.42,19.42,0,0,0-4.6,13.6,20.55,20.55,0,0,1,11.4,2.5,9.56,9.56,0,0,1,3.5,8.3v79.9a37.87,37.87,0,0,1-6,22.4c-4,5.7-10.4,8.5-19.1,8.5s-15.3-3.1-19.4-9.4-6.4-14.6-6.4-24.9V106.1a10.27,10.27,0,0,1,3-8.3,16.26,16.26,0,0,1,10.1-2.5,19.36,19.36,0,0,0-4.9-13.6H229a19.59,19.59,0,0,0-4.7,13.7,16.42,16.42,0,0,1,10.1,2.5,10.61,10.61,0,0,1,3,8.3V178c0,19.3,5.2,34,15.5,44.3s24.5,15.4,42.5,15.4,31.6-5.3,40.7-15.9,13.7-25.9,13.7-45.9V106a9.63,9.63,0,0,1,3.4-8.3,20.55,20.55,0,0,1,11.4-2.5A20.4,20.4,0,0,0,360,81.6l-46.2-.1Z" transform="translate(-22.72 -81.5)"/><path class="cls-1" d="M209.82,201.8a76.14,76.14,0,0,0-13-26.1q-8.55-10.95-18-13.8c21.8-4.7,32.7-18,32.7-39.7,0-28.5-20.7-40.6-60.6-40.6-5.7,0-13.4.5-23.5,1.1-11.4.5-21.2-.4-30.4-.4a17.76,17.76,0,0,0-4.1,12.9c4.7,0,12.4-1.8,14.6,0s2.3,7.9,2.3,11.8l1.8,108c0,3.9-4.7,7.9-7.5,8.9a13.76,13.76,0,0,1-10.9,0,21.22,21.22,0,0,0,4.7,13.6h52.4c3.1-4,1.4-6.9,1.4-12.2-4.3,0-7.4,1-10.1-.9s-.9-7.3-.9-11.1V170.1h13.8c3.8,1.3,6.9,4.9,9.2,10.6a149.83,149.83,0,0,1,6.7,21.6,106.16,106.16,0,0,0,6.4,19,26.64,26.64,0,0,0,10.7,11.6,37.82,37.82,0,0,0,19.8,4.6c8.9,0,15-2.4,18.2-7.1V219.2a15.53,15.53,0,0,1-9.5-5,28,28,0,0,1-6.2-12.4m-40.3-55.4a24.52,24.52,0,0,1-19.7,8.3,85.53,85.53,0,0,1-10.1-.6V96.9a42.63,42.63,0,0,1,10.1-.8c9,0,16.5,2.5,20.7,7.1s6.2,11.7,6.2,21.2a33.5,33.5,0,0,1-7.2,22Z" transform="translate(-22.72 -81.5)"/><path class="cls-2" d="M38.22,201.8a76.14,76.14,0,0,1,13-26.1q8.55-10.95,18-13.8c-21.8-4.7-32.7-18-32.7-39.7.1-28.5,20-40.7,59.9-40.7h54.9a24.87,24.87,0,0,1,4.1,15,43.27,43.27,0,0,0-14.8.6l.3,116.4a9.84,9.84,0,0,0,3.8,7.4,16.35,16.35,0,0,0,10.3,2.7,21.55,21.55,0,0,1-4.9,14H97.62a22,22,0,0,1-4.6-14,17.69,17.69,0,0,0,10.5-2.8,7.73,7.73,0,0,0,3.9-7.5V170.1H93.72c-3.8,1.3-6.9,4.9-9.2,10.6a149.83,149.83,0,0,0-6.7,21.6,98.8,98.8,0,0,1-6.4,19A26.88,26.88,0,0,1,60.72,233a37.82,37.82,0,0,1-19.8,4.6c-8.9,0-15-2.5-18.2-7.2V219.3a15,15,0,0,0,9.5-5,29.08,29.08,0,0,0,6-12.5m60.1-47c3.1,0,6.1-.1,9.2-.4V97.2a44.38,44.38,0,0,0-10.3-.9c-8.9,0-15.4,2.3-19.6,7s-6.2,11.7-6.2,21.2a32.79,32.79,0,0,0,7.1,22.1,25.09,25.09,0,0,0,19.8,8.2" transform="translate(-22.72 -81.5)"/><path class="cls-3" d="M154.82,171.4a36.16,36.16,0,0,1,5.8,6.8c6,9.7.5,16.8-7.5,19.2a6.42,6.42,0,0,0-3.8,2.8c-2.7,4-6.4,6.6-11.5,6.4-4.3-.2-7.1-2.9-9.6-5.9a44.32,44.32,0,0,1-4.1-6.5c-.8.2-.9.9-1.2,1.5a28.38,28.38,0,0,1-4.8,6.7c-6.5,6.8-14,4.9-18.9-1.3a11,11,0,0,0-5.6-4.1c-4.3-1.4-7.6-4.1-8.7-8.8-.8-3.4.3-6.4,1.9-9.4a28.33,28.33,0,0,1,6.1-7.4c-1.5-.8-3-.6-4.4-1a24.47,24.47,0,0,1-7.8-3.3c-4.4-3-6-7.3-4.6-12.4a12,12,0,0,1,2.5-5.2c1.6-1.7,1.9-3.5,1.8-5.8a12.44,12.44,0,0,1,4-10c3.2-3.1,7.2-3.2,11.3-2.3a33.17,33.17,0,0,1,6.9,2.4c.6.3,1.2,1.1,1.8.5.4-.4.1-1.2-.1-1.8a25.55,25.55,0,0,1,.3-10.3,11.26,11.26,0,0,1,14.3-8.2,19.5,19.5,0,0,0,9.6,0c8.3-1.7,13.8,2.3,14.8,10.9a30.51,30.51,0,0,1-.3,8c-.1.4-.2,1,.1,1.3.4.5.9-.1,1.3-.3a27.43,27.43,0,0,1,9.3-3c8.9-1.1,12.9,5,13.3,10.9a17.93,17.93,0,0,0,2.8,8.9c4.5,6.9,2.3,13.8-5.2,17.5a19.78,19.78,0,0,1-4.8,1.8A13.45,13.45,0,0,1,154.82,171.4Zm-29.3-22c.2-.2.4-.5.6-.7a3.09,3.09,0,0,0-3.3-5.1c-1.6.6-2,1.9-1.9,3.5.1,1.1,1.1,1.5,1.5,2.3v7.9c0,2.2,1.6.5,2.3.9.9.5.8-.4.8-.9Zm9.4,6.9c-2.6.8-5.2,1.6-7.9,2.4-.4.1-.9.4-.4.9.7.6,0,2.5,1.1,2.2,2.7-.8,5.6-1.2,8-2.8,2.1,1.5,3.7,1.4,5-.4,1-1.5.6-3.2-1-4.4C138,152.8,136.32,153.6,134.92,156.3Zm-22.7,2.6c2.4,1.7,5.3,2.1,8,2.8,1.1.3.4-1.5,1.1-2.2.5-.5,0-.8-.4-.9-2.6-.8-5.2-1.6-7.9-2.4-1.4-2.7-3.1-3.4-4.8-2.2s-2,2.9-1,4.4C108.52,160.3,110.12,160.4,112.22,158.9Zm17.4,13v1.3a3.06,3.06,0,0,0,2.9,3.3,3.13,3.13,0,0,0,3.3-2.7c.4-1.9-1.1-3.5-3.6-3.7-1.1-1.5-2.1-3.1-3.2-4.6-1.8-2.5-1.8-2.5-4.5-.8C126.22,167.2,127.92,169.5,129.62,171.9Zm-11.3,0,5.1-7.2a6.45,6.45,0,0,1-1.6-1.1c-.7-.8-1.1-.6-1.7.2-1.4,2.1-3,4.2-4.4,6.3-.5.1-1,.1-1.5.2a3.06,3.06,0,0,0-2.2,2.9,3.4,3.4,0,0,0,1.9,3c1.3.7,2.5.1,3.5-.7C118.62,174.7,118.32,173.2,118.32,171.9Z" transform="translate(-22.72 -81.5)"/><path class="cls-4" d="M118.32,171.9c0,1.3.3,2.7-.9,3.7a3.2,3.2,0,0,1-3.5.7,3.15,3.15,0,0,1,.3-5.9,3.89,3.89,0,0,1,1.5-.2A5.63,5.63,0,0,1,118.32,171.9Z" transform="translate(-22.72 -81.5)"/><path class="cls-4" d="M132.22,170.1c2.5.3,4,1.8,3.6,3.7a3.31,3.31,0,0,1-3.3,2.7,3.13,3.13,0,0,1-2.9-3.3v-1.3A6.77,6.77,0,0,1,132.22,170.1Z" transform="translate(-22.72 -81.5)"/><path class="cls-4" d="M112.22,158.9c-2.1,1.5-3.7,1.4-5-.4-1-1.5-.6-3.2,1-4.4s3.4-.5,4.8,2.2A3.25,3.25,0,0,1,112.22,158.9Z" transform="translate(-22.72 -81.5)"/><path class="cls-4" d="M134.92,156.3c1.4-2.7,3.1-3.4,4.8-2.2s2,2.9,1,4.4c-1.3,1.8-2.9,1.9-5,.4A3.66,3.66,0,0,1,134.92,156.3Z" transform="translate(-22.72 -81.5)"/><path class="cls-4" d="M122.52,149.4c-.4-.8-1.4-1.2-1.5-2.3a3.12,3.12,0,1,1,5.2,1.6c-.2.2-.4.5-.6.7A5.45,5.45,0,0,1,122.52,149.4Z" transform="translate(-22.72 -81.5)"/><path class="cls-2" d="M112.22,158.9a3.53,3.53,0,0,0,.8-2.6c2.6.8,5.2,1.6,7.9,2.4.4.1.9.4.4.9-.7.6,0,2.5-1.1,2.2C117.52,160.9,114.62,160.5,112.22,158.9Z" transform="translate(-22.72 -81.5)"/><path class="cls-2" d="M134.92,156.3a4,4,0,0,0,.8,2.6c-2.4,1.7-5.3,2.1-8,2.8-1.1.3-.4-1.5-1.1-2.2-.5-.5,0-.8.4-.9C129.62,157.8,132.32,157,134.92,156.3Z" transform="translate(-22.72 -81.5)"/><path class="cls-2" d="M118.32,171.9c-.8-.7-1.5-1.6-2.6-1.8,1.5-2.1,3-4.2,4.4-6.3.6-.8,1-1,1.7-.2a11.07,11.07,0,0,0,1.6,1.1C121.72,167.2,120,169.5,118.32,171.9Z" transform="translate(-22.72 -81.5)"/><path class="cls-2" d="M132.22,170.1c-1.1.2-1.8,1.1-2.6,1.8l-5.1-7.2c2.7-1.7,2.7-1.7,4.5.8C130.12,167.1,131.12,168.6,132.22,170.1Z" transform="translate(-22.72 -81.5)"/><path class="cls-2" d="M122.52,149.4a5.11,5.11,0,0,0,3,0v7.9c0,.5.1,1.5-.8.9s-2.3,1.2-2.3-.9C122.42,154.7,122.42,152,122.52,149.4Z" transform="translate(-22.72 -81.5)"/></svg>