<svg version="1.1" id="Layer_1" xmlns="http://www.w3.org/2000/svg" x="0" y="0" viewBox="0 0 497.3 158.6" xml:space="preserve"><style>.st0{fill:#00a4ea}.st1{fill:#0f3c62}.st2{fill:#fff}.st3{fill:#241f20}</style>
    <path class="st0"
          d="M474.2 91.8c-4-6.1-9.3-11.4-15.4-15.4-7.1-4.6-14.5-8.8-22.1-12.6-4.7-2.3-9.3-4.8-13.7-7.5-3.3-2.1-6.2-4.9-8.5-8.1-2.3-3.3-3.4-7.2-3.3-11.2-.2-4.7 1.3-9.2 4.2-12.9 3.2-3.4 7.9-5.2 12.6-4.8 14.6 0 24.5 10.5 29.5 31.5h17.4v-3.3c0-10.2-.4-19.2-1.1-27.1-.3-6.4-2-12.6-4.9-18.4l-17.8 5.6c-4-2.1-8.4-3.5-12.8-4.2-4.9-.9-9.9-1.3-14.9-1.4-8.2-.1-16.4 1.6-23.9 5-6.8 3.1-12.7 8.1-16.8 14.3-4.2 6.6-6.3 14.3-6.2 22.1-.3 10.7 3.3 21.1 10 29.4 6.7 8 16.6 15.4 29.7 22 7.9 3.8 15.5 8.4 22.5 13.7 5 3.7 7.9 9.5 7.9 15.7-.1 4.1-1.6 8-4.2 11.2-3.3 3.7-8.1 5.6-13 5.2-8.9 0-17.3-3.8-23.2-10.5-6.6-7-10.9-16.5-13.2-28.6h-20.9c.1 10.3 1 20.7 2.8 30.8 1.2 8.8 3.5 17.5 7 25.7l16.1-7.3c10.6 4.8 22.1 7.3 33.7 7.3 9 .2 18-1.8 26-5.8 7-3.5 13-8.9 17-15.6 4-6.7 6-14.3 5.9-22.1.3-8.1-2-16-6.4-22.7M313.6 1.9c-3.2 3.8-4.9 8.7-4.6 13.6 4-.3 7.9.6 11.4 2.5 2.5 2 3.8 5.2 3.5 8.3v79.9c.4 7.9-1.7 15.7-6 22.4-4 5.7-10.4 8.5-19.1 8.5-8.8 0-15.3-3.1-19.4-9.4-4.1-6.3-6.4-14.6-6.4-24.9V26.5c-.3-3.1.8-6.1 3-8.3 3-1.9 6.5-2.8 10.1-2.5.2-5-1.6-9.9-4.9-13.6h-52.4c-3.3 3.8-4.9 8.7-4.7 13.7 3.5-.3 7.1.6 10.1 2.5 2.2 2.2 3.2 5.2 3 8.3v71.8c0 19.3 5.2 34 15.5 44.3 10.3 10.2 24.5 15.4 42.5 15.4s31.6-5.3 40.7-15.9c9.1-10.6 13.7-25.9 13.7-45.9V26.4c-.3-3.2 1-6.3 3.4-8.3 3.5-1.9 7.4-2.8 11.4-2.5.2-4.9-1.5-9.8-4.6-13.6l-46.2-.1zM209.6 122.2c-2.6-9.4-7-18.3-13-26.1-5.7-7.3-11.7-11.9-18-13.8 21.8-4.7 32.7-18 32.7-39.7 0-28.5-20.7-40.6-60.6-40.6-5.7 0-13.4.5-23.5 1.1-11.4.5-21.2-.4-30.4-.4-3 3.6-4.5 8.2-4.1 12.9 4.7 0 12.4-1.8 14.6 0s2.3 7.9 2.3 11.8l1.8 108c0 3.9-4.7 7.9-7.5 8.9-3.5 1.5-7.4 1.5-10.9 0-.1 4.9 1.6 9.7 4.7 13.6h52.4c3.1-4 1.4-6.9 1.4-12.2-4.3 0-7.4 1-10.1-.9-2.7-1.9-.9-7.3-.9-11.1V90.5h13.8c3.8 1.3 6.9 4.9 9.2 10.6 2.8 7 5 14.3 6.7 21.6 1.5 6.5 3.7 12.9 6.4 19 2.3 4.8 6 8.9 10.7 11.6 6 3.3 12.9 4.9 19.8 4.6 8.9 0 15-2.4 18.2-7.1v-11.2c-3.7-.5-7.1-2.3-9.5-5-3.1-3.6-5.2-7.8-6.2-12.4m-40.3-55.4c-4.9 5.6-12.2 8.7-19.7 8.3-3.4 0-6.7-.2-10.1-.6V17.3c3.3-.7 6.7-.9 10.1-.8 9 0 16.5 2.5 20.7 7.1 4.1 4.6 6.2 11.7 6.2 21.2.3 8-2.3 15.8-7.2 22z"/>
    <path class="st1"
          d="M38 122.2c2.6-9.4 7-18.3 13-26.1 5.7-7.3 11.7-11.9 18-13.8-21.8-4.7-32.7-18-32.7-39.7.1-28.5 20-40.7 59.9-40.7h54.9c2.9 4.4 4.4 9.7 4.1 15-4.9-.7-10-.4-14.8.6l.3 116.4c.1 2.9 1.5 5.6 3.8 7.4 3 2 6.7 3 10.3 2.7.1 5.1-1.7 10.1-4.9 14H97.4c-3.1-4-4.7-8.9-4.6-14 3.7.2 7.4-.8 10.5-2.8 2.7-1.5 4.2-4.5 3.9-7.5V90.5H93.5c-3.8 1.3-6.9 4.9-9.2 10.6-2.8 7-5 14.3-6.7 21.6-1.5 6.5-3.6 12.9-6.4 19-2.3 4.9-6 8.9-10.7 11.7-6 3.3-12.9 4.9-19.8 4.6-8.9 0-15-2.5-18.2-7.2v-11.1c3.7-.5 7.1-2.2 9.5-5 3-3.6 5-7.9 6-12.5m60.1-47c3.1 0 6.1-.1 9.2-.4V17.6c-3.4-.7-6.8-1-10.3-.9-8.9 0-15.4 2.3-19.6 7-4.1 4.7-6.2 11.7-6.2 21.2-.4 8 2.1 15.8 7.1 22.1 5 5.5 12.3 8.6 19.8 8.2"/>
    <path class="st2"
          d="M114.1 1.3c.6-.6 1.6-1 2.4-.6.4.2.7.6 1 .9s.5.7.6 1.1c.4 1 .6 2.2.9 3.3.2 1.1.4 2.2.6 3.4.6 4.5.5 9 .1 13.4-.4 4.2-1.1 8.3-2.1 12.4-1 4-2.2 8-3.4 12-1.2 3.8-2.5 7.6-3.7 11.3-.1.4-.3.8-.4 1.3-.1.4.5.5.6.2 1.2-3.9 2.5-7.7 3.8-11.6 1.3-4.1 2.6-8.2 3.6-12.4 1.1-4.2 1.8-8.4 2.3-12.7.5-4.6.6-9.2 0-13.8-.2-1.2-.4-2.3-.6-3.5-.2-1.1-.5-2.3-.9-3.4-.3-.8-.8-1.5-1.5-2.1s-1.6-.6-2.4-.3c-.4.2-.8.4-1.1.7-.5.3 0 .7.2.4zM109.1 1.1c.1 7.8-.9 15.6-2.5 23.3-.8 3.8-1.8 7.7-2.7 11.5l-3 11.4c-1.2 4.2-2.4 8.4-3.8 12.6-.1.4.5.5.6.2 2.5-7.5 4.6-15 6.5-22.7 1.9-7.6 3.8-15.1 4.8-22.9.6-4.4.8-8.8.8-13.3-.1-.5-.7-.5-.7-.1zM102.3.8c-1 4.5-2.3 8.9-3.9 13.1-1.6 4.3-3.4 8.4-5.5 12.5-1.9 3.7-3.9 7.3-6.1 10.8-2.1 3.5-4.4 6.9-7 10.1-2.5 3.1-5.3 5.9-8.6 8.2-.4.3-.8.5-1.2.8-.3.2 0 .7.3.5 3.3-2.1 6.3-4.9 8.9-7.9 2.7-3.1 5.1-6.5 7.3-10s4.3-7.1 6.2-10.7c2.1-4 4.1-8.2 5.7-12.4 1.7-4.3 3.1-8.7 4.1-13.1.1-.6.3-1.1.4-1.7.1-.4-.5-.5-.6-.2zM100 .9c-2.6 3.3-4.8 6.8-6.9 10.3-2.3 3.7-4.5 7.4-6.9 11.1-2.4 3.8-4.8 7.5-7.4 11.1-2.5 3.4-5.1 6.7-7.9 10-2.6 3-5.4 6-8.7 8.3-.4.3-.8.5-1.2.8-.3.2 0 .7.3.5 3.5-2 6.4-4.9 9-7.9 2.8-3.1 5.4-6.4 7.9-9.7 2.7-3.6 5.1-7.3 7.5-11.1 2.4-3.7 4.7-7.4 7-11.2C94.8 9.6 97 6 99.5 2.7c.3-.5.7-.9 1-1.4.2-.3-.2-.7-.5-.4z"/>
    <path class="st2"
          d="M61.1 52.6c5.1.3 10.1 3 13.2 7s4.3 9.3 4.7 14.2c.7 9.6-.6 19.7-1.7 29.3-1 9.3-2.8 18.7-6.9 27.2-2 4.3-4.3 8.8-7.9 12-3.7 3.2-8.3 5.4-13.1 6.6-7.7 2-19.1 3.6-25.8-1.6-3.8-2.9-5.8-7.7-6.5-12.4-.9-5.6.5-10.5 3.1-15.5 3.1-6.1 7-11.6 10.3-17.6 5.8-10.6 8.6-23 11-34.8.4-1.9.8-3.9 1.8-5.6.9-1.5 2.3-2.7 3.8-3.7 5.9-3.8 5.5-5.1 12.6-5.1"/>
    <path class="st3"
          d="M61.1 52.9c3.9.3 7.8 1.9 10.7 4.5 3.1 2.8 5 6.5 6 10.5 1.1 4.3 1.1 8.8 1.1 13.2-.1 4.8-.5 9.7-1 14.5-1 9.2-1.9 18.4-4.8 27.3-1.4 4.2-3.1 8.2-5.2 12-1 1.8-2.1 3.6-3.5 5.2s-3 3-4.7 4.1c-3.5 2.3-7.3 3.8-11.4 4.8-3.4.8-7 1.4-10.5 1.6-3.6.1-7.3-.2-10.6-1.5-3.5-1.4-6.2-4.2-7.8-7.6-1.8-3.7-2.6-8-2.1-12 .5-4.5 2.4-8.5 4.5-12.4 2.3-4 4.8-7.9 7.2-11.9 2.3-3.8 4.2-7.8 5.8-11.9 3.2-8.3 5.1-16.9 6.9-25.6.5-2.2.8-4.5 2.1-6.3 1.2-1.8 2.9-2.9 4.6-4 2.1-1.4 4.1-3.4 6.6-4 1.5-.4 3.1-.4 4.7-.4.4 0 .4-.6 0-.6-1.6 0-3.3 0-4.9.4-1.1.3-2.1.8-3.1 1.4-1.3.9-2.5 1.8-3.7 2.6-1.7 1.1-3.4 2.2-4.6 3.9-1.3 1.8-1.8 4.1-2.2 6.2-.5 2.2-.9 4.5-1.4 6.7-1 4.4-2.1 8.9-3.4 13.2-1.4 4.4-3 8.7-5.1 12.8-2.1 4.2-4.7 8.2-7.2 12.3-2.4 3.9-4.9 8-6.3 12.4-1.4 4.1-1.6 8.4-.6 12.7.9 3.7 2.6 7.4 5.5 10 2.7 2.4 6.2 3.5 9.7 4 3.7.5 7.4.2 11.1-.4 3.8-.6 7.6-1.5 11.2-3 3.9-1.6 7.6-4 10.3-7.2 2.7-3.3 4.6-7.2 6.3-11.1 3.8-8.6 5.4-17.8 6.4-27.1 1.1-9.7 2.4-19.6 1.5-29.3-.4-4.1-1.4-8.3-3.6-11.8-2.1-3.4-5.3-5.9-8.9-7.4-1.8-.7-3.7-1.2-5.6-1.3-.4-.1-.4.5 0 .5z"/>
    <path class="st2"
          d="M85.8 67.3c4.3-5 10.3-8.9 16.8-9.6 12.7-1.3 18.9 9.5 20.2 20.7.9 7.4 1.1 14.9.9 22.3-.4 12.9-2.6 25.6-5.9 38-1.3 4.8-2.8 9.8-6 13.8-3.2 3.9-8.4 5.4-13.2 5.8-6 .6-11.8 1-17.8-.4-6.5-1.6-13.9-5.8-16.4-12.4-2.4-6.4 1.1-13.7 2.7-19.9 3.4-12.7 4.8-14.9 7.5-27.8.7-3.1 3-13.4 4.1-16.4 2-4.8 3.2-8.5 7.1-14.1"/>
    <path class="st3"
          d="M86 67.5c5.4-6.3 14.1-11.2 22.6-9.2 7 1.7 11.1 8.1 12.9 14.7 1.2 4.3 1.5 8.9 1.7 13.3.3 5.3.4 10.7.1 16-.5 10.6-2.1 21.2-4.6 31.5-1.1 4.7-2.3 9.5-4.4 13.8-1 2-2.2 4-3.8 5.6-1.5 1.5-3.4 2.5-5.4 3.2s-4.1 1.1-6.1 1.3c-2.6.3-5.2.5-7.8.6-4.8.2-9.7-.3-14.2-2.1-3.7-1.5-7.3-3.7-9.8-6.8-1.3-1.5-2.3-3.3-2.8-5.3-.6-2.3-.6-4.7-.2-7s1.1-4.6 1.8-6.8c.7-2.3 1.4-4.6 2-6.9 1-3.7 2.1-7.4 3.2-11.1 1-3.5 2-6.9 2.8-10.5.8-3.3 1.4-6.5 2.2-9.8.7-3.2 1.4-6.3 2.4-9.4.4-1.4 1-2.8 1.5-4.2.7-1.8 1.5-3.6 2.3-5.4 1.2-1.7 2.4-3.7 3.6-5.5.3-.4-.3-.7-.5-.4-1.3 2-2.6 4-3.6 6.2-.9 1.8-1.6 3.6-2.3 5.4-.5 1.4-1.1 2.8-1.6 4.3s-.9 3.1-1.2 4.6c-1.7 7-3.1 14.1-5 21.1-.9 3.4-2 6.7-3 10-.7 2.3-1.3 4.6-1.9 6.9s-1.4 4.6-2.1 6.9c-1.3 4.4-2.2 9.2-.4 13.6 1.6 3.7 4.6 6.5 8 8.6 3.7 2.2 7.8 3.6 12.1 4.1 2.7.3 5.4.3 8.1.2 2.5-.1 5.1-.3 7.6-.6 4.1-.6 8.4-1.9 11.3-5 3.2-3.4 4.8-8.1 6.1-12.5 3-10.3 5-20.8 6-31.5.5-5.4.7-10.9.6-16.3-.1-5.3-.4-10.6-1.1-15.8-1-6.8-3.9-14.1-10.1-17.8-7.3-4.3-16.4-1.7-22.7 3.1-1.7 1.3-3.3 2.8-4.7 4.5-.3.3.2.7.4.4z"/>
    <path class="st2"
          d="M77.5 125.1c8.3 1.5 18.5 7.5 26.9 3.2 3.7-1.9 6-5.7 7.5-9.5 2.6-6.4 3.7-13.3 4.8-20.1 1.1-7 2.2-14.1 1.4-21.1-.4-3.7-1.4-7.5-3.7-10.4-4.4-5.7-13.1-7-19.8-4.3-6.7 2.8-10.5 5.5-13.1 12.2-2.4 6.4-3.5 17.2-4.5 24.4-.8 5.7-3 11.6-3.8 17.3-.4 3.5.4 7.3 4.3 8.3"/>
    <path class="st3"
          d="M77.4 125.4c6.1 1.1 11.7 3.9 17.8 4.6 2.9.3 5.9.1 8.6-1.1 2.8-1.2 4.9-3.6 6.4-6.2 1.7-2.9 2.8-6.1 3.8-9.3 1-3.5 1.7-7.1 2.3-10.7.6-3.7 1.3-7.5 1.7-11.2.5-3.8.8-7.6.6-11.4-.2-3.4-.7-6.9-2.1-10-1.2-2.7-3.1-5-5.6-6.5-4.6-2.8-10.7-3.2-15.7-1.3-2.5.9-4.9 2.1-7.1 3.6-1.9 1.3-3.6 3-4.8 5-1.4 2.3-2.3 4.8-3 7.4-.8 2.9-1.3 5.9-1.8 8.8-.5 3-.9 6-1.2 9-.2 1.4-.3 2.8-.6 4.3-.3 1.8-.7 3.7-1.2 5.5-.9 3.6-2 7.1-2.5 10.7-.3 2.3-.2 5 1.4 6.9.7 1 1.8 1.6 3 1.9.4.1.5-.5.2-.6-1.2-.3-2.3-1-3-2s-1-2.1-1.1-3.3c-.1-1.3 0-2.7.3-4 .3-1.8.7-3.5 1.2-5.2.9-3.5 1.9-6.9 2.4-10.5.4-2.8.7-5.6 1.1-8.4.4-3 .9-6 1.5-9 .5-2.6 1.2-5.2 2.1-7.7.9-2.3 2.2-4.4 3.9-6.2 1.7-1.7 3.7-3 5.8-4 2.4-1.2 4.9-2.2 7.6-2.6 2.6-.3 5.4-.1 7.9.7s4.8 2.2 6.5 4.3c2.1 2.5 3.2 5.6 3.7 8.7 1.3 7.3.2 14.8-1 22.1-1.1 7-2.2 14.2-4.9 20.8-1.1 2.8-2.5 5.5-4.7 7.6-2.1 2.1-5 3.2-7.9 3.5-3 .2-6-.3-8.8-1.1-2.9-.8-5.8-1.8-8.7-2.6-1.3-.4-2.7-.7-4-1-.3-.1-.5.4-.1.5z"/>
    <path class="st1"
          d="M77.6 114.7c1-4.9 2.6-9.7 3.5-14.6 1-5.2 1.6-10.4 2.5-15.6.7-4.6 1.7-9.3 4.5-13 2.1-2.8 5.2-4.9 8.6-5.6s7.2 0 10 2c4.8 3.4 6.5 9.7 6.8 15.6.3 7.3-.7 14.6-2.2 21.7-.8 3.6-1.7 7.1-2.7 10.6-.9 3.2-2 5.8-4.8 7.8-2.4 1.7-5.4 2.3-8.3 2.2-4.5-.1-9-1.8-13.2-3.4-4-1.4-5.2-3.4-4.7-7.7"/>
    <path class="st3"
          d="M77.9 114.8c.6-2.8 1.3-5.6 2.1-8.4.7-2.8 1.4-5.6 1.9-8.5s.9-5.8 1.4-8.8c.4-2.7.8-5.5 1.3-8.2.5-2.5 1.3-5 2.5-7.2 1.2-2.1 2.8-4 4.8-5.4 2-1.3 4.3-2.2 6.7-2.3 2.5-.1 5 .4 7.1 1.7 3.9 2.3 6 6.6 6.9 10.9.5 2.4.7 4.8.7 7.2 0 2.9-.1 5.8-.5 8.7-.6 5.8-1.9 11.6-3.4 17.2l-1.2 4.2c-.3 1.1-.7 2.1-1.1 3.1-1 2.1-2.5 3.8-4.4 4.9-4.8 2.7-10.7 1.5-15.7-.1-1.3-.4-2.7-.9-4-1.4-1-.4-2-.7-2.8-1.3-1.3-.9-2.2-2.1-2.4-3.7-.1-.9 0-1.8.1-2.6.1-.5-.5-.5-.6-.1-.2 1.7-.2 3.6.7 5.2 1 1.6 2.8 2.4 4.4 3 5.2 2 10.8 4.1 16.4 3.1 2.5-.4 4.9-1.5 6.6-3.4 1.6-1.6 2.5-3.7 3.1-5.8.9-2.8 1.6-5.6 2.3-8.5.7-2.9 1.3-5.9 1.8-8.9s.9-6 1-9c.2-2.8.2-5.7 0-8.5-.4-4.5-1.7-9.2-4.8-12.5-3.4-3.7-8.8-5-13.5-3.5-2.3.7-4.5 2-6.2 3.7-1.8 1.8-3.1 4.1-4 6.4-.9 2.5-1.4 5-1.9 7.6-.5 3-.9 5.9-1.3 8.9-.5 3-.9 6-1.6 9-.6 2.9-1.5 5.8-2.2 8.7-.4 1.4-.7 2.8-1 4.2.1.6.7.7.8.4z"/>
    <path class="st2"
          d="M45.4 54.5c2.1-2.2 5.8-3.3 8.9-3.2 3 .1 6 1.1 8.7 2.5 6.4 3.4 9.8 9.1 10.6 16.3.5 4.2.1 8.4-.6 12.6-1.2 7.1-3.4 13.9-5.6 20.7-1.6 4.8-3.5 9.9-7.5 13.1-7 5.6-20 4.4-27.1-.5-1.8-1.2-3.3-3-4-5.1-1.3-4.1.8-8.8 2.4-12.6 1.8-4.2 3.9-8.3 5.2-12.7 3-10.2.9-23.3 9-31.1"/>
    <path class="st3"
          d="M45.6 54.7c2-2 4.9-3 7.7-3.1 3.3-.2 6.6.9 9.5 2.4 2.3 1.2 4.5 2.9 6.1 5 1.6 2 2.8 4.3 3.5 6.8 1.9 6.6 1 13.7-.4 20.3-.8 3.6-1.7 7.1-2.8 10.5-1 3.3-2 6.5-3.2 9.7-1 2.8-2.3 5.5-4.2 7.8-1.7 2-3.8 3.5-6.3 4.4-4.9 1.8-10.5 1.6-15.4.3-2.4-.6-4.7-1.6-6.8-3-1.2-.8-2.3-1.8-3.1-3-.9-1.3-1.3-2.8-1.4-4.4-.1-3.2 1.1-6.4 2.4-9.3 1.3-3.2 2.8-6.3 4.1-9.5 1.1-2.8 2-5.6 2.5-8.6.5-2.7.7-5.4 1.1-8 .6-5.3 1.5-10.8 4.4-15.3.6-1.1 1.4-2.1 2.3-3 .3-.3-.1-.7-.4-.4-4 3.9-5.6 9.3-6.5 14.6-.9 5.4-1 11-2.6 16.4-1 3.5-2.6 6.8-4 10.1-.7 1.6-1.4 3.1-2 4.7-.6 1.5-1.2 3.1-1.5 4.7-.4 1.6-.5 3.2-.3 4.8.2 1.5.9 2.9 1.8 4.1 1.6 2.1 4.1 3.5 6.5 4.5 4.9 2 10.6 2.7 15.8 1.7 2.5-.5 5-1.4 7-2.8 2.4-1.7 4.2-4.1 5.5-6.8 1.4-2.8 2.4-5.9 3.4-8.9 1.2-3.5 2.3-7.1 3.2-10.7.9-3.6 1.7-7.2 2.2-10.9.5-3.6.6-7.3 0-10.9-.4-2.7-1.2-5.3-2.5-7.6s-3-4.3-5.1-5.9c-2.5-1.9-5.5-3.3-8.6-4-3-.7-6.1-.5-9 .7-1.3.5-2.4 1.2-3.4 2.2-.1.2.3.7.5.4z"/>
    <path class="st1"
          d="M46 63.1c2.8-3.2 7.1-5.1 11.3-4.8 3.2.3 6.4 2 8 4.8 1.4 2.4 1.6 5.2 1.4 8-.8 10.6-1.4 21.7-5.3 31.7-1 2.4-2.1 4.8-3.8 6.8-4.8 5.7-12.3 6.7-19 4.3-3-1.1-5-3.3-4.8-6.6.2-2.6 1.4-5 2.6-7.3 4.1-8.7 5.6-17.7 6.7-27.2.4-3.3.8-6.7 2.7-9.3"/>
    <path class="st3"
          d="M46.2 63.3c2.9-3.3 7.6-5.4 12-4.6 2.1.4 4.1 1.4 5.6 2.9 1.6 1.7 2.4 4 2.6 6.4.1 1.2 0 2.4-.1 3.6-.1 1.3-.2 2.5-.3 3.8-.2 2.6-.4 5.1-.7 7.7-.5 5.1-1.3 10.3-2.8 15.2-1.4 4.6-3.2 9.5-6.9 12.8-3.2 2.7-7.3 3.9-11.5 3.7-2.1-.1-4.2-.6-6.1-1.4-1.7-.7-3.1-2-3.7-3.8-.7-2.2 0-4.7.9-6.7.5-1.2 1.1-2.3 1.6-3.5s1-2.3 1.5-3.5c1.8-4.8 3-9.7 3.8-14.7.4-2.5.7-5.1 1-7.6.3-2.4.5-4.7 1.2-7 .4-1.1.9-2.1 1.6-3 .2-.3-.3-.6-.5-.3-1.5 1.9-2.1 4.3-2.4 6.7-.4 2.5-.6 5.1-.9 7.6-.6 5.2-1.6 10.4-3.2 15.4-.8 2.5-1.8 5-3 7.4-1.1 2.3-2.3 4.7-2.3 7.3 0 1.9.8 3.7 2.3 5 1.6 1.3 3.6 1.9 5.6 2.4 4.1.9 8.6.4 12.3-1.7 1.9-1.1 3.6-2.7 4.9-4.5 1.5-2.1 2.6-4.5 3.4-6.9 1.8-5 2.9-10.2 3.6-15.5.3-2.6.6-5.3.8-7.9.2-2.6.4-5.3.6-7.9.1-2.4-.1-5-1.2-7.2-1-2-2.7-3.5-4.7-4.4-4.2-1.9-9.2-1-12.9 1.7-.9.6-1.7 1.4-2.4 2.2-.3.2.1.6.3.3zM112.6 100.5c.6.1 1.1.3 1.6.6s1 .7 1.5 1c.2.1.4 0 .5-.1.1-.2 0-.4-.1-.5-1-.7-2-1.5-3.3-1.6-.2 0-.4 0-.4.3-.1 0 0 .2.2.3zM111.5 104.9c1.2.5 2.4 1 3.4 1.8.2.1.4.1.5 0s.2-.4 0-.5c-1.1-.9-2.3-1.4-3.5-1.9-.2-.1-.4-.1-.5.1-.2.2-.1.4.1.5zM110.7 108.9c1.1.5 2.2 1.2 3.1 2.1.3.3.8-.2.5-.5-.9-.9-2.1-1.6-3.3-2.2-.2-.1-.4 0-.5.1 0 .2 0 .4.2.5zM109.6 112.3c.3.4.7.7 1 1 .5.5 1 .9 1.5 1.4l.6.6c.1.1.4.1.5 0s.1-.4 0-.5c-.4-.4-.8-.8-1.3-1.2-.5-.4-1-.8-1.4-1.3-.1-.1-.2-.2-.3-.2l-.1-.1s-.1-.1 0 0c-.1-.2-.3-.2-.5-.1 0 0-.1.2 0 .4zM108.7 116.6c.8.9 1.8 1.7 2.6 2.6.1.1.4.1.5 0s.1-.4 0-.5c-.8-.9-1.8-1.7-2.6-2.6-.1-.1-.4-.1-.5 0-.2.1-.2.3 0 .5zM107.2 120.5c.9.8 1.6 1.8 1.9 3 .1.5.8.3.7-.2-.3-1.3-1-2.5-2-3.3-.2-.1-.4-.1-.5 0-.3.1-.3.3-.1.5zM104.8 123.5s-.1-.1 0 0c0 0-.1-.1 0 0 0 .1.1.2.1.2s0 .1 0 0c0 0 0 .1.1.1.1.4.2.7.3 1.1.2.7.3 1.4.5 2.1.1.5.8.3.7-.2-.2-.8-.3-1.5-.5-2.3-.1-.4-.2-.8-.4-1.2-.1-.3-.3-.6-.5-.6-.6 0-.7.6-.3.8zM101.2 125.3c.5 1.1.7 2.2.7 3.4 0 .5.7.5.7 0 0-.6 0-1.3-.2-1.9-.1-.6-.4-1.2-.6-1.8-.1-.2-.3-.2-.5-.1s-.2.3-.1.4zM113 96.1c1.2.4 2.4.9 3.4 1.7.2.1.4.1.5 0s.2-.4 0-.5c-1.1-.9-2.4-1.4-3.8-1.8-.4-.2-.5.5-.1.6zM113.5 91.7c1.3.3 2.6 1 3.5 2.1.1.2.4.1.5 0s.1-.4 0-.5c-.9-1.2-2.4-1.9-3.8-2.3-.4-.2-.6.5-.2.7zM113.9 86.5c.7.2 1.4.5 2 .9s1.2.9 1.7 1.5c.3.3.8-.2.5-.5-.6-.6-1.2-1.1-1.8-1.6-.7-.4-1.4-.7-2.2-1-.5-.1-.7.6-.2.7zM113.5 81.4c1.6.4 3.3 1 4.6 2.2.3.3.9-.2.5-.5-1.3-1.2-3.1-2-4.9-2.4-.5-.1-.7.6-.2.7zM112.4 76.2c2 0 3.7 1.2 5.3 2.3.4.3.7-.4.4-.6-1.7-1.1-3.6-2.3-5.7-2.4-.5-.1-.5.7 0 .7zM110.4 72c2.3.6 4.6 1.3 6.7 2.3.4.2.8-.4.4-.6-2.2-1.1-4.5-1.8-6.8-2.4-.5-.1-.7.6-.3.7zM108 69.1c2.6-.6 5.4-.2 7.8 1 .4.2.8-.4.4-.6-2.5-1.3-5.5-1.7-8.3-1.1-.6.1-.4.8.1.7zM105.3 66.9c1.7-1.3 3.8-2 5.9-2 .5 0 .5-.7 0-.7-2.3.1-4.5.8-6.4 2.3-.3.2.2.7.5.4zM101.2 65.8c.9-1.5 2.2-2.8 3.7-3.7.4-.2 0-.9-.4-.6-1.6.9-3 2.4-4 4-.1.3.5.7.7.3zM97.2 126.2c.3 1.1.1 2.2 0 3.3 0 .5.7.5.7 0 .1-1.2.2-2.4-.1-3.5 0-.4-.7-.2-.6.2zM92.5 126.1c0 .1.1.2.1.3V126.7c0 .3.1.6.1.9l.3 1.8c0 .2.3.3.4.3.2-.1.3-.3.3-.4l-.3-1.8c0-.3-.1-.6-.1-.8 0-.2-.1-.4-.1-.6-.1-.2-.2-.3-.4-.3-.2-.1-.3.1-.3.3zM87.8 125c.3 1 .5 2.1.6 3.1 0 .2.3.3.4.3.2-.1.3-.2.3-.4-.2-1.1-.3-2.1-.6-3.1-.1-.2-.2-.3-.4-.3s-.3.2-.3.4zM83.8 123.5c.3 1.2.4 2.4.6 3.6 0 .2.3.3.4.3.2-.1.3-.3.3-.4-.2-1.2-.3-2.4-.6-3.6-.1-.5-.8-.3-.7.1zM80.7 122.2c-.2 1.1-.3 2.1-.6 3.2 0 .2.1.4.3.4.2 0 .4-.1.4-.3.2-1.1.4-2.1.6-3.2 0-.2-.1-.4-.3-.4-.2 0-.4.1-.4.3zM78.3 120.3c-.4.6-.9 1.3-1.4 1.9s-1 1.1-1.7 1.4c-.2.1-.2.3-.1.5s.3.2.5.1c.7-.3 1.4-1 1.9-1.6.6-.6 1-1.3 1.5-2 .2-.4-.4-.7-.7-.3zM77.3 117.6c-1.3.3-2.6.6-3.8.9-.4.1-.3.8.2.7 1.3-.3 2.6-.6 3.8-.9.4-.2.2-.9-.2-.7zM77.4 114.1c-.6.3-1.2.5-1.9.6-.7.2-1.3.3-2 .4-.2 0-.3.3-.3.4.1.2.3.3.4.3.7-.1 1.4-.3 2-.4.7-.2 1.4-.3 2-.7.6-.2.2-.9-.2-.6zM78.3 109.9c-.5.4-1.1.6-1.8.7-.6.2-1.3.3-1.9.3-.5 0-.5.7 0 .7.7 0 1.4-.2 2.1-.3.7-.2 1.4-.4 1.9-.8.4-.3.1-.9-.3-.6zM79.4 105.7c-.5.3-1.2.4-1.8.5-.6.1-1.3.2-1.9.3-.2 0-.3.3-.3.4.1.2.2.3.4.3.7-.1 1.3-.2 2-.3.7-.1 1.3-.3 2-.6.4-.2 0-.8-.4-.6zM80.4 102.4c-1.3.4-2.7.5-4 .8-.5.1-.3.8.2.7 1.3-.3 2.7-.4 4-.8.4-.1.3-.8-.2-.7zM81 98.4c-.2.1-.5.2-.8.3-.3.1-.7.2-1 .2-.6.1-1.2.2-1.9.2-.5 0-.5.7 0 .7.7 0 1.4-.1 2.1-.2s1.4-.2 2-.6c.2-.1.2-.3.1-.5-.1-.1-.3-.2-.5-.1zM81.5 94.7c-.5.3-1.2.4-1.8.5-.6.1-1.3.2-1.9.3-.2 0-.3.3-.3.4.1.2.3.3.4.3.7-.1 1.3-.2 2-.3.6-.1 1.3-.3 1.9-.6.5-.2.2-.8-.3-.6zM82.3 91.1c-1.4.3-2.8.4-4.2.9-.4.1-.2.8.2.7 1.3-.5 2.8-.6 4.2-.9.4-.1.2-.8-.2-.7zM83 87.1c-1.3.4-2.7.5-4.1.6-.2 0-.4.2-.4.4s.2.4.4.4c1.4-.1 2.9-.3 4.3-.6.4-.3.2-1-.2-.8zM83.3 83.6c-1.2 0-2.4.1-3.6.1-.5 0-.5.7 0 .7 1.2 0 2.4-.1 3.6-.1.5 0 .5-.7 0-.7zM84 80.1c-1.2-.1-2.5-.2-3.7-.2-.2 0-.4.2-.4.4s.2.3.4.4c1.2.1 2.5.2 3.7.2.2 0 .4-.2.4-.4 0-.3-.2-.4-.4-.4zM84.9 76.9c-1.1-.1-2.2-.2-3.3-.5-.4-.1-.6.6-.2.7 1.1.3 2.3.4 3.5.5.2 0 .4-.2.4-.4s-.2-.3-.4-.3zM86.1 74.6c-.5-.4-1-.7-1.5-1-.3-.2-.5-.3-.8-.5-.1-.1-.2-.2-.4-.2-.1 0-.1-.1-.2-.1-.1-.1.1 0 0 0l-.1-.1c-.2-.1-.4-.1-.5 0s-.2.4 0 .5c.5.4 1 .7 1.5 1 .3.2.5.3.8.5.1.1.2.2.4.2.1 0 .1.1.2.1.1.1-.1 0 0 0l.1.1c.2.1.4.1.5 0s.1-.4 0-.5zM87.8 71.7c-.7-.9-1.5-1.8-2.2-2.7-.1-.2-.4-.1-.5 0s-.1.4 0 .5c.7.9 1.5 1.8 2.2 2.7.1.2.4.1.5 0s.1-.4 0-.5zM90 69.1c-.3-.4-.5-.9-.7-1.4-.2-.4-.4-.9-.5-1.3s-.8-.3-.7.2c.1.5.3 1 .5 1.5s.5 1 .7 1.4c.3.4 1 0 .7-.4zM93.1 67.2c0-1-.1-2.1-.1-3.1 0-.2-.2-.4-.4-.4s-.4.2-.4.4c.1 1 .1 2.1.1 3.1.1.5.8.5.8 0zM97 65.8c.1-.6.2-1.1.3-1.7.1-.6.2-1.1.4-1.7.1-.2-.1-.4-.3-.4-.2-.1-.4.1-.4.3-.2.5-.3 1.1-.4 1.7s-.2 1.1-.3 1.7c0 .2.1.4.3.4.1 0 .3-.1.4-.3z"/>
    <path class="st3"
          d="M97.3 129.5c-2 .7-4 1.6-5.8 2.5-2.1 1.1-4.2 2.2-6.3 3.4-1.9 1.1-3.8 2.3-5.4 3.8-2 1.8-3.7 3.8-5.2 6-1.6 2.4-2.9 5.1-3.6 7.9-.1.4.6.6.7.2 1.3-5 4.3-9.5 8-13 1.6-1.5 3.4-2.8 5.3-3.9 2-1.2 4-2.3 6-3.3 2.1-1.1 4.3-2.1 6.5-2.9.5-.1.3-.8-.2-.7zM86 127.5c-3.3 1.2-6.8 1.9-9.9 3.6-1.8.9-3.2 2.5-4.5 4-1.4 1.8-2.5 3.7-3.5 5.7-1.1 2.3-2 4.7-2.7 7.1-.1.4.6.6.7.2 1.1-4.2 3-8.4 5.6-11.9 1.2-1.6 2.6-3.3 4.3-4.3 1.5-.9 3.2-1.4 4.8-2 1.8-.6 3.6-1.1 5.4-1.8.4-.1.3-.8-.2-.6zM110.8 135.1c-2.3-.3-4.8 0-7 .6-2.4.6-4.7 1.6-6.8 2.8-1 .6-1.9 1.2-2.8 1.9-1.2.9-2.3 1.8-3.4 2.8-2 1.9-3.7 4-5.2 6.4-1.6 2.6-2.9 5.5-3.6 8.5-.1.5.6.6.7.2 1.3-5.1 4.1-10 7.8-13.7 1-1 2.1-1.9 3.2-2.8.9-.7 1.9-1.4 2.9-2.1 2-1.2 4.3-2.2 6.5-2.9 2.5-.7 5.1-1.2 7.7-.8.5-.2.5-.9 0-.9z"/>
    <path class="st3"
          d="M66.8 127.9c2.2 1 4.2 2.4 6 4 1.9 1.6 3.7 3.4 5.2 5.4s2.8 4.2 4 6.4c1.1 2.2 2 4.5 2.8 6.8.9 2.6 1.5 5.3 1.4 8.1 0 .5.7.5.7 0 .1-2.6-.3-5.1-1.2-7.5-.8-2.3-1.7-4.6-2.7-6.8-1.1-2.3-2.5-4.6-4-6.7-1.4-2-3.2-3.9-5-5.5-2.1-1.8-4.4-3.5-6.9-4.7-.4-.4-.7.3-.3.5zM80.1 126c4.6 2.2 8.3 6.1 10.6 10.6 1 1.9 1.7 4 2.4 6 .8 2.2 1.4 4.5 2 6.7.7 2.9 1.2 5.7 1.5 8.7 0 .5.8.5.7 0-.3-2.7-.7-5.3-1.3-7.9-.6-2.3-1.2-4.7-1.9-7-.7-2.1-1.5-4.2-2.4-6.2-1.1-2.3-2.5-4.5-4.3-6.4-2-2.1-4.3-3.9-6.9-5.2-.4-.1-.8.5-.4.7zM92.8 129.7c3.1 2.5 5.8 5.5 7.8 9 2 3.4 3.3 7.1 4.2 11 .5 2.3.9 4.5 1.1 6.8 0 .5.8.5.7 0-.4-4.1-1.2-8.2-2.6-12.1-1.3-3.7-3.2-7.3-5.7-10.4-1.5-1.8-3.1-3.4-4.9-4.8-.4-.3-.9.2-.6.5zM105.6 128.2c1 .6 1.8 1.7 2.5 2.6.8 1.1 1.6 2.3 2.2 3.6.7 1.3 1.2 2.6 1.7 4 .5 1.6 1 3.2 1.3 4.8.3 1.9.4 3.9.4 5.9 0 .5.7.5.7 0 0-3.6-.4-7.1-1.6-10.4-.9-2.8-2.2-5.4-3.9-7.9-.8-1.1-1.7-2.4-2.9-3.1-.4-.4-.8.2-.4.5z"/>
    <path class="st3"
          d="M74.1 123.1c-2.8.7-5.9 1.8-7.5 4.3-.3.4.4.8.6.4 1.5-2.4 4.5-3.3 7.1-3.9.5-.2.3-.9-.2-.8zM36.7 117.7c-5.1-.5-10.3.6-14.8 2.9-1.3.7-2.5 1.4-3.7 2.3-.4.3 0 .9.4.6 4-3 8.9-4.8 13.9-5.2 1.4-.1 2.8-.1 4.2 0 .5.2.5-.5 0-.6zM45.3 119.6c-1.9.2-3.9.4-5.8.7-2.1.4-4.1 1.3-6 2.2-4.2 2-8.1 4.9-11.3 8.3-1.8 1.9-3.4 4.1-4.8 6.4-.2.4.4.8.6.4 2.3-4 5.4-7.4 9.1-10.3 1.8-1.4 3.8-2.7 5.9-3.7 1-.5 2.1-1 3.1-1.4.9-.4 1.9-.7 2.9-1 2-.5 4.1-.7 6.2-.9.5 0 .6-.7.1-.7zM67.9 123.1c-2.9-1.1-6.3-.9-9.3-.5-3.6.5-7.2 1.5-10.7 2.7-2.9 1-5.7 2.1-8.4 3.4-1.7.8-3.2 2-4.6 3.3-1.5 1.4-2.8 3-3.7 4.9-.8 1.5-1.4 3.2-1.8 4.8-.4 2-.6 4-.7 6 0 .6-.1 1.2-.1 1.8 0 .5.7.5.7 0 .2-3.8.4-7.7 2-11.2.8-1.7 1.8-3.3 3.1-4.7 1.4-1.5 3-2.9 4.8-3.9 2.5-1.3 5.2-2.4 7.9-3.3 3.4-1.2 6.8-2.2 10.4-2.9 3-.5 6.4-.9 9.4 0l.9.3c.3.2.5-.5.1-.7z"/>
    <path class="st3"
          d="M23.4 113.9c1.7 1.7 3.1 3.6 4.4 5.6 1.5 2.2 2.9 4.5 4.2 6.9 1.2 2.2 2.3 4.5 3.2 6.8.8 2.1 1.4 4.3 1.7 6.6.5 3.6.5 7.2 0 10.8-.1.5.6.6.7.2.4-3.3.5-6.6.1-9.9-.3-2.4-.7-4.8-1.5-7.1-.8-2.4-1.9-4.6-3.1-6.9-1.3-2.4-2.7-4.8-4.2-7.1s-3.1-4.5-5-6.4c-.3-.3-.8.2-.5.5zM19.3 121.3c2.1 3 3.6 6.3 4.6 9.7 1.1 3.6 1.6 7.3 1.6 11.1 0 2-.1 4-.4 6-.1.5.6.6.7.2.6-3.7.6-7.4.1-11.1-.5-3.8-1.5-7.5-3-10.9-.8-1.9-1.8-3.7-3-5.4-.3-.4-.9 0-.6.4zM36.4 118.3c2.5 3.6 4.7 7.4 6.3 11.5 1.6 4 2.6 8.3 2.7 12.6.1 2.4-.1 4.9-.6 7.3-.1.5.6.6.7.2.9-4.3.8-8.7 0-13.1-.8-4.3-2.4-8.5-4.5-12.4-1.2-2.2-2.5-4.4-4-6.4-.2-.4-.9-.1-.6.3zM48.4 120.5c2 3.2 3.3 6.8 4.1 10.5.8 3.6 1.4 7.3 1.1 10.9-.1 2-.6 4-1.4 5.8-.2.4.4.8.6.4 1.6-3.4 1.8-7.2 1.4-10.9-.4-3.8-1.2-7.6-2.4-11.2-.7-2.1-1.7-4.1-2.8-5.9-.2-.4-.8 0-.6.4zM66.8 69.4c2.7 2.5 4.9 5.4 6.2 8.8.2.4.9.2.7-.2-.6-1.8-1.5-3.4-2.6-5-1.1-1.5-2.4-2.9-3.8-4.2-.3-.2-.8.3-.5.6zM66.7 76c1.3.9 2.4 1.8 3.3 3.2.4.7.9 1.4 1.3 2.1.5.7.9 1.4 1.1 2.3.1.4.8.3.7-.2-.3-.9-.7-1.6-1.2-2.4s-.9-1.5-1.4-2.3c-.9-1.4-2.1-2.4-3.4-3.3-.4-.3-.8.3-.4.6zM66.1 81.2c.6.2 1 .9 1.4 1.3.5.6 1 1.3 1.5 2 .9 1.4 1.7 2.8 2.3 4.4.2.4.9.2.7-.2-.6-1.7-1.5-3.3-2.5-4.7-.5-.7-1-1.4-1.6-2.1-.5-.5-.8-1.1-1.5-1.3-.6-.2-.7.5-.3.6zM65.2 86.5c1.1 2.2 2.4 4.3 3.7 6.4.3.5.6.9.8 1.4.2.4.8 0 .6-.4-1.1-2-2.4-3.9-3.6-5.9-.4-.6-.7-1.3-1-1.9 0-.4-.7 0-.5.4zM64.2 93.1c1.4 2.1 2.6 4.2 3.8 6.4.2.4.8 0 .6-.4-1.2-2.2-2.4-4.3-3.8-6.4-.2-.4-.8 0-.6.4zM62.9 98.6c1.1 1.9 2.2 3.7 3.5 5.4.3.4.9 0 .6-.4-1.3-1.7-2.4-3.5-3.5-5.4-.3-.3-.9 0-.6.4zM61.3 103.4c.7 1 1.5 1.9 2.1 2.9.4.8.8 1.5 1.4 2.2.1.2.3.2.5.1s.2-.3.1-.5c-.5-.7-.9-1.4-1.4-2.2-.6-1-1.4-1.9-2.1-2.9-.2-.3-.9.1-.6.4zM59.2 107.4c.5.8 1.1 1.6 1.6 2.4.6.9 1.1 1.9 1.6 2.8.2.4.9 0 .6-.4-.5-.9-1-1.9-1.6-2.8-.5-.8-1.1-1.6-1.6-2.4-.3-.3-.9 0-.6.4zM56.8 110.8c1 1.6 2.2 3.1 3.1 4.8.2.4.9 0 .6-.4-.9-1.7-2.1-3.2-3.1-4.8-.2-.4-.9 0-.6.4zM54.3 113.2c.5.6.8 1.2 1.1 1.9.4 1 .8 1.9 1.2 2.9.1.2.2.3.4.3s.3-.3.3-.4l-1.2-3c-.3-.8-.6-1.5-1.2-2.1-.4-.5-.9 0-.6.4zM51.2 114.4c.7 1.7 1.5 3.4 2.4 5 .2.4.8 0 .6-.4-.8-1.6-1.6-3.2-2.3-4.8-.1-.2-.2-.3-.4-.3-.2.1-.3.3-.3.5zM47.4 115.6c.8 1.4 1.4 2.8 1.9 4.3.1.4.8.3.7-.2-.5-1.6-1.2-3.1-2-4.5-.2-.4-.8 0-.6.4zM43.5 115.3c.3.7.5 1.3.8 2 .3 1 .7 1.9 1.2 2.8.2.4.9 0 .6-.4-.5-.8-.8-1.8-1.2-2.7-.2-.7-.5-1.3-.7-2-.1-.2-.2-.3-.4-.3-.2.2-.4.4-.3.6zM40.3 114.9c.4 1.6 1 3.1 1.6 4.6.1.2.2.3.4.3s.3-.3.3-.4c-.6-1.5-1.1-3.1-1.6-4.6-.1-.6-.8-.4-.7.1zM36.9 113.5c.5 1.6 1 3.3 1.3 5 .1.5.8.3.7-.2-.3-1.7-.8-3.3-1.3-5-.1-.5-.8-.3-.7.2zM33.7 105.1c-.9.2-1.9.4-2.8.6-.9.3-1.8.6-2.6 1.2-.4.3.2.8.5.5.7-.6 1.6-.8 2.4-1.1.9-.2 1.8-.4 2.6-.6.6 0 .4-.7-.1-.6zM66 64.3c2.3.4 4.5 1.2 6.5 2.2.4.2.8-.4.4-.6-2.1-1.1-4.4-1.9-6.7-2.3-.5-.1-.7.6-.2.7zM64 60.9c.8-.5 1.8-.6 2.7-.7 1-.1 2.1-.2 3.1 0 .5.1.6-.6.2-.7-1.1-.3-2.3-.2-3.4-.1-1 .1-2.1.2-3 .7-.3.5 0 1.1.4.8zM61.2 59c.9-1.5 2-2.7 3.3-3.8.2-.1.1-.4 0-.5-.2-.2-.4-.1-.5 0-1.4 1.1-2.6 2.4-3.5 3.9-.1.4.5.8.7.4zM58.2 58.1c.2-1.9.5-3.9 1-5.7.1-.4-.6-.6-.7-.2-.6 1.9-.8 3.9-1 5.9-.1.4.6.4.7 0zM54.5 58.2c-.8-2.2-1.5-4.4-2.3-6.6-.2-.4-.8-.2-.7.2.8 2.2 1.5 4.4 2.3 6.6.2.4.9.2.7-.2zM50.6 59.3c-.7-1.3-1.6-2.5-2.6-3.6-.5-.6-1.1-1.2-1.6-1.7-.3-.3-.8.2-.5.5.5.6 1.1 1.1 1.6 1.7 1 1.1 1.8 2.2 2.5 3.5.2.4.9 0 .6-.4zM47.6 61.1c-1.5-1-3.3-1.7-4.9-2.5-.4-.2-.8.4-.4.6 1.7.8 3.4 1.5 4.9 2.5.4.3.8-.3.4-.6zM45 63.9c-1.5-.3-3-.5-4.5-.6-.5 0-.5.7 0 .7 1.4.1 2.9.2 4.3.6.4.1.6-.5.2-.7zM43.5 67.1c-.7-.2-1.3-.3-2-.3s-1.4 0-2 .1c-.2 0-.3.3-.3.4.1.2.3.3.4.3.6-.1 1.2-.1 1.8-.1s1.2.1 1.8.3c.6.2.8-.5.3-.7zM43.1 70.6c-1.4 0-2.8.2-4.2.5-.2 0-.3.3-.3.4.1.2.3.3.4.3 1.3-.2 2.6-.4 4-.4.5-.1.5-.9.1-.8zM42.7 74.5c-.7-.1-1.4-.2-2.2-.1-.7 0-1.5.1-2.1.4-.4.1-.3.8.2.7.6-.2 1.3-.3 2-.3s1.3 0 2 .1c.4 0 .6-.7.1-.8zM42.1 78.8c-1.4.2-2.9.4-4.3.7-.5.1-.3.8.2.7 1.4-.3 2.7-.5 4.1-.7.2 0 .4-.1.4-.4 0-.1-.2-.3-.4-.3zM41.3 83.5h-4.4c-.5 0-.5.7 0 .7h4.4c.5 0 .5-.7 0-.7zM40.2 87.6c-1.6-.1-3.2-.1-4.7.2-.5.1-.3.8.2.7 1.5-.3 3-.3 4.5-.2.2 0 .4-.2.4-.4-.1-.2-.2-.3-.4-.3zM39.2 92.1c-2 .5-4 .7-6 1.2-.5.1-.3.8.2.7 2-.5 4-.7 6-1.2.4-.1.2-.8-.2-.7zM37.5 96.5c-2.2-.1-4.7.5-6.6 1.7-.4.3 0 .9.4.6 1.8-1.2 4.1-1.7 6.2-1.6.5 0 .5-.7 0-.7zM35.6 100.6c-2.2.4-4.4 1-6.4 2.2-.4.2 0 .9.4.6 1.9-1.1 4.1-1.7 6.2-2.1.5-.1.3-.8-.2-.7zM33.5 109.1c-1.3.8-2.7 1.6-4.1 2.3-.4.2 0 .8.4.6 1.4-.7 2.7-1.4 4.1-2.3.3-.2-.1-.8-.4-.6zM35 112.2c-.6 1.2-1.4 2.2-2.3 3.2-.3.3.2.8.5.5.9-1 1.8-2.1 2.5-3.3.1-.5-.5-.9-.7-.4z"/></svg>
