<svg id="Layer_1" data-name="Layer 1" xmlns="http://www.w3.org/2000/svg" viewBox="0 0 458.13 156.2"><defs><style>.cls-1{fill:#28a2db;}.cls-2{fill:#0f3d63;}.cls-3{fill:#d8312d;}.cls-4{fill:#ee9831;}.cls-5{fill:#232323;}</style></defs><path class="cls-1" d="M470.42,155.4A53.79,53.79,0,0,0,455,140a229,229,0,0,0-22.1-12.6c-4.7-2.3-9.3-4.8-13.7-7.5a31.2,31.2,0,0,1-8.5-8.1,18.65,18.65,0,0,1-3.3-11.2,19.45,19.45,0,0,1,4.2-12.9,15.6,15.6,0,0,1,12.6-4.8c14.6,0,24.5,10.5,29.5,31.5h17.4v-3.3c0-10.2-.4-19.2-1.1-27.1a45.82,45.82,0,0,0-4.9-18.4l-17.8,5.6a41.85,41.85,0,0,0-12.8-4.2,92.79,92.79,0,0,0-14.9-1.4,56.35,56.35,0,0,0-23.9,5,38.57,38.57,0,0,0-23,36.4,44.83,44.83,0,0,0,10,29.4c6.7,8,16.6,15.4,29.7,22a132.56,132.56,0,0,1,22.5,13.7,19.47,19.47,0,0,1,7.9,15.7,18.45,18.45,0,0,1-4.2,11.2,15.67,15.67,0,0,1-13,5.2,30.82,30.82,0,0,1-23.2-10.5c-6.6-7-10.9-16.5-13.2-28.6h-20.9a186.65,186.65,0,0,0,2.8,30.8,100,100,0,0,0,7,25.7l16.1-7.3a81.75,81.75,0,0,0,33.7,7.3,55.6,55.6,0,0,0,26-5.8,41.28,41.28,0,0,0,17-15.6,41.88,41.88,0,0,0,5.9-22.1,38.73,38.73,0,0,0-6.4-22.7" transform="translate(-18.72 -65.5)"/><path class="cls-1" d="M309.82,65.5a19.42,19.42,0,0,0-4.6,13.6,20.55,20.55,0,0,1,11.4,2.5,9.56,9.56,0,0,1,3.5,8.3v79.9a37.87,37.87,0,0,1-6,22.4c-4,5.7-10.4,8.5-19.1,8.5s-15.3-3.1-19.4-9.4-6.4-14.6-6.4-24.9V90.1a10.27,10.27,0,0,1,3-8.3,16.26,16.26,0,0,1,10.1-2.5,19.36,19.36,0,0,0-4.9-13.6H225a19.59,19.59,0,0,0-4.7,13.7,16.42,16.42,0,0,1,10.1,2.5,10.61,10.61,0,0,1,3,8.3V162c0,19.3,5.2,34,15.5,44.3s24.5,15.4,42.5,15.4,31.6-5.3,40.7-15.9,13.7-25.9,13.7-45.9V90a9.63,9.63,0,0,1,3.4-8.3,20.55,20.55,0,0,1,11.4-2.5A20.4,20.4,0,0,0,356,65.6l-46.2-.1Z" transform="translate(-18.72 -65.5)"/><path class="cls-1" d="M205.82,185.8a76.14,76.14,0,0,0-13-26.1q-8.55-10.95-18-13.8c21.8-4.7,32.7-18,32.7-39.7,0-28.5-20.7-40.6-60.6-40.6-5.7,0-13.4.5-23.5,1.1-11.4.5-21.2-.4-30.4-.4a17.76,17.76,0,0,0-4.1,12.9c4.7,0,12.4-1.8,14.6,0s2.3,7.9,2.3,11.8l1.8,108c0,3.9-4.7,7.9-7.5,8.9a13.76,13.76,0,0,1-10.9,0,21.22,21.22,0,0,0,4.7,13.6h52.4c3.1-4,1.4-6.9,1.4-12.2-4.3,0-7.4,1-10.1-.9s-.9-7.3-.9-11.1V154.1h13.8c3.8,1.3,6.9,4.9,9.2,10.6a149.83,149.83,0,0,1,6.7,21.6,106.16,106.16,0,0,0,6.4,19,26.64,26.64,0,0,0,10.7,11.6,37.82,37.82,0,0,0,19.8,4.6c8.9,0,15-2.4,18.2-7.1V203.2a15.53,15.53,0,0,1-9.5-5,28,28,0,0,1-6.2-12.4m-40.3-55.4a24.52,24.52,0,0,1-19.7,8.3,85.53,85.53,0,0,1-10.1-.6V80.9a42.63,42.63,0,0,1,10.1-.8c9,0,16.5,2.5,20.7,7.1s6.2,11.7,6.2,21.2a33.5,33.5,0,0,1-7.2,22Z" transform="translate(-18.72 -65.5)"/><path class="cls-2" d="M34.22,185.8a76.14,76.14,0,0,1,13-26.1q8.55-10.95,18-13.8c-21.8-4.7-32.7-18-32.7-39.7.1-28.5,20-40.7,59.9-40.7h54.9a24.87,24.87,0,0,1,4.1,15,43.27,43.27,0,0,0-14.8.6l.3,116.4a9.84,9.84,0,0,0,3.8,7.4,16.35,16.35,0,0,0,10.3,2.7,21.55,21.55,0,0,1-4.9,14H93.62a22,22,0,0,1-4.6-14,17.69,17.69,0,0,0,10.5-2.8,7.73,7.73,0,0,0,3.9-7.5V154.1H89.72c-3.8,1.3-6.9,4.9-9.2,10.6a149.83,149.83,0,0,0-6.7,21.6,98.8,98.8,0,0,1-6.4,19A26.88,26.88,0,0,1,56.72,217a37.82,37.82,0,0,1-19.8,4.6c-8.9,0-15-2.5-18.2-7.2V203.3a15,15,0,0,0,9.5-5,29.08,29.08,0,0,0,6-12.5m60.1-47c3.1,0,6.1-.1,9.2-.4V81.2a44.38,44.38,0,0,0-10.3-.9c-8.9,0-15.4,2.3-19.6,7s-6.2,11.7-6.2,21.2a32.79,32.79,0,0,0,7.1,22.1,25.09,25.09,0,0,0,19.8,8.2" transform="translate(-18.72 -65.5)"/><path class="cls-3" d="M121,86.5l15.4,31.2a2.47,2.47,0,0,0,2,1.4l34.5,5a2.62,2.62,0,0,1,1.4,4.5l-25,24.3a2.86,2.86,0,0,0-.8,2.3l5.9,34.3a2.65,2.65,0,0,1-3.8,2.8l-30.8-16.2a2.55,2.55,0,0,0-2.4,0l-30.8,16.2a2.62,2.62,0,0,1-3.8-2.8l5.9-34.3a2.56,2.56,0,0,0-.8-2.3l-25-24.3a2.64,2.64,0,0,1,1.4-4.5l34.5-5a2.7,2.7,0,0,0,2-1.4l15.5-31.2A2.65,2.65,0,0,1,121,86.5Z" transform="translate(-18.72 -65.5)"/><rect class="cls-4" x="76.9" y="66" width="46.9" height="4.3"/><rect class="cls-5" x="76.9" y="70.2" width="46.9" height="4.3"/><rect class="cls-4" x="76.9" y="74.4" width="46.9" height="4.3"/><rect class="cls-5" x="76.9" y="78.6" width="46.9" height="4.3"/><rect class="cls-4" x="76.9" y="82.8" width="46.9" height="4.3"/><rect class="cls-5" x="76.9" y="87" width="46.9" height="4.3"/></svg>