<svg xmlns="http://www.w3.org/2000/svg" width="207" height="192" viewBox="0 0 207 192" fill="none">
    <path fill-rule="evenodd" clip-rule="evenodd" d="M102.739 15.6039C118.615 15.5101 128.605 31.9043 141.795 40.723C155.716 50.0308 176.881 52.7446 182.071 68.6447C187.261 84.5444 174.693 100.584 166.001 114.881C159.009 126.381 147.113 132.667 137.448 142.042C125.496 153.636 119.301 174.375 102.739 176.247C86.327 178.101 73.4491 162.281 61.8064 150.59C51.7383 140.48 44.2607 128.254 41.1005 114.354C38.149 101.372 40.7702 88.2714 44.7495 75.5653C48.7733 62.7175 54.6499 50.8682 64.0169 41.1826C75.0357 29.789 86.8717 15.6977 102.739 15.6039Z" fill="#F1F6FD"/>
    <path fill-rule="evenodd" clip-rule="evenodd" d="M181.487 4.43749C180.298 3.25131 178.371 3.2513 177.183 4.43749L165.8 15.7969L154.417 4.43749C153.228 3.2513 151.301 3.25131 150.112 4.4375C148.924 5.62368 148.924 7.54688 150.112 8.73307L161.495 20.0925L150.112 31.4518C148.924 32.638 148.924 34.5612 150.112 35.7474C151.301 36.9336 153.228 36.9336 154.417 35.7474L165.8 24.388L177.183 35.7474C178.371 36.9336 180.298 36.9336 181.487 35.7474C182.676 34.5612 182.676 32.638 181.487 31.4518L170.104 20.0925L181.487 8.73307C182.676 7.54688 182.676 5.62368 181.487 4.43749Z" fill="#F1F6FD"/>
    <path fill-rule="evenodd" clip-rule="evenodd" d="M13.659 146.229C14.5581 145.331 16.0158 145.331 16.9149 146.229L25.5246 154.82L34.1344 146.229C35.0335 145.331 36.4912 145.331 37.3903 146.229C38.2894 147.126 38.2894 148.58 37.3903 149.478L28.7805 158.07L37.3906 166.662C38.2897 167.559 38.2897 169.014 37.3906 169.911C36.4915 170.808 35.0338 170.808 34.1347 169.911L25.5246 161.319L16.9146 169.911C16.0155 170.808 14.5578 170.808 13.6587 169.911C12.7596 169.014 12.7596 167.559 13.6587 166.662L22.2688 158.07L13.659 149.478C12.76 148.58 12.76 147.126 13.659 146.229Z" fill="#F1F6FD"/>
    <path d="M105.751 90.8923L96.5381 105.619L165.927 148.849L175.14 134.122L105.751 90.8923Z" fill="url(#paint0_linear)"/>
    <path d="M193.16 155.463L193.054 155.632C190.155 160.278 184.969 162.284 181.477 160.109L141.33 135.526L151.87 117.827L192.08 143.108C195.572 145.283 196.059 150.816 193.16 155.463Z" fill="url(#paint1_linear)"/>
    <path opacity="0.12" d="M117.31 118.165L119.828 120.002L142.748 114.068L123.659 101.924L117.31 118.165Z" fill="black"/>
    <g filter="url(#filter0_f)">
        <path d="M109.639 117.826C124.266 103.229 124.266 79.5623 109.639 64.9652C95.0117 50.3682 71.2961 50.3682 56.6687 64.9652C42.0414 79.5623 42.0414 103.229 56.6687 117.826C71.2961 132.423 95.0117 132.423 109.639 117.826Z" fill="url(#paint2_linear)"/>
    </g>
    <path d="M115.947 120.245C136.394 99.8402 136.394 66.7574 115.947 46.3526C95.4994 25.9478 62.348 25.9478 41.9008 46.3526C21.4536 66.7574 21.4536 99.8402 41.9008 120.245C62.348 140.65 95.4994 140.65 115.947 120.245Z" fill="url(#paint3_linear)"/>
    <path d="M78.9186 128.26C103.803 128.26 123.976 108.129 123.976 83.2961C123.976 58.4631 103.803 38.332 78.9186 38.332C54.0342 38.332 33.8613 58.4631 33.8613 83.2961C33.8613 108.129 54.0342 128.26 78.9186 128.26Z" fill="#C7D4FF"/>
    <path d="M40.3255 59.1841C49.186 43.1156 67.2072 38.0581 76.7172 38.5699C86.2273 39.0818 95.8937 38.1512 99.3962 47.027C102.026 53.6903 100.341 59.5437 95.7043 64.9983C83.5736 79.2697 74.2224 89.351 58.2579 102.527C49.2917 109.927 42.4626 106.786 37.161 100.412C34.5232 97.241 29.2498 79.2697 40.3255 59.1841Z" fill="white" fill-opacity="0.2"/>
    <path d="M141.859 134.934L151.891 118.101C152.229 117.531 152.081 116.771 151.552 116.369L151.383 116.243C150.748 115.778 149.859 115.968 149.457 116.644L139.573 133.603C139.214 134.237 139.425 135.06 140.081 135.398L140.103 135.419C140.716 135.757 141.499 135.546 141.859 134.934Z" fill="#1F2023"/>
    <path d="M122.876 83.6139C122.833 94.4273 118.897 104.903 111.744 113.013C104.675 121.038 94.8551 126.213 84.2945 127.712C73.4799 129.233 62.3266 126.508 53.3109 120.468C44.5069 114.576 38.0943 105.494 35.2796 95.3354C32.359 84.7966 33.5653 73.3075 38.4964 63.5501C43.2371 54.1518 51.3851 46.5909 61.0992 42.5359C71.2365 38.2909 82.7495 38.0374 93.1197 41.6278C103.109 45.0703 111.596 52.251 116.908 61.3326C120.844 68.0909 122.833 75.8207 122.876 83.6139C122.876 85.1557 125.288 85.1557 125.267 83.6139C125.225 72.7795 121.479 62.3674 114.664 53.9406C108.019 45.725 98.4741 39.9804 88.1463 37.7629C77.4375 35.4608 66.1149 37.0659 56.422 42.1135C47.11 46.95 39.5758 55.0811 35.3219 64.6484C30.8775 74.6591 30.1368 86.0849 33.142 96.6026C36.0414 106.761 42.4963 115.653 51.0676 121.82C59.8717 128.156 70.8556 131.133 81.649 130.373C92.3578 129.634 102.538 125.114 110.389 117.849C119.871 109.063 125.225 96.4759 125.267 83.6139C125.267 82.0722 122.876 82.0722 122.876 83.6139Z" fill="#89A4F8"/>
    <ellipse cx="65.8668" cy="84.3139" rx="5.69585" ry="5.68405" fill="#89A4F8"/>
    <ellipse cx="96.7916" cy="84.3139" rx="5.69585" ry="5.68405" fill="#89A4F8"/>
    <path d="M74.2139 105.082C74.2139 104.411 74.5858 103.796 75.1971 103.519C76.6484 102.861 79.424 101.747 81.5705 101.747C83.717 101.747 86.4926 102.861 87.9439 103.519C88.5552 103.796 88.9271 104.411 88.9271 105.082C88.9271 106.555 87.2119 107.458 85.8996 106.79C84.5318 106.094 82.9229 105.465 81.5705 105.465C80.2181 105.465 78.6092 106.094 77.2414 106.79C75.9291 107.458 74.2139 106.555 74.2139 105.082Z" fill="#89A4F8"/>
    <rect width="14.7057" height="2.92256" rx="1.46128" transform="matrix(0.866473 0.499223 -0.500777 0.865576 98.2559 69.9121)" fill="#89A4F8"/>
    <rect width="14.7057" height="2.92256" rx="1.46128" transform="matrix(-0.866473 0.499223 0.500777 0.865576 64.4033 69.9121)" fill="#89A4F8"/>
    <path d="M40.2317 83.0747C39.7041 84.14 39.704 88.4007 40.2317 89.9984M40.7587 77.2162C41.2863 65.6768 50.7828 43.3436 84.5482 46.3261" stroke="white" stroke-width="4" stroke-linecap="round" stroke-linejoin="round"/>
    <ellipse cx="33.8619" cy="28.413" rx="8.33745" ry="8.32019" fill="#F1F6FD"/>
    <ellipse cx="145.736" cy="153.759" rx="4.91996" ry="4.90977" fill="#F1F6FD"/>
    <ellipse cx="146.195" cy="167.564" rx="3.02628" ry="3.02" fill="#F1F6FD"/>
    <ellipse cx="51.6612" cy="25.0025" rx="4.91995" ry="4.90977" fill="#F1F6FD"/>
    <defs>
        <filter id="filter0_f" x="16.6982" y="25.0176" width="132.911" height="132.756" filterUnits="userSpaceOnUse" color-interpolation-filters="sRGB">
            <feFlood flood-opacity="0" result="BackgroundImageFix"/>
            <feBlend mode="normal" in="SourceGraphic" in2="BackgroundImageFix" result="shape"/>
            <feGaussianBlur stdDeviation="14.5" result="effect1_foregroundBlur"/>
        </filter>
        <linearGradient id="paint0_linear" x1="149.616" y1="114.982" x2="129.364" y2="139.418" gradientUnits="userSpaceOnUse">
            <stop offset="0.00671814" stop-color="#586FF6"/>
            <stop offset="1" stop-color="#86A0F8"/>
        </linearGradient>
        <linearGradient id="paint1_linear" x1="179.596" y1="121.383" x2="140.31" y2="122.736" gradientUnits="userSpaceOnUse">
            <stop offset="0.00671814" stop-color="#586FF6"/>
            <stop offset="1" stop-color="#86A0F8"/>
        </linearGradient>
        <linearGradient id="paint2_linear" x1="124.241" y1="100.159" x2="42.1513" y2="84.4201" gradientUnits="userSpaceOnUse">
            <stop stop-color="#586FF6"/>
            <stop offset="1" stop-color="#89A4F8"/>
        </linearGradient>
        <linearGradient id="paint3_linear" x1="136.359" y1="95.5497" x2="21.6073" y2="73.5481" gradientUnits="userSpaceOnUse">
            <stop stop-color="#586FF6"/>
            <stop offset="1" stop-color="#89A4F8"/>
        </linearGradient>
    </defs>
</svg>
