<svg width="120" height="111" viewBox="0 0 120 111" fill="none" xmlns="http://www.w3.org/2000/svg">
<g clip-path="url(#clip0_38058_677735)">
<path fill-rule="evenodd" clip-rule="evenodd" d="M59.5587 9.02098C68.7624 8.96676 74.5535 18.4446 82.2 23.543C90.2704 28.924 102.54 30.4929 105.549 39.6852C108.557 48.8772 101.271 58.1502 96.2325 66.4154C92.1793 73.0638 85.2829 76.6978 79.6799 82.1181C72.7512 88.8207 69.1599 100.811 59.5587 101.893C50.0447 102.965 42.5792 93.8184 35.8298 87.0597C29.9932 81.215 25.6584 74.1468 23.8264 66.1109C22.1154 58.6055 23.6349 51.0319 25.9418 43.6862C28.2744 36.2585 31.6811 29.4081 37.1113 23.8086C43.499 17.2217 50.3605 9.07518 59.5587 9.02098Z" fill="#F1F6FD"/>
<path fill-rule="evenodd" clip-rule="evenodd" d="M105.21 2.56511C104.521 1.87934 103.404 1.87934 102.715 2.56511L96.1159 9.13227L89.517 2.56511C88.828 1.87934 87.7108 1.87934 87.0217 2.56511C86.3326 3.25087 86.3326 4.36272 87.0217 5.04848L93.6205 11.6157L87.0218 18.1827C86.3327 18.8685 86.3327 19.9804 87.0218 20.6661C87.7108 21.3519 88.828 21.3519 89.5171 20.6661L96.1159 14.099L102.715 20.6661C103.404 21.3519 104.521 21.3519 105.21 20.6661C105.899 19.9804 105.899 18.8685 105.21 18.1828L98.6112 11.6156L105.21 5.04848C105.899 4.36272 105.899 3.25087 105.21 2.56511Z" fill="#F1F6FD"/>
<path fill-rule="evenodd" clip-rule="evenodd" d="M7.91849 84.5382C8.43969 84.0195 9.28474 84.0195 9.80594 84.5382L14.7971 89.5054L19.7882 84.5382C20.3094 84.0195 21.1545 84.0195 21.6757 84.5382C22.1969 85.0569 22.1969 85.8979 21.6757 86.4166L16.6845 91.3838L21.6759 96.3512C22.1971 96.8699 22.1971 97.7109 21.6759 98.2296C21.1547 98.7483 20.3097 98.7483 19.7884 98.2296L14.7971 93.2622L9.80571 98.2296C9.2845 98.7483 8.43946 98.7483 7.91825 98.2296C7.39704 97.7109 7.39704 96.8699 7.91825 96.3512L12.9096 91.3838L7.91849 86.4166C7.39728 85.8979 7.39728 85.0569 7.91849 84.5382Z" fill="#F1F6FD"/>
<path d="M61.3048 52.5473L55.9639 61.0613L96.1892 86.0537L101.53 77.5397L61.3048 52.5473Z" fill="url(#paint0_linear_38058_677735)"/>
<path d="M111.976 89.8769L111.915 89.9746C110.234 92.6608 107.228 93.8207 105.204 92.5631L81.9297 78.3508L88.0395 68.1189L111.35 82.7341C113.375 83.9918 113.657 87.1907 111.976 89.8769Z" fill="url(#paint1_linear_38058_677735)"/>
<path opacity="0.12" d="M68.0049 68.3142L69.4649 69.3765L82.7519 65.9455L71.6855 58.9248L68.0049 68.3142Z" fill="black"/>
<g filter="url(#filter0_f_38058_677735)">
<path d="M63.5582 68.1182C72.0378 59.6792 72.0378 45.997 63.5582 37.5581C55.0786 29.1192 41.3304 29.1192 32.8508 37.5581C24.3712 45.997 24.3712 59.6792 32.8508 68.1182C41.3304 76.5571 55.0786 76.5571 63.5582 68.1182Z" fill="url(#paint2_linear_38058_677735)"/>
</g>
<path d="M67.2148 69.5163C79.0682 57.7197 79.0682 38.5937 67.2148 26.7972C55.3613 15.0006 36.1431 15.0006 24.2897 26.7972C12.4363 38.5937 12.4363 57.7197 24.2897 69.5163C36.1431 81.3128 55.3613 81.3128 67.2148 69.5163Z" fill="url(#paint3_linear_38058_677735)"/>
<path d="M45.7491 74.1503C60.1749 74.1503 71.8693 62.512 71.8693 48.1555C71.8693 33.7989 60.1749 22.1606 45.7491 22.1606C31.3233 22.1606 19.6289 33.7989 19.6289 48.1555C19.6289 62.512 31.3233 74.1503 45.7491 74.1503Z" fill="#C7D4FF"/>
<path d="M23.3764 34.2157C28.513 24.9261 38.96 22.0023 44.4731 22.2982C49.9862 22.5941 55.5899 22.0561 57.6203 27.1874C59.1446 31.0396 58.1679 34.4236 55.4801 37.5771C48.4478 45.8277 43.0268 51.656 33.772 59.2732C28.5742 63.5513 24.6153 61.7359 21.5419 58.0509C20.0128 56.2174 16.9557 45.8277 23.3764 34.2157Z" fill="white" fill-opacity="0.2"/>
<path d="M82.2365 78.0086L88.0519 68.2773C88.2482 67.9476 88.1623 67.5081 87.8556 67.2761L87.7574 67.2028C87.3894 66.9342 86.8741 67.0441 86.641 67.4348L80.9115 77.2393C80.7029 77.6056 80.8256 78.0818 81.2059 78.2772L81.2182 78.2894C81.574 78.4848 82.0279 78.3627 82.2365 78.0086Z" fill="#1F2023"/>
<path d="M71.2315 48.3391C71.2069 54.5906 68.925 60.6467 64.7781 65.3353C60.6804 69.975 54.9876 72.9665 48.8655 73.8334C42.5962 74.7125 36.1306 73.1374 30.9041 69.6454C25.8003 66.2388 22.0828 60.9886 20.4511 55.1156C18.758 49.0229 19.4573 42.3807 22.3159 36.7397C25.0641 31.3064 29.7876 26.9352 35.419 24.5909C41.2957 22.1367 47.9699 21.9902 53.9816 24.0659C59.7725 26.0561 64.6922 30.2075 67.7717 35.4577C70.0537 39.3649 71.2069 43.8337 71.2315 48.3391C71.2315 49.2305 72.6301 49.2305 72.6179 48.3391C72.5933 42.0755 70.4217 36.056 66.4712 31.1843C62.6188 26.4346 57.0856 23.1135 51.0985 21.8315C44.8905 20.5006 38.3267 21.4286 32.7076 24.3467C27.3093 27.1428 22.9417 31.8436 20.4756 37.3747C17.8992 43.1621 17.4698 49.7677 19.2119 55.8482C20.8928 61.7212 24.6347 66.8615 29.6036 70.4268C34.7074 74.0898 41.0749 75.8114 47.3319 75.3718C53.5399 74.9445 59.4412 72.3316 63.9929 68.1314C69.4893 63.052 72.5933 55.775 72.6179 48.3391C72.6179 47.4478 71.2315 47.4478 71.2315 48.3391Z" fill="#89A4F8"/>
<ellipse cx="38.1828" cy="48.7439" rx="3.30194" ry="3.28609" fill="#89A4F8"/>
<ellipse cx="56.1105" cy="48.7439" rx="3.30194" ry="3.28609" fill="#89A4F8"/>
<path d="M43.0225 60.7514C43.0225 60.3626 43.2381 60.0066 43.5924 59.8465C44.4338 59.4662 46.0428 58.822 47.2872 58.822C48.5316 58.822 50.1406 59.4662 50.9819 59.8465C51.3362 60.0066 51.5519 60.3626 51.5519 60.7514C51.5519 61.6029 50.5608 62.126 49.8017 61.7401C49.0077 61.3365 48.0728 60.9717 47.2872 60.9717C46.5016 60.9717 45.5666 61.3365 44.7726 61.7401C44.0135 62.126 43.0225 61.6029 43.0225 60.7514Z" fill="#89A4F8"/>
<rect width="8.51923" height="1.69077" rx="0.845383" transform="matrix(0.867064 0.498197 -0.501805 0.864981 56.959 40.4177)" fill="#89A4F8"/>
<rect width="8.51923" height="1.69077" rx="0.845383" transform="matrix(-0.867064 0.498197 0.501805 0.864981 37.335 40.4177)" fill="#89A4F8"/>
<path d="M23.3222 48.0272C23.0163 48.643 23.0163 51.1063 23.3222 52.0299M23.6277 44.6403C23.9336 37.969 29.4388 25.0577 49.0129 26.7819" stroke="white" stroke-width="4" stroke-linecap="round" stroke-linejoin="round"/>
<ellipse cx="19.6292" cy="16.4258" rx="4.8333" ry="4.81011" fill="#F1F6FD"/>
<ellipse cx="84.484" cy="88.8919" rx="2.85215" ry="2.83846" fill="#F1F6FD"/>
<ellipse cx="84.7505" cy="96.8727" rx="1.75437" ry="1.74594" fill="#F1F6FD"/>
<ellipse cx="29.9478" cy="14.4542" rx="2.85215" ry="2.83846" fill="#F1F6FD"/>
</g>
<defs>
<filter id="filter0_f_38058_677735" x="-2.50879" y="2.229" width="101.427" height="101.218" filterUnits="userSpaceOnUse" color-interpolation-filters="sRGB">
<feFlood flood-opacity="0" result="BackgroundImageFix"/>
<feBlend mode="normal" in="SourceGraphic" in2="BackgroundImageFix" result="shape"/>
<feGaussianBlur stdDeviation="14.5" result="effect1_foregroundBlur_38058_677735"/>
</filter>
<linearGradient id="paint0_linear_38058_677735" x1="86.7339" y1="66.4741" x2="75.0316" y2="80.6326" gradientUnits="userSpaceOnUse">
<stop offset="0.00671814" stop-color="#586FF6"/>
<stop offset="1" stop-color="#86A0F8"/>
</linearGradient>
<linearGradient id="paint1_linear_38058_677735" x1="104.113" y1="70.1749" x2="81.3383" y2="70.9614" gradientUnits="userSpaceOnUse">
<stop offset="0.00671814" stop-color="#586FF6"/>
<stop offset="1" stop-color="#86A0F8"/>
</linearGradient>
<linearGradient id="paint2_linear_38058_677735" x1="72.0232" y1="57.9048" x2="24.4442" y2="48.7573" gradientUnits="userSpaceOnUse">
<stop stop-color="#586FF6"/>
<stop offset="1" stop-color="#89A4F8"/>
</linearGradient>
<linearGradient id="paint3_linear_38058_677735" x1="79.0478" y1="55.2393" x2="12.5383" y2="42.4523" gradientUnits="userSpaceOnUse">
<stop stop-color="#586FF6"/>
<stop offset="1" stop-color="#89A4F8"/>
</linearGradient>
<clipPath id="clip0_38058_677735">
<rect width="120" height="111" fill="white"/>
</clipPath>
</defs>
</svg>
