<svg width="41" height="40" viewBox="0 0 41 40" fill="none" xmlns="http://www.w3.org/2000/svg">
<path fill-rule="evenodd" clip-rule="evenodd" d="M20.5 6.16976C12.8612 6.16976 6.66976 12.3612 6.66976 20C6.66976 27.6389 12.8612 33.8303 20.5 33.8303C28.1389 33.8303 34.3303 27.6389 34.3303 20C34.3303 12.3612 28.1389 6.16976 20.5 6.16976ZM3.83643 20C3.83643 10.7964 11.2964 3.33643 20.5 3.33643C29.7037 3.33643 37.1636 10.7964 37.1636 20C37.1636 29.2037 29.7037 36.6636 20.5 36.6636C11.2964 36.6636 3.83643 29.2037 3.83643 20Z" fill="#77777B"/>
<path fill-rule="evenodd" clip-rule="evenodd" d="M19.9422 11.7369C20.7246 11.7369 21.3589 12.3712 21.3589 13.1536V20.3385L26.8822 23.6334C27.5541 24.0342 27.7739 24.9039 27.373 25.5758C26.9722 26.2477 26.1025 26.4675 25.4306 26.0667L19.2165 22.3596C18.788 22.104 18.5256 21.6419 18.5256 21.143V13.1536C18.5256 12.3712 19.1598 11.7369 19.9422 11.7369Z" fill="#77777B"/>
</svg>
