<svg fill="none" xmlns="http://www.w3.org/2000/svg" viewBox="0 0 32 32"><g clip-path="url(#a)"><path d="M32 16c0-8.837-7.163-16-16-16S0 7.163 0 16s7.163 16 16 16 16-7.163 16-16Z" fill="#4A9DF7"/><path d="M24.471 20.164c-.288-.925-.715-1.726-1.28-2.4-.565-.674-1.158-1.1-1.777-1.277 2.15-.435 3.223-1.656 3.223-3.658 0-2.627-2.036-3.737-5.975-3.737-.564 0-1.328.04-2.32.095-1.13.054-2.101-.033-3.011-.033-.275.313-.407.64-.407 1.184.468 0 1.22-.162 1.44.002.22.163.228.72.228 1.088l.173 9.714c0 .367-.432.947-.735.917-.269-.025-.627.15-1.086-.038 0 .476.157.905.475 1.286h5.159c.302-.367.137-.63.137-1.12-.426 0-.73.086-.992-.085-.261-.169-.088-.77-.088-1.123v-3.736h1.363c.374.123.676.45.91.982.234.53.454 1.199.66 2.002.193.72.403 1.304.631 1.747.228.443.578.8 1.054 1.073.475.272 1.126.408 1.951.408.88 0 1.48-.218 1.796-.653V21.78c-.385-.055-.7-.208-.939-.46-.242-.254-.438-.639-.59-1.156Zm-3.985-5.098c-.468.512-1.114.766-1.942.766-.357 0-.66-.013-.908-.04v-5.27c.207-.054.545-.081 1.012-.081.88 0 1.526.213 1.932.643.407.43.61 1.08.61 1.951-.002.844-.236 1.522-.704 2.031Z" fill="#fff"/><path d="M7.529 20.167c.289-.927.715-1.726 1.281-2.4.564-.675 1.158-1.1 1.777-1.277-2.15-.436-3.223-1.656-3.223-3.658 0-2.628 1.969-3.738 5.907-3.738.564 0 1.345-.007 2.337 0 1.144.01 2.091-.04 3.09 0 .274.313.4.824.4 1.369-.925-.07-1.462.062-1.462.062l.026 10.481c.043.354.159.613.373.776.214.163.554.245 1.022.245 0 .478-.157.906-.476 1.287h-5.186a1.964 1.964 0 0 1-.454-1.287c.427 0 .77-.084 1.034-.255.261-.169.391-.431.391-.785v-3.743h-1.364c-.373.122-.676.449-.91.98-.234.532-.454 1.198-.66 2.003-.193.721-.403 1.304-.631 1.747-.228.444-.578.801-1.053 1.073-.476.272-1.126.409-1.952.409-.88 0-1.48-.218-1.796-.654V21.78c.385-.054.7-.208.94-.459.241-.252.438-.637.589-1.154Zm5.929-4.332c.358 0 .66-.014.908-.041v-5.271c-.206-.055-.544-.082-1.012-.082-.88 0-1.525.214-1.932.643-.407.43-.61 1.081-.61 1.952 0 .845.235 1.522.702 2.033.468.511 1.117.766 1.944.766Z" fill="#fff"/></g><defs><clipPath id="a"><path fill="#fff" d="M0 0h32v32H0z"/></clipPath></defs></svg>