<svg width="167" height="48" viewBox="0 0 167 48" fill="none" xmlns="http://www.w3.org/2000/svg">
    <rect width="167" height="48" rx="8" fill="#3D3D3D"/>
    <path d="M44.3163 19.8521C44.3163 19.8521 41.5295 21.2892 41.5295 24.7785V24.7778C41.5295 28.7131 45 30.0692 45 30.0692C45 30.0692 42.5745 36.9619 39.2978 36.9619C37.7912 36.9619 36.6231 35.9383 35.0356 35.9383C33.4204 35.9383 31.8163 37 30.7728 37C27.7805 37 24 30.4626 24 25.2072C24 20.037 27.1992 17.3241 30.2005 17.3241C32.1527 17.3241 33.6668 18.4599 34.6792 18.4599C35.5505 18.4599 37.167 17.2521 39.2708 17.2521C42.8907 17.2521 44.3163 19.8521 44.3163 19.8521Z" fill="white"/>
    <path d="M39.632 11C39.632 11 39.9829 13.1173 38.3006 15.1556C36.5048 17.3331 34.4654 16.9764 34.4654 16.9764C34.4654 16.9764 34.082 15.2643 35.5865 13.2627C37.2791 11.0104 39.632 11 39.632 11Z" fill="white"/>
    <path d="M56.6978 14.4828C56.6768 14.8214 56.6374 15.0951 56.5796 15.3039C56.5244 15.5126 56.4312 15.6934 56.2999 15.8462V15.892H59.0574V11.6186H56.8829L56.6978 14.4828ZM55.6578 16.5106V17.599H55V15.892H55.4215C55.6184 15.7902 55.7629 15.6234 55.8548 15.3917C55.9493 15.1575 56.0084 14.8494 56.0321 14.4676L56.2487 11H59.7664V15.892H60.4755V17.599H59.8176V16.5106H55.6578ZM62.0021 15.5903C62.2201 15.8576 62.53 15.9913 62.9318 15.9913C63.3336 15.9913 63.6435 15.8576 63.8615 15.5903C64.0794 15.3204 64.1884 14.9411 64.1884 14.4523C64.1884 13.9635 64.0794 13.5854 63.8615 13.318C63.6435 13.0482 63.3336 12.9133 62.9318 12.9133C62.53 12.9133 62.2201 13.0482 62.0021 13.318C61.7842 13.5854 61.6752 13.9635 61.6752 14.4523C61.6752 14.9411 61.7842 15.3204 62.0021 15.5903ZM64.3617 16.0142C64.0125 16.3935 63.5358 16.5832 62.9318 16.5832C62.3278 16.5832 61.8498 16.3935 61.4979 16.0142C61.1487 15.6323 60.974 15.1117 60.974 14.4523C60.974 13.7903 61.1487 13.2697 61.4979 12.8904C61.8472 12.511 62.3252 12.3213 62.9318 12.3213C63.5385 12.3213 64.0164 12.511 64.3657 12.8904C64.715 13.2697 64.8896 13.7903 64.8896 14.4523C64.8896 15.1117 64.7137 15.6323 64.3617 16.0142ZM69.3038 13.6541H68.6181C68.5607 13.4377 68.4357 13.2608 68.244 13.1233C68.055 12.9833 67.8147 12.9133 67.5232 12.9133C67.1424 12.9133 66.8391 13.0507 66.6132 13.3257C66.39 13.6006 66.2784 13.9711 66.2784 14.437C66.2784 14.9105 66.3913 15.2886 66.6172 15.5712C66.843 15.8512 67.145 15.9913 67.5232 15.9913C67.8094 15.9913 68.0471 15.9289 68.2362 15.8041C68.4281 15.6794 68.5554 15.5012 68.6181 15.2695H69.3038C69.2406 15.659 69.0529 15.976 68.7405 16.2204C68.4281 16.4623 68.0235 16.5832 67.5271 16.5832C66.931 16.5832 66.457 16.3897 66.1051 16.0028C65.7532 15.6132 65.5772 15.0913 65.5772 14.437C65.5772 13.7954 65.7532 13.2824 66.1051 12.898C66.457 12.5136 66.9297 12.3213 67.5232 12.3213C68.0195 12.3213 68.424 12.4473 68.7364 12.6994C69.0515 12.9514 69.2406 13.2697 69.3038 13.6541ZM73.0167 12.3939V12.9438H71.638V16.5106H70.9604V12.9438H69.5817V12.3939H73.0167ZM74.1295 18C74.022 18 73.9211 17.9924 73.8266 17.9771V17.4157C73.8947 17.4285 73.9893 17.4348 74.1098 17.4348C74.307 17.4348 74.4635 17.3839 74.5786 17.2821C74.697 17.1802 74.8005 17.0058 74.8901 16.7589L74.9686 16.5145L73.3972 12.3939H74.1295L75.2957 15.7812H75.3589L76.5207 12.3939H77.2418L75.5835 16.7627C75.402 17.2388 75.2092 17.5634 75.0044 17.7365C74.7996 17.9122 74.5078 18 74.1295 18ZM80.7382 16.5106V12.9438H78.6581V16.5106H77.9804V12.3939H81.4154V16.5106H80.7382ZM82.5206 16.5106V12.3939H83.1983V14.0971H85.3174V12.3939H85.995V16.5106H85.3174V14.647H83.1983V16.5106H82.5206ZM87.9196 15.5903C88.1374 15.8576 88.4476 15.9913 88.8491 15.9913C89.2512 15.9913 89.5609 15.8576 89.7787 15.5903C89.997 15.3204 90.1059 14.9411 90.1059 14.4523C90.1059 13.9635 89.997 13.5854 89.7787 13.318C89.5609 13.0482 89.2512 12.9133 88.8491 12.9133C88.4476 12.9133 88.1374 13.0482 87.9196 13.318C87.7018 13.5854 87.5929 13.9635 87.5929 14.4523C87.5929 14.9411 87.7018 15.3204 87.9196 15.5903ZM90.2793 16.0142C89.9297 16.3935 89.4533 16.5832 88.8491 16.5832C88.2454 16.5832 87.7672 16.3935 87.4154 16.0142C87.0662 15.6323 86.8914 15.1117 86.8914 14.4523C86.8914 13.7903 87.0662 13.2697 87.4154 12.8904C87.7645 12.511 88.2427 12.3213 88.8491 12.3213C89.456 12.3213 89.9338 12.511 90.2829 12.8904C90.6325 13.2697 90.8068 13.7903 90.8068 14.4523C90.8068 15.1117 90.6312 15.6323 90.2793 16.0142ZM95.4519 12.9438H94.4157V14.1048H95.3417C95.8746 14.1048 96.1413 13.9087 96.1413 13.5167C96.1413 13.3384 96.0834 13.1984 95.9678 13.0966C95.8549 12.9947 95.6828 12.9438 95.4519 12.9438ZM95.4008 14.6547H94.4157V15.9607H95.5308C95.7908 15.9607 95.9875 15.906 96.1215 15.7965C96.2582 15.6845 96.3264 15.5241 96.3264 15.3153C96.3264 15.0887 96.2488 14.922 96.0937 14.8151C95.9418 14.7081 95.7105 14.6547 95.4008 14.6547ZM93.7385 16.5106V12.3939H95.5384C95.9351 12.3939 96.2461 12.4894 96.472 12.6803C96.6979 12.8687 96.8109 13.1246 96.8109 13.4479C96.8109 13.6516 96.7441 13.8374 96.6101 14.0055C96.4787 14.1709 96.3147 14.274 96.1175 14.3148V14.3759C96.3855 14.4115 96.5993 14.5172 96.7598 14.6929C96.9198 14.866 97 15.0773 97 15.3268C97 15.6883 96.8714 15.976 96.6141 16.1899C96.3564 16.4037 96.0005 16.5106 95.5465 16.5106H93.7385Z" fill="white"/>
    <path d="M64.7523 34.6694L63.6061 31.2657H58.6172L57.4522 34.6694H55L59.8104 21.359H62.535L67.3548 34.6694H64.7523ZM61.0412 23.8957L59.1809 29.384H63.0424L61.2009 23.8957H61.0412ZM74.4628 24.4122C75.7656 24.4122 76.796 24.8765 77.5539 25.8051C78.318 26.7336 78.6999 28.0066 78.6999 29.6238C78.6999 31.235 78.3211 32.5079 77.5633 33.4426C76.8116 34.3712 75.7876 34.8354 74.491 34.8354C73.7582 34.8354 73.1161 34.6878 72.565 34.3927C72.0201 34.0914 71.616 33.6732 71.353 33.1382H71.1933V38.027H68.8633V24.5782H71.1087V26.2478H71.2685C71.5628 25.6759 71.9919 25.227 72.5556 24.901C73.1256 24.5752 73.7613 24.4122 74.4628 24.4122ZM73.73 32.8892C74.538 32.8892 75.1674 32.6001 75.6184 32.0221C76.0756 31.444 76.3043 30.6446 76.3043 29.6238C76.3043 28.6031 76.0756 27.8036 75.6184 27.2256C75.1674 26.6475 74.5411 26.3585 73.7394 26.3585C72.9439 26.3585 72.3144 26.6506 71.8509 27.2348C71.3875 27.819 71.1526 28.6153 71.1463 29.6238C71.1526 30.6323 71.3843 31.4287 71.8416 32.0129C72.305 32.5971 72.9346 32.8892 73.73 32.8892ZM86.0621 24.4122C87.3649 24.4122 88.3951 24.8765 89.1528 25.8051C89.9168 26.7336 90.2993 28.0066 90.2993 29.6238C90.2993 31.235 89.92 32.5079 89.1624 33.4426C88.4104 34.3712 87.3866 34.8354 86.0902 34.8354C85.3574 34.8354 84.7152 34.6878 84.1636 34.3927C83.6193 34.0914 83.2152 33.6732 82.9522 33.1382H82.7919V38.027H80.4621V24.5782H82.7077V26.2478H82.8672C83.1615 25.6759 83.5912 25.227 84.1548 24.901C84.7248 24.5752 85.3606 24.4122 86.0621 24.4122ZM85.3293 32.8892C86.1367 32.8892 86.7668 32.6001 87.2174 32.0221C87.6744 31.444 87.9029 30.6446 87.9029 29.6238C87.9029 28.6031 87.6744 27.8036 87.2174 27.2256C86.7668 26.6475 86.1399 26.3585 85.3382 26.3585C84.5428 26.3585 83.9135 26.6506 83.4501 27.2348C82.9867 27.819 82.7518 28.6153 82.7454 29.6238C82.7518 30.6323 82.9835 31.4287 83.4405 32.0129C83.9039 32.5971 84.5332 32.8892 85.3293 32.8892ZM96.2376 31.0535H98.6059C98.6805 31.6501 98.9972 32.1266 99.5544 32.4833C100.112 32.8338 100.82 33.0091 101.678 33.0091C102.48 33.0091 103.137 32.8308 103.651 32.4741C104.171 32.1113 104.431 31.6501 104.431 31.0904C104.431 30.6108 104.233 30.2204 103.839 29.919C103.451 29.6177 102.821 29.3686 101.95 29.1718L100.193 28.7752C98.9659 28.5047 98.0544 28.065 97.4595 27.4561C96.8702 26.8412 96.576 26.0388 96.576 25.0486C96.576 23.8373 97.037 22.8656 97.9574 22.1338C98.8842 21.3959 100.106 21.027 101.621 21.027C103.044 21.027 104.22 21.3898 105.154 22.1154C106.088 22.8411 106.582 23.7758 106.638 24.9195H104.318C104.236 24.3353 103.952 23.871 103.463 23.5267C102.975 23.1823 102.357 23.0101 101.612 23.0101C100.829 23.0101 100.2 23.1823 99.7236 23.5267C99.2537 23.8649 99.0188 24.3169 99.0188 24.8826C99.0188 25.3315 99.204 25.6975 99.5736 25.9803C99.9432 26.257 100.547 26.4907 101.386 26.6814L102.947 27.0319C104.318 27.3332 105.311 27.7821 105.924 28.3786C106.545 28.975 106.855 29.7807 106.855 30.7953C106.855 32.0928 106.375 33.1197 105.417 33.8762C104.465 34.6264 103.169 35.0015 101.527 35.0015C99.9745 35.0015 98.7182 34.6449 97.7601 33.9315C96.8077 33.2181 96.301 32.2589 96.2376 31.0535ZM109.5 22.1062H111.821V24.6428H114.019V26.4692H111.821V31.4225C111.821 31.9206 111.933 32.2866 112.159 32.5202C112.384 32.7477 112.741 32.8615 113.23 32.8615C113.443 32.8615 113.706 32.8461 114.019 32.8153V34.6049C113.631 34.6786 113.224 34.7155 112.797 34.7155C111.62 34.7155 110.775 34.5034 110.261 34.0791C109.754 33.6547 109.5 32.9537 109.5 31.976V26.4692H107.875V24.6428H109.5V22.1062ZM118.224 32.0867C118.668 32.6647 119.299 32.9537 120.112 32.9537C120.927 32.9537 121.553 32.6647 121.992 32.0867C122.437 31.5025 122.659 30.6815 122.659 29.6238C122.659 28.5723 122.437 27.7544 121.992 27.1702C121.547 26.586 120.92 26.2939 120.112 26.2939C119.299 26.2939 118.668 26.586 118.224 27.1702C117.779 27.7544 117.557 28.5723 117.557 29.6238C117.557 30.6815 117.779 31.5025 118.224 32.0867ZM120.112 34.8723C118.571 34.8723 117.363 34.4081 116.486 33.4795C115.609 32.5448 115.17 31.2596 115.17 29.6238C115.17 28.0004 115.612 26.7213 116.495 25.7866C117.378 24.8457 118.584 24.3753 120.112 24.3753C121.647 24.3753 122.853 24.8426 123.73 25.7774C124.612 26.7121 125.054 27.9942 125.054 29.6238C125.054 31.2596 124.612 32.5448 123.73 33.4795C122.853 34.4081 121.647 34.8723 120.112 34.8723ZM126.826 34.6694V24.5782H129.072V26.1464H129.231C129.375 25.642 129.698 25.227 130.199 24.901C130.706 24.5752 131.288 24.4122 131.947 24.4122C132.366 24.4122 132.688 24.446 132.914 24.5137V26.6352C132.676 26.5491 132.279 26.5061 131.72 26.5061C130.963 26.5061 130.346 26.7213 129.87 27.1518C129.394 27.5761 129.156 28.1387 129.156 28.8398V34.6694H126.826ZM138.303 26.1925C137.608 26.1925 137.034 26.4169 136.584 26.8658C136.132 27.3147 135.882 27.9082 135.832 28.6461H140.67C140.645 27.8958 140.42 27.2993 139.994 26.8566C139.568 26.4138 139.004 26.1925 138.303 26.1925ZM140.689 31.893H142.897C142.678 32.8153 142.161 33.5441 141.347 34.0791C140.539 34.6079 139.533 34.8723 138.331 34.8723C136.821 34.8723 135.635 34.4112 134.77 33.4887C133.912 32.5602 133.483 31.2842 133.483 29.6607C133.483 28.0373 133.915 26.752 134.78 25.8051C135.644 24.8519 136.821 24.3753 138.312 24.3753C139.778 24.3753 140.924 24.8273 141.751 25.7312C142.584 26.6291 143 27.8743 143 29.467V30.2049H135.822V30.3249C135.853 31.1673 136.098 31.8345 136.555 32.3265C137.019 32.8123 137.632 33.0552 138.396 33.0552C139.574 33.0552 140.338 32.6678 140.689 31.893Z" fill="white"/>
</svg>
