<svg width="167" height="48" viewBox="0 0 167 48" fill="none" xmlns="http://www.w3.org/2000/svg">
    <rect width="167" height="48" rx="8" fill="#3D3D3D"/>
    <path d="M39.7561 28.0056C42.4648 26.3112 44.5184 25.0201 44.6954 24.9198C45.2616 24.5767 45.8464 23.6688 44.6954 22.9636C44.3238 22.7419 42.323 21.491 39.7561 19.8778L36.1975 23.9718L39.7561 28.0056Z" fill="#FFD900"/>
    <path d="M36.1977 23.9713L24.8669 36.9806C25.1329 37.0207 25.4331 36.9405 25.7872 36.7188C26.5304 36.2553 34.4092 31.3537 39.7562 28.0061L36.1977 23.9713Z" fill="#F43249"/>
    <path d="M36.1984 23.9713L39.7569 19.8974C39.7569 19.8974 26.5848 11.7084 25.7879 11.2249C25.4876 11.0222 25.1512 10.9621 24.85 11.0222L36.1984 23.9713Z" fill="#00EE76"/>
    <path d="M36.1981 23.9704L24.8498 11.0214C24.3892 11.1427 24 11.6062 24 12.5542C24 14.067 24 34.1958 24 35.4467C24 36.3145 24.3012 36.9395 24.8674 36.9997L36.1981 23.9704Z" fill="#00D3FF"/>
    <path d="M56.1359 14.4828C56.1149 14.8214 56.0755 15.0951 56.0177 15.3039C55.9626 15.5126 55.8693 15.6934 55.7381 15.8462V15.892H58.4955V11.6186H56.321L56.1359 14.4828ZM55.0959 16.5106V17.599H54.4381V15.892H54.8596C55.0565 15.7902 55.201 15.6234 55.2929 15.3917C55.3874 15.1575 55.4465 14.8494 55.4702 14.4676L55.6868 11H59.2045V15.892H59.9136V17.599H59.2557V16.5106H55.0959ZM61.4402 15.5903C61.6582 15.8576 61.9681 15.9913 62.3699 15.9913C62.7717 15.9913 63.0816 15.8576 63.2996 15.5903C63.5175 15.3204 63.6265 14.9411 63.6265 14.4523C63.6265 13.9635 63.5175 13.5854 63.2996 13.318C63.0816 13.0482 62.7717 12.9133 62.3699 12.9133C61.9681 12.9133 61.6582 13.0482 61.4402 13.318C61.2223 13.5854 61.1133 13.9635 61.1133 14.4523C61.1133 14.9411 61.2223 15.3204 61.4402 15.5903ZM63.7999 16.0142C63.4506 16.3935 62.9739 16.5832 62.3699 16.5832C61.7659 16.5832 61.288 16.3935 60.936 16.0142C60.5868 15.6323 60.4121 15.1117 60.4121 14.4523C60.4121 13.7903 60.5868 13.2697 60.936 12.8904C61.2853 12.511 61.7633 12.3213 62.3699 12.3213C62.9766 12.3213 63.4545 12.511 63.8038 12.8904C64.1531 13.2697 64.3277 13.7903 64.3277 14.4523C64.3277 15.1117 64.1518 15.6323 63.7999 16.0142ZM68.742 13.6541H68.0562C67.9988 13.4377 67.8738 13.2608 67.6822 13.1233C67.4931 12.9833 67.2528 12.9133 66.9613 12.9133C66.5805 12.9133 66.2772 13.0507 66.0514 13.3257C65.8281 13.6006 65.7165 13.9711 65.7165 14.437C65.7165 14.9105 65.8295 15.2886 66.0553 15.5712C66.2811 15.8512 66.5831 15.9913 66.9613 15.9913C67.2475 15.9913 67.4852 15.9289 67.6743 15.8041C67.8662 15.6794 67.9935 15.5012 68.0562 15.2695H68.742C68.6788 15.659 68.491 15.976 68.1786 16.2204C67.8662 16.4623 67.4616 16.5832 66.9652 16.5832C66.3691 16.5832 65.8951 16.3897 65.5432 16.0028C65.1913 15.6132 65.0154 15.0913 65.0154 14.437C65.0154 13.7954 65.1913 13.2824 65.5432 12.898C65.8951 12.5136 66.3678 12.3213 66.9613 12.3213C67.4577 12.3213 67.8621 12.4473 68.1745 12.6994C68.4896 12.9514 68.6788 13.2697 68.742 13.6541ZM72.4548 12.3939V12.9438H71.0761V16.5106H70.3985V12.9438H69.0198V12.3939H72.4548ZM73.5677 18C73.4601 18 73.3592 17.9924 73.2647 17.9771V17.4157C73.3328 17.4285 73.4274 17.4348 73.5479 17.4348C73.7451 17.4348 73.9016 17.3839 74.0168 17.2821C74.1351 17.1802 74.2386 17.0058 74.3282 16.7589L74.4067 16.5145L72.8353 12.3939H73.5677L74.7339 15.7812H74.7971L75.9588 12.3939H76.6799L75.0216 16.7627C74.8401 17.2388 74.6474 17.5634 74.4425 17.7365C74.2377 17.9122 73.9459 18 73.5677 18ZM80.1763 16.5106V12.9438H78.0962V16.5106H77.4185V12.3939H80.8535V16.5106H80.1763ZM81.9588 16.5106V12.3939H82.6364V14.0971H84.7555V12.3939H85.4332V16.5106H84.7555V14.647H82.6364V16.5106H81.9588ZM87.3577 15.5903C87.5755 15.8576 87.8857 15.9913 88.2872 15.9913C88.6893 15.9913 88.999 15.8576 89.2168 15.5903C89.4351 15.3204 89.544 14.9411 89.544 14.4523C89.544 13.9635 89.4351 13.5854 89.2168 13.318C88.999 13.0482 88.6893 12.9133 88.2872 12.9133C87.8857 12.9133 87.5755 13.0482 87.3577 13.318C87.1399 13.5854 87.031 13.9635 87.031 14.4523C87.031 14.9411 87.1399 15.3204 87.3577 15.5903ZM89.7174 16.0142C89.3678 16.3935 88.8914 16.5832 88.2872 16.5832C87.6835 16.5832 87.2053 16.3935 86.8535 16.0142C86.5043 15.6323 86.3295 15.1117 86.3295 14.4523C86.3295 13.7903 86.5043 13.2697 86.8535 12.8904C87.2026 12.511 87.6808 12.3213 88.2872 12.3213C88.8941 12.3213 89.3719 12.511 89.721 12.8904C90.0706 13.2697 90.245 13.7903 90.245 14.4523C90.245 15.1117 90.0693 15.6323 89.7174 16.0142ZM94.89 12.9438H93.8538V14.1048H94.7798C95.3127 14.1048 95.5794 13.9087 95.5794 13.5167C95.5794 13.3384 95.5215 13.1984 95.4059 13.0966C95.293 12.9947 95.1209 12.9438 94.89 12.9438ZM94.8389 14.6547H93.8538V15.9607H94.9689C95.2289 15.9607 95.4256 15.906 95.5596 15.7965C95.6963 15.6845 95.7645 15.5241 95.7645 15.3153C95.7645 15.0887 95.6869 14.922 95.5319 14.8151C95.3799 14.7081 95.1487 14.6547 94.8389 14.6547ZM93.1766 16.5106V12.3939H94.9765C95.3732 12.3939 95.6842 12.4894 95.9101 12.6803C96.136 12.8687 96.249 13.1246 96.249 13.4479C96.249 13.6516 96.1822 13.8374 96.0482 14.0055C95.9169 14.1709 95.7528 14.274 95.5556 14.3148V14.3759C95.8236 14.4115 96.0374 14.5172 96.1979 14.6929C96.3579 14.866 96.4381 15.0773 96.4381 15.3268C96.4381 15.6883 96.3095 15.976 96.0522 16.1899C95.7945 16.4037 95.4386 16.5106 94.9846 16.5106H93.1766Z" fill="white"/>
    <path d="M65.2615 28.7994C65.2615 30.35 64.7903 31.586 63.8476 32.5076C62.905 33.4236 61.6372 33.8816 60.0441 33.8816C58.3133 33.8816 56.9462 33.3215 55.943 32.2013C54.9397 31.0756 54.4381 29.5443 54.4381 27.6074C54.4381 25.6981 54.9425 24.1778 55.9512 23.0466C56.96 21.9099 58.3133 21.3415 60.011 21.3415C61.3892 21.3415 62.544 21.7057 63.4756 22.4341C64.4071 23.1625 64.9694 24.1365 65.1623 25.356H63.0373C62.8223 24.6772 62.453 24.1557 61.9294 23.7916C61.4112 23.4274 60.7718 23.2453 60.011 23.2453C58.9692 23.2453 58.1424 23.6343 57.5305 24.4123C56.9241 25.1904 56.6209 26.2499 56.6209 27.5908C56.6209 28.9483 56.9296 30.0188 57.547 30.8024C58.17 31.586 59.0133 31.9778 60.0772 31.9778C60.9867 31.9778 61.7254 31.724 62.2931 31.2163C62.8609 30.7086 63.1531 30.0437 63.1696 29.2215L63.1779 28.9732H60.3087V27.3012H65.2615V28.7994ZM69.2599 31.266C69.6512 31.7847 70.2052 32.044 70.9218 32.044C71.6384 32.044 72.1896 31.7847 72.5755 31.266C72.9669 30.7418 73.1625 30.0051 73.1625 29.0559C73.1625 28.1123 72.9669 27.3784 72.5755 26.8542C72.1841 26.33 71.6329 26.0678 70.9218 26.0678C70.2052 26.0678 69.6512 26.33 69.2599 26.8542C68.8685 27.3784 68.6728 28.1123 68.6728 29.0559C68.6728 30.0051 68.8685 30.7418 69.2599 31.266ZM70.9218 33.7657C69.5658 33.7657 68.5019 33.3491 67.7302 32.5159C66.9584 31.6771 66.5726 30.5238 66.5726 29.0559C66.5726 27.5991 66.9612 26.4513 67.7384 25.6125C68.5157 24.7683 69.5768 24.3462 70.9218 24.3462C72.2723 24.3462 73.3334 24.7655 74.1051 25.6043C74.8821 26.443 75.2709 27.5936 75.2709 29.0559C75.2709 30.5238 74.8821 31.6771 74.1051 32.5159C73.3334 33.3491 72.2723 33.7657 70.9218 33.7657ZM79.0711 31.266C79.462 31.7847 80.0159 32.044 80.7327 32.044C81.4496 32.044 82.0007 31.7847 82.3866 31.266C82.7782 30.7418 82.9737 30.0051 82.9737 29.0559C82.9737 28.1123 82.7782 27.3784 82.3866 26.8542C81.995 26.33 81.444 26.0678 80.7327 26.0678C80.0159 26.0678 79.462 26.33 79.0711 26.8542C78.6795 27.3784 78.4841 28.1123 78.4841 29.0559C78.4841 30.0051 78.6795 30.7418 79.0711 31.266ZM80.7327 33.7657C79.3766 33.7657 78.3126 33.3491 77.5414 32.5159C76.7695 31.6771 76.3836 30.5238 76.3836 29.0559C76.3836 27.5991 76.7723 26.4513 77.5492 25.6125C78.3267 24.7683 79.3879 24.3462 80.7327 24.3462C82.0832 24.3462 83.1444 24.7655 83.9163 25.6043C84.6931 26.443 85.0819 27.5936 85.0819 29.0559C85.0819 30.5238 84.6931 31.6771 83.9163 32.5159C83.1444 33.3491 82.0832 33.7657 80.7327 33.7657ZM92.2061 31.0177C92.6139 30.51 92.8179 29.823 92.8179 28.9566C92.8179 28.0903 92.6139 27.4032 92.2061 26.8955C91.7976 26.3824 91.2388 26.1258 90.5276 26.1258C89.822 26.1258 89.2702 26.3796 88.8737 26.8873C88.4821 27.395 88.2866 28.0847 88.2866 28.9566C88.2866 29.8285 88.4821 30.5183 88.8737 31.0259C89.2653 31.5281 89.8163 31.7792 90.5276 31.7792C91.2388 31.7792 91.7976 31.5253 92.2061 31.0177ZM90.5276 37.027C89.3753 37.027 88.4383 36.7925 87.7158 36.3234C86.9997 35.8543 86.5996 35.228 86.5171 34.4445H88.5759C88.6423 34.759 88.849 35.0073 89.1961 35.1894C89.5489 35.3715 90.004 35.4626 90.5607 35.4626C91.2607 35.4626 91.8061 35.3053 92.1977 34.9908C92.5892 34.6762 92.7847 34.2348 92.7847 33.6664V31.953H92.6443C92.3853 32.4386 92.0156 32.811 91.5358 33.0704C91.0624 33.3243 90.5106 33.4512 89.8827 33.4512C88.7467 33.4512 87.8457 33.0456 87.1789 32.2344C86.5114 31.4177 86.1784 30.3251 86.1784 28.9566C86.1784 27.566 86.5142 26.4569 87.1867 25.6291C87.8591 24.7959 88.7693 24.3793 89.9158 24.3793C90.5332 24.3793 91.092 24.5227 91.5937 24.8097C92.0953 25.0966 92.4707 25.4857 92.7184 25.9768H92.8588V24.5283H94.8351V33.6167C94.8351 34.6652 94.4463 35.4957 93.6695 36.1082C92.8919 36.7207 91.8449 37.027 90.5276 37.027ZM96.9321 33.5836V21.027H98.9825V33.5836H96.9321ZM104.866 25.9768C104.254 25.9768 103.749 26.1782 103.353 26.581C102.956 26.9838 102.735 27.5164 102.691 28.1786H106.95C106.927 27.5053 106.729 26.97 106.354 26.5727C105.98 26.1754 105.483 25.9768 104.866 25.9768ZM106.966 31.0922H108.909C108.716 31.9199 108.262 32.5738 107.545 33.0539C106.833 33.5285 105.949 33.7657 104.891 33.7657C103.562 33.7657 102.517 33.3519 101.757 32.5241C101.002 31.6909 100.624 30.5458 100.624 29.089C100.624 27.6322 101.005 26.4789 101.765 25.6291C102.526 24.7738 103.562 24.3462 104.874 24.3462C106.164 24.3462 107.173 24.7517 107.9 25.5629C108.633 26.3686 109 27.486 109 28.9152V29.5774H102.683V29.685C102.711 30.441 102.925 31.0397 103.328 31.4812C103.736 31.9171 104.276 32.1351 104.949 32.1351C105.985 32.1351 106.657 31.7874 106.966 31.0922ZM114.773 21.6394H119.585C120.776 21.6394 121.74 22.012 122.479 22.7569C123.223 23.5019 123.595 24.4758 123.595 25.6788C123.595 26.8597 123.212 27.8198 122.446 28.5593C121.685 29.2987 120.701 29.6684 119.494 29.6684H116.906V33.5836H114.773V21.6394ZM116.906 23.4274V27.8971H119.014C119.781 27.8971 120.373 27.704 120.792 27.3177C121.217 26.9314 121.428 26.3851 121.428 25.6788C121.428 24.9504 121.219 24.3931 120.8 24.0068C120.387 23.6205 119.794 23.4274 119.022 23.4274H116.906ZM125.311 33.5836V21.027H127.361V33.5836H125.311ZM132.543 32.1185C133.16 32.1185 133.675 31.942 134.088 31.5888C134.502 31.2301 134.709 30.7887 134.709 30.2644V29.5443L132.667 29.6768C131.542 29.7485 130.98 30.1568 130.98 30.9018C130.98 31.277 131.123 31.575 131.409 31.7958C131.701 32.0109 132.08 32.1185 132.543 32.1185ZM131.939 33.7326C131.057 33.7326 130.338 33.4843 129.781 32.9876C129.224 32.491 128.945 31.8343 128.945 31.0177C128.945 30.2009 129.24 29.5609 129.83 29.0973C130.426 28.6338 131.275 28.3689 132.377 28.3027L134.709 28.162V27.4005C134.709 26.9535 134.563 26.6114 134.27 26.3741C133.978 26.1368 133.556 26.0182 133.005 26.0182C132.531 26.0182 132.14 26.1009 131.831 26.2665C131.523 26.4265 131.321 26.6583 131.228 26.9618H129.293C129.376 26.1616 129.761 25.5271 130.45 25.058C131.145 24.5834 132.03 24.3462 133.105 24.3462C134.262 24.3462 135.155 24.6138 135.784 25.1491C136.418 25.6843 136.734 26.4348 136.734 27.4005V33.5836H134.758V32.342H134.618C134.364 32.778 134 33.1201 133.526 33.3684C133.058 33.6112 132.528 33.7326 131.939 33.7326ZM139.41 36.8697C138.985 36.8697 138.716 36.8587 138.6 36.8366V35.1563C138.704 35.1784 138.892 35.1894 139.162 35.1894C139.598 35.1894 139.942 35.0983 140.195 34.9163C140.454 34.7342 140.65 34.4362 140.782 34.0223L140.89 33.625L137.657 24.5283H139.906L142.023 31.5971H142.163L144.272 24.5283H146.438L143.172 33.8734C142.792 34.9935 142.323 35.7716 141.766 36.2075C141.215 36.649 140.429 36.8697 139.41 36.8697Z" fill="white"/>
</svg>
