<svg width="94" height="28" viewBox="0 0 94 28" fill="none" xmlns="http://www.w3.org/2000/svg">
    <g clip-path="url(#clip0_30_77402)">
        <path d="M38.375 21.3846C37.7748 19.6614 36.8888 18.1699 35.713 16.9136C34.5412 15.6574 33.3081 14.8646 32.022 14.5352C36.4887 13.7242 38.718 11.4507 38.718 7.72192C38.718 2.82739 34.4881 0.760254 26.306 0.760254C25.1342 0.760254 23.546 0.836278 21.4841 0.937644C19.1365 1.03901 17.1196 0.876101 15.2292 0.876101C14.6576 1.45895 14.384 2.06715 14.384 3.08081C15.3558 3.08081 16.9195 2.78033 17.3768 3.08443C17.8341 3.38853 17.8504 4.42753 17.8504 5.11175L18.2097 23.2056C18.2097 23.8898 17.3115 24.9686 16.6827 24.9143C16.1233 24.8672 15.4036 25.2655 14.4482 24.9143C14.4482 25.8013 14.7515 26.5289 15.4129 27.2385H26.1305C26.7592 26.5543 26.4163 26.0655 26.4163 25.1532C25.5303 25.1532 24.8974 25.3125 24.3544 24.9939C23.8114 24.679 24.1707 23.5603 24.1707 22.9015V15.9434H27.0042C27.7799 16.1715 28.4087 16.7797 28.8946 17.7716C29.3804 18.7599 29.8377 20.0053 30.2664 21.5004C30.6665 22.8435 31.1034 23.9296 31.577 24.755C32.0506 25.5804 32.7774 26.2465 33.7654 26.7534C34.7535 27.2602 36.1049 27.5136 37.8197 27.5136C39.6488 27.5136 40.8941 27.1082 41.5515 26.2972V24.393C40.7512 24.2916 40.098 24.0056 39.5999 23.5386C39.0977 23.0644 38.6894 22.3476 38.375 21.3846ZM30.0949 11.8888C29.1232 12.8409 27.7799 13.3151 26.0611 13.3151C25.318 13.3151 24.6892 13.2898 24.1748 13.2391V3.42473C24.6035 3.32336 25.3057 3.27268 26.2774 3.27268C28.1066 3.27268 29.4458 3.6709 30.2909 4.47097C31.1361 5.27104 31.5566 6.48381 31.5566 8.10566C31.5525 9.67683 31.0667 10.9403 30.0949 11.8888Z" fill="white"/>
        <path d="M92.6689 15.8496C91.7788 14.7201 90.7295 13.815 89.5128 13.1272C88.2961 12.443 86.7855 11.7081 84.9849 10.9189C83.8131 10.4121 82.8741 9.95952 82.1718 9.56854C81.4696 9.17394 80.8939 8.69969 80.4325 8.14218C79.9752 7.58467 79.7466 6.92579 79.7466 6.16192C79.7466 5.22429 80.0324 4.46766 80.604 3.89567C81.1756 3.32368 82.033 3.0413 83.1762 3.0413C86.1812 3.0413 88.1981 4.89485 89.227 8.59832H92.7914V8.02633C92.7914 6.22347 92.7179 4.63419 92.575 3.25127C92.4321 1.86835 92.1014 0.78591 91.5869 -0.0032959L87.9368 0.985022C87.2795 0.655582 86.4017 0.409408 85.2993 0.242878C84.1969 0.079969 83.1762 -0.0032959 82.2331 -0.0032959C80.4284 -0.0032959 78.7994 0.289941 77.3377 0.872795C75.8801 1.45565 74.7287 2.29916 73.8836 3.40332C73.0384 4.50749 72.6179 5.80714 72.6179 7.30229C72.6179 9.33323 73.3038 11.0564 74.6757 12.4792C76.0475 13.9019 78.0808 15.1943 80.7714 16.3601C82.7761 17.2217 84.3112 18.029 85.385 18.7747C86.4588 19.5241 86.9937 20.4437 86.9937 21.5333C86.9937 22.2682 86.7079 22.9416 86.1363 23.5498C85.5647 24.158 84.6787 24.4621 83.4742 24.4621C81.641 24.4621 80.0528 23.8467 78.7095 22.6158C77.3622 21.3849 76.464 19.7051 76.0067 17.5728H71.7156C71.7156 19.1476 71.9156 20.9541 72.3158 22.9959C72.7159 25.0377 73.1895 26.5401 73.7325 27.5067L77.0396 26.2143C79.3261 27.0759 81.6288 27.5067 83.9479 27.5067C85.9811 27.5067 87.7572 27.1628 89.2883 26.4785C90.8193 25.7943 91.983 24.8748 92.7873 23.7199C93.5875 22.5651 93.9876 21.2799 93.9876 19.8572C93.9999 18.3186 93.5549 16.9791 92.6689 15.8496Z" fill="white"/>
        <path d="M59.7079 0.456013C59.0792 1.03887 58.7648 1.83893 58.7648 2.85259C59.8508 2.85259 60.6307 2.9974 61.1043 3.29064C61.5738 3.58387 61.8106 4.0726 61.8106 4.75682V18.4195C61.8106 20.0414 61.4023 21.3555 60.5858 22.3583C59.7733 23.3611 58.4627 23.8607 56.6621 23.8607C54.8616 23.8607 53.5224 23.3104 52.6487 22.2062C51.7749 21.1021 51.3381 19.6359 51.3381 17.8113V4.75682C51.3381 4.0726 51.5381 3.58387 51.9382 3.29064C52.3384 3.00102 53.0243 2.85259 54.0001 2.85259C54.0001 1.88962 53.6735 1.08955 53.012 0.456013H42.2822C41.6249 1.08955 41.2942 1.88962 41.2942 2.85259C42.2659 2.85259 42.9518 2.9974 43.352 3.29064C43.7521 3.58387 43.9521 4.0726 43.9521 4.75682V17.0112C43.9521 20.4106 45.0096 23.0099 47.1286 24.8128C49.2476 26.6157 52.1628 27.5135 55.8823 27.5135C59.5732 27.5135 62.3536 26.5795 64.2277 24.715C66.1017 22.8506 67.0367 20.1536 67.0367 16.6275V4.7532C67.0367 4.06898 67.2735 3.58025 67.743 3.28702C68.2167 2.9974 68.9924 2.84897 70.0825 2.84897C70.0825 1.886 69.7681 1.08593 69.1394 0.452393H59.7079V0.456013Z" fill="white"/>
        <path d="M3.17648 21.3882C3.77666 19.6614 4.66264 18.1735 5.83851 16.9173C7.01029 15.661 8.24332 14.8682 9.52943 14.5388C5.06276 13.7278 2.83351 11.4544 2.83351 7.72554C2.83351 2.83101 6.92455 0.763874 15.1066 0.763874C16.2784 0.763874 17.8993 0.749393 19.9612 0.763874C22.3374 0.781975 24.3053 0.68785 26.3794 0.763874C26.951 1.34673 27.2124 2.29884 27.2124 3.3125C25.2893 3.18217 24.1747 3.42835 24.1747 3.42835L24.2278 22.9521C24.3176 23.611 24.5585 24.0925 25.0035 24.3966C25.4485 24.7007 26.1549 24.8528 27.1266 24.8528C27.1266 25.7433 26.8 26.5398 26.1386 27.2493H15.3639C14.7351 26.5651 14.4207 25.765 14.4207 24.8528C15.3067 24.8528 16.0212 24.6971 16.5683 24.3785C17.1113 24.0635 17.3808 23.5748 17.3808 22.9159V15.9434H14.5473C13.7715 16.1715 13.1428 16.7797 12.6569 17.768C12.171 18.7599 11.7138 20.0017 11.2851 21.5004C10.8849 22.8435 10.4481 23.9296 9.97446 24.755C9.50085 25.5804 8.77409 26.2465 7.78604 26.7534C6.79798 27.2602 5.44655 27.5136 3.73175 27.5136C1.90262 27.5136 0.657343 27.1081 0 26.2972V24.393C0.800243 24.2916 1.4535 24.0056 1.95161 23.5386C2.45381 23.068 2.86209 22.3512 3.17648 21.3882ZM15.4945 13.3188C16.2376 13.3188 16.8664 13.2934 17.3808 13.2427V3.42473C16.9521 3.32336 16.2498 3.27268 15.2781 3.27268C13.449 3.27268 12.1098 3.6709 11.2646 4.47097C10.4195 5.27104 9.99896 6.48381 9.99896 8.10566C9.99896 9.68045 10.4848 10.9403 11.4565 11.8924C12.4283 12.8445 13.7756 13.3188 15.4945 13.3188Z" fill="#00A4EA"/>
    </g>
    <defs>
        <clipPath id="clip0_30_77402">
            <rect width="94" height="27.5136" fill="white"/>
        </clipPath>
    </defs>
</svg>
