<svg width="318" height="37" viewBox="0 0 318 37" fill="none" xmlns="http://www.w3.org/2000/svg">
    <path d="M2.5 29.2812C1.80208 29.2812 1.33333 29.2552 1.09375 29.2031C0.9375 29.1719 0.838542 29.0781 0.796875 28.9219C0.755208 28.7656 0.734375 28.5365 0.734375 28.2344V27.4219C0.630208 27.1615 0.578125 25.9583 0.578125 23.8125C0.578125 23.2292 0.609375 21.4375 0.671875 18.4375C0.723958 16.7292 0.84375 13.6615 1.03125 9.23438C0.989583 8.68229 0.96875 8.22396 0.96875 7.85938C0.96875 7.08854 1.07812 6.66146 1.29688 6.57812C1.44271 6.52604 1.61458 6.5 1.8125 6.5L2.5 6.53125C2.5625 6.53125 2.67188 6.53125 2.82812 6.53125C2.99479 6.52083 3.14062 6.51042 3.26562 6.5C3.40104 6.48958 3.50521 6.48438 3.57812 6.48438C3.83854 6.48438 3.97396 6.51042 3.98438 6.5625C4.09896 6.55208 4.22917 6.52604 4.375 6.48438C4.83333 6.45312 5.29167 6.4375 5.75 6.4375C6.34375 6.4375 6.9375 6.46354 7.53125 6.51562C8.26042 6.56771 9.42708 6.61458 11.0312 6.65625L11.0469 6.64062L11.4375 6.625C13.0938 6.625 14.0677 6.67708 14.3594 6.78125C14.1927 7.97917 14.1094 8.875 14.1094 9.46875L14.125 9.875C14.125 10.4167 14.0938 11.375 14.0312 12.75C14 14.3229 13.9844 15.8281 13.9844 17.2656C13.9844 18.474 13.9948 19.6406 14.0156 20.7656C14.0365 21.9323 14.0469 23.1354 14.0469 24.375C14.0469 25.875 14.0312 27.4271 14 29.0312C13.5208 29.1667 12.9115 29.2344 12.1719 29.2344C11.6302 29.2344 11.2083 29.1771 10.9062 29.0625C10.6667 28.4375 10.5365 27.599 10.5156 26.5469C10.4948 25.4844 10.4844 24.6042 10.4844 23.9062C10.4844 23.1979 10.4896 22.5052 10.5 21.8281C10.5104 21.1406 10.5156 20.5469 10.5156 20.0469V19.375C10.5156 18.7708 10.599 16.0677 10.7656 11.2656L10.75 10.8438C10.75 10.7188 10.7552 10.625 10.7656 10.5625C10.776 10.5 10.7812 10.4479 10.7812 10.4062C10.7812 10.3021 10.7344 10.2448 10.6406 10.2344L10.2812 10.25C10.2083 10.2604 10.1198 10.2656 10.0156 10.2656C9.15104 10.3281 8.28125 10.401 7.40625 10.4844C5.61458 10.6406 4.63542 10.7188 4.46875 10.7188C4.30208 10.7188 4.19792 10.7344 4.15625 10.7656C4.11458 10.7865 4.09375 10.849 4.09375 10.9531L4.10938 11.0781V11.2969C4.15104 11.974 4.21354 13.3385 4.29688 15.3906L4.32812 16.1562C4.32812 16.8333 4.31771 17.5365 4.29688 18.2656C4.27604 18.9115 4.26562 19.5521 4.26562 20.1875C4.26562 21.1354 4.29167 22.0573 4.34375 22.9531C4.38542 23.4427 4.40625 23.9427 4.40625 24.4531C4.40625 24.8177 4.39583 25.1875 4.375 25.5625C4.35417 25.9375 4.34375 26.3073 4.34375 26.6719C4.34375 27.1198 4.35938 27.5677 4.39062 28.0156L4.40625 28.2969C4.40625 28.7344 4.25521 29.0052 3.95312 29.1094C3.66146 29.224 3.17708 29.2812 2.5 29.2812ZM21.4531 15.3281C24.2448 15.1406 25.6667 14.2135 25.7188 12.5469C25.6875 11.5469 25.2292 10.8021 24.3438 10.3125C24.0208 10.1667 23.5521 10.0312 22.9375 9.90625C22.3229 9.78125 21.8646 9.71875 21.5625 9.71875L21.5781 11.8594C21.5781 12.9948 21.5365 14.151 21.4531 15.3281ZM19.6406 29H19.4375C18.9167 29 18.4479 28.9271 18.0312 28.7812C17.8229 27.3125 17.7188 25.7135 17.7188 23.9844C17.7188 22.7031 17.776 21.3438 17.8906 19.9062C17.9948 18.3854 18.0469 17.0417 18.0469 15.875L17.9688 13.3438V12.875C17.9688 11.5312 18.0469 10.7969 18.2031 10.6719C18.1823 10.5365 18.1719 10.349 18.1719 10.1094C18.1719 9.94271 18.1771 9.67708 18.1875 9.3125C18.2083 8.94792 18.2396 8.50521 18.2812 7.98438C18.3333 7.46354 18.3854 7.09896 18.4375 6.89062C18.7708 6.69271 19.3542 6.59375 20.1875 6.59375C21.3646 6.59375 22.6406 6.72917 24.0156 7C25.1406 7.21875 25.9427 7.48958 26.4219 7.8125C27.1094 8.30208 27.5156 8.60417 27.6406 8.71875C27.8906 8.95833 28.2135 9.52604 28.6094 10.4219C28.8073 10.9531 28.9062 11.6042 28.9062 12.375C28.9062 12.4062 28.901 12.6354 28.8906 13.0625C28.8802 13.4896 28.7396 13.9167 28.4688 14.3438C28.3646 14.9479 28.0729 15.6198 27.5938 16.3594C27.1146 17.099 26.6094 17.6198 26.0781 17.9219C24.6615 18.6198 23.1458 19.0365 21.5312 19.1719C21.4479 19.5677 21.3594 20.2552 21.2656 21.2344C21.0677 23.2552 20.9688 24.8438 20.9688 26L20.9844 26.5C20.9844 26.7917 20.9792 27.0365 20.9688 27.2344V27.4688C20.9688 27.875 21.0365 28.2708 21.1719 28.6562C20.7656 28.8542 20.2552 28.9688 19.6406 29ZM32.0938 29C31.9375 29 31.776 28.9792 31.6094 28.9375C31.4531 28.8958 31.3594 28.7292 31.3281 28.4375C31.4427 27.9479 31.5104 27.4479 31.5312 26.9375L31.5938 26.25C31.5938 25.7396 31.5885 25.2448 31.5781 24.7656C31.5573 23.8073 31.5469 22.849 31.5469 21.8906C31.5469 19.8385 31.599 17.7708 31.7031 15.6875C31.8281 13.375 31.8906 11.3646 31.8906 9.65625C31.8906 8.54167 31.8594 7.60938 31.7969 6.85938L32.0469 6.76562C32.1302 6.76562 32.1823 6.76042 32.2031 6.75C32.224 6.73958 32.2396 6.73438 32.25 6.73438C32.25 6.69271 32.3646 6.67188 32.5938 6.67188C33 6.67188 33.2604 6.66146 33.375 6.64062C33.5 6.61979 33.6198 6.60938 33.7344 6.60938C33.901 6.60938 34.099 6.64583 34.3281 6.71875L34.6094 6.78125H34.9688C35.1146 6.78125 35.276 6.79688 35.4531 6.82812L35.4219 7.375C35.276 8.36458 35.2031 9.45312 35.2031 10.6406L35.2344 12.2969C35.2344 13.0885 35.2083 13.8385 35.1562 14.5469L34.8281 18.3438C34.8281 18.3646 34.8229 18.3802 34.8125 18.3906C34.8125 18.3906 34.8073 18.4062 34.7969 18.4375C34.849 18.6146 34.875 18.8177 34.875 19.0469C34.875 19.4219 34.7917 20.5417 34.625 22.4062C34.7292 22.1771 34.8958 21.7812 35.125 21.2188L37 16.625C37.8438 14.5833 38.3438 13.4948 38.5 13.3594C38.5833 13.0156 38.724 12.6354 38.9219 12.2188C39.0677 11.8854 39.2448 11.4323 39.4531 10.8594C39.6927 10.1615 39.8958 9.72396 40.0625 9.54688V9.48438C40.0625 9.30729 40.1354 9.01042 40.2812 8.59375C40.4375 8.13542 40.5573 7.90625 40.6406 7.90625H40.6562C40.7188 7.61458 40.8281 7.36979 40.9844 7.17188C41.1406 6.96354 41.349 6.85938 41.6094 6.85938H41.6875C42.25 6.82812 42.9688 6.8125 43.8438 6.8125C44.2396 6.8125 44.4896 6.82292 44.5938 6.84375L44.5781 8.3125C44.6302 8.4375 44.6562 9.11458 44.6562 10.3438C44.6562 10.6875 44.651 11.1562 44.6406 11.75C44.6302 12.3438 44.6094 12.9479 44.5781 13.5625C44.5573 14.1667 44.5365 14.5052 44.5156 14.5781L44.5469 15.8594C44.651 17.1615 44.7031 18.5781 44.7031 20.1094C44.7031 21.6406 44.6823 23.0677 44.6406 24.3906V25.8281C44.6406 27.2865 44.5625 28.2604 44.4062 28.75C44.2812 28.7604 44.1562 28.7812 44.0312 28.8125C43.9167 28.8333 43.6979 28.8542 43.375 28.875L42.4844 28.9062C42.2344 28.9062 42.0052 28.8854 41.7969 28.8438C41.4844 28.7708 41.3281 28.5521 41.3281 28.1875V28.1094C41.3698 27.474 41.4115 26.2031 41.4531 24.2969L41.5938 18.125C41.6146 17.0833 41.6667 15.776 41.75 14.2031C41.5208 14.6302 41.1979 15.3073 40.7812 16.2344C39.7188 18.5885 39.0781 20.1927 38.8594 21.0469C38.8281 21.1615 38.6562 21.6354 38.3438 22.4688C37.9375 23.5208 37.6667 24.1354 37.5312 24.3125L37.0469 25.375C36.4219 26.7812 36.0938 27.5625 36.0625 27.7188C35.9375 27.875 35.8542 28.0312 35.8125 28.1875C35.6875 28.4583 35.5573 28.651 35.4219 28.7656C35.3385 28.9219 35.0208 29 34.4688 29C34.1771 29 33.875 28.9896 33.5625 28.9688L33 28.9531C32.8438 28.9531 32.7188 28.9583 32.625 28.9688C32.4479 28.9896 32.2708 29 32.0938 29ZM58.6094 29C56.7552 29 54.8958 28.5833 53.0312 27.75C52.4271 27.4896 51.7656 27.0781 51.0469 26.5156C49.474 25.2969 48.5469 23.8854 48.2656 22.2812C48.224 22.0521 48.1615 21.8385 48.0781 21.6406C47.7448 20.974 47.5417 19.7552 47.4688 17.9844C47.4583 17.7656 47.4531 17.5469 47.4531 17.3281C47.4531 15.1094 47.974 13.1667 49.0156 11.5C50.0573 9.82292 51.8438 8.48958 54.375 7.5C55.3854 7.08333 56.2917 6.875 57.0938 6.875L57.625 6.90625C58.1146 6.90625 58.5573 6.83854 58.9531 6.70312C59.224 6.65104 59.4896 6.625 59.75 6.625C60.0104 6.625 60.3854 6.64062 60.875 6.67188C61.3646 6.69271 61.8854 6.73438 62.4375 6.79688C62.9896 6.84896 63.3854 6.91667 63.625 7C63.7292 7.375 63.7969 7.82812 63.8281 8.35938C63.8281 8.55729 63.8229 8.92188 63.8125 9.45312C63.8021 9.97396 63.651 10.4167 63.3594 10.7812C63.2969 10.7917 63.2188 10.7969 63.125 10.7969C62.8958 10.7969 62.5573 10.7552 62.1094 10.6719C61.0573 10.4635 60.0833 10.3594 59.1875 10.3594C58.5 10.3594 57.7917 10.4531 57.0625 10.6406L57 10.6719C56.2917 10.8385 55.6146 11.0677 54.9688 11.3594C54.1458 11.724 53.5417 12.3594 53.1562 13.2656C52.9583 13.7656 52.7969 14.0625 52.6719 14.1562V14.4531C52.6719 14.8698 52.6406 15.375 52.5781 15.9688C52.526 16.4583 52.4948 16.8854 52.4844 17.25C52.5365 18.3125 52.7344 19.2865 53.0781 20.1719C53.1927 20.5365 53.2917 20.8854 53.375 21.2188C53.6667 21.4583 53.9167 21.6927 54.125 21.9219C54.3438 22.151 54.5677 22.3646 54.7969 22.5625C55.026 22.75 55.3281 22.9115 55.7031 23.0469C56.3073 23.2656 57.375 23.4167 58.9062 23.5C59.1458 23.5104 59.3594 23.526 59.5469 23.5469C60.2448 23.6094 60.8281 23.6562 61.2969 23.6875C61.901 23.7188 62.3438 23.7656 62.625 23.8281C62.9062 23.8802 63.0885 23.9844 63.1719 24.1406C63.2552 24.2865 63.3073 24.5312 63.3281 24.875C63.349 25.3542 63.3906 25.8594 63.4531 26.3906C63.5052 26.849 63.5365 27.2917 63.5469 27.7188C63.5469 27.7917 63.5469 27.8594 63.5469 27.9219C63.5469 28.1094 63.526 28.2448 63.4844 28.3281C63.2969 28.5156 63.0417 28.6354 62.7188 28.6875C62.3958 28.7292 62.0677 28.75 61.7344 28.75C61.4115 28.75 61.1198 28.7656 60.8594 28.7969C60.1094 28.9323 59.3594 29 58.6094 29ZM73.6562 25.4531C76.1979 25.4531 77.6562 24.2812 78.0312 21.9375C78.0729 21.5938 78.1302 21.2083 78.2031 20.7812C78.401 19.5625 78.5 18.6979 78.5 18.1875C78.5 15.1354 77.5 12.349 75.5 9.82812C75.3125 9.78646 75.151 9.72917 75.0156 9.65625C74.8073 9.54167 74.5833 9.48438 74.3438 9.48438C74.1562 9.48438 73.9062 9.53646 73.5938 9.64062C72.6771 9.96354 72.0833 10.2292 71.8125 10.4375C71.1042 11.1458 70.5417 12.2344 70.125 13.7031C69.7083 15.1719 69.5 16.401 69.5 17.3906L69.5156 19.1406C69.5156 20.0781 69.4844 20.9688 69.4219 21.8125C69.5156 21.8854 69.7135 22.2552 70.0156 22.9219C70.3594 23.7448 70.651 24.3021 70.8906 24.5938C71.3073 25.0312 72.0469 25.3073 73.1094 25.4219C73.2969 25.4427 73.4792 25.4531 73.6562 25.4531ZM72.1719 29.4688C70.0677 29.4688 68.474 28.6667 67.3906 27.0625C67.0365 26.5104 66.6667 25.6302 66.2812 24.4219C65.8958 23.2135 65.6094 22.0208 65.4219 20.8438C65.349 20.3438 65.3125 19.9062 65.3125 19.5312C65.3125 19.0312 65.3802 18.651 65.5156 18.3906C65.4844 18.2031 65.4688 17.9844 65.4688 17.7344C65.4688 17.1823 65.5625 16.3646 65.75 15.2812C65.9375 14.1979 66.2396 13.0573 66.6562 11.8594C67.0833 10.6615 67.5312 9.89583 68 9.5625C68.2396 8.84375 68.9635 8.13542 70.1719 7.4375C71.3802 6.72917 72.5417 6.31771 73.6562 6.20312L74.5156 6.14062C74.8281 6.10938 75.099 6.09375 75.3281 6.09375C75.5469 6.10417 75.7865 6.15625 76.0469 6.25C76.6719 6.47917 77.3177 6.8125 77.9844 7.25C78.8906 7.85417 79.401 8.33854 79.5156 8.70312C79.9219 9.00521 80.2656 9.51042 80.5469 10.2188C80.8385 10.9167 81.0781 11.5833 81.2656 12.2188C81.4531 12.8438 81.5938 13.2135 81.6875 13.3281C81.7812 13.8594 81.8906 14.3854 82.0156 14.9062C82.2969 15.9896 82.4427 17.1042 82.4531 18.25C82.4323 18.4167 82.401 18.599 82.3594 18.7969C82.3177 18.9844 82.2865 19.1406 82.2656 19.2656C82.2656 19.474 82.2812 19.625 82.3125 19.7188C82.3542 19.8021 82.3854 19.9427 82.4062 20.1406C82.3958 20.5469 82.3177 20.9479 82.1719 21.3438C82.099 21.5729 82.0365 21.7969 81.9844 22.0156C81.7656 23.1406 81.3073 24.276 80.6094 25.4219C79.9219 26.5677 79.0625 27.401 78.0312 27.9219C77.2188 28.5156 76.1198 28.9427 74.7344 29.2031C73.8073 29.3802 72.9531 29.4688 72.1719 29.4688ZM92.7656 29H92.2344C91.8073 29 90.9844 28.9792 89.7656 28.9375V28.9062L88.2656 28.9219L87.1875 28.9375C86.4167 28.9375 85.724 28.9062 85.1094 28.8438C85.0677 28.375 85.0208 27.375 84.9688 25.8438C84.8646 22.9375 84.8125 20.3698 84.8125 18.1406C84.8125 15.2552 84.901 13.6146 85.0781 13.2188C84.9948 12.8542 84.9531 12.2552 84.9531 11.4219C84.9531 9.96354 85.0104 8.48958 85.125 7C85.3958 6.75 86.4531 6.625 88.2969 6.625C89.0677 6.625 89.8906 6.64062 90.7656 6.67188C91.1406 6.69271 91.5365 6.70312 91.9531 6.70312C92.3073 6.70312 92.6823 6.69271 93.0781 6.67188C93.4844 6.64062 93.8802 6.625 94.2656 6.625C95.349 6.625 96.3333 6.74479 97.2188 6.98438C97.3333 7.42188 97.3906 7.94271 97.3906 8.54688C97.3906 8.81771 97.3698 9.06771 97.3281 9.29688C97.2552 9.67188 97.0885 9.85938 96.8281 9.85938L93.6094 9.84375L90.4062 9.8125C89.3958 9.8125 88.7188 9.82292 88.375 9.84375L88.3594 11.0312V12.0156L88.3438 13C88.3021 13.8542 88.2812 14.6771 88.2812 15.4688C88.2812 15.8021 88.2917 16.0729 88.3125 16.2812C88.4688 16.375 89.4323 16.4219 91.2031 16.4219C92.2865 16.4219 93.3385 16.4427 94.3594 16.4844C95.3802 16.526 96.0885 16.6406 96.4844 16.8281C96.651 17.5052 96.7344 18.0573 96.7344 18.4844C96.7344 18.9531 96.6302 19.2708 96.4219 19.4375C96.0781 19.7083 95.1875 19.8438 93.75 19.8438L92.9844 19.8281L91.2969 19.8438L88.375 19.9688L88.25 24.7344C89.2188 24.9115 91.1302 25 93.9844 25C96.026 25 97.1198 25.0573 97.2656 25.1719C97.4323 25.5573 97.5104 26.0104 97.5 26.5312C97.5 27.0625 97.4531 27.5417 97.3594 27.9688C97.276 28.3958 97.0938 28.6562 96.8125 28.75C96.5833 28.8229 96.3229 28.8594 96.0312 28.8594H95.3281L92.7656 29ZM109.781 25.4062L109.812 23.8125C109.812 23.5833 109.797 22.9479 109.766 21.9062C109.776 21.5417 109.802 21.1823 109.844 20.8281C109.885 20.4635 109.906 20.0885 109.906 19.7031V19.5156C109.906 18.974 109.948 18.4062 110.031 17.8125C110.104 17.3021 110.141 16.8229 110.141 16.375C110.141 16.1562 110.13 15.9427 110.109 15.7344L109.906 10.2188L109.891 10.2031C109.464 10.151 109 10.125 108.5 10.125H108.312L107.766 10.1719C107.693 11.1302 107.641 11.6198 107.609 11.6406L107.25 15.3438C107.135 16.6979 106.958 18.0938 106.719 19.5312C106.635 19.8958 106.542 20.4062 106.438 21.0625C106.208 22.8958 105.833 24.3385 105.312 25.3906H106.141V25.4062C106.745 25.3958 107.354 25.3906 107.969 25.3906L109.781 25.4062ZM112.641 31.125C112.38 31.125 112.177 31.1042 112.031 31.0625C111.823 31 111.719 30.8333 111.719 30.5625C111.719 30.4167 111.745 30.1458 111.797 29.75L111.906 28.9688H111C110.698 28.9688 110.385 28.9583 110.062 28.9375C109.927 28.9271 109.495 28.9115 108.766 28.8906C107.984 28.8906 107.286 28.8854 106.672 28.875C106.068 28.875 105.703 28.8802 105.578 28.8906C105.297 28.9115 104.906 28.9271 104.406 28.9375L102.594 28.9688L102.641 29.4062C102.703 29.9062 102.734 30.2812 102.734 30.5312C102.734 30.8125 102.625 30.9896 102.406 31.0625C102.26 31.1042 102.057 31.125 101.797 31.125L101 31.0938L100.594 31.1094L99.5625 31.0625C99.5208 30.6979 99.4688 30.3021 99.4062 29.875C99.3125 29.2188 99.2656 28.8021 99.2656 28.625C99.099 27.9167 99.0156 27.1094 99.0156 26.2031L99 25.4688C99.2812 25.4688 99.5625 25.4583 99.8438 25.4375C100.021 25.4271 100.203 25.4219 100.391 25.4219H100.766C101.141 25.2656 101.521 24.9844 101.906 24.5781C101.948 24.4844 102.005 24.375 102.078 24.25C102.995 22.9271 103.51 20.6562 103.625 17.4375C103.677 15.9167 103.792 14.6146 103.969 13.5312C104.156 12.4375 104.286 11.8073 104.359 11.6406C104.307 10.9844 104.281 10.3438 104.281 9.71875C104.281 8.94792 104.323 8.20312 104.406 7.48438L104.484 6.67188H105.266C105.359 6.67188 105.464 6.66146 105.578 6.64062C105.693 6.61979 105.818 6.60938 105.953 6.60938L107.531 6.625C108.01 6.625 108.807 6.64062 109.922 6.67188L111.25 6.65625C111.969 6.65625 112.427 6.67708 112.625 6.71875C112.833 6.75 113.078 6.76562 113.359 6.76562C113.422 8.83854 113.453 10.9219 113.453 13.0156C113.453 15.276 113.417 17.5417 113.344 19.8125L113.328 20.8906L113.359 22.9531C113.359 23.4635 113.349 23.9792 113.328 24.5V24.6875C113.328 24.9271 113.344 25.1667 113.375 25.4062L114.203 25.4219L114.766 25.4375C115.036 25.4583 115.318 25.4688 115.609 25.4688L115.562 26.2031C115.531 27.1198 115.422 27.9271 115.234 28.625C115.234 28.7917 115.109 29.6042 114.859 31.0625L113.844 31.1094H113.062L112.641 31.125ZM119.312 29C119.156 29 118.995 28.9792 118.828 28.9375C118.672 28.8958 118.578 28.7292 118.547 28.4375C118.661 27.9479 118.729 27.4479 118.75 26.9375L118.812 26.25C118.812 25.7396 118.807 25.2448 118.797 24.7656C118.776 23.8073 118.766 22.849 118.766 21.8906C118.766 19.8385 118.818 17.7708 118.922 15.6875C119.047 13.375 119.109 11.3646 119.109 9.65625C119.109 8.54167 119.078 7.60938 119.016 6.85938L119.266 6.76562C119.349 6.76562 119.401 6.76042 119.422 6.75C119.443 6.73958 119.458 6.73438 119.469 6.73438C119.469 6.69271 119.583 6.67188 119.812 6.67188C120.219 6.67188 120.479 6.66146 120.594 6.64062C120.719 6.61979 120.839 6.60938 120.953 6.60938C121.12 6.60938 121.318 6.64583 121.547 6.71875L121.828 6.78125H122.188C122.333 6.78125 122.495 6.79688 122.672 6.82812L122.641 7.375C122.495 8.36458 122.422 9.45312 122.422 10.6406L122.453 12.2969C122.453 13.0885 122.427 13.8385 122.375 14.5469L122.047 18.3438C122.047 18.3646 122.042 18.3802 122.031 18.3906C122.031 18.3906 122.026 18.4062 122.016 18.4375C122.068 18.6146 122.094 18.8177 122.094 19.0469C122.094 19.4219 122.01 20.5417 121.844 22.4062C121.948 22.1771 122.115 21.7812 122.344 21.2188L124.219 16.625C125.062 14.5833 125.562 13.4948 125.719 13.3594C125.802 13.0156 125.943 12.6354 126.141 12.2188C126.286 11.8854 126.464 11.4323 126.672 10.8594C126.911 10.1615 127.115 9.72396 127.281 9.54688V9.48438C127.281 9.30729 127.354 9.01042 127.5 8.59375C127.656 8.13542 127.776 7.90625 127.859 7.90625H127.875C127.938 7.61458 128.047 7.36979 128.203 7.17188C128.359 6.96354 128.568 6.85938 128.828 6.85938H128.906C129.469 6.82812 130.188 6.8125 131.062 6.8125C131.458 6.8125 131.708 6.82292 131.812 6.84375L131.797 8.3125C131.849 8.4375 131.875 9.11458 131.875 10.3438C131.875 10.6875 131.87 11.1562 131.859 11.75C131.849 12.3438 131.828 12.9479 131.797 13.5625C131.776 14.1667 131.755 14.5052 131.734 14.5781L131.766 15.8594C131.87 17.1615 131.922 18.5781 131.922 20.1094C131.922 21.6406 131.901 23.0677 131.859 24.3906V25.8281C131.859 27.2865 131.781 28.2604 131.625 28.75C131.5 28.7604 131.375 28.7812 131.25 28.8125C131.135 28.8333 130.917 28.8542 130.594 28.875L129.703 28.9062C129.453 28.9062 129.224 28.8854 129.016 28.8438C128.703 28.7708 128.547 28.5521 128.547 28.1875V28.1094C128.589 27.474 128.63 26.2031 128.672 24.2969L128.812 18.125C128.833 17.0833 128.885 15.776 128.969 14.2031C128.74 14.6302 128.417 15.3073 128 16.2344C126.938 18.5885 126.297 20.1927 126.078 21.0469C126.047 21.1615 125.875 21.6354 125.562 22.4688C125.156 23.5208 124.885 24.1354 124.75 24.3125L124.266 25.375C123.641 26.7812 123.312 27.5625 123.281 27.7188C123.156 27.875 123.073 28.0312 123.031 28.1875C122.906 28.4583 122.776 28.651 122.641 28.7656C122.557 28.9219 122.24 29 121.688 29C121.396 29 121.094 28.9896 120.781 28.9688L120.219 28.9531C120.062 28.9531 119.938 28.9583 119.844 28.9688C119.667 28.9896 119.49 29 119.312 29ZM145.75 29H145.531C145.271 29 145.104 28.9844 145.031 28.9531L144.719 28.8125L144.016 19.5938L143.344 19.5781C142.927 19.5781 142.557 19.6042 142.234 19.6562C141.724 19.7292 141.333 19.7656 141.062 19.7656C140.635 19.7656 140.156 19.7396 139.625 19.6875L138.422 19.6094C138.391 20.4219 138.37 21.151 138.359 21.7969C138.339 23.1302 138.26 24.6875 138.125 26.4688C138.115 26.625 138.109 26.7917 138.109 26.9688L138.141 28.0781C138.141 28.4115 138.12 28.7083 138.078 28.9688C137.807 28.9271 137.495 28.9062 137.141 28.9062L136.594 28.9219C136.323 28.9531 136.089 28.9688 135.891 28.9688C135.734 28.9688 135.583 28.9427 135.438 28.8906C135.24 28.8073 135.141 28.401 135.141 27.6719C135.141 27.3073 135.167 26.8385 135.219 26.2656C135.01 21.0469 134.901 18.0885 134.891 17.3906C134.849 15.3906 134.828 13.6094 134.828 12.0469C134.828 9.93229 134.88 8.74479 134.984 8.48438V7.5C134.984 7.13542 135.036 6.90104 135.141 6.79688C135.255 6.69271 135.797 6.64062 136.766 6.64062C137.37 6.64062 137.807 6.6875 138.078 6.78125C138.391 6.89583 138.547 7.17708 138.547 7.625V7.85938C138.516 8.30729 138.5 8.75521 138.5 9.20312C138.5 9.56771 138.51 9.9375 138.531 10.3125L138.547 11.2656C138.547 11.8177 138.526 12.3594 138.484 12.8906C138.443 13.3281 138.422 14.0677 138.422 15.1094C138.422 15.599 138.438 15.9948 138.469 16.2969C139.729 16.3802 140.984 16.4219 142.234 16.4219C142.797 16.4219 143.365 16.4115 143.938 16.3906C143.948 16.0885 143.953 15.7396 143.953 15.3438L143.938 13.9688C143.917 13.3854 143.906 12.7969 143.906 12.2031C143.906 11.4219 143.922 10.4844 143.953 9.39062C143.984 8.28646 144.115 7.42188 144.344 6.79688C144.625 6.67188 144.979 6.60938 145.406 6.60938C145.979 6.60938 146.49 6.67708 146.938 6.8125L147.109 13.6875C147.234 15.4271 147.297 17.0729 147.297 18.625C147.297 19.3333 147.281 19.9635 147.25 20.5156C147.406 20.7344 147.516 21.599 147.578 23.1094C147.599 23.8698 147.609 24.4375 147.609 24.8125C147.609 25.0521 147.594 25.2812 147.562 25.5C147.542 25.7188 147.526 25.9479 147.516 26.1875C147.516 26.5729 147.547 27.0156 147.609 27.5156C147.641 27.7969 147.661 28.0521 147.672 28.2812L147.75 28.7969C147.448 28.901 146.781 28.9688 145.75 29ZM160.531 29.3594L160.094 29.3438C159.365 29.2708 158.755 29.1615 158.266 29.0156C158.099 28.5052 158.016 27.4219 158.016 25.7656C158.016 24.349 158.094 23.1823 158.25 22.2656C158.271 22.1927 158.281 22.1406 158.281 22.1094C158.281 22.0781 158.276 22.0521 158.266 22.0312C158.255 22 158.24 21.974 158.219 21.9531C158.198 21.9219 158.172 21.8854 158.141 21.8438L157.719 22.6719C156.219 25.599 155.37 27.151 155.172 27.3281C155.057 27.5573 154.922 27.8646 154.766 28.25C154.578 28.7292 154.453 29 154.391 29.0625C154.12 29.1146 153.547 29.1406 152.672 29.1406C151.224 29.1406 150.38 29.0625 150.141 28.9062C150.12 28.8646 150.109 28.8177 150.109 28.7656C150.109 28.4219 150.438 27.7188 151.094 26.6562C151.844 25.4479 152.333 24.7969 152.562 24.7031C152.583 24.5052 152.849 24.026 153.359 23.2656C153.87 22.5052 154.422 21.6979 155.016 20.8438L155.922 19.5625C155.599 19.4479 155.224 19.349 154.797 19.2656C154.37 19.1719 153.938 19.0469 153.5 18.8906C153.198 18.776 152.849 18.625 152.453 18.4375C152.057 18.25 151.755 18.0677 151.547 17.8906C150.88 17.5469 150.396 17 150.094 16.25C149.781 15.4896 149.625 14.8385 149.625 14.2969C149.625 14.026 149.656 13.7604 149.719 13.5C149.635 13.3646 149.594 13.1927 149.594 12.9844C149.594 11.8906 149.833 10.8438 150.312 9.84375C150.677 9.08333 151.177 8.55208 151.812 8.25C151.958 7.91667 152.302 7.61979 152.844 7.35938C153.396 7.08854 153.984 6.88021 154.609 6.73438C155.234 6.57812 155.734 6.5 156.109 6.5L157.078 6.48438C158.943 6.48438 160.786 6.61458 162.609 6.875V7.375C162.609 8 162.578 9.08333 162.516 10.625C162.516 10.8229 162.505 11.0469 162.484 11.2969C162.432 11.8906 162.406 12.4375 162.406 12.9375C162.406 13.375 162.443 13.75 162.516 14.0625C162.349 15.4896 162.266 17.7292 162.266 20.7812V21.3125C162.266 22.8021 162.188 24.2865 162.031 25.7656C162 26.0885 161.969 26.5573 161.938 27.1719C161.885 28.276 161.833 28.901 161.781 29.0469C161.458 29.2552 161.042 29.3594 160.531 29.3594ZM157.312 16.4219L158.109 16.4062C158.12 15.9583 158.146 15.599 158.188 15.3281C158.219 14.9635 158.234 14.6875 158.234 14.5C158.234 14.2812 158.214 14.0156 158.172 13.7031C158.161 13.5573 158.156 13.375 158.156 13.1562C158.156 12.5417 158.208 11.7135 158.312 10.6719C158.365 10.099 158.417 9.67188 158.469 9.39062L157.969 9.375C155.5 9.375 153.984 10.1198 153.422 11.6094C153.266 12.1927 153.188 12.7031 153.188 13.1406C153.188 13.6094 153.349 14.1406 153.672 14.7344C154.026 15.4115 154.536 15.8646 155.203 16.0938C155.87 16.3125 156.573 16.4219 157.312 16.4219ZM168.406 29C168.115 29 167.719 28.9844 167.219 28.9531C166.875 28.9531 166.656 28.9583 166.562 28.9688C166.385 28.9896 166.208 29 166.031 29C165.875 29 165.714 28.9792 165.547 28.9375C165.391 28.8958 165.297 28.7292 165.266 28.4375C165.38 27.9479 165.448 27.4479 165.469 26.9375L165.531 26.25C165.531 25.7396 165.526 25.2448 165.516 24.7656C165.495 23.8073 165.484 22.849 165.484 21.8906C165.484 19.8385 165.536 17.7708 165.641 15.6875C165.766 13.375 165.828 11.3646 165.828 9.65625C165.828 8.54167 165.797 7.60938 165.734 6.85938L165.984 6.76562C166.068 6.76562 166.12 6.76042 166.141 6.75C166.161 6.73958 166.177 6.73438 166.188 6.73438C166.188 6.69271 166.302 6.67188 166.531 6.67188C166.938 6.67188 167.198 6.66146 167.312 6.64062C167.438 6.61979 167.557 6.60938 167.672 6.60938C167.839 6.60938 168.036 6.64583 168.266 6.71875L168.547 6.78125H168.906C169.052 6.78125 169.214 6.79688 169.391 6.82812L169.359 7.375C169.214 8.36458 169.141 9.45312 169.141 10.6406L169.172 12.2969C169.172 13.0885 169.146 13.8385 169.094 14.5469C168.875 17.099 168.76 18.3802 168.75 18.3906C168.75 18.3906 168.745 18.4062 168.734 18.4375C168.786 18.6146 168.812 18.8177 168.812 19.0469C168.812 19.4219 168.729 20.5417 168.562 22.4062C168.656 22.1979 169.448 20.2708 170.938 16.625C171.781 14.5833 172.281 13.4948 172.438 13.3594C172.521 13.0156 172.661 12.6354 172.859 12.2188C173.005 11.8854 173.182 11.4323 173.391 10.8594C173.63 10.1615 173.833 9.72396 174 9.54688V9.48438C174 9.30729 174.073 9.01042 174.219 8.59375C174.375 8.13542 174.5 7.90625 174.594 7.90625C174.75 7.20833 175.068 6.85938 175.547 6.85938H175.625C176.188 6.82812 176.906 6.8125 177.781 6.8125C178.177 6.8125 178.427 6.82292 178.531 6.84375L178.516 8.3125C178.568 8.4375 178.594 9.11458 178.594 10.3438C178.594 10.6875 178.589 11.1562 178.578 11.75C178.568 12.3438 178.547 12.9479 178.516 13.5625C178.495 14.1667 178.474 14.5052 178.453 14.5781L178.484 15.8594C178.589 17.1615 178.641 18.5781 178.641 20.1094C178.641 21.6406 178.62 23.0677 178.578 24.3906V25.8281C178.578 27.2865 178.5 28.2604 178.344 28.75C178.219 28.7604 178.094 28.7812 177.969 28.8125C177.854 28.8333 177.641 28.8542 177.328 28.875C177.016 28.8854 176.714 28.8958 176.422 28.9062C176.172 28.9062 175.943 28.8854 175.734 28.8438C175.422 28.7708 175.266 28.5521 175.266 28.1875V28.1094C175.307 27.474 175.375 25.1771 175.469 21.2188C175.531 18.1146 175.604 15.776 175.688 14.2031C175.458 14.6302 175.135 15.3073 174.719 16.2344C173.656 18.5885 173.016 20.1927 172.797 21.0469C172.766 21.1615 172.594 21.6354 172.281 22.4688C171.875 23.5208 171.604 24.1354 171.469 24.3125C170.521 26.3854 170.031 27.5208 170 27.7188C169.875 27.875 169.792 28.0312 169.75 28.1875C169.625 28.4583 169.495 28.651 169.359 28.7656C169.276 28.9219 168.958 29 168.406 29ZM172.562 5.35938C171.51 5.35938 170.391 5.09375 169.203 4.5625C169.141 4.36458 169.109 4.16146 169.109 3.95312C169.109 3.66146 169.125 3.47396 169.156 3.39062C169.104 3.28646 169.078 2.9375 169.078 2.34375C169.078 1.97917 169.125 1.79688 169.219 1.79688L169.281 1.8125C170.104 2.27083 170.875 2.5 171.594 2.5L171.922 2.48438L172.766 2.4375C173.776 2.4375 174.693 2.25 175.516 1.875C176.068 2.35417 176.417 2.95312 176.562 3.67188C175.448 4.79688 174.115 5.35938 172.562 5.35938ZM192.359 29C190.505 29 188.646 28.5833 186.781 27.75C186.177 27.4896 185.516 27.0781 184.797 26.5156C183.224 25.2969 182.297 23.8854 182.016 22.2812C181.974 22.0521 181.911 21.8385 181.828 21.6406C181.495 20.974 181.292 19.7552 181.219 17.9844C181.208 17.7656 181.203 17.5469 181.203 17.3281C181.203 15.1094 181.724 13.1667 182.766 11.5C183.807 9.82292 185.594 8.48958 188.125 7.5C189.135 7.08333 190.042 6.875 190.844 6.875L191.375 6.90625C191.865 6.90625 192.307 6.83854 192.703 6.70312C192.974 6.65104 193.24 6.625 193.5 6.625C193.76 6.625 194.135 6.64062 194.625 6.67188C195.115 6.69271 195.635 6.73438 196.188 6.79688C196.74 6.84896 197.135 6.91667 197.375 7C197.479 7.375 197.547 7.82812 197.578 8.35938C197.578 8.55729 197.573 8.92188 197.562 9.45312C197.552 9.97396 197.401 10.4167 197.109 10.7812C197.047 10.7917 196.969 10.7969 196.875 10.7969C196.646 10.7969 196.307 10.7552 195.859 10.6719C194.807 10.4635 193.833 10.3594 192.938 10.3594C192.25 10.3594 191.542 10.4531 190.812 10.6406L190.75 10.6719C190.042 10.8385 189.365 11.0677 188.719 11.3594C187.896 11.724 187.292 12.3594 186.906 13.2656C186.708 13.7656 186.547 14.0625 186.422 14.1562V14.4531C186.422 14.8698 186.391 15.375 186.328 15.9688C186.276 16.4583 186.245 16.8854 186.234 17.25C186.286 18.3125 186.484 19.2865 186.828 20.1719C186.943 20.5365 187.042 20.8854 187.125 21.2188C187.417 21.4583 187.667 21.6927 187.875 21.9219C188.094 22.151 188.318 22.3646 188.547 22.5625C188.776 22.75 189.078 22.9115 189.453 23.0469C190.057 23.2656 191.125 23.4167 192.656 23.5C192.896 23.5104 193.109 23.526 193.297 23.5469C193.995 23.6094 194.578 23.6562 195.047 23.6875C195.651 23.7188 196.094 23.7656 196.375 23.8281C196.656 23.8802 196.839 23.9844 196.922 24.1406C197.005 24.2865 197.057 24.5312 197.078 24.875C197.099 25.3542 197.141 25.8594 197.203 26.3906C197.255 26.849 197.286 27.2917 197.297 27.7188C197.297 27.7917 197.297 27.8594 197.297 27.9219C197.297 28.1094 197.276 28.2448 197.234 28.3281C197.047 28.5156 196.792 28.6354 196.469 28.6875C196.146 28.7292 195.818 28.75 195.484 28.75C195.161 28.75 194.87 28.7656 194.609 28.7969C193.859 28.9323 193.109 29 192.359 29ZM210.188 29.3594L209.75 29.3438C209.021 29.2708 208.411 29.1615 207.922 29.0156C207.755 28.5052 207.672 27.4219 207.672 25.7656C207.672 24.349 207.75 23.1823 207.906 22.2656C207.927 22.1927 207.938 22.1406 207.938 22.1094C207.938 22.0781 207.932 22.0521 207.922 22.0312C207.911 22 207.896 21.974 207.875 21.9531C207.854 21.9219 207.828 21.8854 207.797 21.8438L207.375 22.6719C205.875 25.599 205.026 27.151 204.828 27.3281C204.714 27.5573 204.578 27.8646 204.422 28.25C204.234 28.7292 204.109 29 204.047 29.0625C203.776 29.1146 203.203 29.1406 202.328 29.1406C200.88 29.1406 200.036 29.0625 199.797 28.9062C199.776 28.8646 199.766 28.8177 199.766 28.7656C199.766 28.4219 200.094 27.7188 200.75 26.6562C201.5 25.4479 201.99 24.7969 202.219 24.7031C202.24 24.5052 202.505 24.026 203.016 23.2656C203.526 22.5052 204.078 21.6979 204.672 20.8438L205.578 19.5625C205.255 19.4479 204.88 19.349 204.453 19.2656C204.026 19.1719 203.594 19.0469 203.156 18.8906C202.854 18.776 202.505 18.625 202.109 18.4375C201.714 18.25 201.411 18.0677 201.203 17.8906C200.536 17.5469 200.052 17 199.75 16.25C199.438 15.4896 199.281 14.8385 199.281 14.2969C199.281 14.026 199.312 13.7604 199.375 13.5C199.292 13.3646 199.25 13.1927 199.25 12.9844C199.25 11.8906 199.49 10.8438 199.969 9.84375C200.333 9.08333 200.833 8.55208 201.469 8.25C201.615 7.91667 201.958 7.61979 202.5 7.35938C203.052 7.08854 203.641 6.88021 204.266 6.73438C204.891 6.57812 205.391 6.5 205.766 6.5L206.734 6.48438C208.599 6.48438 210.443 6.61458 212.266 6.875V7.375C212.266 8 212.234 9.08333 212.172 10.625C212.172 10.8229 212.161 11.0469 212.141 11.2969C212.089 11.8906 212.062 12.4375 212.062 12.9375C212.062 13.375 212.099 13.75 212.172 14.0625C212.005 15.4896 211.922 17.7292 211.922 20.7812V21.3125C211.922 22.8021 211.844 24.2865 211.688 25.7656C211.656 26.0885 211.625 26.5573 211.594 27.1719C211.542 28.276 211.49 28.901 211.438 29.0469C211.115 29.2552 210.698 29.3594 210.188 29.3594ZM206.969 16.4219L207.766 16.4062C207.776 15.9583 207.802 15.599 207.844 15.3281C207.875 14.9635 207.891 14.6875 207.891 14.5C207.891 14.2812 207.87 14.0156 207.828 13.7031C207.818 13.5573 207.812 13.375 207.812 13.1562C207.812 12.5417 207.865 11.7135 207.969 10.6719C208.021 10.099 208.073 9.67188 208.125 9.39062L207.625 9.375C205.156 9.375 203.641 10.1198 203.078 11.6094C202.922 12.1927 202.844 12.7031 202.844 13.1406C202.844 13.6094 203.005 14.1406 203.328 14.7344C203.682 15.4115 204.193 15.8646 204.859 16.0938C205.526 16.3125 206.229 16.4219 206.969 16.4219ZM235.734 29C234.464 29 233.661 28.9792 233.328 28.9375C233.151 28.5938 232.948 28.1042 232.719 27.4688C232.531 26.9688 232.312 26.4115 232.062 25.7969C231.885 25.4323 231.505 24.724 230.922 23.6719C230.214 22.3906 229.594 21.2344 229.062 20.2031L229 21.4844C229.042 21.724 229.062 22.1302 229.062 22.7031C229.062 23.6927 229.042 24.625 229 25.5C228.917 27.6146 228.828 28.7552 228.734 28.9219C228.318 28.9635 227.844 28.9844 227.312 28.9844C226.427 28.9844 225.75 28.9583 225.281 28.9062C225.125 27.5 225.047 26.0938 225.047 24.6875C225.047 24.3958 225.083 23.1042 225.156 20.8125C225.219 19.4271 225.25 17.1875 225.25 14.0938C225.25 12.7188 225.281 11.6562 225.344 10.9062C225.375 10.5417 225.391 9.89583 225.391 8.96875C225.391 7.94792 225.427 7.24479 225.5 6.85938L226.688 6.60938C226.948 6.65104 227.198 6.67188 227.438 6.67188C227.531 6.67188 227.625 6.66667 227.719 6.65625C227.812 6.64583 227.917 6.64062 228.031 6.64062C228.354 6.64062 228.714 6.69792 229.109 6.8125C229.172 6.97917 229.208 7.19792 229.219 7.46875L229.203 8.73438C229.203 8.99479 229.219 9.20833 229.25 9.375C229.26 9.60417 229.266 9.84375 229.266 10.0938C229.266 10.6042 229.245 11.1667 229.203 11.7812C229.172 12.2812 229.151 12.7396 229.141 13.1562C229.193 13.25 229.224 13.3854 229.234 13.5625C229.266 13.8438 229.281 14.5521 229.281 15.6875C229.771 14.8333 230.354 13.6354 231.031 12.0938C231.625 10.7396 232.172 9.58854 232.672 8.64062C233.036 7.93229 233.25 7.45312 233.312 7.20312L233.391 6.95312C233.453 6.84896 233.677 6.78646 234.062 6.76562C234.312 6.76562 234.542 6.79688 234.75 6.85938C234.844 6.80729 235.13 6.77083 235.609 6.75C236.047 6.75 236.599 6.78125 237.266 6.84375C237.245 7.17708 237.156 7.47396 237 7.73438C236.844 7.99479 236.635 8.28646 236.375 8.60938C236.167 8.89062 235.995 9.16667 235.859 9.4375C235.661 9.86458 235.443 10.1875 235.203 10.4062C234.932 11.1771 234.495 12.2135 233.891 13.5156C232.818 15.776 232.25 17.2396 232.188 17.9062C232.292 18.0938 232.698 18.9479 233.406 20.4688C234.167 22.0938 234.568 23.0104 234.609 23.2188C234.724 23.3333 235.188 24.2552 236 25.9844C236.823 27.7031 237.255 28.6927 237.297 28.9531C236.849 28.9844 236.328 29 235.734 29Z" fill="white"/>
    <g clip-path="url(#clip0_4_75317)">
        <path d="M276.077 23.8764C275.63 22.4359 274.97 21.1891 274.095 20.1389C273.222 19.0888 272.304 18.426 271.346 18.1506C274.672 17.4727 276.332 15.5722 276.332 12.4551C276.332 8.36352 273.183 6.6355 267.09 6.6355C266.217 6.6355 265.034 6.69905 263.499 6.78379C261.751 6.86852 260.249 6.73234 258.841 6.73234C258.415 7.21958 258.211 7.728 258.211 8.57537C258.935 8.57537 260.1 8.32418 260.44 8.57839C260.781 8.8326 260.793 9.70116 260.793 10.2731L261.06 25.3987C261.06 25.9706 260.391 26.8725 259.923 26.8271C259.507 26.7877 258.953 27.0601 258.242 26.7666C258.242 27.508 258.485 28.1768 258.978 28.77H266.959C267.427 28.198 267.172 27.7895 267.172 27.0268C266.512 27.0268 266.041 27.16 265.636 26.8937C265.232 26.6304 265.499 25.6952 265.499 25.1445V19.3279H267.609C268.187 19.5185 268.655 20.027 269.017 20.8562C269.379 21.6823 269.719 22.7234 270.039 23.9733C270.337 25.096 270.662 26.0039 271.015 26.6939C271.367 27.3839 271.909 27.9408 272.644 28.3645C273.38 28.7881 274.387 29 275.664 29C277.026 29 277.953 28.661 278.443 27.9831V26.3913C277.847 26.3066 277.36 26.0675 276.989 25.6771C276.615 25.2806 276.311 24.6814 276.077 23.8764ZM269.911 15.9384C269.187 16.7343 268.187 17.1308 266.907 17.1308C266.354 17.1308 265.885 17.1096 265.502 17.0672V8.86287C265.822 8.77813 266.345 8.73576 267.068 8.73576C268.43 8.73576 269.428 9.06866 270.057 9.73747C270.686 10.4063 271 11.4201 271 12.7759C270.996 14.0893 270.635 15.1455 269.911 15.9384Z" fill="white"/>
        <path d="M316.509 19.2492C315.846 18.305 315.065 17.5484 314.159 16.9734C313.253 16.4014 312.128 15.7871 310.787 15.1273C309.914 14.7037 309.215 14.3254 308.692 13.9985C308.169 13.6687 307.74 13.2722 307.397 12.8062C307.056 12.3401 306.886 11.7893 306.886 11.1508C306.886 10.3669 307.099 9.73445 307.524 9.25629C307.95 8.77813 308.589 8.54208 309.44 8.54208C311.678 8.54208 313.18 10.0916 313.946 13.1875H316.6V12.7093C316.6 11.2022 316.545 9.87366 316.439 8.71761C316.333 7.56155 316.086 6.65669 315.703 5.99695L312.985 6.82313C312.495 6.54774 311.842 6.34195 311.021 6.20274C310.2 6.06655 309.44 5.99695 308.738 5.99695C307.394 5.99695 306.18 6.24208 305.092 6.72932C304.007 7.21655 303.149 7.92168 302.52 8.84471C301.89 9.76774 301.577 10.8542 301.577 12.1041C301.577 13.8018 302.088 15.2423 303.11 16.4317C304.131 17.621 305.645 18.7014 307.649 19.6759C309.142 20.3962 310.285 21.071 311.085 21.6944C311.884 22.3209 312.283 23.0896 312.283 24.0005C312.283 24.6148 312.07 25.1777 311.644 25.6862C311.218 26.1946 310.559 26.4488 309.662 26.4488C308.297 26.4488 307.114 25.9343 306.114 24.9054C305.11 23.8764 304.441 22.4722 304.101 20.6897H300.905C300.905 22.0062 301.054 23.5163 301.352 25.2231C301.65 26.93 302.003 28.1859 302.407 28.9939L304.87 27.9135C306.573 28.6338 308.288 28.9939 310.014 28.9939C311.529 28.9939 312.851 28.7064 313.991 28.1344C315.132 27.5625 315.998 26.7938 316.597 25.8284C317.193 24.863 317.491 23.7887 317.491 22.5993C317.5 21.3131 317.169 20.1934 316.509 19.2492Z" fill="white"/>
        <path d="M291.963 6.38132C291.495 6.86856 291.261 7.53737 291.261 8.38474C292.07 8.38474 292.65 8.5058 293.003 8.75093C293.353 8.99606 293.529 9.40461 293.529 9.97659V21.3979C293.529 22.7537 293.225 23.8522 292.617 24.6905C292.012 25.5288 291.036 25.9465 289.695 25.9465C288.354 25.9465 287.357 25.4865 286.706 24.5634C286.056 23.6404 285.73 22.4147 285.73 20.8895V9.97659C285.73 9.40461 285.879 8.99606 286.177 8.75093C286.475 8.50882 286.986 8.38474 287.713 8.38474C287.713 7.57974 287.47 6.91093 286.977 6.38132H278.987C278.497 6.91093 278.251 7.57974 278.251 8.38474C278.975 8.38474 279.485 8.5058 279.783 8.75093C280.081 8.99606 280.23 9.40461 280.23 9.97659V20.2207C280.23 23.0624 281.018 25.2353 282.596 26.7424C284.174 28.2495 286.345 29 289.114 29C291.863 29 293.934 28.2192 295.329 26.6607C296.725 25.1021 297.421 22.8475 297.421 19.8999V9.97356C297.421 9.40159 297.597 8.99303 297.947 8.7479C298.3 8.5058 298.877 8.38172 299.689 8.38172C299.689 7.57672 299.455 6.9079 298.987 6.3783H291.963V6.38132Z" fill="white"/>
        <path d="M249.865 23.8795C250.312 22.4359 250.972 21.1921 251.848 20.142C252.72 19.0919 253.639 18.4291 254.596 18.1537C251.27 17.4758 249.61 15.5753 249.61 12.4582C249.61 8.3666 252.657 6.63857 258.75 6.63857C259.622 6.63857 260.829 6.62647 262.365 6.63857C264.134 6.6537 265.6 6.57502 267.144 6.63857C267.57 7.12581 267.765 7.92173 267.765 8.7691C266.332 8.66015 265.502 8.86594 265.502 8.86594L265.542 25.1869C265.609 25.7377 265.788 26.1402 266.12 26.3944C266.451 26.6486 266.977 26.7757 267.701 26.7757C267.701 27.5202 267.457 28.1859 266.965 28.7791H258.941C258.473 28.2071 258.239 27.5383 258.239 26.7757C258.899 26.7757 259.431 26.6455 259.838 26.3792C260.242 26.1159 260.443 25.7074 260.443 25.1566V19.3279H258.333C257.755 19.5186 257.287 20.027 256.925 20.8532C256.564 21.6824 256.223 22.7204 255.904 23.9733C255.606 25.0961 255.28 26.004 254.928 26.694C254.575 27.384 254.034 27.9408 253.298 28.3645C252.562 28.7882 251.556 29 250.279 29C248.917 29 247.99 28.6611 247.5 27.9832V26.3913C248.096 26.3066 248.582 26.0675 248.953 25.6771C249.327 25.2837 249.631 24.6845 249.865 23.8795ZM259.038 17.1338C259.592 17.1338 260.06 17.1127 260.443 17.0703V8.86292C260.124 8.77818 259.601 8.73581 258.877 8.73581C257.515 8.73581 256.518 9.0687 255.889 9.73752C255.259 10.4063 254.946 11.4202 254.946 12.7759C254.946 14.0924 255.308 15.1455 256.031 15.9415C256.755 16.7374 257.758 17.1338 259.038 17.1338Z" fill="white"/>
    </g>
    <defs>
        <clipPath id="clip0_4_75317">
            <rect width="70" height="23" fill="white" transform="translate(247.5 6)"/>
        </clipPath>
    </defs>
</svg>

