<svg width="116" height="116" viewBox="0 0 116 116" fill="none" xmlns="http://www.w3.org/2000/svg">
    <rect width="116" height="116" rx="58" fill="#E5E6E8"/>
    <path fill-rule="evenodd" clip-rule="evenodd" d="M58.0002 36.9745C53.2525 36.9745 49.4038 40.8232 49.4038 45.5709C49.4038 50.3186 53.2525 54.1673 58.0002 54.1673C62.7479 54.1673 66.5966 50.3186 66.5966 45.5709C66.5966 40.8232 62.7479 36.9745 58.0002 36.9745ZM45.8824 45.5709C45.8824 38.8784 51.3077 33.4531 58.0002 33.4531C64.6927 33.4531 70.1181 38.8784 70.1181 45.5709C70.1181 52.2634 64.6927 57.6888 58.0002 57.6888C51.3077 57.6888 45.8824 52.2634 45.8824 45.5709Z" fill="#A7A7AB"/>
    <path fill-rule="evenodd" clip-rule="evenodd" d="M63.2451 66.1989C59.755 65.8997 56.2447 65.8997 52.7546 66.1989L52.723 66.2013C50.8645 66.3269 49.0176 66.5804 47.1959 66.9597L47.1825 66.9625C46.0006 67.1991 44.7667 67.605 43.7023 68.1629C42.6243 68.7279 41.8273 69.3919 41.3731 70.0886C40.9 70.8143 40.7787 71.7858 41.4319 72.9457C41.6547 73.3414 42.3599 73.9857 43.5719 74.6371C44.7175 75.2528 46.051 75.7327 47.1884 75.949C47.2043 75.952 47.2201 75.9553 47.2359 75.9587C49.0407 76.3537 50.6231 76.5865 52.7288 76.7358C54.2005 76.8402 55.2517 76.9122 57.9726 76.8695C58.9449 76.8542 59.7454 77.6301 59.7607 78.6024C59.776 79.5746 59.0001 80.3752 58.0278 80.3905C55.1829 80.4351 54.0274 80.3582 52.4797 80.2484C50.2197 80.0881 48.4735 79.8334 46.506 79.4038C44.9916 79.1126 43.33 78.5049 41.9048 77.7389C40.5384 77.0045 39.0919 75.9671 38.3635 74.6736C37.1142 72.4549 37.1812 70.0706 38.4231 68.1656C39.3178 66.793 40.6723 65.7752 42.0675 65.0439C43.4741 64.3067 45.0326 63.8021 46.4845 63.5109C48.4575 63.1004 50.4574 62.8257 52.4696 62.689C56.1497 62.3744 59.8508 62.3744 63.5309 62.689C64.0115 62.7221 64.4496 62.764 64.8651 62.8145C65.8304 62.9318 66.5178 63.8095 66.4005 64.7748C66.2832 65.7401 65.4055 66.4275 64.4402 66.3102C64.0851 66.267 63.7038 66.2305 63.2753 66.2012L63.2451 66.1989Z" fill="#A7A7AB"/>
    <path fill-rule="evenodd" clip-rule="evenodd" d="M81.6772 65.0127C82.0923 65.3035 82.3395 65.7784 82.3395 66.2852V79.7495C82.3395 80.6075 81.6439 81.3031 80.7859 81.3031C79.9279 81.3031 79.2324 80.6075 79.2324 79.7495V68.5033L70.9466 71.5162V82.8566C70.9466 83.7147 70.2511 84.4102 69.3931 84.4102C68.535 84.4102 67.8395 83.7147 67.8395 82.8566V70.4281C67.8395 69.7748 68.2482 69.1913 68.8621 68.968L80.255 64.8252C80.7313 64.652 81.2621 64.722 81.6772 65.0127Z" fill="#A7A7AB"/>
    <path d="M70.9466 82.8566C70.9466 84.5727 69.5555 85.9643 67.8395 85.9643C66.1235 85.9643 64.7323 84.5732 64.7323 82.8571C64.7323 81.1411 66.1235 79.75 67.8395 79.75C69.5555 79.75 70.9466 81.1406 70.9466 82.8566Z" fill="#A7A7AB"/>
    <path fill-rule="evenodd" clip-rule="evenodd" d="M67.8395 83.8929C68.4115 83.8929 68.8752 83.4292 68.8752 82.8571C68.8752 82.2851 68.4115 81.8214 67.8395 81.8214C67.2675 81.8214 66.8038 82.2851 66.8038 82.8571C66.8038 83.4292 67.2675 83.8929 67.8395 83.8929ZM67.8395 85.9643C69.5555 85.9643 70.9466 84.5727 70.9466 82.8566C70.9466 81.1406 69.5555 79.75 67.8395 79.75C66.1235 79.75 64.7323 81.1411 64.7323 82.8571C64.7323 84.5732 66.1235 85.9643 67.8395 85.9643Z" fill="#A7A7AB"/>
    <path d="M82.3395 79.7495C82.3395 81.4655 80.9484 82.8566 79.2324 82.8566C77.5163 82.8566 76.1252 81.4655 76.1252 79.7495C76.1252 78.0335 77.5163 76.6424 79.2324 76.6424C80.9484 76.6424 82.3395 78.0335 82.3395 79.7495Z" fill="#A7A7AB"/>
    <path fill-rule="evenodd" clip-rule="evenodd" d="M79.2324 80.7852C79.8044 80.7852 80.2681 80.3215 80.2681 79.7495C80.2681 79.1775 79.8044 78.7138 79.2324 78.7138C78.6603 78.7138 78.1966 79.1775 78.1966 79.7495C78.1966 80.3215 78.6603 80.7852 79.2324 80.7852ZM79.2324 82.8566C80.9484 82.8566 82.3395 81.4655 82.3395 79.7495C82.3395 78.0335 80.9484 76.6424 79.2324 76.6424C77.5163 76.6424 76.1252 78.0335 76.1252 79.7495C76.1252 81.4655 77.5163 82.8566 79.2324 82.8566Z" fill="#A7A7AB"/>
</svg>
