<svg width="160" height="160" viewBox="0 0 160 160" fill="none" xmlns="http://www.w3.org/2000/svg">
    <rect width="160" height="160" rx="16" fill="#E5E6E8"/>
    <path d="M107.25 47C95.0705 50.3376 83.5258 53.6242 71.3125 57.1148C69.5227 57.763 67.4062 59.4489 67.4062 61.7831C67.4055 72.2313 67.4062 82.4498 67.4062 92.9055C59.5938 91.3493 51 98.3518 51 105.354C51 110.023 54.9063 112.357 58.8147 112.312C66.0232 112.285 73.6562 106.911 73.6562 99.9079C73.6102 93.1326 73.6562 78.8282 73.6562 71.8979L104.125 63.3392V82.7907C96.3125 82.0127 86.9375 88.2371 86.9375 95.2396C86.9375 99.9079 90.7184 103.005 94.75 103.02C102.562 103.02 110.375 97.5738 110.375 89.7932C110.329 75.6385 110.373 61.043 110.375 49.3342C110.375 47.7781 108.812 47 107.25 47Z" fill="#A7A7AB"/>
</svg>
