<svg width="217" height="126" viewBox="0 0 217 126" fill="none" xmlns="http://www.w3.org/2000/svg">
    <rect width="217" height="126" rx="16" fill="#E5E6E8"/>
    <path d="M135.25 30C123.07 33.3376 111.526 36.6242 99.3125 40.1148C97.5227 40.763 95.4062 42.4489 95.4062 44.7831C95.4055 55.2313 95.4062 65.4498 95.4062 75.9055C87.5938 74.3493 79 81.3518 79 88.3543C79 93.0227 82.9063 95.357 86.8147 95.3119C94.0232 95.2854 101.656 89.9105 101.656 82.9079C101.61 76.1326 101.656 61.8282 101.656 54.8979L132.125 46.3392V65.7907C124.312 65.0127 114.938 71.2371 114.938 78.2396C114.938 82.9079 118.718 86.0051 122.75 86.0202C130.562 86.0202 138.375 80.5738 138.375 72.7932C138.329 58.6385 138.373 44.043 138.375 32.3342C138.375 30.7781 136.812 30 135.25 30Z" fill="#A7A7AB"/>
</svg>
