<svg width="40" height="40" viewBox="0 0 40 40" fill="none" xmlns="http://www.w3.org/2000/svg">
    <rect width="40" height="40" rx="4" fill="#E5E6E8"/>
    <path d="M27.1579 11C23.8758 11.9198 20.7648 12.8256 17.4737 13.7876C16.9914 13.9663 16.4211 14.4309 16.4211 15.0742C16.4209 17.9537 16.4211 20.7699 16.4211 23.6515C14.3158 23.2226 12 25.1525 12 27.0823C12 28.3689 13.0526 29.0123 14.1059 28.9998C16.0483 28.9925 18.1053 27.5112 18.1053 25.5813C18.0928 23.7141 18.1053 19.7718 18.1053 17.8618L26.3158 15.5031V20.8638C24.2105 20.6494 21.6842 22.3649 21.6842 24.2948C21.6842 25.5813 22.7031 26.4349 23.7895 26.4391C25.8947 26.4391 28 24.938 28 22.7937C27.9876 18.8927 27.9996 14.8702 28 11.6433C28 11.2144 27.5789 11 27.1579 11Z" fill="#A7A7AB"/>
</svg>
