<svg fill="none" xmlns="http://www.w3.org/2000/svg" viewBox="0 0 24 24"><path fill-rule="evenodd" clip-rule="evenodd" d="M9.137 8.559a.781.781 0 1 0 .003 1.562.781.781 0 0 0-.003-1.562Zm-2.48.78a2.481 2.481 0 1 1 4.963.001 2.481 2.481 0 0 1-4.963 0ZM15.67 11.443c.734-.2 1.472-.093 2.165.324.514.31.961.682 1.362 1.05l.156.145c.168.159.323.31.473.454.262.255.507.492.779.729a.85.85 0 0 1-1.116 1.282 13.25 13.25 0 0 1-.292-.262c-.205-.19-.41-.387-.603-.575-.142-.137-.278-.269-.406-.39-.412-.387-.803-.72-1.229-.976-.316-.19-.578-.213-.843-.141-.3.082-.675.308-1.12.753-.316.316-.463.612-.652.993-.04.079-.08.161-.125.248-.267.52-.643 1.113-1.518 1.451-.892.345-1.808.011-2.388-.265-.315-.15-.603-.32-.825-.452a5.576 5.576 0 0 0-.422-.242c-.26-.108-.46-.075-.727.105-.317.214-.621.573-.978 1.015a211.368 211.368 0 0 1-2.082 2.535.85.85 0 1 1-1.308-1.085l.82-.99c.418-.508.834-1.017 1.247-1.528l.008-.01c.327-.405.782-.969 1.344-1.347.618-.416 1.422-.644 2.333-.262.173.072.392.204.568.309l.067.04c.219.13.448.264.686.377.525.25.86.286 1.044.215.306-.119.43-.275.618-.642l.09-.182c.191-.39.468-.955.998-1.485.554-.554 1.177-1.002 1.876-1.191Z" fill="currentColor"/><path d="M8.075 3.158c-1.543 0-2.86.552-3.787 1.547-.921.988-1.396 2.346-1.396 3.856v7.199c0 1.51.472 2.867 1.393 3.856.927.996 2.244 1.547 3.79 1.547h7.64c1.545 0 2.862-.551 3.79-1.547.92-.989 1.392-2.347 1.392-3.856v-4.515a.85.85 0 1 0-1.7 0v1.573l.156.144c.168.159.323.31.473.454.262.255.507.492.779.729a.85.85 0 0 1-1.116 1.282 13.25 13.25 0 0 1-.292-.262v.595c0 1.158-.359 2.077-.937 2.698-.571.614-1.42 1.005-2.546 1.005h-7.64c-.992 0-1.77-.305-2.331-.798l-.464.56a.85.85 0 1 1-1.308-1.086l.82-.99a4.69 4.69 0 0 1-.199-1.39V8.562c0-1.157.36-2.076.94-2.697.572-.615 1.421-1.006 2.543-1.006h4.79a.85.85 0 1 0 0-1.7h-4.79Z" fill="currentColor"/><path fill-rule="evenodd" clip-rule="evenodd" d="M18.108 2.148c.469 0 .85.38.85.85v2.15h2.15a.85.85 0 0 1 0 1.7h-2.15v2.15a.85.85 0 0 1-1.7 0v-2.15h-2.15a.85.85 0 1 1 0-1.7h2.15v-2.15c0-.47.38-.85.85-.85Z" fill="currentColor"/></svg>
