  <svg   viewBox="0 0 20 21">
      <path
        fill-rule="evenodd"
        clip-rule="evenodd"
        d="M3.879 13.07c1.198-.402 2.78-.521 4.396-.521 1.627 0 3.208.124 4.405.531.603.205 1.16.498 1.572.93.428.45.67 1.018.67 1.689a2.37 2.37 0 01-.675 1.688c-.415.43-.973.72-1.576.923-1.198.402-2.78.521-4.396.521-1.627 0-3.208-.124-4.406-.531-.602-.205-1.158-.498-1.57-.93a2.382 2.382 0 01-.672-1.689c0-.672.245-1.24.676-1.688.414-.43.973-.72 1.576-.923zm-.556 1.905a.956.956 0 00-.279.706c0 .3.097.52.28.71.197.209.522.405 1.002.568.967.329 2.355.456 3.949.456 1.587 0 2.975-.123 3.946-.448.481-.162.807-.357 1.005-.563a.955.955 0 00.28-.705c0-.3-.098-.52-.28-.71-.198-.209-.522-.404-1.002-.568-.967-.329-2.355-.456-3.95-.456-1.586 0-2.974.123-3.945.448-.481.162-.807.356-1.006.563zM3.76 6.684a4.502 4.502 0 014.515-4.515 4.501 4.501 0 014.515 4.515 4.501 4.501 0 01-4.515 4.514A4.502 4.502 0 013.76 6.684zm4.515-3.099a3.085 3.085 0 00-3.098 3.099 3.085 3.085 0 003.098 3.098 3.085 3.085 0 003.098-3.098 3.084 3.084 0 00-3.098-3.099zM15.918 8.12c.39 0 .708.318.708.71v3.34a.708.708 0 11-1.417 0V8.83c0-.392.317-.71.709-.71z"
        fill="currentColor"
      />
      <path
        fill-rule="evenodd"
        clip-rule="evenodd"
        d="M13.506 10.5c0-.391.317-.708.708-.708h3.408a.708.708 0 110 1.416h-3.408a.708.708 0 01-.708-.708z"
        fill="currentColor"
      />
    </svg>
