  <svg  fill="none" viewBox="0 0 24 25">
      <path
        fill-rule="evenodd"
        clip-rule="evenodd"
        d="M12 24.857c6.627 0 12-5.373 12-12 0-6.628-5.373-12-12-12s-12 5.372-12 12c0 6.627 5.373 12 12 12Zm-5.16-7.11a.565.565 0 0 1 0-.798l4.086-4.09-4.094-4.094a.565.565 0 0 1 0-.799l.278-.277c.22-.22.578-.22.798 0l4.094 4.094 4.09-4.094c.221-.22.579-.22.799 0l.278.278c.22.22.22.578 0 .798l-4.091 4.094 4.088 4.089c.22.22.22.578 0 .798l-.278.278a.565.565 0 0 1-.798 0l-4.088-4.089-4.086 4.09a.564.564 0 0 1-.798 0l-.278-.278Z"
        fill="currentColor"
      />
    </svg>
