<svg viewBox="0 0 20 20" fill="none">
    <g clip-path="url(#clip0_36789_600829)">
        <path d="M17.5 7.49997C16.8125 7.49997 16.25 8.06247 16.25 8.74997V13.75C16.25 14.4375 16.8125 15 17.5 15C18.1875 15 18.75 14.4375 18.75 13.75V8.74997C18.75 8.06247 18.1875 7.49997 17.5 7.49997ZM2.5 7.49997C1.8125 7.49997 1.25 8.06247 1.25 8.74997V13.75C1.25 14.4375 1.8125 15 2.5 15C3.1875 15 3.75 14.4375 3.75 13.75V8.74997C3.75 8.06247 3.1875 7.49997 2.5 7.49997ZM4.375 14.375C4.375 14.8723 4.57254 15.3492 4.92417 15.7008C5.27581 16.0524 5.75272 16.25 6.25 16.25V18.75C6.25 19.4375 6.8125 20 7.5 20C8.1875 20 8.75 19.4375 8.75 18.75V16.25H11.25V18.75C11.25 19.4375 11.8125 20 12.5 20C13.1875 20 13.75 19.4375 13.75 18.75V16.25C14.2473 16.25 14.7242 16.0524 15.0758 15.7008C15.4275 15.3492 15.625 14.8723 15.625 14.375V7.49997H4.375V14.375ZM15.59 6.24997C15.4974 5.42262 15.2223 4.62614 14.7846 3.91799C14.3469 3.20984 13.7574 2.60769 13.0587 2.15497L13.6837 0.903721C13.7578 0.755365 13.77 0.583652 13.7175 0.426356C13.665 0.26906 13.5521 0.139065 13.4037 0.0649706C13.2554 -0.00912427 13.0837 -0.0212504 12.9264 0.0312598C12.7691 0.08377 12.6391 0.196615 12.565 0.344971L11.9375 1.59997L11.775 1.53497C10.6226 1.15213 9.37737 1.15213 8.225 1.53497L8.0625 1.59997L7.435 0.344971C7.36091 0.196615 7.23091 0.08377 7.07362 0.0312598C6.91632 -0.0212504 6.74461 -0.00912425 6.59625 0.0649706C6.44789 0.139065 6.33505 0.26906 6.28254 0.426356C6.23003 0.583652 6.24216 0.755365 6.31625 0.903721L6.94125 2.15497C6.24253 2.60762 5.65302 3.20976 5.21529 3.91792C4.77755 4.62608 4.5025 5.4226 4.41 6.24997V6.87497H15.625V6.24997H15.59ZM8.125 4.99997C7.95924 5.00014 7.8002 4.93445 7.68288 4.81735C7.56555 4.70026 7.49954 4.54136 7.49937 4.3756C7.49921 4.20984 7.5649 4.0508 7.68199 3.93347C7.79908 3.81614 7.95799 3.75014 8.12375 3.74997H8.12625C8.29201 3.75014 8.45092 3.81614 8.56801 3.93347C8.6851 4.0508 8.75079 4.20984 8.75063 4.3756C8.75046 4.54136 8.68445 4.70026 8.56712 4.81735C8.4498 4.93445 8.29076 5.00014 8.125 4.99997ZM11.875 4.99997C11.7092 5.00014 11.5502 4.93445 11.4329 4.81735C11.3155 4.70026 11.2495 4.54136 11.2494 4.3756C11.2492 4.20984 11.3149 4.0508 11.432 3.93347C11.5491 3.81614 11.708 3.75014 11.8737 3.74997H11.8775C12.0433 3.75014 12.2022 3.81614 12.3193 3.93347C12.4364 4.0508 12.502 4.20984 12.5019 4.3756C12.5017 4.54136 12.4357 4.70026 12.3184 4.81735C12.201 4.93445 12.042 5.00014 11.8763 4.99997H11.875Z" fill="black"/>
    </g>
    <defs>
        <clipPath id="clip0_36789_600829">
            <rect width="20" height="20" fill="white"/>
        </clipPath>
    </defs>
</svg>
