<svg  viewBox="0 0 24 24">
    <path d="M18.5205 12.6409C18.5098 10.6809 19.3964 9.2016 21.1907 8.11215C20.1867 6.67557 18.6701 5.88518 16.6674 5.73031C14.7715 5.58077 12.6994 6.83578 11.9411 6.83578C11.14 6.83578 9.3029 5.78371 7.86097 5.78371C4.881 5.83178 1.71411 8.16021 1.71411 12.8972C1.71411 14.2964 1.97045 15.7419 2.48314 17.2336C3.16671 19.1936 5.634 24 8.2081 23.9199C9.5539 23.8879 10.5045 22.964 12.2562 22.964C13.9544 22.964 14.8356 23.9199 16.3363 23.9199C18.9317 23.8825 21.164 19.514 21.8156 17.5487C18.3336 15.9092 18.5205 12.7423 18.5205 12.6409ZM15.4978 3.87183C16.9558 2.14152 16.8223 0.566088 16.7795 0C15.4925 0.0747664 14.0025 0.875835 13.1534 1.86382C12.2188 2.92123 11.6687 4.22964 11.7862 5.70361C13.1801 5.81041 14.4511 5.09479 15.4978 3.87183Z"
          fill="#282828"/>
</svg>
