<svg viewBox="0 0 22 21" fill="none">
<path fill-rule="evenodd" clip-rule="evenodd" d="M10.7064 0.275373C10.8257 -0.0917912 11.3452 -0.091791 11.4645 0.275373L13.6901 7.1253C13.7435 7.2895 13.8965 7.40067 14.0691 7.40067H21.2716C21.6576 7.40067 21.8182 7.89469 21.5058 8.12161L20.2585 9.02782H13.855C13.0623 8.94434 12.3823 8.40223 12.1319 7.63158L11.0854 4.41077L10.0389 7.63158C9.78853 8.40224 9.10861 8.94435 8.31587 9.02782H1.91234L0.665041 8.12161C0.352713 7.89469 0.513229 7.40067 0.899288 7.40067H8.10172C8.27437 7.40067 8.42739 7.2895 8.48074 7.1253L10.7064 0.275373ZM4.22831 10.7105L6.49193 12.3551C6.63161 12.4566 6.69006 12.6365 6.63671 12.8007L4.41103 19.6506C4.29173 20.0177 4.71197 20.3231 5.0243 20.0961L10.8512 15.8627C10.9909 15.7612 11.18 15.7612 11.3197 15.8627L17.1466 20.0961C17.4589 20.3231 17.8791 20.0177 17.7598 19.6506L15.5342 12.8007C15.4808 12.6365 15.5393 12.4566 15.6789 12.3551L17.9426 10.7105H15.1552L14.7159 11.0296C14.002 11.5483 13.7033 12.4677 13.976 13.3069L15.0225 16.5278L12.2827 14.5372C11.5688 14.0185 10.6021 14.0185 9.88818 14.5372L7.14839 16.5278L8.19489 13.3069C8.46758 12.4677 8.16886 11.5483 7.45495 11.0296L7.01569 10.7105H4.22831Z" fill="currentColor"/>
</svg>
