  <svg  viewBox="0 0 18 18">
      <path
        fill-rule="evenodd"
        clip-rule="evenodd"
        d="M2.25 9c0-.384.308-.696.687-.696h12.126c.38 0 .687.312.687.696a.691.691 0 0 1-.687.695H2.937A.691.691 0 0 1 2.25 9Z"
        fill="currentColor"
      />
      <path
        fill-rule="evenodd"
        clip-rule="evenodd"
        d="M9.685 14.42a.702.702 0 0 1 .002-.983L14.09 9 9.687 4.563a.702.702 0 0 1-.002-.983.681.681 0 0 1 .972-.002l4.89 4.929a.7.7 0 0 1 0 .985l-4.89 4.93a.681.681 0 0 1-.972-.002Z"
        fill="currentColor"
      />
    </svg>
