  <svg   viewBox="0 0 24 24">
      <path
        fill-rule="evenodd"
        clip-rule="evenodd"
        d="M8.036 3.667h8.394c1.854 0 3.357 1.492 3.357 3.333v10c0 1.84-1.503 3.333-3.357 3.333H8.036c-1.854 0-3.357-1.492-3.357-3.333V7c0-1.841 1.503-3.333 3.357-3.333ZM3 7c0-2.761 2.255-5 5.036-5h8.394c2.78 0 5.035 2.239 5.035 5v10c0 2.761-2.254 5-5.035 5H8.036C5.255 22 3 19.761 3 17V7Zm5.036-.833a.836.836 0 0 0-.84.833c0 .46.376.833.84.833h2.5c.464 0 .84-.373.84-.833a.836.836 0 0 0-.84-.833h-2.5Zm-.84 4.166c0-.46.376-.833.84-.833h2.5c.464 0 .84.373.84.833 0 .46-.376.834-.84.834h-2.5a.836.836 0 0 1-.84-.834Zm.84 2.5a.836.836 0 0 0-.84.834c0 .46.376.833.84.833h8.394c.463 0 .839-.373.839-.833a.836.836 0 0 0-.84-.834H8.037ZM7.196 17c0-.46.376-.833.84-.833h8.394c.463 0 .839.373.839.833 0 .46-.376.833-.84.833H8.037a.836.836 0 0 1-.84-.833Zm6.715-10.833a.836.836 0 0 0-.839.833v3.333c0 .46.376.834.84.834h2.518c.463 0 .839-.373.839-.834V7a.836.836 0 0 0-.84-.833h-2.518Z"
        fill="currentColor"
      />
    </svg>
