<svg viewBox="0 0 20 16" fill="none" >
<path d="M5.125 0.5C4.13477 0.5 3.25293 1.14453 2.96875 2.09375L1.9375 5.53906L0.484375 5.04688L0.015625 6.45312L1.49219 6.94531L1.02344 8.53906C1.00586 8.60645 0.99707 8.67969 1 8.75V14C1 14.0234 1 14.0469 1 14.0703V14.75C1 15.1631 1.33691 15.5 1.75 15.5H4L4.25781 14.75H15.7422L16 15.5H18.25C18.6631 15.5 19 15.1631 19 14.75V14.1172C19.0029 14.0791 19.0029 14.0381 19 14V8.75C19.0029 8.67969 18.9941 8.60645 18.9766 8.53906L18.5078 6.94531L19.9844 6.45312L19.5156 5.04688L18.0625 5.53906L17.0312 2.09375C16.7471 1.14453 15.8652 0.5 14.875 0.5H5.125ZM5.125 2H14.875C15.209 2 15.5049 2.21973 15.6016 2.53906L16.5625 5.75H3.4375L4.39844 2.53906C4.49512 2.2168 4.79102 2 5.125 2ZM2.99219 7.25H17.0078L17.5 8.89062V13.25H2.5V8.89062L2.99219 7.25ZM4.375 8C3.75391 8 3.25 8.50391 3.25 9.125C3.25 9.74609 3.75391 10.25 4.375 10.25C4.99609 10.25 5.5 9.74609 5.5 9.125C5.5 8.50391 4.99609 8 4.375 8ZM15.625 8C15.0039 8 14.5 8.50391 14.5 9.125C14.5 9.74609 15.0039 10.25 15.625 10.25C16.2461 10.25 16.75 9.74609 16.75 9.125C16.75 8.50391 16.2461 8 15.625 8ZM7 10.25L6.0625 12.5H7.67969L8.00781 11.75H11.9922L12.3203 12.5H13.9375L13 10.25H7Z" fill="currentColor"/>
</svg>
