<svg   viewBox="0 0 24 24">
      <path
        d="M5 20.926V4h7.339c1.29 0 2.372.174 3.248.52.881.348 1.545.838 1.991 1.472.452.633.678 1.38.678 2.24 0 .622-.137 1.19-.413 1.702-.27.512-.65.942-1.14 1.29a4.539 4.539 0 0 1-1.72.71v.165a4.243 4.243 0 0 1 1.984.554 3.799 3.799 0 0 1 1.421 1.397c.353.59.53 1.283.53 2.082 0 .926-.243 1.75-.728 2.471-.48.722-1.163 1.29-2.05 1.703-.887.413-1.944.62-3.173.62H5Zm4.595-3.67h2.149c.771 0 1.35-.143 1.735-.43.386-.292.579-.721.579-1.289 0-.397-.091-.733-.273-1.008a1.701 1.701 0 0 0-.777-.628c-.33-.143-.73-.215-1.198-.215H9.595v3.57Zm0-6.413h1.884a2.79 2.79 0 0 0 1.067-.19c.308-.127.548-.309.719-.546.176-.242.264-.537.264-.884 0-.523-.187-.923-.562-1.198-.375-.281-.849-.422-1.421-.422H9.595v3.24Z"
        fill="currentColor"
        fill-opacity=".8"
      />
    </svg>
