  <svg   viewBox="0 0 24 24">
      <path
        fill-rule="evenodd"
        clip-rule="evenodd"
        d="M4.143 7.287a1.143 1.143 0 1 0 0-2.287 1.143 1.143 0 0 0 0 2.287Zm0 6a1.143 1.143 0 1 0 0-2.287 1.143 1.143 0 0 0 0 2.287Zm1.144 4.856a1.143 1.143 0 1 1-2.287 0 1.143 1.143 0 0 1 2.287 0ZM9.12 5a1.143 1.143 0 0 0 0 2.287h11.165a1.143 1.143 0 1 0 0-2.287H9.12Zm-1.143 7.143c0-.631.512-1.143 1.143-1.143h11.165a1.143 1.143 0 1 1 0 2.287H9.12a1.143 1.143 0 0 1-1.143-1.144ZM9.12 17a1.143 1.143 0 1 0 0 2.287h11.165a1.143 1.143 0 1 0 0-2.287H9.12Z"
        fill="currentColor"
        fill-opacity=".8"
      />
    </svg>
