<svg width="20" height="20" fill="none" xmlns="http://www.w3.org/2000/svg"><path fill-rule="evenodd" clip-rule="evenodd" d="M5.833 3.916h8.334c1.058 0 1.916.858 1.916 1.917v8.333a1.917 1.917 0 0 1-1.916 1.917H5.833a1.917 1.917 0 0 1-1.916-1.917V5.833c0-1.059.858-1.917 1.916-1.917ZM2.5 5.833a3.333 3.333 0 0 1 3.333-3.334h8.334A3.333 3.333 0 0 1 17.5 5.833v8.333a3.333 3.333 0 0 1-3.333 3.333H5.833A3.333 3.333 0 0 1 2.5 14.166V5.833ZM13.882 6.9a.736.736 0 0 0-1.076 0l-3.967 4.191-1.714-1.81a.736.736 0 0 0-1.077 0 .8.8 0 0 0 0 1.09l2.253 2.38a.736.736 0 0 0 1.076 0l4.505-4.76a.8.8 0 0 0 0-1.09Z" fill="#282828"/></svg>