<svg viewBox="0 0 22 22" fill="none">
<path d="M5.74994 0.5C3.41161 0.5 1.49994 2.41167 1.49994 4.75C1.49994 5.80319 1.89029 6.76732 2.53021 7.51172C1.12203 7.62545 -6.10352e-05 8.81436 -6.10352e-05 10.25V18.75C-6.10352e-05 20.2599 1.24005 21.5 2.74994 21.5H14.7499C16.2598 21.5 17.4999 20.2599 17.4999 18.75V17.6514L20.8339 19.874C20.9469 19.9493 21.0781 19.9925 21.2137 19.999C21.3493 20.0056 21.4841 19.9752 21.6038 19.9112C21.7235 19.8471 21.8235 19.7518 21.8933 19.6354C21.963 19.5189 21.9999 19.3857 21.9999 19.25V9.75C21.9999 9.61426 21.963 9.48108 21.8933 9.36464C21.8235 9.24821 21.7235 9.15288 21.6038 9.08884C21.4841 9.02479 21.3493 8.99442 21.2137 9.00096C21.0781 9.0075 20.9469 9.05071 20.8339 9.12598L17.4999 11.3486V10.25C17.4999 8.8701 16.448 7.76376 15.1171 7.5752C15.6416 6.92982 15.9999 6.14126 15.9999 5.25C15.9999 3.18782 14.3121 1.5 12.2499 1.5C11.1573 1.5 10.1724 1.97618 9.48529 2.72852C8.76357 1.40395 7.35754 0.5 5.74994 0.5ZM5.74994 2C7.27761 2 8.49994 3.22233 8.49994 4.75C8.49994 6.27767 7.27761 7.5 5.74994 7.5C4.22227 7.5 2.99994 6.27767 2.99994 4.75C2.99994 3.22233 4.22227 2 5.74994 2ZM12.2499 3C13.5015 3 14.4999 3.99848 14.4999 5.25C14.4999 6.50152 13.5015 7.5 12.2499 7.5C10.9984 7.5 9.99994 6.50152 9.99994 5.25C9.99994 3.99848 10.9984 3 12.2499 3ZM5.74994 4C5.55103 4 5.36026 4.07902 5.21961 4.21967C5.07896 4.36032 4.99994 4.55109 4.99994 4.75C4.99994 4.94891 5.07896 5.13968 5.21961 5.28033C5.36026 5.42098 5.55103 5.5 5.74994 5.5C5.94885 5.5 6.13962 5.42098 6.28027 5.28033C6.42092 5.13968 6.49994 4.94891 6.49994 4.75C6.49994 4.55109 6.42092 4.36032 6.28027 4.21967C6.13962 4.07902 5.94885 4 5.74994 4ZM12.2499 4.5C12.051 4.5 11.8603 4.57902 11.7196 4.71967C11.579 4.86032 11.4999 5.05109 11.4999 5.25C11.4999 5.44891 11.579 5.63968 11.7196 5.78033C11.8603 5.92098 12.051 6 12.2499 6C12.4489 6 12.6396 5.92098 12.7803 5.78033C12.9209 5.63968 12.9999 5.44891 12.9999 5.25C12.9999 5.05109 12.9209 4.86032 12.7803 4.71967C12.6396 4.57902 12.4489 4.5 12.2499 4.5ZM2.74994 9H5.74994H12.2499H14.7499C15.4491 9 15.9999 9.55089 15.9999 10.25V12.75V16.25V18.75C15.9999 19.4491 15.4491 20 14.7499 20H2.74994C2.05083 20 1.49994 19.4491 1.49994 18.75V10.25C1.49994 9.55089 2.05083 9 2.74994 9ZM20.4999 11.1514V17.8486L17.4999 15.8486V13.1514L20.4999 11.1514Z" fill="currentColor"/>
</svg>
