  <svg   viewBox="0 0 24 24">
      <path
        fill-rule="evenodd"
        clip-rule="evenodd"
        d="M12 3.702a8.298 8.298 0 100 16.596 8.298 8.298 0 000-16.596zM2.002 12c0-5.522 4.476-9.998 9.998-9.998 5.522 0 9.998 4.476 9.998 9.998 0 5.522-4.476 9.998-9.998 9.998-5.522 0-9.998-4.476-9.998-9.998z"
        fill="currentColor"
      />
      <path
        fill-rule="evenodd"
        clip-rule="evenodd"
        d="M14.54 12.035c-.337-.345-.924-.863-1.82-1.388-.731-.429-1.308-.627-1.697-.718a12.227 12.227 0 00-.173 2.036c0 .867.096 1.607.184 2.1l.032-.01c.345-.112.877-.338 1.67-.78 1.013-.566 1.54-.983 1.804-1.24zm1.513-.865c.284.33.524.952.133 1.544-.322.485-1.03 1.157-2.622 2.045-.851.475-1.49.756-1.976.913-.478.154-.858.205-1.171.165-.678-.088-.89-.684-.941-.904a13.528 13.528 0 01-.326-2.968c0-1.02.117-1.886.22-2.454.143-.785.868-1.464 1.808-1.287.581.11 1.4.369 2.402.956 1.325.777 2.108 1.565 2.473 1.99z"
        fill="currentColor"
      />
    </svg>
