<svg width="20" height="20" viewBox="0 0 20 20" fill="none" xmlns="http://www.w3.org/2000/svg">
<path fill-rule="evenodd" clip-rule="evenodd" d="M2.5 4.875C2.5 3.56332 3.56332 2.5 4.875 2.5L11.8 2.5C13.1117 2.5 14.175 3.56332 14.175 4.875V6.38399H12.7583V4.875C12.7583 4.34573 12.3293 3.91667 11.8 3.91667L4.875 3.91667C4.34573 3.91667 3.91667 4.34573 3.91667 4.875L3.91667 11.8C3.91667 12.3293 4.34573 12.7583 4.875 12.7583H6.37243V14.175H4.875C3.56332 14.175 2.5 13.1117 2.5 11.8L2.5 4.875Z" fill="currentColor"/>
<path fill-rule="evenodd" clip-rule="evenodd" d="M5.83374 8.20706C5.83374 6.89539 6.89706 5.83206 8.20874 5.83206L15.1302 5.83206C16.4419 5.83206 17.5052 6.89538 17.5052 8.20706V15.1286C17.5052 16.4402 16.4419 17.5036 15.1302 17.5036H8.20874C6.89707 17.5036 5.83374 16.4402 5.83374 15.1286L5.83374 8.20706ZM8.20874 7.24873C7.67947 7.24873 7.25041 7.67779 7.25041 8.20706L7.25041 15.1286C7.25041 15.6578 7.67947 16.0869 8.20874 16.0869H15.1302C15.6595 16.0869 16.0886 15.6578 16.0886 15.1286V8.20706C16.0886 7.67779 15.6595 7.24873 15.1302 7.24873L8.20874 7.24873Z" fill="currentColor"/>
</svg>
