  <svg   viewBox="0 0 20 20">
      <path
        fill-rule="evenodd"
        clip-rule="evenodd"
        d="M2.711 7.507c0-.39.318-.708.709-.708h13.167a.708.708 0 1 1 0 1.417H3.42a.708.708 0 0 1-.709-.709ZM12.572 10.386c0-.392.318-.709.709-.709h.007a.708.708 0 0 1 0 1.417h-.007a.708.708 0 0 1-.709-.708ZM9.295 10.386c0-.392.317-.709.708-.709h.007a.708.708 0 0 1 0 1.417h-.007a.708.708 0 0 1-.708-.708ZM6.01 10.386c0-.392.317-.709.708-.709h.007a.708.708 0 1 1 0 1.417h-.007a.708.708 0 0 1-.708-.708ZM12.572 13.25c0-.391.318-.708.709-.708h.007a.708.708 0 0 1 0 1.416h-.007a.708.708 0 0 1-.709-.708ZM9.295 13.25c0-.391.317-.708.708-.708h.007a.708.708 0 0 1 0 1.416h-.007a.708.708 0 0 1-.708-.708ZM6.01 13.25c0-.391.317-.708.708-.708h.007a.708.708 0 0 1 0 1.416h-.007a.708.708 0 0 1-.708-.708ZM12.987 1.342c.391 0 .708.317.708.709v2.424a.708.708 0 1 1-1.417 0V2.051c0-.392.318-.709.709-.709ZM7.02 1.342c.39 0 .708.317.708.709v2.424a.708.708 0 1 1-1.417 0V2.051c0-.392.317-.709.708-.709Z"
        fill="currentColor"
      />
      <path
        fill-rule="evenodd"
        clip-rule="evenodd"
        d="M3.813 3.58c.776-.737 1.85-1.075 3.063-1.075h6.255c1.214 0 2.29.338 3.065 1.075.78.743 1.164 1.802 1.16 3.057v6.724c0 1.255-.385 2.315-1.165 3.06-.776.738-1.851 1.078-3.067 1.078H6.876c-1.216 0-2.293-.348-3.068-1.097-.78-.754-1.165-1.827-1.165-3.096v-6.67c0-1.256.388-2.315 1.17-3.056Zm.975 1.027c-.438.416-.728 1.068-.728 2.029v6.67c0 .982.292 1.651.732 2.077.445.43 1.13.7 2.084.7h6.248c.96 0 1.647-.267 2.09-.689.437-.417.726-1.07.726-2.033V6.633c.003-.961-.284-1.612-.72-2.026-.441-.42-1.128-.685-2.09-.685H6.877c-.958 0-1.645.265-2.088.685Z"
        fill="currentColor"
      />
    </svg>
