<svg fill="none" viewBox="0 0 24 24">
      <path
        fill-rule="evenodd"
        clip-rule="evenodd"
        d="M5.915 9.154a.85.85 0 0 1 .93.761l.82 8.2A1.15 1.15 0 0 0 8.81 19.15h6.38a1.15 1.15 0 0 0 1.144-1.036l.82-8.199a.85.85 0 0 1 1.692.17l-.82 8.199a2.85 2.85 0 0 1-2.836 2.566H8.81a2.85 2.85 0 0 1-2.836-2.566l-.82-8.2a.85.85 0 0 1 .761-.93ZM3.682 6.924c0-.47.38-.85.85-.85h14.936a.85.85 0 0 1 0 1.7H4.532a.85.85 0 0 1-.85-.85Z"
        fill="currentColor"
      />
      <path
        fill-rule="evenodd"
        clip-rule="evenodd"
        d="M8.225 4.467a1.977 1.977 0 0 1 1.91-1.466h3.729a1.977 1.977 0 0 1 1.923 1.52l.214 1.07c.056.28.303.483.589.483a.85.85 0 0 1 0 1.7 2.301 2.301 0 0 1-2.256-1.85l-.207-1.035a.277.277 0 0 0-.263-.188h-3.728a.277.277 0 0 0-.263.188l-.207 1.036a2.302 2.302 0 0 1-2.256 1.85.85.85 0 0 1 0-1.7.601.601 0 0 0 .589-.484l.214-1.07a.85.85 0 0 1 .012-.054Z"
        fill="currentColor"
      />
    </svg>
