<svg   viewBox="0 0 24 24" fill="none" xmlns="http://www.w3.org/2000/svg">
<path d="M15.4049 3.00156C16.1413 2.2632 17.1408 1.8476 18.1836 1.84619C19.2264 1.84479 20.227 2.25769 20.9654 2.99406C21.7038 3.73044 22.1194 4.72996 22.1208 5.77276C22.1222 6.81556 21.7093 7.8162 20.9729 8.55456L9.76939 19.7911C9.53333 20.0281 9.2474 20.2095 8.93239 20.3221L2.97889 22.4461C2.77813 22.5177 2.56113 22.5309 2.35316 22.484C2.1452 22.4371 1.95485 22.3321 1.80426 22.1812C1.65368 22.0303 1.54907 21.8398 1.50262 21.6317C1.45617 21.4237 1.46979 21.2067 1.54189 21.0061L3.68089 15.0616C3.79266 14.751 3.97138 14.4688 4.20439 14.2351L15.4049 3.00156ZM19.9079 4.05756C19.6819 3.83162 19.4135 3.65246 19.1182 3.53031C18.8229 3.40817 18.5064 3.34544 18.1868 3.34572C17.8672 3.346 17.5508 3.40928 17.2557 3.53194C16.9606 3.6546 16.6925 3.83423 16.4669 4.06056L15.2939 5.23656L18.7334 8.67606L19.9109 7.49556C20.3663 7.0392 20.6218 6.42065 20.6212 5.77594C20.6207 5.13123 20.3641 4.51313 19.9079 4.05756ZM17.6744 9.73806L14.2349 6.29856L5.26639 15.2941C5.18884 15.3722 5.12944 15.4664 5.09239 15.5701L3.22189 20.7661L8.42689 18.9091C8.53243 18.8717 8.62827 18.8113 8.70739 18.7321L17.6744 9.73806ZM13.2854 3.00006H2.24989C2.05098 3.00006 1.86021 3.07908 1.71956 3.21973C1.57891 3.36038 1.49989 3.55115 1.49989 3.75006C1.49989 3.94897 1.57891 4.13974 1.71956 4.28039C1.86021 4.42104 2.05098 4.50006 2.24989 4.50006H11.7899L13.2854 3.00006ZM10.2944 6.00006H2.24989C2.05098 6.00006 1.86021 6.07908 1.71956 6.21973C1.57891 6.36038 1.49989 6.55115 1.49989 6.75006C1.49989 6.94897 1.57891 7.13974 1.71956 7.28039C1.86021 7.42104 2.05098 7.50006 2.24989 7.50006H8.79889L10.2944 6.00006ZM7.30489 9.00006H2.24989C2.05098 9.00006 1.86021 9.07908 1.71956 9.21973C1.57891 9.36038 1.49989 9.55115 1.49989 9.75006C1.49989 9.94897 1.57891 10.1397 1.71956 10.2804C1.86021 10.421 2.05098 10.5001 2.24989 10.5001H5.80939L7.30489 9.00006Z" fill="currentColor"/>
</svg>
