<svg viewBox="0 0 20 20" fill="none">
<path d="M15.7355 0.493444C15.7087 0.49429 15.6819 0.496572 15.6554 0.50028H13.2501C13.1507 0.498874 13.0521 0.517235 12.9598 0.554295C12.8676 0.591356 12.7837 0.646376 12.7129 0.71616C12.6421 0.785943 12.5859 0.869097 12.5476 0.96079C12.5092 1.05248 12.4894 1.15089 12.4894 1.25028C12.4894 1.34967 12.5092 1.44808 12.5476 1.53977C12.5859 1.63146 12.6421 1.71462 12.7129 1.7844C12.7837 1.85418 12.8676 1.9092 12.9598 1.94626C13.0521 1.98332 13.1507 2.00169 13.2501 2.00028H13.9396L11.2501 4.68973L8.7804 2.22001C8.63974 2.07941 8.449 2.00042 8.25012 2.00042C8.05124 2.00042 7.86051 2.07941 7.71985 2.22001L4.71985 5.22001C4.64787 5.28912 4.5904 5.37189 4.55082 5.46349C4.51123 5.55508 4.49032 5.65366 4.4893 5.75344C4.48829 5.85322 4.50719 5.9522 4.54491 6.04458C4.58263 6.13696 4.6384 6.22089 4.70896 6.29145C4.77951 6.362 4.86344 6.41777 4.95582 6.45549C5.04821 6.49321 5.14718 6.51211 5.24696 6.5111C5.34674 6.51009 5.44532 6.48917 5.53691 6.44958C5.62851 6.41 5.71129 6.35253 5.7804 6.28055L8.25012 3.81083L10.7198 6.28055C10.8605 6.42115 11.0512 6.50014 11.2501 6.50014C11.449 6.50014 11.6397 6.42115 11.7804 6.28055L15.0001 3.06083V3.75028C14.9987 3.84966 15.0171 3.94834 15.0541 4.04056C15.0912 4.13279 15.1462 4.21673 15.216 4.28751C15.2858 4.35828 15.3689 4.41449 15.4606 4.45285C15.5523 4.49121 15.6507 4.51096 15.7501 4.51096C15.8495 4.51096 15.9479 4.49121 16.0396 4.45285C16.1313 4.41449 16.2145 4.35828 16.2842 4.28751C16.354 4.21673 16.409 4.13279 16.4461 4.04056C16.4832 3.94834 16.5015 3.84966 16.5001 3.75028V1.33719C16.5137 1.22989 16.5039 1.12092 16.4713 1.01776C16.4388 0.9146 16.3844 0.819695 16.3118 0.739549C16.2391 0.659404 16.15 0.595914 16.0505 0.553435C15.9511 0.510955 15.8436 0.49049 15.7355 0.493444ZM2.25012 7.50028C1.29264 7.50028 0.500122 8.2928 0.500122 9.25028V17.7503C0.500122 18.7078 1.29264 19.5003 2.25012 19.5003H17.7501C18.7076 19.5003 19.5001 18.7078 19.5001 17.7503V9.25028C19.5001 8.2928 18.7076 7.50028 17.7501 7.50028H2.25012ZM3.50012 9.00028H16.5001C16.5001 9.83028 17.1701 10.5003 18.0001 10.5003V16.5003C17.1701 16.5003 16.5001 17.1703 16.5001 18.0003H3.50012C3.50012 17.1703 2.83012 16.5003 2.00012 16.5003V10.5003C2.83012 10.5003 3.50012 9.83028 3.50012 9.00028ZM10.0001 10.0003C9.02096 10.0003 8.19775 10.4923 7.70618 11.1682C7.2146 11.8442 7.00012 12.6764 7.00012 13.5003C7.00012 14.3241 7.2146 15.1564 7.70618 15.8323C8.19775 16.5082 9.02096 17.0003 10.0001 17.0003C10.9793 17.0003 11.8025 16.5082 12.2941 15.8323C12.7856 15.1564 13.0001 14.3241 13.0001 13.5003C13.0001 12.6764 12.7856 11.8442 12.2941 11.1682C11.8025 10.4923 10.9793 10.0003 10.0001 10.0003ZM10.0001 11.5003C10.521 11.5003 10.8228 11.6957 11.0812 12.0511C11.3396 12.4064 11.5001 12.9491 11.5001 13.5003C11.5001 14.0514 11.3396 14.5942 11.0812 14.9495C10.8228 15.3048 10.521 15.5003 10.0001 15.5003C9.47929 15.5003 9.17749 15.3048 8.91907 14.9495C8.66064 14.5942 8.50012 14.0514 8.50012 13.5003C8.50012 12.9491 8.66064 12.4064 8.91907 12.0511C9.17749 11.6957 9.47929 11.5003 10.0001 11.5003ZM4.00012 12.5003C3.73491 12.5003 3.48055 12.6056 3.29302 12.7932C3.10548 12.9807 3.00012 13.2351 3.00012 13.5003C3.00012 13.7655 3.10548 14.0199 3.29302 14.2074C3.48055 14.3949 3.73491 14.5003 4.00012 14.5003C4.26534 14.5003 4.51969 14.3949 4.70723 14.2074C4.89476 14.0199 5.00012 13.7655 5.00012 13.5003C5.00012 13.2351 4.89476 12.9807 4.70723 12.7932C4.51969 12.6056 4.26534 12.5003 4.00012 12.5003ZM16.0001 12.5003C15.7349 12.5003 15.4806 12.6056 15.293 12.7932C15.1055 12.9807 15.0001 13.2351 15.0001 13.5003C15.0001 13.7655 15.1055 14.0199 15.293 14.2074C15.4806 14.3949 15.7349 14.5003 16.0001 14.5003C16.2653 14.5003 16.5197 14.3949 16.7072 14.2074C16.8948 14.0199 17.0001 13.7655 17.0001 13.5003C17.0001 13.2351 16.8948 12.9807 16.7072 12.7932C16.5197 12.6056 16.2653 12.5003 16.0001 12.5003Z" fill="currentColor"/>
</svg>
