  <svg   fill="none" viewBox="0 0 24 24">
      <path
        fill-rule="evenodd"
        clip-rule="evenodd"
        d="M15.616 5.13 5.081 15.664a1.3 1.3 0 0 0-.381.92v2.713h2.715a1.3 1.3 0 0 0 .919-.38L18.869 8.384a1.3 1.3 0 0 0 0-1.84l-1.415-1.413a1.3 1.3 0 0 0-1.838 0ZM7.415 20.997a3 3 0 0 0 2.12-.878L20.07 9.586a3 3 0 0 0 0-4.243l-1.413-1.414a3 3 0 0 0-4.243 0L3.88 14.46A3 3 0 0 0 3 16.581v4.414h4.415Z"
        fill="currentColor"
      />
      <path
        fill-rule="evenodd"
        clip-rule="evenodd"
        d="M17.121 11.121 12.88 6.88l1.202-1.202 4.242 4.242-1.202 1.202Z"
        fill="currentColor"
      />
    </svg>
