<svg   viewBox="0 0 24 24" fill="none">
      <g clip-path="url(#clip0)" fill-rule="evenodd" clip-rule="evenodd" fill="currentColor">
        <path
          d="M4.39 4.56c.927-.996 2.244-1.548 3.786-1.548h3.238a.85.85 0 110 1.7H8.176c-1.12 0-1.97.391-2.543 1.006-.579.622-.94 1.54-.94 2.699v7.2c0 1.159.36 2.077.938 2.698.571.614 1.42 1.006 2.545 1.006h7.642c1.126 0 1.975-.392 2.546-1.006.578-.62.937-1.54.937-2.699v-3.488a.85.85 0 111.7 0v3.489c0 1.51-.472 2.868-1.393 3.857-.927.996-2.245 1.547-3.79 1.547H8.176c-1.545 0-2.863-.552-3.79-1.547-.92-.99-1.392-2.348-1.392-3.857v-7.2c0-1.511.474-2.87 1.396-3.858z"
        />
        <path
          d="M17.897 5.035a1.216 1.216 0 00-1.718 0l-6.471 6.47a1.03 1.03 0 00-.301.703l-.06 2.402h2.373c.273 0 .534-.109.728-.302l6.503-6.503a1.214 1.214 0 000-1.717l-1.054-1.053zm-2.92-1.203a2.916 2.916 0 014.121 0l1.055 1.054a2.914 2.914 0 010 4.121L13.65 15.51a2.73 2.73 0 01-1.93.8H8.474a.85.85 0 01-.85-.871l.082-3.274a2.73 2.73 0 01.799-1.861l6.472-6.472z"
        />
        <path d="M13.994 4.832a.85.85 0 011.202 0l3.955 3.955A.85.85 0 0117.95 9.99l-3.955-3.955a.85.85 0 010-1.202z" />
      </g>
      <defs>
        <clipPath id="clip0">
          <path fill="#fff" d="M0 0h24v24H0z" />
        </clipPath>
      </defs>
    </svg>
