<svg viewBox="0 0 20 19" fill="none">
<path d="M9.15004 13.2105C9.15004 12.7432 9.53084 12.3571 10 12.3571C10.4692 12.3571 10.85 12.7308 10.85 13.1981V13.2105C10.85 13.6778 10.4692 14.0571 10 14.0571C9.53084 14.0571 9.15004 13.6778 9.15004 13.2105Z" fill="currentColor"/>
<path fill-rule="evenodd" clip-rule="evenodd" d="M12.5196 1.48714L19.6321 13.9353C19.6502 13.967 19.6663 13.9999 19.6802 14.0337C19.8042 14.3352 19.8726 14.6528 19.8904 14.9694L19.8906 14.9733C19.9724 16.5641 18.7492 17.9181 17.1599 18.0013C17.1504 18.0018 17.1409 18.0021 17.1315 18.0023C17.1261 18.0024 17.1208 18.0024 17.1155 18.0024H2.95552C2.94376 18.0024 2.93205 18.0022 2.92041 18.0017C2.89276 18.0029 2.86479 18.0027 2.83659 18.0011C2.51902 17.9833 2.20472 17.9147 1.9056 17.7942L1.90252 17.793C0.429116 17.1928 -0.280977 15.5125 0.318026 14.0372C0.332252 14.0022 0.348801 13.9681 0.367563 13.9353L7.48002 1.48729C7.74189 1.01596 8.13158 0.626594 8.60495 0.366059C9.99667 -0.404361 11.7474 0.0984417 12.5196 1.48714ZM2.92105 16.3031C2.93248 16.3027 2.94397 16.3024 2.95552 16.3024H17.0904C17.7341 16.2585 18.2251 15.7075 18.1929 15.0625C18.186 14.9431 18.1627 14.8289 18.1249 14.7241L11.035 2.31569C10.7186 1.74372 9.99928 1.53692 9.42775 1.85368L9.42517 1.8551C9.23226 1.96114 9.0722 2.12085 8.96474 2.3153L8.95888 2.3259L1.87554 14.7228C1.66247 15.3162 1.95328 15.977 2.54226 16.2179C2.66188 16.2659 2.78927 16.2946 2.92105 16.3031Z" fill="currentColor"/>
<path fill-rule="evenodd" clip-rule="evenodd" d="M9.98987 6.40567C10.4593 6.40567 10.8399 6.78623 10.8399 7.25567V10.2875C10.8399 10.7569 10.4593 11.1375 9.98987 11.1375C9.52043 11.1375 9.13987 10.7569 9.13987 10.2875V7.25567C9.13987 6.78623 9.52043 6.40567 9.98987 6.40567Z" fill="currentColor"/>
</svg>
