  <svg   viewBox="0 0 20 21">
      <path
        fill-rule="evenodd"
        clip-rule="evenodd"
        d="M2.711 8.007c0-.391.318-.708.709-.708h13.167a.708.708 0 110 1.416H3.42a.708.708 0 01-.709-.708zM12.572 10.885c0-.39.318-.708.709-.708h.007a.708.708 0 010 1.417h-.007a.708.708 0 01-.709-.709zM9.295 10.885c0-.39.317-.708.708-.708h.007a.708.708 0 010 1.417h-.007a.708.708 0 01-.708-.709zM6.01 10.885c0-.39.317-.708.708-.708h.007a.708.708 0 010 1.417h-.007a.708.708 0 01-.708-.709zM12.572 13.75c0-.391.318-.708.709-.708h.007a.708.708 0 010 1.416h-.007a.708.708 0 01-.709-.708zM9.295 13.75c0-.391.317-.708.708-.708h.007a.708.708 0 010 1.416h-.007a.708.708 0 01-.708-.708zM6.01 13.75c0-.391.317-.708.708-.708h.007a.708.708 0 010 1.416h-.007a.708.708 0 01-.708-.708zM12.987 1.842c.391 0 .708.317.708.708v2.425a.708.708 0 11-1.417 0V2.551c0-.392.318-.709.709-.709zM7.02 1.842c.39 0 .708.317.708.708v2.425a.708.708 0 11-1.417 0V2.551c0-.392.317-.709.708-.709z"
        fill="currentColor"
      />
      <path
        fill-rule="evenodd"
        clip-rule="evenodd"
        d="M3.813 4.08c.776-.737 1.85-1.075 3.063-1.075h6.255c1.214 0 2.29.338 3.065 1.075.78.743 1.164 1.802 1.16 3.057v6.724c0 1.255-.385 2.315-1.165 3.059-.776.739-1.851 1.079-3.067 1.079H6.876c-1.216 0-2.293-.348-3.068-1.098-.78-.753-1.165-1.826-1.165-3.095v-6.67c0-1.256.388-2.315 1.17-3.057zm.975 1.027c-.438.416-.728 1.067-.728 2.029v6.67c0 .982.292 1.65.732 2.077.445.43 1.13.7 2.084.7h6.248c.96 0 1.647-.267 2.09-.689.437-.417.726-1.07.726-2.033V7.133c.003-.961-.284-1.612-.72-2.026-.441-.42-1.128-.685-2.09-.685H6.877c-.958 0-1.645.264-2.088.685z"
        fill="currentColor"
      />
    </svg>
