  <svg  viewBox="0 0 24 24" fill="none">
      <path
        fill-rule="evenodd"
        clip-rule="evenodd"
        d="M3.254 9.009c0-.47.38-.85.85-.85h15.8a.85.85 0 010 1.7h-15.8a.85.85 0 01-.85-.85zM15.087 12.462c0-.469.38-.85.85-.85h.008a.85.85 0 010 1.7h-.008a.85.85 0 01-.85-.85zM11.154 12.462c0-.469.38-.85.85-.85h.008a.85.85 0 110 1.7h-.008a.85.85 0 01-.85-.85zM7.212 12.462c0-.469.38-.85.85-.85h.008a.85.85 0 010 1.7h-.008a.85.85 0 01-.85-.85zM15.087 15.9c0-.47.38-.85.85-.85h.008a.85.85 0 010 1.7h-.008a.85.85 0 01-.85-.85zM11.154 15.9c0-.47.38-.85.85-.85h.008a.85.85 0 110 1.7h-.008a.85.85 0 01-.85-.85zM7.212 15.9c0-.47.38-.85.85-.85h.008a.85.85 0 010 1.7h-.008a.85.85 0 01-.85-.85zM15.584 1.61c.47 0 .85.381.85.85v2.91a.85.85 0 11-1.7 0V2.46c0-.469.381-.85.85-.85zM8.424 1.61c.469 0 .85.381.85.85v2.91a.85.85 0 01-1.7 0V2.46c0-.469.38-.85.85-.85z"
        fill="currentColor"
      />
      <path
        fill-rule="evenodd"
        clip-rule="evenodd"
        d="M4.575 4.295c.932-.883 2.222-1.289 3.676-1.289h7.506c1.458 0 2.749.405 3.679 1.29.936.891 1.396 2.163 1.392 3.668v8.07c0 1.505-.462 2.778-1.399 3.67-.93.886-2.221 1.295-3.68 1.295H8.25c-1.46 0-2.751-.418-3.682-1.317-.934-.904-1.397-2.192-1.397-3.715V7.963c0-1.507.465-2.778 1.403-3.668zm1.17 1.234c-.525.498-.873 1.28-.873 2.434v8.004c0 1.178.35 1.981.88 2.493.533.515 1.355.839 2.5.839h7.497c1.152 0 1.976-.32 2.507-.826.526-.5.872-1.285.872-2.44V7.96c.004-1.154-.341-1.935-.864-2.432-.53-.504-1.353-.822-2.507-.822H8.251c-1.149 0-1.973.318-2.506.823z"
        fill="currentColor"
      />
    </svg>
