<svg fill="none" viewBox="0 0 24 24" xmlns="http://www.w3.org/2000/svg">
<path fill-rule="evenodd" clip-rule="evenodd" d="M7.25 4.5h-.5c-.603 0-.98 0-1.266.02-.272.019-.35.05-.367.056a1 1 0 0 0-.54.541c-.008.017-.038.095-.057.367-.02.286-.02.663-.02 1.266v.5c0 .603 0 .98.02 1.266.019.272.05.35.056.367a1 1 0 0 0 .541.54c.017.008.095.038.367.057.286.02.663.02 1.266.02h.5c.603 0 .98 0 1.266-.02.272-.019.35-.05.367-.056a1 1 0 0 0 .54-.541c.008-.017.038-.095.057-.367.02-.286.02-.663.02-1.266v-.5c0-.603 0-.98-.02-1.266-.019-.272-.05-.35-.056-.367a1 1 0 0 0-.541-.54c-.017-.008-.095-.038-.367-.057-.286-.02-.663-.02-1.266-.02Zm-4.06.043C3 5.003 3 5.585 3 6.75v.5c0 1.165 0 1.747.19 2.207a2.5 2.5 0 0 0 1.353 1.353c.46.19 1.042.19 2.207.19h.5c1.165 0 1.747 0 2.207-.19a2.5 2.5 0 0 0 1.353-1.353c.19-.46.19-1.042.19-2.207v-.5c0-1.165 0-1.747-.19-2.207A2.5 2.5 0 0 0 9.457 3.19C8.997 3 8.415 3 7.25 3h-.5c-1.165 0-1.747 0-2.207.19A2.5 2.5 0 0 0 3.19 4.543ZM17.25 4.5h-.5c-.603 0-.98 0-1.266.02-.272.019-.35.05-.367.056a1 1 0 0 0-.54.541c-.008.017-.038.095-.057.367-.02.286-.02.663-.02 1.266v.5c0 .603 0 .98.02 1.266.019.272.05.35.056.367a1 1 0 0 0 .541.54c.017.008.095.038.367.057.286.02.663.02 1.266.02h.5c.603 0 .98 0 1.266-.02.272-.019.35-.05.367-.056a1 1 0 0 0 .54-.541c.008-.017.038-.095.057-.367.02-.286.02-.663.02-1.266v-.5c0-.603 0-.98-.02-1.266-.019-.272-.05-.35-.056-.367a1 1 0 0 0-.541-.54c-.017-.008-.095-.038-.367-.057-.286-.02-.663-.02-1.266-.02Zm-4.06.043C13 5.003 13 5.585 13 6.75v.5c0 1.165 0 1.747.19 2.207a2.5 2.5 0 0 0 1.353 1.353c.46.19 1.042.19 2.207.19h.5c1.165 0 1.747 0 2.207-.19a2.5 2.5 0 0 0 1.353-1.353c.19-.46.19-1.042.19-2.207v-.5c0-1.165 0-1.747-.19-2.207a2.5 2.5 0 0 0-1.353-1.353C18.997 3 18.415 3 17.25 3h-.5c-1.165 0-1.747 0-2.207.19a2.5 2.5 0 0 0-1.353 1.353ZM17.25 14.5h-.5c-.603 0-.98 0-1.266.02-.272.019-.35.05-.367.056a1 1 0 0 0-.54.541c-.008.017-.038.095-.057.367-.02.286-.02.663-.02 1.266v.5c0 .603 0 .98.02 1.266.019.272.05.35.056.367a1 1 0 0 0 .541.54c.017.008.095.038.367.057.286.02.663.02 1.266.02h.5c.603 0 .98 0 1.266-.02.272-.019.35-.05.367-.056a1 1 0 0 0 .54-.541c.008-.017.038-.095.057-.367.02-.286.02-.663.02-1.266v-.5c0-.603 0-.98-.02-1.266-.019-.272-.05-.35-.056-.367a1 1 0 0 0-.541-.54c-.017-.008-.095-.038-.367-.057a20.97 20.97 0 0 0-1.266-.02Zm-4.06.043c-.19.46-.19 1.042-.19 2.207v.5c0 1.165 0 1.747.19 2.207a2.5 2.5 0 0 0 1.353 1.353c.46.19 1.042.19 2.207.19h.5c1.165 0 1.747 0 2.207-.19a2.5 2.5 0 0 0 1.353-1.353c.19-.46.19-1.042.19-2.207v-.5c0-1.165 0-1.747-.19-2.207a2.5 2.5 0 0 0-1.353-1.353c-.46-.19-1.042-.19-2.207-.19h-.5c-1.165 0-1.747 0-2.207.19a2.5 2.5 0 0 0-1.353 1.353ZM7.25 14.5h-.5c-.603 0-.98 0-1.266.02-.272.019-.35.05-.367.056a1 1 0 0 0-.54.541c-.008.017-.038.095-.057.367-.02.286-.02.663-.02 1.266v.5c0 .603 0 .98.02 1.266.019.272.05.35.056.367a1 1 0 0 0 .541.54c.017.008.095.038.367.057.286.02.663.02 1.266.02h.5c.603 0 .98 0 1.266-.02.272-.019.35-.05.367-.056a1 1 0 0 0 .54-.541c.008-.017.038-.095.057-.367.02-.286.02-.663.02-1.266v-.5c0-.603 0-.98-.02-1.266-.019-.272-.05-.35-.056-.367a1 1 0 0 0-.541-.54c-.017-.008-.095-.038-.367-.057-.286-.02-.663-.02-1.266-.02Zm-4.06.043C3 15.003 3 15.585 3 16.75v.5c0 1.165 0 1.747.19 2.207a2.5 2.5 0 0 0 1.353 1.353c.46.19 1.042.19 2.207.19h.5c1.165 0 1.747 0 2.207-.19a2.5 2.5 0 0 0 1.353-1.353c.19-.46.19-1.042.19-2.207v-.5c0-1.165 0-1.747-.19-2.207a2.5 2.5 0 0 0-1.353-1.353C8.997 13 8.415 13 7.25 13h-.5c-1.165 0-1.747 0-2.207.19a2.5 2.5 0 0 0-1.353 1.353Z" fill="currentColor"/>
</svg>
