<svg   viewBox="0 0 48 48">
      <path
        fill-rule="evenodd"
        clip-rule="evenodd"
        d="M12 11.4h24a4.6 4.6 0 0 1 4.6 4.6v16a4.6 4.6 0 0 1-4.6 4.6H12A4.6 4.6 0 0 1 7.4 32V16a4.6 4.6 0 0 1 4.6-4.6ZM4 16a8 8 0 0 1 8-8h24a8 8 0 0 1 8 8v16a8 8 0 0 1-8 8H12a8 8 0 0 1-8-8V16Zm20.716 5.294c1.79 1.05 2.966 2.086 3.64 2.776-.53.515-1.582 1.347-3.61 2.479-1.584.885-2.65 1.337-3.339 1.56a8.793 8.793 0 0 1-.064.02 24.41 24.41 0 0 1-.368-4.199c0-1.657.177-3.086.346-4.072.779.183 1.932.578 3.395 1.436Zm6.93 4.133c.784-1.184.303-2.427-.264-3.087-.73-.85-2.296-2.425-4.947-3.98-2.004-1.174-3.64-1.692-4.803-1.911-1.882-.354-3.33 1.003-3.617 2.573a27.786 27.786 0 0 0-.44 4.908c0 2.81.443 5.038.652 5.936.102.44.527 1.632 1.882 1.807.626.081 1.386-.02 2.342-.33.972-.313 2.25-.874 3.953-1.825 3.182-1.776 4.6-3.12 5.243-4.09Z"
        fill="currentColor"
      />
    </svg>
