<svg   viewBox="0 0 24 24" fill="none" xmlns="http://www.w3.org/2000/svg">
<path fill-rule="evenodd" clip-rule="evenodd" d="M2.99871 17.2412C2.99871 16.7718 3.37927 16.3912 3.84871 16.3912H10.3164C10.7859 16.3912 11.1664 16.7718 11.1664 17.2412C11.1664 17.7107 10.7859 18.0912 10.3164 18.0912H3.84871C3.37927 18.0912 2.99871 17.7107 2.99871 17.2412Z" fill="currentColor"/>
<path fill-rule="evenodd" clip-rule="evenodd" d="M17.5768 15.5163C16.6239 15.5163 15.8519 16.2877 15.8519 17.2412C15.8519 18.1938 16.6242 18.9661 17.5768 18.9661C18.5294 18.9661 19.3017 18.1938 19.3017 17.2412C19.3017 16.2877 18.5296 15.5163 17.5768 15.5163ZM14.1519 17.2412C14.1519 15.3484 15.6855 13.8163 17.5768 13.8163C19.4681 13.8163 21.0017 15.3484 21.0017 17.2412C21.0017 19.1327 19.4683 20.6661 17.5768 20.6661C15.6853 20.6661 14.1519 19.1327 14.1519 17.2412Z" fill="currentColor"/>
<path fill-rule="evenodd" clip-rule="evenodd" d="M12.833 6.75889C12.833 6.28944 13.2136 5.90889 13.683 5.90889H20.1518C20.6212 5.90889 21.0018 6.28944 21.0018 6.75889C21.0018 7.22833 20.6212 7.60889 20.1518 7.60889H13.683C13.2136 7.60889 12.833 7.22833 12.833 6.75889Z" fill="currentColor"/>
<path fill-rule="evenodd" clip-rule="evenodd" d="M2.99829 6.75887C2.99829 4.86735 4.53166 3.33398 6.42317 3.33398C8.31469 3.33398 9.84805 4.86735 9.84805 6.75887C9.84805 8.65166 8.31446 10.1837 6.42317 10.1837C4.53188 10.1837 2.99829 8.65166 2.99829 6.75887ZM6.42317 5.03398C5.47054 5.03398 4.69829 5.80623 4.69829 6.75887C4.69829 7.71232 5.47031 8.48375 6.42317 8.48375C7.37603 8.48375 8.14805 7.71232 8.14805 6.75887C8.14805 5.80623 7.3758 5.03398 6.42317 5.03398Z" fill="currentColor"/>
</svg>
