  <svg   fill="none" viewBox="0 0 24 25">
      <path
        d="M15.166 18.687c-.395-1.05-1.468-1.624-2.142-2.483-.511-.651-.863-1.415-.964-2.225-.322.793-.868 1.505-1.498 2.109-.575.55-1.233 1.055-1.586 1.775-.49.993-.27 2.138.187 3.105.043.09.205.438.38.736-2.595-.932-4.454-3.275-4.533-6.05h-.008v-.196a5.27 5.27 0 0 1 .299-1.905 6.595 6.595 0 0 1 1.838-2.86c.011-.004.016-.016.022-.022 2.509-2.667 3.652-3.848 3.086-6.364a.378.378 0 0 1 .08-.335.341.341 0 0 1 .141-.097.326.326 0 0 1 .169-.013c.417.091.88.226 1.17.348 4.298 1.788 3.3 7.906 3.3 7.906s1.03-1.334 1.367-2.558c.081-.297.443-.37.61-.117.964 1.477 1.916 3.342 1.916 6.033 0 .169-.01.32-.028.462-.202 2.809-2.226 5.133-4.96 5.92.85-.87 1.613-1.948 1.153-3.169h.001Z"
        fill="currentColor"
      />
    </svg>
