  <svg  fill="none" viewBox="0 0 24 24">
      <path
        fill-rule="evenodd"
        clip-rule="evenodd"
        d="M16.684 5.786a.85.85 0 01.998-.669 3.426 3.426 0 010 6.72.85.85 0 01-.33-1.668 1.726 1.726 0 000-3.384.85.85 0 01-.668-.999zM17.945 13.794a.85.85 0 01.959-.725c.245.034.49.078.733.132.325.065.72.17 1.088.354.367.183.787.484 1.024.98v.001a2.076 2.076 0 010 1.78c-.212.448-.574.737-.906.921a4.02 4.02 0 01-1 .374.85.85 0 11-.4-1.652c.227-.055.426-.125.573-.207.149-.083.19-.146.198-.164a.376.376 0 000-.322l.768-.365-.767.366c-.01-.022-.062-.098-.249-.191a2.713 2.713 0 00-.69-.213 7.368 7.368 0 00-.605-.11.85.85 0 01-.726-.959zM7.353 5.792a.85.85 0 01-.684.988 1.726 1.726 0 000 3.394.85.85 0 11-.305 1.672 3.426 3.426 0 010-6.738.85.85 0 01.989.684zM6.16 13.79a.85.85 0 01-.737.95 7.394 7.394 0 00-.724.127c-.25.05-.486.118-.667.209-.187.093-.237.169-.248.19v.002a.37.37 0 000 .319v.001c.01.018.05.084.207.169.154.084.36.154.593.209a.85.85 0 11-.389 1.655 4.106 4.106 0 01-1.018-.372c-.338-.184-.711-.475-.928-.932a2.07 2.07 0 010-1.782c.237-.496.657-.797 1.023-.98a4.36 4.36 0 011.089-.354c.282-.063.566-.112.85-.148a.85.85 0 01.95.738zM7.694 16.109a.66.66 0 00-.193.492c0 .212.066.357.192.488.147.152.404.312.82.451.838.282 2.059.392 3.482.392 1.43 0 2.649-.114 3.485-.398.413-.141.67-.303.816-.456a.659.659 0 00.192-.492.648.648 0 00-.192-.487c-.146-.152-.404-.313-.82-.452-.838-.281-2.059-.392-3.481-.392-1.43 0-2.65.114-3.485.398-.413.14-.67.303-.816.456zm.269-2.065c1.111-.378 2.563-.49 4.032-.49 1.459 0 2.91.108 4.022.481.56.188 1.098.464 1.504.884.425.441.667 1.006.667 1.667 0 .659-.24 1.223-.662 1.666-.403.422-.939.7-1.5.89-1.11.379-2.563.49-4.031.49-1.46 0-2.91-.107-4.023-.48-.56-.188-1.098-.463-1.503-.884a2.345 2.345 0 01-.668-1.667c0-.658.24-1.223.663-1.666.403-.422.939-.7 1.499-.891zM11.995 5.916A2.562 2.562 0 009.42 8.491a2.563 2.563 0 002.574 2.575 2.563 2.563 0 002.574-2.575 2.562 2.562 0 00-2.574-2.575zM7.72 8.491a4.262 4.262 0 014.274-4.275 4.262 4.262 0 014.274 4.275 4.262 4.262 0 01-4.274 4.275A4.262 4.262 0 017.72 8.49z"
        fill="currentColor"
      />
    </svg>
