  <svg fill="none" viewBox="0 0 24 24">
      <path
        fill-rule="evenodd"
        clip-rule="evenodd"
        d="M3.5 12A8.5 8.5 0 0112 3.5a.85.85 0 010 1.7 6.8 6.8 0 104.644 1.833.85.85 0 111.162-1.242A8.479 8.479 0 0120.5 12c0 4.698-3.806 8.5-8.5 8.5A8.498 8.498 0 013.5 12z"
        fill="currentColor"
      />
      <path
        d="M10.545 2.859a.857.857 0 011.333-.714l2.74 1.827a.857.857 0 010 1.427l-2.74 1.827a.857.857 0 01-1.333-.713V2.859zM9.412 14.508c0 .338.184.54.492.54.312 0 .492-.197.492-.54V9.599c0-.378-.246-.637-.606-.637-.211 0-.418.079-.717.29l-.83.598c-.207.14-.304.285-.304.444 0 .206.159.369.365.369.11 0 .216-.04.374-.15l.707-.505h.027v4.5zM11.78 13.796c0 .646.791 1.331 1.969 1.331 1.3 0 2.197-.857 2.197-2.109 0-1.147-.786-1.942-1.916-1.942-.51 0-1.01.202-1.213.487h-.057l.145-1.735h2.316c.312 0 .488-.145.488-.413 0-.264-.18-.418-.488-.418h-2.478c-.431 0-.655.18-.686.554l-.176 2.35c-.026.374.167.607.48.607.153 0 .259-.052.549-.312.255-.21.558-.325.874-.325.69 0 1.182.488 1.182 1.191 0 .73-.51 1.235-1.235 1.235-.483 0-.86-.229-1.125-.668-.127-.211-.246-.29-.417-.29-.25 0-.409.193-.409.457z"
        fill="currentColor"
      />
    </svg>
