  <svg   viewBox="0 0 24 24">
      <path
        fill-rule="evenodd"
        clip-rule="evenodd"
        d="M13.649 4.222c0-1.226.996-2.222 2.22-2.222 1.226 0 2.224.996 2.224 2.222a2.225 2.225 0 0 1-2.223 2.222 2.224 2.224 0 0 1-2.221-2.222Zm0 7.778c0-1.226.996-2.222 2.22-2.222 1.226 0 2.224.996 2.224 2.222a2.225 2.225 0 0 1-2.223 2.222A2.224 2.224 0 0 1 13.649 12Zm2.22 5.555a2.224 2.224 0 0 0-2.22 2.223c0 1.226.996 2.222 2.22 2.222a2.225 2.225 0 0 0 2.224-2.222 2.225 2.225 0 0 0-2.223-2.223ZM5.906 4.222C5.906 2.996 6.903 2 8.128 2c1.224 0 2.223.996 2.223 2.222a2.225 2.225 0 0 1-2.223 2.222 2.224 2.224 0 0 1-2.222-2.222Zm0 7.778c0-1.226.997-2.222 2.222-2.222 1.224 0 2.223.996 2.223 2.222a2.225 2.225 0 0 1-2.223 2.222A2.224 2.224 0 0 1 5.906 12Zm2.222 5.555a2.224 2.224 0 0 0-2.222 2.223c0 1.226.997 2.222 2.222 2.222a2.225 2.225 0 0 0 2.223-2.222 2.225 2.225 0 0 0-2.223-2.223Z"
        fill="currentColor"
      />
    </svg>
