  <svg   fill="none" viewBox="0 0 24 25">
      <path
        fill-rule="evenodd"
        clip-rule="evenodd"
        d="M11.405 5.218a1.125 1.125 0 0 0-.876-1.336 1.14 1.14 0 0 0-1.354.864l-.784 3.611H5.73c-.63 0-1.14.504-1.14 1.125s.51 1.125 1.14 1.125h2.173l-.977 4.5H4.59c-.63 0-1.14.504-1.14 1.125s.51 1.125 1.14 1.125h1.847l-.682 3.139c-.132.608.26 1.206.876 1.336a1.14 1.14 0 0 0 1.354-.865l.784-3.61h4.508l-.682 3.139c-.132.608.26 1.206.876 1.336a1.14 1.14 0 0 0 1.354-.865l.784-3.61h2.661c.63 0 1.14-.504 1.14-1.125s-.51-1.125-1.14-1.125h-2.173l.977-4.5h2.336c.63 0 1.14-.504 1.14-1.125s-.51-1.125-1.14-1.125h-1.847l.682-3.14a1.125 1.125 0 0 0-.876-1.335 1.14 1.14 0 0 0-1.354.864l-.784 3.611h-4.508l.682-3.14Zm2.36 9.889.978-4.5h-4.508l-.978 4.5h4.508Z"
        fill="currentColor"
      />
    </svg>
