    <svg   viewBox="0 0 24 24">
      <path d="M2 4.579V2h15.293v2.579h-6.165v17.275H8.156V4.579H2Z" fill="currentColor" fill-opacity=".8" />
      <path
        d="M20.797 10.686v1.745h-6.071v-1.745h6.071ZM16.354 8.01h2.164v10.565c0 .422.063.739.188.952a.984.984 0 0 0 .485.43c.203.072.422.108.658.108.174 0 .326-.012.456-.036l.304-.058.391 1.796a3.623 3.623 0 0 1-.535.145 4.223 4.223 0 0 1-.869.087c-.57.01-1.1-.092-1.592-.305a2.734 2.734 0 0 1-1.194-.989c-.304-.446-.456-1.006-.456-1.68V8.01Z"
        fill="currentColor"
        fill-opacity=".8"
      />
    </svg>
