<svg viewBox="0 0 20 18" fill="none">
<path fill-rule="evenodd" clip-rule="evenodd" d="M8.7357 2.91964C7.97767 2.15239 6.98479 1.7 5.90383 1.7C3.63976 1.7 1.68491 3.70525 1.70009 6.3382L1.70014 6.34715C1.7017 9.49697 3.75463 11.9572 5.86143 13.6513C6.91127 14.4955 7.96268 15.1396 8.75215 15.5726C9.1465 15.7889 9.4745 15.952 9.70292 16.0606C9.7799 16.0972 9.84554 16.1276 9.89856 16.1517C9.91909 16.1429 9.93895 16.1343 9.95793 16.126C10.0032 16.1064 10.0417 16.0896 10.0717 16.0765C10.0953 16.0661 10.1076 16.0605 10.1118 16.0586C10.1137 16.0578 10.1139 16.0577 10.1128 16.0582C10.3466 15.9486 10.6824 15.7841 11.086 15.5663C11.8939 15.1302 12.9698 14.4824 14.0441 13.6356C16.2018 11.9345 18.3 9.47367 18.3 6.34349C18.3 3.70701 16.3434 1.7 14.0786 1.7C12.9976 1.7 12.0048 2.15239 11.2467 2.91965L11.2133 2.95386L9.99121 4.21759L8.76915 2.95386L8.7357 2.91964ZM7.93462 17.0631C7.08473 16.597 5.94423 15.8994 4.79612 14.9761C2.55349 13.1728 0.00206064 10.2766 0.000113395 6.348C-0.0197496 2.90215 2.57226 0 5.90383 0C7.35784 0 8.67699 0.565537 9.6953 1.48594C9.78069 1.56312 9.86397 1.6428 9.94503 1.72485C9.9605 1.74051 9.9759 1.75626 9.99121 1.7721C10.0065 1.75627 10.0219 1.74052 10.0374 1.72486C10.1185 1.6428 10.2017 1.56313 10.2871 1.48594C11.3054 0.565536 12.6246 0 14.0786 0C17.4128 0 20 2.90423 20 6.34349C20 10.271 17.3806 13.17 15.0965 14.9706C13.9246 15.8944 12.7606 16.5942 11.8934 17.0623C11.4582 17.2972 11.0935 17.476 10.8343 17.5975C10.7046 17.6583 9.89961 18 9.89961 18C9.89961 18 9.30962 17.7508 9.27369 17.7348C9.20185 17.7027 9.1002 17.6564 8.97298 17.5959C8.71874 17.475 8.3612 17.2971 7.93462 17.0631Z" fill="currentColor"/>
</svg>
