  <svg   viewBox="0 0 48 48">
      <path
        fill-rule="evenodd"
        clip-rule="evenodd"
        d="M8.786 9.09c1.855-1.99 4.489-3.094 7.573-3.094H31.64c3.09 0 5.726 1.103 7.58 3.094 1.84 1.977 2.785 4.693 2.785 7.712V31.2c0 3.018-.945 5.734-2.786 7.712-1.854 1.991-4.49 3.093-7.58 3.093h-15.28c-3.09 0-5.725-1.102-7.579-3.093-1.84-1.978-2.785-4.694-2.785-7.712V16.802c0-3.02.949-5.736 2.791-7.713Zm2.487 2.317c-1.158 1.243-1.878 3.08-1.878 5.395V31.2c0 2.316.718 4.153 1.874 5.395 1.143 1.228 2.84 2.01 5.09 2.01h15.28c2.251 0 3.949-.782 5.092-2.01 1.156-1.242 1.873-3.079 1.873-5.395V16.802c0-2.317-.717-4.154-1.873-5.395-1.143-1.228-2.84-2.01-5.09-2.01H16.358c-2.242 0-3.94.781-5.086 2.01Z"
        fill="currentColor"
      />
      <path
        fill-rule="evenodd"
        clip-rule="evenodd"
        d="M18.485 16.797a1.562 1.562 0 0 0 0 3.123 1.563 1.563 0 0 0 0-3.123Zm-4.96 1.562a4.962 4.962 0 0 1 4.96-4.962 4.963 4.963 0 0 1 0 9.923 4.962 4.962 0 0 1-4.96-4.961ZM31.55 22.565c1.468-.4 2.945-.186 4.331.648 1.163.7 2.153 1.562 3.034 2.391.338.318.648.618.946.908.526.51 1.015.984 1.558 1.457a1.7 1.7 0 1 1-2.232 2.564c-.605-.526-1.218-1.12-1.79-1.673a79.485 79.485 0 0 0-.81-.78c-.826-.775-1.607-1.44-2.459-1.953-.63-.38-1.156-.426-1.686-.282-.602.164-1.349.616-2.24 1.507-.631.632-.926 1.224-1.305 1.986-.078.157-.16.322-.25.497-.533 1.038-1.285 2.225-3.034 2.901-1.785.69-3.616.023-4.777-.53-.63-.3-1.205-.639-1.65-.903-.514-.307-.736-.439-.844-.484-.518-.217-.92-.15-1.453.208-.635.428-1.243 1.146-1.957 2.03a495.731 495.731 0 0 1-4.163 5.071 1.7 1.7 0 0 1-2.617-2.17 489.784 489.784 0 0 0 4.134-5.036l.017-.02c.652-.81 1.564-1.938 2.687-2.695 1.235-.832 2.844-1.287 4.667-.524.346.145.784.408 1.134.618l.136.08c.437.262.895.529 1.37.755 1.05.5 1.72.572 2.09.429.611-.237.86-.55 1.236-1.283.056-.11.116-.232.18-.364.382-.779.936-1.91 1.995-2.97 1.109-1.108 2.355-2.003 3.751-2.383Z"
        fill="currentColor"
      />
    </svg>
