  <svg   viewBox="0 0 24 25">
      <path
        fill-rule="evenodd"
        clip-rule="evenodd"
        d="M8.29 3.91c.96-.043 1.267-.054 3.71-.054h-.002c2.445 0 2.75.01 3.71.054.959.044 1.613.196 2.187.418.593.23 1.093.538 1.594 1.038.5.5.808 1.003 1.038 1.595.222.572.374 1.226.419 2.184.043.96.054 1.267.054 3.711s-.011 2.75-.054 3.71c-.045.958-.197 1.612-.419 2.185a4.417 4.417 0 01-1.038 1.594c-.5.5-1.002.809-1.594 1.039-.572.222-1.227.374-2.185.418-.96.044-1.266.054-3.71.054s-2.75-.01-3.711-.054c-.958-.044-1.612-.196-2.185-.418a4.406 4.406 0 01-1.593-1.04 4.41 4.41 0 01-1.038-1.593c-.223-.573-.375-1.227-.419-2.185C3.011 15.606 3 15.3 3 12.856s.011-2.751.054-3.711c.043-.958.195-1.612.418-2.185a4.418 4.418 0 011.04-1.594c.5-.5 1.001-.808 1.593-1.038.573-.222 1.227-.374 2.185-.418zm7.435 4.142a1.08 1.08 0 112.16 0 1.08 1.08 0 01-2.16 0zm-3.724.182a4.622 4.622 0 100 9.244 4.622 4.622 0 000-9.244zm3 4.622a3 3 0 10-6 0 3 3 0 006 0z"
        fill="currentColor"
      />
    </svg>
