  <svg   fill="none" viewBox="0 0 24 24">
      <path
        fill-rule="evenodd"
        clip-rule="evenodd"
        d="M12 20.4A8.4 8.4 0 1 0 11.998 3.6 8.4 8.4 0 0 0 12 20.4ZM22.1 12c0 5.578-4.523 10.1-10.1 10.1C6.42 22.1 1.9 17.577 1.9 12S6.42 1.9 12 1.9c5.577 0 10.1 4.523 10.1 10.1Z"
        fill="currentColor"
      />
      <path
        fill-rule="evenodd"
        clip-rule="evenodd"
        d="M12.005 16.646a.85.85 0 0 1-.85-.85v-4.419a.85.85 0 0 1 1.7 0v4.419c0 .47-.38.85-.85.85ZM12.855 8.204c0 .47-.38.85-.85.85h-.01a.85.85 0 0 1 0-1.7h.01c.47 0 .85.38.85.85Z"
        fill="currentColor"
      />
    </svg>
