<svg width="20" height="20" fill="none" xmlns="http://www.w3.org/2000/svg"><path d="M17.696 1.66a.625.625 0 0 0-.43.19L1.85 17.266a.625.625 0 1 0 .884.884l4.314-4.315A4.01 4.01 0 0 0 10 15.137c2.22 0 4.03-1.808 4.03-4.025a4.02 4.02 0 0 0-1.303-2.955l1.878-1.879c2.022 1.184 3.59 3.096 4.166 5.334a.622.622 0 0 0 .758.45.617.617 0 0 0 .45-.758c-.642-2.5-2.287-4.607-4.447-5.953l2.618-2.618a.625.625 0 0 0-.454-1.072Zm-7.7 2.09c-4.654 0-8.85 3.175-9.975 7.554a.617.617 0 0 0 .45.758.617.617 0 0 0 .758-.45C2.199 7.842 5.97 5 9.996 5c.712 0 1.416.087 2.095.258l1.026-1.025a10.288 10.288 0 0 0-3.121-.483ZM10 7.083a4.031 4.031 0 0 0-4.017 4.283l1.58-1.579a2.77 2.77 0 0 1 1.116-1.116l1.579-1.58c-.087-.004-.17-.008-.258-.008Zm1.844 1.957c.571.508.935 1.246.935 2.072A2.78 2.78 0 0 1 10 13.887c-.823 0-1.56-.364-2.069-.935l3.913-3.912Z" fill="currentColor"/></svg>
