<svg viewBox="0 0 21 18" fill="none">
    <path
    d="M1.35 6.348v-.005C1.333 3.303 3.606.85 6.404.85c1.328 0 2.533.558 3.436 1.472l.04.041.611.632.611-.632.04-.04-.595-.589.595.588C12.045 1.408 13.25.85 14.58.85c2.8 0 5.071 2.456 5.071 5.493 0 3.53-2.359 6.21-4.58 7.96a21.665 21.665 0 01-4.096 2.525l.36.77-.36-.77c-.048.022-.264.115-.49.212l-.086.037-.18-.077a12.635 12.635 0 01-.38-.172 20.944 20.944 0 01-4.01-2.514C3.655 12.565 1.353 9.887 1.35 6.348z"
    stroke="currentColor"
    stroke-width="1.7"
    />
</svg>
