  <svg   viewBox="0 0 24 25" fill="none">
      <path
        fill-rule="evenodd"
        clip-rule="evenodd"
        d="M16.977 6.949a3.335 3.335 0 00-4.717 0l-1.174 1.198a.523.523 0 01-.74-.74L11.52 6.21a4.382 4.382 0 116.197 6.197l-1.56 1.559a4.382 4.382 0 01-6.196 0c-.271-.27-.332-.306-.518-.622a.523.523 0 01.903-.53c.21.25.148.205.355.412a3.335 3.335 0 004.716 0l1.56-1.56a3.335 3.335 0 000-4.716zm-4.678 4.677a3.335 3.335 0 00-4.717 0l-1.559 1.56a3.335 3.335 0 104.717 4.716l1.242-1.242a.523.523 0 11.74.74l-1.242 1.242a4.382 4.382 0 11-6.197-6.197l1.56-1.559a4.382 4.382 0 016.196 0c.27.27.378.424.563.74a.523.523 0 11-.902.53c-.245-.326-.194-.323-.4-.53z"
        fill="currentColor"
      />
      <path
        fill-rule="evenodd"
        clip-rule="evenodd"
        d="M11.272 5.961a4.732 4.732 0 116.692 6.692l-1.559 1.56a4.732 4.732 0 01-6.692 0l-.101-.101a2.306 2.306 0 01-.47-.592.873.873 0 011.489-.912c.073.088.115.142.143.178l.024.03a2.985 2.985 0 004.372.16l1.56-1.558a2.985 2.985 0 00-4.222-4.223l-1.174 1.2a.873.873 0 01-1.237-1.234l1.175-1.2zm.496.494l-1.174 1.2a.173.173 0 00.244.246l1.172-1.197.002-.003a3.685 3.685 0 115.212 5.212l-1.559 1.56a3.685 3.685 0 01-5.212 0c-.144-.145-.183-.195-.244-.273a5.148 5.148 0 00-.13-.16.357.357 0 01-.035-.05.173.173 0 10-.299.176c.087.148.136.215.188.274.04.046.082.087.147.15l.128.127a4.032 4.032 0 005.702 0l1.56-1.559a4.032 4.032 0 00-5.701-5.703zM6.595 10.64a4.732 4.732 0 016.692 0c.296.296.42.474.617.81a.873.873 0 01-1.495.902c-.1-.133-.154-.217-.191-.275a.921.921 0 00-.166-.203 2.985 2.985 0 00-4.222 0l-1.56 1.56a2.985 2.985 0 004.223 4.222l1.242-1.242a.873.873 0 011.235 1.235l-1.242 1.242a4.732 4.732 0 11-6.692-6.692l1.559-1.56zm6.197.495a4.032 4.032 0 00-5.702 0l-1.56 1.559a4.032 4.032 0 005.703 5.702l1.242-1.242a.173.173 0 00-.245-.245l-1.242 1.241a3.685 3.685 0 11-5.212-5.211l1.559-1.56a3.685 3.685 0 015.212 0c.117.118.172.187.23.275l.03.044c.037.06.082.127.172.248l.023.033a.173.173 0 10.298-.175 2.694 2.694 0 00-.508-.67z"
        fill="currentColor"
      />
    </svg>
