<svg  viewBox="0 0 36 36" fill="none" xmlns="http://www.w3.org/2000/svg">
<path fill-rule="evenodd" clip-rule="evenodd" d="M10.6983 11.7571C10.7159 7.73153 13.9916 4.48347 18.0157 4.49957C22.0398 4.50107 25.3025 7.76473 25.3025 11.7891V14.6266C25.3025 15.3307 24.7317 15.9016 24.0275 15.9016C23.3233 15.9016 22.7525 15.3307 22.7525 14.6266V11.7891C22.7525 9.17213 20.6299 7.04957 18.013 7.04957H18.0074C15.3914 7.03812 13.2612 9.14841 13.2483 11.7656V14.6266C13.2483 15.3307 12.6775 15.9016 11.9733 15.9016C11.2691 15.9016 10.6983 15.3307 10.6983 14.6266L10.6983 11.7571Z" fill="currentColor"/>
<path fill-rule="evenodd" clip-rule="evenodd" d="M12.951 15.8075C10.8876 15.8075 9.21455 17.4796 9.21455 19.5439V25.2122C9.21455 27.2766 10.8876 28.9487 12.951 28.9487H23.0493C25.1127 28.9487 26.7857 27.2766 26.7857 25.2122V19.5439C26.7857 17.4796 25.1127 15.8075 23.0493 15.8075H12.951ZM6.66455 19.5439C6.66455 16.0708 9.47966 13.2575 12.951 13.2575H23.0493C26.5206 13.2575 29.3357 16.0708 29.3357 19.5439V25.2122C29.3357 28.6853 26.5206 31.4987 23.0493 31.4987H12.951C9.47966 31.4987 6.66455 28.6853 6.66455 25.2122V19.5439Z" fill="currentColor"/>
<path fill-rule="evenodd" clip-rule="evenodd" d="M18.0004 19.6356C18.7045 19.6356 19.2754 20.2064 19.2754 20.9106V23.8458C19.2754 24.55 18.7045 25.1208 18.0004 25.1208C17.2962 25.1208 16.7254 24.55 16.7254 23.8458V20.9106C16.7254 20.2064 17.2962 19.6356 18.0004 19.6356Z" fill="currentColor"/>
</svg>
