    <svg   fill="none" viewBox="0 0 24 24">
      <path
        fill-rule="evenodd"
        clip-rule="evenodd"
        d="M1.999 6.503a4.504 4.504 0 0 1 4.503-4.505h4.835a4.505 4.505 0 0 1 4.504 4.505v.925a.85.85 0 0 1-1.7 0v-.925a2.805 2.805 0 0 0-2.804-2.805H6.502A2.804 2.804 0 0 0 3.7 6.503V17.54a2.804 2.804 0 0 0 2.803 2.804h4.845a2.794 2.794 0 0 0 2.794-2.793v-.935a.85.85 0 1 1 1.7 0v.935a4.494 4.494 0 0 1-4.494 4.493H6.502A4.504 4.504 0 0 1 2 17.54V6.503Z"
        fill="currentColor"
      />
      <path
        fill-rule="evenodd"
        clip-rule="evenodd"
        d="M7.937 12.021c0-.47.38-.85.85-.85h11.94a.85.85 0 1 1 0 1.7H8.788a.85.85 0 0 1-.85-.85Z"
        fill="currentColor"
      />
      <path
        fill-rule="evenodd"
        clip-rule="evenodd"
        d="M17.598 8.53a.85.85 0 0 1 1.202-.002l2.903 2.89a.85.85 0 0 1 0 1.205L18.8 15.515a.85.85 0 1 1-1.2-1.205l2.299-2.289L17.6 9.733a.85.85 0 0 1-.002-1.202Z"
        fill="currentColor"
      />
    </svg>
