<svg width="24" height="24" viewBox="0 0 24 24" fill="none" >
    <path fill-rule="evenodd" clip-rule="evenodd" d="M6.85269 7.69953C5.11299 7.69953 3.70269 9.10983 3.70269 10.8495L3.70269 11.999C3.70269 12.4685 3.32213 12.849 2.85268 12.849C2.38324 12.849 2.00269 12.4685 2.00269 11.999L2.00269 10.8495C2.00269 8.17095 4.17411 5.99953 6.85269 5.99953L17.2266 5.99953C17.696 5.99953 18.0766 6.38009 18.0766 6.84953C18.0766 7.31897 17.696 7.69953 17.2266 7.69953H6.85269Z" fill="currentColor"/>
    <path fill-rule="evenodd" clip-rule="evenodd" d="M17.1435 15.2953C18.8832 15.2953 20.2935 13.885 20.2935 12.1453V10.9958C20.2935 10.5263 20.674 10.1458 21.1435 10.1458C21.6129 10.1458 21.9935 10.5263 21.9935 10.9958L21.9935 12.1453C21.9935 14.8239 19.8221 16.9953 17.1435 16.9953H6.79366C6.32422 16.9953 5.94366 16.6147 5.94366 16.1453C5.94366 15.6758 6.32422 15.2953 6.79366 15.2953L17.1435 15.2953Z" fill="currentColor"/>
    <path d="M15.545 5.0586C15.545 4.374 16.308 3.96566 16.8776 4.34541L19.6181 6.1724C20.127 6.51167 20.127 7.25949 19.6181 7.59877L16.8776 9.42575C16.308 9.8055 15.545 9.39716 15.545 8.71257V5.0586Z" fill="currentColor"/>
    <path d="M7.45458 17.9414C7.45458 18.626 6.6916 19.0344 6.12198 18.6546L3.3815 16.8276C2.87259 16.4884 2.87259 15.7405 3.3815 15.4013L6.12198 13.5743C6.6916 13.1945 7.45458 13.6029 7.45458 14.2875V17.9414Z" fill="currentColor"/>
</svg>
