<svg viewBox="0 0 24 24" fill="none" xmlns="http://www.w3.org/2000/svg">
<path fill-rule="evenodd" clip-rule="evenodd" d="M11.524 2.99994C6.82383 2.99994 3 6.813 3 11.4999C3 16.1868 6.82383 19.9999 11.524 19.9999C13.246 19.9999 14.9063 19.4887 16.3254 18.5215L16.3501 18.5047L15.2017 17.1734L15.1822 17.186C14.0897 17.8868 12.8247 18.2572 11.524 18.2572C7.78748 18.2572 4.74763 15.2259 4.74763 11.4999C4.74763 7.77388 7.78748 4.74259 11.524 4.74259C15.2605 4.74259 18.3004 7.77388 18.3004 11.4999C18.3004 11.9827 18.2467 12.4716 18.1409 12.9525C17.9265 13.8294 17.3109 14.0981 16.8483 14.0625C16.3834 14.0251 15.8392 13.6945 15.8356 12.8859V11.4999C15.8356 9.12916 13.9014 7.20047 11.524 7.20047C9.14659 7.20047 7.2124 9.12916 7.2124 11.4999C7.2124 13.8707 9.14659 15.7994 11.524 15.7994C12.6788 15.7994 13.7621 15.349 14.5787 14.5302C15.0535 15.267 15.8277 15.7291 16.7083 15.7996C16.7838 15.8056 16.861 15.8087 16.9376 15.8087C17.5577 15.8087 18.1721 15.6021 18.6676 15.2269C19.1787 14.8401 19.5601 14.2805 19.7707 13.6087C19.8048 13.5001 19.8664 13.2514 19.8667 13.2498L19.8685 13.2409C19.9927 12.7014 20.0481 12.1639 20.0481 11.4999C20.0481 6.813 16.2242 2.99994 11.524 2.99994ZM14.088 11.4999C14.088 12.9097 12.9378 14.0567 11.524 14.0567C10.1102 14.0567 8.96003 12.9097 8.96003 11.4999C8.96003 10.0901 10.1102 8.94318 11.524 8.94318C12.9378 8.94318 14.088 10.0901 14.088 11.4999Z" fill="currentColor"/>
</svg>
