<svg  viewBox="0 0 24 24" fill="none" xmlns="http://www.w3.org/2000/svg">
<path d="M12 3C14.3869 3 16.6761 3.94821 18.364 5.63604C20.0518 7.32387 21 9.61305 21 12C21 14.5155 19.299 16.5 17.25 16.5C16.122 16.5 15.324 15.9675 14.835 15.0225C14.184 15.9225 13.209 16.5 12 16.5C9.705 16.5 8.25 14.415 8.25 12C8.25 9.585 9.705 7.5 12 7.5C12.888 7.5 13.65 7.812 14.25 8.3355V8.25C14.2497 8.06258 14.3195 7.88182 14.4458 7.74333C14.572 7.60483 14.7456 7.51862 14.9322 7.50169C15.1189 7.48475 15.3051 7.53832 15.4542 7.65183C15.6034 7.76534 15.7046 7.93058 15.738 8.115L15.75 8.25V12C15.75 14.0445 16.2795 15 17.25 15C18.4155 15 19.5 13.734 19.5 12C19.4996 10.4379 19.0116 8.91489 18.1038 7.64358C17.1961 6.37227 15.9141 5.41611 14.4368 4.90858C12.9594 4.40105 11.3605 4.36748 9.8631 4.81255C8.36574 5.25763 7.04473 6.15913 6.08446 7.39122C5.12419 8.62331 4.5726 10.1245 4.50668 11.6852C4.44076 13.2459 4.86381 14.7883 5.71677 16.0969C6.56973 17.4056 7.81003 18.4153 9.26452 18.985C10.719 19.5548 12.3151 19.6562 13.83 19.275L14.271 19.1505L14.5785 19.0455C14.7653 18.9771 14.9716 18.9856 15.152 19.0693C15.3325 19.153 15.4723 19.305 15.5408 19.4918C15.6092 19.6785 15.6006 19.8848 15.5169 20.0653C15.4332 20.2458 15.2813 20.3856 15.0945 20.454C14.103 20.8162 13.0555 21.001 12 21C9.61305 21 7.32387 20.0518 5.63604 18.364C3.94821 16.6761 3 14.3869 3 12C3 9.61305 3.94821 7.32387 5.63604 5.63604C7.32387 3.94821 9.61305 3 12 3ZM12 9C10.674 9 9.75 10.3215 9.75 12C9.75 13.6785 10.674 15 12 15C13.326 15 14.25 13.6785 14.25 12C14.25 10.3215 13.326 9 12 9Z" fill="currentColor"/>
</svg>
