    <svg  fill="none" viewBox="0 0 24 24">
      <path
        fill-rule="evenodd"
        clip-rule="evenodd"
        d="M18.795 9.3h-2.889l5.1-5.099L19.802 3 14.7 8.103V5.204a.85.85 0 00-1.7 0V9.15A1.85 1.85 0 0014.85 11h3.946a.85.85 0 000-1.7zm0 5.41h-2.883l5.092 5.092-1.202 1.202-5.103-5.103v2.904a.85.85 0 11-1.7 0V14.86a1.85 1.85 0 011.85-1.85h3.946a.85.85 0 010 1.7zm-9.503 1.2l-5.1 5.099-1.201-1.202 5.097-5.097H5.196a.85.85 0 010-1.7h3.946a1.85 1.85 0 011.85 1.85v3.945a.85.85 0 11-1.7 0V15.91zM8.082 9.3L2.986 4.204l1.202-1.202 5.104 5.104V5.204a.85.85 0 011.7 0V9.15A1.85 1.85 0 019.142 11H5.196a.85.85 0 010-1.7h2.886z"
        fill="currentColor"
      />
    </svg>
