<svg  viewBox="0 0 24 24" fill="none">
      <path
        fill-rule="evenodd"
        clip-rule="evenodd"
        d="M7.973 15.786c0-.47.38-.85.85-.85h6.394a.85.85 0 010 1.7H8.823a.85.85 0 01-.85-.85zM7.973 12.078c0-.47.38-.85.85-.85h6.394a.85.85 0 010 1.7H8.823a.85.85 0 01-.85-.85zM7.973 8.38c0-.47.381-.85.85-.85h2.44a.85.85 0 010 1.7h-2.44a.85.85 0 01-.85-.85z"
        fill="currentColor"
      />
      <path
        fill-rule="evenodd"
        clip-rule="evenodd"
        d="M15.388 3.004c1.424 0 2.656.47 3.53 1.374.873.9 1.311 2.147 1.311 3.556v8.144c0 1.402-.435 2.644-1.3 3.542-.868.902-2.09 1.376-3.503 1.385h-.005l-6.81.003c-1.423 0-2.655-.471-3.53-1.374-.872-.9-1.31-2.148-1.31-3.556V7.934c0-1.402.435-2.644 1.3-3.542.867-.902 2.09-1.376 3.502-1.385h.005l6.81-.003zm0 1.7l-6.807.003c-1.03.007-1.786.344-2.286.864-.503.522-.824 1.311-.824 2.363v8.144c0 1.057.324 1.85.83 2.373.505.52 1.268.857 2.31.857l6.804-.003h.003c1.03-.007 1.786-.344 2.286-.864.504-.523.825-1.312.825-2.363V7.934c0-1.057-.324-1.85-.831-2.373-.504-.52-1.268-.857-2.31-.857z"
        fill="currentColor"
      />
    </svg>
