<svg viewBox="0 0 24 24" fill="none" xmlns="http://www.w3.org/2000/svg">
<path fill-rule="evenodd" clip-rule="evenodd" d="M5.89188 8.5346C7.94074 7.35427 9.98959 6.17575 12.0394 4.99994C12.6883 5.37261 13.3375 5.74492 13.9866 6.11725L13.9893 6.11876L13.9902 6.1193L13.9908 6.11965L13.991 6.11978L13.9911 6.11981C15.3902 6.92224 16.7894 7.72471 18.1859 8.53098C18.1833 10.8907 18.1824 13.2505 18.1868 15.6102C16.9085 16.3497 15.6267 17.082 14.3449 17.8143C13.5758 18.2537 12.8068 18.6931 12.0384 19.1341C11.2326 18.669 10.4251 18.2068 9.61761 17.7446L9.61734 17.7444L9.61707 17.7443L9.61603 17.7437C8.36557 17.0279 7.11516 16.3122 5.87109 15.5858L6.39908 15.2849C7.03989 14.9196 7.68063 14.5544 8.32303 14.1913C8.74689 14.4357 9.17118 14.6796 9.59549 14.9235L9.59569 14.9236C10.4108 15.3922 11.226 15.8608 12.0384 16.3333C12.5839 16.0129 13.1326 15.6981 13.6812 15.3833L13.6815 15.3831L13.6815 15.3831L13.6815 15.3831C14.3727 14.9865 15.0638 14.5899 15.7485 14.1823C15.7421 13.6244 15.7429 13.0669 15.7437 12.5093V12.5092V12.5092V12.509C15.7443 12.1227 15.7449 11.7363 15.743 11.3499C14.5094 12.0656 13.2739 12.7796 12.0384 13.4926C10.9491 12.8728 9.8616 12.2497 8.77396 11.6265L8.77378 11.6264L8.7737 11.6264L8.77363 11.6264C7.81387 11.0765 6.85402 10.5265 5.89278 9.97874L5.8929 9.61754C5.89307 9.25633 5.89324 8.89521 5.89188 8.5346ZM10.9969 10.0906L10.9971 10.0907L10.9971 10.0907L10.9971 10.0907L10.9972 10.0907C11.3446 10.2903 11.6921 10.4899 12.0384 10.691L12.7869 10.2613C13.3768 9.92258 13.9668 9.58378 14.5582 9.24587C14.0794 8.97383 13.6018 8.69944 13.1242 8.42504L13.1238 8.42483L13.1234 8.42456C12.7619 8.21689 12.4005 8.00921 12.0384 7.80254C11.7042 7.99407 11.3705 8.18675 11.0368 8.37943L11.0365 8.37963L11.0363 8.37972C10.5356 8.66884 10.0349 8.95795 9.53228 9.24316C10.0184 9.52851 10.5077 9.80953 10.9969 10.0906Z" fill="currentColor"/>
</svg>
