<svg viewBox="0 0 24 24">
  <path
    d="M11.988 12.307c-2.446 0-4.479-2.111-4.479-4.61C7.509 5.112 9.542 3 11.989 3c2.53 0 4.479 2.111 4.479 4.697a4.721 4.721 0 01-1.314 3.266 4.367 4.367 0 01-3.151 1.345l-.015-.001zm0-6.592c-1.035 0-1.823.905-1.823 1.983 0 1.076.788 1.895 1.824 1.895 1.078 0 1.824-.819 1.824-1.895.001-1.08-.746-1.983-1.825-1.983zm1.784 10.428l2.53 2.542c.498.56.498 1.378 0 1.896-.538.559-1.368.559-1.783 0l-2.53-2.586-2.447 2.586a1.289 1.289 0 01-.955.387c-.29 0-.622-.13-.913-.387-.498-.518-.498-1.337 0-1.896l2.572-2.543c-.929-.286-1.82-.69-2.652-1.205-.623-.345-.747-1.206-.415-1.853.415-.646 1.161-.818 1.825-.387.9.57 1.933.872 2.986.872a5.57 5.57 0 002.986-.872c.664-.431 1.451-.26 1.824.387.374.647.207 1.507-.374 1.853-.787.517-1.7.905-2.653 1.207l-.001-.001z"
    fill="currentColor"
  />
</svg>
