<svg   viewBox="0 0 24 24">
      <path
        fill-rule="evenodd"
        clip-rule="evenodd"
        d="M5.163 8.364V4H4.41l-1.084.697v.724l1.02-.652h.026v3.595h.79Zm-2.137 5.852v.57h2.991v-.66h-1.9v-.03l.752-.765c.282-.272.502-.505.658-.696.158-.192.268-.367.33-.525.063-.157.094-.318.094-.481a1.17 1.17 0 0 0-.185-.652 1.258 1.258 0 0 0-.516-.45 1.723 1.723 0 0 0-.771-.164c-.289 0-.544.056-.767.169a1.28 1.28 0 0 0-.522.475c-.127.204-.19.445-.19.722h.752a.8.8 0 0 1 .087-.386.615.615 0 0 1 .252-.249.767.767 0 0 1 .377-.09c.14 0 .264.028.373.082.11.054.195.13.258.23a.644.644 0 0 1 .093.353c0 .121-.024.235-.072.341-.048.107-.12.217-.217.33a7.147 7.147 0 0 1-.363.39l-1.514 1.486Zm1.574 6.63c-.307 0-.58-.052-.818-.157a1.368 1.368 0 0 1-.563-.44A1.138 1.138 0 0 1 3 19.6h.801a.53.53 0 0 0 .117.31.702.702 0 0 0 .284.202c.118.048.25.073.396.073.156 0 .295-.027.415-.081a.683.683 0 0 0 .284-.23.567.567 0 0 0 .1-.34.588.588 0 0 0-.102-.349.684.684 0 0 0-.303-.236 1.183 1.183 0 0 0-.473-.085h-.385v-.61h.385a.942.942 0 0 0 .399-.079.645.645 0 0 0 .27-.221.57.57 0 0 0 .096-.335.582.582 0 0 0-.083-.321.562.562 0 0 0-.237-.216.778.778 0 0 0-.355-.076.938.938 0 0 0-.371.072.674.674 0 0 0-.275.207.524.524 0 0 0-.11.315h-.761c.005-.244.076-.459.21-.643a1.36 1.36 0 0 1 .546-.435 1.8 1.8 0 0 1 .765-.158c.291 0 .544.055.758.164.216.108.383.254.501.437a1.1 1.1 0 0 1 .177.607.893.893 0 0 1-.217.618 1.02 1.02 0 0 1-.571.326v.034c.306.043.542.157.705.341a.977.977 0 0 1 .245.684c0 .244-.07.463-.209.656a1.385 1.385 0 0 1-.57.452c-.242.11-.52.164-.832.164ZM9.12 5.363a1.143 1.143 0 0 0 0 2.287h11.165a1.143 1.143 0 1 0 0-2.287H9.12Zm-1.143 7.144c0-.632.512-1.144 1.143-1.144h11.165a1.143 1.143 0 1 1 0 2.287H9.12a1.143 1.143 0 0 1-1.143-1.143Zm1.166 4.856a1.143 1.143 0 1 0 0 2.287h11.165a1.143 1.143 0 0 0 0-2.287H9.143Z"
        fill="currentColor"
        fill-opacity=".8"
      />
    </svg>
