<svg viewBox="0 0 24 24" fill="none">
    <path d="M10.25 1.5C9.1017 1.5 8.15285 2.38331 8.02539 3.5H6.25C5.01625 3.5 4 4.51625 4 5.75V19.25C4 20.4838 5.01625 21.5 6.25 21.5H17.75C18.9837 21.5 20 20.4838 20 19.25V5.75C20 4.51625 18.9837 3.5 17.75 3.5H15.9746C15.8471 2.38331 14.8983 1.5 13.75 1.5H10.25ZM10.25 3H13.75C14.1732 3 14.5 3.32675 14.5 3.75C14.5 4.17325 14.1732 4.5 13.75 4.5H10.25C9.82675 4.5 9.5 4.17325 9.5 3.75C9.5 3.32675 9.82675 3 10.25 3ZM6.25 5H8.38477C8.79062 5.60095 9.47736 6 10.25 6H13.75C14.5226 6 15.2094 5.60095 15.6152 5H17.75C18.1732 5 18.5 5.32675 18.5 5.75V19.25C18.5 19.6733 18.1732 20 17.75 20H6.25C5.82675 20 5.5 19.6733 5.5 19.25V5.75C5.5 5.32675 5.82675 5 6.25 5ZM12 8C11.2292 8 10.5561 8.31607 10.127 8.79883C9.69783 9.28159 9.5 9.89583 9.5 10.5C9.5 11.1042 9.69783 11.7184 10.127 12.2012C10.5561 12.6839 11.2292 13 12 13C12.7708 13 13.4439 12.6839 13.873 12.2012C14.3022 11.7184 14.5 11.1042 14.5 10.5C14.5 9.89583 14.3022 9.28159 13.873 8.79883C13.4439 8.31607 12.7708 8 12 8ZM12 9.5C12.3958 9.5 12.5977 9.62143 12.752 9.79492C12.9062 9.96841 13 10.2292 13 10.5C13 10.7708 12.9062 11.0316 12.752 11.2051C12.5977 11.3786 12.3958 11.5 12 11.5C11.6042 11.5 11.4023 11.3786 11.248 11.2051C11.0938 11.0316 11 10.7708 11 10.5C11 10.2292 11.0938 9.96841 11.248 9.79492C11.4023 9.62143 11.6042 9.5 12 9.5ZM9.25 14C8.5682 14 8 14.5682 8 15.25V16C8 16.8596 8.61834 17.5053 9.34668 17.8975C10.075 18.2896 10.9934 18.5 12 18.5C13.0066 18.5 13.925 18.2896 14.6533 17.8975C15.3817 17.5053 16 16.8596 16 16V15.25C16 14.5682 15.4318 14 14.75 14H9.25ZM9.5 15.5H14.5V16C14.5 16.1069 14.3903 16.336 13.9424 16.5771C13.4945 16.8183 12.7884 17 12 17C11.2116 17 10.5055 16.8183 10.0576 16.5771C9.60971 16.336 9.5 16.1069 9.5 16V15.5Z" fill="currentColor"/>
</svg>
