<svg   viewBox="0 0 24 25">
      <path
        fill-rule="evenodd"
        clip-rule="evenodd"
        d="M4.393 5.045C5.32 4.05 6.638 3.498 8.18 3.498h7.64c1.545 0 2.863.551 3.79 1.547.92.989 1.392 2.347 1.392 3.856V16.1c0 1.51-.472 2.867-1.392 3.856-.927.996-2.245 1.547-3.79 1.547H8.18c-1.546 0-2.863-.552-3.79-1.547-.92-.989-1.392-2.347-1.392-3.856V8.9c0-1.51.474-2.868 1.395-3.856Zm1.244 1.159c-.58.62-.94 1.54-.94 2.697V16.1c0 1.158.36 2.077.937 2.697.572.614 1.42 1.006 2.546 1.006h7.64c1.125 0 1.974-.392 2.545-1.006.578-.62.937-1.539.937-2.697V8.9c0-1.158-.359-2.077-.936-2.698-.572-.614-1.42-1.005-2.546-1.005H8.18c-1.122 0-1.97.391-2.543 1.006Z"
        fill="currentColor"
      />
      <path
        fill-rule="evenodd"
        clip-rule="evenodd"
        d="M9.242 8.899a.781.781 0 1 0 .003 1.562.781.781 0 0 0-.003-1.562Zm-2.48.78a2.481 2.481 0 1 1 4.963.001 2.481 2.481 0 0 1-4.963 0ZM15.775 11.782c.734-.2 1.472-.092 2.166.325.58.35 1.076.78 1.517 1.195.169.159.323.31.473.454.262.255.507.492.779.728a.85.85 0 0 1-1.116 1.283c-.303-.264-.61-.56-.895-.837a39.18 39.18 0 0 0-.406-.39c-.412-.387-.803-.72-1.229-.977-.315-.19-.578-.212-.843-.14-.3.082-.674.308-1.12.753-.316.316-.463.612-.652.993-.04.079-.08.161-.125.248-.267.52-.643 1.113-1.518 1.451-.892.345-1.807.011-2.388-.265-.315-.15-.603-.32-.825-.452a5.5 5.5 0 0 0-.422-.242c-.26-.108-.46-.075-.726.105-.318.214-.622.573-.979 1.015a247.2 247.2 0 0 1-2.081 2.535.85.85 0 0 1-1.309-1.085c.696-.84 1.386-1.675 2.067-2.518l.008-.01c.327-.405.782-.97 1.344-1.347.618-.416 1.422-.644 2.333-.262a5.056 5.056 0 0 1 .635.349c.22.13.448.264.686.377.525.25.86.286 1.045.214.305-.118.43-.274.617-.641l.09-.182c.191-.39.469-.955.998-1.485.554-.554 1.178-1.002 1.876-1.192Z"
        fill="currentColor"
      />
    </svg>
