<svg  viewBox="0 0 24 24" >
    <path fill-rule="evenodd" clip-rule="evenodd" d="M3 12.1499C3 11.6805 3.38056 11.2999 3.85 11.2999L20.15 11.2999C20.6194 11.2999 21 11.6805 21 12.1499C21 12.6194 20.6194 12.9999 20.15 12.9999L3.85 12.9999C3.38056 12.9999 3 12.6194 3 12.1499Z" fill="currentColor"/>
    <path fill-rule="evenodd" clip-rule="evenodd" d="M3 19.1499C3 18.6805 3.38056 18.2999 3.85 18.2999L20.15 18.2999C20.6194 18.2999 21 18.6805 21 19.1499C21 19.6194 20.6194 19.9999 20.15 19.9999H3.85C3.38056 19.9999 3 19.6194 3 19.1499Z" fill="currentColor"/>
    <path fill-rule="evenodd" clip-rule="evenodd" d="M11 4.99991C11 4.53047 11.3806 4.14991 11.85 4.14991L20.15 4.14991C20.6194 4.14991 21 4.53047 21 4.99991C21 5.46935 20.6194 5.84991 20.15 5.84991L11.85 5.84991C11.3806 5.84991 11 5.46935 11 4.99991Z" fill="currentColor"/>
    <path fill-rule="evenodd" clip-rule="evenodd" d="M7.60269 5.69046C6.95243 6.39157 5.18272 7.57792 4.27735 7.9588C4.13284 8.01946 3.76445 8.1479 3.68506 8.14969C3.51648 8.15504 3.35413 8.06049 3.27564 7.90885C3.24531 7.84998 3.15611 7.46553 3.12757 7.29427C3.04283 6.77334 2.99912 5.9643 3.00001 5.15081C2.99912 4.29717 3.0464 3.44978 3.14095 2.93421C3.16592 2.79506 3.23907 2.47483 3.26048 2.42309C3.30061 2.32676 3.37376 2.25094 3.46207 2.20366C3.52986 2.16709 3.60746 2.14747 3.68506 2.15014C3.76445 2.15193 4.08735 2.26521 4.19796 2.30892C5.07033 2.64788 6.91586 3.87704 7.59377 4.59956C7.65443 4.66467 7.82123 4.8395 7.84889 4.87518C7.91222 4.95546 7.94344 5.05269 7.94344 5.15081C7.94344 5.24179 7.91578 5.33456 7.8587 5.41216C7.82926 5.4523 7.65889 5.6307 7.60269 5.69046Z" fill="currentColor"/>
</svg>
