<svg viewBox="0 0 24 24" fill="none" xmlns="http://www.w3.org/2000/svg">
<path d="M12 0.480469L11.6025 1.26422L10.7025 1.39172L11.355 2.01234L11.2031 2.88047L11.8443 2.55047L9.61121 7.38984L9.02434 7.09547L8.15996 7.96172V14.8805H6.71996V16.0242L6.23246 16.268L5.27996 15.8273L4.31996 16.2717L3.35996 15.8273L2.36621 16.2886L0.959961 15.8573V23.0405H23.04V15.8573L21.6356 16.2886L20.64 15.8273L19.68 16.2717L18.72 15.8273L17.7675 16.268L17.28 16.0242V14.8805H15.84V7.96172L14.9756 7.09547L14.6643 7.25109L14.3887 7.38984L12.1556 2.55047L12.7968 2.88047L12.645 2.01234L13.2975 1.39172L12.3975 1.26422L12 0.480469ZM12 4.50609L13.2956 7.31109L12.96 7.14422L12 7.62422L11.04 7.14422L10.7043 7.31109L12 4.50609ZM11.04 8.21672L12 8.69672L12.96 8.21672L13.92 8.69672L14.7843 8.26547L14.88 8.35922V14.8805H9.11996V8.35922L9.21559 8.26547L10.08 8.69672L11.04 8.21672ZM12 9.12047C10.68 9.12047 9.59996 10.2005 9.59996 11.5205C9.59996 12.8405 10.68 13.9205 12 13.9205C13.32 13.9205 14.4 12.8405 14.4 11.5205C14.4 10.2005 13.32 9.12047 12 9.12047ZM12 10.0805C12.8006 10.0805 13.44 10.7198 13.44 11.5205C13.44 12.3211 12.8006 12.9605 12 12.9605C11.1993 12.9605 10.56 12.3211 10.56 11.5205C10.56 10.7198 11.1993 10.0805 12 10.0805ZM11.52 10.5605V11.7192L12.1406 12.3398L12.8193 11.6611L12.48 11.3217V10.5605H11.52ZM7.67996 15.8405H16.32V22.0805H14.4V19.6805C14.4 18.3605 13.32 17.2805 12 17.2805C10.68 17.2805 9.59996 18.3605 9.59996 19.6805V22.0805H7.67996V15.8405ZM3.35996 16.8848L4.31996 17.3292L5.27996 16.8848L6.24746 17.333L6.71996 17.0967V22.0805H1.91996V17.1548L2.43371 17.3123L2.60246 17.2355L3.35996 16.8848ZM18.72 16.8848L19.68 17.3292L20.64 16.8848L21.5643 17.3123L21.7406 17.2598L22.08 17.1548V22.0805H17.28V17.0967L17.7525 17.333L18.72 16.8848ZM12 18.2405C12.8006 18.2405 13.44 18.8798 13.44 19.6805V22.0805H10.56V19.6805C10.56 18.8798 11.1993 18.2405 12 18.2405Z" fill="currentColor" />
</svg>
