<svg   viewBox="0 0 20 21">
      <path
        fill-rule="evenodd"
        clip-rule="evenodd"
        d="M5.81 14.488c0-.39.318-.708.71-.708h6.99a.708.708 0 110 1.417H6.52a.708.708 0 01-.71-.709z"
        fill="currentColor"
      />
      <path
        fill-rule="evenodd"
        clip-rule="evenodd"
        d="M13.656 2.17c1.187 0 2.213.392 2.943 1.144.726.75 1.092 1.79 1.092 2.963v8.452c0 1.168-.363 2.203-1.084 2.951-.723.752-1.741 1.147-2.919 1.154h-.004l-7.341.002c-1.187 0-2.213-.392-2.943-1.144-.726-.75-1.091-1.79-1.091-2.963V6.277c0-1.168.362-2.203 1.083-2.95.723-.752 1.741-1.147 2.919-1.154h.004l7.341-.003v.708-.708zm0 1.416L6.32 3.59h-.001c-.859.006-1.49.287-1.906.72-.419.435-.687 1.092-.687 1.968v8.452c0 .88.27 1.54.693 1.977.42.433 1.056.714 1.924.714l7.337-.003h.002c.859-.005 1.489-.287 1.906-.72.42-.435.687-1.093.687-1.968V6.277c0-.88-.27-1.54-.693-1.977-.42-.433-1.056-.714-1.925-.714z"
        fill="currentColor"
      />
      <path
        fill-rule="evenodd"
        clip-rule="evenodd"
        d="M12.51 6.863H7.493a.25.25 0 00-.25.25v2.842c0 .138.112.25.25.25h5.017a.25.25 0 00.25-.25V7.113a.25.25 0 00-.25-.25zM7.493 5.446c-.92 0-1.666.747-1.666 1.667v2.842c0 .92.746 1.666 1.666 1.666h5.017c.92 0 1.667-.746 1.667-1.666V7.113c0-.92-.747-1.667-1.667-1.667H7.493z"
        fill="currentColor"
      />
    </svg>
