<svg width="14" height="14" fill="none" xmlns="http://www.w3.org/2000/svg"><path fill-rule="evenodd" clip-rule="evenodd" d="M7.397.333a1.78 1.78 0 0 1 1.78 1.819.595.595 0 0 0 .084.289l.002.002a.641.641 0 0 0 .879.229l.006-.004a1.779 1.779 0 0 1 2.428.656l.395.686c.012.02.022.04.03.062a1.78 1.78 0 0 1-.677 2.366l-.004.002a.623.623 0 0 0-.231.232l-.002.003a.642.642 0 0 0 .234.88 1.775 1.775 0 0 1 .649 2.432l-.004.006-.416.694a1.777 1.777 0 0 1-2.426.645.672.672 0 0 0-.308-.088.642.642 0 0 0-.638.645v.005a1.777 1.777 0 0 1-1.781 1.772h-.796a1.777 1.777 0 0 1-1.78-1.777.595.595 0 0 0-.084-.295l-.005-.008a.636.636 0 0 0-.872-.233l-.009.005a1.78 1.78 0 0 1-2.425-.685l-.398-.687v-.001a1.77 1.77 0 0 1-.001-1.775c.15-.261.37-.488.649-.649a.654.654 0 0 0 .286-.343.646.646 0 0 0-.286-.779h-.002a1.779 1.779 0 0 1-.648-2.428l.008-.013.42-.692a1.779 1.779 0 0 1 2.425-.65l.008.005a.595.595 0 0 0 .615-.003.653.653 0 0 0 .323-.519v-.05l.002-.031A1.776 1.776 0 0 1 6.6.333h.796Zm-1.439 1.8v.05a1.788 1.788 0 0 1-.26.843 1.787 1.787 0 0 1-1.52.852h-.005a1.728 1.728 0 0 1-.86-.24.645.645 0 0 0-.88.24l-.007.012-.42.69a.645.645 0 0 0 .238.878 1.78 1.78 0 0 1 0 3.084.636.636 0 0 0-.32.59.637.637 0 0 0 .084.286l.4.69.006.01a.646.646 0 0 0 .88.253 1.77 1.77 0 0 1 2.42.648c.154.261.236.558.24.86v.007a.644.644 0 0 0 .647.647h.796a.644.644 0 0 0 .647-.642 1.775 1.775 0 0 1 1.784-1.78h.012c.298.008.589.09.847.237l.002.001a.644.644 0 0 0 .883-.236l.004-.006.416-.694a.642.642 0 0 0-.236-.876 1.775 1.775 0 0 1-.002-3.079.647.647 0 0 0 .234-.878.575.575 0 0 1-.025-.05l-.369-.64a.645.645 0 0 0-.88-.24 1.775 1.775 0 0 1-2.428-.632 1.729 1.729 0 0 1-.241-.885.647.647 0 0 0-.648-.666h-.796a.642.642 0 0 0-.641.623l-.001.035v.007Z" fill="currentColor"/><path fill-rule="evenodd" clip-rule="evenodd" d="M7.002 5.894a1.106 1.106 0 1 0 0 2.212 1.106 1.106 0 0 0 0-2.212ZM4.762 7a2.24 2.24 0 1 1 4.48 0 2.24 2.24 0 0 1-4.48 0Z" fill="currentColor"/></svg>