  <svg  viewBox="0 0 24 25">
      <g clip-path="url(#a)" fill="currentColor">
        <path
          d="M9.39 5.651a5.12 5.12 0 0 0-8.28 2.87 5.17 5.17 0 0 0 1 4.32 5.09 5.09 0 0 0 2.83 1.76 13.258 13.258 0 0 1-1.93 3.39l-.35.44a.85.85 0 0 0 .73 1.38h.15c7.82-1.44 7.72-10.11 7.71-10.18a5.071 5.071 0 0 0-1.86-3.98Zm-3.84 11.65a15 15 0 0 0 1.38-3.18.87.87 0 0 0-.439-1.002.83.83 0 0 0-.38-.088 3.42 3.42 0 0 1-.72-6.75 3.82 3.82 0 0 1 .73-.06 3.31 3.31 0 0 1 2.14.77 3.38 3.38 0 0 1 1.27 2.66c0 .24.04 5.44-3.98 7.65ZM20.73 5.65a5.11 5.11 0 1 0-4.37 9 13.262 13.262 0 0 1-1.97 3.34l-.35.44a.86.86 0 0 0-.06 1 .83.83 0 0 0 .73.41h.15c7.82-1.44 7.72-10.11 7.72-10.18a5.08 5.08 0 0 0-1.85-4.01ZM16.94 17.3a15.006 15.006 0 0 0 1.38-3.18.84.84 0 0 0-.434-1.003.85.85 0 0 0-.386-.087 3.42 3.42 0 0 1-.74-6.75 3.82 3.82 0 0 1 .75-.08 3.36 3.36 0 0 1 2.15.77 3.4 3.4 0 0 1 1.26 2.66c0 .26.04 5.46-3.98 7.67Z"
        />
      </g>
      <defs>
        <clipPath id="a">
          <path fill="#fff" transform="translate(1 4.5)" d="M0 0h21.62v15.3H0z" />
        </clipPath>
      </defs>
    </svg>
