  <svg   viewBox="0 0 24 24">
      <path
        fill-rule="evenodd"
        clip-rule="evenodd"
        d="M11.004 3.893c3.844-.472 7.38 1.72 8.719 5.09a.85.85 0 0 0 1.58-.626C19.68 4.269 15.41 1.64 10.797 2.207c-5.466.67-9.384 5.582-8.72 10.994.665 5.412 5.655 9.23 11.12 8.558a10.043 10.043 0 0 0 6.258-3.245.85.85 0 0 0-1.263-1.138 8.343 8.343 0 0 1-5.202 2.696c-4.559.56-8.678-2.623-9.225-7.079-.547-4.454 2.68-8.54 7.239-9.1Z"
        fill="currentColor"
      />
      <path
        fill-rule="evenodd"
        clip-rule="evenodd"
        d="M21.883 9.83a.85.85 0 0 1-.601.248h-5.946a.85.85 0 1 1 0-1.7h5.096V3.282a.85.85 0 0 1 1.7 0v5.946a.85.85 0 0 1-.249.601Z"
        fill="currentColor"
      />
    </svg>
