<svg width="21" height="20" viewBox="0 0 21 20" fill="none" xmlns="http://www.w3.org/2000/svg">
    <path fill-rule="evenodd" clip-rule="evenodd" d="M9.00369 1.8928C12.8478 1.42081 16.3843 3.61236 17.7227 6.98322C17.8959 7.41953 18.39 7.6328 18.8263 7.45957C19.2626 7.28634 19.4759 6.7922 19.3027 6.35589C17.6798 2.26852 13.4104 -0.361039 8.79651 0.205475C3.33078 0.876582 -0.587135 5.78799 0.0773795 11.2C0.741894 16.6121 5.7316 20.4297 11.1973 19.7586C13.7086 19.4503 15.8921 18.2474 17.4543 16.5136C17.7686 16.1648 17.7406 15.6274 17.3918 15.3131C17.043 14.9989 16.5056 15.0269 16.1914 15.3757C14.895 16.8145 13.0824 17.8144 10.9902 18.0713C6.43095 18.6311 2.31171 15.4478 1.76471 10.9928C1.21771 6.53785 4.44448 2.4526 9.00369 1.8928Z" fill="#282828"/>
    <path fill-rule="evenodd" clip-rule="evenodd" d="M19.8827 7.82841C19.7233 7.98782 19.5071 8.07737 19.2817 8.07737L13.336 8.07736C12.8666 8.07736 12.486 7.6968 12.486 7.22736C12.486 6.75792 12.8666 6.37736 13.336 6.37736L18.4317 6.37737L18.4317 1.28174C18.4317 0.812302 18.8122 0.431743 19.2817 0.431742C19.7511 0.431741 20.1317 0.812298 20.1317 1.28174L20.1317 7.22737C20.1317 7.45281 20.0421 7.66901 19.8827 7.82841Z" fill="#282828"/>
</svg>
