<svg viewBox="0 0 24 24" fill="none" xmlns="http://www.w3.org/2000/svg">
<path fill-rule="evenodd" clip-rule="evenodd" d="M8.25131 12.8787H6.47015V16.8509H4.23438V6H8.26622C9.54806 6 10.5368 6.28568 11.2323 6.85705C11.9279 7.42841 12.2757 8.23577 12.2757 9.27913C12.2757 10.0194 12.1142 10.638 11.7913 11.1348C11.4733 11.6267 10.9889 12.0192 10.338 12.3123L12.6856 16.7466V16.8509H10.2859L8.25131 12.8787ZM18.67 16.0312C18.1384 16.6771 17.4031 17 16.464 17C15.5996 17 14.9388 16.7516 14.4817 16.2547C14.0295 15.7579 13.7985 15.03 13.7886 14.0711V8.78726H15.9424V13.9966C15.9424 14.8363 16.3249 15.2561 17.0901 15.2561C17.8204 15.2561 18.3222 15.0027 18.5955 14.4959V8.78726H20.7567V16.8509H18.7296L18.67 16.0312ZM6.47015 11.0677H8.27367C8.8351 11.0677 9.26983 10.9262 9.57787 10.643C9.88591 10.3548 10.0399 9.9598 10.0399 9.45799C10.0399 8.94625 9.89336 8.54381 9.60023 8.25068C9.31206 7.95754 8.86739 7.81098 8.26622 7.81098H6.47015V11.0677Z" fill="currentColor"/>
</svg>
