<svg viewBox="0 0 18 20" fill="none">
<path fill-rule="evenodd" clip-rule="evenodd" d="M5.25004 0.500075C5.15066 0.498669 5.05199 0.51703 4.95976 0.554091C4.86754 0.591151 4.7836 0.646172 4.71282 0.715955C4.64204 0.785738 4.58584 0.868893 4.54748 0.960586C4.50912 1.05228 4.48936 1.15068 4.48936 1.25007C4.48936 1.34947 4.50912 1.44787 4.54748 1.53956C4.58584 1.63126 4.64204 1.71441 4.71282 1.7842C4.7836 1.85398 4.86754 1.909 4.95976 1.94606C5.05199 1.98312 5.15066 2.00148 5.25004 2.00007H5.50004V7.89949C5.50004 8.35703 5.36007 8.80393 5.09965 9.17976L0.399459 15.9688V15.9698C-0.18371 16.8127 -0.125457 17.9802 0.588912 18.7677C1.05526 19.2822 1.70766 19.5001 2.32817 19.5001H15.6719C16.2924 19.5001 16.9448 19.2822 17.4112 18.7677C18.1255 17.9802 18.1838 16.8127 17.6006 15.9698V15.9688L12.9004 9.17976C12.64 8.80393 12.5 8.35703 12.5 7.89949V2.00007H12.75C12.8494 2.00148 12.9481 1.98312 13.0403 1.94606C13.1326 1.909 13.2165 1.85398 13.2873 1.7842C13.358 1.71441 13.4143 1.63126 13.4526 1.53956C13.491 1.44787 13.5107 1.34947 13.5107 1.25007C13.5107 1.15068 13.491 1.05228 13.4526 0.960586C13.4143 0.868893 13.358 0.785738 13.2873 0.715955C13.2165 0.646172 13.1326 0.591151 13.0403 0.554091C12.9481 0.51703 12.8494 0.498669 12.75 0.500075H11.75H6.25004H5.25004ZM7.00004 2.00007H11V6.00007H7.00004V2.00007ZM7.00004 7.50007H11V7.89949C11 8.66195 11.2325 9.40708 11.667 10.0343L16.3672 16.8233C16.5625 17.1063 16.5542 17.4805 16.3008 17.7598L16.2999 17.7608C16.1713 17.9028 15.9372 18.0001 15.6719 18.0001H2.32817C2.06294 18.0001 1.82886 17.9028 1.70024 17.7608L1.69926 17.7598C1.44587 17.4806 1.43761 17.1063 1.63286 16.8233V16.8223L6.33305 10.0343C6.76763 9.40708 7.00004 8.66195 7.00004 7.89949V7.50007Z" fill="currentColor" />
</svg>
