<svg   fill="none" xmlns="http://www.w3.org/2000/svg">
<path fill-rule="evenodd" clip-rule="evenodd" d="M9.068 3.097c-3.345 0-6.056 2.726-6.056 6.089 0 3.363 2.711 6.089 6.056 6.089 3.344 0 6.056-2.726 6.056-6.089 0-3.363-2.712-6.089-6.056-6.089ZM1.599 9.186c0-4.147 3.344-7.51 7.469-7.51s7.468 3.363 7.468 7.51-3.344 7.51-7.468 7.51c-4.125 0-7.469-3.363-7.469-7.51Z" fill="currentColor"/><path fill-rule="evenodd" clip-rule="evenodd" d="M13.982 14.03a.704.704 0 0 1 1-.001l3.076 3.101a.713.713 0 0 1 .002 1.005.704.704 0 0 1-1 .001l-3.076-3.101a.713.713 0 0 1-.002-1.005Z" fill="currentColor"/></svg>
