  <svg   viewBox="0 0 20 20">
      <path
        fill-rule="evenodd"
        clip-rule="evenodd"
        d="M10.595 0a2.671 2.671 0 012.672 2.727.893.893 0 00.125.434l.002.004a.954.954 0 00.588.445c.248.064.51.027.73-.102l.01-.006a2.668 2.668 0 013.642.985l.593 1.028c.017.03.032.06.046.093a2.67 2.67 0 01-1.016 3.549l-.007.003a.937.937 0 00-.347.347l-.003.006a.962.962 0 00.352 1.319 2.662 2.662 0 01.973 3.648l-.006.01-.625 1.04a2.666 2.666 0 01-1.714 1.257 2.664 2.664 0 01-1.923-.29c-.141-.08-.3-.125-.462-.131a.962.962 0 00-.958.967v.008a2.665 2.665 0 01-.755 1.848 2.665 2.665 0 01-1.917.81H9.402a2.665 2.665 0 01-1.885-.777 2.665 2.665 0 01-.787-1.888.893.893 0 00-.125-.443l-.007-.012a.954.954 0 00-1.308-.35l-.013.007A2.67 2.67 0 011.64 15.51l-.598-1.03v-.002a2.655 2.655 0 010-2.662c.225-.392.555-.732.972-.973a.972.972 0 000-1.683l-.001-.002a2.668 2.668 0 01-.971-3.643l.01-.017.631-1.037a2.668 2.668 0 013.637-.975l.011.007a.893.893 0 00.923-.005.98.98 0 00.484-.778v-.042l.002-.034.001-.046A2.662 2.662 0 019.402 0h1.193zM8.437 2.7v.076a2.683 2.683 0 01-.39 1.264 2.663 2.663 0 01-2.28 1.278H5.76a2.593 2.593 0 01-1.29-.36.968.968 0 00-1.32.36l-.01.018-.63 1.036a.968.968 0 00.356 1.316 2.67 2.67 0 010 4.626.954.954 0 00-.48.884.955.955 0 00.128.43l.6 1.036.009.014a.972.972 0 001.32.38 2.653 2.653 0 013.629.972c.23.391.355.836.36 1.29v.01a.966.966 0 00.971.971h1.193c.274 0 .52-.112.697-.295a.965.965 0 00.275-.669 2.662 2.662 0 012.675-2.67h.019c.446.012.883.134 1.27.356l.003.002c.22.127.468.158.7.105a.967.967 0 00.624-.459l.006-.01.624-1.04a.962.962 0 00-.354-1.315 2.662 2.662 0 01-.974-3.645c.232-.404.567-.74.971-.972a.97.97 0 00.351-1.319.861.861 0 01-.037-.073l-.554-.96a.968.968 0 00-1.321-.36 2.662 2.662 0 01-3.641-.949 2.593 2.593 0 01-.362-1.328.97.97 0 00-.971-.999H9.402a.962.962 0 00-.963.935l-.001.053v.01z"
        fill="currentColor"
      />
      <path
        fill-rule="evenodd"
        clip-rule="evenodd"
        d="M10.003 8.34a1.66 1.66 0 100 3.32 1.66 1.66 0 000-3.32zM6.643 10a3.36 3.36 0 116.72 0 3.36 3.36 0 01-6.72 0z"
        fill="currentColor"
      />
    </svg>
