  <svg  viewBox="0 0 24 24" fill="none">
      <path
        fill-rule="evenodd"
        clip-rule="evenodd"
        d="M6.651 22.003a4.392 4.392 0 01-4.391-4.39v-4.686A4.392 4.392 0 016.65 8.535h.897a.85.85 0 010 1.7h-.897a2.692 2.692 0 00-2.691 2.692v4.685a2.692 2.692 0 002.691 2.691H17.35a2.692 2.692 0 002.691-2.69v-4.696c0-1.48-1.2-2.682-2.68-2.682h-.907a.85.85 0 110-1.7h.906a4.382 4.382 0 014.381 4.382v4.695a4.392 4.392 0 01-4.391 4.391H6.65z"
        fill="currentColor"
      />
      <path
        fill-rule="evenodd"
        clip-rule="evenodd"
        d="M12 15.278a.85.85 0 01-.85-.85V2.855a.85.85 0 011.7 0v11.573c0 .47-.38.85-.85.85z"
        fill="currentColor"
      />
      <path
        fill-rule="evenodd"
        clip-rule="evenodd"
        d="M8.598 6.272a.85.85 0 01-.002-1.202l2.801-2.814a.85.85 0 011.205 0l2.803 2.814a.85.85 0 11-1.205 1.2L12 4.06 9.8 6.27a.85.85 0 01-1.202.002z"
        fill="currentColor"
      />
    </svg>
