<svg viewBox="0 0 20 16" fill="none">
<path fill-rule="evenodd" clip-rule="evenodd" d="M14.6836 1.78686C14.7746 1.32632 15.2217 1.02674 15.6822 1.11773C17.2544 1.42835 18.4411 2.81324 18.4411 4.47757C18.4411 6.1419 17.2544 7.5268 15.6822 7.83741C15.2217 7.9284 14.7746 7.62882 14.6836 7.16828C14.5926 6.70774 14.8922 6.26064 15.3527 6.16965C16.1444 6.01323 16.7411 5.31384 16.7411 4.47757C16.7411 3.6413 16.1444 2.94191 15.3527 2.78549C14.8922 2.6945 14.5926 2.2474 14.6836 1.78686Z" fill="currentColor"/>
<path fill-rule="evenodd" clip-rule="evenodd" d="M15.9453 9.79468C16.0098 9.32968 16.439 9.00498 16.904 9.06943C17.1494 9.10345 17.3941 9.14742 17.6373 9.20181C17.962 9.26603 18.3575 9.37164 18.7254 9.55515C19.0923 9.73823 19.5123 10.0397 19.749 10.5356L19.7495 10.5367C20.0173 11.0998 20.0169 11.7541 19.7499 12.3171C19.5372 12.7642 19.1747 13.0531 18.8432 13.2376C18.5102 13.423 18.1493 13.5372 17.8427 13.6115C17.3865 13.7221 16.927 13.442 16.8164 12.9857C16.7058 12.5295 16.9859 12.07 17.4422 11.9594C17.6705 11.904 17.8687 11.8345 18.0163 11.7523C18.1648 11.6696 18.2053 11.6065 18.2142 11.588C18.2625 11.4856 18.262 11.3672 18.2142 11.2667L18.9819 10.9017L18.2148 11.2678C18.2041 11.2455 18.1531 11.1695 17.9664 11.0763C17.7851 10.9859 17.5497 10.9169 17.2989 10.8678C17.2911 10.8663 17.2833 10.8647 17.2756 10.8629C17.0759 10.818 16.8741 10.7815 16.6706 10.7533C16.2056 10.6889 15.8809 10.2597 15.9453 9.79468Z" fill="currentColor"/>
<path fill-rule="evenodd" clip-rule="evenodd" d="M5.3529 1.792C5.43724 2.25381 5.13124 2.69654 4.66943 2.78087C3.86578 2.92764 3.25671 3.63268 3.25671 4.47757C3.25671 5.32246 3.86578 6.02751 4.66943 6.17427C5.13124 6.2586 5.43724 6.70133 5.3529 7.16314C5.26857 7.62494 4.82584 7.93094 4.36403 7.84661C2.7678 7.55511 1.55671 6.15886 1.55671 4.47757C1.55671 2.79629 2.7678 1.40003 4.36403 1.10853C4.82584 1.0242 5.26857 1.3302 5.3529 1.792Z" fill="currentColor"/>
<path fill-rule="evenodd" clip-rule="evenodd" d="M4.1608 9.79134C4.2193 10.2571 3.88914 10.6821 3.42335 10.7406C3.18725 10.7703 2.95328 10.8109 2.72228 10.8629C2.71453 10.8647 2.70676 10.8663 2.69896 10.8678C2.44814 10.9169 2.21276 10.9859 2.03162 11.0763C1.84512 11.1694 1.79466 11.2452 1.78436 11.2668L1.78368 11.2682C1.73596 11.3681 1.73558 11.4854 1.78403 11.587L1.78483 11.5887C1.7934 11.6067 1.8348 11.6722 1.99093 11.7574C2.14486 11.8414 2.35031 11.9113 2.58418 11.9662C3.04119 12.0735 3.32465 12.531 3.21731 12.988C3.10997 13.445 2.65248 13.7285 2.19547 13.6211C1.88527 13.5483 1.51685 13.4353 1.1766 13.2497C0.838751 13.0653 0.465915 12.7745 0.249114 12.3178C-0.0192075 11.7543 -0.0195681 11.0994 0.249537 10.5358C0.485807 10.0397 0.905743 9.73823 1.27247 9.5552C1.64027 9.37164 2.03591 9.26603 2.36051 9.20181C2.64254 9.13874 2.92656 9.08968 3.21149 9.05389C3.67727 8.99539 4.10229 9.32555 4.1608 9.79134Z" fill="currentColor"/>
<path fill-rule="evenodd" clip-rule="evenodd" d="M5.69378 12.1091C5.5673 12.2416 5.50143 12.388 5.50143 12.6017C5.50143 12.8136 5.56689 12.9579 5.69318 13.089C5.83964 13.241 6.09746 13.4016 6.51247 13.5407C7.3511 13.822 8.57162 13.9328 9.99477 13.9328C11.4242 13.9328 12.6438 13.8181 13.4795 13.5339C13.8928 13.3933 14.1497 13.2316 14.2958 13.0785C14.4223 12.9459 14.4881 12.7996 14.4881 12.5862C14.4881 12.3744 14.4227 12.2301 14.2963 12.099C14.1498 11.9469 13.8919 11.7864 13.4768 11.6472C12.638 11.3659 11.4175 11.2551 9.99477 11.2551C8.56527 11.2551 7.34568 11.3697 6.51002 11.6538C6.09665 11.7943 5.83986 11.956 5.69378 12.1091ZM5.96281 10.0442C7.07437 9.66634 8.52645 9.55512 9.99477 9.55512C11.4536 9.55512 12.9047 9.66233 14.0173 10.0354C14.5778 10.2233 15.1154 10.499 15.5206 10.9195C15.9458 11.3609 16.1881 11.9255 16.1881 12.5862C16.1881 13.245 15.9482 13.8093 15.5257 14.2521C15.1227 14.6744 14.587 14.9528 14.0268 15.1433C12.9153 15.5213 11.4632 15.6328 9.99477 15.6328C8.53555 15.6328 7.0844 15.5256 5.97196 15.1525C5.41143 14.9645 4.87385 14.6889 4.46881 14.2684C4.0436 13.8269 3.80143 13.2623 3.80143 12.6017C3.80143 11.9429 4.04125 11.3784 4.46386 10.9355C4.86687 10.5131 5.40257 10.2347 5.96281 10.0442Z" fill="currentColor"/>
<path fill-rule="evenodd" clip-rule="evenodd" d="M9.99477 1.9168C8.56378 1.9168 7.42058 3.06 7.42058 4.49099C7.42058 5.92293 8.56391 7.066 9.99477 7.066C11.4256 7.066 12.569 5.92293 12.569 4.49099C12.569 3.06 11.4258 1.9168 9.99477 1.9168ZM5.72058 4.49099C5.72058 2.12112 7.6249 0.216797 9.99477 0.216797C12.3646 0.216797 14.269 2.12112 14.269 4.49099C14.269 6.86155 12.3648 8.766 9.99477 8.766C7.62477 8.766 5.72058 6.86155 5.72058 4.49099Z" fill="currentColor"/>
</svg>
