<svg width="24" height="24" viewBox="0 0 24 24" fill="none">
    <path fill-rule="evenodd" clip-rule="evenodd" d="M10.2168 12.012C10.2168 10.2012 8.75297 8.73096 6.9421 8.72312L2.84791 8.70541C2.37847 8.70338 1.99956 8.32118 2.0016 7.85174C2.00363 7.3823 2.38583 7.0034 2.85526 7.00543L6.94946 7.02314C9.69633 7.03502 11.9168 9.26514 11.9168 12.012C11.9168 13.8283 13.389 15.3007 15.2053 15.301L19.3604 15.3016C19.8298 15.3017 20.2103 15.6823 20.2102 16.1518C20.2102 16.6212 19.8295 17.0017 19.3601 17.0016L15.205 17.001C12.45 17.0006 10.2168 14.7671 10.2168 12.012Z" fill="currentColor"/>
    <path fill-rule="evenodd" clip-rule="evenodd" d="M10.2168 12.0539C10.2168 13.8648 8.75297 15.335 6.9421 15.3428L2.84791 15.3605C2.37847 15.3625 1.99956 15.7447 2.0016 16.2142C2.00363 16.6836 2.38583 17.0625 2.85526 17.0605L6.94946 17.0428C9.69633 17.0309 11.9168 14.8008 11.9168 12.0539C11.9168 10.2376 13.389 8.76521 15.2053 8.76494L19.3604 8.7643C19.8298 8.76423 20.2103 8.38361 20.2102 7.91417C20.2102 7.44473 19.8295 7.06423 19.3601 7.0643L15.205 7.06494C12.45 7.06536 10.2168 9.29886 10.2168 12.0539Z" fill="currentColor"/>
    <path d="M17.5453 6.05853C17.5453 5.37394 18.3082 4.9656 18.8779 5.34535L21.6183 7.17233C22.1273 7.51161 22.1273 8.25943 21.6183 8.59871L18.8779 10.4257C18.3082 10.8054 17.5453 10.3971 17.5453 9.7125V6.05853Z" fill="currentColor"/>
    <path d="M17.5453 14.2915C17.5453 13.6069 18.3082 13.1985 18.8779 13.5783L21.6183 15.4053C22.1273 15.7445 22.1273 16.4924 21.6183 16.8316L18.8779 18.6586C18.3082 19.0384 17.5453 18.63 17.5453 17.9454V14.2915Z" fill="currentColor"/>
</svg>
