<svg fill="none" xmlns="http://www.w3.org/2000/svg" viewBox="0 0 57 52"><path d="M28.43 51.142s-1.668-.696-1.77-.74c-.203-.09-.49-.22-.85-.389-.72-.337-1.731-.834-2.938-1.488-2.404-1.302-5.63-3.251-8.877-5.83C7.65 37.657.435 29.565.429 18.59.373 8.964 7.705.857 17.128.857c4.523 0 8.585 1.911 11.561 4.95 2.976-3.039 7.038-4.95 11.562-4.95C49.682.857 57 8.97 57 18.578c0 10.972-7.41 19.07-13.87 24.101-3.315 2.581-6.607 4.536-9.06 5.843a60.075 60.075 0 0 1-2.996 1.496 214.15 214.15 0 0 1-2.644 1.124Z" fill="#E43D21"/><path d="M28.43 51.142s-1.668-.696-1.77-.74c-.203-.09-.49-.22-.85-.389-.72-.337-1.731-.834-2.938-1.488-2.404-1.302-5.63-3.251-8.877-5.83C7.65 37.657.435 29.565.429 18.59.373 8.964 7.705.857 17.128.857c4.523 0 8.585 1.911 11.561 4.95 2.976-3.039 7.038-4.95 11.562-4.95C49.682.857 57 8.97 57 18.578c0 10.972-7.41 19.07-13.87 24.101-3.315 2.581-6.607 4.536-9.06 5.843a60.075 60.075 0 0 1-2.996 1.496 214.15 214.15 0 0 1-2.644 1.124Z" fill="url(#a)"/><defs><linearGradient id="a" x1="26.02" y1="24.652" x2="30.061" y2="50.244" gradientUnits="userSpaceOnUse"><stop stop-color="#FF8C8C" stop-opacity="0"/><stop offset="1" stop-color="#8E0000" stop-opacity=".72"/></linearGradient></defs></svg>