<svg fill="none" xmlns="http://www.w3.org/2000/svg" viewBox="0 0 65 60"><path d="M32 59.333C48.2 59.333 61.334 46.2 61.334 30S48.2.667 32 .667C15.8.667 2.667 13.8 2.667 30S15.8 59.333 32 59.333Z" fill="url(#a)"/><path d="M49.925 33.616S50.152 53.534 32 53.534c-18.152 0-17.926-19.918-17.926-19.918h35.852Z" fill="url(#b)"/><path d="M49.925 33.616C49.925 43.7 41.9 51.874 32 51.874c-9.9 0-17.926-8.174-17.926-18.258h35.852Z" fill="url(#c)"/><path d="M33.629 45.235c-.841 0-1.63.83-1.63.83s-.789-.83-1.63-.83c-3.391 0-5.583 3.252-5.583 3.252A15.94 15.94 0 0 0 32 50.215c2.59 0 5.035-.628 7.213-1.728 0 0-2.192-3.252-5.584-3.252Z" fill="url(#d)"/><path d="M32 53.534c-5.678 0-10.821-2.287-14.625-5.99 2.651 5.507 8.195 9.31 14.624 9.31 6.43 0 11.973-3.803 14.625-9.31-3.804 3.703-8.947 5.99-14.625 5.99Z" fill="url(#e)"/><path d="M38.519 26.977c5.446 0 10.426 1.652 10.426 1.652l.624-1.507c-.693-.56-6.04-3.465-11.05-3.465v3.32Z" fill="#212121"/><path d="M49.112 28.637c.45 0 .814-.371.814-.83a.822.822 0 0 0-.814-.83.822.822 0 0 0-.815.83c0 .459.365.83.815.83ZM38.517 26.977c.9 0 1.63-.743 1.63-1.66 0-.916-.73-1.66-1.63-1.66-.9 0-1.63.744-1.63 1.66 0 .917.73 1.66 1.63 1.66ZM25.483 26.977c-5.446 0-10.426 1.652-10.426 1.652l-.624-1.507c.692-.56 6.039-3.465 11.05-3.465v3.32Z" fill="#212121"/><path d="M14.888 28.637c.45 0 .815-.371.815-.83a.822.822 0 0 0-.815-.83.822.822 0 0 0-.815.83c0 .459.365.83.815.83ZM25.481 26.977c.9 0 1.63-.743 1.63-1.66 0-.916-.73-1.66-1.63-1.66-.9 0-1.63.744-1.63 1.66 0 .917.73 1.66 1.63 1.66Z" fill="#212121"/><path d="M17.333 35.277v1.66c0 1.834 1.459 3.319 3.26 3.319h22.814c1.8 0 3.26-1.486 3.26-3.32v-1.66H17.332Z" fill="url(#f)"/><path d="M54.713 45.858a5.37 5.37 0 0 0 7.695 0c2.125-2.164 2.125-5.673 0-7.837-3.078-3.135-12.054-6.009-12.823-5.225-.771.785 2.05 9.929 5.128 13.062Z" fill="url(#g)"/><path d="M1.594 38.022c-2.125 2.165-2.125 5.673 0 7.837a5.37 5.37 0 0 0 7.694 0c3.078-3.135 5.9-12.277 5.13-13.06-.77-.786-9.748 2.089-12.824 5.223Z" fill="url(#h)"/><defs><radialGradient id="a" cx="0" cy="0" r="1" gradientUnits="userSpaceOnUse" gradientTransform="rotate(180 16 15) scale(29.3333)"><stop stop-color="#FFE16E"/><stop offset=".629" stop-color="#FFD226"/><stop offset=".75" stop-color="#FDCD23"/><stop offset=".899" stop-color="#F6BD1B"/><stop offset=".999" stop-color="#F0AF13"/></radialGradient><radialGradient id="b" cx="0" cy="0" r="1" gradientUnits="userSpaceOnUse" gradientTransform="matrix(18.2046 0 0 18.5419 32 34.91)"><stop offset=".371" stop-color="#FFD226"/><stop offset=".948" stop-color="#FFE16E"/><stop offset="1" stop-color="#FFE16E" stop-opacity="0"/></radialGradient><radialGradient id="c" cx="0" cy="0" r="1" gradientUnits="userSpaceOnUse" gradientTransform="matrix(19.3323 0 0 19.6905 32.244 32.934)"><stop stop-color="#1C1911"/><stop offset=".999" stop-color="#171714"/></radialGradient><radialGradient id="d" cx="0" cy="0" r="1" gradientUnits="userSpaceOnUse" gradientTransform="matrix(0 9.80957 -9.58681 0 32 54.748)"><stop offset=".456" stop-color="#DB4A59"/><stop offset=".602" stop-color="#D84756"/><stop offset=".729" stop-color="#CD3E4D"/><stop offset=".85" stop-color="#BB303E"/><stop offset=".965" stop-color="#A21B29"/><stop offset=".999" stop-color="#991421"/></radialGradient><radialGradient id="e" cx="0" cy="0" r="1" gradientUnits="userSpaceOnUse" gradientTransform="matrix(16.9172 0 0 17.2307 32.164 38.973)"><stop offset=".819" stop-color="#CC9000"/><stop offset=".988" stop-color="#FBBC23" stop-opacity=".069"/><stop offset="1" stop-color="#FFBF26" stop-opacity="0"/></radialGradient><radialGradient id="g" cx="0" cy="0" r="1" gradientUnits="userSpaceOnUse" gradientTransform="rotate(134.474 19.88 31.675) scale(5.94286 8.66777)"><stop stop-color="#63E2FF"/><stop offset=".371" stop-color="#51CDFC"/><stop offset="1" stop-color="#2AA1F7"/></radialGradient><radialGradient id="h" cx="0" cy="0" r="1" gradientUnits="userSpaceOnUse" gradientTransform="matrix(-4.16396 -4.24112 6.18602 -6.07347 7.66 39.753)"><stop stop-color="#63E2FF"/><stop offset=".371" stop-color="#51CDFC"/><stop offset="1" stop-color="#2AA1F7"/></radialGradient><linearGradient id="f" x1="17.333" y1="37.766" x2="46.666" y2="37.766" gradientUnits="userSpaceOnUse"><stop offset=".001" stop-color="#968F72"/><stop offset=".048" stop-color="#B2AD97"/><stop offset=".098" stop-color="#CAC6B7"/><stop offset=".153" stop-color="#DDDBD2"/><stop offset=".213" stop-color="#ECEBE6"/><stop offset=".281" stop-color="#F7F6F4"/><stop offset=".363" stop-color="#FDFDFC"/><stop offset=".5" stop-color="#fff"/><stop offset=".637" stop-color="#FDFDFC"/><stop offset=".719" stop-color="#F7F6F4"/><stop offset=".787" stop-color="#ECEBE6"/><stop offset=".847" stop-color="#DDDBD2"/><stop offset=".902" stop-color="#CAC6B7"/><stop offset=".952" stop-color="#B2AD97"/><stop offset="1" stop-color="#968F72"/></linearGradient></defs></svg>