<svg fill="none" xmlns="http://www.w3.org/2000/svg" viewBox="0 0 60 60"><path d="M30 59.333C46.2 59.333 59.334 46.2 59.334 30S46.2.667 30 .667C13.8.667.667 13.8.667 30S13.8 59.333 30 59.333Z" fill="url(#a)"/><path d="M50.3 21.849a30.94 30.94 0 0 1-3.916-.476 32.319 32.319 0 0 1-3.842-.952c-2.527-.816-5.032-2.01-7.191-3.914a1.659 1.659 0 1 1 2.327-2.359l.01.012c1.492 1.65 3.521 2.964 5.731 3.952 2.21.974 4.63 1.706 7.022 2.113l.04.007a.817.817 0 0 1 .666.94.816.816 0 0 1-.847.677ZM9.56 20.226a30.362 30.362 0 0 0 7.022-2.114c2.21-.987 4.24-2.301 5.732-3.952l.008-.01a1.66 1.66 0 1 1 2.329 2.357c-2.161 1.905-4.666 3.098-7.192 3.914-1.27.4-2.552.716-3.84.952-1.298.235-2.57.404-3.917.476a.815.815 0 0 1-.18-1.617l.038-.006Z" fill="#805B2A"/><path d="M22.128 46.707s1.819 1.219 7.871 1.219c5.606 0 7.866-1.22 7.866-1.22s-1.406-2.42-7.866-2.42-7.871 2.42-7.871 2.42Z" fill="url(#b)"/><path d="M30 46.296c5.528 0 7.024.993 7.024.993S35.59 49.556 30 49.556s-7.023-2.267-7.023-2.267 1.496-.993 7.023-.993Z" fill="url(#c)"/><path d="M37.66 46.614c.817.45 1.622-.583.992-1.27-1.832-1.99-4.647-3.937-8.652-3.937-4.006 0-6.82 1.946-8.652 3.938-.63.686.175 1.719.99 1.27 1.877-1.037 4.442-1.948 7.662-1.948 3.22 0 5.785.91 7.66 1.947Z" fill="url(#d)"/><path d="M18.592 36.519a6.519 6.519 0 1 0 0-13.038 6.519 6.519 0 0 0 0 13.038Z" fill="#fff"/><path d="M18.592 33.26a3.26 3.26 0 1 0 0-6.52 3.26 3.26 0 0 0 0 6.52Z" fill="#212121"/><path d="M41.406 36.519a6.519 6.519 0 1 0 0-13.038 6.519 6.519 0 0 0 0 13.038Z" fill="#fff"/><path d="M41.408 33.26a3.26 3.26 0 1 0 0-6.52 3.26 3.26 0 0 0 0 6.52Z" fill="#212121"/><path d="M59.333 43.037a4.889 4.889 0 1 1-9.778 0c0-3.911 3.91-13.037 4.889-13.037.977 0 4.889 9.126 4.889 13.037Z" fill="url(#e)"/><defs><radialGradient id="a" cx="0" cy="0" r="1" gradientUnits="userSpaceOnUse" gradientTransform="rotate(180 15 15) scale(29.3333)"><stop stop-color="#FFE16E"/><stop offset=".629" stop-color="#FFD426"/><stop offset=".72" stop-color="#FDCD23"/><stop offset=".854" stop-color="#F8B919"/><stop offset="1" stop-color="#F09C0C"/></radialGradient><radialGradient id="b" cx="0" cy="0" r="1" gradientUnits="userSpaceOnUse" gradientTransform="rotate(89.194 -6.587 36.493) scale(6.04949 17.8679)"><stop offset=".629" stop-color="#FFE16E"/><stop offset=".871" stop-color="#FFE16E" stop-opacity="0"/></radialGradient><radialGradient id="c" cx="0" cy="0" r="1" gradientUnits="userSpaceOnUse" gradientTransform="matrix(-8.33586 0 0 -5.09324 30.007 44.315)"><stop offset=".284" stop-color="#CC9000"/><stop offset="1" stop-color="#CC9000" stop-opacity="0"/></radialGradient><radialGradient id="d" cx="0" cy="0" r="1" gradientUnits="userSpaceOnUse" gradientTransform="matrix(8.92858 0 0 4.78827 29.974 45.571)"><stop stop-color="#1C1911"/><stop offset=".999" stop-color="#171714"/></radialGradient><radialGradient id="e" cx="0" cy="0" r="1" gradientUnits="userSpaceOnUse" gradientTransform="matrix(0 -7.48978 6.1903 0 54.536 40.557)"><stop stop-color="#B3F1FF"/><stop offset=".166" stop-color="#9EE4FC"/><stop offset=".509" stop-color="#68C2F3"/><stop offset=".996" stop-color="#118CE6"/><stop offset="1" stop-color="#108CE6"/></radialGradient></defs></svg>