<svg fill="none" xmlns="http://www.w3.org/2000/svg" viewBox="0 0 60 60"><path d="M30.003 59.337c16.2 0 29.334-13.133 29.334-29.334C59.337 13.803 46.204.67 30.003.67 13.803.67.67 13.803.67 30.003s13.133 29.334 29.333 29.334Z" fill="url(#a)"/><path d="M20.225 33.263a6.519 6.519 0 1 0 0-13.037 6.519 6.519 0 0 0 0 13.037Z" fill="#fff"/><path d="M20.226 30.003a3.26 3.26 0 1 0 0-6.518 3.26 3.26 0 0 0 0 6.518Z" fill="#212121"/><path d="M39.782 33.263a6.519 6.519 0 1 0 0-13.037 6.519 6.519 0 0 0 0 13.037Z" fill="#fff"/><path d="M39.78 30.003a3.26 3.26 0 1 0 0-6.518 3.26 3.26 0 0 0 0 6.518Z" fill="#212121"/><path d="M30.003 52.818a6.518 6.518 0 1 0 0-13.037 6.518 6.518 0 0 0 0 13.037Z" fill="url(#b)"/><path d="M30.003 51.188a6.518 6.518 0 1 0 0-13.036 6.518 6.518 0 0 0 0 13.036Z" fill="url(#c)"/><path d="M30.003 52.818c-6.041 0-6.519-6.11-6.519-6.11s.352 9.37 6.519 9.37c6.166 0 6.518-9.37 6.518-9.37s-.477 6.11-6.518 6.11Z" fill="url(#d)"/><defs><radialGradient id="a" cx="0" cy="0" r="1" gradientUnits="userSpaceOnUse" gradientTransform="rotate(180 15.002 15.002) scale(29.3333)"><stop stop-color="#FFE16E"/><stop offset=".629" stop-color="#FFD426"/><stop offset=".72" stop-color="#FDCD23"/><stop offset=".854" stop-color="#F8B919"/><stop offset="1" stop-color="#F09C0C"/></radialGradient><radialGradient id="b" cx="0" cy="0" r="1" gradientUnits="userSpaceOnUse" gradientTransform="translate(30.003 46.262) scale(6.53644)"><stop offset=".899" stop-color="#FFE16E"/><stop offset="1" stop-color="#FFE16E" stop-opacity="0"/></radialGradient><radialGradient id="c" cx="0" cy="0" r="1" gradientUnits="userSpaceOnUse" gradientTransform="matrix(7.37815 0 0 5.90252 30.002 44.672)"><stop stop-color="#1C1911"/><stop offset=".999" stop-color="#171714"/></radialGradient><radialGradient id="d" cx="0" cy="0" r="1" gradientUnits="userSpaceOnUse" gradientTransform="matrix(6.55001 0 0 9.16339 30.068 46.422)"><stop offset=".696" stop-color="#CC9000"/><stop offset="1" stop-color="#CC9000" stop-opacity="0"/></radialGradient></defs></svg>