<svg fill="none" xmlns="http://www.w3.org/2000/svg" viewBox="0 0 60 60"><path d="M30 59.333C46.2 59.333 59.334 46.2 59.334 30S46.2.667 30 .667C13.8.667.667 13.8.667 30S13.8 59.333 30 59.333Z" fill="url(#a)"/><path d="M44.386 25.392a6.519 6.519 0 0 1-9.219 9.218s.911-3.215 3.456-5.762c2.547-2.546 5.763-3.456 5.763-3.456Z" fill="#fff"/><path d="M36.76 31.23a3.258 3.258 0 0 0 5.323 1.074 3.258 3.258 0 0 0-1.074-5.322 13.31 13.31 0 0 0-2.382 1.866c-.771.77-1.376 1.597-1.866 2.382Z" fill="#212121"/><path d="M15.615 25.392a6.519 6.519 0 0 0 9.219 9.218s-.911-3.215-3.456-5.762c-2.548-2.546-5.763-3.456-5.763-3.456Z" fill="#fff"/><path d="M23.24 31.23a3.258 3.258 0 1 1-4.248-4.248 13.31 13.31 0 0 1 2.383 1.866 13.31 13.31 0 0 1 1.866 2.382Z" fill="#212121"/><path d="M22.128 45.078s1.819 1.218 7.871 1.218c5.606 0 7.866-1.218 7.866-1.218s-1.406-2.42-7.866-2.42-7.871 2.42-7.871 2.42Z" fill="url(#b)"/><path d="M30 44.667c5.528 0 7.024.992 7.024.992S35.59 47.926 30 47.926s-7.023-2.267-7.023-2.267 1.496-.992 7.023-.992Z" fill="url(#c)"/><path d="M37.66 44.984c.817.45 1.622-.583.992-1.269-1.832-1.992-4.647-3.937-8.652-3.937-4.006 0-6.82 1.946-8.652 3.937-.63.686.175 1.72.99 1.27 1.877-1.037 4.442-1.948 7.662-1.948 3.22 0 5.785.911 7.66 1.947Z" fill="url(#d)"/><path d="M48.741 25.111c-1.486.073-2.941.14-4.27.43a8.01 8.01 0 0 0-3.493 1.695c-1.004.83-1.847 1.908-2.596 3.07-.768 1.15-1.399 2.433-2.075 3.685l-.031.057a1.594 1.594 0 1 1-2.808-1.514l.003-.007c.74-1.354 1.527-2.69 2.523-3.934.984-1.238 2.107-2.434 3.497-3.37a10.383 10.383 0 0 1 4.635-1.717c1.607-.188 3.135-.093 4.615-.025a.816.816 0 0 1 0 1.63ZM11.26 23.481c1.48-.068 3.008-.163 4.613.025 1.603.17 3.256.777 4.635 1.717 1.39.936 2.512 2.132 3.497 3.37.995 1.246 1.784 2.58 2.522 3.934a1.595 1.595 0 1 1-2.801 1.527l-.003-.006-.031-.057c-.675-1.252-1.305-2.536-2.075-3.685-.75-1.162-1.592-2.24-2.596-3.07a8.055 8.055 0 0 0-3.494-1.695c-1.33-.291-2.785-.358-4.27-.43a.816.816 0 0 1-.777-.852.823.823 0 0 1 .78-.778Z" fill="#732020"/><defs><radialGradient id="a" cx="0" cy="0" r="1" gradientUnits="userSpaceOnUse" gradientTransform="translate(30 30) scale(29.3333)"><stop stop-color="#FFC7D4"/><stop offset=".628" stop-color="#FC7477"/><stop offset=".705" stop-color="#F86F73"/><stop offset=".802" stop-color="#EE5F67"/><stop offset=".908" stop-color="#DC4654"/><stop offset="1" stop-color="#C92A3F"/></radialGradient><radialGradient id="b" cx="0" cy="0" r="1" gradientUnits="userSpaceOnUse" gradientTransform="matrix(.0851 6.04888 -17.86613 .25135 30.109 41.298)"><stop offset=".631" stop-color="#FFB3B7"/><stop offset=".871" stop-color="#FFB3B7" stop-opacity="0"/></radialGradient><radialGradient id="c" cx="0" cy="0" r="1" gradientUnits="userSpaceOnUse" gradientTransform="matrix(-8.33586 0 0 -5.09324 30.023 42.684)"><stop offset=".282" stop-color="#871414"/><stop offset="1" stop-color="#871414" stop-opacity="0"/></radialGradient><radialGradient id="d" cx="0" cy="0" r="1" gradientUnits="userSpaceOnUse" gradientTransform="matrix(8.92858 0 0 4.78827 29.98 43.947)"><stop stop-color="#1C1911"/><stop offset=".999" stop-color="#171714"/></radialGradient></defs></svg>