<svg viewBox="0 0 22 21">
<path fill-rule="evenodd" clip-rule="evenodd" d="M16.5 2.5C16.5 3.05228 16.0523 3.5 15.5 3.5C14.9477 3.5 14.5 3.05228 14.5 2.5C14.5 1.94772 14.9477 1.5 15.5 1.5C16.0523 1.5 16.5 1.94772 16.5 2.5ZM18 2.5C18 3.88071 16.8807 5 15.5 5C15.2475 5 15.0037 4.96256 14.7739 4.89292L15.3566 5.32992C15.4652 5.4114 15.564 5.50526 15.6509 5.60959L17.7763 8.16005C17.8238 8.21704 17.8942 8.25 17.9684 8.25H19.5C20.4665 8.25 21.25 9.0335 21.25 10C21.25 10.9665 20.4665 11.75 19.5 11.75H16.4142C15.9501 11.75 15.505 11.5656 15.1768 11.2374L13.7597 9.82035C13.6543 9.71499 13.4808 9.72461 13.3877 9.84096L12.603 10.8218C12.528 10.9156 12.5302 11.0495 12.6084 11.1407L14.6545 13.5278C15.0974 14.0445 15.2006 14.7712 14.9189 15.3908L13.1122 19.3656C12.7017 20.2686 11.6236 20.6503 10.7364 20.2067L10.559 20.118C9.69455 19.6858 9.34416 18.6346 9.77639 17.7702L11.0068 15.3093C11.055 15.213 11.0361 15.0968 10.96 15.0207L9.04433 13.105C8.65399 12.7147 8.36038 12.2492 8.17538 11.7448L6.90942 13.5172C6.58092 13.9771 6.05055 14.25 5.48538 14.25H2.5C2.36193 14.25 2.25 14.3619 2.25 14.5V15C2.25 15.1381 2.36193 15.25 2.5 15.25H6.58579C6.65209 15.25 6.71568 15.2237 6.76256 15.1768L7.46967 14.4697C7.76256 14.1768 8.23744 14.1768 8.53033 14.4697C8.82322 14.7626 8.82322 15.2374 8.53033 15.5303L7.82322 16.2374C7.49503 16.5656 7.04991 16.75 6.58579 16.75H2.5C1.5335 16.75 0.75 15.9665 0.75 15V14.5C0.75 13.5335 1.5335 12.75 2.5 12.75H5.48538C5.56612 12.75 5.64189 12.711 5.68882 12.6453L8.17522 9.16434L9.31541 7.43654H9.25846C9.18476 7.43654 9.11483 7.46905 9.06733 7.52539L7.08092 9.88147C6.55988 10.4995 5.68336 10.6802 4.96036 10.3187L4.67778 10.1774C3.73629 9.70667 3.42043 8.51728 4.00432 7.64144L6.0791 4.52927C6.40366 4.04243 6.95007 3.75 7.53518 3.75H12.6667C12.9416 3.75 13.2111 3.81475 13.4541 3.93719C13.168 3.53062 13 3.03493 13 2.5C13 1.11929 14.1193 0 15.5 0C16.8807 0 18 1.11929 18 2.5ZM7.32717 5.36133C7.37354 5.29178 7.4516 5.25 7.53518 5.25H12.6667C12.7208 5.25 12.7734 5.26754 12.8167 5.3L14.4566 6.52992C14.4721 6.54156 14.4862 6.55497 14.4986 6.56987L16.624 9.12032C16.9565 9.51931 17.449 9.75 17.9684 9.75H19.5C19.6381 9.75 19.75 9.86193 19.75 10C19.75 10.1381 19.6381 10.25 19.5 10.25H16.4142C16.3479 10.25 16.2843 10.2237 16.2374 10.1768L14.8204 8.7597C14.0828 8.02217 12.868 8.08945 12.2164 8.90392L11.4317 9.88479C10.9065 10.5413 10.9224 11.4785 11.4695 12.1169L13.5156 14.504C13.5789 14.5778 13.5936 14.6816 13.5534 14.7701L11.7466 18.7449C11.688 18.8739 11.534 18.9285 11.4072 18.8651L11.2298 18.7764C11.1063 18.7146 11.0563 18.5645 11.118 18.441L12.3485 15.9801C12.6854 15.3063 12.5533 14.4926 12.0207 13.96L10.105 12.0443C9.59832 11.5377 9.36327 10.8199 9.47207 10.1117L9.50996 9.8651L11.0279 7.56486C11.4886 6.86677 10.9879 5.93654 10.1515 5.93654H9.25846C8.7426 5.93654 8.25303 6.16413 7.92052 6.55852L5.93411 8.9146C5.85968 9.00289 5.73446 9.02871 5.63118 8.97706L5.3486 8.83578C5.2141 8.76853 5.16898 8.59861 5.25239 8.47349L7.32717 5.36133Z" fill="currentColor"/>
</svg>
