  <svg fill="none" viewBox="0 0 24 24">
      <path
        fill-rule="evenodd"
        clip-rule="evenodd"
        d="M14.086 4.284l.014.027 1.63 3.281 3.646.527c.614.085 1.165.409 1.539.895a2.323 2.323 0 01-.243 3.1l-2.63 2.544.632 3.599.007.044a2.337 2.337 0 01-1.937 2.65l-.014.002a2.404 2.404 0 01-1.466-.24l-3.252-1.704-3.28 1.716-.017.009a2.358 2.358 0 01-3.148-.991 2.345 2.345 0 01-.238-1.471l.003-.02.631-3.596-2.65-2.547-.019-.02a2.336 2.336 0 01.057-3.37 2.436 2.436 0 011.264-.602l3.652-.527 1.629-3.277a2.337 2.337 0 011.361-1.184 2.346 2.346 0 011.787.13c.448.223.813.583 1.042 1.025zM9.059 9.193l-4.2.607a.737.737 0 00-.367.18l-.002.003a.636.636 0 00.002.9l3.06 2.943c.15.146.22.36.183.567l-.729 4.153c-.022.139 0 .28.066.405a.658.658 0 00.872.268l3.768-1.972a.628.628 0 01.601 0l3.74 1.961c.13.064.276.087.419.065A.637.637 0 0017 18.55l-.73-4.153a.617.617 0 01.184-.568l3.044-2.943a.623.623 0 00.069-.836.646.646 0 00-.428-.248l-4.2-.607a.647.647 0 01-.486-.354l-1.876-3.773a.664.664 0 00-.293-.289.646.646 0 00-.494-.035.637.637 0 00-.37.324l-1.875 3.77a.658.658 0 01-.486.355zm6.919-1.104l-.002-.004.002.004zm2.359 1.555l-.014.012a3.19 3.19 0 01.014-.012zm.577 1.843l-.011-.002.011.002zm-6.39 7.254l-.015.008.015-.008zm-1.008.008a.448.448 0 01-.014-.008l.014.008zm6.423-4.677l.004.02-.004-.02zm-.31.985l-.01.01.01-.01z"
        fill="currentColor"
      />
    </svg>
