<svg xmlns="http://www.w3.org/2000/svg" width="20" height="20" fill="none"><path fill="#282828" fill-rule="evenodd" d="M6.204 7.676c.47 0 .85.38.85.85v5.625a.85.85 0 0 1-1.7 0V8.526c0-.47.38-.85.85-.85ZM10.03 4.984c.47 0 .85.38.85.85v8.317a.85.85 0 1 1-1.7 0V5.834c0-.47.381-.85.85-.85ZM13.795 10.648c.47 0 .85.38.85.85v2.653a.85.85 0 1 1-1.7 0v-2.653c0-.47.38-.85.85-.85Z" clip-rule="evenodd"/><path fill="#282828" fill-rule="evenodd" d="M2.352 2.504C3.284 1.504 4.607.95 6.157.95h7.684c1.554 0 2.878.554 3.809 1.554.925.994 1.4 2.359 1.4 3.876v7.24c0 1.518-.475 2.883-1.4 3.876-.931 1-2.255 1.554-3.808 1.554H6.157c-1.553 0-2.877-.554-3.808-1.554-.925-.993-1.4-2.358-1.4-3.876V6.38c0-1.518.477-2.883 1.403-3.876Zm1.243 1.16c-.583.625-.946 1.55-.946 2.716v7.24c0 1.167.361 2.092.944 2.718.576.618 1.43 1.012 2.564 1.012h7.684c1.134 0 1.989-.394 2.565-1.012.582-.626.943-1.551.943-2.718V6.38c0-1.167-.361-2.092-.943-2.717-.576-.619-1.431-1.013-2.564-1.013H6.157c-1.129 0-1.984.394-2.562 1.013Z" clip-rule="evenodd"/></svg>