<svg   viewBox="0 0 24 24">
      <path
        fill-rule="evenodd"
        clip-rule="evenodd"
        d="M19.165 9.7h-14a.3.3 0 00-.3.3v4a.3.3 0 00.3.3h14a.3.3 0 00.3-.3v-4a.3.3 0 00-.3-.3zm-14-1.7a2 2 0 00-2 2v4a2 2 0 002 2h14a2 2 0 002-2v-4a2 2 0 00-2-2h-14zM4.165 2.15c.47 0 .85.38.85.85v1c0 .635.515 1.15 1.15 1.15h12A1.15 1.15 0 0019.315 4V3a.85.85 0 111.7 0v1a2.85 2.85 0 01-2.85 2.85h-12A2.85 2.85 0 013.315 4V3c0-.47.38-.85.85-.85zM6.165 18.85A1.15 1.15 0 005.015 20v1a.85.85 0 11-1.7 0v-1a2.85 2.85 0 012.85-2.85h12a2.85 2.85 0 012.85 2.85v1a.85.85 0 11-1.7 0v-1a1.15 1.15 0 00-1.15-1.15h-12z"
        fill="currentColor"
      />
    </svg>
