  <svg   viewBox="0 0 24 24">
      <path
        d="M19.16 12.94h-2a5.548 5.548 0 0 0-.42-.42 6.22 6.22 0 0 0-1.5-.9 10.81 10.81 0 0 0-1.72-.56L12 10.69c-.33-.08-.65-.18-1-.29a3.898 3.898 0 0 1-.82-.4 2 2 0 0 1-.63-.62 1.6 1.6 0 0 1-.23-.86 1.8 1.8 0 0 1 .35-1.06 2.31 2.31 0 0 1 1-.74 3.93 3.93 0 0 1 1.53-.29 3.47 3.47 0 0 1 2.07.57 2.1 2.1 0 0 1 .92 1.58H18a4.07 4.07 0 0 0-.75-2.37 4.82 4.82 0 0 0-2-1.62 7 7 0 0 0-3-.59 7.32 7.32 0 0 0-3 .59 5.08 5.08 0 0 0-2.08 1.63 4.08 4.08 0 0 0-.76 2.46 3.51 3.51 0 0 0 1.13 2.73 7.11 7.11 0 0 0 3.1 1.53H5v1.49h9.76l.17.15c.239.279.37.634.37 1 0 .432-.144.85-.41 1.19a2.61 2.61 0 0 1-1.12.79 4.369 4.369 0 0 1-1.64.28 4.68 4.68 0 0 1-1.63-.24 2.76 2.76 0 0 1-1.17-.82 2.41 2.41 0 0 1-.51-1.38H6a5 5 0 0 0 .82 2.68 4.77 4.77 0 0 0 2.13 1.67c1.022.401 2.113.595 3.21.57a8.14 8.14 0 0 0 3.25-.58 4.76 4.76 0 0 0 2.06-1.65 4.36 4.36 0 0 0 .71-2.46 4.14 4.14 0 0 0-.18-1.2h1.17l-.01-1.49Z"
        fill="currentColor"
        fill-opacity=".8"
      />
    </svg>
