<svg v-if="name === 'telegram'" viewBox="0 0 24 25">
      <path
        d="M2.272 12.291c1.841-1.102 3.897-2.022 5.817-2.947 3.305-1.514 6.622-3.002 9.973-4.388.652-.236 1.823-.467 1.938.583-.063 1.486-.322 2.964-.5 4.441-.45 3.25-.97 6.487-1.478 9.725-.175 1.079-1.418 1.637-2.214.947-1.912-1.404-3.839-2.793-5.726-4.23-.619-.682-.045-1.663.507-2.15 1.575-1.687 3.245-3.12 4.737-4.893.403-1.057-.787-.167-1.179.106-2.156 1.615-4.26 3.328-6.532 4.747-1.161.694-2.514.1-3.675-.287-1.04-.468-2.565-.94-1.668-1.654z"
        fill="currentColor"
      />
    </svg>
