<svg  viewBox="0 0 24 25" fill="none">
      <path
        fill-rule="evenodd"
        clip-rule="evenodd"
        d="M12 4.627a8.298 8.298 0 00-8.298 8.298A8.298 8.298 0 0012 21.223a8.298 8.298 0 008.298-8.298A8.298 8.298 0 0012 4.627zm-9.998 8.298c0-5.522 4.476-9.998 9.998-9.998 5.522 0 9.998 4.476 9.998 9.998 0 5.523-4.476 9.998-9.998 9.998-5.522 0-9.998-4.475-9.998-9.998z"
        fill="currentColor"
      />
      <path
        fill-rule="evenodd"
        clip-rule="evenodd"
        d="M11.665 7.967c.47 0 .85.381.85.85v4.311l3.314 1.977a.85.85 0 11-.87 1.46l-3.73-2.224a.85.85 0 01-.414-.73V8.817c0-.469.38-.85.85-.85z"
        fill="currentColor"
      />
    </svg>
