  <svg   viewBox="0 0 24 24">
      <path
        d="M15.182 3h2.779v10.021c0 1.099-.26 2.065-.78 2.899-.514.833-1.238 1.485-2.171 1.955-.934.464-2.025.696-3.273.696-1.253 0-2.347-.232-3.28-.697-.934-.469-1.658-1.12-2.173-1.954-.514-.834-.771-1.8-.771-2.899V3h2.779v9.789c0 .64.14 1.208.419 1.708.285.499.684.89 1.198 1.175.515.28 1.124.42 1.828.42s1.313-.14 1.827-.42c.52-.284.919-.676 1.199-1.175.28-.5.42-1.069.42-1.708V3ZM4 19.533h15.474v1.438H4v-1.438Z"
        fill="currentColor"
        fill-opacity=".8"
      />
    </svg>
