<svg   fill="none" viewBox="0 0 28 28">
    <g clip-path="url(#a)">
        <path
            fill-rule="evenodd"
            clip-rule="evenodd"
            d="M6.388 7.28c.276-.114.495-.333.61-.61l1.41-3.404a1.126 1.126 0 0 1 1.472-.61l3.405 1.412c.276.114.586.114.862 0l3.405-1.41a1.126 1.126 0 0 1 1.472.61l1.41 3.405c.114.276.333.495.61.61l3.404 1.41c.575.238.847.897.61 1.472l-1.412 3.405a1.127 1.127 0 0 0 0 .862l1.41 3.405a1.126 1.126 0 0 1-.61 1.471l-3.405 1.41a1.126 1.126 0 0 0-.61.61l-1.41 3.404a1.126 1.126 0 0 1-1.472.61l-3.405-1.411a1.126 1.126 0 0 0-.862 0l-3.405 1.41a1.126 1.126 0 0 1-1.471-.61l-1.41-3.405a1.127 1.127 0 0 0-.61-.61l-3.404-1.41a1.126 1.126 0 0 1-.61-1.473l1.411-3.404a1.126 1.126 0 0 0 0-.862l-1.41-3.405a1.126 1.126 0 0 1 .61-1.472l3.405-1.41Zm2.522 6.068 2.727 2.573 6.311-6.208.91.858-7.221 7.066L8 14.206l.91-.858Z"
            fill="#4A9DF7"
        />
    </g>
    <defs>
        <clipPath id="a">
            <path
                fill="#fff"
                transform="translate(2.286 2.57)"
                d="M0 0h22.857v22.857H0z"
            />
        </clipPath>
    </defs>
</svg>
