<svg width="16" height="16" viewBox="0 0 16 16" fill="none" xmlns="http://www.w3.org/2000/svg">
    <g clip-path="url(#clip0_39800_47094)">
        <path d="M6.06641 8V7.01333C6.06641 5.73999 6.96641 5.22666 8.06641 5.85999L8.91974 6.35333L9.77307 6.84667C10.8731 7.48 10.8731 8.52 9.77307 9.15333L8.91974 9.64667L8.06641 10.14C6.96641 10.7733 6.06641 10.2533 6.06641 8.98667V8Z" stroke="white" stroke-width="1.5" stroke-miterlimit="10" stroke-linecap="round" stroke-linejoin="round"/>
        <path d="M8.00065 14.6666C11.6825 14.6666 14.6673 11.6818 14.6673 7.99998C14.6673 4.31808 11.6825 1.33331 8.00065 1.33331C4.31875 1.33331 1.33398 4.31808 1.33398 7.99998C1.33398 11.6818 4.31875 14.6666 8.00065 14.6666Z" stroke="white" stroke-width="1.5" stroke-linecap="round" stroke-linejoin="round" stroke-dasharray="3 3"/>
        <path d="M8 1.33331C9.76813 1.33331 11.4638 2.03569 12.7141 3.28593C13.9643 4.53618 14.6667 6.23187 14.6667 7.99998C14.6667 9.76811 13.9643 11.4638 12.7141 12.714C11.4638 13.9642 9.76813 14.6666 8 14.6666" stroke="white" stroke-width="1.5"/>
    </g>
    <defs>
        <clipPath id="clip0_39800_47094">
            <rect width="16" height="16" fill="white"/>
        </clipPath>
    </defs>
</svg>
