<svg   viewBox="0 0 24 24">
      <path
        fill-rule="evenodd"
        clip-rule="evenodd"
        d="M14 5.697H6a2.3 2.3 0 00-2.3 2.3v8a2.3 2.3 0 002.3 2.3h8a2.3 2.3 0 002.3-2.3v-8a2.3 2.3 0 00-2.3-2.3zm-8-1.7a4 4 0 00-4 4v8a4 4 0 004 4h8a4 4 0 004-4v-8a4 4 0 00-4-4H6z"
        fill="currentColor"
      />
      <path
        fill-rule="evenodd"
        clip-rule="evenodd"
        d="M20.298 8.511l-2.3 1.727v3.524l2.3 1.727V8.511zm-.38 8.818c.857.643 2.08.032 2.08-1.04V7.712c0-1.072-1.223-1.683-2.08-1.04l-3.1 2.327a1.3 1.3 0 00-.52 1.04v3.924c0 .41.192.795.52 1.04l3.1 2.327z"
        fill="currentColor"
      />
    </svg>
