<svg width="19" height="19" viewBox="0 0 19 19" fill="none" xmlns="http://www.w3.org/2000/svg">
<g clip-path="url(#clip0_20580_7551)">
<path d="M18.1097 7.96655C16.1765 12.0967 11.5096 17.7191 8.55987 17.7191C5.65287 17.7191 5.2325 11.5196 3.6452 7.39338C2.86383 5.36276 2.35954 5.82905 0.894953 6.85426L0.00195312 5.70238C2.13787 3.82455 4.27537 1.64351 5.58875 1.52238C7.06758 1.38068 7.97799 2.39163 8.31841 4.55605C8.76808 7.40051 9.39666 11.8156 10.4939 11.8156C11.3489 11.8156 13.4555 8.3133 13.564 7.06088C13.7564 5.22738 12.2158 5.17197 10.8787 5.74434C12.9948 -1.18591 21.7981 0.0902584 18.1097 7.96655Z" fill="currentColor"/>
</g>
<defs>
<clipPath id="clip0_20580_7551">
<rect width="19" height="19" fill="currentColor"/>
</clipPath>
</defs>
</svg>
