  <svg   viewBox="0 0 24 24">
      <path
        d="M19.793 14.304c-1.68-1.632-1.466-1.384.572-4.187 1.215-1.704 1.716-2.768 1.573-3.23-.072-.284-1.037-.213-1.037-.213h-3.003s-.464 0-.643.32c-.322.603-.465 1.348-1.108 2.448-1.358 2.378-1.894 2.52-2.109 2.378-.5-.355-.393-1.384-.393-2.13 0-2.306.322-3.264-.644-3.548-.214-.071-.393-.071-.714-.107C11.893 6 11.5 6 11.143 6c-.894 0-1.573.035-2.038.248-.357.178-.607.568-.429.604.215.035.644.142.894.461.322.426.286 1.42.286 1.42s.179 2.732-.43 3.051c-.392.249-.964-.248-2.144-2.413-.607-1.1-.679-1.845-1.072-2.342-.25-.32-.715-.426-.715-.426h-2.86s-.5-.035-.571.107c-.143.177 0 .532 0 .532s2.251 5.5 4.79 8.269c2.251 2.626 4.896 2.484 4.896 2.484s1.537.07 1.752-.32c.143-.141.179-.567.179-.567s-.036-1.704.715-1.952c.75-.248 1.68 1.632 2.68 2.342.75.568.965.497 1.323.497h2.68s1.395-.142.751-1.313c-.107-.071-.429-.816-2.037-2.378z"
        fill="currentColor"
      />
    </svg>
