  <svg   fill="none" viewBox="0 0 24 24">
      <path
        d="M6.463 15.992H4.595c-.9 0-1.507-.615-1.63-1.63-.175-1.25-.158-3.507 0-4.782.123-.88.73-1.574 1.63-1.574h1.868L9.748 5.32c.287-.244.784-.474 1.087-.468.64-.02 1.232.446 1.46 1.206.125.484.16 1.048.224 1.571.063.509.1.463.111 1.996M12.627 14.055c-.017 1.182-.057 1.901-.108 2.316-.064.523-.083 1.039-.224 1.57-.228.761-.82 1.226-1.46 1.206-.303.008-.73-.177-1.018-.42l-1.235-1.008M18.055 4.416L2.888 19.584"
        stroke="currentColor"
        stroke-width="1.7"
        stroke-linecap="round"
        stroke-linejoin="round"
      />
      <path
        fill-rule="evenodd"
        clip-rule="evenodd"
        d="M11.476 6.286c-.144-.462-.443-.59-.615-.585h-.03a1.131 1.131 0 00-.203.068c-.137.06-.26.138-.33.198l-.012.01L7 8.664a.85.85 0 01-.538.192H4.595c-.366 0-.705.261-.787.835-.15 1.215-.164 3.39-.001 4.553l.002.016c.044.366.166.582.282.698.106.107.26.184.504.184h1.868a.85.85 0 110 1.7H4.595c-.656 0-1.256-.23-1.709-.684-.441-.444-.684-1.04-.764-1.686-.186-1.336-.166-3.662 0-4.997l.001-.013c.165-1.182 1.039-2.306 2.472-2.306H6.16l3.044-2.49c.216-.182.483-.34.739-.453.235-.103.559-.213.886-.212 1.095-.024 1.969.773 2.28 1.812l.009.03c.111.43.164.933.207 1.345a20.292 20.292 0 00.062.512c.02.14.04.29.055.477.021.276.033.674.038 1.441a.85.85 0 11-1.7.012 21.118 21.118 0 00-.033-1.324c-.01-.133-.02-.2-.035-.301l-.037-.271V7.73c-.02-.168-.037-.324-.053-.47-.039-.371-.072-.683-.146-.975zM12.64 13.205a.85.85 0 01.837.862c-.017 1.186-.057 1.944-.115 2.408-.012.103-.024.218-.036.342-.039.396-.087.88-.21 1.343a.73.73 0 01-.007.026c-.311 1.04-1.184 1.834-2.278 1.811-.305.003-.601-.082-.839-.182a2.83 2.83 0 01-.718-.434l-1.23-1.003A.85.85 0 019.12 17.06l1.235 1.008.012.01c.072.06.174.124.282.169.095.04.151.048.164.05h.049c.173.006.473-.123.616-.587.082-.314.11-.595.144-.943.015-.15.032-.314.054-.498v-.002c.046-.366.086-1.046.102-2.224a.85.85 0 01.863-.838z"
        fill="currentColor"
      />
      <path
        fill-rule="evenodd"
        clip-rule="evenodd"
        d="M18.656 3.815a.85.85 0 010 1.203L3.489 20.185a.85.85 0 11-1.202-1.202L17.454 3.815a.85.85 0 011.202 0z"
        fill="currentColor"
      />
    </svg>
