<svg   fill="none" viewBox="0 0 24 24">
      <path
        fill-rule="evenodd"
        clip-rule="evenodd"
        d="M11.49 6.288c-.143-.46-.444-.592-.622-.586h-.029a1.14 1.14 0 00-.205.068 1.46 1.46 0 00-.332.199l-.012.01-3.296 2.687a.85.85 0 01-.538.191H4.582c-.372 0-.712.264-.794.836-.15 1.214-.164 3.389-.001 4.55l.002.016c.044.366.166.582.283.698.107.108.263.186.51.186h1.874a.85.85 0 01.536.19l3.366 2.734.01.009c.074.061.178.125.287.17.096.04.154.049.166.05l.002.001h.045c.18.006.48-.127.622-.588.083-.315.111-.597.146-.946.015-.15.031-.313.054-.496v-.002c.069-.547.108-2.365.108-4.265 0-1.9-.04-3.718-.108-4.265v-.002a29.76 29.76 0 01-.053-.467c-.04-.373-.073-.685-.148-.978zm-.652-2.286c1.095-.023 1.972.77 2.284 1.811a.96.96 0 01.008.03c.113.432.167.936.21 1.35l.037.333c.085.678.121 2.617.121 4.474 0 1.857-.036 3.796-.121 4.474-.013.103-.024.217-.036.34-.04.397-.087.883-.212 1.348a.7.7 0 01-.007.024c-.312 1.042-1.188 1.833-2.282 1.811a2.178 2.178 0 01-.84-.182 2.857 2.857 0 01-.719-.433l-3.126-2.539H4.582c-.658 0-1.259-.23-1.713-.684-.442-.443-.687-1.04-.767-1.687-.186-1.335-.166-3.662 0-4.996l.001-.013C2.27 8.28 3.146 7.157 4.582 7.157h1.572L9.21 4.666c.216-.182.483-.34.74-.452.236-.104.561-.214.888-.212zM15.543 6.857a.85.85 0 011.183.212c.916 1.318 1.442 3.047 1.442 4.931 0 1.885-.526 3.613-1.442 4.93a.85.85 0 11-1.396-.97c.697-1.002 1.138-2.382 1.138-3.96 0-1.577-.441-2.959-1.138-3.96a.85.85 0 01.213-1.183zM18.589 4.14a.85.85 0 011.183.212c1.409 2.026 2.23 4.705 2.23 7.647 0 2.943-.821 5.623-2.23 7.649a.85.85 0 01-1.396-.97c1.19-1.71 1.926-4.043 1.926-6.679 0-2.635-.737-4.967-1.926-6.676a.85.85 0 01.213-1.183z"
        fill="currentColor"
      />
    </svg>
