<svg viewBox="0 0 20 19" fill="none">
<path d="M9.1501 13.2109C9.1501 12.7436 9.5309 12.3575 10.0001 12.3575C10.4693 12.3575 10.8501 12.7312 10.8501 13.1985V13.2109C10.8501 13.6783 10.4693 14.0575 10.0001 14.0575C9.5309 14.0575 9.1501 13.6783 9.1501 13.2109Z" fill="currentColor"/>
<path fill-rule="evenodd" clip-rule="evenodd" d="M12.5196 1.48756L19.6322 13.9357C19.6503 13.9675 19.6664 14.0003 19.6803 14.0341C19.8042 14.3356 19.8727 14.6532 19.8904 14.9698L19.8907 14.9737C19.9725 16.5645 18.7492 17.9185 17.16 18.0017C17.1505 18.0022 17.141 18.0025 17.1315 18.0027C17.1262 18.0028 17.1209 18.0028 17.1156 18.0028H2.95558C2.94382 18.0028 2.93211 18.0026 2.92047 18.0021C2.89282 18.0033 2.86486 18.0031 2.83665 18.0015C2.51908 17.9837 2.20478 17.9151 1.90566 17.7946L1.90258 17.7934C0.429177 17.1932 -0.280916 15.513 0.318087 14.0376C0.332313 14.0026 0.348862 13.9686 0.367624 13.9357L7.48008 1.4877C7.74195 1.01638 8.13164 0.627012 8.60501 0.366477C9.99673 -0.403944 11.7474 0.0988594 12.5196 1.48756ZM2.92111 16.3035C2.93254 16.3031 2.94403 16.3028 2.95558 16.3028H17.0904C17.7341 16.2589 18.2252 15.7079 18.193 15.0629C18.1861 14.9435 18.1628 14.8293 18.1249 14.7245L11.0351 2.3161C10.7187 1.74413 9.99934 1.53734 9.42781 1.85409L9.42523 1.85552C9.23232 1.96156 9.07226 2.12126 8.9648 2.31572L8.95895 2.32632L1.8756 14.7232C1.66253 15.3166 1.95334 15.9775 2.54232 16.2183C2.66194 16.2663 2.78933 16.295 2.92111 16.3035Z" fill="currentColor"/>
<path fill-rule="evenodd" clip-rule="evenodd" d="M9.98993 6.40609C10.4594 6.40609 10.8399 6.78665 10.8399 7.25609V10.2879C10.8399 10.7573 10.4594 11.1379 9.98993 11.1379C9.52049 11.1379 9.13993 10.7573 9.13993 10.2879V7.25609C9.13993 6.78665 9.52049 6.40609 9.98993 6.40609Z" fill="currentColor"/>
</svg>
