  <svg  fill="none" viewBox="0 0 20 20">
      <g clip-path="url(#clip0)" fill-rule="evenodd" clip-rule="evenodd" fill="currentColor">
        <path
          d="M10.083 8.197a1.926 1.926 0 100 3.852 1.926 1.926 0 000-3.852zM6.74 10.124a3.342 3.342 0 116.685-.002 3.342 3.342 0 01-6.685.002z"
        />
        <path
          d="M10.209 3.333l.115.001a7.339 7.339 0 011.577.226c.48.123.95.294 1.403.51a9.064 9.064 0 012.47 1.756 11.5 11.5 0 011.57 1.947 13.765 13.765 0 011.098 2.071.708.708 0 010 .56 14.816 14.816 0 01-.657 1.338c-.341.612-.72 1.178-1.129 1.695a10.26 10.26 0 01-1.99 1.928 8.362 8.362 0 01-1.943 1.061 7.525 7.525 0 01-2.178.476 7.216 7.216 0 01-.358.014h-.1a9.053 9.053 0 01-.244-.003 7.305 7.305 0 01-2.064-.368 8.052 8.052 0 01-1.662-.769 9.447 9.447 0 01-1.82-1.449 11.433 11.433 0 01-1.314-1.609 13.22 13.22 0 01-.732-1.215 14.543 14.543 0 01-.527-1.1.708.708 0 010-.559l.048-.11a14.4 14.4 0 01.61-1.228c.271-.487.566-.946.882-1.373.28-.38.577-.734.889-1.063.38-.4.782-.762 1.204-1.082A8.313 8.313 0 017.78 3.702a7.38 7.38 0 012.064-.368c.066-.002.174 0 .242 0h.124zm.006 1.417H9.89a5.964 5.964 0 00-1.669.298 6.898 6.898 0 00-2.008 1.07 8.5 8.5 0 00-1.033.927c-.27.285-.53.596-.777.93-.278.377-.54.784-.784 1.221-.166.296-.322.605-.47.928.113.245.23.483.353.713.204.384.422.746.653 1.085.356.525.742.996 1.151 1.41a8.03 8.03 0 001.546 1.233c.443.268.9.48 1.37.635a6.049 6.049 0 001.778.3H10.168a5.834 5.834 0 00.935-.089 6.11 6.11 0 001.116-.309 6.948 6.948 0 001.614-.882 8.84 8.84 0 001.713-1.664c.36-.453.696-.956 1.002-1.504a12.82 12.82 0 00.469-.928 12.851 12.851 0 00-.862-1.582 10.088 10.088 0 00-1.376-1.708 7.65 7.65 0 00-2.083-1.485 6.32 6.32 0 00-1.146-.416 5.923 5.923 0 00-1.323-.183h-.012z"
        />
      </g>
      <defs>
        <clipPath id="clip0">
          <path fill="#fff" d="M0 0h20v20H0z" />
        </clipPath>
      </defs>
    </svg>
