  <svg   viewBox="0 0 24 25">
      <path
        fill-rule="evenodd"
        clip-rule="evenodd"
        d="M12.034 21.701h.004c4.941-.002 8.96-4.002 8.962-8.92 0-2.382-.93-4.623-2.622-6.31a8.926 8.926 0 00-6.34-2.615c-4.94 0-8.96 4.001-8.963 8.919a8.87 8.87 0 001.196 4.459L3 21.856l4.751-1.24a8.988 8.988 0 004.283 1.085zm4.212-6.999c.156.075.262.126.307.201.056.093.056.54-.13 1.06-.187.52-1.082.996-1.512 1.06a3.08 3.08 0 01-1.41-.089c-.326-.103-.743-.24-1.277-.47-2.1-.901-3.519-2.926-3.787-3.31l-.039-.054-.002-.003c-.118-.157-.912-1.212-.912-2.303 0-1.027.506-1.565.74-1.812l.043-.047a.824.824 0 01.598-.28c.149 0 .298.002.429.009h.05c.13 0 .293-.001.454.382l.247.598c.193.467.406.983.443 1.057.056.112.093.242.019.39a8.953 8.953 0 00-.032.064 1.266 1.266 0 01-.192.309 8.54 8.54 0 00-.115.137 3.705 3.705 0 01-.221.253c-.112.111-.229.232-.098.455.13.223.58.953 1.246 1.544.715.635 1.337.903 1.652 1.04.062.026.112.048.148.066.224.111.355.093.486-.056.13-.149.56-.65.709-.874.149-.223.298-.186.504-.111.205.074 1.306.613 1.53.725l.122.06z"
        fill="currentColor"
      />
    </svg>
