<svg width="19" height="14" viewBox="0 0 19 14" fill="none" xmlns="http://www.w3.org/2000/svg">
<g clip-path="url(#clip0_20580_2706)">
<path d="M17.3499 10.8813C17.0786 10.0045 16.678 9.24553 16.1463 8.60632C15.6165 7.96711 15.059 7.56369 14.4776 7.39605C16.4971 6.98342 17.505 5.82658 17.505 3.92921C17.505 1.43868 15.5925 0.386841 11.8932 0.386841C11.3634 0.386841 10.6453 0.425525 9.71309 0.477104C8.65165 0.528683 7.73974 0.445788 6.88505 0.445788C6.62661 0.742367 6.50293 1.05184 6.50293 1.56763C6.94227 1.56763 7.64928 1.41474 7.85603 1.56947C8.06278 1.72421 8.07017 2.25289 8.07017 2.60105L8.23261 11.8079C8.23261 12.1561 7.8265 12.705 7.54222 12.6774C7.28932 12.6534 6.95335 12.8192 6.52139 12.6405C6.52139 13.0918 6.66907 13.499 6.96812 13.86H11.8138C12.0981 13.5118 11.943 13.2632 11.943 12.799C11.5425 12.799 11.2563 12.88 11.0108 12.7179C10.7653 12.5576 10.9277 11.9884 10.9277 11.6532V8.11263H12.2089C12.5596 8.22869 12.8439 8.53816 13.0635 9.0429C13.2832 9.54579 13.49 10.1795 13.6838 10.9403C13.8647 11.6237 14.0622 12.1763 14.2764 12.5963C14.4905 13.0163 14.8191 13.3553 15.2658 13.6132C15.7125 13.8711 16.3235 14 17.0989 14C17.9259 14 18.4889 13.7937 18.7861 13.3811V12.4121C18.4243 12.3605 18.1289 12.215 17.9037 11.9774C17.6766 11.7361 17.4921 11.3713 17.3499 10.8813ZM13.6063 6.04947C13.1669 6.53395 12.5596 6.77526 11.7824 6.77526C11.4465 6.77526 11.1622 6.76237 10.9296 6.73658V1.74263C11.1234 1.69105 11.4409 1.66526 11.8803 1.66526C12.7073 1.66526 13.3128 1.86789 13.6949 2.275C14.077 2.6821 14.2671 3.29921 14.2671 4.12447C14.2653 4.92395 14.0456 5.56684 13.6063 6.04947Z" fill="currentColor"/>
<path d="M1.43617 10.8831C1.70753 10.0045 2.10811 9.24736 2.63975 8.60815C3.16955 7.96894 3.72703 7.56551 4.30852 7.39788C2.28902 6.98525 1.28111 5.82841 1.28111 3.93104C1.28111 1.44052 3.13078 0.388673 6.83013 0.388673C7.35992 0.388673 8.09278 0.381304 9.025 0.388673C10.0994 0.397883 10.9891 0.349989 11.9269 0.388673C12.1853 0.685252 12.3035 1.16973 12.3035 1.68551C11.434 1.6192 10.93 1.74446 10.93 1.74446L10.954 11.6789C10.9947 12.0142 11.1036 12.2592 11.3048 12.4139C11.506 12.5687 11.8253 12.646 12.2647 12.646C12.2647 13.0992 12.117 13.5045 11.818 13.8655H6.94642C6.66214 13.5174 6.52 13.1103 6.52 12.646C6.92058 12.646 7.24363 12.5668 7.49099 12.4047C7.7365 12.2445 7.85834 11.9958 7.85834 11.6605V8.11262H6.57723C6.22649 8.22867 5.94221 8.53815 5.72254 9.04104C5.50287 9.54578 5.29612 10.1776 5.10229 10.9403C4.92138 11.6237 4.72386 12.1763 4.50973 12.5963C4.2956 13.0163 3.96701 13.3553 3.52028 13.6131C3.07356 13.871 2.46254 14 1.68723 14C0.860227 14 0.297203 13.7937 0 13.381V12.4121C0.361812 12.3605 0.657169 12.215 0.882378 11.9774C1.10943 11.7379 1.29403 11.3731 1.43617 10.8831ZM7.00549 6.77709C7.34146 6.77709 7.62574 6.7642 7.85834 6.73841V1.74262C7.66451 1.69104 7.347 1.66525 6.90766 1.66525C6.08066 1.66525 5.47518 1.86788 5.09306 2.27499C4.71094 2.68209 4.5208 3.2992 4.5208 4.12446C4.5208 4.92578 4.74048 5.56683 5.17982 6.0513C5.61916 6.53578 6.22834 6.77709 7.00549 6.77709Z" fill="currentColor"/>
</g>
<defs>
<clipPath id="clip0_20580_2706">
<rect width="19" height="14" fill="currentColor"/>
</clipPath>
</defs>
</svg>
