<?xml version="1.0" standalone="no"?>
<!DOCTYPE svg PUBLIC "-//W3C//DTD SVG 20010904//EN"
 "http://www.w3.org/TR/2001/REC-SVG-20010904/DTD/svg10.dtd">
<svg version="1.0" xmlns="http://www.w3.org/2000/svg"
 width="1280.000000pt" height="1280.000000pt" viewBox="0 0 1280.000000 1280.000000"
 preserveAspectRatio="xMidYMid meet">
<metadata>
Created by potrace 1.14, written by Peter Selinger 2001-2017
</metadata>
<g transform="translate(0.000000,1280.000000) scale(0.100000,-0.100000)"
fill="#000000" stroke="none">
<path d="M5067 11093 c-1 -1 -194 -3 -429 -5 -236 -1 -428 -5 -428 -8 0 -3
-42 -6 -93 -7 -50 0 -126 -4 -167 -7 -185 -15 -217 -17 -250 -23 -19 -3 -38
-7 -42 -10 -5 -2 -8 1 -8 7 0 6 -4 9 -8 6 -12 -7 -98 -21 -207 -32 -33 -3 -69
-8 -80 -10 -11 -3 -35 -7 -54 -10 -18 -3 -43 -7 -54 -10 -12 -2 -39 -6 -62
-10 -22 -3 -80 -14 -130 -25 -49 -10 -103 -21 -119 -24 -15 -2 -36 -7 -46 -10
-10 -3 -27 -8 -37 -10 -10 -2 -52 -13 -93 -24 -41 -12 -88 -24 -105 -27 -16
-3 -38 -10 -48 -16 -10 -5 -27 -11 -37 -13 -85 -16 -505 -192 -522 -219 -4 -6
-8 -7 -8 -3 0 5 -13 -1 -29 -12 -16 -12 -32 -21 -35 -21 -7 0 -109 -61 -116
-70 -3 -3 -29 -21 -58 -39 -30 -19 -59 -39 -65 -45 -7 -6 -35 -29 -62 -51 -28
-22 -55 -44 -61 -50 -90 -83 -119 -112 -175 -176 -64 -72 -194 -249 -183 -249
3 0 -6 -15 -19 -32 -26 -37 -85 -156 -117 -238 -12 -30 -26 -64 -30 -75 -19
-48 -40 -113 -50 -155 -6 -25 -13 -54 -16 -65 -3 -11 -7 -31 -10 -45 -3 -14
-7 -32 -9 -40 -3 -8 -7 -33 -10 -55 -4 -22 -8 -51 -10 -65 -24 -147 -28 -205
-28 -445 0 -236 3 -289 28 -465 3 -25 8 -58 10 -75 2 -16 5 -32 6 -35 1 -3 3
-9 4 -15 2 -5 4 -12 5 -15 1 -3 4 -18 6 -35 10 -66 81 -298 110 -362 8 -17 14
-33 14 -36 0 -25 164 -328 182 -335 4 -2 8 -8 8 -13 0 -5 6 -17 14 -26 8 -10
35 -45 60 -78 87 -117 268 -290 406 -389 36 -25 70 -50 77 -56 7 -5 17 -10 23
-10 5 0 10 -4 10 -10 0 -5 6 -10 14 -10 8 0 21 -6 28 -13 7 -7 27 -20 43 -29
264 -137 418 -205 472 -209 5 0 16 -8 26 -16 9 -9 17 -14 17 -10 0 3 28 -4 63
-15 51 -16 148 -45 217 -63 8 -3 52 -13 98 -23 79 -18 114 -32 79 -32 -10 0
-55 -15 -102 -34 -47 -19 -85 -31 -85 -28 0 4 -4 1 -9 -6 -4 -7 -14 -14 -22
-15 -8 -2 -34 -14 -59 -27 -25 -14 -62 -34 -83 -45 -20 -11 -37 -23 -37 -28 0
-4 -4 -5 -10 -2 -5 3 -10 1 -10 -4 0 -6 -6 -11 -13 -11 -15 0 -252 -177 -307
-229 -82 -77 -220 -213 -220 -216 0 -2 -19 -24 -43 -48 -54 -57 -88 -97 -83
-97 3 0 -8 -12 -22 -28 -29 -29 -64 -74 -124 -156 -21 -28 -41 -55 -46 -61
-11 -14 -75 -107 -87 -127 -5 -9 -36 -58 -67 -108 -32 -51 -58 -96 -58 -101 0
-5 -5 -9 -11 -9 -5 0 -7 -4 -4 -10 3 -5 3 -10 -2 -10 -4 0 -14 -15 -22 -33 -8
-17 -23 -43 -33 -56 -10 -13 -18 -32 -18 -42 0 -9 -3 -19 -7 -21 -11 -4 -83
-147 -83 -164 0 -8 -3 -14 -8 -14 -8 0 -58 -121 -54 -132 1 -5 -2 -8 -8 -8 -5
0 -10 -6 -10 -12 -1 -7 -9 -31 -20 -53 -11 -22 -19 -46 -20 -53 0 -7 -4 -20
-10 -30 -15 -26 -32 -71 -45 -117 -4 -16 -11 -34 -16 -40 -4 -5 -8 -14 -9 -20
0 -5 -19 -66 -41 -135 -22 -69 -41 -132 -43 -140 -2 -8 -9 -31 -17 -50 -7 -19
-12 -38 -11 -42 1 -5 -3 -8 -10 -8 -6 0 -9 -3 -6 -6 16 -15 -147 -354 -197
-410 -5 -6 -17 -22 -25 -35 -21 -32 -80 -99 -110 -125 -14 -12 -37 -32 -52
-45 -59 -53 -78 -66 -149 -102 -81 -43 -185 -84 -227 -91 -15 -2 -28 -5 -29
-6 -2 -2 -7 -4 -13 -5 -5 -1 -11 -3 -12 -4 -2 -1 -18 -4 -37 -6 -18 -1 -36 -7
-40 -13 -5 -8 -7 -567 -2 -648 2 -40 228 -244 270 -244 5 0 11 -4 13 -8 9 -23
280 -120 378 -135 152 -25 175 -28 275 -34 168 -11 483 -5 605 12 19 3 58 7
85 10 28 3 64 8 80 11 17 3 41 7 55 9 14 2 39 7 55 11 17 3 36 7 43 7 6 0 12
4 12 9 0 5 4 6 10 3 24 -15 403 118 440 155 3 3 23 14 45 25 22 11 42 22 45
25 3 3 17 12 32 20 102 57 304 233 413 360 50 58 141 199 189 295 69 138 115
243 108 249 -3 3 -1 6 5 6 5 0 10 6 10 13 1 6 14 44 31 82 24 59 109 298 117
330 1 6 5 17 8 25 3 8 16 49 27 90 12 41 24 82 27 90 3 8 7 20 8 25 2 6 8 30
16 55 7 25 14 54 16 65 2 11 8 31 13 45 5 14 12 36 14 50 8 43 56 214 66 238
6 14 6 21 0 17 -5 -3 -3 7 5 22 8 15 15 36 15 45 0 9 5 20 10 23 6 4 8 10 5
15 -5 8 9 57 88 305 22 72 42 132 42 135 1 3 4 12 7 20 25 66 42 117 44 125 7
28 47 132 56 143 6 6 8 12 5 12 -4 0 7 33 24 73 68 163 114 258 161 336 21 34
38 67 38 72 0 5 3 9 8 9 4 0 18 17 32 37 52 78 270 276 270 246 0 -4 4 -3 8 2
10 14 72 48 72 39 0 -3 7 -1 14 6 11 8 114 12 395 12 209 0 385 -3 390 -6 5
-4 12 -3 14 1 3 5 25 7 50 5 l44 -4 -1 -259 c0 -142 3 -259 7 -259 5 0 5 -5 1
-12 -11 -18 -12 -68 -2 -68 5 0 6 -5 2 -12 -10 -16 -11 -148 -1 -148 4 0 5 -5
1 -12 -11 -18 -12 -68 -2 -68 5 0 6 -5 2 -12 -10 -16 -11 -628 -1 -628 5 0 5
-5 1 -12 -11 -18 -12 -68 -2 -68 5 0 6 -5 2 -12 -10 -16 -11 -148 -1 -148 4 0
5 -5 1 -12 -11 -18 -12 -68 -2 -68 5 0 6 -5 2 -11 -4 -7 -8 -174 -9 -373 -3
-395 -5 -419 -65 -542 -49 -100 -164 -205 -282 -258 -21 -9 -53 -23 -72 -31
-19 -8 -41 -15 -49 -15 -9 0 -19 -5 -22 -10 -4 -6 -11 -8 -16 -5 -5 4 -15 3
-21 -1 -7 -5 -19 -9 -28 -10 -32 -5 -86 -15 -108 -20 -13 -2 -67 -7 -120 -10
-53 -3 -103 -7 -109 -9 -9 -3 -11 -24 -8 -77 14 -201 48 -331 136 -523 5 -11
18 -33 29 -50 11 -16 24 -39 29 -50 5 -11 28 -45 50 -75 l42 -55 1646 0 1646
0 54 71 c29 39 53 76 53 82 0 7 5 12 10 12 6 0 10 6 10 14 0 7 6 19 14 25 8 7
17 24 21 39 4 15 12 33 18 41 18 21 82 203 91 257 2 16 5 29 6 29 2 0 4 14 5
30 2 17 4 30 5 30 2 0 8 51 14 126 2 31 1 61 -3 66 -3 6 -55 13 -116 17 -155
9 -190 15 -350 60 -5 1 -27 10 -49 19 -21 9 -42 17 -47 17 -5 0 -9 3 -9 8 0 4
-13 13 -29 20 -63 28 -184 170 -206 242 -4 14 -11 30 -15 35 -4 6 -11 24 -15
40 -5 17 -9 32 -10 35 -16 48 -25 106 -31 185 -8 122 -10 2416 -2 2421 12 8
835 6 861 -1 36 -10 147 -68 147 -77 0 -4 6 -8 14 -8 25 0 190 -171 245 -252
28 -42 51 -81 51 -87 0 -5 4 -11 8 -13 19 -8 206 -431 215 -486 2 -9 9 -28 17
-42 7 -14 12 -25 11 -25 -1 0 1 -9 4 -20 19 -56 28 -82 35 -100 9 -22 40 -119
44 -138 2 -7 6 -19 9 -27 11 -29 32 -95 33 -105 0 -5 4 -17 7 -25 5 -12 53
-179 62 -215 1 -5 5 -17 8 -25 6 -16 48 -178 51 -195 1 -5 5 -16 9 -22 5 -7 6
-13 3 -13 -2 0 0 -15 5 -32 6 -18 12 -40 14 -48 2 -8 15 -58 30 -110 15 -52
28 -99 29 -105 2 -5 13 -44 26 -85 13 -41 24 -77 25 -80 5 -26 40 -128 47
-136 5 -7 8 -16 7 -20 -1 -5 1 -16 4 -24 4 -8 18 -49 33 -90 74 -211 200 -481
282 -605 25 -38 49 -72 52 -75 3 -3 13 -15 21 -26 35 -52 156 -178 232 -242
84 -71 258 -192 275 -192 6 0 12 -3 14 -7 11 -25 297 -140 421 -169 4 -1 8 -2
10 -4 1 -1 11 -3 22 -5 11 -2 34 -6 50 -10 17 -4 38 -7 48 -8 9 -1 17 -5 17
-10 0 -4 4 -6 9 -3 5 3 33 1 62 -5 30 -6 72 -12 94 -14 22 -3 56 -7 75 -9 179
-24 608 -25 750 -1 14 2 43 7 65 10 112 18 184 34 207 46 10 5 18 8 18 5 0 -2
24 5 53 16 28 11 67 25 85 31 17 6 32 14 32 19 0 4 7 8 15 8 50 0 235 146 320
252 7 8 10 136 10 345 l0 331 -45 8 c-60 10 -55 9 -135 33 -191 59 -360 176
-476 328 -24 32 -46 60 -49 63 -3 3 -11 15 -17 28 -7 12 -19 32 -25 45 -7 12
-15 24 -18 27 -9 8 -76 148 -103 215 -37 92 -40 99 -43 110 -1 6 -16 51 -32
101 -17 50 -32 100 -34 110 -2 10 -6 21 -10 24 -4 3 -9 15 -11 25 -1 11 -6 26
-10 33 -5 6 -6 12 -3 12 2 0 -9 37 -26 82 -17 46 -39 106 -49 133 -22 64 -41
110 -94 230 -72 160 -188 386 -246 476 -16 25 -29 51 -29 57 0 7 -4 12 -10 12
-5 0 -10 7 -10 15 0 8 -4 15 -9 15 -5 0 -11 8 -15 18 -5 17 -22 45 -41 69 -26
32 -31 40 -49 68 -11 17 -44 64 -75 105 -70 94 -66 88 -101 130 -17 19 -40 48
-53 63 -64 82 -240 263 -336 347 -35 30 -69 60 -75 65 -28 27 -178 135 -186
135 -6 0 -10 5 -10 10 0 6 -4 10 -9 10 -9 0 -110 59 -121 70 -10 11 -207 102
-225 104 -5 1 -21 7 -35 13 -14 6 -38 16 -54 22 -35 14 -31 19 17 25 21 3 41
7 45 10 4 2 25 7 47 10 36 6 57 12 135 37 35 11 174 53 180 53 3 1 19 6 35 13
55 21 70 26 80 28 21 5 266 116 322 146 103 56 256 152 287 181 11 10 23 18
27 18 4 0 14 6 21 13 7 6 43 37 78 67 90 76 279 270 264 270 -3 0 1 6 8 13 37
37 152 207 141 207 -4 0 -3 4 3 8 31 21 188 370 191 425 1 4 6 20 11 35 15 37
48 180 66 282 24 131 35 244 40 391 2 53 7 102 10 108 4 6 3 11 -2 11 -5 0 -7
12 -5 28 2 15 4 32 4 37 -5 101 -11 193 -16 245 -10 103 -11 112 -30 225 -7
45 -55 233 -70 280 -10 28 -18 55 -19 60 -2 6 -10 27 -19 49 -9 21 -17 40 -17
42 0 3 -24 54 -54 114 -71 143 -187 318 -266 400 -14 15 -37 40 -51 56 -28 31
-151 144 -189 172 -12 9 -37 29 -55 45 -18 15 -37 27 -43 27 -6 0 -12 4 -14 8
-4 11 -94 72 -106 72 -5 0 -17 9 -27 20 -10 11 -21 17 -26 15 -4 -3 -10 -1
-14 4 -6 11 -16 16 -145 81 -47 23 -92 46 -101 50 -8 4 -51 22 -95 40 -43 18
-92 38 -109 45 -16 7 -57 21 -90 31 -33 10 -62 22 -63 26 -2 5 -8 6 -13 2 -5
-3 -15 -2 -21 3 -15 9 -23 11 -65 19 -18 4 -33 11 -33 16 0 5 -4 7 -8 4 -5 -3
-25 -1 -45 5 -20 5 -40 10 -44 11 -5 0 -19 5 -33 10 -14 5 -43 13 -65 18 -22
4 -74 15 -115 25 -41 9 -84 18 -95 20 -11 2 -33 6 -50 9 -33 7 -86 16 -125 22
-14 2 -41 7 -60 10 -57 10 -73 12 -125 18 -27 4 -66 8 -85 11 -90 12 -220 25
-275 29 -18 1 -37 5 -41 8 -4 4 -14 3 -24 -2 -10 -5 -20 -7 -23 -3 -6 5 -56
10 -162 14 -27 1 -58 6 -67 11 -10 5 -18 5 -18 1 0 -5 -17 -7 -37 -5 -159 12
-488 14 -1946 16 -912 0 -1659 0 -1660 -1z m-305 -878 c10 -1 18 2 18 7 0 5 8
4 18 -1 10 -6 24 -6 32 -1 8 5 18 6 23 3 5 -3 64 -7 131 -8 135 -3 224 -12
355 -35 30 -6 56 -10 57 -10 1 0 1 -16 -1 -35 -1 -19 2 -35 7 -35 5 0 6 -5 2
-12 -10 -16 -11 -628 -1 -628 5 0 5 -5 1 -12 -11 -18 -12 -68 -2 -68 5 0 6 -5
2 -12 -10 -16 -11 -148 -1 -148 4 0 5 -5 1 -12 -11 -18 -12 -68 -2 -68 5 0 6
-5 2 -12 -10 -16 -11 -628 -1 -628 5 0 5 -5 1 -12 -11 -18 -12 -68 -2 -68 5 0
6 -5 2 -12 -10 -16 -11 -148 -1 -148 4 0 5 -5 1 -12 -11 -18 -12 -68 -2 -68 5
0 6 -5 2 -12 -10 -16 -11 -948 -1 -948 5 0 5 -5 1 -12 -11 -18 -12 -68 -2 -68
5 0 6 -5 2 -12 -10 -16 -11 -148 -1 -148 4 0 5 -5 1 -12 -11 -17 -12 -68 -2
-68 5 0 5 -8 0 -17 -4 -10 -7 -42 -7 -70 1 -29 -1 -53 -4 -54 -115 -20 -646
-32 -766 -18 -38 4 -91 11 -117 14 -25 2 -52 7 -60 9 -7 3 -29 7 -48 10 -66
10 -93 17 -112 27 -10 5 -23 7 -28 4 -6 -3 -10 -1 -10 6 0 7 -3 10 -6 7 -3 -3
-29 3 -57 14 -29 11 -64 23 -79 28 -15 5 -55 23 -90 41 -240 126 -415 280
-556 489 -31 47 -60 87 -63 90 -8 7 -97 194 -115 243 -9 23 -20 51 -24 62 -10
23 -28 83 -35 111 -2 10 -13 55 -24 98 -11 43 -20 82 -19 85 0 3 -1 8 -2 11
-5 13 -10 50 -15 100 -2 30 -5 55 -6 55 -6 0 -12 144 -12 305 0 234 10 370 38
510 3 14 7 36 10 50 2 14 14 61 26 105 12 44 22 86 22 93 0 6 4 12 7 12 4 0
10 13 13 30 4 16 16 49 27 72 11 23 20 45 20 49 0 4 21 44 47 90 52 95 115
182 182 252 52 55 200 173 213 170 4 -2 8 1 8 6 0 5 12 14 28 20 15 6 47 23
72 37 25 14 45 24 45 24 0 -2 59 20 80 30 41 20 234 70 330 86 115 19 141 21
289 28 59 3 111 7 113 10 3 3 11 2 17 -1 6 -4 19 -8 28 -8z m3643 -9 c17 -2
57 -7 90 -10 33 -4 76 -11 95 -16 19 -5 51 -11 70 -14 19 -3 51 -10 70 -16 19
-6 46 -13 59 -16 13 -3 40 -12 60 -20 20 -9 43 -17 53 -19 41 -9 233 -111 266
-142 7 -7 17 -13 21 -13 4 0 26 -17 48 -37 23 -21 50 -45 60 -54 15 -13 93
-99 123 -136 72 -89 202 -355 214 -440 1 -7 5 -16 9 -19 4 -4 7 -19 7 -34 0
-15 3 -30 7 -34 4 -3 8 -14 9 -24 2 -9 6 -33 10 -52 17 -84 23 -121 30 -180 3
-30 9 -82 14 -115 8 -61 6 -514 -3 -550 -3 -11 -8 -49 -12 -85 -4 -36 -9 -69
-12 -73 -3 -4 -6 -25 -8 -45 -7 -65 -75 -295 -110 -367 -7 -16 -20 -45 -27
-62 -7 -18 -17 -33 -21 -33 -5 0 -6 -4 -3 -8 3 -5 -11 -34 -30 -66 -18 -31
-34 -61 -34 -67 0 -5 -4 -9 -9 -9 -5 0 -13 -10 -17 -22 -4 -13 -9 -25 -13 -28
-3 -3 -28 -34 -55 -70 -27 -36 -57 -72 -65 -81 -9 -9 -30 -31 -47 -50 -79 -86
-287 -251 -303 -240 -2 1 -7 -1 -10 -6 -6 -10 -148 -79 -216 -106 -84 -33
-220 -69 -310 -82 -22 -4 -47 -8 -55 -10 -90 -24 -591 -24 -835 -1 -11 1 -25
5 -31 9 -8 5 -11 107 -10 342 0 184 -3 335 -7 335 -5 0 -5 4 -2 10 6 10 6 23
6 280 0 80 0 152 0 160 0 8 -1 522 -3 1142 -1 620 0 1129 2 1131 9 9 194 36
285 43 50 4 91 8 93 9 5 4 516 -4 547 -9z"/>
</g>
</svg>
