<svg xmlns="http://www.w3.org/2000/svg" version="1.1" xmlns:xlink="http://www.w3.org/1999/xlink" xmlns:svgjs="http://svgjs.com/svgjs" width="100" height="100"><svg width="100" height="100" viewBox="-10 -20 100 100" fill="none" xmlns="http://www.w3.org/2000/svg">
    <rect x="-40" y="-20" width="180" height="180" style="fill:rgb(0, 164, 234)"></rect>
    <path d="M73.8378 44.9224C72.6914 41.1837 70.999 37.9477 68.753 35.2222C66.5147 32.4967 64.1594 30.7766 61.7028 30.0619C70.2348 28.3025 74.4929 23.3699 74.4929 15.2798C74.4929 4.66066 66.4133 0.175781 50.7844 0.175781C48.5461 0.175781 45.5124 0.340724 41.5739 0.560648C37.0896 0.780572 33.237 0.427123 29.6261 0.427123C28.5342 1.69169 28.0117 3.01123 28.0117 5.21047C29.8678 5.21047 32.8548 4.55855 33.7283 5.21832C34.6018 5.87809 34.633 8.13231 34.633 9.6168L35.3193 48.8732C35.3193 50.3577 33.6035 52.6983 32.4025 52.5805C31.334 52.4784 29.9593 53.3424 28.1344 52.5805C28.1344 54.5048 28.7136 56.0836 29.977 57.623H50.449C51.6501 56.1385 50.995 55.0782 50.995 53.0989C49.3026 53.0989 48.0938 53.4445 47.0565 52.7533C46.0193 52.07 46.7056 49.6429 46.7056 48.2134V33.1172H52.118C53.5998 33.6121 54.8008 34.9316 55.7289 37.0837C56.6569 39.228 57.5304 41.9299 58.3493 45.1738C59.1136 48.0878 59.9481 50.4441 60.8527 52.2349C61.7574 54.0257 63.1456 55.4709 65.0329 56.5705C66.9202 57.6702 69.5017 58.22 72.7772 58.22C76.2711 58.22 78.6497 57.3403 79.9053 55.5809V51.4495C78.3768 51.2295 77.1289 50.609 76.1775 49.5958C75.2182 48.5669 74.4383 47.0117 73.8378 44.9224ZM58.0217 24.3203C56.1656 26.386 53.5998 27.4149 50.3165 27.4149C48.8971 27.4149 47.696 27.3599 46.7134 27.25V5.95664C47.5323 5.73671 48.8737 5.62675 50.7298 5.62675C54.2237 5.62675 56.7817 6.49074 58.3961 8.22657C60.0105 9.96239 60.8137 12.5936 60.8137 16.1124C60.8059 19.5212 59.8779 22.2624 58.0217 24.3203Z" fill="white"></path>
    <path d="M6.60317 44.9301C7.7496 41.1836 9.44195 37.9554 11.688 35.2299C13.9263 32.5045 16.2816 30.7843 18.7382 30.0696C10.2062 28.3102 5.94806 23.3776 5.94806 15.2876C5.94806 4.66842 13.7625 0.18355 29.3915 0.18355C31.6297 0.18355 34.7259 0.152133 38.6643 0.18355C43.2033 0.222822 46.9623 0.0186078 50.9241 0.18355C52.016 1.44811 52.5151 3.51382 52.5151 5.71306C48.8419 5.4303 46.7128 5.9644 46.7128 5.9644L46.8141 48.3232C46.9857 49.7527 47.4459 50.7974 48.2959 51.4571C49.146 52.1169 50.4952 52.4468 52.3513 52.4468C52.3513 54.379 51.7274 56.107 50.464 57.6464H29.8828C28.6818 56.1619 28.0813 54.4261 28.0813 52.4468C29.7736 52.4468 31.1384 52.1091 32.1835 51.4179C33.2207 50.7345 33.7354 49.6742 33.7354 48.2447V33.1171H28.323C26.8412 33.6119 25.6402 34.9315 24.7121 37.0757C23.7841 39.2278 22.9106 41.9219 22.0917 45.1736C21.3274 48.0876 20.493 50.4439 19.5883 52.2347C18.6836 54.0255 17.2954 55.4707 15.4081 56.5704C13.5208 57.67 10.9393 58.2198 7.66381 58.2198C4.16992 58.2198 1.79126 57.3401 0.535645 55.5807V51.4493C2.06422 51.2294 3.31204 50.6089 4.2635 49.5956C5.22277 48.5746 6.00265 47.0194 6.60317 44.9301ZM30.1324 27.4227C31.5518 27.4227 32.7528 27.3677 33.7354 27.2577V5.95654C32.9166 5.73662 31.5751 5.62666 29.719 5.62666C26.2251 5.62666 23.6671 6.49064 22.0527 8.22647C20.4384 9.96229 19.6351 12.5935 19.6351 16.1123C19.6351 19.529 20.5631 22.2623 22.4193 24.328C24.2754 26.3937 26.849 27.4227 30.1324 27.4227Z" fill="#003861"></path>
</svg><style>@media (prefers-color-scheme: light) { :root { filter: none; } }
</style></svg>