<svg width="85" height="29" viewBox="0 0 85 29" fill="none" xmlns="http://www.w3.org/2000/svg">
<g clip-path="url(#clip0_33736_63703)">
<path d="M34.6998 22.1294C34.1571 20.3561 33.3559 18.8212 32.2927 17.5285C31.2331 16.2357 30.1181 15.4198 28.9551 15.0808C32.9941 14.2463 35.0099 11.9067 35.0099 8.06941C35.0099 3.03253 31.1851 0.905273 23.7864 0.905273C22.7268 0.905273 21.2906 0.983509 19.4262 1.08782C17.3033 1.19214 15.4795 1.02449 13.7701 1.02449C13.2532 1.6243 13.0059 2.25018 13.0059 3.29332C13.8845 3.29332 15.2986 2.9841 15.7121 3.29704C16.1256 3.60999 16.1403 4.67921 16.1403 5.38333L16.4652 24.0034C16.4652 24.7075 15.653 25.8177 15.0844 25.7618C14.5786 25.7134 13.9067 26.0487 13.0428 25.6873C13.0428 26.6001 13.3381 27.4234 13.9362 28.1536H23.6276C24.1962 27.4495 23.8861 26.9465 23.8861 26.0077C23.0849 26.0077 22.5127 26.1716 22.0216 25.8438C21.5306 25.5197 21.8555 24.3685 21.8555 23.6904V16.53H24.4177C25.1192 16.7647 25.6877 17.3906 26.1271 18.4114C26.5664 19.4285 26.9799 20.71 27.3676 22.2487C27.7294 23.6308 28.1244 24.7485 28.5527 25.5979C28.981 26.4473 29.6381 27.1328 30.5316 27.6544C31.425 28.1759 32.6471 28.4367 34.1977 28.4367C35.8517 28.4367 36.9778 28.0195 37.5722 27.185V25.2253C36.8485 25.121 36.2578 24.8267 35.8074 24.3461C35.3533 23.8581 34.9841 23.1204 34.6998 22.1294ZM27.2125 12.3575C26.3338 13.3373 25.1192 13.8253 23.5649 13.8253C22.8929 13.8253 22.3244 13.7992 21.8592 13.7471V3.64724C22.2468 3.54293 22.8819 3.49077 23.7605 3.49077C25.4145 3.49077 26.6255 3.90058 27.3897 4.72391C28.154 5.54725 28.5342 6.79529 28.5342 8.46431C28.5306 10.0812 28.0912 11.3814 27.2125 12.3575Z" fill="#00A4EA"/>
<path d="M83.7967 16.4331C82.9919 15.2707 82.0431 14.3394 80.9429 13.6315C79.8427 12.9274 78.4766 12.1711 76.8485 11.359C75.7889 10.8374 74.9397 10.3717 74.3047 9.96936C73.6697 9.56328 73.1491 9.07524 72.7319 8.50151C72.3184 7.92779 72.1117 7.24975 72.1117 6.46367C72.1117 5.49876 72.3701 4.72013 72.887 4.1315C73.4039 3.54287 74.1792 3.25229 75.2129 3.25229C77.9302 3.25229 79.754 5.15974 80.6844 8.97093H83.9075V8.3823C83.9075 6.527 83.841 4.8915 83.7118 3.46836C83.5826 2.04522 83.2836 0.931299 82.8184 0.119141L79.5178 1.1362C78.9234 0.797181 78.1296 0.543847 77.1328 0.372475C76.1359 0.204827 75.2129 0.119141 74.3601 0.119141C72.7283 0.119141 71.2552 0.420906 69.9334 1.02071C68.6154 1.62052 67.5743 2.48856 66.81 3.62483C66.0458 4.76111 65.6655 6.09857 65.6655 7.6372C65.6655 9.7272 66.2858 11.5005 67.5263 12.9647C68.7668 14.4288 70.6054 15.7588 73.0384 16.9584C74.8511 17.8451 76.2393 18.6758 77.2103 19.4433C78.1813 20.2145 78.6649 21.1608 78.6649 22.2821C78.6649 23.0384 78.4065 23.7314 77.8896 24.3572C77.3727 24.9831 76.5716 25.2961 75.4824 25.2961C73.8248 25.2961 72.3886 24.6627 71.1739 23.3961C69.9556 22.1294 69.1434 20.4008 68.7299 18.2064H64.8496C64.8496 19.827 65.0305 21.6861 65.3923 23.7872C65.7541 25.8884 66.1824 27.4345 66.6734 28.4292L69.6639 27.0992C71.7314 27.9859 73.8137 28.4292 75.9107 28.4292C77.7493 28.4292 79.3553 28.0753 80.7398 27.3712C82.1243 26.667 83.1765 25.7208 83.9038 24.5323C84.6274 23.3439 84.9892 22.0213 84.9892 20.5572C85.0003 18.9739 84.5979 17.5955 83.7967 16.4331Z" fill="#00A4EA"/>
<path d="M53.9906 0.592593C53.422 1.1924 53.1377 2.01573 53.1377 3.05887C54.1198 3.05887 54.825 3.20789 55.2532 3.50966C55.6778 3.81142 55.8919 4.31437 55.8919 5.01849V19.0785C55.8919 20.7475 55.5227 22.0999 54.7844 23.1319C54.0497 24.1638 52.8645 24.6779 51.2364 24.6779C49.6082 24.6779 48.3973 24.1117 47.6072 22.9754C46.8171 21.8391 46.4221 20.3303 46.4221 18.4526V5.01849C46.4221 4.31437 46.603 3.81142 46.9648 3.50966C47.3266 3.21162 47.9468 3.05887 48.8292 3.05887C48.8292 2.06789 48.5339 1.24456 47.9358 0.592593H38.2333C37.6389 1.24456 37.3398 2.06789 37.3398 3.05887C38.2185 3.05887 38.8388 3.20789 39.2006 3.50966C39.5624 3.81142 39.7433 4.31437 39.7433 5.01849V17.6293C39.7433 21.1275 40.6995 23.8025 42.6157 25.6578C44.5318 27.5131 47.1678 28.437 50.5312 28.437C53.8687 28.437 56.383 27.4758 58.0776 25.5572C59.7722 23.6385 60.6177 20.863 60.6177 17.2344V5.01476C60.6177 4.31064 60.8318 3.8077 61.2564 3.50593C61.6846 3.20789 62.3861 3.05515 63.3719 3.05515C63.3719 2.06416 63.0876 1.24083 62.519 0.588867H53.9906V0.592593Z" fill="#00A4EA"/>
<path d="M2.87234 22.1331C3.41506 20.356 4.21622 18.8248 5.2795 17.5321C6.3391 16.2393 7.45407 15.4235 8.61703 15.0844C4.57803 14.2499 2.56222 11.9103 2.56222 8.07305C2.56222 3.03617 6.26156 0.908915 13.6603 0.908915C14.7198 0.908915 16.1856 0.894013 18.05 0.908915C20.1987 0.927542 21.9782 0.830679 23.8538 0.908915C24.3706 1.50872 24.6069 2.48853 24.6069 3.53167C22.868 3.39755 21.8601 3.65088 21.8601 3.65088L21.9081 23.7425C21.9893 24.4205 22.2071 24.916 22.6096 25.229C23.012 25.5419 23.6507 25.6984 24.5294 25.6984C24.5294 26.6149 24.234 27.4345 23.6359 28.1647H13.8928C13.3243 27.4605 13.04 26.6372 13.04 25.6984C13.8412 25.6984 14.4873 25.5382 14.982 25.2103C15.473 24.8862 15.7167 24.3833 15.7167 23.7052V16.5299H13.1545C12.453 16.7646 11.8844 17.3905 11.4451 18.4076C11.0057 19.4284 10.5922 20.7062 10.2046 22.2486C9.84276 23.6307 9.44773 24.7484 9.01946 25.5978C8.59119 26.4472 7.93402 27.1327 7.04057 27.6543C6.14711 28.1758 4.92507 28.4366 3.37445 28.4366C1.72045 28.4366 0.594406 28.0194 0 27.1849V25.2252C0.723624 25.1209 1.31434 24.8266 1.76476 24.346C2.21887 23.8617 2.58806 23.1241 2.87234 22.1331ZM14.011 13.8289C14.6829 13.8289 15.2515 13.8029 15.7167 13.7507V3.64716C15.329 3.54284 14.694 3.49069 13.8153 3.49069C12.1613 3.49069 10.9504 3.90049 10.1861 4.72383C9.42188 5.54716 9.04161 6.7952 9.04161 8.46423C9.04161 10.0848 9.48095 11.3813 10.3596 12.3611C11.2383 13.3409 12.4567 13.8289 14.011 13.8289Z" fill="#003861"/>
</g>
<defs>
<clipPath id="clip0_33736_63703">
<rect width="85" height="28.3138" fill="white" transform="translate(0 0.123047)"/>
</clipPath>
</defs>
</svg>
