<svg width="126" height="112" viewBox="0 0 126 112" fill="none" xmlns="http://www.w3.org/2000/svg">
    <g clip-path="url(#clip0_1_84252)">
        <path d="M98.312 48.8993C98.312 49.5218 98.312 50.1419 98.2883 50.7621C97.8978 65.8846 94.842 81.4545 86.2523 94.1698C83.3508 98.4736 79.8175 102.316 75.7714 105.567C72.3937 108.263 66.01 113.567 61.3731 111.546C53.2118 107.995 46.2246 101.974 41.048 94.7403C32.1435 82.2735 28.8487 66.6799 28.5031 51.5882C28.4416 48.8212 28.5031 46.0589 28.6096 43.3038C28.6357 42.6789 28.4321 41.3581 28.7848 40.8279C29.0996 40.3546 30.2996 40.0516 30.8062 39.8102L40.4823 35.1709C47.169 31.966 53.7941 28.3398 60.6465 25.5113C61.5554 25.135 62.3791 24.5906 63.3069 24.2568C63.445 24.1995 63.5942 24.1742 63.7434 24.1828C63.8927 24.1914 64.038 24.2337 64.1685 24.3065C74.9027 29.6417 85.7079 34.8537 96.4729 40.1179C96.9655 40.3172 97.4107 40.618 97.7794 41.0007C98.6434 42.0446 98.3522 43.763 98.3262 45.0056C98.2978 46.2956 98.312 47.6022 98.312 48.8993ZM94.7497 50.8094C94.8278 48.575 94.7497 46.343 94.6645 44.1109C94.6772 43.9247 94.6301 43.7393 94.53 43.5818C94.43 43.4243 94.2822 43.3028 94.1083 43.2352C92.6881 42.5724 91.2892 41.8694 89.8809 41.1806L79.4473 36.0727C74.382 33.5937 69.319 31.1123 64.2585 28.6286C64.0739 28.5245 63.8656 28.4698 63.6537 28.4698C63.4418 28.4698 63.2335 28.5245 63.049 28.6286C60.6204 29.8121 58.1777 30.9672 55.7421 32.1341L42.3451 38.5604L37.4692 40.8895C35.7792 41.699 34.0939 42.5132 32.3991 43.3156C32.2889 43.3526 32.1944 43.4258 32.1312 43.5234C32.068 43.621 32.0398 43.7372 32.0512 43.8529C32.0654 44.3263 31.992 44.821 31.9731 45.3062C31.9092 46.8164 31.8855 48.3312 31.8595 49.8437C31.8429 50.8331 31.8831 51.8225 31.9068 52.8143C31.9447 54.5421 32.0015 56.2653 32.1269 57.9908C32.2405 59.5696 32.3944 61.1412 32.5743 62.7129C32.8015 64.6806 33.1069 66.6342 33.4903 68.5735C34.1948 72.214 35.1889 75.7924 36.4632 79.2745C37.872 83.1177 39.6976 86.795 41.9072 90.2407C43.3094 92.423 44.8879 94.4868 46.627 96.4114C48.1193 98.0743 49.7308 99.6264 51.4485 101.055C53.5143 102.77 55.7409 104.282 58.0973 105.569C59.7408 106.47 61.4574 107.23 63.2288 107.841C63.4976 107.948 63.7953 107.955 64.0691 107.863C65.1067 107.501 66.125 107.086 67.1201 106.62C70.6335 104.934 73.882 102.744 76.7631 100.12C78.8108 98.2733 80.6868 96.2444 82.3681 94.0586C84.6095 91.1299 86.5358 87.9731 88.1151 84.6404C89.5996 81.4967 90.8196 78.2348 91.7626 74.8886C92.5121 72.2412 93.115 69.5546 93.5686 66.8409C93.7911 65.5106 93.9789 64.1765 94.1319 62.8383C94.2597 61.7306 94.3923 60.6252 94.4704 59.5246C94.5627 58.1967 94.7071 56.8712 94.7402 55.541C94.7876 53.9504 94.7497 52.3835 94.7497 50.8142V50.8094Z" fill="#C1A575"/>
        <path d="M74.8506 1.05124C74.8979 1.48439 74.9571 1.92228 74.9973 2.36253C75.1377 3.95931 75.1765 5.56341 75.1133 7.1651C75.0912 8.00989 74.9502 8.84735 74.6943 9.65278C74.6344 9.88006 74.5244 10.0911 74.3725 10.2704C74.2206 10.4498 74.0305 10.593 73.8162 10.6895C73.739 10.7139 73.6728 10.7648 73.6295 10.8333C73.5862 10.9017 73.5685 10.9832 73.5795 11.0635C73.5795 12.0103 73.5795 12.9381 73.5795 13.8754C73.5795 14.1121 73.6836 14.1903 73.9061 14.1879C74.5547 14.1879 75.2032 14.1879 75.8518 14.1879C76.0885 14.1879 76.1666 14.0766 76.1619 13.8565C76.1619 13.4967 76.15 13.1464 76.1619 12.7748C76.1925 11.8215 76.2961 10.8719 76.4719 9.93445C76.5266 9.47941 76.6339 9.03223 76.7915 8.60185C77.3797 7.26159 78.0411 5.95464 78.7726 4.68689C79.1865 3.98917 79.7146 3.36589 80.3348 2.84303C80.7822 2.45721 81.6248 2.62053 81.9538 3.07972C82.1148 3.30222 82.0012 3.44424 81.852 3.59335C81.3109 4.1466 80.8344 4.75964 80.4319 5.42065C79.8238 6.41805 79.3329 7.48234 78.9691 8.59238C78.4352 10.1757 78.0695 11.8108 77.8779 13.4707C77.7458 14.5775 77.6786 15.6911 77.6767 16.8057C77.6767 18.4973 77.6767 20.1913 77.6767 21.8876C77.6767 22.0131 77.6767 22.1385 77.6767 22.264C77.6767 22.4391 77.601 22.5338 77.4211 22.5338H77.0424H49.64C49.5311 22.5338 49.4223 22.5338 49.3158 22.5338C49.1098 22.5338 49.0222 22.4368 49.027 22.2379C49.027 22.1125 49.027 21.9847 49.027 21.8592C49.027 20.0225 49.027 18.1833 49.027 16.3466C48.9948 14.2595 48.7208 12.1832 48.2104 10.1593C48.1735 10.0401 48.126 9.92444 48.0684 9.81374C48.0684 9.79953 48.0329 9.79007 48.0305 9.77586C47.9046 9.16124 47.7126 8.56206 47.4577 7.98881C47.4032 7.84916 47.3772 7.6811 47.3157 7.53435C46.7551 6.12644 45.9542 4.82659 44.9487 3.69277C44.8233 3.55548 44.5629 3.42293 44.6978 3.21937C44.8611 2.96138 45.0457 2.66314 45.4079 2.62053C45.7698 2.60141 46.1263 2.71409 46.4115 2.93771C47.1026 3.38269 47.5263 4.05965 47.9382 4.73186C48.8671 6.25184 49.5966 7.88505 50.1087 9.59124C50.3074 10.2849 50.4202 11.0004 50.4448 11.7215C50.5131 12.4382 50.5447 13.1579 50.5395 13.8778C50.5395 14.1145 50.6247 14.2021 50.8566 14.1997C51.5052 14.1997 52.1537 14.1997 52.8023 14.1997C53.039 14.1997 53.1218 14.1074 53.1218 13.8778C53.1218 12.9405 53.1218 12.004 53.1218 11.0682C53.1339 10.9893 53.1164 10.9087 53.0727 10.8419C53.029 10.7751 52.9622 10.7267 52.8851 10.7061C52.4259 10.5617 52.2058 10.1901 52.0449 9.78297C51.8015 9.08605 51.6557 8.3588 51.6117 7.62193C51.525 6.8163 51.4997 6.00525 51.536 5.19579C51.6046 3.81348 51.6543 2.43118 51.8555 1.07017C52.0354 0.982594 52.104 1.11988 52.1821 1.20272C53.6899 2.79569 55.2071 4.38392 56.4687 6.18755C56.9196 6.78887 57.2587 7.46634 57.4699 8.18763C57.6948 9.04921 57.754 9.88474 57.2853 10.6871C57.1934 10.8433 57.1467 11.022 57.1504 11.2031C57.1504 12.0671 57.1504 12.9334 57.1504 13.8068C57.1504 14.1855 57.1646 14.195 57.5552 14.1974C58.6724 14.1974 59.7896 14.1974 60.9068 14.1974C61.2926 14.1974 61.3044 14.1974 61.3068 13.8044C61.3068 12.9736 61.3068 12.1476 61.3068 11.3168C61.3165 11.2303 61.299 11.1429 61.2565 11.0669C61.2141 10.9909 61.1489 10.9301 61.0701 10.8931C60.7735 10.6922 60.4997 10.4597 60.2535 10.1996C59.5174 9.48946 59.4132 8.55688 59.5434 7.61246C59.7612 6.08103 60.3742 4.67506 61.108 3.32825C61.6571 2.3489 62.2601 1.40067 62.914 0.487898C62.9566 0.428724 62.9921 0.367183 63.0347 0.310376C63.3424 -0.0943749 63.3542 -0.103843 63.6382 0.289073C64.9085 1.98347 65.9391 3.84485 66.7011 5.82067C66.9907 6.56019 67.1509 7.34406 67.1745 8.13793C67.195 8.68022 67.0627 9.21735 66.7928 9.68814C66.5228 10.1589 66.1261 10.5444 65.6478 10.8008C65.5671 10.8333 65.4985 10.8902 65.4518 10.9637C65.4051 11.0371 65.3826 11.1233 65.3874 11.2102C65.3874 12.0742 65.3993 12.9381 65.3874 13.8139C65.3874 14.0885 65.4774 14.1974 65.7614 14.1926C66.8786 14.1832 67.9958 14.1832 69.113 14.1926C69.3758 14.1926 69.5154 14.124 69.5036 13.8281C69.4704 12.9665 69.5415 12.105 69.4657 11.241C69.465 11.0665 69.4211 10.8949 69.3379 10.7416C68.8645 9.98179 68.926 9.10838 69.113 8.34622C69.3539 7.51963 69.7561 6.74894 70.2965 6.07867C71.0397 5.08691 71.8161 4.12119 72.6493 3.20044C73.2529 2.53296 73.8588 1.86784 74.5097 1.24533C74.5997 1.16012 74.6612 1.02757 74.8506 1.05124Z" fill="#C1A575"/>
        <path d="M95.9544 15.4114C96.5391 15.9345 96.5367 16.5191 95.9544 17.0091C95.2088 17.6339 94.5539 18.3597 94.0088 19.1654C92.5886 21.3265 92.2359 23.6342 93.1401 26.0935C93.1638 26.1598 93.1803 26.2355 93.3153 26.2308C93.3957 25.7148 93.4881 25.1941 93.552 24.6686C93.6371 23.8143 93.9466 22.9977 94.449 22.3016C94.7036 21.9563 95.0257 21.6664 95.3958 21.4495C95.7722 21.2294 95.9166 21.3051 95.9213 21.7407C95.9429 22.6225 96.1496 23.4899 96.528 24.2867C96.9064 25.0834 97.4481 25.7918 98.1178 26.3657C98.3853 26.6024 98.4184 26.6024 98.5392 26.2426C98.5782 26.1328 98.6453 26.0351 98.7337 25.9591C98.8221 25.8831 98.9289 25.8316 99.0433 25.8095C99.3433 25.7432 99.6527 25.7312 99.957 25.774C99.9935 25.7715 100.03 25.7783 100.063 25.7937C100.097 25.8091 100.125 25.8327 100.147 25.8622C100.169 25.8917 100.183 25.9262 100.187 25.9625C100.192 25.9988 100.188 26.0357 100.175 26.0698C99.8055 27.8167 100.572 29.2274 101.538 30.5671C103.055 32.6571 105.006 34.3021 107.063 35.8288C107.119 35.8714 107.193 35.8927 107.209 36.0158C106.681 35.9899 106.157 35.9154 105.642 35.7933C104.608 35.604 103.569 35.4075 102.551 35.1448C101.308 34.8258 100.097 34.3915 98.9344 33.8477C98.7096 33.7412 98.461 33.6702 98.2527 33.5471C97.448 33.0903 96.6101 32.6831 95.8526 32.16C94.8995 31.5274 94.0364 30.7686 93.2869 29.9043C92.7604 29.3198 92.0989 28.8728 91.3601 28.6025C90.583 28.2565 89.7816 27.9677 88.9624 27.7386C87.5848 27.3788 86.1954 27.2368 84.8865 28.0321C84.8099 28.0733 84.7309 28.1096 84.6498 28.1409C84.5457 27.7244 84.7847 27.4498 84.9859 27.1823C85.1871 26.9149 85.4262 26.6758 85.6416 26.432C85.5824 26.3491 85.5303 26.3468 85.483 26.3681C84.709 26.7018 83.8995 26.6663 83.0876 26.6048C82.9807 26.5953 82.8772 26.5621 82.7846 26.5077C82.5479 26.3705 82.5124 26.2142 82.7089 26.0059C83.097 25.6114 83.5318 25.2656 84.0036 24.9763C84.3264 24.7575 84.6745 24.5787 85.0404 24.4437C86.8132 23.8425 88.4346 24.1952 89.9518 25.213C90.0512 25.2793 90.1246 25.4024 90.2879 25.3645C90.3064 25.2587 90.3039 25.1502 90.2803 25.0454C90.2567 24.9406 90.2127 24.8415 90.1506 24.7538C89.9439 24.364 89.822 23.9349 89.7932 23.4946C89.7056 22.6354 89.5565 21.7856 89.5021 20.9217C89.451 20.2218 89.4859 19.5183 89.6062 18.8269C89.7222 18.1689 89.7364 17.4754 90.0796 16.86C90.4279 16.26 90.8467 15.7037 91.327 15.2031C92.3022 14.1403 93.5685 13.7829 94.9201 13.648C96.0179 13.5119 97.1322 13.6227 98.1817 13.9723C98.6481 14.1235 99.0468 14.4334 99.3084 14.8481C99.4055 15.0019 99.4812 15.1629 99.3392 15.3428C99.2794 15.411 99.2003 15.4594 99.1123 15.4814C99.0243 15.5034 98.9317 15.498 98.8469 15.4658C98.5908 15.3972 98.3401 15.3102 98.0965 15.2055C97.3509 14.9191 96.6716 15.0256 95.9544 15.4114ZM105.444 35.1329C105.431 35.0762 105.404 35.0236 105.366 34.9801C105.327 34.9366 105.278 34.9036 105.223 34.8844C104.168 34.2998 103.107 33.727 102.054 33.1352C101.632 32.9359 101.23 32.6982 100.852 32.4251C100.005 31.7248 99.2067 30.9672 98.4634 30.1576C97.4483 29.1062 96.6447 27.8695 96.0964 26.5148C96.0559 26.3717 95.9735 26.2439 95.8597 26.148C95.8787 26.3326 95.8811 26.458 95.9024 26.5811C96.1272 27.7715 96.6427 28.8879 97.403 29.831C97.5847 30.0009 97.6947 30.2337 97.7107 30.4819C96.6398 29.8107 95.6853 28.9697 94.8846 27.9918C94.9052 28.2835 95.0114 28.5626 95.1899 28.7942C95.9018 29.8595 96.8094 30.7799 97.8646 31.5068C99.4 32.6138 101.062 33.5332 102.816 34.2453C103.662 34.6223 104.542 34.9195 105.444 35.1329ZM91.3507 24.6189C91.3768 24.5725 91.3927 24.521 91.3972 24.4679C91.4017 24.4148 91.3947 24.3614 91.3767 24.3112C91.115 23.1503 91.1271 21.9445 91.4122 20.7892C91.7786 19.3566 92.4307 18.0129 93.3295 16.8387C93.6642 16.4497 93.9711 16.0376 94.2478 15.6055C91.817 16.9712 89.5423 21.3217 91.3507 24.6189Z" fill="#C1A575"/>
        <path d="M28.9668 22.5263C29.6909 22.7782 30.2935 23.2938 30.6545 23.9701C31.1395 24.8354 31.4385 25.7923 31.5326 26.7797C31.525 26.9601 31.5685 27.139 31.6581 27.2957C31.819 27.2602 31.8143 27.1135 31.8427 27.0046C32.1693 25.7809 32.3469 24.5429 32.0415 23.2955C31.9137 22.7653 31.6415 22.273 31.4758 21.7523C31.2983 21.3084 31.0592 20.8917 30.7657 20.5144C30.2323 19.659 29.5473 18.9082 28.7443 18.2989C28.6224 18.2115 28.5234 18.0959 28.4558 17.9619C28.3882 17.828 28.354 17.6796 28.3562 17.5296C28.3254 17.1722 28.4579 16.9497 28.8864 16.8053C28.1763 16.5686 27.5964 16.3319 26.9502 16.526C26.6069 16.6194 26.272 16.7414 25.949 16.8905C25.6981 17.0136 25.5111 17.0349 25.3454 16.7911C25.1797 16.5473 25.3596 16.3864 25.4779 16.2302C25.9029 15.6651 26.5344 15.2915 27.2342 15.1911C28.2433 14.9912 29.2791 14.9648 30.2971 15.1129C32.4865 15.4798 34.0014 16.6633 34.7422 18.777C35.1515 20.0479 35.2941 21.3895 35.1612 22.718C35.1015 23.8507 34.8987 24.9713 34.5576 26.0531C34.5222 26.1387 34.5222 26.2349 34.5576 26.3205C34.6807 26.4034 34.7612 26.2969 34.8274 26.2306C35.6062 25.4518 36.605 25.2009 37.6489 25.0944C39.0241 24.9524 40.2265 25.44 41.3177 26.2329C41.5624 26.3843 41.786 26.5674 41.9828 26.7773C42.165 26.9998 42.1627 27.0401 41.9212 27.1774C41.7355 27.289 41.5265 27.3563 41.3106 27.3738C40.6454 27.4188 39.978 27.4638 39.3389 27.201C39.3004 27.1844 39.2583 27.1783 39.2167 27.1833C39.1751 27.1882 39.1356 27.2042 39.1022 27.2294C39.5674 27.6698 39.9233 28.2129 40.1413 28.8153C40.004 28.9668 39.9046 28.8579 39.7957 28.8011C38.43 28.0508 37.0619 28.2425 35.6606 28.7254C34.9505 28.9621 34.2523 29.2248 33.5564 29.497C32.9309 29.7196 32.3784 30.1093 31.9587 30.6237C31.1728 31.5617 30.2635 32.3889 29.2556 33.0829C27.7193 34.1637 26.0482 35.039 24.285 35.6866C23.3382 36.0511 22.3654 36.3446 21.3926 36.6144C20.4197 36.8843 19.3972 37.0168 18.3936 37.2109C18.3463 37.0026 18.512 36.9742 18.5924 36.915C19.125 36.4582 19.6812 36.0322 20.1972 35.5588C20.6186 35.1706 20.9949 34.7327 21.3949 34.3185C21.9772 33.7149 22.666 33.1989 23.1323 32.4983C23.8069 31.4923 24.4672 30.4745 24.8223 29.2911C25.0396 28.6656 25.0708 27.9906 24.9122 27.3478C24.8696 27.1939 24.8909 27.0732 25.0874 27.0259C25.3532 26.9509 25.6359 26.9618 25.8952 27.057C26.1545 27.1523 26.3771 27.3269 26.5312 27.5561C26.6543 27.736 26.7466 27.6934 26.8768 27.5916C27.3715 27.2034 27.6579 26.659 27.9751 26.143C28.3778 25.4287 28.6782 24.6614 28.8674 23.8636C28.9881 23.466 28.9384 23.0162 28.9668 22.5263ZM27.4472 31.5207L27.3739 31.4497C27.6981 30.9101 28.1029 30.4248 28.3988 29.8662C28.8228 29.0868 29.0754 28.2257 29.1396 27.3407C28.9668 27.4212 28.9668 27.5608 28.9219 27.6721C28.6699 28.3331 28.3528 28.9674 27.9751 29.5656C27.2179 30.7292 26.3195 31.7946 25.3004 32.7374C24.9227 33.148 24.4985 33.5134 24.0365 33.8262L20.2493 36.0298C20.1357 36.0961 20.0126 36.1458 19.9747 36.2973C20.0244 36.3115 20.0434 36.3257 20.0576 36.3209C21.7741 35.7789 23.4234 35.0436 24.9738 34.1291C26.4166 33.3314 27.7348 32.3266 28.8864 31.1468C29.3843 30.6251 29.7973 30.0284 30.1101 29.3786C30.1551 29.2816 30.2403 29.1798 30.148 29.0236C29.6998 29.6262 29.1835 30.175 28.6094 30.6592C28.273 31.0101 27.8802 31.3021 27.4472 31.5231V31.5207ZM33.5067 25.5536C34.3162 24.0814 34.2168 21.9724 33.3599 20.1925C32.6498 18.7439 31.1634 17.0941 30.4225 16.971C32.6593 19.4232 34.1008 22.1263 33.5067 25.556V25.5536Z" fill="#C1A575"/>
        <path d="M101.761 60.9704C102.014 60.4047 102.234 59.91 102.457 59.4271C103.417 57.3504 104.63 55.3996 106.066 53.6186C106.768 52.796 107.544 52.0394 108.383 51.3581C109.411 50.4708 110.624 49.8239 111.934 49.4646C113.435 49.0614 115.011 49.0321 116.526 49.3794C118.312 49.8015 119.984 50.6094 121.425 51.7463C121.509 51.8105 121.589 51.8809 121.662 51.957C121.684 51.9733 121.702 51.9945 121.714 52.019C121.727 52.0434 121.733 52.0704 121.733 52.0978C121.733 52.1252 121.727 52.1522 121.714 52.1767C121.702 52.2011 121.684 52.2224 121.662 52.2387C121.497 52.4025 121.313 52.5455 121.113 52.6647C119.929 53.2896 118.677 53.3204 117.399 53.2044C116.886 53.1594 116.377 53.0434 115.863 52.9677C115.804 53.1618 115.977 53.1807 116.062 53.2352C117.054 53.8624 117.664 54.8139 118.244 55.7915C118.308 55.898 118.391 56.0282 118.296 56.1394C118.202 56.2507 118.012 56.2033 117.903 56.1394C117.491 55.8743 117.016 55.7702 116.587 55.5666C116.311 55.4423 116.016 55.3678 115.714 55.3465C114.852 55.2574 113.981 55.3102 113.136 55.5027C110.883 56.044 108.711 56.883 106.679 57.9975C105.144 58.8189 103.659 59.7327 102.234 60.7337C102.1 60.8538 101.937 60.9356 101.761 60.9704Z" fill="#C1A575"/>
        <path d="M24.2261 61.413C23.7172 61.2923 23.3692 60.9396 22.9668 60.6887C21.6697 59.8642 20.3262 59.115 18.943 58.4448C17.3906 57.6972 15.7737 57.092 14.112 56.6365C13.1463 56.3738 12.1494 56.2432 11.1486 56.2483C10.1776 56.2812 9.23329 56.5747 8.41473 57.098C8.32242 57.1525 8.23484 57.2117 8.14016 57.2637C8.09453 57.2837 8.04693 57.2987 7.99814 57.3087C7.9669 57.288 7.94373 57.2572 7.93252 57.2214C7.92132 57.1856 7.92276 57.1471 7.9366 57.1122C8.14561 56.5004 8.47565 55.9369 8.90706 55.4554C9.38045 54.963 9.80651 54.4447 10.4669 54.0541C10.2317 53.9848 9.97934 54.0033 9.7568 54.1062C8.5267 54.3864 7.2521 54.4106 6.01226 54.1772C5.55696 54.0777 5.12834 53.8815 4.7554 53.602C4.51871 53.434 4.51871 53.3156 4.7554 53.0837C5.53232 52.3296 6.43304 51.7148 7.41824 51.2658C8.72613 50.6277 10.1515 50.2659 11.6054 50.2031C12.8126 50.1484 14.0171 50.3584 15.1345 50.8185C16.995 51.5712 18.5075 52.7925 19.8353 54.2648C21.1151 55.7228 22.2193 57.3259 23.1254 59.0413C23.471 59.6725 23.8016 60.3092 24.1172 60.9515C24.1676 61.0159 24.2035 61.0906 24.2223 61.1703C24.2411 61.25 24.2424 61.3328 24.2261 61.413Z" fill="#C1A575"/>
        <path d="M98.4893 71.345C98.4434 71.1341 98.3557 70.9345 98.2313 70.758C97.8928 70.0645 97.6869 69.3378 97.907 68.5709C97.9295 68.5118 97.9573 68.4548 97.9899 68.4005C99.1918 69.041 100.171 70.0315 100.797 71.2409C101.377 70.4858 101.744 69.6408 102.508 69.0917C103.247 68.5542 104.117 68.227 105.027 68.1449C105.951 68.0367 106.887 68.1229 107.775 68.3982C107.209 69.487 106.234 69.8444 105.072 70.1C105.782 70.4006 106.414 70.5592 106.835 71.061C106.835 71.132 106.807 71.1557 106.764 71.1533C105.436 71.0918 104.376 71.7001 103.45 72.5474C102.147 73.7144 101.047 75.0893 100.194 76.6163C99.593 77.6374 98.8827 78.5899 98.0751 79.4566C98.0041 79.5371 97.9425 79.6247 97.8786 79.7099C97.8786 79.7099 97.8786 79.743 97.8952 79.8069C98.3869 79.8038 98.8782 79.837 99.3651 79.9063C100.3 80.0892 101.191 80.4526 101.988 80.9762C102.279 81.1608 102.253 81.246 101.957 81.4662C101.607 81.7203 101.193 81.8697 100.762 81.8969C100.21 81.9266 99.6566 81.9266 99.1047 81.8969C99.6231 82.4271 100.241 82.8011 100.421 83.5183C100.33 83.5343 100.237 83.5321 100.147 83.5118C100.057 83.4914 99.9726 83.4534 99.8976 83.4C99.5926 83.2493 99.259 83.1654 98.919 83.154C98.5789 83.1425 98.2404 83.2038 97.926 83.3337C97.7319 83.4 97.5425 83.3763 97.3531 83.4355C96.4531 83.734 95.5868 84.1258 94.7684 84.6048C93.8149 85.1501 92.8992 85.759 92.0275 86.4273C91.9446 86.4912 91.85 86.5717 91.7434 86.4818C91.6369 86.3918 91.7316 86.3232 91.7434 86.2451C91.8643 85.7978 92.0509 85.371 92.2973 84.9787C92.58 84.5624 92.8024 84.1082 92.9577 83.6296C92.9794 83.5434 93.0189 83.4628 93.0737 83.3929C93.5471 82.8603 93.8287 82.1905 94.4039 81.736C94.7661 81.452 95.017 81.0377 95.4028 80.7726C95.9088 80.4039 96.4822 80.1378 97.0904 79.9892C97.2056 79.9804 97.3143 79.9324 97.3983 79.8531C97.4823 79.7739 97.5366 79.6681 97.552 79.5537C97.8928 77.8755 98.184 76.1926 98.1011 74.4694C98.0632 73.6788 97.7887 72.9498 97.5212 72.2184C97.3558 71.7375 97.0629 71.3104 96.6738 70.9829C97.3839 70.8858 97.8999 71.1793 98.4278 71.4113C98.4538 71.4302 98.494 71.4705 98.5035 71.4634C98.5745 71.416 98.5248 71.3853 98.4893 71.345Z" fill="#C1A575"/>
        <path d="M103.271 53.2658C103.921 52.7518 104.545 52.2043 105.138 51.6255C106.321 50.5364 107.311 49.2561 108.069 47.8384C108.389 47.231 108.598 46.5713 108.687 45.8903C108.759 45.2729 108.681 44.6471 108.46 44.0663C108.238 43.4856 107.879 42.9671 107.413 42.5553C107.017 42.1869 106.578 41.8689 106.104 41.6085C104.099 40.5008 102.206 41.1256 101.022 42.9813C100.892 43.1967 100.774 43.4187 100.667 43.6465C100.568 43.8429 100.442 43.8595 100.279 43.7293C99.9064 43.4407 99.6441 43.033 99.5358 42.5742C99.4181 41.9715 99.4334 41.3502 99.5808 40.754C99.6495 40.3824 99.6495 40.3753 99.2873 40.2806C98.7405 40.1221 98.1938 40.0439 97.6304 40.3635C97.5739 40.0878 97.5808 39.8028 97.6505 39.5302C97.7202 39.2575 97.8509 39.0042 98.0328 38.7895C98.2437 38.5211 98.4816 38.2753 98.7429 38.0557C98.9015 37.9373 98.8826 37.819 98.7429 37.7054C98.4397 37.3718 98.0716 37.1036 97.6612 36.9172C97.5175 36.8829 97.3845 36.8139 97.2739 36.716C97.1632 36.6182 97.0784 36.4946 97.0269 36.3562C97.5792 36.0257 98.1942 35.8137 98.8329 35.7337C100.958 35.3998 103.135 35.6781 105.108 36.5361C106.142 36.9669 107.001 37.7077 107.768 38.5244C108.901 39.6629 109.696 41.0935 110.064 42.6571C110.292 43.6972 110.31 44.7723 110.116 45.8193C109.827 47.5788 109.125 49.2448 108.069 50.6811C107.167 51.8646 106.054 52.7782 104.601 53.2161C104.171 53.3548 103.71 53.372 103.271 53.2658ZM101.68 37.8001C102.087 37.7574 102.497 37.7574 102.904 37.8001C103.846 37.9701 104.729 38.3774 105.47 38.9835C106.484 39.7627 107.417 40.643 108.253 41.6109C108.336 41.7056 108.412 41.8334 108.618 41.8144C108.559 41.6866 108.53 41.6038 108.485 41.528C107.911 40.5262 107.171 39.6283 106.298 38.8723C105.699 38.3235 104.995 37.9002 104.23 37.6273C103.363 37.3409 102.509 37.3243 101.68 37.8001Z" fill="#C1A575"/>
        <path d="M100.549 69.5367C100.259 69.1719 100.093 68.7241 100.075 68.2585C99.7984 66.0927 100.504 64.211 101.787 62.521C102.925 61.0203 104.31 59.8013 106.066 59.0652C107.251 58.5884 108.536 58.4119 109.806 58.5516C111.038 58.6868 112.238 59.0285 113.356 59.5623C114.414 60.0693 115.343 60.8089 116.074 61.7257C117.083 62.8764 117.842 64.2251 118.301 65.6856C118.459 66.2789 118.55 66.8877 118.573 67.5011C118.503 67.5231 118.429 67.5275 118.356 67.5139C118.284 67.5002 118.216 67.469 118.159 67.423C117.662 67.0632 117.063 66.907 116.552 66.5851C116.355 66.462 116.315 66.6087 116.284 66.772C116.168 67.3748 115.862 67.9246 115.411 68.3413C115.234 68.5125 115.034 68.6576 114.817 68.7721C114.691 68.4526 114.564 68.152 114.459 67.8419C114.409 67.69 114.329 67.5499 114.223 67.4301C113.816 66.9567 113.818 66.9567 113.333 67.3543C112.623 67.9319 111.82 68.3011 110.864 68.1236C110.775 68.1163 110.686 68.1029 110.599 68.0833C110.239 67.9626 110.201 67.8017 110.436 67.494C110.743 67.1198 110.976 66.6909 111.124 66.23C111.21 65.9223 111.427 65.6738 111.472 65.3448C111.613 64.6147 111.464 63.8585 111.058 63.2358C110.791 62.8334 110.585 62.3813 110.152 62.1328C109.488 61.7421 108.8 61.3942 108.092 61.0913C107.73 60.9469 107.344 60.8715 106.954 60.8688C105.569 60.8286 104.516 61.489 103.64 62.476C102.958 63.2869 102.408 64.1998 102.009 65.1814C101.436 66.535 101.006 67.9447 100.726 69.3875C100.703 69.4396 100.691 69.4917 100.549 69.5367ZM115.177 64.2134C115.212 63.9423 115.204 63.6673 115.151 63.3991C114.914 62.3695 114.263 61.6499 113.411 61.0937C111.891 60.0996 110.182 59.7327 108.398 59.6356C108.327 59.6356 108.253 59.6357 108.227 59.7753C108.492 59.8534 108.762 59.9363 109.034 60.012C110.2 60.315 111.335 60.7263 112.424 61.2405C113.423 61.7352 114.298 62.3719 114.84 63.392C114.971 63.6287 114.987 63.908 115.184 64.2134H115.177Z" fill="#C1A575"/>
        <path d="M8.16366 68.2633C8.14943 68.213 8.13992 68.1615 8.13525 68.1094C8.13917 66.677 8.53361 65.2727 9.27613 64.0477C9.71144 63.3535 10.2064 62.6985 10.7555 62.0903C11.8121 60.8836 13.2077 60.0233 14.7604 59.6215C17.1273 58.973 19.4138 59.0889 21.5394 60.4594C23.4968 61.721 25.0164 63.3518 25.8236 65.5721C26.2329 66.6557 26.3313 67.8321 26.1076 68.9687C26.0166 69.2993 25.8718 69.6128 25.6792 69.8965C25.3857 68.7485 24.9833 67.7307 24.6164 66.7011C24.239 65.6574 23.7283 64.6669 23.0968 63.7542C22.9349 63.4549 22.7455 63.1712 22.5311 62.9069C21.9116 62.3135 21.1618 61.8734 20.3417 61.6216C19.9377 61.4875 19.5124 61.4289 19.0872 61.4488C18.7879 61.4825 18.4957 61.5623 18.2209 61.6855C17.3447 61.9543 16.5448 62.4272 15.8871 63.0654C14.99 63.9933 14.777 65.0916 15.087 66.3082C15.2348 66.9404 15.5346 67.527 15.9604 68.0171C16.2397 68.3367 16.1971 68.4905 15.7545 68.5994C15.3381 68.7154 14.9005 68.733 14.4762 68.6509C14.0518 68.5687 13.6524 68.389 13.3094 68.126C12.6751 67.6645 12.623 67.681 12.1946 68.3296C12.0335 68.5681 11.938 68.8448 11.9177 69.132C11.8916 69.4326 11.6928 69.5438 11.5271 69.3355C11.2549 69.0018 10.888 68.7627 10.6395 68.4077C10.4542 68.1887 10.3453 67.9153 10.3294 67.629C10.3294 67.2384 10.2632 67.2242 9.91758 67.3923C9.39921 67.629 8.85244 67.8159 8.42166 68.2136C8.38656 68.2434 8.34438 68.2636 8.29918 68.2723C8.25398 68.281 8.2073 68.2779 8.16366 68.2633ZM11.3141 64.8052C11.3662 64.7555 11.404 64.7365 11.4135 64.7081C11.7993 63.43 12.7153 62.6347 13.8444 62.0287C14.9326 61.4685 16.0714 61.0128 17.2457 60.6677C17.4906 60.6178 17.7256 60.5283 17.9416 60.4026C17.8757 60.3833 17.8085 60.369 17.7404 60.36C17.614 60.3569 17.4876 60.3608 17.3617 60.3718C16.126 60.4917 14.9227 60.8367 13.8112 61.3896C13.0413 61.7503 12.3753 62.2999 11.8751 62.9873C11.4867 63.5118 11.2889 64.1531 11.3141 64.8052Z" fill="#C1A575"/>
        <path d="M22.4862 53.9809C21.5489 54.071 20.6083 53.8453 19.8139 53.3395C19.2459 53.0081 18.8269 52.5158 18.3677 52.0684C17.3483 51.1126 16.594 49.9089 16.1783 48.5748C15.7286 47.0765 15.4824 45.5521 15.7049 43.9592C15.8667 42.7739 16.3089 41.6444 16.9949 40.6644C17.2316 40.3521 17.4919 40.0585 17.7736 39.7862C18.3145 39.144 18.925 38.5637 19.5938 38.056C19.9328 37.8241 20.2974 37.6319 20.6802 37.4832C22.0779 36.9148 23.5694 36.6121 25.0781 36.5908C26.1929 36.5908 27.3006 36.7234 28.3445 37.3009C28.0699 37.5802 27.7007 37.727 27.3977 37.9637C27.0947 38.2004 26.8438 38.4844 26.5621 38.7211C26.6201 38.8771 26.7273 39.01 26.8675 39.0998C27.3672 39.548 27.7009 40.1519 27.8143 40.8135C27.845 40.9389 27.8711 41.0738 27.7433 41.1567C27.6154 41.2395 27.561 41.0999 27.4687 41.0691C26.948 40.8869 26.4438 41.0194 25.9515 41.2111C25.7811 41.2774 25.8568 41.4171 25.8828 41.5354C26.0108 42.0424 26.0579 42.5664 26.0225 43.0881C26.013 43.3588 25.9478 43.6247 25.8309 43.8691C25.714 44.1134 25.548 44.331 25.3432 44.5083C25.1585 44.6645 25.0355 44.6456 24.9076 44.461C24.7585 44.2385 24.6023 44.0207 24.4579 43.7982C23.9375 43.017 23.1736 42.4296 22.285 42.1271C21.8008 41.9627 21.2758 41.9627 20.7915 42.1271C19.785 42.4485 18.8757 43.0183 18.1476 43.784C17.7152 44.2208 17.4014 44.7606 17.2357 45.3525C17.07 45.9443 17.058 46.5686 17.2008 47.1664C17.4683 48.5037 18.1902 49.6186 19.0589 50.6435C20.0179 51.766 21.093 52.7839 22.2661 53.6803C22.3584 53.7418 22.4768 53.7821 22.4862 53.9809ZM23.7336 38.8134C23.6887 38.6737 23.575 38.6572 23.478 38.6264C22.4034 38.2903 21.4187 38.5483 20.4909 39.0998C19.0707 39.9543 18.0553 41.2064 17.2505 42.636C17.1961 42.7331 17.0801 42.8349 17.189 42.9722C17.3215 42.9319 17.3878 42.8159 17.4659 42.7236C18.1697 41.8846 18.9365 41.1005 19.7595 40.378C20.5335 39.6986 21.369 39.114 22.4058 38.8844C22.8457 38.824 23.2898 38.8002 23.7336 38.8134Z" fill="#C1A575"/>
        <path d="M34.8206 86.2708C34.1105 85.7974 33.4572 85.324 32.7708 84.9074C31.6486 84.1857 30.4292 83.6278 29.1493 83.2506C28.5377 83.0587 27.8934 82.9934 27.2558 83.0588C26.9102 83.1038 26.6404 83.35 26.219 83.3807C26.3611 82.6209 27.1019 82.3748 27.4688 81.783C26.3587 81.8564 25.2581 82.0434 24.3113 81.2008C25.5871 80.112 27.0593 79.7522 28.6523 79.7261C28.7351 79.5723 28.5978 79.506 28.5174 79.4208C27.9801 78.848 27.4096 78.3012 26.9078 77.7C26.5848 77.2704 26.2884 76.8214 26.0202 76.3556C25.3701 75.2858 24.5998 74.2939 23.7243 73.3993C22.9631 72.6949 22.0811 72.1336 21.1206 71.7424C20.7333 71.5615 20.307 71.4801 19.8803 71.5057C19.7951 71.5057 19.6886 71.5294 19.6625 71.411C19.6571 71.3657 19.6664 71.3199 19.689 71.2803C19.7116 71.2406 19.7463 71.2093 19.788 71.1909C20.0395 70.9918 20.3228 70.8366 20.6259 70.7317C20.869 70.6953 21.1023 70.6108 21.3123 70.4832C21.0868 70.3834 20.8473 70.3187 20.6022 70.2914C20.2504 70.2297 19.9147 70.0974 19.6153 69.9026C19.3159 69.7077 19.0591 69.4543 18.8601 69.1577C18.6779 68.902 18.7016 68.8452 19.0045 68.76C20.3419 68.3884 21.6745 68.3789 22.9621 68.9375C23.743 69.276 24.4136 69.8262 24.8983 70.5258C25.1113 70.8311 25.3101 71.1459 25.5113 71.4441C25.6817 71.4205 25.6912 71.2903 25.7243 71.2074C26.1244 70.1778 26.9717 69.5293 27.7576 68.8405C28.1528 68.4973 28.3138 68.6038 28.3777 69.1222C28.4392 69.8442 28.2737 70.5674 27.9043 71.1909C27.783 71.3445 27.7016 71.5259 27.6676 71.7187C27.9613 71.5364 28.2692 71.3781 28.5884 71.2453C28.9061 71.0922 29.2647 71.0457 29.6109 71.1128C29.3112 71.3682 29.0546 71.6703 28.8511 72.0075C28.4628 72.8027 28.2697 73.679 28.2878 74.5638C28.2475 76.2491 28.56 77.8918 28.9742 79.5202C28.9971 79.6255 29.0514 79.7212 29.1301 79.7948C29.2087 79.8684 29.3079 79.9163 29.4144 79.9321C30.8086 80.2445 31.8169 81.1274 32.6737 82.1902C33.5568 83.3245 34.2689 84.5821 34.7874 85.9229C34.8116 85.9901 34.8274 86.0601 34.8348 86.1312C34.8349 86.1781 34.8301 86.2249 34.8206 86.2708Z" fill="#C1A575"/>
        <path d="M105.756 26.0532C106.528 27 106.388 28.0699 106.208 29.2202C106.8 28.7823 107.096 28.1054 107.865 28.0178C107.751 28.3302 107.642 28.5882 107.564 28.8533C107.311 29.7339 107.458 30.6073 107.685 31.457C108.107 32.9373 108.745 34.3474 109.579 35.6418C109.841 36.0678 110.111 36.4892 110.383 36.9247C110.213 37.0288 110.08 36.9436 109.941 36.8797C108.885 36.4291 107.894 35.8401 106.994 35.1282C106.433 34.6548 105.96 34.0867 105.429 33.5778C105.003 33.1475 104.659 32.643 104.414 32.089C104.106 31.383 103.993 30.6072 104.087 29.8427C104.175 28.7113 104.435 27.6249 105.131 26.6828C105.304 26.4485 105.534 26.2947 105.756 26.0532Z" fill="#C1A575"/>
        <path d="M15.1345 38.212C15.7251 37.3057 16.2557 36.3616 16.7228 35.3859C17.0825 34.6758 17.2979 33.8947 17.5962 33.1538C17.8031 32.564 17.9127 31.9445 17.9204 31.3194C17.9437 30.7466 17.79 30.1805 17.4802 29.6981C17.4257 29.6058 17.3429 29.53 17.4021 29.3643C17.7394 29.4467 18.052 29.6091 18.3134 29.8377C18.5832 30.0271 18.8175 30.2709 19.1205 30.4744C18.9737 29.8258 18.9251 29.1588 18.9761 28.4956C18.9906 28.211 19.0717 27.9338 19.2128 27.6861C19.3572 27.4187 19.5181 27.4021 19.7075 27.6388C20.7158 28.8957 21.3644 30.3016 21.22 31.949C21.1078 33.0863 20.6245 34.1551 19.8448 34.9906C18.6217 36.3321 17.1425 37.4154 15.4943 38.1765C15.4442 38.2167 15.3835 38.2414 15.3197 38.2477C15.2558 38.254 15.1915 38.2416 15.1345 38.212Z" fill="#C1A575"/>
        <path d="M94.7497 50.8137C94.7497 52.383 94.7875 53.9499 94.7497 55.5169C94.7094 56.8471 94.5721 58.1726 94.4798 59.5005C94.4017 60.6129 94.2692 61.7183 94.1414 62.8142C93.9836 64.1539 93.7958 65.4881 93.578 66.8168C93.1244 69.5305 92.5215 72.2171 91.772 74.8644C90.8273 78.2191 89.604 81.4889 88.1151 84.64C86.5339 87.9796 84.6044 91.1429 82.3586 94.0771C80.6773 96.2629 78.8013 98.2918 76.7536 100.139C73.8725 102.763 70.624 104.953 67.1106 106.639C66.1155 107.105 65.0972 107.519 64.0596 107.881C63.7858 107.974 63.4881 107.966 63.2193 107.86C61.4479 107.248 59.7313 106.488 58.0878 105.588C55.7314 104.301 53.5048 102.789 51.439 101.074C49.7213 99.6448 48.1098 98.0927 46.6174 96.4298C44.8784 94.5052 43.2999 92.4415 41.8977 90.2592C39.6881 86.8135 37.8625 83.1362 36.4537 79.293C35.1794 75.8109 34.1853 72.2325 33.4808 68.592C33.0974 66.6542 32.792 64.7007 32.5648 62.7314C32.3849 61.1597 32.231 59.588 32.1174 58.0093C31.992 56.2838 31.9352 54.5606 31.8973 52.8327C31.8736 51.841 31.8334 50.8516 31.85 49.8622C31.876 48.3497 31.8997 46.8349 31.9636 45.3247C31.9825 44.8513 32.0559 44.3566 32.0417 43.8714C32.0303 43.7557 32.0585 43.6395 32.1217 43.5419C32.1849 43.4443 32.2794 43.3711 32.3896 43.3341C34.0844 42.5317 35.7697 41.7175 37.4597 40.908L42.3356 38.5789L55.7326 32.1526C58.1682 30.9857 60.6109 29.8282 63.0394 28.6471C63.224 28.543 63.4323 28.4883 63.6442 28.4883C63.8561 28.4883 64.0644 28.543 64.249 28.6471C69.2985 31.1419 74.3614 33.6232 79.4378 36.0912L89.8714 41.1991C91.2797 41.8879 92.6786 42.5909 94.0987 43.2536C94.2727 43.3213 94.4204 43.4428 94.5205 43.6003C94.6206 43.7578 94.6677 43.9432 94.655 44.1294C94.7568 46.3473 94.8278 48.5793 94.7497 50.8137Z" fill="#1C1609"/>
        <path d="M98.4895 71.3452C98.525 71.3784 98.5747 71.4162 98.5037 71.4588C98.5037 71.4588 98.454 71.4257 98.428 71.4068L98.4895 71.3452Z" fill="white"/>
        <path d="M97.8718 30.4641C97.8604 30.4641 97.849 30.4915 97.8375 30.4915C97.8261 30.4915 97.817 30.4709 97.8079 30.4595C97.7988 30.4481 97.8307 30.4321 97.8421 30.4321C97.8535 30.4321 97.8626 30.4527 97.8718 30.4641Z" fill="#C1A575"/>
        <path d="M27.2793 31.5752C27.3124 31.535 27.3432 31.4924 27.374 31.4521L27.4474 31.5255L27.3148 31.6107L27.2793 31.5752Z" fill="#C1A575"/>
        <path d="M27.3126 31.6194C27.2895 31.6611 27.2687 31.7119 27.2178 31.6449C27.2369 31.6232 27.2578 31.6031 27.2802 31.5847L27.3126 31.6194Z" fill="#C1A575"/>
        <path d="M54.6557 88.5481C54.6557 87.9421 54.6368 87.3386 54.6557 86.735C54.6699 86.387 54.5776 86.2616 54.206 86.2237C53.1243 86.1172 52.0378 86.006 51.039 85.5136C48.717 84.3799 47.5217 82.0744 47.9619 79.537C48.0076 79.3266 48.0063 79.1086 47.958 78.8987C47.9097 78.6888 47.8157 78.4921 47.6826 78.3228C46.7299 76.993 45.9726 75.5335 45.434 73.9889C45.4076 73.8749 45.3489 73.771 45.2649 73.6896C45.181 73.6081 45.0753 73.5526 44.9606 73.5297C44.7195 73.4648 44.4824 73.3857 44.2505 73.293C44.0422 73.2387 43.8543 73.1246 43.71 72.9647C43.5658 72.8049 43.4714 72.6064 43.4387 72.3936C43.4253 72.3077 43.3926 72.226 43.3429 72.1546C43.2933 72.0832 43.2281 72.0241 43.1523 71.9817C40.3616 69.9816 39.1758 67.2478 39.6018 63.8677C39.7202 62.921 39.6018 62.0168 39.6018 61.0913C39.6176 57.3096 40.8371 53.6312 43.0836 50.5891C45.3126 47.46 48.5142 45.1564 52.1893 44.0373C54.7358 43.2265 57.4029 42.8606 60.0737 42.9556C61.8986 43.0219 63.7141 43.2302 65.5319 43.3959C67.8989 43.6089 70.2469 43.8693 72.5429 44.4728C76.7229 45.5829 80.6118 47.2422 83.6889 50.4187C85.3763 52.1702 86.6961 54.2418 87.5705 56.5113C88.4449 58.7809 88.8562 61.2024 88.7802 63.6334C88.7563 65.3004 88.4662 66.9528 87.921 68.5283C87.6535 69.281 87.7198 70.0692 87.5376 70.8266C86.8275 73.7333 85.1422 75.7854 82.3539 76.9097C82.2182 76.9536 82.1029 77.0453 82.0296 77.1677C81.7622 77.6009 81.4142 77.9299 80.8462 77.9488C80.3325 77.9678 79.8236 78.0553 79.3124 78.1074C78.4555 78.1926 78.1502 78.5926 78.304 79.4424C78.8839 82.6543 76.8413 85.4971 73.5701 86.0344C73.0636 86.1172 72.5523 86.1977 72.0411 86.2356C71.7215 86.2592 71.6174 86.361 71.6245 86.6876C71.6434 87.9114 71.6245 89.1351 71.6245 90.3564C71.6316 90.4711 71.6141 90.5859 71.5733 90.6932C71.5325 90.8006 71.4692 90.898 71.3878 90.979C70.3936 92.0204 69.1392 92.5932 67.7758 92.9033C64.3437 93.6868 60.9116 93.6986 57.5363 92.6051C56.5324 92.2946 55.6225 91.7371 54.89 90.9837C54.8108 90.9101 54.7485 90.82 54.7076 90.7199C54.6667 90.6197 54.6482 90.5118 54.6533 90.4038C54.6652 89.786 54.6557 89.1659 54.6557 88.5481Z" fill="#C1A575"/>
        <path d="M49.3889 74.4411C49.5189 74.1199 49.5778 73.7743 49.5616 73.4281C49.5616 73.1582 49.6634 73.0801 49.9285 73.0849C50.7972 73.0991 51.6659 73.1014 52.5322 73.0849C52.873 73.0849 52.9914 73.1606 52.9795 73.5204C52.9307 74.9032 52.6064 76.2623 52.0257 77.5182C51.5567 78.4848 51.3046 79.5423 51.2872 80.6165C51.2786 80.9265 51.3509 81.2334 51.497 81.5069C51.6431 81.7804 51.8579 82.0112 52.1203 82.1764C52.5868 82.4852 53.0988 82.7192 53.6376 82.8699C54.5471 83.1179 55.4855 83.2444 56.4282 83.2462C56.9679 83.2604 57.6874 83.0095 57.9951 83.3386C58.3028 83.6676 58.0733 84.3753 58.078 84.9173C58.078 86.1694 58.0922 87.4216 58.078 88.6737C58.0563 88.8039 58.0858 88.9375 58.1603 89.0465C58.2349 89.1555 58.3487 89.2314 58.478 89.2583C58.6461 89.3104 58.807 89.3838 58.9751 89.4382C60.7574 90.0181 62.5918 90.0536 64.4356 89.959C65.5837 89.9047 66.7165 89.674 67.7944 89.2749C67.9282 89.2427 68.0452 89.1619 68.1227 89.0481C68.2001 88.9343 68.2324 88.7958 68.2133 88.6595C68.1991 87.0026 68.2133 85.3599 68.1968 83.7102C68.1968 83.3007 68.3175 83.2107 68.6891 83.2368C69.1156 83.2593 69.5431 83.2593 69.9696 83.2368C71.1531 83.1942 72.3366 83.0711 73.4585 82.574C74.7154 82.0154 75.0823 81.374 74.9781 80.0106C74.8818 79.1537 74.6442 78.3188 74.2751 77.5395C73.6842 76.2523 73.3559 74.8602 73.3094 73.4446C73.3094 73.1796 73.3828 73.0849 73.6573 73.0896C74.4668 73.1038 75.2763 73.0896 76.0882 73.0896C76.3249 73.0896 76.403 73.0281 76.3746 72.7535C76.0006 69.2535 75.6393 65.7504 75.2905 62.2442C75.2503 61.856 75.1249 61.4323 75.319 61.0725C75.4823 60.7648 75.3923 60.5991 75.1817 60.3956C73.3733 58.6133 71.1886 57.515 68.7577 56.8712C66.1444 56.1977 63.4305 56.0036 60.7479 56.2984C58.5279 56.4913 56.362 57.0889 54.3571 58.0617C54.1696 58.1454 54.0025 58.2687 53.8672 58.4231C53.732 58.5776 53.6318 58.7596 53.5737 58.9565C51.9996 63.4679 50.3806 67.9675 48.7758 72.4695C48.6964 72.6276 48.6755 72.8087 48.7166 72.9807C48.8824 73.4923 49.108 73.9825 49.3889 74.4411Z" fill="#FFF3D2"/>
        <path d="M43.249 58.0474C43.3579 58.0971 43.4076 58.0308 43.4668 57.9953C44.9947 57.0519 46.79 56.6361 48.5771 56.8118C48.6492 56.8282 48.7245 56.8241 48.7944 56.7998C48.8642 56.7755 48.9259 56.7321 48.9723 56.6746C49.1044 56.5033 49.2871 56.3779 49.4944 56.3163C49.7018 56.2547 49.9232 56.26 50.1274 56.3314C50.2455 56.366 50.3703 56.3716 50.491 56.3477C50.6117 56.3238 50.7249 56.2711 50.8209 56.1941C52.266 55.1998 53.85 54.4246 55.5217 53.8934C59.0248 52.7643 62.6108 52.5324 66.2512 52.9277C68.581 53.1681 70.8548 53.7927 72.9805 54.7763C75.3431 55.8322 77.3958 57.4759 78.9428 59.5504C79.1369 59.8155 79.2979 60.0641 79.6529 60.128C79.7781 60.1547 79.8948 60.2118 79.9927 60.2944C80.0905 60.377 80.1665 60.4824 80.2139 60.6014C80.3109 60.8381 80.4814 60.8712 80.6873 60.9067C81.898 61.1028 83.05 61.5652 84.0602 62.2606C84.5628 62.6186 85.0376 63.0143 85.4804 63.4441C85.5119 62.3949 85.4269 61.3454 85.2271 60.315C84.651 57.149 83.052 54.2594 80.6755 52.0898C80.4984 51.9133 80.2623 51.8088 80.0127 51.7963C79.4172 51.7785 78.8405 51.584 78.3558 51.2376C77.151 50.3051 75.7522 49.7583 74.358 49.2281C72.687 48.5985 70.9496 48.2482 69.2004 47.9215C67.1435 47.5357 65.0724 47.2493 62.999 47.0363C61.1133 46.8185 59.2111 46.7813 57.3183 46.925C56.2626 47.0197 55.188 47.1168 54.2128 47.5191C53.3106 47.9199 52.3241 48.0938 51.3393 48.0257C51.0478 47.9992 50.7556 48.0699 50.5085 48.2269C47.9354 49.6915 45.8434 51.8723 44.4869 54.5041C43.9156 55.6236 43.4992 56.8156 43.249 58.0474Z" fill="#1C1609"/>
        <path d="M78.7298 61.5625C78.228 61.6099 77.7594 61.6454 77.2955 61.6998C76.6564 61.7756 76.6919 61.6596 76.7605 62.3389C77.0872 65.5627 77.417 68.7857 77.7499 72.008C77.8967 73.4408 78.0403 74.8712 78.1807 76.2993C78.2115 76.6141 78.2801 76.8034 78.6849 76.7158C79.1483 76.6375 79.6164 76.5901 80.0861 76.5738C80.3962 76.5502 80.524 76.4673 80.4838 76.1004C80.2234 73.7335 79.9985 71.3665 79.7571 69.0138C79.5157 66.661 79.2671 64.2798 79.0257 61.9129C79.0091 61.7069 79.0304 61.4702 78.7298 61.5625Z" fill="#1C1609"/>
        <path d="M52.1441 58.6393C52.1441 58.547 52.0234 58.5115 51.9192 58.476C51.3819 58.2819 50.8399 58.102 50.3026 57.9008C50.0659 57.8109 49.9783 57.9008 49.8978 58.1186C48.293 62.6521 46.6811 67.1817 45.0621 71.7073C44.9864 71.9203 45.0148 72.0245 45.2349 72.1002C45.7912 72.2896 46.3403 72.4955 46.8918 72.7014C47.0622 72.7653 47.1593 72.7369 47.2161 72.5428C47.3037 72.2493 47.422 71.9653 47.5238 71.6742C49.0339 67.4483 50.5417 63.2233 52.0471 58.9991C52.0802 58.902 52.0991 58.8002 52.1441 58.6393Z" fill="#1C1609"/>
        <path d="M60.31 73.8993V73.3407C60.31 71.1015 60.31 68.86 60.31 66.6208C60.297 66.5428 60.2999 66.4629 60.3185 66.3859C60.3371 66.309 60.3711 66.2366 60.4184 66.1732C60.4657 66.1097 60.5254 66.0565 60.5938 66.0167C60.6623 65.9769 60.738 65.9513 60.8166 65.9415C63.7705 65.1628 66.7221 64.3675 69.6738 63.5746C70.185 63.4396 70.7034 63.3379 71.2075 63.1674C71.5437 63.0586 71.6407 63.1674 71.6407 63.4846C71.6407 64.2207 71.6407 64.9592 71.6407 65.6954C71.6407 69.26 71.6407 72.8254 71.6407 76.3917C71.6615 77.1507 71.4288 77.895 70.9793 78.507C70.5299 79.1189 69.8893 79.5637 69.1589 79.771C68.4284 79.9782 67.6497 79.9362 66.9458 79.6515C66.2419 79.3668 65.653 78.8557 65.272 78.1989C64.891 77.5421 64.7397 76.7771 64.8421 76.0247C64.9445 75.2724 65.2946 74.5756 65.8372 74.0444C66.3798 73.5133 67.0839 73.1781 67.8382 73.0918C68.5926 73.0055 69.3542 73.173 70.0028 73.5679C70.1471 73.6578 70.2892 73.7549 70.4312 73.8496C70.5472 73.7052 70.5022 73.5679 70.5046 73.4424C70.5046 71.0755 70.5046 68.7274 70.5164 66.3699C70.5164 65.9581 70.4122 65.9344 70.043 66.0315C67.3068 66.7779 64.5682 67.5116 61.8273 68.2327C61.5077 68.318 61.432 68.4694 61.4343 68.7866C61.4501 71.3492 61.4572 73.9135 61.4557 76.4792C61.4557 78.4202 59.7727 80.0155 57.8839 79.8853C57.358 79.8594 56.8453 79.7121 56.3859 79.4548C55.9265 79.1976 55.533 78.8374 55.2362 78.4025C54.9394 77.9676 54.7473 77.4699 54.6751 76.9484C54.6029 76.4268 54.6526 75.8957 54.8201 75.3965C54.9876 74.8974 55.2685 74.4438 55.6407 74.0714C56.0129 73.699 56.4663 73.418 56.9654 73.2502C57.4645 73.0825 57.9956 73.0326 58.5172 73.1046C59.0388 73.1765 59.5366 73.3683 59.9716 73.6649L60.31 73.8993ZM70.488 64.6255C70.4264 64.4385 70.3081 64.5687 70.2134 64.5924L67.3186 65.3616C65.489 65.8492 63.6593 66.3368 61.832 66.8362C61.6994 66.8717 61.4178 66.8646 61.4746 67.0729C61.5432 67.3096 61.7799 67.1226 61.9172 67.0871C63.2238 66.751 64.5209 66.3936 65.8298 66.0409C67.291 65.648 68.7506 65.2535 70.2087 64.8575C70.3247 64.8149 70.4998 64.8433 70.488 64.6255Z" fill="#D14947"/>
        <path d="M63.1506 83.1893C62.964 83.5199 62.7392 83.8273 62.4808 84.1053C62.3656 84.2309 62.2147 84.3183 62.0484 84.3557C61.8822 84.3932 61.7084 84.3788 61.5505 84.3147C61.3926 84.2506 61.2581 84.1397 61.1651 83.9969C61.072 83.8541 61.0248 83.6863 61.0298 83.516C60.9896 82.9455 61.231 82.4485 61.4819 81.9703C61.9025 81.1621 62.3978 80.3951 62.9612 79.6791C63.0583 79.556 63.1388 79.3619 63.3092 79.6081C64.0051 80.607 64.7294 81.5869 65.1507 82.7514C65.2543 83.0121 65.2957 83.2933 65.2714 83.5728C65.2653 83.7355 65.2118 83.8929 65.1177 84.0257C65.0235 84.1585 64.8927 84.261 64.7412 84.3207C64.5972 84.3784 64.4396 84.3931 64.2875 84.3628C64.1353 84.3325 63.9953 84.2587 63.8844 84.1503C63.5877 83.8733 63.3397 83.5485 63.1506 83.1893Z" fill="#D14947"/>
    </g>
    <defs>
        <clipPath id="clip0_1_84252">
            <rect width="117.165" height="112" fill="white" transform="translate(4.56836)"/>
        </clipPath>
    </defs>
</svg>
