<svg width="126" height="112" viewBox="0 0 126 112" fill="none" xmlns="http://www.w3.org/2000/svg">
    <g clip-path="url(#clip0_1_84281)">
        <path d="M98.198 48.8993C98.198 49.5218 98.198 50.1419 98.1743 50.7621C97.7838 65.8846 94.728 81.4545 86.1383 94.1698C83.2368 98.4736 79.7035 102.316 75.6574 105.567C72.2797 108.263 65.896 113.567 61.2591 111.546C53.0978 107.995 46.1106 101.974 40.934 94.7403C32.0295 82.2735 28.7347 66.6799 28.3891 51.5882C28.3276 48.8212 28.3891 46.0589 28.4956 43.3038C28.5216 42.6789 28.3181 41.3581 28.6708 40.8279C28.9856 40.3546 30.1856 40.0516 30.6922 39.8102L40.3683 35.1709C47.055 31.966 53.6801 28.3398 60.5325 25.5113C61.4414 25.135 62.2651 24.5906 63.1929 24.2568C63.331 24.1995 63.4802 24.1742 63.6294 24.1828C63.7786 24.1914 63.924 24.2337 64.0545 24.3065C74.7887 29.6417 85.5939 34.8537 96.3588 40.1179C96.8515 40.3172 97.2967 40.618 97.6654 41.0007C98.5293 42.0446 98.2382 43.763 98.2122 45.0056C98.1838 46.2956 98.198 47.6022 98.198 48.8993ZM94.6357 50.8094C94.7138 48.575 94.6357 46.343 94.5505 44.1109C94.5632 43.9247 94.5161 43.7393 94.416 43.5818C94.3159 43.4243 94.1682 43.3028 93.9942 43.2352C92.5741 42.5724 91.1752 41.8694 89.7668 41.1806L79.3333 36.0727C74.268 33.5937 69.205 31.1123 64.1445 28.6286C63.9599 28.5245 63.7516 28.4698 63.5397 28.4698C63.3278 28.4698 63.1195 28.5245 62.9349 28.6286C60.5064 29.8121 58.0637 30.9672 55.6281 32.1341L42.2311 38.5604L37.3552 40.8895C35.6651 41.699 33.9799 42.5132 32.2851 43.3156C32.1749 43.3526 32.0804 43.4258 32.0172 43.5234C31.954 43.621 31.9258 43.7372 31.9372 43.8529C31.9514 44.3263 31.878 44.821 31.8591 45.3062C31.7952 46.8164 31.7715 48.3312 31.7455 49.8437C31.7289 50.8331 31.7691 51.8225 31.7928 52.8143C31.8307 54.5421 31.8875 56.2653 32.0129 57.9908C32.1265 59.5696 32.2804 61.1412 32.4603 62.7129C32.6875 64.6806 32.9928 66.6342 33.3763 68.5735C34.0808 72.214 35.0749 75.7924 36.3492 79.2745C37.758 83.1177 39.5836 86.795 41.7932 90.2407C43.1954 92.423 44.7739 94.4868 46.5129 96.4114C48.0053 98.0743 49.6168 99.6264 51.3344 101.055C53.4002 102.77 55.6268 104.282 57.9832 105.569C59.6268 106.47 61.3434 107.23 63.1148 107.841C63.3836 107.948 63.6813 107.955 63.9551 107.863C64.9927 107.501 66.011 107.086 67.0061 106.62C70.5195 104.934 73.768 102.744 76.6491 100.12C78.6968 98.2733 80.5728 96.2444 82.2541 94.0586C84.4955 91.1299 86.4218 87.9731 88.0011 84.6404C89.4856 81.4967 90.7056 78.2348 91.6486 74.8886C92.398 72.2412 93.001 69.5546 93.4546 66.8409C93.6771 65.5106 93.8649 64.1765 94.0179 62.8383C94.1457 61.7306 94.2783 60.6252 94.3564 59.5246C94.4487 58.1967 94.5931 56.8712 94.6262 55.541C94.6736 53.9504 94.6357 52.3835 94.6357 50.8142V50.8094Z" fill="#C1A575"/>
        <path d="M74.7363 1.05124C74.7836 1.48439 74.8428 1.92228 74.883 2.36253C75.0235 3.95931 75.0622 5.56341 74.999 7.1651C74.9769 8.00989 74.8359 8.84735 74.5801 9.65278C74.5201 9.88006 74.4102 10.0911 74.2582 10.2704C74.1063 10.4498 73.9163 10.593 73.7019 10.6895C73.6247 10.7139 73.5586 10.7648 73.5153 10.8333C73.4719 10.9017 73.4542 10.9832 73.4652 11.0635C73.4652 12.0103 73.4652 12.9381 73.4652 13.8754C73.4652 14.1121 73.5694 14.1903 73.7919 14.1879C74.4404 14.1879 75.089 14.1879 75.7375 14.1879C75.9742 14.1879 76.0523 14.0766 76.0476 13.8565C76.0476 13.4967 76.0358 13.1464 76.0476 12.7748C76.0782 11.8215 76.1819 10.8719 76.3577 9.93445C76.4124 9.47941 76.5196 9.03223 76.6772 8.60185C77.2654 7.26159 77.9268 5.95464 78.6584 4.68689C79.0722 3.98917 79.6003 3.36589 80.2206 2.84303C80.6679 2.45721 81.5106 2.62053 81.8396 3.07972C82.0005 3.30222 81.8869 3.44424 81.7378 3.59336C81.1966 4.1466 80.7201 4.75964 80.3176 5.42065C79.7095 6.41805 79.2187 7.48234 78.8548 8.59238C78.321 10.1757 77.9552 11.8108 77.7636 13.4707C77.6316 14.5775 77.5644 15.6911 77.5625 16.8057C77.5625 18.4973 77.5625 20.1913 77.5625 21.8876C77.5625 22.0131 77.5625 22.1385 77.5625 22.264C77.5625 22.4391 77.4867 22.5338 77.3068 22.5338H76.9281H49.5258C49.4169 22.5338 49.308 22.5338 49.2015 22.5338C48.9956 22.5338 48.908 22.4368 48.9127 22.2379C48.9127 22.1125 48.9127 21.9847 48.9127 21.8592C48.9127 20.0225 48.9127 18.1833 48.9127 16.3466C48.8806 14.2595 48.6065 12.1832 48.0961 10.1593C48.0592 10.0401 48.0117 9.92444 47.9541 9.81374C47.9541 9.79953 47.9186 9.79007 47.9162 9.77586C47.7904 9.16124 47.5983 8.56206 47.3434 7.98881C47.289 7.84916 47.263 7.6811 47.2014 7.53435C46.6408 6.12644 45.8399 4.82659 44.8344 3.69277C44.709 3.55548 44.4486 3.42293 44.5835 3.21937C44.7469 2.96138 44.9315 2.66314 45.2936 2.62053C45.6555 2.60141 46.0121 2.71409 46.2972 2.93771C46.9884 3.3827 47.4121 4.05965 47.8239 4.73187C48.7529 6.25184 49.4824 7.88505 49.9944 9.59124C50.1931 10.2849 50.306 11.0004 50.3305 11.7215C50.3988 12.4382 50.4304 13.1579 50.4252 13.8778C50.4252 14.1145 50.5104 14.2021 50.7424 14.1997C51.3909 14.1997 52.0395 14.1997 52.688 14.1997C52.9247 14.1997 53.0076 14.1074 53.0076 13.8778C53.0076 12.9405 53.0076 12.004 53.0076 11.0682C53.0196 10.9893 53.0021 10.9087 52.9584 10.8419C52.9148 10.7751 52.848 10.7267 52.7709 10.7061C52.3117 10.5617 52.0916 10.1901 51.9306 9.78297C51.6872 9.08605 51.5415 8.3588 51.4974 7.62193C51.4108 6.8163 51.3854 6.00525 51.4217 5.19579C51.4903 3.81348 51.5401 2.43118 51.7412 1.07017C51.9211 0.982594 51.9898 1.11988 52.0679 1.20272C53.5756 2.79569 55.0929 4.38392 56.3545 6.18755C56.8053 6.78887 57.1445 7.46634 57.3557 8.18763C57.5805 9.04921 57.6397 9.88475 57.1711 10.6871C57.0791 10.8433 57.0324 11.022 57.0361 11.2031C57.0361 12.0671 57.0361 12.9334 57.0361 13.8068C57.0361 14.1855 57.0503 14.195 57.4409 14.1974C58.5581 14.1974 59.6753 14.1974 60.7925 14.1974C61.1783 14.1974 61.1902 14.1974 61.1925 13.8044C61.1925 12.9736 61.1925 12.1476 61.1925 11.3168C61.2023 11.2303 61.1847 11.1429 61.1423 11.0669C61.0998 10.9909 61.0346 10.9301 60.9558 10.8931C60.6593 10.6922 60.3854 10.4597 60.1392 10.1996C59.4031 9.48946 59.299 8.55688 59.4291 7.61246C59.6469 6.08103 60.2599 4.67506 60.9937 3.32825C61.5429 2.3489 62.1458 1.40067 62.7997 0.487898C62.8423 0.428724 62.8778 0.367183 62.9204 0.310376C63.2281 -0.0943749 63.24 -0.103843 63.524 0.289073C64.7942 1.98347 65.8249 3.84485 66.5868 5.82067C66.8765 6.56019 67.0366 7.34406 67.0602 8.13793C67.0807 8.68022 66.9484 9.21735 66.6785 9.68814C66.4086 10.1589 66.0119 10.5444 65.5335 10.8008C65.4528 10.8333 65.3843 10.8902 65.3376 10.9637C65.2909 11.0371 65.2684 11.1233 65.2732 11.2102C65.2732 12.0742 65.285 12.9381 65.2732 13.8139C65.2732 14.0885 65.3631 14.1974 65.6472 14.1926C66.7644 14.1832 67.8816 14.1832 68.9988 14.1926C69.2615 14.1926 69.4012 14.124 69.3893 13.8281C69.3562 12.9665 69.4272 12.105 69.3515 11.241C69.3508 11.0665 69.3069 10.8949 69.2236 10.7416C68.7503 9.98179 68.8118 9.10838 68.9988 8.34622C69.2397 7.51963 69.6419 6.74894 70.1823 6.07867C70.9255 5.08691 71.7019 4.12119 72.535 3.20044C73.1386 2.53296 73.7445 1.86784 74.3955 1.24533C74.4854 1.16012 74.5469 1.02757 74.7363 1.05124Z" fill="#C1A575"/>
        <path d="M95.8404 15.4112C96.4251 15.9343 96.4227 16.5189 95.8404 17.0089C95.0948 17.6337 94.4399 18.3594 93.8948 19.1652C92.4746 21.3262 92.1219 23.634 93.0261 26.0933C93.0498 26.1595 93.0663 26.2353 93.2012 26.2306C93.2817 25.7146 93.374 25.1938 93.4379 24.6684C93.5231 23.8141 93.8326 22.9975 94.335 22.3014C94.5896 21.9561 94.9117 21.6662 95.2818 21.4493C95.6582 21.2292 95.8025 21.3049 95.8073 21.7404C95.8289 22.6222 96.0356 23.4896 96.414 24.2864C96.7924 25.0832 97.334 25.7915 98.0038 26.3655C98.2713 26.6022 98.3044 26.6022 98.4251 26.2424C98.4642 26.1326 98.5313 26.0348 98.6197 25.9589C98.7081 25.8829 98.8148 25.8313 98.9293 25.8092C99.2293 25.743 99.5387 25.731 99.8429 25.7737C99.8795 25.7713 99.9161 25.7781 99.9493 25.7935C99.9825 25.8089 100.011 25.8324 100.033 25.8619C100.055 25.8914 100.069 25.9259 100.073 25.9622C100.078 25.9985 100.074 26.0354 100.061 26.0696C99.6915 27.8164 100.458 29.2271 101.424 30.5668C102.941 32.6569 104.892 34.3019 106.949 35.8286C107.005 35.8712 107.079 35.8925 107.095 36.0156C106.567 35.9896 106.043 35.9151 105.528 35.7931C104.494 35.6037 103.455 35.4073 102.437 35.1445C101.194 34.8255 99.9831 34.3913 98.8204 33.8474C98.5956 33.7409 98.347 33.6699 98.1387 33.5468C97.334 33.09 96.4961 32.6829 95.7386 32.1598C94.7855 31.5272 93.9224 30.7684 93.1728 29.9041C92.6464 29.3195 91.9849 28.8726 91.2461 28.6023C90.469 28.2562 89.6676 27.9675 88.8484 27.7383C87.4708 27.3785 86.0814 27.2365 84.7725 28.0318C84.6959 28.073 84.6169 28.1094 84.5358 28.1407C84.4316 27.7241 84.6707 27.4495 84.8719 27.1821C85.0731 26.9146 85.3122 26.6755 85.5275 26.4317C85.4684 26.3489 85.4163 26.3465 85.369 26.3678C84.595 26.7016 83.7855 26.6661 82.9736 26.6045C82.8667 26.595 82.7632 26.5619 82.6706 26.5075C82.4339 26.3702 82.3984 26.214 82.5949 26.0057C82.983 25.6111 83.4178 25.2653 83.8896 24.9761C84.2124 24.7573 84.5605 24.5784 84.9263 24.4435C86.6992 23.8423 88.3206 24.195 89.8378 25.2128C89.9372 25.279 90.0106 25.4021 90.1739 25.3642C90.1924 25.2584 90.1898 25.15 90.1663 25.0452C90.1427 24.9404 90.0987 24.8413 90.0366 24.7536C89.8298 24.3638 89.708 23.9346 89.6792 23.4943C89.5916 22.6351 89.4425 21.7854 89.3881 20.9215C89.3369 20.2216 89.3719 19.5181 89.4922 18.8267C89.6082 18.1687 89.6224 17.4752 89.9656 16.8597C90.3139 16.2597 90.7327 15.7035 91.213 15.2029C92.1882 14.1401 93.4545 13.7827 94.8061 13.6478C95.9039 13.5116 97.0182 13.6224 98.0677 13.9721C98.5341 14.1233 98.9328 14.4332 99.1944 14.8478C99.2914 15.0017 99.3672 15.1626 99.2252 15.3425C99.1654 15.4108 99.0863 15.4591 98.9983 15.4811C98.9103 15.5031 98.8177 15.4977 98.7328 15.4656C98.4768 15.397 98.226 15.31 97.9825 15.2052C97.2369 14.9188 96.5576 15.0253 95.8404 15.4112ZM105.33 35.1327C105.317 35.076 105.29 35.0233 105.252 34.9798C105.213 34.9363 105.164 34.9034 105.109 34.8842C104.054 34.2995 102.993 33.7267 101.94 33.135C101.518 32.9356 101.116 32.6979 100.738 32.4249C99.8906 31.7246 99.0927 30.9669 98.3494 30.1574C97.3343 29.106 96.5307 27.8693 95.9824 26.5146C95.9419 26.3714 95.8595 26.2436 95.7457 26.1477C95.7647 26.3323 95.767 26.4578 95.7883 26.5809C96.0132 27.7712 96.5287 28.8876 97.289 29.8307C97.4706 30.0006 97.5807 30.2334 97.5967 30.4816C96.5258 29.8105 95.5712 28.9695 94.7705 27.9916C94.7912 28.2833 94.8974 28.5624 95.0759 28.794C95.7878 29.8592 96.6954 30.7797 97.7506 31.5065C99.286 32.6136 100.948 33.533 102.702 34.2451C103.548 34.6221 104.428 34.9193 105.33 35.1327ZM91.2367 24.6187C91.2628 24.5722 91.2787 24.5207 91.2832 24.4676C91.2877 24.4145 91.2807 24.3611 91.2627 24.311C91.001 23.1501 91.0131 21.9442 91.2982 20.7889C91.6646 19.3564 92.3167 18.0126 93.2155 16.8384C93.5502 16.4495 93.8571 16.0374 94.1338 15.6053C91.703 16.971 89.4283 21.3215 91.2367 24.6187Z" fill="#C1A575"/>
        <path d="M28.8528 22.5265C29.5769 22.7785 30.1795 23.294 30.5405 23.9704C31.0254 24.8356 31.3245 25.7925 31.4186 26.78C31.411 26.9603 31.4545 27.1392 31.5441 27.296C31.705 27.2604 31.7003 27.1137 31.7287 27.0048C32.0553 25.7811 32.2328 24.5432 31.9275 23.2958C31.7997 22.7656 31.5275 22.2733 31.3618 21.7525C31.1843 21.3087 30.9452 20.8919 30.6517 20.5146C30.1183 19.6593 29.4333 18.9085 28.6303 18.2991C28.5084 18.2117 28.4094 18.0961 28.3418 17.9621C28.2742 17.8282 28.24 17.6799 28.2421 17.5299C28.2114 17.1724 28.3439 16.95 28.7723 16.8056C28.0623 16.5689 27.4824 16.3322 26.8362 16.5263C26.4929 16.6197 26.158 16.7416 25.8349 16.8908C25.584 17.0139 25.3971 17.0352 25.2314 16.7914C25.0657 16.5476 25.2456 16.3866 25.3639 16.2304C25.7888 15.6653 26.4204 15.2917 27.1202 15.1913C28.1293 14.9914 29.1651 14.965 30.1831 15.1132C32.3725 15.4801 33.8874 16.6636 34.6282 18.7772C35.0375 20.0481 35.1801 21.3897 35.0472 22.7182C34.9875 23.8509 34.7847 24.9715 34.4436 26.0533C34.4082 26.1389 34.4082 26.2351 34.4436 26.3208C34.5667 26.4036 34.6472 26.2971 34.7134 26.2308C35.4922 25.4521 36.491 25.2012 37.5348 25.0947C38.9101 24.9527 40.1125 25.4403 41.2036 26.2332C41.4484 26.3845 41.672 26.5676 41.8688 26.7776C42.051 27.0001 42.0486 27.0403 41.8072 27.1776C41.6215 27.2893 41.4125 27.3565 41.1965 27.3741C40.5314 27.419 39.8639 27.464 39.2249 27.2013C39.1864 27.1846 39.1443 27.1785 39.1027 27.1835C39.0611 27.1885 39.0216 27.2044 38.9882 27.2297C39.4534 27.6701 39.8093 28.2131 40.0273 28.8155C39.89 28.967 39.7906 28.8581 39.6817 28.8013C38.3159 28.051 36.9478 28.2427 35.5466 28.7256C34.8365 28.9623 34.1383 29.225 33.4424 29.4972C32.8169 29.7199 32.2644 30.1095 31.8447 30.6239C31.0588 31.5619 30.1495 32.3892 29.1416 33.0832C27.6053 34.164 25.9342 35.0393 24.171 35.6868C23.2242 36.0514 22.2514 36.3449 21.2785 36.6147C20.3057 36.8845 19.2832 37.0171 18.2796 37.2112C18.2323 37.0029 18.3979 36.9745 18.4784 36.9153C19.011 36.4585 19.5672 36.0324 20.0832 35.559C20.5045 35.1708 20.8809 34.733 21.2809 34.3187C21.8632 33.7152 22.552 33.1992 23.0183 32.4985C23.6928 31.4926 24.3532 30.4748 24.7083 29.2913C24.9256 28.6659 24.9568 27.9908 24.7982 27.348C24.7556 27.1942 24.7769 27.0735 24.9734 27.0261C25.2392 26.9512 25.5219 26.9621 25.7812 27.0573C26.0405 27.1525 26.2631 27.3271 26.4172 27.5563C26.5403 27.7362 26.6326 27.6936 26.7628 27.5918C27.2575 27.2036 27.5439 26.6592 27.8611 26.1432C28.2638 25.429 28.5641 24.6617 28.7534 23.8639C28.8741 23.4662 28.8244 23.0165 28.8528 22.5265ZM27.3332 31.521L27.2599 31.45C27.5841 30.9103 27.9889 30.4251 28.2848 29.8665C28.7088 29.087 28.9614 28.2259 29.0256 27.3409C28.8528 27.4214 28.8528 27.5611 28.8079 27.6723C28.5559 28.3334 28.2388 28.9677 27.8611 29.5659C27.1038 30.7295 26.2054 31.7948 25.1864 32.7376C24.8086 33.1482 24.3845 33.5136 23.9224 33.8264L20.1353 36.0301C20.0217 36.0963 19.8986 36.146 19.8607 36.2975C19.9104 36.3117 19.9294 36.3259 19.9436 36.3212C21.66 35.7792 23.3094 35.0439 24.8598 34.1294C26.3026 33.3316 27.6208 32.3269 28.7723 31.147C29.2703 30.6253 29.6832 30.0287 29.9961 29.3789C30.041 29.2818 30.1262 29.1801 30.0339 29.0238C29.5858 29.6264 29.0695 30.1753 28.4954 30.6594C28.159 31.0103 27.7662 31.3024 27.3332 31.5233V31.521ZM33.3927 25.5539C34.2022 24.0816 34.1027 21.9727 33.2459 20.1927C32.5358 18.7441 31.0494 17.0943 30.3085 16.9713C32.5453 19.4234 33.9868 22.1265 33.3927 25.5562V25.5539Z" fill="#C1A575"/>
        <path d="M101.646 60.9704C101.9 60.4047 102.12 59.91 102.342 59.4271C103.303 57.3504 104.515 55.3996 105.952 53.6186C106.654 52.796 107.43 52.0394 108.269 51.3581C109.297 50.4708 110.51 49.8239 111.82 49.4646C113.32 49.0614 114.897 49.0321 116.412 49.3794C118.198 49.8015 119.87 50.6094 121.311 51.7463C121.395 51.8105 121.474 51.8809 121.548 51.957C121.57 51.9733 121.588 51.9945 121.6 52.019C121.613 52.0434 121.619 52.0704 121.619 52.0978C121.619 52.1252 121.613 52.1522 121.6 52.1767C121.588 52.2011 121.57 52.2224 121.548 52.2387C121.383 52.4025 121.198 52.5455 120.999 52.6647C119.815 53.2896 118.563 53.3204 117.285 53.2044C116.771 53.1594 116.262 53.0434 115.749 52.9677C115.69 53.1618 115.862 53.1807 115.948 53.2352C116.939 53.8624 117.55 54.8139 118.13 55.7915C118.194 55.898 118.277 56.0282 118.182 56.1394C118.087 56.2507 117.898 56.2033 117.789 56.1394C117.377 55.8743 116.902 55.7702 116.473 55.5666C116.197 55.4423 115.902 55.3678 115.6 55.3465C114.738 55.2574 113.867 55.3102 113.022 55.5027C110.769 56.044 108.597 56.883 106.565 57.9975C105.029 58.8189 103.545 59.7327 102.12 60.7337C101.986 60.8538 101.823 60.9356 101.646 60.9704Z" fill="#C1A575"/>
        <path d="M24.112 61.4135C23.6031 61.2928 23.2552 60.9401 22.8528 60.6892C21.5557 59.8647 20.2122 59.1155 18.829 58.4453C17.2766 57.6977 15.6597 57.0925 13.998 56.637C13.0323 56.3743 12.0354 56.2437 11.0346 56.2488C10.0636 56.2817 9.11928 56.5752 8.30072 57.0985C8.2084 57.153 8.12083 57.2121 8.02615 57.2642C7.98052 57.2841 7.93292 57.2992 7.88413 57.3092C7.85288 57.2885 7.82971 57.2577 7.81851 57.2219C7.8073 57.1861 7.80874 57.1476 7.82259 57.1127C8.0316 56.5009 8.36164 55.9374 8.79305 55.4559C9.26644 54.9635 9.69249 54.4452 10.3529 54.0546C10.1177 53.9853 9.86533 54.0038 9.64279 54.1067C8.41268 54.3869 7.13809 54.4111 5.89825 54.1777C5.44295 54.0782 5.01433 53.882 4.64139 53.6025C4.40469 53.4345 4.40469 53.3161 4.64139 53.0842C5.4183 52.3301 6.31902 51.7152 7.30422 51.2663C8.61212 50.6282 10.0375 50.2664 11.4914 50.2036C12.6986 50.1489 13.9031 50.3589 15.0205 50.819C16.881 51.5717 18.3935 52.793 19.7213 54.2653C21.0011 55.7233 22.1053 57.3264 23.0114 59.0418C23.357 59.673 23.6876 60.3097 24.0032 60.952C24.0536 61.0164 24.0895 61.0911 24.1083 61.1708C24.1271 61.2505 24.1284 61.3333 24.112 61.4135Z" fill="#C1A575"/>
        <path d="M98.3754 71.3448C98.3295 71.1338 98.2418 70.9342 98.1174 70.7578C97.7789 70.0643 97.573 69.3376 97.7931 68.5707C97.8156 68.5115 97.8434 68.4545 97.876 68.4003C99.0779 69.0407 100.057 70.0313 100.683 71.2406C101.263 70.4856 101.63 69.6406 102.395 69.0914C103.133 68.5539 104.003 68.2267 104.913 68.1446C105.837 68.0364 106.773 68.1227 107.661 68.3979C107.095 69.4867 106.12 69.8441 104.958 70.0998C105.668 70.4004 106.3 70.5589 106.721 71.0607C106.721 71.1318 106.693 71.1554 106.65 71.1531C105.322 71.0915 104.262 71.6998 103.337 72.5472C102.033 73.7141 100.933 75.089 100.08 76.616C99.4791 77.6372 98.7688 78.5897 97.9612 79.4564C97.8902 79.5368 97.8286 79.6244 97.7647 79.7096C97.7647 79.7096 97.7647 79.7428 97.7813 79.8067C98.273 79.8035 98.7643 79.8367 99.2512 79.9061C100.187 80.089 101.077 80.4524 101.874 80.976C102.165 81.1606 102.139 81.2458 101.843 81.4659C101.494 81.72 101.079 81.8694 100.648 81.8967C100.096 81.9264 99.5427 81.9264 98.9908 81.8967C99.5092 82.4269 100.127 82.8009 100.307 83.5181C100.216 83.5341 100.123 83.5318 100.033 83.5115C99.9436 83.4912 99.8587 83.4532 99.7837 83.3997C99.4787 83.249 99.1451 83.1651 98.8051 83.1537C98.465 83.1423 98.1265 83.2036 97.8121 83.3335C97.618 83.3997 97.4286 83.3761 97.2393 83.4352C96.3392 83.7337 95.4729 84.1256 94.6545 84.6045C93.7011 85.1499 92.7853 85.7588 91.9136 86.4271C91.8307 86.491 91.7361 86.5715 91.6295 86.4815C91.523 86.3916 91.6177 86.3229 91.6295 86.2448C91.7504 85.7976 91.937 85.3708 92.1834 84.9785C92.4661 84.5622 92.6885 84.108 92.8438 83.6293C92.8655 83.5432 92.905 83.4625 92.9598 83.3926C93.4332 82.8601 93.7148 82.1902 94.29 81.7358C94.6522 81.4517 94.9031 81.0375 95.2889 80.7724C95.7949 80.4037 96.3683 80.1375 96.9765 79.9889C97.0917 79.9802 97.2004 79.9322 97.2844 79.8529C97.3684 79.7736 97.4227 79.6679 97.4381 79.5534C97.7789 77.8752 98.0701 76.1923 97.9872 74.4692C97.9493 73.6786 97.6748 72.9496 97.4073 72.2182C97.2419 71.7372 96.949 71.3102 96.5599 70.9826C97.27 70.8856 97.786 71.1791 98.3139 71.411C98.3399 71.43 98.3801 71.4702 98.3896 71.4631C98.4606 71.4158 98.4109 71.385 98.3754 71.3448Z" fill="#C1A575"/>
        <path d="M103.157 53.2663C103.807 52.7523 104.431 52.2048 105.024 51.626C106.207 50.5369 107.197 49.2566 107.955 47.8388C108.275 47.2315 108.484 46.5718 108.572 45.8908C108.645 45.2734 108.567 44.6476 108.345 44.0668C108.124 43.4861 107.765 42.9676 107.299 42.5558C106.903 42.1874 106.464 41.8694 105.99 41.609C103.985 40.5013 102.092 41.1261 100.908 42.9818C100.778 43.1972 100.66 43.4192 100.553 43.6469C100.454 43.8434 100.328 43.86 100.165 43.7298C99.7923 43.4412 99.53 43.0335 99.4217 42.5747C99.3039 41.972 99.3193 41.3507 99.4667 40.7545C99.5353 40.3829 99.5353 40.3758 99.1732 40.2811C98.6264 40.1225 98.0796 40.0444 97.5163 40.364C97.4598 40.0883 97.4666 39.8033 97.5363 39.5306C97.606 39.258 97.7368 39.0047 97.9187 38.7899C98.1296 38.5216 98.3675 38.2757 98.6288 38.0562C98.7874 37.9378 98.7684 37.8195 98.6288 37.7059C98.3256 37.3723 97.9575 37.1041 97.5471 36.9177C97.4034 36.8834 97.2704 36.8143 97.1597 36.7165C97.0491 36.6187 96.9643 36.4951 96.9127 36.3567C97.465 36.0262 98.0801 35.8142 98.7187 35.7342C100.844 35.4003 103.021 35.6786 104.994 36.5366C106.028 36.9674 106.887 37.7082 107.654 38.5248C108.787 39.6634 109.582 41.094 109.95 42.6576C110.178 43.6977 110.195 44.7728 110.002 45.8198C109.713 47.5793 109.011 49.2453 107.955 50.6816C107.053 51.865 105.94 52.7787 104.487 53.2166C104.057 53.3552 103.596 53.3724 103.157 53.2663ZM101.566 37.8005C101.973 37.7579 102.383 37.7579 102.79 37.8005C103.732 37.9706 104.615 38.3779 105.356 38.984C106.37 39.7632 107.303 40.6435 108.139 41.6114C108.222 41.706 108.298 41.8339 108.504 41.8149C108.445 41.6871 108.416 41.6043 108.371 41.5285C107.797 40.5266 107.057 39.6288 106.184 38.8728C105.584 38.324 104.881 37.9007 104.115 37.6278C103.249 37.3414 102.395 37.3248 101.566 37.8005Z" fill="#C1A575"/>
        <path d="M100.435 69.5367C100.145 69.1719 99.9789 68.7241 99.9612 68.2585C99.6843 66.0927 100.39 64.211 101.673 62.521C102.811 61.0203 104.196 59.8013 105.952 59.0652C107.137 58.5884 108.422 58.4119 109.692 58.5516C110.924 58.6868 112.124 59.0285 113.242 59.5623C114.3 60.0693 115.228 60.8089 115.96 61.7257C116.969 62.8764 117.728 64.2251 118.187 65.6856C118.344 66.2789 118.436 66.8877 118.459 67.5011C118.389 67.5231 118.314 67.5275 118.242 67.5139C118.17 67.5002 118.102 67.469 118.045 67.423C117.548 67.0632 116.949 66.907 116.438 66.5851C116.241 66.462 116.201 66.6087 116.17 66.772C116.054 67.3748 115.748 67.9246 115.297 68.3413C115.12 68.5125 114.92 68.6576 114.703 68.7721C114.577 68.4526 114.449 68.152 114.345 67.8419C114.295 67.69 114.214 67.5499 114.109 67.4301C113.701 66.9567 113.704 66.9567 113.219 67.3543C112.509 67.9319 111.706 68.3011 110.75 68.1236C110.661 68.1163 110.572 68.1029 110.485 68.0833C110.125 67.9626 110.087 67.8017 110.321 67.494C110.629 67.1198 110.862 66.6909 111.01 66.23C111.095 65.9223 111.313 65.6738 111.358 65.3448C111.499 64.6147 111.35 63.8585 110.944 63.2358C110.676 62.8334 110.471 62.3813 110.037 62.1328C109.374 61.7421 108.686 61.3942 107.978 61.0913C107.616 60.9469 107.23 60.8715 106.84 60.8688C105.455 60.8286 104.402 61.489 103.526 62.476C102.844 63.2869 102.294 64.1998 101.895 65.1814C101.322 66.535 100.892 67.9447 100.612 69.3875C100.588 69.4396 100.577 69.4917 100.435 69.5367ZM115.062 64.2134C115.098 63.9423 115.089 63.6673 115.036 63.3991C114.8 62.3695 114.149 61.6499 113.297 61.0937C111.777 60.0996 110.068 59.7327 108.283 59.6356C108.212 59.6356 108.139 59.6357 108.113 59.7753C108.378 59.8534 108.648 59.9363 108.92 60.012C110.086 60.315 111.221 60.7263 112.31 61.2405C113.309 61.7352 114.184 62.3719 114.726 63.392C114.857 63.6287 114.873 63.908 115.07 64.2134H115.062Z" fill="#C1A575"/>
        <path d="M8.04964 68.2633C8.03541 68.213 8.0259 68.1615 8.02124 68.1094C8.02515 66.677 8.41959 65.2727 9.16212 64.0477C9.59743 63.3535 10.0924 62.6985 10.6415 62.0903C11.6981 60.8836 13.0937 60.0233 14.6464 59.6215C17.0133 58.973 19.2998 59.0889 21.4254 60.4594C23.3828 61.721 24.9024 63.3518 25.7096 65.5721C26.1189 66.6557 26.2173 67.8321 25.9936 68.9687C25.9026 69.2993 25.7578 69.6128 25.5652 69.8965C25.2717 68.7485 24.8693 67.7307 24.5024 66.7011C24.125 65.6574 23.6143 64.6669 22.9828 63.7542C22.8209 63.4549 22.6315 63.1712 22.4171 62.9069C21.7976 62.3135 21.0478 61.8734 20.2277 61.6216C19.8237 61.4875 19.3984 61.4289 18.9732 61.4488C18.6739 61.4825 18.3817 61.5623 18.1069 61.6855C17.2307 61.9543 16.4308 62.4272 15.773 63.0654C14.876 63.9933 14.6629 65.0916 14.973 66.3082C15.1208 66.9404 15.4206 67.527 15.8464 68.0171C16.1257 68.3367 16.0831 68.4905 15.6405 68.5994C15.2241 68.7154 14.7865 68.733 14.3622 68.6509C13.9378 68.5687 13.5384 68.389 13.1954 68.126C12.5611 67.6645 12.509 67.681 12.0806 68.3296C11.9195 68.5681 11.824 68.8448 11.8036 69.132C11.7776 69.4326 11.5788 69.5438 11.4131 69.3355C11.1409 69.0018 10.774 68.7627 10.5255 68.4077C10.3402 68.1887 10.2313 67.9153 10.2154 67.629C10.2154 67.2384 10.1491 67.2242 9.80356 67.3923C9.2852 67.629 8.73843 67.8159 8.30764 68.2136C8.27255 68.2434 8.23036 68.2636 8.18517 68.2723C8.13997 68.281 8.09329 68.2779 8.04964 68.2633ZM11.2001 64.8052C11.2521 64.7555 11.29 64.7365 11.2995 64.7081C11.6853 63.43 12.6013 62.6347 13.7304 62.0287C14.8186 61.4685 15.9574 61.0128 17.1317 60.6677C17.3765 60.6178 17.6116 60.5283 17.8276 60.4026C17.7617 60.3833 17.6944 60.369 17.6264 60.36C17.5 60.3569 17.3736 60.3608 17.2477 60.3718C16.012 60.4917 14.8087 60.8367 13.6972 61.3896C12.9273 61.7503 12.2613 62.2999 11.761 62.9873C11.3727 63.5118 11.1749 64.1531 11.2001 64.8052Z" fill="#C1A575"/>
        <path d="M22.3723 53.9807C21.435 54.0708 20.4944 53.845 19.7 53.3392C19.132 53.0078 18.713 52.5155 18.2538 52.0682C17.2345 51.1123 16.4801 49.9087 16.0644 48.5745C15.6147 47.0762 15.3685 45.5519 15.591 43.9589C15.7528 42.7737 16.195 41.6442 16.881 40.6641C17.1177 40.3519 17.378 40.0583 17.6597 39.786C18.2006 39.1437 18.8111 38.5634 19.4799 38.0557C19.8189 37.8238 20.1835 37.6316 20.5664 37.4829C21.964 36.9145 23.4555 36.6119 24.9642 36.5906C26.079 36.5906 27.1868 36.7231 28.2306 37.3007C27.956 37.58 27.5868 37.7267 27.2838 37.9634C26.9808 38.2001 26.7299 38.4841 26.4483 38.7208C26.5062 38.8769 26.6134 39.0098 26.7536 39.0996C27.2533 39.5477 27.587 40.1516 27.7004 40.8132C27.7312 40.9387 27.7572 41.0736 27.6294 41.1564C27.5016 41.2393 27.4471 41.0996 27.3548 41.0689C26.8341 40.8866 26.3299 41.0192 25.8376 41.2109C25.6672 41.2772 25.7429 41.4168 25.7689 41.5352C25.8969 42.0422 25.944 42.5662 25.9086 43.0879C25.8991 43.3586 25.8339 43.6245 25.717 43.8688C25.6001 44.1132 25.4341 44.3308 25.2293 44.5081C25.0446 44.6643 24.9216 44.6454 24.7937 44.4607C24.6446 44.2382 24.4884 44.0205 24.344 43.798C23.8236 43.0168 23.0598 42.4294 22.1712 42.1269C21.6869 41.9624 21.1619 41.9624 20.6776 42.1269C19.6711 42.4482 18.7618 43.0181 18.0337 43.7838C17.6013 44.2206 17.2875 44.7604 17.1218 45.3522C16.9561 45.9441 16.9441 46.5684 17.0869 47.1662C17.3544 48.5035 18.0763 49.6183 18.945 50.6432C19.904 51.7657 20.9791 52.7837 22.1522 53.6801C22.2445 53.7416 22.3629 53.7818 22.3723 53.9807ZM23.6197 38.8132C23.5748 38.6735 23.4611 38.6569 23.3641 38.6262C22.2895 38.2901 21.3048 38.5481 20.377 39.0996C18.9568 39.954 17.9414 41.2062 17.1366 42.6358C17.0822 42.7328 16.9662 42.8346 17.0751 42.9719C17.2076 42.9317 17.2739 42.8157 17.352 42.7234C18.0559 41.8844 18.8226 41.1002 19.6456 40.3777C20.4196 39.6984 21.2551 39.1138 22.2919 38.8842C22.7318 38.8238 23.1759 38.8 23.6197 38.8132Z" fill="#C1A575"/>
        <path d="M34.7066 86.2711C33.9965 85.7977 33.3432 85.3243 32.6568 84.9077C31.5346 84.1859 30.3151 83.628 29.0353 83.2508C28.4237 83.0589 27.7794 82.9937 27.1418 83.0591C26.7962 83.1041 26.5263 83.3502 26.105 83.381C26.247 82.6212 26.9879 82.375 27.3548 81.7833C26.2447 81.8567 25.144 82.0437 24.1973 81.201C25.473 80.1122 26.9453 79.7524 28.5383 79.7264C28.6211 79.5725 28.4838 79.5063 28.4033 79.4211C27.866 78.8483 27.2956 78.3015 26.7938 77.7003C26.4708 77.2707 26.1743 76.8217 25.9062 76.3558C25.2561 75.2861 24.4858 74.2942 23.6102 73.3995C22.8491 72.6951 21.967 72.1339 21.0066 71.7426C20.6193 71.5617 20.193 71.4804 19.7663 71.5059C19.6811 71.5059 19.5746 71.5296 19.5485 71.4112C19.5431 71.366 19.5524 71.3201 19.575 71.2805C19.5976 71.2409 19.6323 71.2095 19.674 71.1911C19.9255 70.9921 20.2088 70.8368 20.5119 70.7319C20.7549 70.6955 20.9883 70.611 21.1983 70.4834C20.9728 70.3836 20.7333 70.319 20.4882 70.2917C20.1364 70.2299 19.8007 70.0977 19.5013 69.9028C19.2019 69.708 18.9451 69.4546 18.7461 69.1579C18.5639 68.9023 18.5875 68.8455 18.8905 68.7603C20.2279 68.3886 21.5605 68.3792 22.8481 68.9378C23.6289 69.2763 24.2996 69.8264 24.7843 70.526C24.9973 70.8313 25.1961 71.1461 25.3973 71.4444C25.5677 71.4207 25.5772 71.2905 25.6103 71.2077C26.0103 70.1781 26.8577 69.5295 27.6436 68.8407C28.0388 68.4975 28.1998 68.604 28.2637 69.1224C28.3252 69.8444 28.1597 70.5677 27.7903 71.1911C27.669 71.3448 27.5876 71.5261 27.5536 71.719C27.8473 71.5366 28.1552 71.3783 28.4744 71.2456C28.792 71.0925 29.1507 71.046 29.4969 71.113C29.1972 71.3685 28.9406 71.6706 28.7371 72.0077C28.3488 72.8029 28.1557 73.6793 28.1738 74.564C28.1335 76.2493 28.446 77.892 28.8602 79.5205C28.883 79.6257 28.9374 79.7215 29.0161 79.7951C29.0947 79.8686 29.1939 79.9165 29.3004 79.9323C30.6946 80.2448 31.7029 81.1276 32.5597 82.1904C33.4428 83.3248 34.1549 84.5823 34.6734 85.9231C34.6975 85.9904 34.7134 86.0603 34.7208 86.1314C34.7209 86.1783 34.7161 86.2251 34.7066 86.2711Z" fill="#C1A575"/>
        <path d="M105.642 26.0535C106.414 27.0003 106.274 28.0701 106.094 29.2205C106.686 28.7826 106.982 28.1056 107.751 28.018C107.637 28.3305 107.528 28.5885 107.45 28.8536C107.197 29.7341 107.344 30.6075 107.571 31.4572C107.993 32.9376 108.631 34.3476 109.465 35.642C109.727 36.0681 109.997 36.4894 110.269 36.9249C110.099 37.0291 109.966 36.9439 109.827 36.88C108.771 36.4294 107.78 35.8403 106.88 35.1284C106.319 34.655 105.845 34.0869 105.315 33.578C104.889 33.1478 104.545 32.6432 104.3 32.0892C103.992 31.3832 103.879 30.6075 103.973 29.843C104.061 28.7116 104.321 27.6251 105.017 26.6831C105.19 26.4487 105.419 26.2949 105.642 26.0535Z" fill="#C1A575"/>
        <path d="M15.0205 38.2125C15.6111 37.3062 16.1417 36.3621 16.6087 35.3864C16.9685 34.6763 17.1839 33.8952 17.4822 33.1543C17.6891 32.5645 17.7986 31.9449 17.8064 31.3199C17.8297 30.7471 17.676 30.181 17.3662 29.6986C17.3117 29.6062 17.2289 29.5305 17.2881 29.3648C17.6254 29.4472 17.938 29.6096 18.1993 29.8382C18.4692 30.0276 18.7035 30.2714 19.0065 30.4749C18.8597 29.8262 18.8111 29.1592 18.8621 28.4961C18.8766 28.2115 18.9577 27.9343 19.0988 27.6866C19.2432 27.4192 19.4041 27.4026 19.5935 27.6393C20.6018 28.8962 21.2504 30.3021 21.106 31.9495C20.9937 33.0868 20.5105 34.1556 19.7308 34.9911C18.5076 36.3326 17.0284 37.4159 15.3803 38.177C15.3302 38.2171 15.2695 38.2419 15.2057 38.2482C15.1418 38.2545 15.0775 38.2421 15.0205 38.2125Z" fill="#C1A575"/>
        <path d="M94.6355 50.814C94.6355 52.3833 94.6734 53.9502 94.6355 55.5171C94.5953 56.8474 94.458 58.1729 94.3657 59.5007C94.2876 60.6132 94.155 61.7186 94.0272 62.8145C93.8694 64.1542 93.6816 65.4884 93.4639 66.817C93.0103 69.5307 92.4074 72.2174 91.6579 74.8647C90.7131 78.2193 89.4899 81.4892 88.0009 84.6402C86.4198 87.9799 84.4903 91.1431 82.2445 94.0773C80.5632 96.2632 78.6872 98.2921 76.6395 100.139C73.7584 102.763 70.5098 104.953 66.9965 106.639C66.0014 107.105 64.983 107.52 63.9455 107.881C63.6717 107.974 63.3739 107.966 63.1052 107.86C61.3338 107.248 59.6172 106.488 57.9736 105.588C55.6172 104.301 53.3906 102.789 51.3248 101.074C49.6071 99.6451 47.9957 98.093 46.5033 96.4301C44.7643 94.5055 43.1857 92.4417 41.7836 90.2594C39.574 86.8138 37.7484 83.1365 36.3396 79.2933C35.0653 75.8111 34.0711 72.2327 33.3667 68.5922C32.9832 66.6545 32.6779 64.7009 32.4506 62.7316C32.2708 61.16 32.1169 59.5883 32.0033 58.0095C31.8778 56.284 31.821 54.5609 31.7832 52.833C31.7595 51.8412 31.7193 50.8518 31.7358 49.8624C31.7619 48.35 31.7855 46.8351 31.8494 45.325C31.8684 44.8516 31.9418 44.3569 31.9275 43.8717C31.9162 43.7559 31.9444 43.6398 32.0076 43.5422C32.0708 43.4446 32.1652 43.3713 32.2755 43.3344C33.9702 42.532 35.6555 41.7177 37.3455 40.9082L42.2215 38.5791L55.6185 32.1528C58.0541 30.9859 60.4968 29.8285 62.9253 28.6473C63.1099 28.5432 63.3182 28.4885 63.5301 28.4885C63.742 28.4885 63.9503 28.5432 64.1348 28.6473C69.1844 31.1421 74.2473 33.6235 79.3236 36.0914L89.7572 41.1994C91.1656 41.8881 92.5644 42.5911 93.9846 43.2539C94.1585 43.3215 94.3063 43.443 94.4064 43.6005C94.5064 43.7581 94.5535 43.9435 94.5409 44.1297C94.6426 46.3475 94.7136 48.5795 94.6355 50.814Z" fill="#1C1609"/>
        <path d="M98.3755 71.3452C98.411 71.3784 98.4607 71.4162 98.3897 71.4588C98.3897 71.4588 98.34 71.4257 98.314 71.4068L98.3755 71.3452Z" fill="#C1A575"/>
        <path d="M97.7598 30.4654C97.748 30.4654 97.7362 30.4936 97.7244 30.4936C97.7126 30.4936 97.7032 30.4724 97.6938 30.4606C97.6844 30.4489 97.7174 30.4324 97.7291 30.4324C97.7409 30.4324 97.7503 30.4536 97.7598 30.4654Z" fill="#C1A575"/>
        <path d="M27.1652 31.5755C27.1983 31.5352 27.2291 31.4926 27.2598 31.4524L27.3332 31.5258L27.2007 31.611L27.1652 31.5755Z" fill="#C1A575"/>
        <path d="M27.1992 31.6196C27.176 31.6614 27.155 31.7126 27.1039 31.6452C27.1232 31.6234 27.1441 31.6031 27.1667 31.5847L27.1992 31.6196Z" fill="#C1A575"/>
        <path d="M63.7019 85.7361C75.0631 85.7361 84.2732 76.526 84.2732 65.1648C84.2732 53.8036 75.0631 44.5935 63.7019 44.5935C52.3407 44.5935 43.1306 53.8036 43.1306 65.1648C43.1306 76.526 52.3407 85.7361 63.7019 85.7361Z" fill="#C1A575"/>
        <path d="M75.3968 72.0787C75.0398 71.6253 74.7883 71.0981 74.6607 70.5354C74.3372 69.3717 73.7941 68.2806 73.0606 67.3211C72.3553 66.42 71.6152 65.8496 70.8404 65.6098C73.5277 65.0291 74.8713 63.3966 74.8713 60.7125C74.8713 57.1952 72.315 55.7087 67.3965 55.7087H60.6696C55.751 55.7087 53.2917 57.1952 53.2799 60.7149C53.2799 63.3974 54.6251 65.0298 57.3156 65.6121C56.5392 65.8472 55.7991 66.4169 55.0954 67.3211C54.3627 68.2811 53.8196 69.372 53.4953 70.5354C53.3691 71.0979 53.1175 71.6247 52.7592 72.0763C52.4531 72.42 52.0324 72.6404 51.5757 72.6964V74.0645C51.9718 74.6468 52.7197 74.938 53.8196 74.938C54.6667 74.9824 55.5098 74.7942 56.2575 74.3936C56.8276 74.0536 57.2845 73.553 57.5712 72.9544C57.9116 72.2033 58.1757 71.4198 58.3594 70.6159C58.5668 69.7024 58.8429 68.8059 59.1855 67.9341C59.4766 67.224 59.853 66.7838 60.3216 66.6204H62.0235V71.9201C62.0402 72.1059 62.0031 72.2926 61.9167 72.458C61.8302 72.6233 61.698 72.7603 61.5359 72.8527C61.1508 73.0973 60.6992 73.2164 60.2435 73.1935C60.2423 73.3232 60.2494 73.4529 60.2648 73.5817C60.2658 73.5943 60.2658 73.607 60.2648 73.6196C60.2648 73.6385 60.2648 73.6574 60.2648 73.6764L60.279 73.7568C60.279 73.7568 60.279 73.771 60.279 73.7781L60.3003 73.8705V73.8918C60.3003 73.9178 60.3003 73.9415 60.3193 73.9675C60.3237 73.9852 60.3292 74.0026 60.3358 74.0196C60.3348 74.0298 60.3348 74.0401 60.3358 74.0503C60.4302 74.3638 60.581 74.6574 60.7808 74.9167H60.8045H67.2971C67.6871 74.4275 67.8968 73.8191 67.8912 73.1935C67.4424 73.2364 66.9922 73.1272 66.613 72.8834C66.471 72.7771 66.3548 72.6402 66.2728 72.4829C66.1909 72.3255 66.1454 72.1518 66.1396 71.9745L66.1278 66.6204H67.806C68.2793 66.7838 68.651 67.2217 68.9421 67.9365C69.2868 68.8067 69.563 69.7026 69.7682 70.6159C69.954 71.4192 70.218 72.2025 70.5564 72.9544C70.8456 73.5528 71.304 74.0532 71.8748 74.3936C72.6225 74.7942 73.4656 74.9824 74.3127 74.938C75.4173 74.938 76.1645 74.6468 76.5543 74.0645V72.6964C76.1071 72.635 75.6967 72.4159 75.3968 72.0787ZM62.0377 64.6795C61.6612 64.7206 61.2826 64.7403 60.9039 64.7387C60.4476 64.762 59.9919 64.6814 59.5713 64.503C59.1506 64.3247 58.7759 64.0532 58.4754 63.7091C57.862 62.9395 57.5506 61.9724 57.5996 60.9894C57.5996 59.8225 57.8529 58.9491 58.3618 58.3858C58.8707 57.8224 59.6754 57.5242 60.7737 57.5242C61.1979 57.5094 61.6223 57.546 62.0377 57.6331V64.6795ZM69.683 63.7091C69.3821 64.0519 69.0076 64.3222 68.5874 64.4997C68.1672 64.6772 67.7123 64.7573 67.2568 64.734C66.8803 64.73 66.5043 64.7071 66.1301 64.6653L66.1159 57.626C66.4037 57.5592 66.6967 57.518 66.9917 57.5029C67.0793 57.5029 67.1692 57.5029 67.2568 57.5029C68.3669 57.5029 69.2971 57.813 69.806 58.3763C70.3149 58.9396 70.5682 59.8225 70.5682 60.98C70.6141 61.967 70.2994 62.9369 69.683 63.7091Z" fill="#FFF3D2"/>
        <path d="M77.5367 45.4153C77.5432 45.341 77.573 45.2706 77.6219 45.2141C77.6557 45.1789 77.7011 45.1571 77.7497 45.1526C77.9438 45.1076 78.1379 45.0674 78.3343 45.0271C78.5308 44.9869 78.7414 44.9396 78.945 44.8922C79.2196 44.8259 79.4918 44.7526 79.7569 44.6555C80.0732 44.5545 80.376 44.4155 80.6587 44.2413C81.027 44.0056 81.3235 43.6732 81.5155 43.2803C81.6479 43.0113 81.7556 42.7309 81.8374 42.4424C81.9226 42.1489 81.996 41.8483 82.0741 41.5501C82.1262 41.3252 82.1688 41.098 82.2138 40.8707C82.2295 40.786 82.2501 40.7023 82.2753 40.6199C82.2851 40.5851 82.302 40.5527 82.325 40.5249C82.3481 40.4971 82.3767 40.4744 82.409 40.4583C82.4414 40.4423 82.4767 40.4332 82.5128 40.4316C82.5489 40.4301 82.5849 40.4362 82.6185 40.4494C82.6678 40.4633 82.7122 40.4906 82.7468 40.5282C82.7815 40.5658 82.8051 40.6123 82.815 40.6625C82.8505 40.7832 82.8718 40.8992 82.8955 41.0317C82.9286 41.2045 82.9665 41.3796 83.0043 41.5548C83.0801 41.8885 83.1653 42.2223 83.2694 42.5513C83.3675 42.8988 83.5132 43.2309 83.7026 43.5383C83.9243 43.88 84.2288 44.1601 84.5878 44.3526C84.8651 44.4983 85.1561 44.6165 85.4565 44.7052C85.7453 44.7975 86.0388 44.8709 86.3323 44.9419C86.5572 44.9916 86.7844 45.0342 87.0116 45.0839C87.1376 45.1017 87.2608 45.1351 87.3785 45.1834C87.4175 45.2042 87.451 45.234 87.4764 45.2703C87.5017 45.3065 87.5181 45.3482 87.5244 45.392C87.5306 45.4358 87.5264 45.4805 87.5122 45.5223C87.4979 45.5642 87.474 45.6022 87.4424 45.6331C87.4123 45.658 87.3765 45.6751 87.3383 45.6828C87.1323 45.7396 86.9217 45.7775 86.711 45.8201C86.453 45.8745 86.195 45.9313 85.937 45.9976C85.679 46.0639 85.4092 46.1396 85.1512 46.2343C84.8244 46.3449 84.5164 46.5046 84.2375 46.7077C83.9459 46.9374 83.7104 47.2304 83.5487 47.5645C83.3779 47.9227 83.2432 48.2969 83.1464 48.6817C83.054 49.0226 82.9807 49.3681 82.9097 49.7161C82.8789 49.877 82.8458 50.0404 82.8055 50.2013C82.7932 50.247 82.7689 50.2886 82.7352 50.3219C82.7016 50.3552 82.6596 50.3789 82.6138 50.3907C82.5826 50.4041 82.5489 50.4106 82.515 50.4098C82.481 50.409 82.4477 50.4009 82.4172 50.3861C82.3866 50.3713 82.3596 50.3501 82.338 50.3239C82.3164 50.2977 82.3007 50.2672 82.2919 50.2345C82.2457 50.0844 82.2078 49.9319 82.1783 49.7776C82.1262 49.5291 82.0765 49.2806 82.0173 49.0344C81.97 48.8332 81.9203 48.6344 81.8611 48.4379C81.7468 48.0094 81.5663 47.6013 81.3262 47.2284C81.0971 46.8981 80.7897 46.6297 80.4314 46.4473C80.1015 46.2815 79.7547 46.1513 79.3971 46.0591C79.0799 45.9692 78.7604 45.8982 78.4385 45.8224C78.2491 45.7822 78.0598 45.7467 77.8704 45.6994C77.8076 45.6865 77.7465 45.6666 77.6881 45.6402C77.6429 45.6227 77.6041 45.5918 77.577 45.5516C77.5499 45.5114 77.5358 45.4638 77.5367 45.4153ZM82.5309 48.6841L82.5475 48.6462L82.602 48.4569C82.6989 48.1007 82.8231 47.7525 82.9736 47.4154C83.2598 46.7554 83.7763 46.222 84.4269 45.9147C84.8437 45.7191 85.2769 45.5607 85.7216 45.4414C85.7358 45.4414 85.7571 45.4414 85.7595 45.4224C85.7619 45.4035 85.7358 45.4011 85.724 45.394L85.1299 45.2118C84.7944 45.1076 84.4726 44.9638 84.1713 44.7833C83.6689 44.4752 83.2668 44.0279 83.0138 43.4957C82.8657 43.1777 82.7431 42.8484 82.6469 42.5111L82.5617 42.2365C82.5617 42.2223 82.5617 42.2034 82.5404 42.2034C82.5191 42.2034 82.5191 42.2223 82.5144 42.2341C82.5067 42.2534 82.5003 42.2731 82.4954 42.2933C82.4363 42.4898 82.3818 42.6886 82.3132 42.8827C82.2125 43.1785 82.085 43.4646 81.9321 43.7371C81.7821 43.9906 81.5973 44.2216 81.383 44.4236C81.1032 44.676 80.7832 44.88 80.4362 45.0271C80.1027 45.1672 79.7603 45.285 79.4113 45.3798C79.37 45.3855 79.3304 45.4 79.2953 45.4224C79.3409 45.4395 79.3876 45.4538 79.435 45.465C79.8761 45.5812 80.3049 45.7397 80.7155 45.9384C81.1127 46.1294 81.4578 46.4137 81.7214 46.7669C81.9261 47.0597 82.0902 47.379 82.209 47.716C82.3185 47.9947 82.4125 48.2791 82.4907 48.5681C82.499 48.6084 82.5126 48.6473 82.5309 48.6841Z" fill="#C1A575"/>
        <path d="M84.358 50.3195C84.3548 50.2748 84.3654 50.2303 84.3882 50.1918C84.4111 50.1533 84.4451 50.1227 84.4858 50.1041C84.5818 50.0601 84.6827 50.0275 84.7864 50.007C85.1036 49.9313 85.4231 49.8697 85.7332 49.7703C85.9992 49.697 86.2506 49.5786 86.4764 49.42C86.6847 49.2563 86.8477 49.042 86.9498 48.7975C87.05 48.5627 87.1292 48.3196 87.1865 48.0708C87.2464 47.8463 87.2946 47.6187 87.3309 47.3892C87.3374 47.3319 87.3552 47.2765 87.3833 47.2261C87.4113 47.1758 87.449 47.1314 87.4942 47.0957C87.5237 47.0686 87.5604 47.0507 87.5999 47.044C87.6393 47.0373 87.6799 47.042 87.7167 47.0578C87.7606 47.0723 87.8015 47.0948 87.8374 47.1241C87.8788 47.1545 87.9074 47.1992 87.9179 47.2495C87.9699 47.5004 88.0197 47.7489 88.0765 47.9975C88.14 48.319 88.245 48.6309 88.3889 48.9253C88.5597 49.2484 88.84 49.5001 89.1795 49.6354C89.447 49.7458 89.7244 49.8306 90.0079 49.8887L90.6849 50.0378C90.7354 50.0463 90.7827 50.0683 90.8217 50.1015C90.8608 50.1348 90.8901 50.1779 90.9066 50.2264C90.9231 50.275 90.9262 50.3271 90.9155 50.3772C90.9048 50.4273 90.8807 50.4736 90.8458 50.5112C90.8037 50.5515 90.7513 50.5794 90.6943 50.5917C90.5452 50.6366 90.3961 50.6627 90.2446 50.6934C89.8872 50.7606 89.5369 50.8612 89.1984 50.994C88.953 51.0915 88.7352 51.2475 88.5641 51.4485C88.4321 51.617 88.3296 51.8067 88.2611 52.0095C88.1656 52.2943 88.0866 52.5843 88.0244 52.8781C87.9889 53.032 87.9676 53.1906 87.9273 53.3515C87.9124 53.4275 87.8684 53.4947 87.8048 53.5389C87.7412 53.5831 87.6629 53.6008 87.5865 53.5882C87.537 53.5836 87.4903 53.5634 87.4529 53.5307C87.4156 53.498 87.3894 53.4544 87.3782 53.406C87.3356 53.2592 87.3048 53.1101 87.2741 52.961C87.2021 52.5549 87.0854 52.158 86.9261 51.7775C86.7821 51.446 86.5172 51.1819 86.1853 51.039C85.8846 50.9095 85.5724 50.8088 85.2527 50.7384C85.0278 50.684 84.8006 50.6437 84.5757 50.5893C84.5167 50.571 84.4647 50.5352 84.4266 50.4865C84.3885 50.4379 84.3662 50.3788 84.3627 50.3171L84.358 50.3195ZM87.6315 51.9763C87.6551 51.9763 87.6599 51.9503 87.667 51.9337C87.7167 51.8201 87.7569 51.697 87.8066 51.5881C87.9846 51.1703 88.297 50.8238 88.6942 50.6035C88.8746 50.5097 89.0622 50.4305 89.2552 50.3668C89.2765 50.3668 89.3096 50.3668 89.3096 50.336C89.3096 50.3053 89.2765 50.3124 89.2552 50.3053C89.0406 50.2326 88.8337 50.1391 88.6374 50.026C88.3555 49.8632 88.12 49.631 87.9534 49.3514C87.8351 49.1465 87.7383 48.93 87.6646 48.7052C87.6646 48.691 87.6646 48.6649 87.6433 48.6649C87.622 48.6649 87.6244 48.6886 87.6173 48.7028C87.5747 48.8117 87.5321 48.9229 87.4871 49.0318C87.2807 49.5268 86.8953 49.9258 86.4077 50.149C86.2847 50.2082 86.1545 50.2579 86.029 50.3124C86.0148 50.3124 85.9935 50.3242 85.9935 50.3431C85.9935 50.3621 86.0148 50.3644 86.0314 50.3692C86.1685 50.4186 86.3028 50.4755 86.4338 50.5396C86.6036 50.6147 86.7627 50.7117 86.9072 50.8284C87.1363 51.0221 87.3191 51.2647 87.4421 51.5384C87.5036 51.671 87.5605 51.8059 87.6102 51.9432C87.6102 51.9527 87.6125 51.9763 87.6315 51.9763Z" fill="#C1A575"/>
        <path d="M53.6398 93.8712C53.643 93.8197 53.6629 93.7706 53.6966 93.7315C53.7207 93.7073 53.7525 93.6922 53.7865 93.6889L54.1913 93.6013C54.3309 93.5729 54.4729 93.5422 54.6126 93.509C54.8019 93.4641 54.9889 93.412 55.1736 93.3504C55.3922 93.2813 55.6013 93.1851 55.7961 93.064C56.05 92.9011 56.2546 92.672 56.3878 92.4013C56.4779 92.2153 56.5523 92.0221 56.6103 91.8238C56.6695 91.6178 56.7192 91.4119 56.7665 91.206C56.8044 91.0498 56.8328 90.8935 56.8636 90.7326C56.8754 90.6758 56.8896 90.6166 56.9062 90.5598C56.9127 90.5357 56.9243 90.5133 56.9402 90.4939C56.956 90.4746 56.9757 90.4589 56.9981 90.4477C57.0204 90.4365 57.0448 90.4302 57.0698 90.4291C57.0948 90.428 57.1197 90.4322 57.1429 90.4415C57.1767 90.4518 57.2071 90.4712 57.2309 90.4974C57.2546 90.5237 57.2708 90.5559 57.2778 90.5906C57.3015 90.6739 57.3204 90.7584 57.3346 90.8438C57.3583 90.9645 57.3819 91.0805 57.4103 91.206C57.4624 91.4427 57.5216 91.6675 57.5926 91.8948C57.6599 92.1347 57.7603 92.3641 57.8908 92.5764C58.0442 92.8125 58.2552 93.0055 58.5039 93.1374C58.6951 93.2361 58.8957 93.3154 59.1027 93.3741C59.3015 93.4357 59.5051 93.4877 59.7087 93.5327L60.1821 93.6298C60.269 93.642 60.3541 93.6651 60.4353 93.6984C60.4623 93.7127 60.4855 93.7331 60.5031 93.7581C60.5207 93.7831 60.5321 93.8118 60.5365 93.842C60.5409 93.8722 60.5381 93.903 60.5283 93.932C60.5185 93.9609 60.5021 93.9871 60.4803 94.0085C60.4598 94.0258 60.4355 94.038 60.4093 94.044C60.2649 94.0818 60.1205 94.1079 59.9738 94.1386C59.827 94.1694 59.6187 94.2144 59.4412 94.2594C59.2569 94.3049 59.0752 94.3602 58.8968 94.425C58.6707 94.5015 58.4582 94.6134 58.2672 94.7564C58.0663 94.915 57.9044 95.1174 57.7938 95.3482C57.6749 95.5953 57.5813 95.8538 57.5145 96.1198C57.4529 96.3565 57.4009 96.5932 57.3512 96.8299C57.3299 96.9411 57.3062 97.0524 57.2778 97.1636C57.27 97.1958 57.2535 97.2251 57.2301 97.2485C57.2068 97.2719 57.1774 97.2884 57.1452 97.2962C57.1237 97.3047 57.1007 97.3085 57.0775 97.3076C57.0544 97.3066 57.0318 97.3008 57.011 97.2905C56.9903 97.2803 56.9719 97.2658 56.9571 97.248C56.9423 97.2302 56.9314 97.2096 56.9251 97.1873C56.8919 97.0843 56.8658 96.9791 56.847 96.8725C56.8115 96.6997 56.776 96.5293 56.7358 96.3589C56.6955 96.1884 56.6671 96.0819 56.6269 95.947C56.5491 95.6506 56.4244 95.3685 56.2576 95.1115C56.0997 94.8831 55.8874 94.6976 55.6399 94.5718C55.4131 94.4575 55.1752 94.3671 54.9298 94.302C54.712 94.2428 54.4895 94.1931 54.267 94.1457C54.1368 94.1197 54.0066 94.0937 53.8765 94.0629C53.8335 94.0523 53.7916 94.038 53.751 94.0203C53.7191 94.0103 53.6912 93.9905 53.6712 93.9638C53.6513 93.937 53.6402 93.9046 53.6398 93.8712ZM57.0884 96.1293C57.089 96.1198 57.089 96.1103 57.0884 96.1009C57.1003 96.0583 57.1145 96.0156 57.1263 95.9707C57.1941 95.7281 57.2795 95.4907 57.3819 95.2606C57.5804 94.8046 57.9368 94.4357 58.3855 94.2215C58.674 94.0887 58.9733 93.981 59.2802 93.8996C59.2802 93.8996 59.3063 93.8996 59.3063 93.8854C59.3063 93.8712 59.2921 93.8854 59.2826 93.8664L58.8708 93.7386C58.6387 93.6683 58.4161 93.5697 58.208 93.4451C57.8616 93.2319 57.5845 92.9227 57.4103 92.5551C57.306 92.3356 57.2204 92.1075 57.1547 91.8735L57.0979 91.6841C57.0979 91.6841 57.0979 91.6628 57.0813 91.6628C57.0648 91.6628 57.0671 91.6746 57.0648 91.6841L57.0506 91.7243C57.0103 91.8616 56.9725 91.9989 56.9251 92.1315C56.8562 92.3361 56.7675 92.5335 56.66 92.7208C56.5582 92.8961 56.4315 93.0556 56.2837 93.1942C56.0878 93.3701 55.8638 93.5117 55.6209 93.6132C55.3897 93.7076 55.1525 93.7867 54.9108 93.8499C54.883 93.8536 54.8564 93.8633 54.8327 93.8783C54.8633 93.8907 54.895 93.9002 54.9274 93.9067C55.2322 93.9903 55.5285 94.1021 55.8126 94.2404C56.0868 94.3734 56.3253 94.5698 56.5085 94.8132C56.6516 95.01 56.7678 95.2249 56.8541 95.4523C56.9302 95.6451 56.9958 95.8418 57.0506 96.0417C57.0593 96.0717 57.072 96.1003 57.0884 96.1269V96.1293Z" fill="#C1A575"/>
        <path d="M36.5029 53.9716C36.5061 53.9201 36.5261 53.8711 36.5597 53.832C36.5838 53.8077 36.6157 53.7927 36.6497 53.7894L37.0521 53.7018C37.1941 53.6734 37.3337 53.6426 37.4758 53.6095C37.6651 53.5645 37.8521 53.5124 38.0367 53.4509C38.2547 53.3798 38.463 53.282 38.6569 53.1598C38.9108 52.9968 39.1154 52.7677 39.2486 52.497C39.3411 52.3112 39.4156 52.117 39.4711 51.9171C39.5326 51.7135 39.5824 51.5076 39.6297 51.3017C39.6652 51.1455 39.696 50.9892 39.7267 50.8283C39.7365 50.7697 39.7507 50.7119 39.7693 50.6555C39.7759 50.6314 39.7875 50.609 39.8033 50.5896C39.8192 50.5703 39.8389 50.5546 39.8612 50.5434C39.8836 50.5322 39.908 50.5259 39.933 50.5248C39.9579 50.5237 39.9828 50.5279 40.006 50.5372C40.0399 50.5475 40.0703 50.5669 40.094 50.5931C40.1178 50.6194 40.134 50.6516 40.141 50.6863C40.1639 50.7696 40.182 50.8542 40.1954 50.9395C40.2191 51.0603 40.2451 51.1762 40.2711 51.3017C40.3232 51.5384 40.3824 51.7632 40.4534 51.9905C40.523 52.23 40.6241 52.4592 40.754 52.6722C40.9073 52.9074 41.1173 53.1003 41.3647 53.2331C41.5571 53.3309 41.7584 53.4101 41.9659 53.4698C42.1647 53.5314 42.3683 53.5834 42.5718 53.6284L43.0452 53.7255C43.1322 53.7377 43.2172 53.7608 43.2985 53.7941C43.3255 53.8084 43.3487 53.8289 43.3663 53.8538C43.3838 53.8788 43.3953 53.9075 43.3997 53.9377C43.404 53.9679 43.4012 53.9987 43.3915 54.0277C43.3817 54.0566 43.3653 54.0828 43.3435 54.1042C43.3221 54.1215 43.297 54.1337 43.2701 54.1397C43.1281 54.1775 42.9813 54.2036 42.8369 54.2344C42.6925 54.2651 42.4795 54.3101 42.302 54.3551C42.1186 54.4009 41.9377 54.4562 41.76 54.5208C41.5334 54.5977 41.3202 54.7095 41.128 54.8521C40.9284 55.011 40.7667 55.2123 40.6546 55.4415C40.5368 55.6897 40.444 55.9489 40.3777 56.2155C40.3137 56.4522 40.264 56.6889 40.2143 56.9256C40.1907 57.0392 40.1694 57.1505 40.141 57.2617C40.1327 57.2936 40.1161 57.3227 40.0928 57.346C40.0694 57.3694 40.0403 57.386 40.0084 57.3942C39.9869 57.4027 39.9638 57.4066 39.9407 57.4056C39.9176 57.4047 39.8949 57.3989 39.8742 57.3886C39.8535 57.3784 39.8351 57.3639 39.8203 57.3461C39.8055 57.3283 39.7946 57.3076 39.7883 57.2854C39.7553 57.1821 39.7285 57.077 39.7078 56.9706C39.6723 56.7978 39.6368 56.6274 39.5966 56.4569C39.5563 56.2865 39.5303 56.18 39.49 56.0427C39.4103 55.747 39.2858 55.4652 39.1208 55.2072C38.9617 54.9795 38.7486 54.7949 38.5006 54.6699C38.2742 54.5551 38.0361 54.4646 37.7906 54.4C37.5704 54.3385 37.3503 54.2912 37.1278 54.2438C36.9976 54.2154 36.8651 54.1917 36.7349 54.1586C36.6917 54.1499 36.6496 54.1364 36.6094 54.1184C36.5788 54.1077 36.5522 54.088 36.5331 54.0617C36.5141 54.0355 36.5036 54.004 36.5029 53.9716Z" fill="#C1A575"/>
        <path d="M39.9518 56.2367C39.9563 56.2275 39.9603 56.218 39.9636 56.2083C39.9636 56.1657 39.9873 56.1231 40.0015 56.0781C40.0682 55.8352 40.1537 55.5978 40.2571 55.368C40.4548 54.9116 40.8114 54.5424 41.2607 54.329C41.549 54.1958 41.8484 54.088 42.1554 54.007C42.1554 54.007 42.1814 54.007 42.1814 53.9928C42.1814 53.9786 42.1649 53.981 42.1578 53.9739L41.7483 53.8461C41.5157 53.7759 41.293 53.6765 41.0855 53.5502C40.7386 53.338 40.4607 53.0296 40.2855 52.6626C40.1829 52.4425 40.0982 52.2146 40.0322 51.9809L39.9754 51.7916C39.9754 51.7916 39.9754 51.7703 39.9589 51.7703C39.9423 51.7703 39.9447 51.7821 39.9423 51.7892C39.9355 51.8026 39.9307 51.817 39.9281 51.8318C39.8879 51.9667 39.85 52.1064 39.8003 52.2389C39.7318 52.4433 39.6438 52.6407 39.5375 52.8283C39.4357 53.0041 39.308 53.1637 39.1588 53.3017C38.9636 53.4772 38.7404 53.6188 38.4985 53.7206C38.2672 53.8151 38.03 53.8941 37.7884 53.9573C37.7597 53.9604 37.7321 53.9701 37.7079 53.9857C37.7393 53.9981 37.7718 54.0077 37.8049 54.0141C38.1097 54.0978 38.406 54.2095 38.6902 54.3479C38.9645 54.4795 39.2026 54.6762 39.3837 54.9207C39.5275 55.1173 39.6445 55.3322 39.7316 55.5598C39.8074 55.7515 39.8689 55.9503 39.9257 56.1491C39.9306 56.1793 39.9393 56.2088 39.9518 56.2367Z" fill="#C1A575"/>
        <path d="M45.152 88.6995C45.1586 88.6256 45.1875 88.5555 45.2348 88.4983C45.2699 88.4635 45.3158 88.4417 45.365 88.4368L45.9496 88.3113C46.1532 88.2711 46.3568 88.2237 46.5603 88.1764C46.8349 88.1125 47.1047 88.0368 47.3722 87.9397C47.6885 87.8387 47.9913 87.6996 48.274 87.5255C48.6424 87.2898 48.9388 86.9574 49.1308 86.5645C49.2627 86.2961 49.3705 86.0165 49.4528 85.729C49.538 85.4331 49.6113 85.1349 49.6894 84.8343C49.7415 84.5976 49.7841 84.3822 49.8291 84.1549C49.8449 84.0702 49.8654 83.9864 49.8906 83.904C49.9004 83.8693 49.9173 83.8369 49.9403 83.8091C49.9634 83.7812 49.992 83.7586 50.0243 83.7425C50.0567 83.7264 50.0921 83.7173 50.1282 83.7158C50.1642 83.7143 50.2003 83.7203 50.2338 83.7336C50.2831 83.7482 50.3275 83.7759 50.3621 83.8139C50.3967 83.8519 50.4203 83.8986 50.4303 83.949C50.4658 84.0673 50.4847 84.1857 50.5108 84.3159C50.5439 84.491 50.5818 84.6638 50.6197 84.839C50.6954 85.1751 50.7806 85.5065 50.8824 85.8355C50.9818 86.1828 51.1283 86.5149 51.3179 86.8225C51.5397 87.1642 51.8442 87.4443 52.2032 87.6367C52.4804 87.7833 52.7713 87.9022 53.0718 87.9918C53.3606 88.0817 53.6517 88.1551 53.9476 88.2285C54.1725 88.2782 54.3997 88.3208 54.6269 88.3681C54.7519 88.3867 54.8743 88.4201 54.9914 88.4675C55.031 88.4878 55.0652 88.5173 55.091 88.5534C55.1169 88.5896 55.1338 88.6314 55.1403 88.6753C55.1468 88.7193 55.1427 88.7642 55.1283 88.8063C55.114 88.8484 55.0897 88.8864 55.0577 88.9173C55.0282 88.9431 54.9922 88.9603 54.9536 88.967C54.7477 89.0238 54.537 89.0616 54.3263 89.1042C54.0683 89.1587 53.8103 89.2155 53.5523 89.2818C53.2943 89.348 53.0245 89.4238 52.7665 89.5185C52.4397 89.6291 52.1317 89.7887 51.8529 89.9919C51.5613 90.2215 51.3257 90.5146 51.1641 90.8487C50.9933 91.2069 50.8585 91.5811 50.7617 91.9659C50.6694 92.3068 50.596 92.6523 50.525 93.0003C50.4918 93.1612 50.4587 93.3246 50.4208 93.4737C50.4085 93.5194 50.3842 93.561 50.3506 93.5943C50.3169 93.6275 50.275 93.6513 50.2291 93.663C50.1979 93.6764 50.1642 93.6829 50.1303 93.6821C50.0964 93.6813 50.063 93.6733 50.0325 93.6584C50.002 93.6436 49.975 93.6224 49.9534 93.5963C49.9317 93.5701 49.916 93.5396 49.9072 93.5068C49.8599 93.357 49.822 93.2045 49.7936 93.05C49.7415 92.8015 49.6918 92.5553 49.6326 92.3068C49.5853 92.1079 49.5356 91.9067 49.4764 91.7103C49.3622 91.2817 49.1817 90.8736 48.9415 90.5008C48.7124 90.1704 48.405 89.902 48.0468 89.7197C47.7168 89.5538 47.37 89.4237 47.0124 89.3315C46.6952 89.2415 46.3757 89.1705 46.0656 89.0948C45.8763 89.0545 45.6869 89.019 45.4976 88.9717C45.4348 88.9588 45.3737 88.939 45.3153 88.9125C45.2697 88.8977 45.2297 88.8694 45.2005 88.8314C45.1714 88.7934 45.1544 88.7474 45.152 88.6995Z" fill="#C1A575"/>
        <path d="M50.1463 91.9782L50.1629 91.9404C50.1818 91.8788 50.1984 91.8149 50.2173 91.751C50.3139 91.3955 50.4381 91.048 50.5889 90.7119C50.8743 90.0507 51.391 89.5163 52.0422 89.2089C52.4589 89.0129 52.8922 88.8545 53.337 88.7355C53.3512 88.7355 53.3725 88.7355 53.3748 88.7166C53.3772 88.6976 53.3512 88.6953 53.3393 88.6882L52.7452 88.5059C52.4135 88.4019 52.0956 88.258 51.7984 88.0775C51.2956 87.77 50.8934 87.3225 50.641 86.7898C50.4859 86.471 50.3568 86.1401 50.2552 85.8005L50.17 85.5259C50.17 85.5117 50.17 85.4951 50.1487 85.4951C50.1274 85.4951 50.1274 85.5117 50.1226 85.5235L50.1013 85.5827C50.0445 85.7792 49.9901 85.9803 49.9191 86.1721C49.8204 86.4687 49.6928 86.7549 49.538 87.0265C49.3897 87.2804 49.2055 87.5116 48.9912 87.713C48.712 87.9662 48.3919 88.1703 48.0444 88.3165C47.7112 88.4573 47.3688 88.5751 47.0195 88.6692C46.9785 88.6756 46.939 88.6901 46.9036 88.7118C46.9488 88.73 46.9955 88.7443 47.0432 88.7544C47.484 88.8716 47.9127 89.0301 48.3237 89.2278C48.7206 89.4204 49.0656 89.7053 49.3297 90.0586C49.5377 90.3433 49.7064 90.6545 49.8315 90.9841C49.941 91.2628 50.035 91.5472 50.1132 91.8362C50.1168 91.885 50.128 91.9329 50.1463 91.9782Z" fill="#C1A575"/>
    </g>
    <defs>
        <clipPath id="clip0_1_84281">
            <rect width="117.165" height="112" fill="white" transform="translate(4.45435)"/>
        </clipPath>
    </defs>
</svg>
