<svg width="125" height="112" viewBox="0 0 125 112" fill="none" xmlns="http://www.w3.org/2000/svg">
    <g clip-path="url(#clip0_1_84313)">
        <path d="M97.5311 48.9038C97.5311 49.524 97.5311 50.1465 97.5074 50.7666C97.1169 65.8892 94.0611 81.4567 85.4714 94.1744C82.5686 98.4771 79.0355 102.319 74.9905 105.571C71.6128 108.267 65.2291 113.572 60.5923 111.55C52.431 108 45.4437 101.978 40.2671 94.7448C31.3579 82.2757 28.0678 66.6892 27.7222 51.5974C27.6607 48.8305 27.7222 46.0682 27.8287 43.3131C27.8548 42.6882 27.6512 41.3674 28.0039 40.8372C28.3187 40.3638 29.5188 40.0609 30.0253 39.8194L39.7014 35.1802C46.3881 31.9753 53.0132 28.3491 59.8656 25.5206C60.7745 25.1443 61.5982 24.5999 62.5261 24.2661C62.6641 24.2088 62.8133 24.1835 62.9626 24.1921C63.1118 24.2007 63.2571 24.243 63.3876 24.3158C74.1218 29.651 84.927 34.863 95.692 40.1271C96.1846 40.3265 96.6298 40.6273 96.9985 41.01C97.8625 42.0538 97.5713 43.7723 97.5453 45.0125C97.5169 46.2978 97.5311 47.5996 97.5311 48.9038ZM93.9688 50.814C94.0469 48.5796 93.9688 46.3475 93.8836 44.1155C93.8967 43.9292 93.8497 43.7437 93.7496 43.586C93.6495 43.4284 93.5015 43.307 93.3274 43.2397C91.9072 42.5769 90.5083 41.874 89.1 41.1852L78.6664 36.0749C73.6011 33.5975 68.5382 31.1169 63.4776 28.6332C63.293 28.529 63.0847 28.4743 62.8728 28.4743C62.6609 28.4743 62.4526 28.529 62.2681 28.6332C59.8396 29.8166 57.3969 30.9717 54.9612 32.1386L41.5642 38.5626L36.6883 40.8964C34.9983 41.7059 33.313 42.5201 31.6182 43.3225C31.5084 43.3594 31.4143 43.4323 31.3511 43.5294C31.288 43.6265 31.2595 43.7421 31.2703 43.8575C31.2845 44.3451 31.2111 44.8279 31.1922 45.3132C31.1283 46.8233 31.1046 48.3358 31.0786 49.8506C31.062 50.84 31.1023 51.8294 31.1259 52.8188C31.1638 54.5467 31.2206 56.2722 31.346 57.9977C31.4597 59.5765 31.6135 61.1481 31.7934 62.7198C32.0206 64.686 32.326 66.6395 32.7094 68.5804C33.4139 72.2201 34.408 75.7977 35.6823 79.2791C37.0907 83.1232 38.9163 86.8014 41.1263 90.2476C42.5285 92.4299 44.107 94.4937 45.8461 96.4183C47.3385 98.0812 48.9499 99.6333 50.6676 101.062C52.7334 102.777 54.96 104.289 57.3164 105.576C58.9599 106.477 60.6765 107.237 62.448 107.848C62.7167 107.955 63.0144 107.962 63.2882 107.87C64.3258 107.508 65.3441 107.093 66.3392 106.627C69.8526 104.941 73.1011 102.751 75.9823 100.127C78.0305 98.28 79.9066 96.2503 81.5872 94.0631C83.8335 91.1301 85.7631 87.9676 87.3437 84.6284C88.8282 81.4847 90.0482 78.2228 90.9912 74.8765C91.7406 72.2292 92.3436 69.5426 92.7972 66.8289C93.0197 65.4986 93.2074 64.1644 93.3605 62.8263C93.4883 61.7186 93.6209 60.6132 93.699 59.5126C93.7913 58.1847 93.9357 56.8592 93.9688 55.529C94.0067 53.9502 93.9688 52.3809 93.9688 50.814Z" fill="#C1A575"/>
        <path d="M74.0698 1.05124C74.1172 1.48439 74.1764 1.92228 74.2166 2.36253C74.357 3.95852 74.3957 5.56183 74.3326 7.16274C74.3107 8.00832 74.1697 8.8466 73.9136 9.65278C73.8535 9.8797 73.7435 10.0903 73.5915 10.2693C73.4396 10.4482 73.2496 10.591 73.0355 10.6871C72.9583 10.7124 72.8924 10.7639 72.8492 10.8326C72.806 10.9013 72.7881 10.983 72.7988 11.0635C72.7988 12.0103 72.7988 12.9381 72.7988 13.8754C72.7988 14.1121 72.9029 14.1903 73.1254 14.1879C73.774 14.1879 74.4225 14.1879 75.0711 14.1879C75.3078 14.1879 75.3859 14.0743 75.3811 13.8565C75.3811 13.4967 75.3693 13.1346 75.3811 12.7748C75.412 11.8215 75.5157 10.872 75.6912 9.93445C75.7459 9.48018 75.8532 9.03378 76.0108 8.60422C76.5983 7.26131 77.2597 5.95196 77.9919 4.68216C78.4058 3.98444 78.9338 3.36115 79.5541 2.83829C80.0015 2.45248 80.8441 2.6158 81.1731 3.07499C81.3341 3.29748 81.2204 3.4395 81.0713 3.58862C80.5301 4.14186 80.0537 4.75491 79.6511 5.41592C79.0431 6.41248 78.5522 7.47599 78.1884 8.58528C77.6548 10.1695 77.289 11.8054 77.0972 13.466C76.9651 14.5728 76.8979 15.6864 76.896 16.801C76.896 18.4942 76.896 20.1874 76.896 21.8805C76.896 22.0083 76.896 22.1338 76.896 22.2592C76.896 22.4344 76.8203 22.5291 76.6404 22.5291H76.2617H48.8593C48.7504 22.5291 48.6415 22.5291 48.535 22.5291C48.3291 22.5291 48.2415 22.432 48.2463 22.2332C48.2463 22.1077 48.2463 21.9799 48.2463 21.8545C48.2463 20.0154 48.2463 18.1786 48.2463 16.3395C48.2139 14.2532 47.9399 12.1777 47.4297 10.1546C47.3928 10.0354 47.3453 9.9197 47.2876 9.809C47.2876 9.7948 47.2521 9.78533 47.2498 9.77113C47.1223 9.16045 46.9295 8.56528 46.6746 7.99591C46.6202 7.85626 46.5941 7.6882 46.5326 7.54145C45.9714 6.13309 45.1706 4.83255 44.1656 3.6975C44.0402 3.56258 43.7798 3.43003 43.9147 3.22411C44.078 2.96374 44.2627 2.66787 44.6248 2.62527C44.9867 2.60614 45.3432 2.71883 45.6284 2.94244C46.3196 3.38506 46.7432 4.06438 47.1551 4.7366C48.0841 6.25657 48.8136 7.88978 49.3256 9.59597C49.5243 10.2897 49.6371 11.0051 49.6617 11.7262C49.73 12.4429 49.7616 13.1626 49.7564 13.8825C49.7564 14.1192 49.8416 14.2068 50.0736 14.2045C50.7221 14.2045 51.3707 14.2045 52.0192 14.2045C52.2559 14.2045 52.3387 14.1121 52.3387 13.8825C52.3387 12.9452 52.3387 12.0079 52.3387 11.0706C52.3502 10.992 52.3324 10.912 52.2887 10.8457C52.2451 10.7794 52.1787 10.7314 52.102 10.7108C51.6429 10.5664 51.4227 10.1948 51.2618 9.7877C51.0184 9.09078 50.8726 8.36354 50.8286 7.62666C50.7419 6.82104 50.7166 6.00999 50.7529 5.20052C50.8215 3.81822 50.8712 2.43591 51.0724 1.07491C51.2523 0.987328 51.321 1.12461 51.3991 1.20509C52.9021 2.78859 54.4193 4.37209 55.6809 6.17571C56.135 6.77865 56.4766 7.45861 56.6892 8.1829C56.9141 9.04447 56.9733 9.88001 56.5046 10.6824C56.4127 10.8386 56.366 11.0172 56.3697 11.1984C56.3697 12.0624 56.3697 12.9263 56.3697 13.8021C56.3697 14.1808 56.3839 14.1903 56.7744 14.1926C57.8916 14.1926 59.0089 14.1926 60.1261 14.1926C60.5119 14.1926 60.5237 14.1926 60.5261 13.7973C60.5261 12.9689 60.5261 12.1405 60.5261 11.312C60.5356 11.2252 60.518 11.1376 60.4756 11.0613C60.4332 10.985 60.3681 10.9237 60.2894 10.886C59.9923 10.6867 59.7184 10.4549 59.4728 10.1948C58.7366 9.48473 58.6325 8.55215 58.7627 7.60773C58.9804 6.07393 59.5935 4.67032 60.3272 3.32115C60.8771 2.34451 61.48 1.39868 62.1332 0.487898C62.1758 0.428724 62.2114 0.367183 62.254 0.310376C62.5617 -0.0943749 62.5735 -0.103843 62.8575 0.289073C64.1331 1.98411 65.1686 3.84714 65.9346 5.8254C66.224 6.56417 66.3841 7.34722 66.408 8.14029C66.4289 8.68298 66.2968 9.22061 66.0269 9.69186C65.757 10.1631 65.36 10.549 64.8813 10.8055C64.801 10.8379 64.7327 10.8945 64.686 10.9674C64.6394 11.0404 64.6166 11.1261 64.6209 11.2126C64.6209 12.0789 64.6328 12.9429 64.6209 13.8163C64.6209 14.0885 64.7109 14.1997 64.9949 14.195C66.1121 14.195 67.2293 14.195 68.3465 14.195C68.6093 14.195 68.7489 14.124 68.7371 13.8305C68.7039 12.9689 68.7749 12.105 68.6992 11.2434C68.6981 11.0682 68.6543 10.8959 68.5714 10.7416C68.098 9.98416 68.1595 9.11075 68.3465 8.34859C68.5874 7.522 68.9896 6.75131 69.53 6.08103C70.2732 5.08928 71.0496 4.12355 71.8828 3.20281C72.4863 2.53532 73.0923 1.87021 73.7432 1.24769C73.8189 1.15775 73.8805 1.02757 74.0698 1.05124Z" fill="#C1A575"/>
        <path d="M95.1737 15.4114C95.7583 15.9345 95.7559 16.5191 95.1737 17.0067C94.4285 17.6329 93.7737 18.3594 93.228 19.1654C91.8078 21.3264 91.4552 23.6342 92.3593 26.0935C92.383 26.1574 92.3996 26.2355 92.5345 26.2284C92.615 25.7148 92.7073 25.194 92.7712 24.6686C92.8571 23.8145 93.1665 22.9981 93.6683 22.3016C93.9235 21.9576 94.2456 21.6686 94.6151 21.4519C94.9914 21.2317 95.1358 21.3075 95.1405 21.7406C95.1618 22.6228 95.3683 23.4907 95.7467 24.2879C96.1252 25.0851 96.667 25.7938 97.3371 26.3681C97.6045 26.6047 97.6377 26.6048 97.7584 26.245C97.7975 26.1351 97.8645 26.0374 97.953 25.9614C98.0414 25.8855 98.1481 25.8339 98.2626 25.8118C98.5626 25.746 98.8718 25.7332 99.1762 25.7739C99.2128 25.7719 99.2494 25.7791 99.2826 25.7948C99.3157 25.8105 99.3444 25.8343 99.3661 25.8639C99.3877 25.8936 99.4016 25.9281 99.4065 25.9645C99.4113 26.0009 99.407 26.0379 99.394 26.0722C99.0247 27.819 99.7916 29.2297 100.757 30.5694C102.275 32.6594 104.225 34.3045 106.282 35.8312C106.339 35.8738 106.412 35.8927 106.429 36.0182C105.901 35.9922 105.376 35.9177 104.862 35.7957C103.827 35.6063 102.788 35.4099 101.77 35.1448C100.527 34.8276 99.316 34.3941 98.1537 33.85C97.9288 33.7435 97.6803 33.6725 97.472 33.5494C96.6672 33.0926 95.8293 32.6855 95.0719 32.1624C94.1187 31.5297 93.2556 30.7709 92.5061 29.9067C91.9796 29.3221 91.3182 28.8752 90.5794 28.6048C89.8023 28.2588 89.0009 27.9701 88.1817 27.7409C86.8041 27.3811 85.4147 27.2391 84.1057 28.0344C84.0292 28.0756 83.9501 28.112 83.869 28.1433C83.7649 27.7267 84.004 27.4521 84.2052 27.1847C84.4063 26.9172 84.6454 26.6781 84.8608 26.4343C84.8016 26.3515 84.7496 26.3491 84.7022 26.3704C83.9282 26.7018 83.1187 26.6687 82.3069 26.6189C82.1999 26.6095 82.0964 26.5763 82.0039 26.5219C81.7672 26.3846 81.7317 26.2284 81.9281 26.0177C82.3169 25.6246 82.7516 25.2797 83.2229 24.9905C83.5456 24.7717 83.8938 24.5929 84.2596 24.4579C86.0325 23.8567 87.6538 24.2212 89.171 25.2272C89.2705 25.2935 89.3438 25.4165 89.5072 25.3763C89.5256 25.2709 89.523 25.1628 89.4994 25.0584C89.4759 24.954 89.4318 24.8553 89.3699 24.768C89.1634 24.3781 89.0416 23.949 89.0125 23.5088C88.9249 22.6496 88.7758 21.7998 88.7213 20.9359C88.6702 20.236 88.7052 19.5325 88.8255 18.8411C88.9414 18.1831 88.9556 17.4896 89.2989 16.8742C89.6471 16.2741 90.0659 15.7179 90.5463 15.2173C91.5214 14.1545 92.7878 13.7971 94.1393 13.6598C95.2362 13.5199 96.3506 13.6266 97.401 13.9723C97.8668 14.1233 98.2653 14.4322 98.5277 14.8457C98.6247 15.0019 98.7004 15.1628 98.5584 15.3427C98.4987 15.411 98.4195 15.4593 98.3315 15.4813C98.2435 15.5033 98.1509 15.4979 98.0661 15.4658C97.8101 15.3972 97.5593 15.3102 97.3158 15.2055C96.5702 14.919 95.8909 15.0256 95.1737 15.4114ZM104.663 35.1329C104.65 35.0762 104.624 35.0235 104.585 34.98C104.547 34.9365 104.498 34.9036 104.443 34.8844C103.387 34.2998 102.327 33.7246 101.273 33.1352C100.852 32.935 100.45 32.6973 100.071 32.4251C99.2239 31.7248 98.4259 30.9672 97.6826 30.1576C96.668 29.1058 95.8645 27.8692 95.3157 26.5148C95.2747 26.3712 95.1924 26.2428 95.079 26.1456C95.0979 26.3325 95.1003 26.458 95.1216 26.5811C95.3469 27.7713 95.8623 28.8876 96.6222 29.8309C96.803 30.0012 96.9122 30.234 96.9276 30.4818C95.8577 29.8092 94.9034 28.9684 94.1014 27.9918C94.1221 28.2827 94.2283 28.5611 94.4068 28.7918C95.118 29.8583 96.0257 30.7797 97.0814 31.5067C98.6169 32.6138 100.279 33.5332 102.033 34.2453C102.88 34.6225 103.761 34.9196 104.663 35.1329ZM90.5699 24.6165C90.596 24.5705 90.6119 24.5194 90.6163 24.4667C90.6208 24.414 90.6139 24.3609 90.596 24.3112C90.3342 23.1503 90.3464 21.9445 90.6315 20.7891C90.9978 19.3566 91.65 18.0129 92.5487 16.8387C92.8829 16.4493 93.1898 16.0372 93.4671 15.6055C91.0362 16.9712 88.7616 21.3217 90.5699 24.6165Z" fill="#C1A575"/>
        <path d="M28.1861 22.5263C28.9102 22.7782 29.5128 23.2938 29.8737 23.9701C30.3587 24.8354 30.6578 25.7923 30.7519 26.7797C30.7449 26.96 30.7884 27.1387 30.8773 27.2957C31.0383 27.2602 31.0336 27.1135 31.062 27.0046C31.3886 25.7809 31.5661 24.5429 31.2608 23.2956C31.133 22.7654 30.8608 22.273 30.6951 21.7523C30.5175 21.3084 30.2785 20.8917 29.985 20.5144C29.4516 19.6591 28.7666 18.9083 27.9636 18.2989C27.8423 18.2103 27.7439 18.0941 27.6764 17.9599C27.6089 17.8258 27.5743 17.6774 27.5754 17.5273C27.5447 17.1699 27.6772 16.9497 28.1056 16.8172C27.3955 16.5805 26.8156 16.3438 26.1694 16.5379C25.8261 16.6313 25.4912 16.7532 25.1682 16.9024C24.9173 17.0231 24.7303 17.0468 24.5646 16.803C24.399 16.5592 24.5788 16.3982 24.6972 16.242C25.1226 15.677 25.7537 15.3028 26.4535 15.2005C27.4628 15.0027 28.4984 14.9771 29.5163 15.1248C31.7058 15.4917 33.2206 16.6752 33.9615 18.7889C34.3708 20.0597 34.5134 21.4014 34.3804 22.7298C34.3208 23.8625 34.118 24.9831 33.7769 26.0649C33.7415 26.1505 33.7415 26.2467 33.7769 26.3324C33.9 26.4128 33.9804 26.3087 34.0467 26.2424C34.8254 25.4637 35.8243 25.2128 36.8681 25.1063C38.2433 24.9643 39.4457 25.4519 40.5369 26.2424C40.7812 26.3954 41.0047 26.5791 41.202 26.7892C41.3843 27.0117 41.3819 27.0519 41.1405 27.1892C40.9548 27.3009 40.7458 27.3681 40.5298 27.3857C39.8647 27.4306 39.1972 27.4756 38.5581 27.2129C38.5197 27.1962 38.4775 27.1901 38.436 27.1951C38.3944 27.2001 38.3549 27.216 38.3214 27.2413C38.7867 27.6817 39.1425 28.2248 39.3605 28.8271C39.2233 28.9786 39.1238 28.8698 39.015 28.8106C37.6492 28.0626 36.2811 28.2543 34.8799 28.7372C34.1714 28.9802 33.47 29.2374 32.7756 29.5088C32.1502 29.7315 31.5977 30.1211 31.1779 30.6355C30.3929 31.5699 29.4852 32.3939 28.4796 33.0853C26.9433 34.1662 25.2723 35.0415 23.509 35.689C22.5622 36.0559 21.5894 36.3494 20.6166 36.6192C19.6437 36.889 18.6212 37.0216 17.6176 37.2157C17.5703 37.0074 17.736 36.979 17.8164 36.9174C18.349 36.463 18.9052 36.0346 19.4212 35.5635C19.8426 35.1753 20.2189 34.7375 20.6189 34.3232C21.2012 33.7197 21.89 33.2037 22.3563 32.503C23.0332 31.4994 23.6936 30.4817 24.0486 29.2982C24.266 28.6728 24.2972 27.9977 24.1386 27.3549C24.096 27.201 24.1173 27.0803 24.3137 27.033C24.5796 26.9577 24.8624 26.9684 25.1218 27.0636C25.3811 27.1589 25.6037 27.3337 25.7576 27.5632C25.8807 27.7431 25.973 27.7005 26.1032 27.5987C26.5979 27.2105 26.8843 26.6661 27.2014 26.1501C27.6041 25.4358 27.9045 24.6685 28.0938 23.8707C28.2074 23.466 28.1577 23.0163 28.1861 22.5263ZM26.6665 31.5208L26.5931 31.4497C26.9174 30.9101 27.3222 30.4248 27.618 29.8662C28.0421 29.0868 28.2947 28.2257 28.3589 27.3407C28.1861 27.4212 28.1861 27.5608 28.1411 27.6721C27.8892 28.3331 27.572 28.9675 27.1943 29.5656C26.4377 30.7289 25.5392 31.7936 24.5197 32.735C24.142 33.1464 23.7178 33.5126 23.2557 33.8262L19.4686 36.0298C19.355 36.0961 19.2319 36.1458 19.194 36.2973C19.2437 36.3115 19.2626 36.3257 19.2769 36.321C20.9933 35.779 22.6426 35.0436 24.193 34.1291C25.6293 33.332 26.9411 32.3288 28.0867 31.1515C28.5847 30.6308 28.9977 30.0349 29.3104 29.3858C29.3554 29.2887 29.4406 29.1869 29.3483 29.0307C28.9001 29.6333 28.3838 30.1821 27.8098 30.6663C27.4785 31.013 27.0922 31.3025 26.6665 31.5231V31.5208ZM32.7259 25.5536C33.5354 24.0814 33.436 21.9724 32.5792 20.1925C31.8691 18.7439 30.3826 17.0941 29.6418 16.971C31.8786 19.4208 33.32 22.1263 32.7259 25.556V25.5536Z" fill="#C1A575"/>
        <path d="M100.98 60.9611C101.233 60.393 101.453 59.9007 101.676 59.4178C102.636 57.3411 103.849 55.3903 105.285 53.6093C105.987 52.7862 106.762 52.0295 107.603 51.3489C108.631 50.4625 109.844 49.8158 111.153 49.4553C112.654 49.0541 114.23 49.0257 115.745 49.3724C117.531 49.7946 119.204 50.6024 120.645 51.7394C120.729 51.8036 120.808 51.874 120.881 51.9501C120.903 51.9664 120.921 51.9876 120.934 52.012C120.946 52.0365 120.952 52.0635 120.952 52.0909C120.952 52.1183 120.946 52.1453 120.934 52.1698C120.921 52.1942 120.903 52.2155 120.881 52.2317C120.717 52.3955 120.532 52.5378 120.332 52.6554C119.149 53.2827 117.897 53.3134 116.618 53.1975C116.105 53.1525 115.596 53.0365 115.082 52.9608C115.023 53.1549 115.196 53.1738 115.281 53.2282C116.273 53.8555 116.883 54.807 117.463 55.7846C117.527 55.8911 117.61 56.0212 117.515 56.1325C117.421 56.2437 117.231 56.1964 117.123 56.1325C116.711 55.8674 116.235 55.7632 115.807 55.5597C115.531 55.4343 115.235 55.3598 114.933 55.3396C114.071 55.2505 113.2 55.3033 112.355 55.4958C110.102 56.0371 107.93 56.876 105.898 57.9906C104.363 58.819 102.88 59.7407 101.458 60.7504C101.32 60.861 101.155 60.9336 100.98 60.9611Z" fill="#C1A575"/>
        <path d="M23.4453 61.4134C22.9364 61.2926 22.5884 60.94 22.1861 60.6891C20.8889 59.8645 19.5454 59.1153 18.1622 58.4452C16.6099 57.6976 14.9929 57.0923 13.3313 56.6368C12.3655 56.3742 11.3686 56.2436 10.3678 56.2487C9.39681 56.2815 8.45253 56.575 7.63397 57.0984C7.54166 57.1505 7.45408 57.212 7.3594 57.2641C7.3134 57.283 7.2659 57.2981 7.21738 57.309C7.18614 57.2883 7.16297 57.2575 7.15176 57.2217C7.14055 57.186 7.14199 57.1474 7.15584 57.1126C7.36485 56.5008 7.69489 55.9373 8.1263 55.4557C8.59969 54.9634 9.02574 54.445 9.68613 54.0545C9.45095 53.9851 9.19858 54.0036 8.97604 54.1065C7.74594 54.3868 6.47134 54.4109 5.2315 54.1776C4.7762 54.078 4.34758 53.8819 3.97464 53.6024C3.73795 53.4343 3.73795 53.316 3.97464 53.084C4.73917 52.2911 5.67649 51.7538 6.65404 51.2686C7.96194 50.6304 9.3873 50.2686 10.8412 50.2058C12.0441 50.1587 13.2427 50.3744 14.3538 50.8378C16.2142 51.5715 17.7267 52.7929 19.0546 54.2628C20.3338 55.7212 21.438 57.3243 22.3447 59.0393C22.6902 59.6705 23.0208 60.308 23.3364 60.9518C23.387 61.0162 23.423 61.0909 23.4418 61.1706C23.4606 61.2503 23.4618 61.3331 23.4453 61.4134Z" fill="#C1A575"/>
        <path d="M97.7085 71.3453C97.6626 71.1344 97.5749 70.9348 97.4505 70.7583C97.1121 70.0624 96.9061 69.3381 97.1263 68.5689C97.1489 68.5105 97.1766 68.4543 97.2091 68.4008C98.4116 69.0405 99.3908 70.0313 100.016 71.2412C100.596 70.4861 100.963 69.6411 101.728 69.0896C102.467 68.5562 103.338 68.2331 104.246 68.1547C105.17 68.0464 106.106 68.1327 106.994 68.4079C106.428 69.4944 105.453 69.8541 104.291 70.1098C105.001 70.4104 105.633 70.569 106.054 71.0708C106.054 71.1418 106.026 71.1654 105.983 71.1631C104.656 71.1015 103.595 71.7098 102.67 72.5572C101.369 73.7247 100.271 75.0996 99.4198 76.626C98.8194 77.6472 98.109 78.5997 97.3014 79.4664C97.2304 79.5469 97.1689 79.6344 97.105 79.7196C97.105 79.7196 97.105 79.7528 97.1215 79.8167C97.6129 79.8076 98.1043 79.8361 98.5914 79.9019C99.5266 80.0841 100.417 80.4467 101.214 80.9694C101.505 81.1564 101.479 81.2416 101.183 81.4617C100.834 81.716 100.419 81.8647 99.9879 81.8901C99.4361 81.9211 98.8829 81.9211 98.331 81.8901C98.8494 82.4203 99.4672 82.7943 99.6471 83.5115C99.5564 83.5275 99.4634 83.5253 99.3736 83.5049C99.2838 83.4846 99.1989 83.4466 99.124 83.3932C98.819 83.2427 98.4854 83.1587 98.1455 83.1469C97.8056 83.1351 97.467 83.1956 97.1523 83.3245C96.9582 83.3932 96.7688 83.3695 96.5795 83.4287C95.6795 83.7271 94.8132 84.119 93.9948 84.5979C93.0381 85.1445 92.12 85.7558 91.2467 86.4276C91.1639 86.4915 91.0692 86.572 90.9627 86.482C90.8562 86.3921 90.9508 86.3235 90.9627 86.2454C91.0835 85.7981 91.2702 85.3713 91.5166 84.979C91.7988 84.5625 92.0211 84.1083 92.1769 83.6299C92.1981 83.5435 92.2377 83.4628 92.2929 83.3932C92.7663 82.8606 93.048 82.1907 93.6232 81.7363C93.9853 81.4499 94.2362 81.038 94.622 80.7729C95.1281 80.4042 95.7014 80.1381 96.3097 79.9895C96.4248 79.9807 96.5335 79.9327 96.6176 79.8534C96.7016 79.7742 96.7558 79.6684 96.7712 79.5539C97.1121 77.8758 97.4032 76.1929 97.3203 74.4697C97.2825 73.6791 97.0079 72.9501 96.7404 72.2187C96.575 71.7378 96.2822 71.3107 95.8931 70.9832C96.6032 70.8861 97.1192 71.1796 97.647 71.4116C97.673 71.4305 97.7133 71.4708 97.7227 71.4637C97.7937 71.4163 97.744 71.3785 97.7085 71.3453Z" fill="#C1A575"/>
        <path d="M102.49 53.2659C103.141 52.752 103.764 52.2045 104.358 51.6256C105.54 50.5369 106.531 49.2566 107.288 47.8385C107.608 47.232 107.817 46.5731 107.906 45.8929C107.979 45.2747 107.902 44.6479 107.68 44.0663C107.458 43.4846 107.099 42.9654 106.632 42.5531C106.237 42.1847 105.797 41.8667 105.323 41.6063C103.318 40.5009 101.425 41.1329 100.241 42.9768C100.111 43.1921 99.993 43.4141 99.8864 43.6419C99.787 43.836 99.6615 43.8525 99.4982 43.7247C99.1249 43.4356 98.8625 43.0269 98.755 42.5673C98.6371 41.9653 98.6525 41.3448 98.7999 40.7494C98.8686 40.3778 98.8686 40.3707 98.5064 40.2761C97.9597 40.1198 97.4129 40.0394 96.8496 40.3613C96.793 40.0856 96.7999 39.8006 96.8696 39.5279C96.9393 39.2553 97.07 39.002 97.2519 38.7872C97.4628 38.5189 97.7008 38.273 97.962 38.0535C98.1206 37.9351 98.1017 37.8168 97.962 37.7032C97.6588 37.3696 97.2907 37.1014 96.8803 36.915C96.7367 36.8807 96.6036 36.8116 96.493 36.7138C96.3824 36.616 96.2975 36.4924 96.246 36.354C96.7983 36.0235 97.4133 35.8115 98.052 35.7315C100.177 35.3964 102.354 35.6747 104.327 36.5339C105.361 36.9647 106.22 37.7055 106.987 38.5221C108.12 39.6606 108.915 41.0913 109.283 42.6548C109.511 43.6949 109.529 44.7701 109.335 45.8171C109.046 47.5764 108.344 49.2423 107.288 50.6789C106.386 51.8623 105.274 52.7736 103.82 53.2139C103.39 53.3521 102.93 53.3701 102.49 53.2659ZM100.899 37.8002C101.306 37.7576 101.716 37.7576 102.123 37.8002C103.065 37.9692 103.949 38.3766 104.689 38.9837C105.703 39.7613 106.636 40.64 107.472 41.6063C107.555 41.6986 107.631 41.8288 107.837 41.8098C107.778 41.682 107.749 41.5992 107.704 41.5234C107.131 40.5207 106.392 39.6227 105.517 38.8677C104.918 38.3189 104.214 37.8956 103.449 37.6227C102.582 37.3457 101.728 37.3244 100.899 37.8002Z" fill="#C1A575"/>
        <path d="M99.7679 69.5367C99.4784 69.1717 99.3126 68.724 99.2945 68.2585C99.0175 66.0927 99.7229 64.211 101.006 62.521C102.144 61.0203 103.529 59.8013 105.285 59.0652C106.47 58.5884 107.755 58.4119 109.025 58.5516C110.257 58.6857 111.458 59.0274 112.576 59.5623C113.635 60.0684 114.567 60.808 115.3 61.7257C116.307 62.877 117.063 64.2257 117.52 65.6856C117.678 66.2788 117.769 66.8877 117.792 67.5011C117.722 67.5225 117.648 67.5265 117.576 67.5129C117.503 67.4993 117.436 67.4685 117.378 67.423C116.881 67.0632 116.282 66.907 115.771 66.5851C115.574 66.4596 115.534 66.6087 115.503 66.7697C115.387 67.3733 115.081 67.924 114.63 68.3413C114.454 68.5125 114.254 68.6576 114.036 68.7721C113.91 68.4526 113.783 68.1496 113.679 67.8419C113.628 67.69 113.548 67.5499 113.442 67.4301C113.035 66.9567 113.037 66.9567 112.552 67.3543C111.842 67.9319 111.039 68.3011 110.083 68.1236C109.994 68.1163 109.905 68.1029 109.818 68.0833C109.458 67.9626 109.42 67.8017 109.655 67.494C109.962 67.1198 110.195 66.6909 110.343 66.23C110.429 65.9223 110.646 65.6738 110.691 65.3448C110.832 64.6147 110.684 63.8585 110.277 63.2358C110.01 62.8334 109.804 62.3813 109.371 62.1328C108.708 61.7411 108.02 61.3932 107.311 61.0913C106.949 60.9469 106.563 60.8715 106.173 60.8688C104.788 60.8286 103.735 61.4866 102.859 62.476C102.177 63.2869 101.627 64.1998 101.228 65.1814C100.655 66.535 100.225 67.9447 99.9454 69.3875C99.9217 69.4396 99.9099 69.4917 99.7679 69.5367ZM114.396 64.2134C114.431 63.9423 114.423 63.6673 114.37 63.3991C114.133 62.3695 113.482 61.6499 112.63 61.0937C111.11 60.0996 109.401 59.7303 107.617 59.6357C107.546 59.6357 107.472 59.6357 107.446 59.7753C107.711 59.8534 107.981 59.9363 108.253 60.012C109.422 60.3173 110.56 60.7325 111.65 61.2523C112.649 61.7494 113.525 62.3861 114.067 63.4062C114.19 63.6193 114.206 63.908 114.403 64.2134H114.396Z" fill="#C1A575"/>
        <path d="M7.38277 68.2633C7.36854 68.213 7.35903 68.1615 7.35437 68.1094C7.35613 66.673 7.75065 65.2643 8.49525 64.0359C8.93056 63.3417 9.42555 62.6867 9.9746 62.0784C11.0328 60.8762 12.4283 60.0201 13.9795 59.6215C16.3465 58.973 18.633 59.0889 20.7585 60.4594C22.716 61.7186 24.2356 63.3518 25.0427 65.5697C25.4518 66.6534 25.5501 67.8297 25.3267 68.9663C25.2362 69.2979 25.0915 69.6122 24.8983 69.8965C24.6048 68.7485 24.2024 67.7307 23.8355 66.7011C23.4581 65.6574 22.9474 64.6669 22.3159 63.7542C22.1544 63.4554 21.965 63.1724 21.7502 62.9092C21.1307 62.3159 20.3809 61.8757 19.5608 61.624C19.1568 61.4899 18.7315 61.4313 18.3063 61.4512C18.0071 61.4849 17.7148 61.5647 17.44 61.6879C16.5638 61.9566 15.7639 62.4296 15.1062 63.0678C14.2091 63.9957 13.9961 65.0939 14.3061 66.3105C14.4545 66.9426 14.7542 67.5291 15.1796 68.0195C15.4589 68.339 15.4162 68.4929 14.9736 68.6018C14.5573 68.7183 14.1196 68.7362 13.6951 68.6541C13.2707 68.5719 12.8713 68.3919 12.5286 68.1284C11.8942 67.6692 11.8421 67.6834 11.4137 68.3343C11.2526 68.5728 11.1571 68.8496 11.1368 69.1367C11.1107 69.4349 10.9119 69.5462 10.7462 69.3403C10.474 69.0042 10.1071 68.7675 9.85862 68.4124C9.67549 68.1959 9.56679 67.9262 9.54855 67.6432C9.54855 67.2526 9.48227 67.2384 9.13669 67.4065C8.61833 67.6432 8.07156 67.8301 7.64077 68.2278C7.60436 68.2552 7.56154 68.2729 7.51639 68.2791C7.47123 68.2853 7.42524 68.2799 7.38277 68.2633ZM10.5332 64.8028C10.5853 64.7531 10.6231 64.7342 10.6326 64.7057C11.0184 63.4276 11.9344 62.6323 13.0635 62.0263C14.1517 61.4662 15.2906 61.0105 16.4648 60.6653C16.7064 60.6145 16.9382 60.525 17.1512 60.4002C17.0854 60.3809 17.0181 60.3667 16.95 60.3576C16.8239 60.3505 16.6975 60.3505 16.5713 60.3576C15.336 60.4776 14.1329 60.8217 13.0209 61.3731C12.2509 61.7346 11.5849 62.285 11.0847 62.9731C10.6972 63.5021 10.5025 64.1478 10.5332 64.8028Z" fill="#C1A575"/>
        <path d="M21.7055 53.9812C20.7681 54.0713 19.8275 53.8456 19.0332 53.3398C18.4651 53.0084 18.0461 52.516 17.587 52.0687C16.5676 51.1128 15.8133 49.9092 15.3975 48.5751C14.9478 47.0768 14.7016 45.5524 14.9241 43.9595C15.0852 42.7726 15.5275 41.6413 16.2141 40.6599C16.4508 40.3477 16.7112 40.0541 16.9929 39.7818C17.5303 39.1419 18.1368 38.5632 18.8012 38.0563C19.1402 37.8244 19.5048 37.6322 19.8876 37.4835C21.2893 36.9156 22.7851 36.6161 24.2973 36.6006C25.4121 36.6006 26.5199 36.7331 27.5637 37.3107C27.2891 37.5923 26.9199 37.7367 26.6169 37.9758C26.314 38.2149 26.0583 38.4729 25.7767 38.7238C25.834 38.8795 25.9414 39.0119 26.082 39.1001C26.5808 39.549 26.9143 40.1525 27.0288 40.8138C27.0595 40.9392 27.0856 41.0765 26.9578 41.1594C26.83 41.2422 26.7755 41.1025 26.6832 41.0694C26.1625 40.8895 25.6583 41.0197 25.166 41.2138C24.9956 41.2801 25.0713 41.4197 25.0973 41.5357C25.2251 42.0435 25.2723 42.5683 25.237 43.0908C25.2275 43.3615 25.1623 43.6274 25.0454 43.8717C24.9285 44.1161 24.7625 44.3337 24.5577 44.511C24.373 44.6672 24.25 44.6483 24.1221 44.4613C23.9943 44.2743 23.8168 44.0234 23.6724 43.7985C23.1504 43.0188 22.3871 42.4318 21.4996 42.1274C21.014 41.9668 20.489 41.971 20.006 42.1393C18.999 42.4597 18.0895 43.0297 17.3621 43.7962C16.9297 44.2329 16.6159 44.7728 16.4502 45.3646C16.2845 45.9565 16.2725 46.5808 16.4153 47.1785C16.6828 48.5159 17.4047 49.6307 18.2734 50.6556C19.2384 51.7748 20.3199 52.7881 21.4996 53.6782C21.5777 53.7421 21.696 53.7824 21.7055 53.9812ZM22.9529 38.8137C22.9079 38.674 22.7943 38.6575 22.6972 38.6267C21.6226 38.2906 20.638 38.5486 19.7101 39.1001C18.2899 39.9546 17.2745 41.2067 16.4698 42.6363C16.4153 42.7334 16.2993 42.8352 16.4082 42.9725C16.5408 42.9322 16.607 42.8162 16.6851 42.7216C17.3893 41.8806 18.156 41.0941 18.9787 40.3688C19.7527 39.6895 20.5883 39.1025 21.625 38.8752C22.0652 38.818 22.5093 38.7974 22.9529 38.8137Z" fill="#C1A575"/>
        <path d="M34.0397 86.2711C33.3296 85.7977 32.6763 85.3243 31.9899 84.9077C30.8677 84.1859 29.6483 83.628 28.3685 83.2508C27.7568 83.0589 27.1125 82.9937 26.4749 83.0591C26.1293 83.1041 25.8595 83.3478 25.4382 83.381C25.5802 82.6212 26.321 82.3727 26.6879 81.7833C25.5778 81.8567 24.4772 82.0437 23.5304 81.201C24.8062 80.1122 26.2784 79.7501 27.8714 79.7264C27.9542 79.5725 27.817 79.5063 27.7365 79.4211C27.1992 78.8483 26.6287 78.3015 26.1269 77.6979C25.8035 77.2703 25.507 76.8228 25.2393 76.3582C24.5892 75.2884 23.8189 74.2965 22.9434 73.4019C22.1822 72.6975 21.3002 72.1362 20.3397 71.745C19.9524 71.5641 19.5261 71.4827 19.0994 71.5083C19.0142 71.5083 18.9077 71.5296 18.8817 71.4136C18.8763 71.3683 18.8855 71.3225 18.9081 71.2829C18.9307 71.2433 18.9654 71.2119 19.0071 71.1935C19.2577 70.9895 19.541 70.8295 19.845 70.7201C20.0875 70.6886 20.3211 70.6081 20.5314 70.4834C20.3059 70.3836 20.0664 70.319 19.8213 70.2917C19.4695 70.2299 19.1338 70.0977 18.8344 69.9028C18.5351 69.708 18.2782 69.4546 18.0793 69.1579C17.897 68.9023 17.9207 68.8455 18.2236 68.7603C19.561 68.3886 20.8936 68.3792 22.1812 68.9378C22.9621 69.2763 23.6327 69.8264 24.1174 70.526C24.3304 70.8313 24.5292 71.1438 24.7304 71.4444C24.9009 71.4207 24.9103 71.2905 24.9435 71.2077C25.3435 70.1781 26.1908 69.5295 26.9767 68.8407C27.372 68.4951 27.5329 68.604 27.5968 69.1224C27.6583 69.8444 27.4928 70.5677 27.1234 71.1911C27.0021 71.3448 26.9208 71.5261 26.8867 71.719C27.1799 71.5357 27.4879 71.3774 27.8075 71.2456C28.1252 71.0925 28.4838 71.046 28.83 71.113C28.5303 71.3685 28.2737 71.6706 28.0702 72.0077C27.6819 72.8029 27.4888 73.6793 27.5069 74.564C27.4666 76.2493 27.7791 77.892 28.1933 79.5205C28.2162 79.6257 28.2705 79.7215 28.3492 79.7951C28.4278 79.8686 28.527 79.9165 28.6336 79.9323C30.0277 80.2448 31.036 81.1276 31.8929 82.1904C32.7765 83.3244 33.4886 84.5821 34.0066 85.9231C34.0307 85.9904 34.0466 86.0603 34.0539 86.1314C34.054 86.1783 34.0492 86.2251 34.0397 86.2711Z" fill="#C1A575"/>
        <path d="M104.975 26.0535C105.747 27.0003 105.607 28.0701 105.427 29.2181C106.019 28.7826 106.315 28.1056 107.084 28.018C106.971 28.3281 106.862 28.5861 106.784 28.8536C106.53 29.7341 106.677 30.6075 106.904 31.4572C107.327 32.9376 107.965 34.3476 108.798 35.642C109.061 36.0681 109.331 36.4894 109.603 36.9249C109.432 37.0291 109.3 36.9439 109.16 36.88C108.105 36.4294 107.114 35.8403 106.213 35.1284C105.652 34.655 105.179 34.0869 104.649 33.578C104.223 33.1473 103.879 32.6428 103.633 32.0892C103.325 31.3832 103.213 30.6075 103.307 29.843C103.394 28.7116 103.655 27.6251 104.35 26.6807C104.523 26.4582 104.753 26.2949 104.975 26.0535Z" fill="#C1A575"/>
        <path d="M14.3538 38.2124C14.9444 37.306 15.4749 36.362 15.942 35.3862C16.3018 34.6761 16.5172 33.895 16.8154 33.1542C17.0222 32.5643 17.1317 31.9447 17.1397 31.3198C17.1636 30.7468 17.0098 30.1805 16.6994 29.6984C16.645 29.6061 16.5621 29.5303 16.6213 29.3646C16.9583 29.4479 17.2707 29.6102 17.5326 29.838C17.8024 30.0298 18.0368 30.2736 18.3397 30.4771C18.193 29.8284 18.1443 29.1614 18.1953 28.4983C18.2099 28.2137 18.2909 27.9364 18.432 27.6888C18.5764 27.4214 18.7374 27.4048 18.9267 27.6415C19.9351 28.8984 20.5836 30.3043 20.4392 31.9517C20.327 33.089 19.8438 34.1578 19.064 34.9933C17.8393 36.3335 16.3595 37.4158 14.7112 38.1768C14.6613 38.2165 14.6011 38.2409 14.5377 38.2472C14.4743 38.2535 14.4104 38.2414 14.3538 38.2124Z" fill="#C1A575"/>
        <path d="M93.9688 50.814C93.9688 52.3809 94.0067 53.9502 93.9688 55.5172C93.9286 56.8474 93.7913 58.1729 93.699 59.5008C93.6209 60.6132 93.4883 61.7186 93.3605 62.8145C93.2027 64.1526 93.0149 65.4868 92.7972 66.8171C92.3436 69.5308 91.7407 72.2174 90.9912 74.8647C90.0482 78.211 88.8282 81.4729 87.3437 84.6166C85.7631 87.9558 83.8335 91.1183 81.5872 94.0513C79.9066 96.2384 78.0306 98.2682 75.9823 100.115C73.1012 102.74 69.8526 104.929 66.3393 106.615C65.3415 107.09 64.32 107.512 63.2788 107.882C63.005 107.974 62.7073 107.966 62.4385 107.86C60.6671 107.248 58.9505 106.488 57.3069 105.588C54.9505 104.301 52.7239 102.789 50.6581 101.074C48.9404 99.6451 47.329 98.093 45.8366 96.4301C44.0976 94.5055 42.519 92.4417 41.1169 90.2595C38.9068 86.8132 37.0812 83.1351 35.6729 79.2909C34.4017 75.8085 33.4107 72.2301 32.7094 68.5899C32.326 66.649 32.0206 64.6955 31.7934 62.7293C31.6135 61.1576 31.4597 59.586 31.3461 58.0072C31.2206 56.2817 31.1638 54.5562 31.1259 52.8283C31.1023 51.8389 31.062 50.8495 31.0786 49.8601C31.1046 48.3453 31.1283 46.8328 31.1922 45.3226C31.2111 44.8493 31.2845 44.3546 31.2703 43.867C31.2595 43.7516 31.288 43.636 31.3511 43.5389C31.4143 43.4418 31.5084 43.3689 31.6183 43.332C33.313 42.5296 34.9983 41.7154 36.6883 40.9059L41.5642 38.5744L54.9613 32.1387C57.3969 30.9717 59.8396 29.8143 62.2681 28.6332C62.4526 28.5291 62.6609 28.4744 62.8728 28.4744C63.0847 28.4744 63.293 28.5291 63.4776 28.6332C68.5271 31.128 73.5901 33.6085 78.6664 36.0749L89.1 41.1852C90.5083 41.874 91.9072 42.577 93.3274 43.2397C93.5015 43.3071 93.6495 43.4285 93.7496 43.5861C93.8497 43.7437 93.8967 43.9292 93.8836 44.1155C93.9759 46.3404 94.0469 48.5796 93.9688 50.814Z" fill="#1C1609"/>
        <path d="M97.7086 71.3452C97.7441 71.3784 97.7938 71.4162 97.7228 71.4588C97.7228 71.4588 97.6731 71.4257 97.6471 71.4068L97.7086 71.3452Z" fill="white"/>
        <path d="M97.0927 30.4652C97.081 30.4652 97.0693 30.4934 97.0575 30.4934C97.0458 30.4934 97.0364 30.4723 97.0271 30.4605C97.0177 30.4488 97.0505 30.4324 97.0622 30.4324C97.074 30.4324 97.0834 30.4535 97.0927 30.4652Z" fill="#C1A575"/>
        <path d="M26.4988 31.5755C26.5319 31.5352 26.5627 31.4926 26.5935 31.4524L26.6668 31.5234L26.5343 31.6086L26.4988 31.5755Z" fill="#C1A575"/>
        <path d="M26.5332 31.6083C26.5097 31.6529 26.4886 31.7045 26.437 31.6364C26.4565 31.6144 26.4776 31.594 26.5003 31.5754L26.5332 31.6083Z" fill="#C1A575"/>
        <path d="M85.4122 63.2099C85.4122 64.0052 85.4406 64.8005 85.4122 65.5935C85.3482 67.0326 85.4477 68.3321 86.1743 69.7286C87.7152 72.6873 85.7151 76.4105 82.4345 77.1348C82.0629 77.2176 81.6842 77.2082 81.5209 77.6603C79.7598 82.5149 76.3325 86.1577 72.7489 89.6821C71.0915 91.3636 69.0007 92.5532 66.7084 93.1189C62.2348 94.1911 58.1873 93.2775 54.7529 90.2075C51.2024 87.0145 47.9999 83.483 45.9265 79.0828C45.8742 78.9928 45.8314 78.8976 45.7986 78.7988C45.5619 77.7478 44.9465 77.2508 43.8577 76.9052C40.4801 75.8188 39.1735 71.8352 41.1215 68.8694C41.4392 68.3842 41.5858 67.8069 41.5381 67.229C41.4221 63.8135 41.1594 60.3885 41.6707 56.9848C42.2364 53.1977 43.4695 49.7396 46.8306 47.4625C48.1712 46.536 49.7286 45.9718 51.3515 45.8246C51.5381 45.8163 51.721 45.7701 51.8891 45.6887C52.0572 45.6073 52.2069 45.4925 52.3291 45.3512C55.4795 41.8268 59.4584 40.267 64.1402 40.4445C69.8801 40.6622 75.0283 42.5132 79.4166 46.2483C83.2629 49.5171 85.1376 53.7752 85.4145 58.7624C85.495 60.2441 85.4264 61.733 85.4264 63.217L85.4122 63.2099ZM46.646 71.0872C46.1726 74.7299 47.1715 77.9869 49.2094 80.9906C51.1615 83.8862 53.4861 86.5124 56.1233 88.8016C59.5318 91.7532 63.4444 92.2763 67.6457 90.7472C68.6912 90.3725 69.6553 89.8013 70.4861 89.0643C73.2803 86.5865 75.7604 83.7757 77.871 80.6947C79.9161 77.6887 80.4747 74.3796 80.264 70.8316C80.2119 69.9747 80.1007 69.6765 79.1492 69.6694C70.4127 69.6173 62.4857 67.1983 55.7304 61.4702C55.418 61.2075 55.2168 61.0655 54.9541 61.5341C53.238 64.5662 50.5823 66.261 47.2212 66.9332C46.7478 67.0279 46.6152 67.2172 46.6271 67.6764C46.6649 68.8054 46.646 69.9463 46.646 71.0872ZM44.7524 68.5143C43.1192 69.0611 42.2742 70.1404 42.1796 71.6103C42.1354 72.2849 42.2891 72.9577 42.6216 73.5463C42.9542 74.1349 43.4512 74.6137 44.0518 74.924C44.4069 75.0945 44.7619 75.3525 44.7619 74.614C44.7406 72.6139 44.7524 70.6209 44.7524 68.5143ZM82.1694 72.4151H82.1268C82.1268 73.1039 82.1576 73.7974 82.1268 74.4838C82.0913 75.0945 82.2428 75.2175 82.8132 74.943C84.5127 74.1264 85.211 71.8186 84.3044 70.1428C83.8547 69.312 83.1896 69.6339 82.5836 69.6694C81.8972 69.7167 82.2239 70.2966 82.1931 70.6446C82.1339 71.2363 82.1694 71.8257 82.1694 72.4151Z" fill="#C1A575"/>
        <path d="M46.6462 71.0871C46.6462 69.9462 46.6651 68.8053 46.6462 67.6668C46.6343 67.2076 46.755 67.0183 47.2403 66.9236C50.5919 66.2608 53.2476 64.5566 54.9589 61.5435C55.2217 61.0701 55.4323 61.2168 55.7353 61.4796C62.4906 67.2076 70.4105 69.6267 79.154 69.6787C80.1008 69.6787 80.2168 69.9841 80.2689 70.8409C80.4748 74.3914 79.9209 77.7051 77.8759 80.7041C75.7653 83.785 73.2851 86.5958 70.491 89.0736C69.6602 89.8106 68.6961 90.3819 67.6506 90.7566C63.4492 92.2856 59.5366 91.7625 56.1282 88.8109C53.4909 86.5218 51.1664 83.8956 49.2143 80.9999C47.1716 77.9868 46.1799 74.7298 46.6462 71.0871ZM63.4066 85.6179C64.3724 85.6179 65.3404 85.6463 66.3062 85.6179C67.2719 85.5895 67.5938 85.1279 67.4896 84.1977C67.3919 83.1965 66.927 82.2669 66.1845 81.5882C65.4421 80.9095 64.4746 80.5297 63.4686 80.522C62.4627 80.5144 61.4896 80.8794 60.7369 81.5468C59.9842 82.2142 59.5052 83.1366 59.3923 84.1362C59.2621 85.1208 59.6171 85.58 60.6089 85.6131C61.5415 85.6439 62.474 85.6179 63.4066 85.6179ZM54.3554 70.6208V70.609C53.6311 70.609 52.9068 70.5829 52.1825 70.609C50.9327 70.6634 50.5777 71.2906 51.2357 72.3321C51.4251 72.6303 51.3469 72.9238 51.4393 73.2102C51.6973 74.0079 52.2322 74.5192 53.063 74.6068C53.8512 74.6896 54.656 74.3701 54.8193 73.6268C55.056 72.5451 55.6738 72.5238 56.5117 72.5735C57.1413 72.609 57.6005 72.2777 57.6147 71.6078C57.6289 70.938 57.1413 70.6445 56.5259 70.6232C55.8039 70.6019 55.0796 70.6208 54.3554 70.6208ZM73.7029 74.6446C73.8804 74.5973 74.084 74.5571 74.2757 74.486C74.9858 74.2233 76.1149 72.1806 75.9705 71.4421C75.9494 71.2322 75.8528 71.0371 75.6987 70.893C75.5446 70.7489 75.3434 70.6656 75.1326 70.6587C73.4472 70.5533 71.7568 70.5581 70.072 70.6729C69.9581 70.6767 69.8461 70.7035 69.7427 70.7515C69.6394 70.7996 69.5467 70.8679 69.4703 70.9525C69.3939 71.0371 69.3353 71.1362 69.2979 71.2439C69.2606 71.3516 69.2453 71.4657 69.253 71.5794C69.253 72.1451 69.5891 72.467 70.1241 72.5641C70.3627 72.6031 70.6055 72.6103 70.846 72.5854C71.4022 72.5451 71.7928 72.5996 71.9182 73.3144C72.0744 74.2091 72.8153 74.557 73.7029 74.647V74.6446Z" fill="#FFF3D2"/>
        <path d="M44.7526 68.5139C44.7526 70.6205 44.7526 72.6159 44.7526 74.6112C44.7526 75.3497 44.3999 75.0846 44.0425 74.9213C43.4419 74.611 42.9449 74.1322 42.6123 73.5436C42.2798 72.955 42.1261 72.2821 42.1703 71.6075C42.2744 70.14 43.1194 69.0631 44.7526 68.5139Z" fill="#FFF3D2"/>
        <path d="M82.1695 72.4148C82.1695 71.8255 82.134 71.2314 82.1837 70.6538C82.2145 70.3059 81.8878 69.726 82.5742 69.6786C83.1802 69.6337 83.8453 69.3118 84.295 70.152C85.2016 71.8278 84.5033 74.1356 82.8038 74.9522C82.2334 75.2268 82.0819 75.1037 82.1174 74.493C82.1577 73.8066 82.1174 73.1131 82.1174 72.4243L82.1695 72.4148Z" fill="#FFF3D2"/>
        <path d="M63.4067 85.6178C62.4742 85.6178 61.5416 85.6439 60.6114 85.6178C59.6196 85.5847 59.2646 85.1255 59.3947 84.1408C59.5076 83.1412 59.9866 82.2188 60.7394 81.5515C61.4921 80.8841 62.4652 80.5191 63.4711 80.5267C64.4771 80.5344 65.4445 80.9142 66.187 81.5929C66.9295 82.2716 67.3944 83.2012 67.4921 84.2024C67.5939 85.1279 67.2412 85.5823 66.3086 85.6226C65.3761 85.6628 64.3725 85.6178 63.4067 85.6178Z" fill="#1C1609"/>
        <path d="M59.6241 68.8076H49.0035V76.2517H59.6241V68.8076Z" fill="#1C1609"/>
        <path d="M77.2489 68.8076H66.6283V76.2517H77.2489V68.8076Z" fill="#1C1609"/>
        <path d="M52.9446 71.1153V74.2704C52.9464 74.3159 52.9595 74.3602 52.9826 74.3993C53.0058 74.4384 53.0383 74.4712 53.0773 74.4947C53.1162 74.5181 53.1604 74.5316 53.2058 74.5337C53.2512 74.5359 53.2965 74.5268 53.3375 74.5071L56.4785 72.9568C56.5239 72.9342 56.5621 72.8995 56.5888 72.8564C56.6155 72.8133 56.6296 72.7637 56.6296 72.713C56.6296 72.6623 56.6155 72.6126 56.5888 72.5695C56.5621 72.5265 56.5239 72.4917 56.4785 72.4692L53.3375 70.8549C53.2948 70.8336 53.2471 70.824 53.1995 70.8269C53.1518 70.8299 53.1058 70.8453 53.0659 70.8717C53.0261 70.8981 52.994 70.9345 52.9727 70.9772C52.9514 71.02 52.9417 71.0676 52.9446 71.1153Z" fill="#D14947"/>
        <path d="M70.1311 71.1154V74.2706C70.1327 74.3163 70.1458 74.361 70.1691 74.4004C70.1924 74.4398 70.2251 74.4728 70.2644 74.4963C70.3037 74.5198 70.3483 74.5332 70.394 74.5351C70.4398 74.537 70.4853 74.5274 70.5264 74.5073L73.665 72.9569C73.7104 72.9344 73.7486 72.8996 73.7753 72.8565C73.802 72.8135 73.8161 72.7638 73.8161 72.7131C73.8161 72.6624 73.802 72.6128 73.7753 72.5697C73.7486 72.5266 73.7104 72.4919 73.665 72.4693L70.5264 70.855C70.4834 70.834 70.4358 70.8244 70.388 70.8274C70.3403 70.8305 70.2942 70.8459 70.2543 70.8722C70.2143 70.8985 70.182 70.9348 70.1604 70.9774C70.1388 71.0201 70.1287 71.0676 70.1311 71.1154Z" fill="#D14947"/>
    </g>
    <defs>
        <clipPath id="clip0_1_84313">
            <rect width="117.165" height="112" fill="white" transform="translate(3.7876)"/>
        </clipPath>
    </defs>
</svg>
