<svg width="125" height="112" viewBox="0 0 125 112" fill="none" xmlns="http://www.w3.org/2000/svg">
    <g clip-path="url(#clip0_1_84388)">
        <path d="M97.5312 48.8993C97.5312 49.5218 97.5312 50.1419 97.5076 50.7621C97.117 65.8846 94.0612 81.4545 85.4715 94.1698C82.57 98.4736 79.0367 102.316 74.9906 105.567C71.613 108.263 65.2293 113.567 60.5924 111.546C52.4311 107.995 45.4438 101.974 40.2673 94.7403C31.3627 82.2735 28.0679 66.6799 27.7223 51.5882C27.6608 48.8212 27.7223 46.0589 27.8289 43.3038C27.8549 42.6789 27.6513 41.3581 28.004 40.8279C28.3188 40.3546 29.5189 40.0516 30.0254 39.8102L39.7016 35.1709C46.3882 31.966 53.0134 28.3398 59.8657 25.5113C60.7746 25.135 61.5983 24.5906 62.5262 24.2568C62.6642 24.1995 62.8135 24.1742 62.9627 24.1828C63.1119 24.1914 63.2572 24.2337 63.3878 24.3065C74.1219 29.6417 84.9271 34.8537 95.6921 40.1179C96.1847 40.3172 96.6299 40.618 96.9986 41.0007C97.8626 42.0446 97.5715 43.763 97.5454 45.0056C97.517 46.2956 97.5312 47.6022 97.5312 48.8993ZM93.9689 50.8094C94.0471 48.575 93.9689 46.343 93.8837 44.1109C93.8964 43.9247 93.8493 43.7393 93.7493 43.5818C93.6492 43.4243 93.5014 43.3028 93.3275 43.2352C91.9073 42.5724 90.5084 41.8694 89.1001 41.1806L78.6665 36.0727C73.6012 33.5937 68.5383 31.1123 63.4777 28.6286C63.2931 28.5245 63.0848 28.4698 62.8729 28.4698C62.661 28.4698 62.4527 28.5245 62.2682 28.6286C59.8397 29.8121 57.397 30.9672 54.9614 32.1341L41.5644 38.5604L36.6884 40.8895C34.9984 41.699 33.3131 42.5132 31.6184 43.3156C31.5081 43.3526 31.4137 43.4258 31.3505 43.5234C31.2873 43.621 31.259 43.7372 31.2704 43.8529C31.2846 44.3263 31.2113 44.821 31.1923 45.3062C31.1284 46.8164 31.1047 48.3312 31.0787 49.8437C31.0621 50.8331 31.1024 51.8225 31.126 52.8143C31.1639 54.5421 31.2207 56.2653 31.3462 57.9908C31.4598 59.5696 31.6136 61.1412 31.7935 62.7129C32.0208 64.6806 32.3261 66.6342 32.7095 68.5735C33.414 72.214 34.4081 75.7924 35.6824 79.2745C37.0913 83.1177 38.9168 86.795 41.1265 90.2407C42.5286 92.423 44.1071 94.4868 45.8462 96.4114C47.3386 98.0743 48.95 99.6264 50.6677 101.055C52.7335 102.77 54.9601 104.282 57.3165 105.569C58.96 106.47 60.6767 107.23 62.4481 107.841C62.7168 107.948 63.0146 107.955 63.2883 107.863C64.3259 107.501 65.3442 107.086 66.3394 106.62C69.8527 104.934 73.1013 102.744 75.9824 100.12C78.0301 98.2733 79.9061 96.2444 81.5873 94.0586C83.8287 91.1299 85.755 87.9731 87.3343 84.6404C88.8188 81.4967 90.0389 78.2348 90.9818 74.8886C91.7313 72.2412 92.3342 69.5546 92.7878 66.8409C93.0103 65.5106 93.1981 64.1765 93.3512 62.8383C93.479 61.7306 93.6115 60.6252 93.6896 59.5246C93.782 58.1967 93.9263 56.8712 93.9595 55.541C94.0068 53.9504 93.9689 52.3835 93.9689 50.8142V50.8094Z" fill="#C1A575"/>
        <path d="M74.0697 1.05124C74.117 1.48439 74.1762 1.92228 74.2164 2.36253C74.3569 3.95931 74.3956 5.56341 74.3324 7.1651C74.3103 8.00989 74.1693 8.84735 73.9135 9.65278C73.8535 9.88006 73.7435 10.0911 73.5916 10.2704C73.4397 10.4498 73.2496 10.593 73.0353 10.6895C72.9581 10.7139 72.8919 10.7648 72.8486 10.8333C72.8053 10.9017 72.7876 10.9832 72.7986 11.0635C72.7986 12.0103 72.7986 12.9381 72.7986 13.8754C72.7986 14.1121 72.9028 14.1903 73.1253 14.1879C73.7738 14.1879 74.4224 14.1879 75.0709 14.1879C75.3076 14.1879 75.3857 14.0766 75.381 13.8565C75.381 13.4967 75.3691 13.1464 75.381 12.7748C75.4116 11.8215 75.5152 10.8719 75.691 9.93445C75.7458 9.47941 75.853 9.03223 76.0106 8.60185C76.5988 7.26159 77.2602 5.95464 77.9917 4.68689C78.4056 3.98917 78.9337 3.36589 79.5539 2.84303C80.0013 2.45721 80.8439 2.62053 81.1729 3.07972C81.3339 3.30222 81.2203 3.44424 81.0712 3.59335C80.53 4.1466 80.0535 4.75964 79.651 5.42065C79.0429 6.41805 78.552 7.48234 78.1882 8.59238C77.6543 10.1757 77.2886 11.8108 77.097 13.4707C76.9649 14.5775 76.8978 15.6911 76.8958 16.8057C76.8958 18.4973 76.8958 20.1913 76.8958 21.8876C76.8958 22.0131 76.8958 22.1385 76.8958 22.264C76.8958 22.4391 76.8201 22.5338 76.6402 22.5338H76.2615H48.8591C48.7503 22.5338 48.6414 22.5338 48.5349 22.5338C48.3289 22.5338 48.2414 22.4368 48.2461 22.2379C48.2461 22.1125 48.2461 21.9847 48.2461 21.8592C48.2461 20.0225 48.2461 18.1833 48.2461 16.3466C48.2139 14.2595 47.9399 12.1832 47.4295 10.1593C47.3926 10.0401 47.3451 9.92444 47.2875 9.81374C47.2875 9.79953 47.252 9.79007 47.2496 9.77586C47.1238 9.16124 46.9317 8.56206 46.6768 7.98881C46.6224 7.84916 46.5963 7.6811 46.5348 7.53435C45.9742 6.12644 45.1733 4.82659 44.1678 3.69277C44.0424 3.55548 43.782 3.42293 43.9169 3.21937C44.0802 2.96138 44.2649 2.66314 44.627 2.62053C44.9889 2.60141 45.3454 2.71409 45.6306 2.93771C46.3218 3.38269 46.7454 4.05965 47.1573 4.73186C48.0863 6.25184 48.8157 7.88505 49.3278 9.59124C49.5265 10.2849 49.6393 11.0004 49.6639 11.7215C49.7322 12.4382 49.7638 13.1579 49.7586 13.8778C49.7586 14.1145 49.8438 14.2021 50.0758 14.1997C50.7243 14.1997 51.3729 14.1997 52.0214 14.1997C52.2581 14.1997 52.3409 14.1074 52.3409 13.8778C52.3409 12.9405 52.3409 12.004 52.3409 11.0682C52.353 10.9893 52.3355 10.9087 52.2918 10.8419C52.2481 10.7751 52.1814 10.7267 52.1042 10.7061C51.6451 10.5617 51.4249 10.1901 51.264 9.78297C51.0206 9.08605 50.8748 8.3588 50.8308 7.62193C50.7441 6.8163 50.7188 6.00525 50.7551 5.19579C50.8237 3.81348 50.8734 2.43118 51.0746 1.07017C51.2545 0.982594 51.3232 1.11988 51.4013 1.20272C52.909 2.79569 54.4262 4.38392 55.6878 6.18755C56.1387 6.78887 56.4778 7.46634 56.6891 8.18763C56.9139 9.04921 56.9731 9.88474 56.5044 10.6871C56.4125 10.8433 56.3658 11.022 56.3695 11.2031C56.3695 12.0671 56.3695 12.9334 56.3695 13.8068C56.3695 14.1855 56.3837 14.195 56.7743 14.1974C57.8915 14.1974 59.0087 14.1974 60.1259 14.1974C60.5117 14.1974 60.5235 14.1974 60.5259 13.8044C60.5259 12.9736 60.5259 12.1476 60.5259 11.3168C60.5357 11.2303 60.5181 11.1429 60.4756 11.0669C60.4332 10.9909 60.368 10.9301 60.2892 10.8931C59.9926 10.6922 59.7188 10.4597 59.4726 10.1996C58.7365 9.48946 58.6323 8.55688 58.7625 7.61246C58.9803 6.08103 59.5933 4.67506 60.3271 3.32825C60.8763 2.3489 61.4792 1.40067 62.1331 0.487898C62.1757 0.428724 62.2112 0.367183 62.2538 0.310376C62.5615 -0.0943749 62.5733 -0.103843 62.8574 0.289073C64.1276 1.98347 65.1582 3.84485 65.9202 5.82067C66.2098 6.56019 66.37 7.34406 66.3936 8.13793C66.4141 8.68022 66.2818 9.21735 66.0119 9.68814C65.742 10.1589 65.3452 10.5444 64.8669 10.8008C64.7862 10.8333 64.7177 10.8902 64.671 10.9637C64.6243 11.0371 64.6017 11.1233 64.6066 11.2102C64.6066 12.0742 64.6184 12.9381 64.6066 13.8139C64.6066 14.0885 64.6965 14.1974 64.9805 14.1926C66.0977 14.1832 67.2149 14.1832 68.3322 14.1926C68.5949 14.1926 68.7345 14.124 68.7227 13.8281C68.6896 12.9665 68.7606 12.105 68.6848 11.241C68.6842 11.0665 68.6402 10.8949 68.557 10.7416C68.0836 9.98179 68.1452 9.10838 68.3322 8.34622C68.573 7.51963 68.9753 6.74894 69.5156 6.07867C70.2589 5.08691 71.0352 4.12119 71.8684 3.20044C72.472 2.53296 73.0779 1.86784 73.7288 1.24533C73.8188 1.16012 73.8803 1.02757 74.0697 1.05124Z" fill="#C1A575"/>
        <path d="M95.1738 15.4114C95.7584 15.9345 95.7561 16.5191 95.1738 17.0091C94.4281 17.6339 93.7733 18.3597 93.2281 19.1654C91.808 21.3265 91.4553 23.6342 92.3595 26.0935C92.3831 26.1598 92.3997 26.2355 92.5346 26.2308C92.6151 25.7148 92.7074 25.1941 92.7713 24.6686C92.8564 23.8143 93.1659 22.9977 93.6684 22.3016C93.9229 21.9563 94.2451 21.6664 94.6152 21.4495C94.9915 21.2294 95.1359 21.3051 95.1407 21.7407C95.1622 22.6225 95.3689 23.4899 95.7473 24.2867C96.1258 25.0834 96.6674 25.7918 97.3372 26.3657C97.6047 26.6024 97.6378 26.6024 97.7585 26.2426C97.7976 26.1328 97.8647 26.0351 97.9531 25.9591C98.0415 25.8831 98.1482 25.8316 98.2627 25.8095C98.5627 25.7432 98.8721 25.7312 99.1763 25.774C99.2129 25.7715 99.2494 25.7783 99.2827 25.7937C99.3159 25.8091 99.3447 25.8327 99.3664 25.8622C99.3881 25.8917 99.402 25.9262 99.4069 25.9625C99.4117 25.9988 99.4073 26.0357 99.3941 26.0698C99.0248 27.8167 99.7917 29.2274 100.757 30.5671C102.275 32.6571 104.225 34.3021 106.282 35.8288C106.339 35.8714 106.412 35.8927 106.429 36.0158C105.901 35.9899 105.376 35.9154 104.862 35.7933C103.827 35.604 102.788 35.4075 101.771 35.1448C100.527 34.8258 99.3164 34.3915 98.1538 33.8477C97.9289 33.7412 97.6804 33.6702 97.4721 33.5471C96.6673 33.0903 95.8294 32.6831 95.072 32.16C94.1189 31.5274 93.2557 30.7686 92.5062 29.9043C91.9797 29.3198 91.3183 28.8728 90.5795 28.6025C89.8024 28.2565 89.001 27.9677 88.1818 27.7386C86.8042 27.3788 85.4148 27.2368 84.1059 28.0321C84.0293 28.0733 83.9503 28.1096 83.8692 28.1409C83.765 27.7244 84.0041 27.4498 84.2053 27.1823C84.4065 26.9149 84.6455 26.6758 84.8609 26.432C84.8017 26.3491 84.7497 26.3468 84.7023 26.3681C83.9283 26.7018 83.1188 26.6663 82.307 26.6048C82.2 26.5953 82.0966 26.5621 82.004 26.5077C81.7673 26.3705 81.7318 26.2142 81.9283 26.0059C82.3164 25.6114 82.7511 25.2656 83.223 24.9763C83.5458 24.7575 83.8939 24.5787 84.2597 24.4437C86.0326 23.8425 87.6539 24.1952 89.1712 25.213C89.2706 25.2793 89.344 25.4024 89.5073 25.3645C89.5258 25.2587 89.5232 25.1502 89.4997 25.0454C89.4761 24.9406 89.432 24.8415 89.37 24.7538C89.1632 24.364 89.0414 23.9349 89.0126 23.4946C88.925 22.6354 88.7759 21.7856 88.7214 20.9217C88.6703 20.2218 88.7053 19.5183 88.8256 18.8269C88.9416 18.1689 88.9558 17.4754 89.299 16.86C89.6473 16.26 90.066 15.7037 90.5464 15.2031C91.5216 14.1403 92.7879 13.7829 94.1394 13.648C95.2372 13.5119 96.3516 13.6227 97.4011 13.9723C97.8675 14.1235 98.2661 14.4334 98.5278 14.8481C98.6248 15.0019 98.7006 15.1629 98.5585 15.3428C98.4988 15.411 98.4196 15.4594 98.3316 15.4814C98.2437 15.5034 98.151 15.498 98.0662 15.4658C97.8102 15.3972 97.5594 15.3102 97.3159 15.2055C96.5703 14.9191 95.891 15.0256 95.1738 15.4114ZM104.663 35.1329C104.65 35.0762 104.624 35.0236 104.585 34.9801C104.547 34.9366 104.498 34.9036 104.443 34.8844C103.387 34.2998 102.327 33.727 101.273 33.1352C100.852 32.9359 100.449 32.6982 100.071 32.4251C99.224 31.7248 98.4261 30.9672 97.6828 30.1576C96.6677 29.1062 95.8641 27.8695 95.3158 26.5148C95.2753 26.3717 95.1928 26.2439 95.0791 26.148C95.098 26.3326 95.1004 26.458 95.1217 26.5811C95.3465 27.7715 95.862 28.8879 96.6224 29.831C96.804 30.0009 96.9141 30.2337 96.9301 30.4819C95.8591 29.8107 94.9046 28.9697 94.1039 27.9918C94.1246 28.2835 94.2308 28.5626 94.4093 28.7942C95.1212 29.8595 96.0288 30.7799 97.0839 31.5068C98.6194 32.6138 100.282 33.5332 102.036 34.2453C102.882 34.6223 103.761 34.9195 104.663 35.1329ZM90.57 24.6189C90.5962 24.5725 90.612 24.521 90.6165 24.4679C90.621 24.4148 90.6141 24.3614 90.5961 24.3112C90.3343 23.1503 90.3465 21.9445 90.6316 20.7892C90.998 19.3566 91.6501 18.0129 92.5488 16.8387C92.8836 16.4497 93.1904 16.0376 93.4672 15.6055C91.0363 16.9712 88.7617 21.3217 90.57 24.6189Z" fill="#C1A575"/>
        <path d="M28.1862 22.5265C28.9103 22.7785 29.5129 23.294 29.8738 23.9704C30.3588 24.8356 30.6579 25.7925 30.752 26.78C30.7444 26.9603 30.7879 27.1392 30.8774 27.296C31.0384 27.2604 31.0337 27.1137 31.0621 27.0048C31.3887 25.7811 31.5662 24.5432 31.2609 23.2958C31.1331 22.7656 30.8609 22.2733 30.6952 21.7525C30.5176 21.3087 30.2786 20.8919 29.9851 20.5146C29.4517 19.6593 28.7667 18.9085 27.9637 18.2991C27.8418 18.2117 27.7428 18.0961 27.6752 17.9621C27.6076 17.8282 27.5734 17.6799 27.5755 17.5299C27.5448 17.1724 27.6773 16.95 28.1057 16.8056C27.3956 16.5689 26.8157 16.3322 26.1695 16.5263C25.8262 16.6197 25.4913 16.7416 25.1683 16.8908C24.9174 17.0139 24.7304 17.0352 24.5647 16.7914C24.3991 16.5476 24.5789 16.3866 24.6973 16.2304C25.1222 15.6653 25.7537 15.2917 26.4536 15.1913C27.4627 14.9914 28.4985 14.965 29.5164 15.1132C31.7059 15.4801 33.2207 16.6636 33.9616 18.7772C34.3709 20.0481 34.5135 21.3897 34.3805 22.7182C34.3209 23.8509 34.1181 24.9715 33.777 26.0533C33.7416 26.1389 33.7416 26.2351 33.777 26.3208C33.9 26.4036 33.9805 26.2971 34.0468 26.2308C34.8255 25.4521 35.8244 25.2012 36.8682 25.0947C38.2434 24.9527 39.4458 25.4403 40.537 26.2332C40.7817 26.3845 41.0054 26.5676 41.2021 26.7776C41.3844 27.0001 41.382 27.0403 41.1406 27.1776C40.9549 27.2893 40.7459 27.3565 40.5299 27.3741C39.8648 27.419 39.1973 27.464 38.5582 27.2013C38.5198 27.1846 38.4776 27.1785 38.436 27.1835C38.3945 27.1885 38.3549 27.2044 38.3215 27.2297C38.7868 27.6701 39.1426 28.2131 39.3606 28.8155C39.2234 28.967 39.1239 28.8581 39.0151 28.8013C37.6493 28.051 36.2812 28.2427 34.88 28.7256C34.1699 28.9623 33.4716 29.225 32.7757 29.4972C32.1503 29.7199 31.5977 30.1095 31.178 30.6239C30.3922 31.5619 29.4829 32.3892 28.475 33.0832C26.9386 34.164 25.2676 35.0393 23.5043 35.6868C22.5576 36.0514 21.5847 36.3449 20.6119 36.6147C19.6391 36.8845 18.6166 37.0171 17.613 37.2112C17.5656 37.0029 17.7313 36.9745 17.8118 36.9153C18.3444 36.4585 18.9006 36.0324 19.4166 35.559C19.8379 35.1708 20.2143 34.733 20.6143 34.3187C21.1966 33.7152 21.8853 33.1992 22.3516 32.4985C23.0262 31.4926 23.6866 30.4748 24.0416 29.2913C24.259 28.6659 24.2902 27.9908 24.1316 27.348C24.089 27.1942 24.1103 27.0735 24.3067 27.0261C24.5726 26.9512 24.8553 26.9621 25.1146 27.0573C25.3738 27.1525 25.5964 27.3271 25.7506 27.5563C25.8737 27.7362 25.966 27.6936 26.0962 27.5918C26.5909 27.2036 26.8773 26.6592 27.1944 26.1432C27.5971 25.429 27.8975 24.6617 28.0868 23.8639C28.2075 23.4662 28.1578 23.0165 28.1862 22.5265ZM26.6666 31.521L26.5932 31.45C26.9175 30.9103 27.3223 30.4251 27.6181 29.8665C28.0422 29.087 28.2948 28.2259 28.359 27.3409C28.1862 27.4214 28.1862 27.5611 28.1412 27.6723C27.8893 28.3334 27.5721 28.9677 27.1944 29.5659C26.4372 30.7295 25.5388 31.7948 24.5198 32.7376C24.142 33.1482 23.7179 33.5136 23.2558 33.8264L19.4687 36.0301C19.3551 36.0963 19.232 36.146 19.1941 36.2975C19.2438 36.3117 19.2627 36.3259 19.2769 36.3212C20.9934 35.7792 22.6427 35.0439 24.1931 34.1294C25.636 33.3316 26.9542 32.3269 28.1057 31.147C28.6037 30.6253 29.0166 30.0287 29.3294 29.3789C29.3744 29.2818 29.4596 29.1801 29.3673 29.0238C28.9191 29.6264 28.4029 30.1753 27.8288 30.6594C27.4924 31.0103 27.0996 31.3024 26.6666 31.5233V31.521ZM32.726 25.5539C33.5355 24.0816 33.4361 21.9727 32.5793 20.1927C31.8692 18.7441 30.3827 17.0943 29.6419 16.9713C31.8787 19.4234 33.3201 22.1265 32.726 25.5562V25.5539Z" fill="#C1A575"/>
        <path d="M100.98 60.9704C101.233 60.4047 101.453 59.91 101.676 59.4271C102.637 57.3504 103.849 55.3996 105.285 53.6186C105.987 52.796 106.763 52.0394 107.603 51.3581C108.631 50.4708 109.844 49.8239 111.153 49.4646C112.654 49.0614 114.231 49.0321 115.745 49.3794C117.531 49.8015 119.204 50.6094 120.645 51.7463C120.729 51.8105 120.808 51.8809 120.881 51.957C120.903 51.9733 120.921 51.9945 120.934 52.019C120.946 52.0434 120.952 52.0704 120.952 52.0978C120.952 52.1252 120.946 52.1522 120.934 52.1767C120.921 52.2011 120.903 52.2224 120.881 52.2387C120.716 52.4025 120.532 52.5455 120.332 52.6647C119.149 53.2896 117.897 53.3204 116.619 53.2044C116.105 53.1594 115.596 53.0434 115.082 52.9677C115.023 53.1618 115.196 53.1807 115.281 53.2352C116.273 53.8624 116.884 54.8139 117.464 55.7915C117.527 55.898 117.61 56.0282 117.516 56.1394C117.421 56.2507 117.232 56.2033 117.123 56.1394C116.711 55.8743 116.235 55.7702 115.807 55.5666C115.531 55.4423 115.235 55.3678 114.933 55.3465C114.071 55.2574 113.201 55.3102 112.356 55.5027C110.102 56.044 107.931 56.883 105.899 57.9975C104.363 58.8189 102.878 59.7327 101.453 60.7337C101.32 60.8538 101.156 60.9356 100.98 60.9704Z" fill="#C1A575"/>
        <path d="M23.4452 61.4133C22.9363 61.2925 22.5883 60.9399 22.1859 60.689C20.8888 59.8644 19.5453 59.1152 18.1621 58.4451C16.6098 57.6975 14.9928 57.0922 13.3311 56.6367C12.3654 56.3741 11.3685 56.2435 10.3677 56.2485C9.39668 56.2814 8.45241 56.5749 7.63385 57.0983C7.54153 57.1527 7.45396 57.2119 7.35928 57.264C7.31365 57.2839 7.26605 57.299 7.21726 57.3089C7.18601 57.2882 7.16284 57.2574 7.15164 57.2216C7.14043 57.1859 7.14187 57.1473 7.15572 57.1125C7.36473 56.5007 7.69477 55.9372 8.12617 55.4556C8.59957 54.9633 9.02562 54.4449 9.686 54.0544C9.45083 53.985 9.19846 54.0035 8.97591 54.1064C7.74581 54.3867 6.47122 54.4108 5.23138 54.1775C4.77608 54.0779 4.34746 53.8818 3.97452 53.6023C3.73782 53.4342 3.73782 53.3159 3.97452 53.0839C4.75143 52.3299 5.65215 51.715 6.63735 51.2661C7.94525 50.628 9.37061 50.2662 10.8245 50.2033C12.0317 50.1486 13.2362 50.3587 14.3537 50.8187C16.2141 51.5714 17.7266 52.7928 19.0544 54.265C20.3342 55.723 21.4384 57.3262 22.3445 59.0416C22.6901 59.6728 23.0207 60.3095 23.3363 60.9517C23.3868 61.0162 23.4226 61.0908 23.4414 61.1705C23.4602 61.2502 23.4615 61.333 23.4452 61.4133Z" fill="#C1A575"/>
        <path d="M97.7086 71.345C97.6628 71.1341 97.575 70.9345 97.4506 70.758C97.1122 70.0645 96.9062 69.3378 97.1264 68.5709C97.1489 68.5118 97.1766 68.4548 97.2092 68.4005C98.4112 69.041 99.3902 70.0315 100.016 71.2409C100.596 70.4858 100.963 69.6408 101.728 69.0917C102.466 68.5542 103.337 68.227 104.246 68.1449C105.17 68.0367 106.106 68.1229 106.994 68.3982C106.429 69.487 105.453 69.8444 104.291 70.1C105.001 70.4006 105.633 70.5592 106.055 71.061C106.055 71.132 106.026 71.1557 105.984 71.1533C104.656 71.0918 103.595 71.7001 102.67 72.5474C101.367 73.7144 100.266 75.0893 99.4129 76.6163C98.8124 77.6374 98.102 78.5899 97.2944 79.4566C97.2234 79.5371 97.1619 79.6247 97.098 79.7099C97.098 79.7099 97.098 79.743 97.1145 79.8069C97.6063 79.8038 98.0976 79.837 98.5844 79.9063C99.5198 80.0892 100.411 80.4526 101.207 80.9762C101.498 81.1608 101.472 81.246 101.176 81.4662C100.827 81.7203 100.412 81.8697 99.9809 81.8969C99.429 81.9266 98.876 81.9266 98.3241 81.8969C98.8424 82.4271 99.4602 82.8011 99.6401 83.5183C99.5494 83.5343 99.4565 83.5321 99.3666 83.5118C99.2768 83.4914 99.192 83.4534 99.117 83.4C98.812 83.2493 98.4783 83.1654 98.1383 83.154C97.7983 83.1425 97.4598 83.2038 97.1453 83.3337C96.9512 83.4 96.7619 83.3763 96.5725 83.4355C95.6725 83.734 94.8062 84.1258 93.9878 84.6048C93.0343 85.1501 92.1186 85.759 91.2468 86.4273C91.164 86.4912 91.0693 86.5717 90.9628 86.4818C90.8563 86.3918 90.951 86.3232 90.9628 86.2451C91.0836 85.7978 91.2703 85.371 91.5167 84.9787C91.7994 84.5624 92.0217 84.1082 92.1771 83.6296C92.1987 83.5434 92.2382 83.4628 92.293 83.3929C92.7664 82.8603 93.0481 82.1905 93.6233 81.736C93.9854 81.452 94.2363 81.0377 94.6221 80.7726C95.1282 80.4039 95.7015 80.1378 96.3098 79.9892C96.425 79.9804 96.5337 79.9324 96.6177 79.8531C96.7017 79.7739 96.7559 79.6681 96.7713 79.5537C97.1122 77.8755 97.4033 76.1926 97.3205 74.4694C97.2826 73.6788 97.008 72.9498 96.7406 72.2184C96.5751 71.7375 96.2823 71.3104 95.8932 70.9829C96.6033 70.8858 97.1193 71.1793 97.6471 71.4113C97.6731 71.4302 97.7134 71.4705 97.7228 71.4634C97.7939 71.416 97.7442 71.3853 97.7086 71.345Z" fill="#C1A575"/>
        <path d="M102.49 53.266C103.141 52.7521 103.764 52.2046 104.358 51.6257C105.54 50.5366 106.531 49.2564 107.288 47.8386C107.608 47.2312 107.817 46.5715 107.906 45.8906C107.978 45.2732 107.901 44.6474 107.679 44.0666C107.457 43.4858 107.098 42.9674 106.632 42.5555C106.237 42.1872 105.797 41.8692 105.323 41.6087C103.319 40.501 101.425 41.1259 100.242 42.9816C100.112 43.1969 99.9931 43.4189 99.8865 43.6467C99.7871 43.8432 99.6616 43.8597 99.4983 43.7296C99.1257 43.4409 98.8633 43.0332 98.7551 42.5745C98.6373 41.9717 98.6526 41.3505 98.8 40.7543C98.8687 40.3827 98.8687 40.3756 98.5065 40.2809C97.9598 40.1223 97.413 40.0442 96.8497 40.3637C96.7932 40.088 96.8 39.8031 96.8697 39.5304C96.9394 39.2577 97.0702 39.0045 97.2521 38.7897C97.4629 38.5214 97.7009 38.2755 97.9621 38.0559C98.1207 37.9376 98.1018 37.8192 97.9621 37.7056C97.6589 37.3721 97.2909 37.1039 96.8804 36.9174C96.7368 36.8832 96.6038 36.8141 96.4931 36.7163C96.3825 36.6184 96.2976 36.4949 96.2461 36.3565C96.7984 36.026 97.4134 35.814 98.0521 35.7339C100.177 35.4 102.354 35.6783 104.327 36.5363C105.361 36.9671 106.22 37.708 106.987 38.5246C108.12 39.6631 108.915 41.0938 109.283 42.6573C109.511 43.6974 109.529 44.7725 109.335 45.8196C109.046 47.579 108.345 49.245 107.288 50.6813C106.386 51.8648 105.274 52.7785 103.82 53.2163C103.39 53.355 102.93 53.3722 102.49 53.266ZM100.9 37.8003C101.306 37.7577 101.716 37.7577 102.123 37.8003C103.065 37.9703 103.948 38.3776 104.689 38.9838C105.704 39.7629 106.636 40.6432 107.473 41.6111C107.555 41.7058 107.631 41.8336 107.837 41.8147C107.778 41.6869 107.75 41.604 107.705 41.5283C107.13 40.5264 106.391 39.6286 105.517 38.8725C104.918 38.3238 104.214 37.9005 103.449 37.6275C102.582 37.3411 101.728 37.3245 100.9 37.8003Z" fill="#C1A575"/>
        <path d="M99.768 69.5367C99.4781 69.1719 99.3122 68.7241 99.2946 68.2585C99.0177 66.0927 99.723 64.211 101.006 62.521C102.144 61.0203 103.529 59.8013 105.285 59.0652C106.471 58.5884 107.755 58.4119 109.025 58.5516C110.257 58.6868 111.457 59.0285 112.576 59.5623C113.633 60.0693 114.562 60.8089 115.293 61.7257C116.303 62.8764 117.061 64.2251 117.52 65.6856C117.678 66.2789 117.769 66.8877 117.792 67.5011C117.722 67.5231 117.648 67.5275 117.576 67.5139C117.503 67.5002 117.436 67.469 117.378 67.423C116.881 67.0632 116.282 66.907 115.771 66.5851C115.575 66.462 115.534 66.6087 115.504 66.772C115.387 67.3748 115.081 67.9246 114.63 68.3413C114.454 68.5125 114.254 68.6576 114.036 68.7721C113.911 68.4526 113.783 68.152 113.679 67.8419C113.628 67.69 113.548 67.5499 113.442 67.4301C113.035 66.9567 113.037 66.9567 112.552 67.3543C111.842 67.9319 111.039 68.3011 110.083 68.1236C109.994 68.1163 109.905 68.1029 109.818 68.0833C109.458 67.9626 109.42 67.8017 109.655 67.494C109.962 67.1198 110.196 66.6909 110.344 66.23C110.429 65.9223 110.647 65.6738 110.692 65.3448C110.832 64.6147 110.684 63.8585 110.277 63.2358C110.01 62.8334 109.804 62.3813 109.371 62.1328C108.707 61.7421 108.019 61.3942 107.312 61.0913C106.949 60.9469 106.563 60.8715 106.173 60.8688C104.788 60.8286 103.735 61.489 102.859 62.476C102.177 63.2869 101.627 64.1998 101.228 65.1814C100.655 66.535 100.226 67.9447 99.9455 69.3875C99.9219 69.4396 99.91 69.4917 99.768 69.5367ZM114.396 64.2134C114.432 63.9423 114.423 63.6673 114.37 63.3991C114.133 62.3695 113.482 61.6499 112.63 61.0937C111.11 60.0996 109.402 59.7327 107.617 59.6356C107.546 59.6356 107.472 59.6357 107.446 59.7753C107.712 59.8534 107.981 59.9363 108.254 60.012C109.419 60.315 110.554 60.7263 111.643 61.2405C112.642 61.7352 113.518 62.3719 114.06 63.392C114.19 63.6287 114.206 63.908 114.403 64.2134H114.396Z" fill="#C1A575"/>
        <path d="M7.3829 68.2633C7.36866 68.213 7.35915 68.1615 7.35449 68.1094C7.35841 66.677 7.75284 65.2727 8.49537 64.0477C8.93068 63.3535 9.42567 62.6985 9.97472 62.0903C11.0313 60.8836 12.4269 60.0233 13.9796 59.6215C16.3466 58.973 18.6331 59.0889 20.7586 60.4594C22.7161 61.721 24.2357 63.3518 25.0428 65.5721C25.4521 66.6557 25.5505 67.8321 25.3268 68.9687C25.2358 69.2993 25.0911 69.6128 24.8984 69.8965C24.6049 68.7485 24.2025 67.7307 23.8357 66.7011C23.4583 65.6574 22.9475 64.6669 22.3161 63.7542C22.1541 63.4549 21.9647 63.1712 21.7504 62.9069C21.1308 62.3135 20.381 61.8734 19.5609 61.6216C19.1569 61.4875 18.7317 61.4289 18.3064 61.4488C18.0072 61.4825 17.7149 61.5623 17.4401 61.6855C16.5639 61.9543 15.7641 62.4272 15.1063 63.0654C14.2092 63.9933 13.9962 65.0916 14.3063 66.3082C14.454 66.9404 14.7539 67.527 15.1797 68.0171C15.459 68.3367 15.4164 68.4905 14.9737 68.5994C14.5574 68.7154 14.1198 68.733 13.6954 68.6509C13.2711 68.5687 12.8717 68.389 12.5287 68.126C11.8943 67.6645 11.8423 67.681 11.4138 68.3296C11.2527 68.5681 11.1572 68.8448 11.1369 69.132C11.1109 69.4326 10.912 69.5438 10.7464 69.3355C10.4742 69.0018 10.1073 68.7627 9.85874 68.4077C9.67342 68.1887 9.56456 67.9153 9.54867 67.629C9.54867 67.2384 9.48239 67.2242 9.13682 67.3923C8.61845 67.629 8.07168 67.8159 7.6409 68.2136C7.6058 68.2434 7.56362 68.2636 7.51842 68.2723C7.47322 68.281 7.42654 68.2779 7.3829 68.2633ZM10.5333 64.8052C10.5854 64.7555 10.6233 64.7365 10.6327 64.7081C11.0186 63.43 11.9346 62.6347 13.0636 62.0287C14.1518 61.4685 15.2907 61.0128 16.4649 60.6677C16.7098 60.6178 16.9449 60.5283 17.1608 60.4026C17.095 60.3833 17.0277 60.369 16.9596 60.36C16.8333 60.3569 16.7068 60.3608 16.5809 60.3718C15.3453 60.4917 14.142 60.8367 13.0305 61.3896C12.2606 61.7503 11.5945 62.2999 11.0943 62.9873C10.706 63.5118 10.5081 64.1531 10.5333 64.8052Z" fill="#C1A575"/>
        <path d="M21.7054 53.9809C20.768 54.071 19.8274 53.8453 19.0331 53.3395C18.465 53.0081 18.046 52.5158 17.5868 52.0684C16.5675 51.1126 15.8131 49.9089 15.3974 48.5748C14.9477 47.0765 14.7015 45.5521 14.924 43.9592C15.0858 42.7739 15.5281 41.6444 16.214 40.6644C16.4507 40.3521 16.711 40.0585 16.9927 39.7862C17.5337 39.144 18.1441 38.5637 18.8129 38.056C19.152 37.8241 19.5165 37.6319 19.8994 37.4832C21.297 36.9148 22.7885 36.6121 24.2972 36.5908C25.412 36.5908 26.5198 36.7234 27.5636 37.3009C27.289 37.5802 26.9198 37.727 26.6168 37.9637C26.3138 38.2004 26.0629 38.4844 25.7813 38.7211C25.8392 38.8771 25.9464 39.01 26.0866 39.0998C26.5863 39.548 26.92 40.1519 27.0334 40.8135C27.0642 40.9389 27.0902 41.0738 26.9624 41.1567C26.8346 41.2395 26.7801 41.0999 26.6878 41.0691C26.1671 40.8869 25.6629 41.0194 25.1706 41.2111C25.0002 41.2774 25.0759 41.4171 25.1019 41.5354C25.2299 42.0424 25.277 42.5664 25.2416 43.0881C25.2321 43.3588 25.1669 43.6247 25.05 43.8691C24.9331 44.1134 24.7671 44.331 24.5623 44.5083C24.3777 44.6645 24.2546 44.6456 24.1268 44.461C23.9776 44.2385 23.8214 44.0207 23.677 43.7982C23.1566 43.017 22.3928 42.4296 21.5042 42.1271C21.0199 41.9627 20.4949 41.9627 20.0106 42.1271C19.0041 42.4485 18.0948 43.0183 17.3667 43.784C16.9343 44.2208 16.6205 44.7606 16.4548 45.3525C16.2892 45.9443 16.2771 46.5686 16.4199 47.1664C16.6874 48.5037 17.4093 49.6186 18.278 50.6435C19.237 51.766 20.3121 52.7839 21.4852 53.6803C21.5775 53.7418 21.6959 53.7821 21.7054 53.9809ZM22.9527 38.8134C22.9078 38.6737 22.7942 38.6572 22.6971 38.6264C21.6225 38.2903 20.6379 38.5483 19.71 39.0998C18.2898 39.9543 17.2744 41.2064 16.4696 42.636C16.4152 42.7331 16.2992 42.8349 16.4081 42.9722C16.5406 42.9319 16.6069 42.8159 16.685 42.7236C17.3889 41.8846 18.1556 41.1005 18.9786 40.378C19.7526 39.6986 20.5881 39.114 21.6249 38.8844C22.0648 38.824 22.5089 38.8002 22.9527 38.8134Z" fill="#C1A575"/>
        <path d="M34.0397 86.2711C33.3296 85.7977 32.6763 85.3243 31.9899 84.9077C30.8677 84.1859 29.6483 83.628 28.3685 83.2508C27.7568 83.0589 27.1125 82.9937 26.4749 83.0591C26.1293 83.1041 25.8595 83.3502 25.4382 83.381C25.5802 82.6212 26.321 82.375 26.6879 81.7833C25.5778 81.8567 24.4772 82.0437 23.5304 81.201C24.8062 80.1122 26.2784 79.7524 27.8714 79.7264C27.9542 79.5725 27.817 79.5063 27.7365 79.4211C27.1992 78.8483 26.6287 78.3015 26.1269 77.7003C25.8039 77.2707 25.5075 76.8217 25.2393 76.3558C24.5892 75.2861 23.8189 74.2942 22.9434 73.3995C22.1822 72.6951 21.3002 72.1339 20.3397 71.7426C19.9524 71.5617 19.5261 71.4804 19.0994 71.5059C19.0142 71.5059 18.9077 71.5296 18.8817 71.4112C18.8763 71.366 18.8855 71.3201 18.9081 71.2805C18.9307 71.2409 18.9654 71.2095 19.0071 71.1911C19.2586 70.9921 19.5419 70.8368 19.845 70.7319C20.0881 70.6955 20.3214 70.611 20.5314 70.4834C20.3059 70.3836 20.0664 70.319 19.8213 70.2917C19.4695 70.2299 19.1338 70.0977 18.8344 69.9028C18.5351 69.708 18.2782 69.4546 18.0793 69.1579C17.897 68.9023 17.9207 68.8455 18.2236 68.7603C19.561 68.3886 20.8936 68.3792 22.1812 68.9378C22.9621 69.2763 23.6327 69.8264 24.1174 70.526C24.3304 70.8313 24.5292 71.1461 24.7304 71.4444C24.9009 71.4207 24.9103 71.2905 24.9435 71.2077C25.3435 70.1781 26.1908 69.5295 26.9767 68.8407C27.372 68.4975 27.5329 68.604 27.5968 69.1224C27.6583 69.8444 27.4928 70.5677 27.1234 71.1911C27.0021 71.3448 26.9208 71.5261 26.8867 71.719C27.1804 71.5366 27.4883 71.3783 27.8075 71.2456C28.1252 71.0925 28.4838 71.046 28.83 71.113C28.5303 71.3685 28.2737 71.6706 28.0702 72.0077C27.6819 72.8029 27.4888 73.6793 27.5069 74.564C27.4666 76.2493 27.7791 77.892 28.1933 79.5205C28.2162 79.6257 28.2705 79.7215 28.3492 79.7951C28.4278 79.8686 28.527 79.9165 28.6336 79.9323C30.0277 80.2448 31.036 81.1276 31.8929 82.1904C32.7759 83.3248 33.488 84.5823 34.0066 85.9231C34.0307 85.9904 34.0466 86.0603 34.0539 86.1314C34.054 86.1783 34.0492 86.2251 34.0397 86.2711Z" fill="#C1A575"/>
        <path d="M104.975 26.0535C105.747 27.0003 105.607 28.0701 105.427 29.2205C106.019 28.7826 106.315 28.1056 107.084 28.018C106.971 28.3305 106.862 28.5885 106.784 28.8536C106.53 29.7341 106.677 30.6075 106.904 31.4572C107.327 32.9376 107.965 34.3476 108.798 35.642C109.061 36.0681 109.33 36.4894 109.603 36.9249C109.432 37.0291 109.3 36.9439 109.16 36.88C108.104 36.4294 107.113 35.8403 106.213 35.1284C105.652 34.655 105.179 34.0869 104.649 33.578C104.222 33.1478 103.878 32.6432 103.633 32.0892C103.325 31.3832 103.212 30.6075 103.307 29.843C103.394 28.7116 103.654 27.6251 104.35 26.6831C104.523 26.4487 104.753 26.2949 104.975 26.0535Z" fill="#C1A575"/>
        <path d="M14.3536 38.2125C14.9443 37.3062 15.4748 36.3621 15.9419 35.3864C16.3016 34.6763 16.517 33.8952 16.8153 33.1543C17.0222 32.5645 17.1318 31.9449 17.1396 31.3199C17.1628 30.7471 17.0091 30.181 16.6993 29.6986C16.6449 29.6062 16.562 29.5305 16.6212 29.3648C16.9585 29.4472 17.2711 29.6096 17.5325 29.8382C17.8023 30.0276 18.0366 30.2714 18.3396 30.4749C18.1929 29.8262 18.1442 29.1592 18.1952 28.4961C18.2097 28.2115 18.2908 27.9343 18.4319 27.6866C18.5763 27.4192 18.7373 27.4026 18.9266 27.6393C19.9349 28.8962 20.5835 30.3021 20.4391 31.9495C20.3269 33.0868 19.8436 34.1556 19.0639 34.9911C17.8408 36.3326 16.3616 37.4159 14.7134 38.177C14.6633 38.2171 14.6027 38.2419 14.5388 38.2482C14.4749 38.2545 14.4106 38.2421 14.3536 38.2125Z" fill="#C1A575"/>
        <path d="M93.969 50.8137C93.969 52.383 94.0069 53.9499 93.969 55.5169C93.9288 56.8471 93.7915 58.1726 93.6992 59.5005C93.6211 60.6129 93.4885 61.7183 93.3607 62.8142C93.2029 64.1539 93.0151 65.4881 92.7974 66.8168C92.3438 69.5305 91.7408 72.2171 90.9914 74.8644C90.0466 78.2191 88.8234 81.4889 87.3344 84.64C85.7533 87.9796 83.8238 91.1429 81.578 94.0771C79.8967 96.2629 78.0207 98.2918 75.973 100.139C73.0919 102.763 69.8433 104.953 66.33 106.639C65.3349 107.105 64.3165 107.519 63.279 107.881C63.0052 107.974 62.7074 107.966 62.4387 107.86C60.6673 107.248 58.9507 106.488 57.3071 105.588C54.9507 104.301 52.7241 102.789 50.6583 101.074C48.9406 99.6448 47.3292 98.0927 45.8368 96.4298C44.0978 94.5052 42.5192 92.4415 41.1171 90.2592C38.9075 86.8135 37.0819 83.1362 35.6731 79.293C34.3988 75.8109 33.4046 72.2325 32.7002 68.592C32.3167 66.6542 32.0114 64.7007 31.7841 62.7314C31.6043 61.1597 31.4504 59.588 31.3368 58.0093C31.2113 56.2838 31.1545 54.5606 31.1167 52.8327C31.093 51.841 31.0528 50.8516 31.0693 49.8622C31.0954 48.3497 31.119 46.8349 31.1829 45.3247C31.2019 44.8513 31.2752 44.3566 31.261 43.8714C31.2497 43.7557 31.2779 43.6395 31.3411 43.5419C31.4043 43.4443 31.4987 43.3711 31.609 43.3341C33.3037 42.5317 34.989 41.7175 36.679 40.908L41.555 38.5789L54.952 32.1526C57.3876 30.9857 59.8303 29.8282 62.2588 28.6471C62.4434 28.543 62.6517 28.4883 62.8636 28.4883C63.0755 28.4883 63.2838 28.543 63.4683 28.6471C68.5178 31.1419 73.5808 33.6232 78.6571 36.0912L89.0907 41.1991C90.4991 41.8879 91.8979 42.5909 93.3181 43.2536C93.492 43.3213 93.6398 43.4428 93.7399 43.6003C93.8399 43.7578 93.887 43.9432 93.8743 44.1294C93.9761 46.3473 94.0471 48.5793 93.969 50.8137Z" fill="#1C1609"/>
        <path d="M97.7088 71.3452C97.7443 71.3784 97.794 71.4162 97.723 71.4588C97.723 71.4588 97.6733 71.4257 97.6472 71.4068L97.7088 71.3452Z" fill="white"/>
        <path d="M97.0929 30.4652C97.0811 30.4652 97.0694 30.4934 97.0577 30.4934C97.0459 30.4934 97.0366 30.4723 97.0272 30.4605C97.0178 30.4488 97.0506 30.4324 97.0624 30.4324C97.0741 30.4324 97.0835 30.4535 97.0929 30.4652Z" fill="#C1A575"/>
        <path d="M26.4987 31.5755C26.5318 31.5352 26.5626 31.4926 26.5933 31.4524L26.6667 31.5258L26.5342 31.611L26.4987 31.5755Z" fill="#C1A575"/>
        <path d="M26.5332 31.6199C26.5097 31.6621 26.4886 31.7137 26.437 31.6457C26.4565 31.6237 26.4776 31.6033 26.5003 31.5847L26.5332 31.6199Z" fill="#C1A575"/>
        <path d="M84.6667 42.1865H47.6829C46.696 42.1865 45.8959 42.9866 45.8959 43.9736V66.9947C45.8959 67.9816 46.696 68.7817 47.6829 68.7817H84.6667C85.6537 68.7817 86.4538 67.9816 86.4538 66.9947V43.9736C86.4538 42.9866 85.6537 42.1865 84.6667 42.1865Z" fill="#D14947"/>
        <path d="M78.5599 44.1819L83.8785 49.5005" stroke="black" stroke-width="0.627245" stroke-miterlimit="10"/>
        <path d="M83.8785 44.1819L78.5599 49.5005" stroke="black" stroke-width="0.627245" stroke-miterlimit="10"/>
        <path d="M76.9009 50.3855H39.9171C38.9301 50.3855 38.13 51.1856 38.13 52.1726V75.1936C38.13 76.1806 38.9301 76.9807 39.9171 76.9807H76.9009C77.8878 76.9807 78.6879 76.1806 78.6879 75.1936V52.1726C78.6879 51.1856 77.8878 50.3855 76.9009 50.3855Z" fill="#C1A575"/>
        <path d="M70.7916 52.3787L76.1126 57.6996" stroke="black" stroke-width="0.627245" stroke-miterlimit="10"/>
        <path d="M76.1126 52.3787L70.7916 57.6996" stroke="black" stroke-width="0.627245" stroke-miterlimit="10"/>
        <path d="M81.6465 64.1921H44.6627C43.6757 64.1921 42.8756 64.9922 42.8756 65.9792V89.0003C42.8756 89.9873 43.6757 90.7873 44.6627 90.7873H81.6465C82.6334 90.7873 83.4335 89.9873 83.4335 89.0003V65.9792C83.4335 64.9922 82.6334 64.1921 81.6465 64.1921Z" fill="#FFF3D2"/>
        <path d="M75.5398 66.1875L80.8584 71.5061" stroke="black" stroke-width="0.627245" stroke-miterlimit="10"/>
        <path d="M80.8584 66.1875L75.5398 71.5061" stroke="black" stroke-width="0.627245" stroke-miterlimit="10"/>
        <path d="M73.8735 68.6514H46.8854V71.4373H73.8735V68.6514Z" fill="#C1A575"/>
        <path d="M64.7179 54.4119H41.8507V57.2877H64.7179V54.4119Z" fill="#FFF3D2"/>
        <path d="M57.3829 74.5476H47.0275V83.0332H57.3829V74.5476Z" fill="#C1A575"/>
        <path d="M62.5616 85.478H47.1716V86.6284H62.5616V85.478Z" fill="#C1A575"/>
        <path d="M73.7811 74.5476H58.3911V75.6979H73.7811V74.5476Z" fill="#C1A575"/>
        <path d="M73.7811 76.5618H58.3911V77.7121H73.7811V76.5618Z" fill="#C1A575"/>
        <path d="M73.7811 78.7183H58.3911V79.8686H73.7811V78.7183Z" fill="#C1A575"/>
        <path d="M57.5272 59.3018H42.1372V60.4521H57.5272V59.3018Z" fill="#FFF3D2"/>
        <path d="M57.5272 61.6023H42.1372V62.7526H57.5272V61.6023Z" fill="#FFF3D2"/>
    </g>
    <defs>
        <clipPath id="clip0_1_84388">
            <rect width="117.165" height="112" fill="white" transform="translate(3.7876)"/>
        </clipPath>
    </defs>
</svg>
