<svg width="125" height="112" viewBox="0 0 125 112" fill="none" xmlns="http://www.w3.org/2000/svg">
    <g clip-path="url(#clip0_1_84201)">
        <path d="M97.3834 48.8993C97.3834 49.5218 97.3834 50.142 97.3597 50.7621C96.9692 65.8846 93.9134 81.4545 85.3237 94.1698C82.4222 98.4736 78.8889 102.316 74.8428 105.567C71.4651 108.263 65.0814 113.567 60.4445 111.546C52.2833 107.995 45.296 101.974 40.1194 94.7403C31.2149 82.2735 27.9201 66.6799 27.5745 51.5882C27.513 48.8212 27.5745 46.0589 27.681 43.3038C27.7071 42.6789 27.5035 41.3581 27.8562 40.8279C28.171 40.3546 29.371 40.0516 29.8776 39.8102L39.5537 35.1709C46.2404 31.966 52.8655 28.3398 59.7179 25.5113C60.6268 25.135 61.4505 24.5906 62.3784 24.2568C62.5164 24.1995 62.6656 24.1742 62.8149 24.1828C62.9641 24.1914 63.1094 24.2337 63.2399 24.3065C73.9741 29.6417 84.7793 34.8537 95.5443 40.1179C96.0369 40.3172 96.4821 40.618 96.8508 41.0007C97.7148 42.0446 97.4236 43.763 97.3976 45.0056C97.3692 46.2956 97.3834 47.6022 97.3834 48.8993ZM93.8211 50.8094C93.8992 48.575 93.8211 46.343 93.7359 44.1109C93.7486 43.9247 93.7015 43.7393 93.6014 43.5818C93.5014 43.4243 93.3536 43.3028 93.1797 43.2352C91.7595 42.5724 90.3606 41.8694 88.9523 41.1806L78.5187 36.0727C73.4534 33.5937 68.3904 31.1123 63.3299 28.6286C63.1453 28.5245 62.937 28.4698 62.7251 28.4698C62.5132 28.4698 62.3049 28.5245 62.1204 28.6286C59.6919 29.8121 57.2491 30.9672 54.8135 32.1341L41.4165 38.5604L36.5406 40.8895C34.8506 41.699 33.1653 42.5132 31.4705 43.3156C31.3603 43.3526 31.2658 43.4258 31.2026 43.5234C31.1394 43.621 31.1112 43.7372 31.1226 43.8529C31.1368 44.3263 31.0634 44.821 31.0445 45.3062C30.9806 46.8164 30.9569 48.3312 30.9309 49.8437C30.9143 50.8331 30.9545 51.8225 30.9782 52.8143C31.0161 54.5421 31.0729 56.2653 31.1983 57.9908C31.312 59.5696 31.4658 61.1412 31.6457 62.7129C31.8729 64.6806 32.1783 66.6342 32.5617 68.5735C33.2662 72.214 34.2603 75.7924 35.5346 79.2745C36.9435 83.1177 38.769 86.795 40.9786 90.2407C42.3808 92.423 43.9593 94.4868 45.6984 96.4114C47.1908 98.0743 48.8022 99.6264 50.5199 101.055C52.5857 102.77 54.8123 104.282 57.1687 105.569C58.8122 106.47 60.5288 107.23 62.3003 107.841C62.569 107.948 62.8667 107.955 63.1405 107.863C64.1781 107.501 65.1964 107.086 66.1915 106.62C69.7049 104.934 72.9534 102.744 75.8346 100.12C77.8822 98.2733 79.7582 96.2444 81.4395 94.0586C83.6809 91.1299 85.6072 87.9731 87.1865 84.6405C88.671 81.4967 89.8911 78.2348 90.834 74.8886C91.5835 72.2412 92.1864 69.5546 92.64 66.8409C92.8625 65.5106 93.0503 64.1765 93.2033 62.8383C93.3312 61.7306 93.4637 60.6252 93.5418 59.5246C93.6341 58.1967 93.7785 56.8712 93.8116 55.541C93.859 53.9504 93.8211 52.3835 93.8211 50.8142V50.8094Z" fill="#C1A575"/>
        <path d="M73.9221 1.05124C73.9694 1.48439 74.0286 1.92228 74.0688 2.36253C74.2093 3.95931 74.248 5.56341 74.1848 7.1651C74.1627 8.00989 74.0217 8.84735 73.7659 9.65278C73.7059 9.88006 73.596 10.0911 73.444 10.2704C73.2921 10.4498 73.102 10.593 72.8877 10.6895C72.8105 10.7139 72.7444 10.7648 72.701 10.8333C72.6577 10.9017 72.64 10.9832 72.651 11.0635C72.651 12.0103 72.651 12.9381 72.651 13.8754C72.651 14.1121 72.7552 14.1903 72.9777 14.1879C73.6262 14.1879 74.2748 14.1879 74.9233 14.1879C75.16 14.1879 75.2381 14.0766 75.2334 13.8565C75.2334 13.4967 75.2216 13.1464 75.2334 12.7748C75.264 11.8215 75.3677 10.8719 75.5435 9.93445C75.5982 9.4794 75.7054 9.03222 75.863 8.60185C76.4512 7.26159 77.1126 5.95464 77.8442 4.68689C78.258 3.98917 78.7861 3.36589 79.4063 2.84303C79.8537 2.45721 80.6963 2.62053 81.0254 3.07972C81.1863 3.30222 81.0727 3.44424 80.9236 3.59335C80.3824 4.1466 79.9059 4.75964 79.5034 5.42065C78.8953 6.41805 78.4045 7.48234 78.0406 8.59238C77.5068 10.1757 77.141 11.8108 76.9494 13.4707C76.8174 14.5775 76.7502 15.6911 76.7482 16.8057C76.7482 18.4973 76.7482 20.1913 76.7482 21.8876C76.7482 22.0131 76.7482 22.1385 76.7482 22.264C76.7482 22.4391 76.6725 22.5338 76.4926 22.5338H76.1139H48.7116C48.6027 22.5338 48.4938 22.5338 48.3873 22.5338C48.1814 22.5338 48.0938 22.4368 48.0985 22.2379C48.0985 22.1125 48.0985 21.9847 48.0985 21.8592C48.0985 20.0224 48.0985 18.1833 48.0985 16.3466C48.0663 14.2595 47.7923 12.1832 47.2819 10.1593C47.245 10.0401 47.1975 9.92443 47.1399 9.81374C47.1399 9.79953 47.1044 9.79006 47.102 9.77586C46.9762 9.16124 46.7841 8.56206 46.5292 7.98881C46.4748 7.84915 46.4487 7.6811 46.3872 7.53435C45.8266 6.12644 45.0257 4.82659 44.0202 3.69277C43.8948 3.55548 43.6344 3.42293 43.7693 3.21937C43.9327 2.96138 44.1173 2.66314 44.4794 2.62053C44.8413 2.60141 45.1979 2.71409 45.483 2.93771C46.1742 3.38269 46.5979 4.05965 47.0097 4.73186C47.9387 6.25184 48.6682 7.88505 49.1802 9.59124C49.3789 10.2849 49.4918 11.0004 49.5163 11.7215C49.5846 12.4382 49.6162 13.1579 49.611 13.8778C49.611 14.1145 49.6962 14.2021 49.9282 14.1997C50.5767 14.1997 51.2253 14.1997 51.8738 14.1997C52.1105 14.1997 52.1934 14.1074 52.1934 13.8778C52.1934 12.9405 52.1934 12.004 52.1934 11.0682C52.2054 10.9893 52.1879 10.9087 52.1442 10.8419C52.1006 10.7751 52.0338 10.7267 51.9567 10.7061C51.4975 10.5617 51.2773 10.1901 51.1164 9.78296C50.873 9.08604 50.7273 8.3588 50.6832 7.62193C50.5965 6.8163 50.5712 6.00525 50.6075 5.19579C50.6761 3.81348 50.7258 2.43118 50.927 1.07017C51.1069 0.982594 51.1756 1.11988 51.2537 1.20272C52.7614 2.79569 54.2787 4.38392 55.5402 6.18755C55.9911 6.78887 56.3303 7.46634 56.5415 8.18763C56.7663 9.04921 56.8255 9.88474 56.3569 10.6871C56.2649 10.8433 56.2182 11.022 56.2219 11.2031C56.2219 12.0671 56.2219 12.9334 56.2219 13.8068C56.2219 14.1855 56.2361 14.195 56.6267 14.1974C57.7439 14.1974 58.8611 14.1974 59.9783 14.1974C60.3641 14.1974 60.376 14.1974 60.3783 13.8044C60.3783 12.9736 60.3783 12.1476 60.3783 11.3168C60.3881 11.2303 60.3705 11.1429 60.328 11.0669C60.2856 10.9909 60.2204 10.9301 60.1416 10.8931C59.845 10.6922 59.5712 10.4597 59.325 10.1995C58.5889 9.48946 58.4848 8.55688 58.6149 7.61246C58.8327 6.08103 59.4457 4.67506 60.1795 3.32825C60.7287 2.3489 61.3316 1.40067 61.9855 0.487898C62.0281 0.428724 62.0636 0.367183 62.1062 0.310376C62.4139 -0.0943749 62.4257 -0.103843 62.7098 0.289073C63.98 1.98347 65.0107 3.84485 65.7726 5.82067C66.0623 6.56019 66.2224 7.34406 66.246 8.13793C66.2665 8.68021 66.1342 9.21735 65.8643 9.68814C65.5944 10.1589 65.1977 10.5444 64.7193 10.8008C64.6386 10.8333 64.5701 10.8902 64.5234 10.9637C64.4767 11.0371 64.4542 11.1233 64.459 11.2102C64.459 12.0742 64.4708 12.9381 64.459 13.8139C64.459 14.0885 64.5489 14.1974 64.8329 14.1926C65.9502 14.1832 67.0674 14.1832 68.1846 14.1926C68.4473 14.1926 68.587 14.124 68.5751 13.8281C68.542 12.9665 68.613 12.105 68.5372 11.241C68.5366 11.0665 68.4927 10.8949 68.4094 10.7416C67.936 9.98179 67.9976 9.10838 68.1846 8.34622C68.4254 7.51963 68.8277 6.74894 69.3681 6.07867C70.1113 5.08691 70.8876 4.12119 71.7208 3.20044C72.3244 2.53295 72.9303 1.86784 73.5812 1.24533C73.6712 1.16012 73.7327 1.02757 73.9221 1.05124Z" fill="#C1A575"/>
        <path d="M95.0256 15.4112C95.6102 15.9343 95.6079 16.5189 95.0256 17.0089C94.2799 17.6337 93.6251 18.3594 93.0799 19.1652C91.6598 21.3262 91.3071 23.634 92.2113 26.0933C92.2349 26.1595 92.2515 26.2353 92.3864 26.2306C92.4669 25.7146 92.5592 25.1938 92.6231 24.6684C92.7082 23.8141 93.0177 22.9975 93.5202 22.3014C93.7747 21.9561 94.0969 21.6662 94.467 21.4493C94.8433 21.2292 94.9877 21.3049 94.9925 21.7404C95.014 22.6222 95.2207 23.4896 95.5992 24.2864C95.9776 25.0832 96.5192 25.7915 97.189 26.3655C97.4565 26.6022 97.4896 26.6022 97.6103 26.2424C97.6494 26.1326 97.7165 26.0348 97.8049 25.9589C97.8933 25.8829 98 25.8313 98.1145 25.8092C98.4145 25.743 98.7239 25.731 99.0281 25.7737C99.0647 25.7713 99.1012 25.778 99.1345 25.7935C99.1677 25.8089 99.1965 25.8324 99.2182 25.8619C99.2399 25.8914 99.2538 25.9259 99.2587 25.9622C99.2635 25.9985 99.2591 26.0354 99.2459 26.0696C98.8766 27.8164 99.6435 29.2271 100.609 30.5668C102.126 32.6569 104.077 34.3019 106.134 35.8286C106.191 35.8712 106.264 35.8925 106.281 36.0156C105.752 35.9896 105.228 35.9151 104.714 35.7931C103.679 35.6037 102.64 35.4073 101.622 35.1445C100.379 34.8255 99.1682 34.3913 98.0056 33.8474C97.7807 33.7409 97.5322 33.6699 97.3239 33.5468C96.5191 33.09 95.6812 32.6829 94.9238 32.1598C93.9707 31.5271 93.1076 30.7684 92.358 29.9041C91.8316 29.3195 91.1701 28.8726 90.4313 28.6023C89.6542 28.2562 88.8528 27.9675 88.0336 27.7383C86.656 27.3785 85.2666 27.2365 83.9577 28.0318C83.8811 28.073 83.8021 28.1094 83.721 28.1407C83.6168 27.7241 83.8559 27.4495 84.0571 27.1821C84.2583 26.9146 84.4973 26.6755 84.7127 26.4317C84.6536 26.3489 84.6015 26.3465 84.5541 26.3678C83.7801 26.7016 82.9706 26.6661 82.1588 26.6045C82.0518 26.595 81.9484 26.5619 81.8558 26.5075C81.6191 26.3702 81.5836 26.214 81.7801 26.0057C82.1682 25.6111 82.603 25.2653 83.0748 24.9761C83.3976 24.7573 83.7457 24.5784 84.1115 24.4435C85.8844 23.8423 87.5058 24.195 89.023 25.2128C89.1224 25.279 89.1958 25.4021 89.3591 25.3642C89.3776 25.2584 89.375 25.15 89.3515 25.0452C89.3279 24.9404 89.2838 24.8413 89.2218 24.7536C89.015 24.3638 88.8932 23.9346 88.8644 23.4943C88.7768 22.6351 88.6277 21.7854 88.5732 20.9215C88.5221 20.2216 88.5571 19.5181 88.6774 18.8267C88.7934 18.1687 88.8076 17.4752 89.1508 16.8597C89.4991 16.2597 89.9178 15.7035 90.3982 15.2029C91.3734 14.1401 92.6397 13.7827 93.9912 13.6478C95.089 13.5116 96.2034 13.6224 97.2529 13.9721C97.7193 14.1233 98.1179 14.4332 98.3796 14.8478C98.4766 15.0017 98.5524 15.1626 98.4104 15.3425C98.3506 15.4108 98.2714 15.4591 98.1835 15.4811C98.0955 15.5031 98.0029 15.4977 97.918 15.4656C97.662 15.397 97.4112 15.31 97.1677 15.2052C96.4221 14.9188 95.7428 15.0253 95.0256 15.4112ZM104.515 35.1327C104.502 35.0759 104.476 35.0233 104.437 34.9798C104.398 34.9363 104.349 34.9034 104.295 34.8842C103.239 34.2995 102.179 33.7267 101.125 33.135C100.704 32.9356 100.301 32.6979 99.9228 32.4249C99.0758 31.7246 98.2779 30.9669 97.5346 30.1573C96.5195 29.106 95.7159 27.8693 95.1676 26.5146C95.1271 26.3714 95.0447 26.2436 94.9309 26.1477C94.9499 26.3323 94.9522 26.4578 94.9735 26.5809C95.1983 27.7712 95.7138 28.8876 96.4742 29.8307C96.6558 30.0006 96.7659 30.2334 96.7819 30.4816C95.711 29.8105 94.7564 28.9694 93.9557 27.9916C93.9764 28.2833 94.0826 28.5624 94.2611 28.794C94.973 29.8592 95.8806 30.7797 96.9357 31.5065C98.4712 32.6136 100.134 33.533 101.887 34.2451C102.734 34.6221 103.613 34.9193 104.515 35.1327ZM90.4219 24.6187C90.448 24.5722 90.4638 24.5207 90.4683 24.4676C90.4728 24.4145 90.4659 24.3611 90.4479 24.3109C90.1861 23.1501 90.1983 21.9442 90.4834 20.7889C90.8498 19.3564 91.5019 18.0126 92.4006 16.8384C92.7354 16.4495 93.0423 16.0374 93.319 15.6053C90.8881 16.971 88.6135 21.3215 90.4219 24.6187Z" fill="#C1A575"/>
        <path d="M28.0384 22.5265C28.7625 22.7785 29.365 23.294 29.726 23.9704C30.211 24.8356 30.5101 25.7925 30.6042 26.78C30.5966 26.9603 30.64 27.1392 30.7296 27.296C30.8906 27.2604 30.8858 27.1137 30.9142 27.0048C31.2409 25.7811 31.4184 24.5432 31.1131 23.2958C30.9852 22.7656 30.713 22.2733 30.5474 21.7525C30.3698 21.3087 30.1308 20.8919 29.8373 20.5146C29.3039 19.6593 28.6188 18.9085 27.8159 18.2991C27.6939 18.2117 27.5949 18.0961 27.5273 17.9621C27.4598 17.8282 27.4256 17.6799 27.4277 17.5299C27.3969 17.1724 27.5295 16.95 27.9579 16.8056C27.2478 16.5689 26.6679 16.3322 26.0217 16.5263C25.6784 16.6197 25.3435 16.7416 25.0205 16.8908C24.7696 17.0139 24.5826 17.0352 24.4169 16.7914C24.2512 16.5476 24.4311 16.3866 24.5495 16.2304C24.9744 15.6653 25.6059 15.2917 26.3058 15.1913C27.3149 14.9914 28.3506 14.965 29.3686 15.1132C31.558 15.4801 33.0729 16.6636 33.8138 18.7772C34.223 20.0481 34.3657 21.3897 34.2327 22.7182C34.1731 23.8509 33.9703 24.9715 33.6291 26.0533C33.5938 26.1389 33.5938 26.2351 33.6291 26.3208C33.7522 26.4036 33.8327 26.2971 33.899 26.2308C34.6777 25.4521 35.6766 25.2012 36.7204 25.0947C38.0956 24.9527 39.298 25.4403 40.3892 26.2332C40.6339 26.3845 40.8576 26.5676 41.0543 26.7776C41.2366 27.0001 41.2342 27.0403 40.9928 27.1776C40.8071 27.2893 40.5981 27.3565 40.3821 27.3741C39.717 27.419 39.0495 27.464 38.4104 27.2013C38.372 27.1846 38.3298 27.1785 38.2882 27.1835C38.2466 27.1885 38.2071 27.2044 38.1737 27.2297C38.639 27.6701 38.9948 28.2131 39.2128 28.8155C39.0755 28.967 38.9761 28.8581 38.8672 28.8013C37.5015 28.051 36.1334 28.2427 34.7321 28.7256C34.0221 28.9623 33.3238 29.225 32.6279 29.4972C32.0025 29.7199 31.4499 30.1095 31.0302 30.6239C30.2443 31.5619 29.335 32.3892 28.3271 33.0832C26.7908 34.164 25.1198 35.0393 23.3565 35.6868C22.4097 36.0514 21.4369 36.3449 20.4641 36.6147C19.4913 36.8845 18.4687 37.0171 17.4651 37.2112C17.4178 37.0029 17.5835 36.9745 17.664 36.9153C18.1965 36.4585 18.7528 36.0324 19.2688 35.559C19.6901 35.1708 20.0664 34.733 20.4665 34.3187C21.0487 33.7152 21.7375 33.1992 22.2038 32.4985C22.8784 31.4926 23.5388 30.4748 23.8938 29.2913C24.1111 28.6659 24.1424 27.9908 23.9838 27.348C23.9412 27.1942 23.9625 27.0735 24.1589 27.0261C24.4248 26.9512 24.7075 26.9621 24.9667 27.0573C25.226 27.1525 25.4486 27.3271 25.6028 27.5563C25.7258 27.7362 25.8182 27.6936 25.9483 27.5918C26.443 27.2036 26.7294 26.6592 27.0466 26.1432C27.4493 25.429 27.7497 24.6617 27.939 23.8639C28.0597 23.4662 28.01 23.0165 28.0384 22.5265ZM26.5188 31.521L26.4454 31.45C26.7697 30.9103 27.1744 30.4251 27.4703 29.8665C27.8944 29.087 28.147 28.2259 28.2112 27.3409C28.0384 27.4214 28.0384 27.5611 27.9934 27.6723C27.7415 28.3334 27.4243 28.9677 27.0466 29.5659C26.2894 30.7295 25.391 31.7948 24.3719 32.7376C23.9942 33.1482 23.57 33.5136 23.108 33.8264L19.3208 36.0301C19.2072 36.0963 19.0841 36.146 19.0463 36.2975C19.096 36.3117 19.1149 36.3259 19.1291 36.3212C20.8456 35.7792 22.4949 35.0439 24.0453 34.1294C25.4881 33.3316 26.8063 32.3269 27.9579 31.147C28.4558 30.6253 28.8688 30.0287 29.1816 29.3789C29.2266 29.2818 29.3118 29.1801 29.2195 29.0238C28.7713 29.6264 28.2551 30.1753 27.681 30.6594C27.3446 31.0103 26.9517 31.3024 26.5188 31.5233V31.521ZM32.5782 25.5539C33.3877 24.0816 33.2883 21.9727 32.4315 20.1927C31.7214 18.7441 30.2349 17.0943 29.4941 16.9713C31.7308 19.4234 33.1723 22.1265 32.5782 25.5562V25.5539Z" fill="#C1A575"/>
        <path d="M100.832 60.9709C101.085 60.4052 101.306 59.9105 101.528 59.4276C102.489 57.3509 103.701 55.4001 105.138 53.6191C105.84 52.7965 106.615 52.0399 107.455 51.3586C108.483 50.4713 109.696 49.8244 111.005 49.4651C112.506 49.0619 114.083 49.0326 115.597 49.3799C117.384 49.802 119.056 50.6098 120.497 51.7468C120.581 51.811 120.66 51.8814 120.734 51.9575C120.756 51.9738 120.774 51.995 120.786 52.0195C120.798 52.0439 120.805 52.0709 120.805 52.0983C120.805 52.1257 120.798 52.1527 120.786 52.1772C120.774 52.2016 120.756 52.2229 120.734 52.2391C120.569 52.4029 120.384 52.546 120.184 52.6652C119.001 53.2901 117.749 53.3209 116.471 53.2049C115.957 53.1599 115.448 53.0439 114.935 52.9682C114.875 53.1623 115.048 53.1812 115.133 53.2356C116.125 53.8629 116.736 54.8144 117.316 55.792C117.38 55.8985 117.462 56.0287 117.368 56.1399C117.273 56.2512 117.084 56.2038 116.975 56.1399C116.563 55.8748 116.087 55.7707 115.659 55.5671C115.383 55.4428 115.087 55.3683 114.785 55.347C113.923 55.2579 113.053 55.3107 112.208 55.5032C109.954 56.0445 107.783 56.8835 105.751 57.998C104.215 58.8194 102.731 59.7332 101.306 60.7342C101.172 60.8543 101.008 60.9361 100.832 60.9709Z" fill="#C1A575"/>
        <path d="M23.2973 61.4133C22.7884 61.2925 22.4405 60.9399 22.0381 60.689C20.741 59.8644 19.3975 59.1152 18.0143 58.4451C16.4619 57.6975 14.845 57.0922 13.1833 56.6367C12.2176 56.3741 11.2207 56.2435 10.2199 56.2485C9.24886 56.2814 8.30458 56.5749 7.48602 57.0983C7.39371 57.1527 7.30613 57.2119 7.21145 57.264C7.16582 57.2839 7.11822 57.299 7.06943 57.3089C7.03819 57.2882 7.01502 57.2574 7.00381 57.2216C6.9926 57.1859 6.99405 57.1473 7.00789 57.1125C7.2169 56.5007 7.54694 55.9372 7.97835 55.4556C8.45174 54.9633 8.87779 54.4449 9.53818 54.0544C9.303 53.985 9.05063 54.0035 8.82809 54.1064C7.59799 54.3867 6.32339 54.4108 5.08355 54.1775C4.62825 54.0779 4.19963 53.8818 3.82669 53.6023C3.59 53.4342 3.59 53.3159 3.82669 53.0839C4.60361 52.3299 5.50433 51.715 6.48953 51.2661C7.79742 50.628 9.22278 50.2662 10.6767 50.2033C11.8839 50.1486 13.0884 50.3587 14.2058 50.8187C16.0663 51.5714 17.5788 52.7928 18.9066 54.265C20.1864 55.723 21.2906 57.3262 22.1967 59.0416C22.5423 59.6728 22.8729 60.3095 23.1885 60.9517C23.2389 61.0162 23.2748 61.0908 23.2936 61.1705C23.3124 61.2502 23.3137 61.333 23.2973 61.4133Z" fill="#C1A575"/>
        <path d="M97.5609 71.345C97.5151 71.1341 97.4273 70.9345 97.3029 70.758C96.9645 70.0645 96.7585 69.3378 96.9787 68.5709C97.0012 68.5118 97.0289 68.4548 97.0615 68.4005C98.2635 69.041 99.2424 70.0315 99.8687 71.2409C100.449 70.4858 100.816 69.6408 101.58 69.0917C102.318 68.5542 103.189 68.227 104.099 68.1449C105.022 68.0367 105.958 68.1229 106.847 68.3982C106.281 69.487 105.306 69.8444 104.143 70.1C104.854 70.4006 105.486 70.5592 105.907 71.061C105.907 71.132 105.878 71.1557 105.836 71.1533C104.508 71.0918 103.448 71.7001 102.522 72.5474C101.219 73.7144 100.118 75.0893 99.2652 76.6163C98.6647 77.6375 97.9543 78.5899 97.1467 79.4566C97.0757 79.5371 97.0142 79.6247 96.9503 79.7099C96.9503 79.7099 96.9503 79.743 96.9668 79.8069C97.4586 79.8038 97.9499 79.837 98.4367 79.9063C99.3721 80.0892 100.263 80.4526 101.059 80.9762C101.35 81.1608 101.324 81.246 101.029 81.4662C100.679 81.7203 100.264 81.8697 99.8332 81.8969C99.2813 81.9266 98.7282 81.9266 98.1764 81.8969C98.6947 82.4271 99.3125 82.8011 99.4924 83.5183C99.4017 83.5343 99.3087 83.5321 99.2189 83.5118C99.1291 83.4914 99.0443 83.4534 98.9693 83.4C98.6643 83.2493 98.3306 83.1654 97.9906 83.154C97.6506 83.1425 97.3121 83.2038 96.9976 83.3337C96.8035 83.4 96.6142 83.3763 96.4248 83.4355C95.5248 83.734 94.6585 84.1259 93.8401 84.6048C92.8866 85.1501 91.9709 85.759 91.0991 86.4273C91.0163 86.4912 90.9216 86.5717 90.8151 86.4818C90.7086 86.3918 90.8033 86.3232 90.8151 86.2451C90.9359 85.7978 91.1226 85.371 91.369 84.9787C91.6517 84.5624 91.874 84.1082 92.0293 83.6296C92.051 83.5434 92.0905 83.4628 92.1453 83.3929C92.6187 82.8603 92.9004 82.1905 93.4756 81.736C93.8377 81.452 94.0886 81.0377 94.4744 80.7726C94.9805 80.4039 95.5538 80.1378 96.1621 79.9892C96.2773 79.9804 96.386 79.9324 96.47 79.8531C96.554 79.7739 96.6082 79.6681 96.6236 79.5537C96.9645 77.8755 97.2556 76.1926 97.1728 74.4694C97.1349 73.6788 96.8603 72.9498 96.5929 72.2184C96.4274 71.7375 96.1346 71.3104 95.7455 70.9829C96.4556 70.8858 96.9716 71.1793 97.4994 71.4113C97.5254 71.4302 97.5657 71.4705 97.5751 71.4634C97.6462 71.416 97.5964 71.3853 97.5609 71.345Z" fill="#C1A575"/>
        <path d="M102.342 53.2663C102.993 52.7523 103.616 52.2048 104.21 51.626C105.392 50.5369 106.383 49.2566 107.14 47.8388C107.46 47.2315 107.67 46.5718 107.758 45.8908C107.831 45.2734 107.753 44.6476 107.531 44.0668C107.309 43.4861 106.95 42.9676 106.485 42.5558C106.089 42.1874 105.649 41.8694 105.176 41.609C103.171 40.5013 101.277 41.1261 100.094 42.9818C99.9638 43.1972 99.8453 43.4192 99.7387 43.6469C99.6392 43.8434 99.5138 43.86 99.3505 43.7298C98.9778 43.4412 98.7155 43.0335 98.6072 42.5747C98.4895 41.972 98.5048 41.3507 98.6522 40.7545C98.7209 40.3829 98.7209 40.3758 98.3587 40.2811C97.812 40.1225 97.2652 40.0444 96.7018 40.364C96.6453 40.0883 96.6522 39.8033 96.7219 39.5306C96.7916 39.258 96.9223 39.0047 97.1042 38.7899C97.3151 38.5216 97.5531 38.2757 97.8143 38.0562C97.9729 37.9378 97.954 37.8195 97.8143 37.7059C97.5111 37.3723 97.143 37.1041 96.7326 36.9177C96.5889 36.8834 96.4559 36.8143 96.3453 36.7165C96.2347 36.6187 96.1498 36.4951 96.0983 36.3567C96.6506 36.0262 97.2656 35.8142 97.9043 35.7342C100.03 35.4003 102.206 35.6786 104.179 36.5366C105.213 36.9674 106.073 37.7082 106.84 38.5248C107.973 39.6634 108.767 41.094 109.136 42.6576C109.363 43.6977 109.381 44.7728 109.188 45.8198C108.898 47.5793 108.197 49.2453 107.14 50.6816C106.238 51.865 105.126 52.7787 103.673 53.2166C103.242 53.3553 102.782 53.3724 102.342 53.2663ZM100.752 37.8005C101.159 37.7579 101.569 37.7579 101.975 37.8005C102.917 37.9706 103.8 38.3779 104.541 38.984C105.556 39.7632 106.488 40.6435 107.325 41.6114C107.408 41.706 107.483 41.8339 107.689 41.8149C107.63 41.6871 107.602 41.6043 107.557 41.5285C106.982 40.5266 106.243 39.6288 105.37 38.8728C104.77 38.324 104.067 37.9007 103.301 37.6278C102.435 37.3414 101.58 37.3248 100.752 37.8005Z" fill="#C1A575"/>
        <path d="M99.62 69.5364C99.3301 69.1717 99.1643 68.7239 99.1467 68.2583C98.8697 66.0925 99.5751 64.2107 100.858 62.5207C101.996 61.0201 103.381 59.8011 105.137 59.065C106.323 58.5881 107.607 58.4117 108.877 58.5513C110.109 58.6866 111.309 59.0282 112.428 59.562C113.485 60.069 114.414 60.8086 115.145 61.7254C116.155 62.8761 116.913 64.2249 117.372 65.6854C117.53 66.2786 117.621 66.8875 117.644 67.5008C117.574 67.5228 117.5 67.5272 117.428 67.5136C117.355 67.5 117.288 67.4688 117.23 67.4227C116.733 67.0629 116.134 66.9067 115.623 66.5848C115.427 66.4617 115.386 66.6085 115.356 66.7718C115.239 67.3746 114.933 67.9243 114.482 68.3411C114.306 68.5123 114.106 68.6574 113.888 68.7719C113.763 68.4523 113.635 68.1517 113.531 67.8417C113.48 67.6898 113.4 67.5497 113.294 67.4298C112.887 66.9564 112.889 66.9564 112.404 67.3541C111.694 67.9316 110.892 68.3009 109.935 68.1233C109.846 68.1161 109.758 68.1026 109.67 68.0831C109.31 67.9624 109.273 67.8014 109.507 67.4937C109.814 67.1195 110.048 66.6907 110.196 66.2298C110.281 65.9221 110.499 65.6735 110.544 65.3445C110.684 64.6144 110.536 63.8582 110.129 63.2356C109.862 62.8332 109.656 62.3811 109.223 62.1326C108.559 61.7418 107.872 61.394 107.164 61.0911C106.801 60.9467 106.415 60.8712 106.025 60.8686C104.64 60.8284 103.587 61.4887 102.711 62.4758C102.029 63.2866 101.479 64.1996 101.08 65.1812C100.508 66.5347 100.078 67.9444 99.7976 69.3873C99.7739 69.4394 99.7621 69.4914 99.62 69.5364ZM114.248 64.2131C114.284 63.9421 114.275 63.6671 114.222 63.3989C113.985 62.3693 113.334 61.6497 112.482 61.0935C110.963 60.0993 109.254 59.7324 107.469 59.6354C107.398 59.6354 107.325 59.6354 107.298 59.7751C107.564 59.8532 107.833 59.936 108.106 60.0118C109.271 60.3147 110.406 60.726 111.495 61.2402C112.494 61.7349 113.37 62.3716 113.912 63.3918C114.042 63.6285 114.059 63.9078 114.255 64.2131H114.248Z" fill="#C1A575"/>
        <path d="M7.23507 68.2633C7.22084 68.213 7.21133 68.1615 7.20667 68.1094C7.21058 66.677 7.60502 65.2727 8.34754 64.0477C8.78285 63.3535 9.27784 62.6985 9.82689 62.0903C10.8835 60.8836 12.2791 60.0233 13.8318 59.6215C16.1988 58.973 18.4852 59.0889 20.6108 60.4594C22.5683 61.721 24.0879 63.3518 24.895 65.5721C25.3043 66.6557 25.4027 67.8321 25.179 68.9687C25.088 69.2993 24.9433 69.6128 24.7506 69.8965C24.4571 68.7485 24.0547 67.7307 23.6878 66.7011C23.3104 65.6574 22.7997 64.6669 22.1682 63.7542C22.0063 63.4549 21.8169 63.1712 21.6025 62.9069C20.983 62.3135 20.2332 61.8734 19.4131 61.6216C19.0091 61.4875 18.5838 61.4289 18.1586 61.4488C17.8593 61.4825 17.5671 61.5623 17.2923 61.6855C16.4161 61.9543 15.6162 62.4272 14.9585 63.0654C14.0614 63.9933 13.8484 65.0916 14.1584 66.3082C14.3062 66.9404 14.606 67.527 15.0318 68.0171C15.3111 68.3367 15.2685 68.4905 14.8259 68.5994C14.4096 68.7154 13.9719 68.733 13.5476 68.6509C13.1233 68.5687 12.7238 68.389 12.3808 68.126C11.7465 67.6645 11.6944 67.681 11.266 68.3296C11.1049 68.5681 11.0094 68.8448 10.9891 69.132C10.963 69.4326 10.7642 69.5438 10.5985 69.3355C10.3263 69.0018 9.95944 68.7627 9.71091 68.4077C9.5256 68.1887 9.41673 67.9153 9.40084 67.629C9.40084 67.2384 9.33457 67.2242 8.98899 67.3923C8.47062 67.629 7.92386 67.8159 7.49307 68.2136C7.45798 68.2434 7.41579 68.2636 7.37059 68.2723C7.3254 68.281 7.27872 68.2779 7.23507 68.2633ZM10.3855 64.8052C10.4376 64.7555 10.4754 64.7365 10.4849 64.7081C10.8707 63.43 11.7867 62.6347 12.9158 62.0287C14.004 61.4685 15.1429 61.0128 16.3171 60.6677C16.562 60.6178 16.797 60.5283 17.013 60.4026C16.9471 60.3833 16.8799 60.369 16.8118 60.36C16.6854 60.3569 16.559 60.3608 16.4331 60.3718C15.1974 60.4917 13.9941 60.8367 12.8826 61.3896C12.1128 61.7503 11.4467 62.2999 10.9465 62.9873C10.5582 63.5118 10.3603 64.1531 10.3855 64.8052Z" fill="#C1A575"/>
        <path d="M21.5578 53.9809C20.6204 54.071 19.6798 53.8453 18.8855 53.3395C18.3174 53.0081 17.8984 52.5158 17.4393 52.0684C16.4199 51.1126 15.6656 49.9089 15.2498 48.5748C14.8001 47.0765 14.5539 45.5521 14.7764 43.9592C14.9382 42.7739 15.3805 41.6444 16.0664 40.6644C16.3031 40.3521 16.5635 40.0585 16.8451 39.7862C17.3861 39.144 17.9965 38.5637 18.6653 38.056C19.0044 37.8241 19.3689 37.6319 19.7518 37.4832C21.1494 36.9148 22.6409 36.6121 24.1496 36.5908C25.2644 36.5908 26.3722 36.7234 27.416 37.3009C27.1414 37.5802 26.7722 37.727 26.4692 37.9637C26.1662 38.2004 25.9153 38.4844 25.6337 38.7211C25.6917 38.8771 25.7988 39.01 25.939 39.0998C26.4388 39.548 26.7724 40.1519 26.8858 40.8135C26.9166 40.9389 26.9426 41.0738 26.8148 41.1567C26.687 41.2395 26.6325 41.0999 26.5402 41.0691C26.0195 40.8869 25.5153 41.0194 25.023 41.2111C24.8526 41.2774 24.9283 41.4171 24.9544 41.5354C25.0823 42.0424 25.1294 42.5664 25.094 43.0881C25.0845 43.3588 25.0193 43.6247 24.9024 43.8691C24.7856 44.1134 24.6195 44.331 24.4147 44.5083C24.2301 44.6645 24.107 44.6456 23.9792 44.461C23.8301 44.2385 23.6738 44.0207 23.5295 43.7982C23.009 43.017 22.2452 42.4296 21.3566 42.1271C20.8723 41.9627 20.3473 41.9627 19.863 42.1271C18.8565 42.4485 17.9472 43.0183 17.2191 43.784C16.7868 44.2208 16.4729 44.7606 16.3072 45.3525C16.1416 45.9443 16.1296 46.5686 16.2723 47.1664C16.5398 48.5037 17.2617 49.6186 18.1304 50.6435C19.0895 51.766 20.1645 52.7839 21.3376 53.6803C21.43 53.7418 21.5483 53.7821 21.5578 53.9809ZM22.8052 38.8134C22.7602 38.6737 22.6466 38.6572 22.5495 38.6264C21.4749 38.2903 20.4903 38.5483 19.5624 39.0998C18.1422 39.9543 17.1268 41.2064 16.322 42.636C16.2676 42.7331 16.1516 42.8349 16.2605 42.9722C16.3931 42.9319 16.4593 42.8159 16.5374 42.7236C17.2413 41.8846 18.008 41.1005 18.831 40.378C19.605 39.6986 20.4406 39.114 21.4773 38.8844C21.9172 38.824 22.3613 38.8002 22.8052 38.8134Z" fill="#C1A575"/>
        <path d="M33.8919 86.2711C33.1818 85.7977 32.5285 85.3243 31.8421 84.9077C30.7199 84.1859 29.5004 83.628 28.2206 83.2508C27.609 83.0589 26.9647 82.9937 26.3271 83.0591C25.9815 83.1041 25.7116 83.3502 25.2903 83.381C25.4323 82.6212 26.1732 82.375 26.5401 81.7833C25.43 81.8567 24.3293 82.0437 23.3826 81.201C24.6583 80.1122 26.1306 79.7524 27.7236 79.7264C27.8064 79.5725 27.6691 79.5063 27.5886 79.4211C27.0513 78.8483 26.4809 78.3015 25.9791 77.7003C25.6561 77.2707 25.3596 76.8217 25.0915 76.3558C24.4414 75.2861 23.6711 74.2942 22.7955 73.3995C22.0344 72.6951 21.1523 72.1339 20.1919 71.7426C19.8046 71.5617 19.3783 71.4804 18.9516 71.5059C18.8664 71.5059 18.7599 71.5296 18.7338 71.4112C18.7284 71.366 18.7377 71.3201 18.7603 71.2805C18.7829 71.2409 18.8176 71.2095 18.8593 71.1911C19.1108 70.9921 19.3941 70.8368 19.6972 70.7319C19.9402 70.6955 20.1736 70.611 20.3836 70.4834C20.1581 70.3836 19.9186 70.319 19.6735 70.2917C19.3217 70.2299 18.986 70.0977 18.6866 69.9028C18.3872 69.708 18.1304 69.4546 17.9314 69.1579C17.7492 68.9023 17.7728 68.8455 18.0758 68.7603C19.4132 68.3886 20.7458 68.3792 22.0334 68.9378C22.8142 69.2763 23.4849 69.8264 23.9696 70.526C24.1826 70.8313 24.3814 71.1461 24.5826 71.4444C24.753 71.4207 24.7625 71.2905 24.7956 71.2077C25.1956 70.1781 26.043 69.5295 26.8289 68.8407C27.2241 68.4975 27.3851 68.604 27.449 69.1224C27.5105 69.8444 27.345 70.5677 26.9756 71.1911C26.8543 71.3448 26.7729 71.5261 26.7389 71.719C27.0326 71.5366 27.3405 71.3783 27.6597 71.2456C27.9773 71.0925 28.336 71.046 28.6822 71.113C28.3825 71.3685 28.1259 71.6706 27.9224 72.0077C27.5341 72.8029 27.341 73.6793 27.3591 74.564C27.3188 76.2493 27.6313 77.892 28.0455 79.5205C28.0683 79.6257 28.1227 79.7215 28.2014 79.7951C28.28 79.8686 28.3792 79.9165 28.4857 79.9323C29.8799 80.2448 30.8882 81.1276 31.745 82.1904C32.6281 83.3248 33.3402 84.5823 33.8587 85.9231C33.8828 85.9904 33.8987 86.0603 33.9061 86.1314C33.9062 86.1783 33.9014 86.2251 33.8919 86.2711Z" fill="#C1A575"/>
        <path d="M104.828 26.0535C105.599 27.0003 105.46 28.0701 105.28 29.2205C105.871 28.7826 106.167 28.1056 106.937 28.018C106.823 28.3305 106.714 28.5885 106.636 28.8536C106.383 29.7341 106.529 30.6075 106.757 31.4572C107.179 32.9376 107.817 34.3476 108.65 35.642C108.913 36.0681 109.183 36.4894 109.455 36.9249C109.285 37.0291 109.152 36.9439 109.012 36.88C107.957 36.4294 106.966 35.8403 106.065 35.1284C105.504 34.655 105.031 34.0869 104.501 33.578C104.075 33.1478 103.73 32.6432 103.485 32.0892C103.178 31.3832 103.065 30.6075 103.159 29.843C103.246 28.7116 103.507 27.6251 104.203 26.6831C104.375 26.4487 104.605 26.2949 104.828 26.0535Z" fill="#C1A575"/>
        <path d="M14.2058 38.2123C14.7964 37.306 15.327 36.3619 15.794 35.3861C16.1538 34.676 16.3692 33.8949 16.6675 33.1541C16.8744 32.5643 16.9839 31.9447 16.9917 31.3197C17.015 30.7468 16.8613 30.1807 16.5515 29.6983C16.497 29.606 16.4142 29.5303 16.4734 29.3646C16.8107 29.4469 17.1233 29.6093 17.3846 29.838C17.6545 30.0273 17.8888 30.2711 18.1918 30.4747C18.045 29.826 17.9964 29.159 18.0474 28.4959C18.0619 28.2113 18.143 27.934 18.2841 27.6864C18.4285 27.4189 18.5894 27.4024 18.7788 27.6391C19.7871 28.8959 20.4357 30.3019 20.2913 31.9493C20.179 33.0866 19.6958 34.1554 18.9161 34.9908C17.6929 36.3324 16.2138 37.4156 14.5656 38.1768C14.5155 38.2169 14.4548 38.2416 14.391 38.2479C14.3271 38.2542 14.2628 38.2418 14.2058 38.2123Z" fill="#C1A575"/>
        <path d="M93.821 50.814C93.821 52.3833 93.8588 53.9502 93.821 55.5171C93.7807 56.8474 93.6434 58.1729 93.5511 59.5007C93.473 60.6132 93.3405 61.7186 93.2126 62.8145C93.0548 64.1542 92.8671 65.4883 92.6493 66.817C92.1957 69.5307 91.5928 72.2174 90.8433 74.8647C89.8985 78.2193 88.6753 81.4892 87.1864 84.6402C85.6052 87.9799 83.6757 91.1431 81.4299 94.0773C79.7486 96.2632 77.8726 98.2921 75.8249 100.139C72.9438 102.763 69.6953 104.953 66.1819 106.639C65.1868 107.105 64.1685 107.52 63.1309 107.881C62.8571 107.974 62.5594 107.966 62.2906 107.86C60.5192 107.248 58.8026 106.488 57.159 105.588C54.8026 104.301 52.576 102.789 50.5102 101.074C48.7926 99.6451 47.1811 98.093 45.6887 96.4301C43.9497 94.5055 42.3712 92.4417 40.969 90.2594C38.7594 86.8138 36.9338 83.1365 35.525 79.2933C34.2507 75.8111 33.2566 72.2327 32.5521 68.5922C32.1686 66.6545 31.8633 64.7009 31.6361 62.7316C31.4562 61.16 31.3023 59.5883 31.1887 58.0095C31.0633 56.284 31.0065 54.5609 30.9686 52.833C30.9449 51.8412 30.9047 50.8518 30.9213 49.8624C30.9473 48.35 30.971 46.8351 31.0349 45.325C31.0538 44.8516 31.1272 44.3569 31.113 43.8717C31.1016 43.7559 31.1298 43.6398 31.193 43.5422C31.2562 43.4446 31.3507 43.3713 31.4609 43.3344C33.1557 42.532 34.8409 41.7177 36.531 40.9082L41.4069 38.5791L54.8039 32.1528C57.2395 30.9859 59.6822 29.8285 62.1107 28.6473C62.2953 28.5432 62.5036 28.4885 62.7155 28.4885C62.9274 28.4885 63.1357 28.5432 63.3203 28.6473C68.3698 31.1421 73.4327 33.6235 78.5091 36.0914L88.9426 41.1994C90.351 41.8881 91.7499 42.5911 93.17 43.2539C93.344 43.3215 93.4917 43.443 93.5918 43.6005C93.6919 43.7581 93.739 43.9435 93.7263 44.1297C93.8281 46.3475 93.8991 48.5795 93.821 50.814Z" fill="#1C1609"/>
        <path d="M97.5608 71.3452C97.5963 71.3784 97.646 71.4162 97.575 71.4588C97.575 71.4588 97.5253 71.4257 97.4993 71.4068L97.5608 71.3452Z" fill="white"/>
        <path d="M96.9449 30.4652C96.9332 30.4652 96.9214 30.4934 96.9097 30.4934C96.898 30.4934 96.8886 30.4723 96.8792 30.4605C96.8698 30.4488 96.9027 30.4324 96.9144 30.4324C96.9261 30.4324 96.9355 30.4535 96.9449 30.4652Z" fill="#C1A575"/>
        <path d="M26.3506 31.5755C26.3837 31.5352 26.4145 31.4926 26.4453 31.4524L26.5186 31.5258L26.3861 31.611L26.3506 31.5755Z" fill="#C1A575"/>
        <path d="M26.3855 31.6199C26.362 31.6621 26.3409 31.7137 26.2893 31.6457C26.3087 31.6237 26.3299 31.6033 26.3526 31.5847L26.3855 31.6199Z" fill="#C1A575"/>
        <path d="M60.2574 109.922C59.7059 109.614 59.2112 109.325 58.7023 109.056C58.4941 108.944 58.5556 108.769 58.5556 108.611C58.5556 104.909 58.5556 101.208 58.5556 97.5072V92.4277C58.5556 91.7176 58.3047 91.4525 57.5875 91.4525H46.5598C45.8639 91.4525 45.5846 91.7342 45.5846 92.4348C45.5846 93.855 45.5846 95.2964 45.5846 96.7261C45.597 96.884 45.5651 97.0422 45.4923 97.1829C45.0923 96.6077 44.7041 96.0207 44.2875 95.4574C44.0977 95.2088 43.9597 94.9246 43.8816 94.6218C43.8036 94.3189 43.787 94.0034 43.8331 93.694C43.9159 92.9958 43.7431 92.2738 43.9491 91.5827C44.0624 91.1157 44.3115 90.6927 44.6649 90.3671C45.0183 90.0415 45.4602 89.8278 45.9349 89.753C46.1503 89.7104 46.1716 89.6512 46.1077 89.4595C45.4611 87.7738 45.0223 86.0156 44.8012 84.2238C44.6606 83.1588 44.5887 82.086 44.5858 81.0118C44.5763 77.4677 44.5621 73.9235 44.5432 70.3794C44.5375 69.7014 44.8004 69.0486 45.2745 68.5638C45.7487 68.0791 46.3954 67.8017 47.0734 67.7923C47.7356 67.8011 48.3671 68.0722 48.8295 68.5461C49.292 69.0201 49.5474 69.6581 49.5398 70.3202C49.5398 71.1203 49.5398 71.9203 49.5398 72.7203C49.5398 72.886 49.5256 73.0494 49.7765 72.976C50.4582 72.7843 51.0689 72.9925 51.6441 73.331C51.7094 73.3888 51.7936 73.4206 51.8808 73.4206C51.9679 73.4206 52.0521 73.3888 52.1174 73.331C52.4322 73.0887 52.802 72.928 53.1939 72.8632C53.5858 72.7983 53.9877 72.8314 54.3637 72.9594C54.3637 71.2528 54.3637 69.5747 54.3637 67.8965C54.3547 67.3619 54.5105 66.8375 54.8099 66.3946C55.1093 65.9516 55.5378 65.6116 56.0371 65.4206C56.4126 65.2826 56.8155 65.236 57.2125 65.2845C57.6096 65.333 57.9894 65.4753 58.3205 65.6996C58.6517 65.9239 58.9247 66.2239 59.1171 66.5746C59.3094 66.9253 59.4155 67.3167 59.4266 67.7166V73.8186C60.4042 73.3239 61.4078 73.4541 62.3948 73.4281C62.6315 73.4281 62.7191 73.4967 62.7167 73.7429C62.7167 76.5383 62.7688 79.336 62.6883 82.129C62.641 83.7859 61.9782 85.2771 60.9628 86.5978C60.1438 87.6535 59.3485 88.7281 58.5201 89.8193C59.0056 90.0126 59.4347 90.3252 59.7675 90.7282C60.0757 91.1229 60.2469 91.6074 60.2551 92.1081C60.2551 97.9766 60.2551 103.844 60.2551 109.709C60.2716 109.751 60.2645 109.804 60.2574 109.922ZM57.7414 73.7973C57.7414 71.8422 57.7414 69.8871 57.7414 67.9296C57.7414 67.3331 57.4265 66.9994 56.9106 67.0041C56.4869 67.0041 56.2147 67.3521 56.2005 67.913C56.2005 68.3604 56.2005 68.8054 56.2005 69.2527C56.2005 71.9037 56.2005 74.5547 56.2005 77.2057C56.2005 77.5229 56.1129 77.62 55.8052 77.5939C55.49 77.5714 55.1736 77.5714 54.8584 77.5939C54.5625 77.6152 54.4394 77.5395 54.456 77.2105C54.4844 76.6613 54.456 76.1098 54.456 75.5536C54.456 74.9429 54.1081 74.5476 53.5897 74.5595C53.1281 74.5595 52.8465 74.9287 52.8394 75.5276C52.8323 76.1264 52.8228 76.6566 52.8394 77.2199C52.8394 77.5229 52.7447 77.6105 52.4559 77.5892C52.1145 77.5714 51.7724 77.5714 51.431 77.5892C51.1943 77.5892 51.0878 77.549 51.102 77.2673C51.1304 76.6779 51.102 76.0838 51.102 75.4944C51.1136 75.3838 51.103 75.272 51.0709 75.1656C51.0388 75.0591 50.9858 74.9601 50.915 74.8743C50.8132 74.7524 50.6767 74.6644 50.5236 74.6222C50.3705 74.5799 50.2081 74.5852 50.0582 74.6376C49.6747 74.7654 49.5848 75.111 49.5706 75.4566C49.5517 76.0317 49.5517 76.6116 49.5706 77.1868C49.5706 77.4827 49.5233 77.6223 49.1895 77.5916C48.8628 77.5608 48.5339 77.5608 48.2072 77.5916C47.8782 77.6223 47.8214 77.4874 47.8214 77.1915C47.8356 74.9997 47.8214 72.8056 47.8214 70.6137C47.8297 70.4829 47.8297 70.3517 47.8214 70.2208C47.7957 70.0442 47.7119 69.8812 47.5834 69.7573C47.4548 69.6335 47.2888 69.5559 47.1113 69.5368C46.7208 69.4989 46.5101 69.6954 46.3823 70.048C46.3273 70.2231 46.3057 70.407 46.3184 70.5901C46.3184 73.0423 46.3184 75.4944 46.3776 77.9466C46.4273 79.7905 46.3373 81.6391 46.5646 83.4806C46.7714 85.1 47.1344 86.6957 47.6486 88.2453C47.7717 88.6263 48.0084 88.9814 47.9895 89.3956C47.9776 89.6702 48.0841 89.727 48.3303 89.7246C51.0586 89.7246 53.7885 89.7246 56.52 89.7246C56.7165 89.7246 56.8301 89.6867 56.875 89.4642C56.9441 89.1565 57.0835 88.8689 57.2822 88.624C58.0601 87.603 58.8381 86.5773 59.616 85.5469C60.2258 84.7575 60.641 83.8355 60.8279 82.8557C60.9983 81.9704 60.9581 81.0805 60.9604 80.1905C60.9604 78.6023 60.9604 77.014 60.9604 75.4258C60.9604 75.1512 60.9084 75.1039 60.6338 75.1891C60.2816 75.2776 59.9694 75.4818 59.747 75.7689C59.5247 76.056 59.4052 76.4095 59.4077 76.7726C59.3911 77.7052 59.3864 78.6378 59.4077 79.568C59.4077 79.852 59.3604 79.9751 59.0479 79.949C58.721 79.923 58.3925 79.923 58.0656 79.949C57.7627 79.9751 57.694 79.8591 57.6964 79.5727C57.7485 77.6555 57.7414 75.7264 57.7414 73.7973Z" fill="#C1A575"/>
        <path d="M84.507 93.6941C84.1354 93.6941 84.1828 93.5308 84.2845 93.2634C85.1989 90.8348 85.6889 88.2671 85.7331 85.6725C85.7994 81.8854 85.7828 78.1148 85.8018 74.3347C85.8132 73.6595 85.5575 73.0071 85.0903 72.5194C84.623 72.0318 83.9821 71.7485 83.307 71.7311C81.9128 71.7311 80.8169 72.8507 80.8075 74.3111C80.8075 75.0993 80.8075 75.8851 80.8075 76.678C80.8075 76.7893 80.8666 76.9928 80.6371 76.9266C79.8962 76.7135 79.2405 76.9384 78.6251 77.3171C78.4594 77.4189 78.3884 77.3621 78.2559 77.2721C77.9911 77.0604 77.6828 76.9097 77.353 76.8307C77.0233 76.7517 76.6801 76.7465 76.3481 76.8153C75.967 76.8958 75.9812 76.7585 75.9812 76.4887C75.9812 74.9786 76.0002 73.4684 75.9812 71.9583C75.9896 71.5298 75.909 71.1043 75.7445 70.7086C75.5064 70.1783 75.0967 69.7435 74.5815 69.4743C74.0663 69.2051 73.4755 69.1171 72.9042 69.2245C71.9574 69.3949 70.9585 70.4671 70.9136 71.4092C70.8946 71.8684 70.9136 72.3276 70.9136 72.7868V77.7574C69.9668 77.284 69.0011 77.3787 68.0353 77.3526C67.6969 77.3526 67.6211 77.4662 67.6235 77.781C67.6353 80.3847 67.6235 82.9884 67.6235 85.5778C67.6106 86.9734 67.9877 88.3449 68.7123 89.5378C69.5715 90.9579 70.6579 92.203 71.645 93.5237C71.7917 93.7202 71.813 93.7723 71.5598 93.893C71.1017 94.0813 70.7129 94.4061 70.446 94.8233C70.1792 95.2404 70.0474 95.7297 70.0686 96.2244C70.0686 99.2447 70.0686 102.263 70.0686 105.28L70.1774 105.174C70.3932 104.966 70.6798 104.848 70.9794 104.843C71.279 104.838 71.5693 104.947 71.7917 105.148C71.7917 102.241 71.7917 99.333 71.7917 96.4233C71.7917 95.6327 72.0284 95.4031 72.8261 95.4031C76.4049 95.4031 79.9838 95.4031 83.5626 95.4031C83.8869 94.8185 84.1993 94.2551 84.507 93.6941ZM81.7093 93.6586C79.1246 93.6492 76.5391 93.6492 73.9527 93.6586C73.6616 93.6586 73.4794 93.6373 73.4083 93.2823C73.318 92.9657 73.156 92.6742 72.935 92.4302C72.0308 91.2467 71.0769 90.0893 70.2603 88.8371C69.6784 87.9269 69.3695 86.8689 69.3703 85.7885C69.3324 83.6582 69.3585 81.509 69.3466 79.3693C69.3466 79.0947 69.3916 79.0426 69.6709 79.1326C70.4354 79.3858 70.8781 79.9113 70.8946 80.7184C70.9159 81.6487 70.9254 82.5813 70.8946 83.5115C70.8946 83.8452 70.9964 83.9138 71.2899 83.8925C71.6051 83.8688 71.9216 83.8688 72.2367 83.8925C72.5349 83.9186 72.6083 83.8121 72.6083 83.5209C72.5941 81.5777 72.6083 79.6344 72.6083 77.6935V71.9086C72.6083 71.5181 72.6912 71.1796 73.0817 71.0044C73.1709 70.954 73.2704 70.9246 73.3727 70.9185C73.475 70.9124 73.5774 70.9297 73.6719 70.9692C73.7665 71.0087 73.8508 71.0694 73.9183 71.1464C73.9858 71.2235 74.0349 71.315 74.0616 71.4139C74.1227 71.6009 74.1499 71.7973 74.1421 71.9938C74.1421 75.0259 74.1421 78.058 74.1421 81.0901C74.1421 81.4167 74.1918 81.5753 74.5634 81.528C74.9871 81.4759 75.5647 81.7078 75.8061 81.438C76.0475 81.1682 75.87 80.638 75.8771 80.219C75.8771 79.9302 75.8771 79.6415 75.8771 79.3527C75.8788 79.1279 75.967 78.9124 76.1235 78.7511C76.28 78.5897 76.4927 78.4949 76.7174 78.4864C76.823 78.4894 76.9269 78.5136 77.023 78.5575C77.1191 78.6015 77.2053 78.6643 77.2766 78.7422C77.348 78.8201 77.4029 78.9116 77.4381 79.0112C77.4734 79.1108 77.4883 79.2165 77.4819 79.3219C77.5008 79.9373 77.4985 80.5551 77.4819 81.1729C77.4819 81.4451 77.5553 81.5445 77.8369 81.528C78.2014 81.5066 78.5707 81.5137 78.9376 81.528C79.1577 81.528 79.2287 81.4782 79.2216 81.2415C79.2003 80.5859 79.2216 79.9302 79.2216 79.2746C79.2317 79.0944 79.3043 78.9235 79.4271 78.7912C79.5498 78.659 79.7149 78.5738 79.8938 78.5503C79.98 78.5287 80.0697 78.5249 80.1575 78.5391C80.2452 78.5532 80.3291 78.5851 80.4042 78.6327C80.4792 78.6802 80.5438 78.7426 80.594 78.8159C80.6442 78.8893 80.679 78.972 80.6962 79.0592C80.8359 79.6273 80.7459 80.2095 80.7578 80.7847C80.772 81.5232 80.7578 81.5232 81.4986 81.5232C82.5022 81.5232 82.5022 81.5232 82.4999 80.5315C82.4999 78.4959 82.4999 76.4611 82.4999 74.4271C82.4877 74.2987 82.5025 74.1693 82.5432 74.047C82.584 73.9247 82.6498 73.8123 82.7366 73.717C82.8384 73.6033 82.9736 73.5246 83.1228 73.4923C83.272 73.46 83.4276 73.4757 83.5674 73.5371C83.92 73.6933 84.0123 74.0341 84.0147 74.3892C84.0147 76.0461 84.0526 77.7242 84.0147 79.3882C83.9579 81.4451 84.0005 83.5044 83.9319 85.5589C83.824 88.1092 83.3078 90.6257 82.4028 93.0125C82.3839 93.0622 82.3389 93.1142 82.3484 93.1568C82.4312 93.6918 82.088 93.661 81.7093 93.6586Z" fill="#C1A575"/>
        <path d="M62.5608 48.0803C62.8709 46.6815 63.4721 45.382 63.981 44.0565C64.0396 43.8694 64.1075 43.6853 64.1845 43.505C64.2563 43.366 64.2909 43.2108 64.2851 43.0545C64.2793 42.8982 64.2332 42.746 64.1514 42.6127C63.4034 41.1783 63.5597 39.8125 64.5301 38.5083C64.639 39.1001 65.0035 39.5687 65.3136 40.0492C65.8554 40.8656 66.0708 41.8557 65.9171 42.8233C65.8059 43.7251 65.9171 44.6317 65.8745 45.5359C65.8745 45.6116 65.8627 45.711 65.9645 45.7252C66.0663 45.7394 66.0876 45.6376 66.1302 45.5785C66.6364 44.8569 66.987 44.0379 67.1598 43.1736C67.4817 41.628 67.3965 40.0729 67.2568 38.5154C67.1677 37.5889 67.1353 36.6577 67.1598 35.7272C67.1882 34.8324 67.3539 33.978 68.0403 33.3223C68.0545 33.3081 68.0853 33.3081 68.1303 33.2963C67.986 34.325 68.1032 35.3735 68.4711 36.3449C68.5161 36.4633 68.5232 36.6432 68.6889 36.6242C68.8546 36.6053 68.7954 36.4349 68.8167 36.326C69.0092 35.441 69.3365 34.5908 69.7871 33.8052C70.315 32.8253 70.8807 31.8666 71.2073 30.7849C71.5482 29.5338 71.5227 28.2112 71.1339 26.9741C71.3135 27.215 71.4607 27.4784 71.5718 27.7576C71.7049 28.0369 71.8234 28.3229 71.9269 28.6144C72.0769 29.0597 72.3189 29.4686 72.637 29.8145C73.6264 30.8725 73.9388 32.1696 73.8559 33.6016C73.8039 34.4987 73.5246 35.3437 73.321 36.2053C73.0668 37.2589 73.1496 38.3658 73.5577 39.3699C73.5979 39.4693 73.6027 39.6326 73.7589 39.6255C73.9151 39.6184 73.9128 39.4622 73.9483 39.3581C74.2378 38.5137 74.3974 37.6302 74.4217 36.7378C74.4186 36.6087 74.433 36.4797 74.4643 36.3544C74.8316 36.8893 75.0957 37.4882 75.243 38.1202C75.4842 39.1852 75.4923 40.2897 75.2667 41.3582C75.2155 41.4952 75.2109 41.6454 75.2537 41.7853C75.2965 41.9252 75.3843 42.0472 75.5033 42.1322C76.1919 42.6633 76.6679 43.423 76.8454 44.2743C77.2028 44.0257 77.4182 43.7535 77.3733 43.3275C77.2857 42.5227 77.165 41.7203 77.0253 40.9226C76.8289 39.8054 76.6845 38.6882 77.2336 37.6089C77.2635 37.5469 77.3072 37.4927 77.3614 37.4503C77.3683 38.1632 77.4718 38.8718 77.6691 39.5569C77.9674 40.622 78.4668 41.602 78.9189 42.6008C79.1082 43.0174 79.3047 43.4316 79.4964 43.8458C79.5343 43.9263 79.5414 44.0376 79.6645 44.0305C79.7876 44.0234 79.7876 43.9429 79.8183 43.8695C80.4787 42.3191 81.3214 40.8422 81.7876 39.2066C81.9704 38.5557 82.0432 37.879 82.003 37.2041C82.2611 37.5 82.4259 37.8657 82.4764 38.2551C82.5708 38.9307 82.5572 39.617 82.4362 40.2883C82.2918 41.2587 82.1498 42.2292 82.0291 43.2044C81.9979 43.4081 82.013 43.6162 82.0732 43.8133C82.1334 44.0104 82.2373 44.1914 82.377 44.3429C83.3475 45.4719 83.8327 46.8424 84.1664 48.2697C84.3009 48.6681 84.3727 49.0849 84.3795 49.5053C84.2927 49.4444 84.2133 49.3737 84.1428 49.2946C83.5203 48.4093 82.6445 48.0945 81.5983 48.0945C76.8249 48.104 72.0492 48.104 67.271 48.0945C65.7065 48.0969 64.1348 48.0874 62.5608 48.0803Z" fill="#D14947"/>
        <path d="M41.9467 42.9816C42.3437 43.4357 42.6571 43.9566 42.8722 44.5201C42.9649 44.7499 43.1239 44.9468 43.329 45.0858C43.842 45.4427 44.3178 45.8503 44.7492 46.3025C44.786 46.2438 44.8096 46.1779 44.8182 46.1092C44.8267 46.0404 44.8202 45.9707 44.7989 45.9048C44.6255 44.9716 44.7157 44.0085 45.0592 43.1236C45.3196 42.4135 45.3172 41.6585 45.5468 40.946C45.9852 39.5467 46.8997 38.345 48.1315 37.5494C47.8226 39.1405 47.8484 40.7785 48.2073 42.3591C48.2759 42.6526 48.444 42.7047 48.6996 42.6573C48.9864 42.567 49.2433 42.4003 49.4426 42.1752C49.6419 41.95 49.7762 41.6748 49.831 41.3792C49.8878 40.6691 49.7434 39.9921 49.6582 39.3057C49.5257 38.2169 49.4405 37.1376 49.8665 36.0937C49.8938 36.0204 49.901 35.9412 49.8872 35.8641C49.8735 35.7871 49.8394 35.7152 49.7884 35.6559C49.5967 35.3292 49.3908 35.0097 49.1943 34.6854C48.4132 33.3954 48.1576 32.0817 48.7209 30.6024C49.2073 29.2984 49.448 27.9157 49.431 26.5241C49.5658 26.5907 49.6851 26.685 49.7809 26.8008C49.8768 26.9166 49.9471 27.0514 49.9872 27.1963C50.2807 27.8851 50.2831 28.6165 50.3044 29.3574C50.3328 30.3397 50.3234 31.3219 50.5766 32.2829C50.663 32.5847 50.7771 32.8779 50.9175 33.1587C50.9553 33.2345 50.9908 33.3055 51.0831 33.3031C51.2252 33.3031 51.1944 33.1776 51.1991 33.0972C51.2345 32.517 51.396 31.9516 51.6725 31.4403C51.7295 31.2526 51.7512 31.056 51.7364 30.8604C51.9589 30.9125 51.9921 31.1113 52.0725 31.2841C52.311 31.7674 52.4494 32.2939 52.4797 32.8321C52.4797 32.9054 52.4607 33.0049 52.5554 33.0356C52.6501 33.0664 52.7164 32.9812 52.7613 32.9007C53.0138 32.4397 53.1746 31.9341 53.2347 31.4119C53.3378 30.6716 53.3876 29.9249 53.3838 29.1775C53.3838 28.3916 53.4051 27.6058 53.7247 26.8626C53.8363 26.6072 54.0095 26.3836 54.2288 26.2117C54.2454 26.7253 54.2715 27.2034 54.3235 27.6792C54.4437 28.7002 54.6779 29.7046 55.0218 30.6734C55.4549 31.9255 55.223 33.0711 54.6028 34.1812C54.3401 34.6546 54.0561 35.1091 53.7815 35.5706C53.6963 35.7079 53.6111 35.8499 53.6939 36.0109C54.3235 37.2086 54.2004 38.4678 54.0324 39.7389C53.9515 40.2041 53.9071 40.675 53.8998 41.1472C53.8998 41.694 54.5697 42.4277 55.1188 42.4467C55.1803 42.4572 55.2433 42.4544 55.3036 42.4385C55.3638 42.4226 55.42 42.3939 55.4683 42.3544C55.5165 42.3149 55.5557 42.2655 55.5832 42.2096C55.6107 42.1536 55.6259 42.0924 55.6277 42.0301C55.811 40.9566 55.8445 39.8629 55.7271 38.7802C55.7129 38.6572 55.6348 38.527 55.8289 38.4323C55.9189 38.3897 55.8549 38.2145 55.8123 38.1057C55.7153 37.8524 55.6111 37.5991 55.5046 37.3364C56.1816 37.6275 57.0881 38.6572 57.4503 39.2678C58.0176 40.2167 58.3427 41.2905 58.3971 42.3946C58.4325 42.6937 58.5173 42.9848 58.648 43.2562C58.925 43.9524 59.0525 44.6992 59.0219 45.448C59.0219 45.5545 58.9604 45.7084 59.1072 45.7581C59.216 45.7936 59.2823 45.6681 59.3604 45.5995C59.5081 45.4524 59.6663 45.3164 59.8338 45.1924C60.6054 44.6882 61.3274 44.1391 61.7463 43.2822C61.7582 43.2562 61.8102 43.2491 61.8812 43.2159C61.4644 44.8378 61.595 46.5519 62.2529 48.0919H60.1084C60.1818 47.3463 60.2835 46.6054 60.4066 45.8598C59.9845 46.5389 59.7141 47.3011 59.6137 48.0943C59.4575 48.0943 59.3012 48.1108 59.1403 48.1108C55.0928 48.1108 51.0461 48.1108 47.0001 48.1108C45.9989 48.1108 44.9835 48.0019 44.013 48.3688C43.9321 47.8061 43.7669 47.2587 43.5231 46.7451C43.5775 47.3889 43.6248 47.9735 43.6746 48.5582C43.1588 48.7748 42.6943 49.0974 42.3112 49.505C41.97 49.9252 41.688 50.3903 41.4733 50.8873C41.2129 49.7653 41.1182 48.6671 41.5987 47.5499C42.157 46.2199 42.2893 44.7496 41.9774 43.3414C41.9599 43.2246 41.9497 43.1068 41.9467 42.9887V42.9816Z" fill="#D14947"/>
        <path d="M41.4758 50.8779C41.6905 50.3809 41.9725 49.9158 42.3137 49.4955C42.6968 49.0879 43.1613 48.7654 43.677 48.5488C43.7883 48.4801 43.9019 48.4138 44.0155 48.3476C44.986 47.9807 46.0014 48.0919 47.0026 48.0896C51.0501 48.0896 55.0969 48.0896 59.1428 48.0896C59.299 48.0896 59.4552 48.0777 59.6162 48.073H60.1109H62.2553H62.5654C64.1394 48.073 65.7111 48.0896 67.2851 48.0919C72.0617 48.0919 76.8374 48.0919 81.6124 48.0919C82.6586 48.0919 83.5344 48.4067 84.1569 49.292C84.2274 49.3711 84.3068 49.4418 84.3936 49.5026C84.7209 49.8182 84.9806 50.197 85.1568 50.6162C85.333 51.0353 85.422 51.486 85.4185 51.9406C85.4445 58.4119 85.4185 64.8832 85.4185 71.3497C85.4185 71.4113 85.4185 71.4728 85.4185 71.5864C85.2173 71.3789 84.9768 71.2137 84.711 71.1003C84.4452 70.9869 84.1594 70.9276 83.8705 70.926C83.7261 70.926 83.6953 70.8479 83.6977 70.7272C83.7 70.6065 83.6977 70.5166 83.6977 70.4124C83.6977 64.4382 83.6977 58.4655 83.6977 52.4945C83.704 51.7823 83.4488 51.0925 82.9805 50.5559C82.3698 49.8175 81.5485 49.7701 80.6916 49.8009C80.5023 49.8009 80.5401 49.9429 80.5401 50.0518C80.5401 50.421 80.5259 50.7879 80.5401 51.1548C80.5401 51.3678 80.4691 51.4223 80.2679 51.4199C78.772 51.4199 77.2729 51.4199 75.7707 51.4199C75.579 51.4199 75.5198 51.3583 75.534 51.1832C75.5458 50.8542 75.5174 50.5252 75.534 50.1985C75.5506 49.8719 75.4583 49.8009 75.1435 49.8033C73.2499 49.8175 71.3563 49.8033 69.4746 49.8033H51.6892C51.1709 49.8033 51.1756 49.8033 51.1709 50.3311C51.1709 50.6838 51.2845 51.1524 51.1069 51.356C50.9294 51.5595 50.4371 51.4152 50.0868 51.4175C48.9033 51.4175 47.7198 51.4175 46.5363 51.4294C46.231 51.4294 46.1529 51.3418 46.1742 51.053C46.1979 50.7145 46.1742 50.3713 46.1742 50.0305C46.1742 49.8956 46.1482 49.8104 45.9848 49.7938C44.9315 49.7393 43.8924 49.9074 43.2723 51.1051C43.0837 51.4955 42.9943 51.9264 43.0119 52.3596V78.0885C43.0119 78.7347 43.1397 79.3382 43.6155 79.8164C43.7504 79.9513 43.7291 80.053 43.6155 80.1785C43.3362 80.4554 43.0569 80.7347 42.7823 81.014C42.6356 81.1655 42.5172 81.1797 42.3586 81.014C41.7053 80.3719 41.3297 79.4991 41.3124 78.5832C41.2998 69.6834 41.2998 60.7836 41.3124 51.8838C41.3478 51.5457 41.4023 51.2098 41.4758 50.8779Z" fill="#C1A575"/>
        <path d="M82.1425 65.2762C82.1425 67.0467 82.1425 68.8266 82.1425 70.59C82.1425 70.8883 82.0762 70.9924 81.7567 70.9877C80.3554 70.9719 78.9526 70.9719 77.5482 70.9877C77.2239 70.9877 77.16 70.8812 77.16 70.5829C77.1695 67.0277 77.1695 63.4733 77.16 59.9197C77.16 59.5789 77.2453 59.47 77.5956 59.4748C78.9731 59.4937 80.3499 59.4937 81.7259 59.4748C82.0478 59.4748 82.1472 59.5505 82.1449 59.8866C82.133 61.6808 82.1425 63.4797 82.1425 65.2762ZM78.8832 65.2028C78.8832 66.4478 78.8832 67.6952 78.8832 68.9403C78.8832 69.1769 78.9211 69.3 79.2004 69.2787C79.5275 69.2586 79.8555 69.2586 80.1827 69.2787C80.3933 69.2787 80.4478 69.2148 80.4478 69.0089C80.4478 66.4841 80.4478 63.9657 80.4478 61.4535C80.4478 61.2334 80.3625 61.1884 80.1708 61.1955C79.8555 61.2146 79.5393 61.2146 79.224 61.1955C78.9424 61.1719 78.8737 61.2713 78.8761 61.5435C78.8903 62.7625 78.8832 63.9815 78.8832 65.2028Z" fill="#C1A575"/>
        <path d="M64.634 70.9874C63.2565 70.9874 61.8789 70.9874 60.5037 70.9874C60.2126 70.9874 60.106 70.914 60.1321 70.6134C60.1581 70.2865 60.1581 69.9581 60.1321 69.6311C60.106 69.3282 60.2173 69.2572 60.5061 69.2595C62.5937 69.2595 64.679 69.2595 66.7643 69.2595C67.3892 69.2595 67.3892 69.2595 67.3892 68.6489C67.3892 67.7021 67.3892 67.7021 66.4424 67.7021C64.4755 67.7021 62.5061 67.7021 60.5392 67.7021C60.2386 67.7021 60.1084 67.6429 60.1416 67.3163C60.1689 67.0013 60.1689 66.6845 60.1416 66.3695C60.1155 66.057 60.222 65.9647 60.5368 65.9671C62.0967 65.9813 63.6589 65.9671 65.2187 65.9671C66.4022 65.9671 67.5857 65.9671 68.7691 65.9671C69.0319 65.9671 69.1336 66.0239 69.1289 66.3174C69.1123 67.7376 69.11 69.1767 69.1289 70.6063C69.1289 70.9259 69.0129 70.9708 68.7407 70.9685C67.3632 70.9827 66.0093 70.9874 64.634 70.9874Z" fill="#C1A575"/>
        <path d="M58.1439 38.9435C57.3817 37.6464 57.0788 36.328 57.6942 34.9197C57.7461 34.7578 57.767 34.5875 57.7557 34.4179C57.8196 32.5882 58.4492 30.9218 59.2351 29.1821C59.3203 30.1692 59.3842 31.0497 59.4718 31.9254C59.6256 33.4139 60.0255 34.8664 60.6553 36.2238C60.7026 36.3256 60.7168 36.4866 60.8706 36.4605C61.0245 36.4345 60.9606 36.2854 60.9819 36.1931C61.1215 35.5966 61.2541 35.0096 61.415 34.2995C62.3618 37.0594 62.0896 39.6039 60.7476 42.1105C60.5913 41.772 60.4683 41.4667 60.3144 41.1803C59.7984 40.2074 59.2706 39.2417 58.7451 38.276C58.7049 38.1979 58.6859 38.0795 58.5723 38.0914C58.4587 38.1032 58.4374 38.2334 58.4114 38.3281C58.3679 38.5502 58.2766 38.7602 58.1439 38.9435Z" fill="#D14947"/>
        <path d="M45.5636 38.6881C45.5091 38.591 45.4784 38.539 45.45 38.4821C45.3718 38.3307 45.4286 38.049 45.2133 38.0466C45.0594 38.0466 45.0286 38.3046 44.9529 38.449C44.3517 39.5828 43.6534 40.6621 43.1327 41.8361C43.0641 41.99 43.0025 42.1462 42.9362 42.3095C41.6391 41.2657 41.1681 36.1909 42.2261 34.6453C42.3658 35.2631 42.5007 35.8572 42.6333 36.4513C42.6546 36.546 42.6167 36.688 42.7658 36.688C42.9149 36.688 42.9173 36.5673 42.9599 36.475C43.5974 35.0801 44.0035 33.5907 44.1623 32.0653C44.2475 31.2203 44.3304 30.3777 44.3469 29.4143C44.6148 29.8741 44.8383 30.3584 45.0144 30.8605C45.484 31.9724 45.7794 33.1499 45.8902 34.3518C45.9091 34.6051 46.1269 34.7755 46.1884 35.0193C46.5435 36.3164 46.276 37.5046 45.5636 38.6881Z" fill="#D14947"/>
        <path d="M73.167 59.489C73.8771 59.489 74.5872 59.489 75.2973 59.489C75.534 59.489 75.6405 59.5458 75.6381 59.818C75.6271 61.2476 75.6271 62.6781 75.6381 64.1093C75.6381 64.3838 75.56 64.4738 75.2807 64.4714C73.8511 64.4604 72.4207 64.4604 70.9894 64.4714C70.7267 64.4714 70.6533 64.3933 70.6533 64.1353C70.6628 62.6915 70.6628 61.2476 70.6533 59.8038C70.6533 59.5671 70.7267 59.4842 70.9681 59.489C71.6901 59.4961 72.4309 59.489 73.167 59.489ZM73.167 61.1955C72.3528 61.1955 72.3528 61.1955 72.3528 62.005C72.3528 62.7577 72.3528 62.7577 73.1031 62.7577C73.9174 62.7577 73.9174 62.7577 73.9174 61.9506C73.9221 61.2074 73.9221 61.2074 73.1718 61.2074L73.167 61.1955Z" fill="#C1A575"/>
        <path d="M73.1647 52.9798C73.8748 52.9798 74.6086 52.9798 75.3305 52.9798C75.5672 52.9798 75.6477 53.0508 75.6477 53.2922C75.6382 54.736 75.6382 56.1799 75.6477 57.6237C75.6477 57.8888 75.5483 57.9551 75.2997 57.9527C73.8559 57.9433 72.4128 57.9433 70.9705 57.9527C70.7078 57.9527 70.6392 57.8675 70.6415 57.6095C70.6534 56.1894 70.6557 54.7502 70.6415 53.3182C70.6415 53.0247 70.7409 52.9703 71.0013 52.9774C71.7209 52.9892 72.4428 52.9798 73.1647 52.9798ZM73.1482 56.2154C73.9174 56.2154 73.9174 56.2154 73.9174 55.4793C73.9174 54.6721 73.9174 54.6721 73.0937 54.6721C72.36 54.6721 72.3599 54.6721 72.3599 55.4201C72.3599 56.2154 72.36 56.2154 73.1482 56.2154Z" fill="#C1A575"/>
        <path d="M49.5235 61.9793C49.5235 62.7012 49.5235 63.4231 49.5235 64.145C49.5235 64.4101 49.4359 64.4788 49.1826 64.4764C47.753 64.4669 46.3233 64.4669 44.8937 64.4764C44.6333 64.4764 44.5529 64.3888 44.5552 64.1356C44.5647 62.6917 44.5647 61.2486 44.5552 59.8064C44.5552 59.5697 44.6144 59.4797 44.8629 59.4797C46.3194 59.4892 47.7759 59.4892 49.2323 59.4797C49.4548 59.4797 49.5258 59.5531 49.5211 59.7756C49.5164 60.5094 49.5235 61.2455 49.5235 61.9793ZM47.8382 62.0053C47.8382 61.1981 47.8382 61.1981 47.0287 61.1981C46.276 61.1981 46.276 61.1981 46.2807 61.9532C46.2807 62.7556 46.2807 62.7556 47.0926 62.7556C47.8382 62.7556 47.8382 62.7556 47.8382 62.0053Z" fill="#C1A575"/>
        <path d="M64.1443 61.9673C64.1443 61.2572 64.1443 60.5234 64.1443 59.8015C64.1443 59.5648 64.1987 59.4796 64.4496 59.482C65.9077 59.482 67.3634 59.482 68.8214 59.482C69.0392 59.482 69.1197 59.5483 69.1197 59.7755C69.1102 61.232 69.1102 62.6884 69.1197 64.1449C69.1197 64.4171 69.0084 64.4739 68.7646 64.4715C67.3444 64.4715 65.9053 64.4715 64.4733 64.4715C64.2058 64.4715 64.1419 64.3769 64.1467 64.1283C64.1514 63.4111 64.1443 62.6892 64.1443 61.9673ZM67.3918 61.9933C67.3918 61.198 67.3918 61.198 66.6367 61.198C65.8367 61.198 65.8367 61.198 65.8367 61.9862C65.8367 62.7744 65.8367 62.7555 66.6107 62.7555C67.3847 62.7555 67.3941 62.7579 67.3918 61.9933Z" fill="#C1A575"/>
        <path d="M53.5235 64.4597C52.8135 64.4597 52.1034 64.4597 51.3933 64.4597C51.1566 64.4597 51.0737 64.3864 51.0737 64.1426C51.0832 62.6861 51.0832 61.2288 51.0737 59.7708C51.0737 59.5341 51.1518 59.4796 51.3672 59.482C52.8253 59.482 54.2825 59.482 55.739 59.482C55.9757 59.482 56.0586 59.5341 56.0562 59.7873C56.0436 61.2312 56.0436 62.6758 56.0562 64.1213C56.0562 64.3793 55.9804 64.4645 55.7224 64.4597C54.9934 64.4526 54.2573 64.4597 53.5235 64.4597ZM54.3662 61.9768C54.3662 61.1957 54.3662 61.1957 53.5993 61.1981C52.8324 61.2004 52.8016 61.1981 52.8016 61.9815C52.8016 62.765 52.8016 62.7579 53.5661 62.7579C54.3307 62.7579 54.3638 62.7579 54.3662 61.9768Z" fill="#C1A575"/>
        <path d="M62.5818 61.9933C62.5818 62.7034 62.5818 63.4135 62.5818 64.1236C62.5818 64.3603 62.5392 64.4739 62.2599 64.4715C60.8303 64.4605 59.3999 64.4605 57.9686 64.4715C57.7035 64.4715 57.6041 64.4076 57.6065 64.1212C57.6207 62.6916 57.6207 61.2611 57.6065 59.8299C57.6065 59.5814 57.6657 59.4867 57.9308 59.4891C59.3715 59.4985 60.8145 59.4985 62.2599 59.4891C62.525 59.4891 62.5866 59.5837 62.5818 59.8323C62.5724 60.5495 62.5818 61.2714 62.5818 61.9933ZM59.306 61.9602C59.306 62.7578 59.306 62.7578 60.0823 62.7555C60.8587 62.7531 60.8634 62.7555 60.8634 61.9602C60.8634 61.1649 60.8634 61.1956 60.0823 61.1956C59.3012 61.1956 59.3083 61.2075 59.306 61.9602Z" fill="#C1A575"/>
        <path d="M82.1377 55.4678C82.1377 56.1778 82.1377 56.9092 82.1377 57.6312C82.1377 57.8679 82.088 57.9507 81.8371 57.9483C80.3822 57.9389 78.9273 57.9389 77.4724 57.9483C77.2357 57.9483 77.1553 57.8702 77.1553 57.6312C77.1647 56.1763 77.1647 54.7214 77.1553 53.2665C77.1553 53.0298 77.231 52.9753 77.4511 52.9753C78.9187 52.9753 80.387 52.9753 81.8561 52.9753C82.0809 52.9753 82.1401 53.0369 82.1354 53.2641C82.1283 53.9979 82.1377 54.734 82.1377 55.4678ZM80.4383 55.4678C80.4383 54.6748 80.4383 54.6748 79.6359 54.6748C78.8855 54.6748 78.8855 54.6748 78.8855 55.4346C78.8855 56.1944 78.8855 56.2181 79.6832 56.2181C80.4477 56.2157 80.4477 56.2157 80.4477 55.4654L80.4383 55.4678Z" fill="#C1A575"/>
        <path d="M57.6159 55.4702C57.6159 54.7364 57.6159 54.0003 57.6159 53.2665C57.6159 53.0464 57.6656 52.973 57.8952 52.9754C59.3627 52.9754 60.8326 52.9754 62.3001 52.9754C62.5605 52.9754 62.596 53.0819 62.5936 53.302C62.5936 54.7459 62.5936 56.1882 62.5936 57.6288C62.5936 57.8655 62.5368 57.9531 62.2883 57.9508C60.8334 57.9413 59.3785 57.9413 57.9236 57.9508C57.6869 57.9508 57.6088 57.8774 57.6159 57.636C57.6254 56.9117 57.6159 56.1897 57.6159 55.4702ZM60.0705 56.2158C60.8539 56.2158 60.8539 56.2158 60.8563 55.4276C60.8587 54.6394 60.8563 54.6749 60.1036 54.6772C59.3509 54.6796 59.3201 54.6772 59.3178 55.4725C59.3154 56.2181 59.3154 56.2181 60.0705 56.2158Z" fill="#C1A575"/>
        <path d="M66.6365 57.9434C65.9028 57.9434 65.169 57.9434 64.4352 57.9434C64.2222 57.9434 64.1346 57.8889 64.137 57.6593C64.137 56.1902 64.137 54.7219 64.137 53.2544C64.137 53.0177 64.2104 52.968 64.4281 52.968C65.8957 52.968 67.3632 52.968 68.8307 52.968C69.0201 52.968 69.1124 53.0035 69.1124 53.2284C69.1124 54.7085 69.1124 56.1887 69.1124 57.6688C69.1124 57.9221 68.9893 57.941 68.7952 57.9386C68.078 57.941 67.3584 57.9434 66.6365 57.9434ZM66.62 56.2155C67.3868 56.2155 67.3869 56.2155 67.3869 55.4794C67.3869 54.6746 67.3869 54.6746 66.601 54.677C65.8152 54.6793 65.8483 54.677 65.8483 55.4415C65.8483 56.206 65.846 56.2155 66.62 56.2155Z" fill="#C1A575"/>
        <path d="M51.076 55.4273C51.076 54.7172 51.076 54.0072 51.076 53.2971C51.076 53.0793 51.1068 52.9657 51.3695 52.9681C52.8394 52.9681 54.307 52.9681 55.7768 52.9681C55.997 52.9681 56.0656 53.0272 56.0632 53.2545C56.0538 54.7125 56.0538 56.169 56.0632 57.6239C56.0632 57.8606 56.0017 57.9434 55.7579 57.941C54.3014 57.9316 52.845 57.9316 51.3885 57.941C51.1518 57.941 51.0689 57.8653 51.0737 57.6262C51.0831 56.8972 51.076 56.1635 51.076 55.4273ZM53.5661 56.2155C54.359 56.2155 54.359 56.2155 54.359 55.425C54.359 54.6794 54.359 54.6794 53.5969 54.6723C52.8347 54.6652 52.8087 54.6723 52.811 55.4723C52.8134 56.2155 52.8134 56.2155 53.5661 56.2155Z" fill="#C1A575"/>
        <path d="M47.0734 57.9433C46.3515 57.9433 45.6296 57.9433 44.91 57.9433C44.6733 57.9433 44.5644 57.8983 44.5668 57.619C44.581 56.1751 44.5668 54.7337 44.5668 53.2898C44.5668 53.0531 44.6189 52.9679 44.8698 52.9703C46.3247 52.9797 47.7804 52.9797 49.2368 52.9703C49.4948 52.9703 49.5374 53.0626 49.5351 53.2898C49.5351 54.7337 49.5351 56.1775 49.5351 57.619C49.5351 57.8888 49.4451 57.9504 49.1942 57.9456C48.4936 57.9338 47.7835 57.9433 47.0734 57.9433ZM46.2923 55.413C46.2923 56.2154 46.2923 56.2154 47.1089 56.2154C47.8427 56.2154 47.8427 56.2154 47.8427 55.484C47.8427 54.6721 47.8427 54.6721 47.0214 54.6721C46.2829 54.6721 46.2829 54.6721 46.2829 55.413H46.2923Z" fill="#C1A575"/>
        <path d="M75.6286 69.1416C75.1419 68.8771 74.6186 68.6865 74.0758 68.5759C73.8391 68.538 73.9149 68.3274 73.9291 68.1972C73.9599 67.8848 73.8462 67.7688 73.5362 67.809C73.3785 67.8186 73.2204 67.8186 73.0628 67.809C72.8545 67.809 72.6083 67.7498 72.445 67.8374C72.2817 67.925 72.3764 68.2185 72.3598 68.4173C72.3633 68.4687 72.3471 68.5195 72.3146 68.5595C72.2821 68.5995 72.2357 68.6256 72.1846 68.6327C71.6672 68.7678 71.1754 68.9869 70.729 69.2813C70.6082 69.2174 70.6509 69.1156 70.6485 69.0304C70.6485 68.1664 70.6485 67.3025 70.6485 66.4385C70.6485 66.1853 70.7171 66.0953 70.9799 66.0977C72.4205 66.1087 73.8612 66.1087 75.3019 66.0977C75.5552 66.0977 75.6428 66.1663 75.638 66.4314C75.6167 67.3214 75.6286 68.2067 75.6286 69.1416Z" fill="#C1A575"/>
        <path d="M53.8715 66.1091C53.6181 66.5049 53.5195 66.9802 53.5945 67.4441C53.6372 67.7352 53.5448 67.8702 53.2419 67.8133C52.8726 67.7447 52.7495 67.9057 52.7992 68.2583C52.8088 68.416 52.8088 68.5741 52.7992 68.7317C52.7992 69.3069 52.7992 69.3164 53.346 69.3732C53.5117 69.3897 53.5377 69.4631 53.5354 69.598C53.5354 70.017 53.5354 70.4359 53.5354 70.8549C53.5354 71.0277 53.4738 71.0916 53.2987 71.0916C52.6422 71.0916 51.9866 71.0916 51.3317 71.0916C51.1187 71.0916 51.0737 70.9898 51.0737 70.7981C51.0737 69.3274 51.0737 67.8583 51.0737 66.3908C51.0737 66.1872 51.1353 66.1139 51.3412 66.1139C52.1578 66.1115 52.9697 66.1091 53.8715 66.1091Z" fill="#C1A575"/>
        <path d="M78.6817 40.4535C78.1441 39.8404 77.8164 39.0715 77.7466 38.2591C77.6768 37.4466 77.8684 36.6331 78.2935 35.9373C78.6225 35.4189 79.0036 34.9313 79.1551 34.3159C80.1019 35.5515 80.2415 36.8083 79.5622 38.2735C79.3752 38.6782 79.1669 39.0711 78.9563 39.457C78.7813 39.7603 78.6868 40.1033 78.6817 40.4535Z" fill="#D14947"/>
        <path d="M49.5258 68.1921C48.1056 66.6346 46.0156 66.6133 44.5552 68.0619C44.5552 67.4228 44.5552 66.8429 44.5552 66.263C44.5552 66.0926 44.6996 66.1044 44.8155 66.1044C46.2973 66.1044 47.7782 66.1044 49.2583 66.1044C49.4382 66.1044 49.5163 66.1565 49.514 66.3411C49.5187 66.9352 49.5258 67.5246 49.5258 68.1921Z" fill="#C1A575"/>
        <path d="M65.3417 82.3704C65.0032 82.3325 64.4493 82.555 64.215 82.2852C63.9807 82.0153 64.1748 81.5112 64.1393 81.1017C64.1109 80.775 64.2174 80.6709 64.5464 80.6851C65.15 80.7135 65.7535 80.704 66.3547 80.6851C66.5914 80.6851 66.6861 80.7395 66.6719 80.9904C66.6506 81.3573 66.6577 81.7242 66.6719 82.0911C66.6719 82.2994 66.6033 82.368 66.3997 82.3609C66.0707 82.3633 65.7441 82.3704 65.3417 82.3704Z" fill="#C1A575"/>
        <path d="M65.4152 32.7683C66.1253 33.7411 66.1111 34.7116 65.5714 35.7057C65.3272 36.0849 65.1465 36.5015 65.0365 36.9389C64.7951 36.6479 64.6195 36.3081 64.5219 35.9428C64.4242 35.5775 64.4068 35.1955 64.4707 34.8228C64.5749 34.0417 65.1714 33.5139 65.4152 32.7683Z" fill="#D14947"/>
        <path d="M69.2118 25.3621C69.5859 25.9579 69.8001 26.6402 69.8337 27.3429C69.8673 28.0457 69.7191 28.7453 69.4035 29.3741C68.9637 28.8058 68.7093 28.116 68.675 27.3983C68.6407 26.6805 68.8281 25.9696 69.2118 25.3621Z" fill="#D14947"/>
        <path d="M41.9483 42.9791L41.9371 42.9746L41.9461 42.9813L41.9483 42.9791Z" fill="#D14947"/>
        <path d="M57.7415 73.7975C57.7415 75.7266 57.7415 77.6556 57.7415 79.5871C57.7415 79.8735 57.8077 79.9895 58.1107 79.9634C58.4376 79.9374 58.7661 79.9374 59.093 79.9634C59.4054 79.9895 59.4575 79.8664 59.4528 79.5823C59.4362 78.6521 59.4409 77.7195 59.4528 76.787C59.4503 76.4238 59.5698 76.0704 59.7921 75.7833C60.0144 75.4962 60.3267 75.292 60.6789 75.2035C60.9534 75.1206 61.0079 75.168 61.0055 75.4402C60.9937 77.0284 61.0055 78.6166 61.0055 80.2049C61.0055 81.0948 61.0434 81.9848 60.873 82.8701C60.686 83.8499 60.2709 84.7719 59.6611 85.5613C58.8815 86.5838 58.1036 87.6095 57.3272 88.6384C57.1286 88.8833 56.9892 89.1709 56.9201 89.4786C56.8752 89.7011 56.7615 89.739 56.5651 89.739C53.8352 89.739 51.1053 89.739 48.3754 89.739C48.1387 89.739 48.0227 89.6845 48.0345 89.41C48.0535 88.9958 47.8168 88.6407 47.6937 88.2596C47.1757 86.7073 46.8094 85.1085 46.6002 83.4855C46.3635 81.644 46.4629 79.7954 46.4132 77.9515C46.3469 75.4993 46.3635 73.0472 46.354 70.595C46.3413 70.4119 46.363 70.228 46.4179 70.0529C46.5457 69.7003 46.7564 69.5038 47.1469 69.5417C47.3244 69.5608 47.4905 69.6384 47.619 69.7622C47.7475 69.8861 47.8313 70.0491 47.857 70.2257C47.8653 70.3566 47.8653 70.4878 47.857 70.6187C47.857 72.8105 47.857 75.0046 47.857 77.1964C47.857 77.4923 47.9138 77.6272 48.2428 77.5965C48.5695 77.5657 48.8984 77.5657 49.2251 77.5965C49.5589 77.6272 49.618 77.4876 49.6062 77.1917C49.5873 76.6165 49.5873 76.0366 49.6062 75.4615C49.6062 75.1111 49.7104 74.7703 50.0938 74.6425C50.2437 74.5902 50.4061 74.5848 50.5592 74.6271C50.7123 74.6694 50.8488 74.7573 50.9506 74.8792C51.0214 74.965 51.0744 75.064 51.1065 75.1705C51.1386 75.2769 51.1492 75.3887 51.1376 75.4993C51.1376 76.0911 51.1589 76.6828 51.1376 77.2722C51.1234 77.5539 51.2276 77.6036 51.4666 77.5941C51.808 77.5763 52.1501 77.5763 52.4915 77.5941C52.7803 77.6154 52.8868 77.5278 52.875 77.2249C52.8513 76.6615 52.875 76.0982 52.875 75.5325C52.875 74.9668 53.1638 74.5715 53.6253 74.5644C54.1437 74.5525 54.4893 74.9478 54.4916 75.5585C54.4916 76.11 54.5129 76.6615 54.4916 77.2154C54.4751 77.5444 54.5981 77.6201 54.894 77.5988C55.2092 77.5763 55.5256 77.5763 55.8408 77.5988C56.1485 77.6249 56.2384 77.5278 56.2361 77.2106C56.2242 74.5596 56.2361 71.9086 56.2361 69.2576C56.2361 68.8103 56.2361 68.3653 56.2361 67.9179C56.2361 67.357 56.5177 67.0114 56.9462 67.009C57.4622 67.009 57.7746 67.338 57.777 67.9345C57.7462 69.8873 57.7415 71.8424 57.7415 73.7975Z" fill="#FFF3D2"/>
        <path d="M72.6131 77.6982V71.9086C72.6131 71.518 72.6959 71.1796 73.0865 71.0044C73.1757 70.9539 73.2752 70.9245 73.3775 70.9184C73.4798 70.9123 73.5822 70.9297 73.6767 70.9692C73.7713 71.0087 73.8555 71.0693 73.9231 71.1464C73.9906 71.2235 74.0397 71.315 74.0664 71.4139C74.1275 71.6009 74.1547 71.7972 74.1469 71.9938C74.1469 75.0259 74.1469 78.058 74.1469 81.09C74.1469 81.4167 74.1966 81.5753 74.5682 81.5279C74.9919 81.4758 75.5694 81.7078 75.8109 81.438C76.0523 81.1681 75.8748 80.6379 75.8819 80.219C75.8819 79.9302 75.8819 79.6415 75.8819 79.3527C75.8835 79.1279 75.9718 78.9124 76.1283 78.7511C76.2848 78.5897 76.4975 78.4949 76.7222 78.4864C76.8278 78.4894 76.9317 78.5135 77.0278 78.5575C77.1238 78.6014 77.2101 78.6642 77.2814 78.7422C77.3527 78.8201 77.4077 78.9116 77.4429 79.0112C77.4782 79.1108 77.4931 79.2165 77.4867 79.3219C77.5056 79.9373 77.5032 80.5551 77.4867 81.1729C77.4867 81.4451 77.5601 81.5445 77.8417 81.5279C78.2062 81.5066 78.5755 81.5137 78.9424 81.5279C79.1625 81.5279 79.2335 81.4782 79.2264 81.2415C79.2051 80.5859 79.2264 79.9302 79.2264 79.2746C79.2365 79.0944 79.3091 78.9234 79.4319 78.7912C79.5546 78.6589 79.7197 78.5737 79.8986 78.5503C79.9848 78.5287 80.0745 78.5249 80.1622 78.539C80.25 78.5532 80.3339 78.585 80.409 78.6326C80.484 78.6802 80.5486 78.7426 80.5988 78.8159C80.649 78.8892 80.6838 78.972 80.701 79.0592C80.8407 79.6273 80.7507 80.2095 80.7626 80.7847C80.7768 81.5232 80.7626 81.5232 81.5034 81.5232C82.507 81.5232 82.507 81.5232 82.5046 80.5314C82.5046 78.4958 82.5046 76.461 82.5046 74.427C82.4925 74.2987 82.5072 74.1693 82.548 74.047C82.5888 73.9247 82.6546 73.8123 82.7413 73.7169C82.8432 73.6032 82.9784 73.5246 83.1276 73.4923C83.2768 73.46 83.4324 73.4757 83.5721 73.537C83.9248 73.6933 84.0171 74.0341 84.0195 74.3892C84.0195 76.046 84.0574 77.7242 84.0195 79.3882C83.9627 81.4451 84.0053 83.5043 83.9367 85.5589C83.8288 88.1092 83.3126 90.6257 82.4076 93.0124C82.3887 93.0621 82.3437 93.1142 82.3532 93.1568C82.4549 93.706 82.1165 93.6752 81.733 93.6728C79.1483 93.6633 76.5628 93.6633 73.9765 93.6728C73.6853 93.6728 73.5031 93.6515 73.4321 93.2965C73.3417 92.9799 73.1797 92.6883 72.9587 92.4444C72.0545 91.2609 71.1006 90.1034 70.284 88.8513C69.7021 87.941 69.3932 86.883 69.394 85.8027C69.3562 83.6724 69.3822 81.5232 69.3704 79.3835C69.3704 79.1089 69.4153 79.0568 69.6946 79.1468C70.4592 79.4 70.9018 79.9255 70.9184 80.7326C70.9397 81.6628 70.9491 82.5954 70.9184 83.5256C70.9184 83.8594 71.0201 83.928 71.3136 83.9067C71.6288 83.8829 71.9453 83.8829 72.2604 83.9067C72.5587 83.9328 72.632 83.8262 72.632 83.5351C72.606 81.5824 72.6131 79.6391 72.6131 77.6982Z" fill="#FFF3D2"/>
    </g>
    <defs>
        <clipPath id="clip0_1_84201">
            <rect width="117.165" height="112" fill="white" transform="translate(3.63989)"/>
        </clipPath>
    </defs>
</svg>
