<svg width="125" height="112" viewBox="0 0 125 112" fill="none" xmlns="http://www.w3.org/2000/svg">
    <g clip-path="url(#clip0_1_84539)">
        <path d="M97.3836 48.8993C97.3836 49.5218 97.3836 50.1419 97.36 50.7621C96.9694 65.8846 93.9137 81.4545 85.324 94.1698C82.4224 98.4736 78.8891 102.316 74.843 105.567C71.4654 108.263 65.0817 113.567 60.4448 111.546C52.2835 107.995 45.2962 101.974 40.1197 94.7403C31.2152 82.2735 27.9203 66.6799 27.5748 51.5882C27.5132 48.8212 27.5748 46.0589 27.6813 43.3038C27.7073 42.6789 27.5038 41.3581 27.8564 40.8279C28.1712 40.3546 29.3713 40.0516 29.8778 39.8102L39.554 35.1709C46.2406 31.966 52.8658 28.3398 59.7181 25.5113C60.627 25.135 61.4508 24.5906 62.3786 24.2568C62.5166 24.1995 62.6659 24.1742 62.8151 24.1828C62.9643 24.1914 63.1096 24.2337 63.2402 24.3065C73.9744 29.6417 84.7796 34.8537 95.5445 40.1179C96.0372 40.3172 96.4823 40.618 96.8511 41.0007C97.715 42.0446 97.4239 43.763 97.3978 45.0056C97.3694 46.2956 97.3836 47.6022 97.3836 48.8993ZM93.8214 50.8094C93.8995 48.575 93.8214 46.343 93.7362 44.1109C93.7488 43.9247 93.7017 43.7393 93.6017 43.5818C93.5016 43.4243 93.3538 43.3028 93.1799 43.2352C91.7597 42.5724 90.3609 41.8694 88.9525 41.1806L78.5189 36.0727C73.4536 33.5937 68.3907 31.1123 63.3301 28.6286C63.1456 28.5245 62.9373 28.4698 62.7254 28.4698C62.5135 28.4698 62.3052 28.5245 62.1206 28.6286C59.6921 29.8121 57.2494 30.9672 54.8138 32.1341L41.4168 38.5604L36.5408 40.8895C34.8508 41.699 33.1655 42.5132 31.4708 43.3156C31.3605 43.3526 31.2661 43.4258 31.2029 43.5234C31.1397 43.621 31.1115 43.7372 31.1228 43.8529C31.137 44.3263 31.0637 44.821 31.0447 45.3062C30.9808 46.8164 30.9572 48.3312 30.9311 49.8437C30.9146 50.8331 30.9548 51.8225 30.9785 52.8143C31.0163 54.5421 31.0731 56.2653 31.1986 57.9908C31.3122 59.5696 31.4661 61.1412 31.6459 62.7129C31.8732 64.6806 32.1785 66.6342 32.562 68.5735C33.2664 72.214 34.2605 75.7924 35.5349 79.2745C36.9437 83.1177 38.7693 86.795 40.9789 90.2407C42.381 92.423 43.9596 94.4868 45.6986 96.4114C47.191 98.0743 48.8024 99.6264 50.5201 101.055C52.5859 102.77 54.8125 104.282 57.1689 105.569C58.8125 106.47 60.5291 107.23 62.3005 107.841C62.5692 107.948 62.867 107.955 63.1408 107.863C64.1783 107.501 65.1967 107.086 66.1918 106.62C69.7051 104.934 72.9537 102.744 75.8348 100.12C77.8825 98.2733 79.7585 96.2444 81.4398 94.0586C83.6811 91.1299 85.6075 87.9731 87.1868 84.6404C88.6712 81.4967 89.8913 78.2348 90.8343 74.8886C91.5837 72.2412 92.1866 69.5546 92.6402 66.8409C92.8627 65.5106 93.0505 64.1765 93.2036 62.8383C93.3314 61.7306 93.464 60.6252 93.5421 59.5246C93.6344 58.1967 93.7787 56.8712 93.8119 55.541C93.8592 53.9504 93.8214 52.3835 93.8214 50.8142V50.8094Z" fill="#D14947"/>
        <path d="M73.9225 1.05124C73.9698 1.48439 74.029 1.92228 74.0692 2.36253C74.2096 3.95931 74.2484 5.56341 74.1852 7.1651C74.1631 8.00989 74.0221 8.84735 73.7662 9.65278C73.7063 9.88006 73.5963 10.0911 73.4444 10.2704C73.2925 10.4498 73.1024 10.593 72.8881 10.6895C72.8109 10.7139 72.7447 10.7648 72.7014 10.8333C72.6581 10.9017 72.6404 10.9832 72.6514 11.0635C72.6514 12.0103 72.6514 12.9381 72.6514 13.8754C72.6514 14.1121 72.7555 14.1903 72.978 14.1879C73.6266 14.1879 74.2751 14.1879 74.9237 14.1879C75.1604 14.1879 75.2385 14.0766 75.2338 13.8565C75.2338 13.4967 75.2219 13.1464 75.2338 12.7748C75.2644 11.8215 75.368 10.8719 75.5438 9.93445C75.5985 9.47941 75.7058 9.03223 75.8634 8.60185C76.4516 7.26159 77.113 5.95464 77.8445 4.68689C78.2584 3.98917 78.7865 3.36589 79.4067 2.84303C79.8541 2.45721 80.6967 2.62053 81.0257 3.07972C81.1867 3.30222 81.0731 3.44424 80.9239 3.59335C80.3828 4.1466 79.9063 4.75964 79.5038 5.42065C78.8957 6.41805 78.4048 7.48234 78.041 8.59238C77.5071 10.1757 77.1414 11.8108 76.9498 13.4707C76.8177 14.5775 76.7505 15.6911 76.7486 16.8057C76.7486 18.4973 76.7486 20.1913 76.7486 21.8876C76.7486 22.0131 76.7486 22.1385 76.7486 22.264C76.7486 22.4391 76.6729 22.5338 76.493 22.5338H76.1143H48.7119C48.603 22.5338 48.4942 22.5338 48.3877 22.5338C48.1817 22.5338 48.0941 22.4368 48.0989 22.2379C48.0989 22.1125 48.0989 21.9847 48.0989 21.8592C48.0989 20.0225 48.0989 18.1833 48.0989 16.3466C48.0667 14.2595 47.7927 12.1832 47.2823 10.1593C47.2454 10.0401 47.1979 9.92444 47.1403 9.81374C47.1403 9.79953 47.1048 9.79007 47.1024 9.77586C46.9765 9.16124 46.7845 8.56206 46.5296 7.98881C46.4751 7.84916 46.4491 7.6811 46.3876 7.53435C45.827 6.12644 45.0261 4.82659 44.0206 3.69277C43.8952 3.55548 43.6348 3.42293 43.7697 3.21937C43.933 2.96138 44.1176 2.66314 44.4798 2.62053C44.8417 2.60141 45.1982 2.71409 45.4834 2.93771C46.1745 3.38269 46.5982 4.05965 47.0101 4.73186C47.939 6.25184 48.6685 7.88505 49.1806 9.59124C49.3792 10.2849 49.4921 11.0004 49.5167 11.7215C49.585 12.4382 49.6166 13.1579 49.6114 13.8778C49.6114 14.1145 49.6966 14.2021 49.9285 14.1997C50.5771 14.1997 51.2256 14.1997 51.8742 14.1997C52.1109 14.1997 52.1937 14.1074 52.1937 13.8778C52.1937 12.9405 52.1937 12.004 52.1937 11.0682C52.2058 10.9893 52.1883 10.9087 52.1446 10.8419C52.1009 10.7751 52.0341 10.7267 51.957 10.7061C51.4978 10.5617 51.2777 10.1901 51.1168 9.78297C50.8734 9.08605 50.7276 8.3588 50.6836 7.62193C50.5969 6.8163 50.5716 6.00525 50.6079 5.19579C50.6765 3.81348 50.7262 2.43118 50.9274 1.07017C51.1073 0.982594 51.1759 1.11988 51.254 1.20272C52.7618 2.79569 54.279 4.38392 55.5406 6.18755C55.9915 6.78887 56.3306 7.46634 56.5418 8.18763C56.7667 9.04921 56.8259 9.88474 56.3572 10.6871C56.2653 10.8433 56.2186 11.022 56.2223 11.2031C56.2223 12.0671 56.2223 12.9334 56.2223 13.8068C56.2223 14.1855 56.2365 14.195 56.6271 14.1974C57.7443 14.1974 58.8615 14.1974 59.9787 14.1974C60.3645 14.1974 60.3763 14.1974 60.3787 13.8044C60.3787 12.9736 60.3787 12.1476 60.3787 11.3168C60.3884 11.2303 60.3709 11.1429 60.3284 11.0669C60.286 10.9909 60.2208 10.9301 60.142 10.8931C59.8454 10.6922 59.5716 10.4597 59.3254 10.1996C58.5893 9.48946 58.4851 8.55688 58.6153 7.61246C58.8331 6.08103 59.4461 4.67506 60.1799 3.32825C60.729 2.3489 61.332 1.40067 61.9859 0.487898C62.0285 0.428724 62.064 0.367183 62.1066 0.310376C62.4143 -0.0943749 62.4261 -0.103843 62.7101 0.289073C63.9804 1.98347 65.011 3.84485 65.773 5.82067C66.0626 6.56019 66.2228 7.34406 66.2464 8.13793C66.2668 8.68022 66.1346 9.21735 65.8647 9.68814C65.5947 10.1589 65.198 10.5444 64.7197 10.8008C64.639 10.8333 64.5704 10.8902 64.5237 10.9637C64.477 11.0371 64.4545 11.1233 64.4593 11.2102C64.4593 12.0742 64.4712 12.9381 64.4593 13.8139C64.4593 14.0885 64.5493 14.1974 64.8333 14.1926C65.9505 14.1832 67.0677 14.1832 68.1849 14.1926C68.4477 14.1926 68.5873 14.124 68.5755 13.8281C68.5423 12.9665 68.6134 12.105 68.5376 11.241C68.5369 11.0665 68.493 10.8949 68.4098 10.7416C67.9364 9.98179 67.9979 9.10838 68.1849 8.34622C68.4258 7.51963 68.828 6.74894 69.3684 6.07867C70.1116 5.08691 70.888 4.12119 71.7212 3.20044C72.3248 2.53296 72.9307 1.86784 73.5816 1.24533C73.6716 1.16012 73.7331 1.02757 73.9225 1.05124Z" fill="#D14947"/>
        <path d="M95.0262 15.4114C95.6108 15.9345 95.6085 16.5191 95.0262 17.0091C94.2806 17.6339 93.6257 18.3597 93.0806 19.1654C91.6604 21.3265 91.3077 23.6342 92.2119 26.0935C92.2356 26.1598 92.2521 26.2355 92.387 26.2308C92.4675 25.7148 92.5598 25.1941 92.6237 24.6686C92.7089 23.8143 93.0183 22.9977 93.5208 22.3016C93.7753 21.9563 94.0975 21.6664 94.4676 21.4495C94.844 21.2294 94.9883 21.3051 94.9931 21.7407C95.0147 22.6225 95.2214 23.4899 95.5998 24.2867C95.9782 25.0834 96.5198 25.7918 97.1896 26.3657C97.4571 26.6024 97.4902 26.6024 97.6109 26.2426C97.65 26.1328 97.7171 26.0351 97.8055 25.9591C97.8939 25.8831 98.0006 25.8316 98.1151 25.8095C98.4151 25.7432 98.7245 25.7312 99.0287 25.774C99.0653 25.7715 99.1019 25.7783 99.1351 25.7937C99.1683 25.8091 99.1971 25.8327 99.2188 25.8622C99.2405 25.8917 99.2544 25.9262 99.2593 25.9625C99.2641 25.9988 99.2597 26.0357 99.2465 26.0698C98.8773 27.8167 99.6441 29.2274 100.61 30.5671C102.127 32.6571 104.077 34.3021 106.134 35.8288C106.191 35.8714 106.265 35.8927 106.281 36.0158C105.753 35.9899 105.229 35.9154 104.714 35.7933C103.68 35.604 102.641 35.4075 101.623 35.1448C100.38 34.8258 99.1689 34.3915 98.0062 33.8477C97.7813 33.7412 97.5328 33.6702 97.3245 33.5471C96.5198 33.0903 95.6819 32.6831 94.9244 32.16C93.9713 31.5274 93.1082 30.7686 92.3586 29.9043C91.8322 29.3198 91.1707 28.8728 90.4319 28.6025C89.6548 28.2565 88.8534 27.9677 88.0342 27.7386C86.6566 27.3788 85.2672 27.2368 83.9583 28.0321C83.8817 28.0733 83.8027 28.1096 83.7216 28.1409C83.6174 27.7244 83.8565 27.4498 84.0577 27.1823C84.2589 26.9149 84.4979 26.6758 84.7133 26.432C84.6542 26.3491 84.6021 26.3468 84.5548 26.3681C83.7808 26.7018 82.9713 26.6663 82.1594 26.6048C82.0525 26.5953 81.949 26.5621 81.8564 26.5077C81.6197 26.3705 81.5842 26.2142 81.7807 26.0059C82.1688 25.6114 82.6036 25.2656 83.0754 24.9763C83.3982 24.7575 83.7463 24.5787 84.1121 24.4437C85.885 23.8425 87.5064 24.1952 89.0236 25.213C89.123 25.2793 89.1964 25.4024 89.3597 25.3645C89.3782 25.2587 89.3756 25.1502 89.3521 25.0454C89.3285 24.9406 89.2844 24.8415 89.2224 24.7538C89.0156 24.364 88.8938 23.9349 88.865 23.4946C88.7774 22.6354 88.6283 21.7856 88.5739 20.9217C88.5227 20.2218 88.5577 19.5183 88.678 18.8269C88.794 18.1689 88.8082 17.4754 89.1514 16.86C89.4997 16.26 89.9184 15.7037 90.3988 15.2031C91.374 14.1403 92.6403 13.7829 93.9918 13.648C95.0896 13.5119 96.204 13.6227 97.2535 13.9723C97.7199 14.1235 98.1186 14.4334 98.3802 14.8481C98.4772 15.0019 98.553 15.1629 98.411 15.3428C98.3512 15.411 98.2721 15.4594 98.1841 15.4814C98.0961 15.5034 98.0035 15.498 97.9186 15.4658C97.6626 15.3972 97.4118 15.3102 97.1683 15.2055C96.4227 14.9191 95.7434 15.0256 95.0262 15.4114ZM104.515 35.1329C104.503 35.0762 104.476 35.0236 104.438 34.9801C104.399 34.9366 104.35 34.9036 104.295 34.8844C103.24 34.2998 102.179 33.727 101.126 33.1352C100.704 32.9359 100.302 32.6982 99.9235 32.4251C99.0764 31.7248 98.2785 30.9672 97.5352 30.1576C96.5201 29.1062 95.7165 27.8695 95.1682 26.5148C95.1277 26.3717 95.0453 26.2439 94.9315 26.148C94.9505 26.3326 94.9528 26.458 94.9741 26.5811C95.199 27.7715 95.7145 28.8879 96.4748 29.831C96.6564 30.0009 96.7665 30.2337 96.7825 30.4819C95.7116 29.8107 94.757 28.9697 93.9563 27.9918C93.977 28.2835 94.0832 28.5626 94.2617 28.7942C94.9736 29.8595 95.8812 30.7799 96.9363 31.5068C98.4718 32.6138 100.134 33.5332 101.888 34.2453C102.734 34.6223 103.614 34.9195 104.515 35.1329ZM90.4225 24.6189C90.4486 24.5725 90.4645 24.521 90.469 24.4679C90.4734 24.4148 90.4665 24.3614 90.4485 24.3112C90.1867 23.1503 90.1989 21.9445 90.484 20.7892C90.8504 19.3566 91.5025 18.0129 92.4012 16.8387C92.736 16.4497 93.0429 16.0376 93.3196 15.6055C90.8888 16.9712 88.6141 21.3217 90.4225 24.6189Z" fill="#D14947"/>
        <path d="M28.0386 22.5265C28.7627 22.7785 29.3653 23.294 29.7263 23.9704C30.2112 24.8356 30.5103 25.7925 30.6044 26.78C30.5968 26.9603 30.6403 27.1392 30.7299 27.296C30.8908 27.2604 30.8861 27.1137 30.9145 27.0048C31.2411 25.7811 31.4186 24.5432 31.1133 23.2958C30.9855 22.7656 30.7133 22.2733 30.5476 21.7525C30.3701 21.3087 30.131 20.8919 29.8375 20.5146C29.3041 19.6593 28.6191 18.9085 27.8161 18.2991C27.6942 18.2117 27.5952 18.0961 27.5276 17.9621C27.46 17.8282 27.4258 17.6799 27.4279 17.5299C27.3972 17.1724 27.5297 16.95 27.9581 16.8056C27.248 16.5689 26.6681 16.3322 26.022 16.5263C25.6787 16.6197 25.3437 16.7416 25.0207 16.8908C24.7698 17.0139 24.5828 17.0352 24.4172 16.7914C24.2515 16.5476 24.4314 16.3866 24.5497 16.2304C24.9746 15.6653 25.6062 15.2917 26.306 15.1913C27.3151 14.9914 28.3509 14.965 29.3688 15.1132C31.5583 15.4801 33.0731 16.6636 33.814 18.7772C34.2233 20.0481 34.3659 21.3897 34.233 22.7182C34.1733 23.8509 33.9705 24.9715 33.6294 26.0533C33.594 26.1389 33.594 26.2351 33.6294 26.3208C33.7525 26.4036 33.8329 26.2971 33.8992 26.2308C34.6779 25.4521 35.6768 25.2012 36.7206 25.0947C38.0958 24.9527 39.2983 25.4403 40.3894 26.2332C40.6342 26.3845 40.8578 26.5676 41.0546 26.7776C41.2368 27.0001 41.2344 27.0403 40.993 27.1776C40.8073 27.2893 40.5983 27.3565 40.3823 27.3741C39.7172 27.419 39.0497 27.464 38.4107 27.2013C38.3722 27.1846 38.33 27.1785 38.2885 27.1835C38.2469 27.1885 38.2074 27.2044 38.174 27.2297C38.6392 27.6701 38.995 28.2131 39.2131 28.8155C39.0758 28.967 38.9764 28.8581 38.8675 28.8013C37.5017 28.051 36.1336 28.2427 34.7324 28.7256C34.0223 28.9623 33.324 29.225 32.6282 29.4972C32.0027 29.7199 31.4502 30.1095 31.0305 30.6239C30.2446 31.5619 29.3353 32.3892 28.3274 33.0832C26.791 34.164 25.12 35.0393 23.3568 35.6868C22.41 36.0514 21.4372 36.3449 20.4643 36.6147C19.4915 36.8845 18.469 37.0171 17.4654 37.2112C17.418 37.0029 17.5837 36.9745 17.6642 36.9153C18.1968 36.4585 18.753 36.0324 19.269 35.559C19.6903 35.1708 20.0667 34.733 20.4667 34.3187C21.049 33.7152 21.7378 33.1992 22.204 32.4985C22.8786 31.4926 23.539 30.4748 23.8941 29.2913C24.1114 28.6659 24.1426 27.9908 23.984 27.348C23.9414 27.1942 23.9627 27.0735 24.1592 27.0261C24.425 26.9512 24.7077 26.9621 24.967 27.0573C25.2263 27.1525 25.4488 27.3271 25.603 27.5563C25.7261 27.7362 25.8184 27.6936 25.9486 27.5918C26.4433 27.2036 26.7297 26.6592 27.0469 26.1432C27.4495 25.429 27.7499 24.6617 27.9392 23.8639C28.0599 23.4662 28.0102 23.0165 28.0386 22.5265ZM26.519 31.521L26.4456 31.45C26.7699 30.9103 27.1747 30.4251 27.4705 29.8665C27.8946 29.087 28.1472 28.2259 28.2114 27.3409C28.0386 27.4214 28.0386 27.5611 27.9936 27.6723C27.7417 28.3334 27.4246 28.9677 27.0469 29.5659C26.2896 30.7295 25.3912 31.7948 24.3722 32.7376C23.9944 33.1482 23.5703 33.5136 23.1082 33.8264L19.3211 36.0301C19.2075 36.0963 19.0844 36.146 19.0465 36.2975C19.0962 36.3117 19.1152 36.3259 19.1294 36.3212C20.8458 35.7792 22.4951 35.0439 24.0455 34.1294C25.4884 33.3316 26.8066 32.3269 27.9581 31.147C28.4561 30.6253 28.869 30.0287 29.1819 29.3789C29.2268 29.2818 29.312 29.1801 29.2197 29.0238C28.7716 29.6264 28.2553 30.1753 27.6812 30.6594C27.3448 31.0103 26.952 31.3024 26.519 31.5233V31.521ZM32.5785 25.5539C33.388 24.0816 33.2885 21.9727 32.4317 20.1927C31.7216 18.7441 30.2352 17.0943 29.4943 16.9713C31.7311 19.4234 33.1726 22.1265 32.5785 25.5562V25.5539Z" fill="#D14947"/>
        <path d="M100.832 60.9704C101.086 60.4047 101.306 59.91 101.528 59.4271C102.489 57.3504 103.701 55.3996 105.138 53.6186C105.84 52.796 106.615 52.0394 107.455 51.3581C108.483 50.4708 109.696 49.8239 111.006 49.4646C112.506 49.0614 114.083 49.0321 115.598 49.3794C117.384 49.8015 119.056 50.6094 120.497 51.7463C120.581 51.8105 120.66 51.8809 120.734 51.957C120.756 51.9733 120.774 51.9945 120.786 52.019C120.798 52.0434 120.805 52.0704 120.805 52.0978C120.805 52.1252 120.798 52.1522 120.786 52.1767C120.774 52.2011 120.756 52.2224 120.734 52.2387C120.569 52.4025 120.384 52.5455 120.185 52.6647C119.001 53.2896 117.749 53.3204 116.471 53.2044C115.957 53.1594 115.448 53.0434 114.935 52.9677C114.876 53.1618 115.048 53.1807 115.134 53.2352C116.125 53.8624 116.736 54.8139 117.316 55.7915C117.38 55.898 117.463 56.0282 117.368 56.1394C117.273 56.2507 117.084 56.2033 116.975 56.1394C116.563 55.8743 116.087 55.7702 115.659 55.5666C115.383 55.4423 115.087 55.3678 114.786 55.3465C113.924 55.2574 113.053 55.3102 112.208 55.5027C109.954 56.044 107.783 56.883 105.751 57.9975C104.215 58.8189 102.731 59.7327 101.306 60.7337C101.172 60.8538 101.009 60.9356 100.832 60.9704Z" fill="#D14947"/>
        <path d="M23.2977 61.4133C22.7888 61.2925 22.4409 60.9399 22.0385 60.689C20.7414 59.8644 19.3979 59.1152 18.0146 58.4451C16.4623 57.6975 14.8454 57.0922 13.1837 56.6367C12.2179 56.3741 11.221 56.2435 10.2202 56.2485C9.24922 56.2814 8.30495 56.5749 7.48638 57.0983C7.39407 57.1527 7.3065 57.2119 7.21182 57.264C7.16619 57.2839 7.11858 57.299 7.0698 57.3089C7.03855 57.2882 7.01538 57.2574 7.00418 57.2216C6.99297 57.1859 6.99441 57.1473 7.00826 57.1125C7.21727 56.5007 7.54731 55.9372 7.97871 55.4556C8.45211 54.9633 8.87816 54.4449 9.53854 54.0544C9.30337 53.985 9.051 54.0035 8.82845 54.1064C7.59835 54.3867 6.32376 54.4108 5.08392 54.1775C4.62861 54.0779 4.2 53.8818 3.82706 53.6023C3.59036 53.4342 3.59036 53.3159 3.82706 53.0839C4.60397 52.3299 5.50469 51.715 6.48989 51.2661C7.79779 50.628 9.22315 50.2662 10.6771 50.2033C11.8842 50.1486 13.0888 50.3587 14.2062 50.8187C16.0666 51.5714 17.5791 52.7928 18.907 54.265C20.1867 55.723 21.291 57.3262 22.1971 59.0416C22.5426 59.6728 22.8732 60.3095 23.1888 60.9517C23.2393 61.0162 23.2752 61.0908 23.294 61.1705C23.3128 61.2502 23.314 61.333 23.2977 61.4133Z" fill="#D14947"/>
        <path d="M97.5609 71.345C97.5151 71.1341 97.4273 70.9345 97.3029 70.758C96.9645 70.0645 96.7585 69.3378 96.9787 68.5709C97.0012 68.5118 97.0289 68.4548 97.0615 68.4005C98.2635 69.041 99.2424 70.0315 99.8687 71.2409C100.449 70.4858 100.816 69.6408 101.58 69.0917C102.318 68.5542 103.189 68.227 104.099 68.1449C105.022 68.0367 105.958 68.1229 106.847 68.3982C106.281 69.487 105.306 69.8444 104.143 70.1C104.854 70.4006 105.486 70.5592 105.907 71.061C105.907 71.132 105.878 71.1557 105.836 71.1533C104.508 71.0918 103.448 71.7001 102.522 72.5474C101.219 73.7144 100.118 75.0893 99.2652 76.6163C98.6647 77.6375 97.9543 78.5899 97.1467 79.4566C97.0757 79.5371 97.0142 79.6247 96.9503 79.7099C96.9503 79.7099 96.9503 79.743 96.9668 79.8069C97.4586 79.8038 97.9499 79.837 98.4367 79.9063C99.3721 80.0892 100.263 80.4526 101.059 80.9762C101.35 81.1608 101.324 81.246 101.029 81.4662C100.679 81.7203 100.264 81.8697 99.8332 81.8969C99.2813 81.9266 98.7282 81.9266 98.1764 81.8969C98.6947 82.4271 99.3125 82.8011 99.4924 83.5183C99.4017 83.5343 99.3087 83.5321 99.2189 83.5118C99.1291 83.4914 99.0443 83.4534 98.9693 83.4C98.6643 83.2493 98.3306 83.1654 97.9906 83.154C97.6506 83.1425 97.3121 83.2038 96.9976 83.3337C96.8035 83.4 96.6142 83.3763 96.4248 83.4355C95.5248 83.734 94.6585 84.1259 93.8401 84.6048C92.8866 85.1501 91.9709 85.759 91.0991 86.4273C91.0163 86.4912 90.9216 86.5717 90.8151 86.4818C90.7086 86.3918 90.8033 86.3232 90.8151 86.2451C90.9359 85.7978 91.1226 85.371 91.369 84.9787C91.6517 84.5624 91.874 84.1082 92.0293 83.6296C92.051 83.5434 92.0905 83.4628 92.1453 83.3929C92.6187 82.8603 92.9004 82.1905 93.4756 81.736C93.8377 81.452 94.0886 81.0377 94.4744 80.7726C94.9805 80.4039 95.5538 80.1378 96.1621 79.9892C96.2773 79.9804 96.386 79.9324 96.47 79.8531C96.554 79.7739 96.6082 79.6681 96.6236 79.5537C96.9645 77.8755 97.2556 76.1926 97.1728 74.4694C97.1349 73.6788 96.8603 72.9498 96.5929 72.2184C96.4274 71.7375 96.1346 71.3104 95.7455 70.9829C96.4556 70.8858 96.9716 71.1793 97.4994 71.4113C97.5254 71.4302 97.5657 71.4705 97.5751 71.4634C97.6462 71.416 97.5964 71.3853 97.5609 71.345Z" fill="#D14947"/>
        <path d="M102.342 53.266C102.993 52.7521 103.616 52.2046 104.21 51.6257C105.392 50.5366 106.383 49.2564 107.14 47.8386C107.461 47.2312 107.67 46.5715 107.758 45.8906C107.831 45.2732 107.753 44.6474 107.531 44.0666C107.309 43.4858 106.95 42.9674 106.485 42.5555C106.089 42.1872 105.649 41.8692 105.176 41.6087C103.171 40.501 101.277 41.1259 100.094 42.9816C99.9639 43.1969 99.8454 43.4189 99.7388 43.6467C99.6394 43.8432 99.5139 43.8597 99.3506 43.7296C98.978 43.4409 98.7156 43.0332 98.6074 42.5745C98.4896 41.9717 98.5049 41.3505 98.6523 40.7543C98.721 40.3827 98.721 40.3756 98.3588 40.2809C97.8121 40.1223 97.2653 40.0442 96.702 40.3637C96.6455 40.088 96.6523 39.8031 96.722 39.5304C96.7917 39.2577 96.9224 39.0045 97.1043 38.7897C97.3152 38.5214 97.5532 38.2755 97.8144 38.0559C97.973 37.9376 97.9541 37.8192 97.8144 37.7056C97.5112 37.3721 97.1432 37.1039 96.7327 36.9174C96.5891 36.8832 96.456 36.8141 96.3454 36.7163C96.2348 36.6184 96.1499 36.4949 96.0984 36.3565C96.6507 36.026 97.2657 35.814 97.9044 35.7339C100.03 35.4 102.206 35.6783 104.179 36.5363C105.214 36.9671 106.073 37.708 106.84 38.5246C107.973 39.6631 108.768 41.0938 109.136 42.6573C109.363 43.6974 109.381 44.7725 109.188 45.8196C108.898 47.579 108.197 49.245 107.14 50.6813C106.238 51.8648 105.126 52.7785 103.673 53.2163C103.242 53.355 102.782 53.3722 102.342 53.266ZM100.752 37.8003C101.159 37.7577 101.569 37.7577 101.976 37.8003C102.918 37.9703 103.801 38.3776 104.541 38.9838C105.556 39.7629 106.489 40.6432 107.325 41.6111C107.408 41.7058 107.483 41.8336 107.689 41.8147C107.63 41.6869 107.602 41.604 107.557 41.5283C106.982 40.5264 106.243 39.6286 105.37 38.8725C104.77 38.3238 104.067 37.9005 103.301 37.6275C102.435 37.3411 101.58 37.3245 100.752 37.8003Z" fill="#D14947"/>
        <path d="M99.6204 69.5364C99.3305 69.1717 99.1646 68.7239 99.147 68.2583C98.8701 66.0925 99.5754 64.2107 100.858 62.5207C101.997 61.0201 103.382 59.8011 105.138 59.065C106.323 58.5881 107.608 58.4117 108.878 58.5513C110.109 58.6866 111.31 59.0282 112.428 59.562C113.485 60.069 114.414 60.8086 115.145 61.7254C116.155 62.8761 116.914 64.2249 117.373 65.6854C117.53 66.2786 117.621 66.8875 117.645 67.5008C117.575 67.5228 117.5 67.5272 117.428 67.5136C117.356 67.5 117.288 67.4688 117.231 67.4227C116.734 67.0629 116.135 66.9067 115.623 66.5848C115.427 66.4617 115.387 66.6085 115.356 66.7718C115.239 67.3746 114.933 67.9243 114.483 68.3411C114.306 68.5123 114.106 68.6574 113.888 68.7719C113.763 68.4523 113.635 68.1517 113.531 67.8417C113.481 67.6898 113.4 67.5497 113.294 67.4298C112.887 66.9564 112.89 66.9564 112.404 67.3541C111.694 67.9316 110.892 68.3009 109.936 68.1233C109.846 68.1161 109.758 68.1026 109.671 68.0831C109.311 67.9624 109.273 67.8014 109.507 67.4937C109.814 67.1195 110.048 66.6907 110.196 66.2298C110.281 65.9221 110.499 65.6735 110.544 65.3445C110.685 64.6144 110.536 63.8582 110.13 63.2356C109.862 62.8332 109.656 62.3811 109.223 62.1326C108.56 61.7418 107.872 61.394 107.164 61.0911C106.802 60.9467 106.415 60.8712 106.025 60.8686C104.641 60.8284 103.587 61.4887 102.712 62.4758C102.03 63.2866 101.479 64.1996 101.081 65.1812C100.508 66.5347 100.078 67.9444 99.7979 69.3873C99.7743 69.4394 99.7624 69.4914 99.6204 69.5364ZM114.248 64.2131C114.284 63.9421 114.275 63.6671 114.222 63.3989C113.986 62.3693 113.335 61.6497 112.482 61.0935C110.963 60.0993 109.254 59.7324 107.469 59.6354C107.398 59.6354 107.325 59.6354 107.299 59.7751C107.564 59.8532 107.834 59.936 108.106 60.0118C109.272 60.3147 110.406 60.726 111.495 61.2402C112.494 61.7349 113.37 62.3716 113.912 63.3918C114.042 63.6285 114.059 63.9078 114.255 64.2131H114.248Z" fill="#D14947"/>
        <path d="M7.23556 68.2633C7.22133 68.213 7.21182 68.1615 7.20715 68.1094C7.21107 66.677 7.60551 65.2727 8.34803 64.0477C8.78334 63.3535 9.27833 62.6985 9.82738 62.0903C10.884 60.8836 12.2796 60.0233 13.8323 59.6215C16.1992 58.973 18.4857 59.0889 20.6113 60.4594C22.5687 61.721 24.0883 63.3518 24.8955 65.5721C25.3048 66.6557 25.4032 67.8321 25.1795 68.9687C25.0885 69.2993 24.9437 69.6128 24.7511 69.8965C24.4576 68.7485 24.0552 67.7307 23.6883 66.7011C23.3109 65.6574 22.8002 64.6669 22.1687 63.7542C22.0068 63.4549 21.8174 63.1712 21.603 62.9069C20.9835 62.3135 20.2337 61.8734 19.4136 61.6216C19.0096 61.4875 18.5843 61.4289 18.1591 61.4488C17.8598 61.4825 17.5676 61.5623 17.2928 61.6855C16.4166 61.9543 15.6167 62.4272 14.959 63.0654C14.0619 63.9933 13.8489 65.0916 14.1589 66.3082C14.3067 66.9404 14.6065 67.527 15.0323 68.0171C15.3116 68.3367 15.269 68.4905 14.8264 68.5994C14.41 68.7154 13.9724 68.733 13.5481 68.6509C13.1237 68.5687 12.7243 68.389 12.3813 68.126C11.747 67.6645 11.6949 67.681 11.2665 68.3296C11.1054 68.5681 11.0099 68.8448 10.9896 69.132C10.9635 69.4326 10.7647 69.5438 10.599 69.3355C10.3268 69.0018 9.95993 68.7627 9.7114 68.4077C9.52608 68.1887 9.41722 67.9153 9.40133 67.629C9.40133 67.2384 9.33505 67.2242 8.98948 67.3923C8.47111 67.629 7.92434 67.8159 7.49356 68.2136C7.45846 68.2434 7.41628 68.2636 7.37108 68.2723C7.32588 68.281 7.2792 68.2779 7.23556 68.2633ZM10.386 64.8052C10.4381 64.7555 10.4759 64.7365 10.4854 64.7081C10.8712 63.43 11.7872 62.6347 12.9163 62.0287C14.0045 61.4685 15.1433 61.0128 16.3176 60.6677C16.5625 60.6178 16.7975 60.5283 17.0135 60.4026C16.9476 60.3833 16.8804 60.369 16.8123 60.36C16.6859 60.3569 16.5595 60.3608 16.4336 60.3718C15.1979 60.4917 13.9946 60.8367 12.8831 61.3896C12.1132 61.7503 11.4472 62.2999 10.947 62.9873C10.5586 63.5118 10.3608 64.1531 10.386 64.8052Z" fill="#D14947"/>
        <path d="M21.5581 53.9809C20.6208 54.071 19.6802 53.8453 18.8858 53.3395C18.3178 53.0081 17.8988 52.5158 17.4396 52.0684C16.4202 51.1126 15.6659 49.9089 15.2502 48.5748C14.8005 47.0765 14.5543 45.5521 14.7768 43.9592C14.9386 42.7739 15.3808 41.6444 16.0668 40.6644C16.3035 40.3521 16.5638 40.0585 16.8455 39.7862C17.3864 39.144 17.9969 38.5637 18.6657 38.056C19.0047 37.8241 19.3693 37.6319 19.7521 37.4832C21.1498 36.9148 22.6413 36.6121 24.15 36.5908C25.2648 36.5908 26.3725 36.7234 27.4164 37.3009C27.1418 37.5802 26.7726 37.727 26.4696 37.9637C26.1666 38.2004 25.9157 38.4844 25.634 38.7211C25.692 38.8771 25.7992 39.01 25.9394 39.0998C26.4391 39.548 26.7728 40.1519 26.8862 40.8135C26.9169 40.9389 26.943 41.0738 26.8152 41.1567C26.6873 41.2395 26.6329 41.0999 26.5406 41.0691C26.0199 40.8869 25.5157 41.0194 25.0234 41.2111C24.853 41.2774 24.9287 41.4171 24.9547 41.5354C25.0827 42.0424 25.1298 42.5664 25.0944 43.0881C25.0849 43.3588 25.0197 43.6247 24.9028 43.8691C24.7859 44.1134 24.6199 44.331 24.4151 44.5083C24.2304 44.6645 24.1074 44.6456 23.9795 44.461C23.8304 44.2385 23.6742 44.0207 23.5298 43.7982C23.0094 43.017 22.2455 42.4296 21.3569 42.1271C20.8727 41.9627 20.3477 41.9627 19.8634 42.1271C18.8569 42.4485 17.9476 43.0183 17.2195 43.784C16.7871 44.2208 16.4733 44.7606 16.3076 45.3525C16.1419 45.9443 16.1299 46.5686 16.2727 47.1664C16.5402 48.5037 17.2621 49.6186 18.1308 50.6435C19.0898 51.766 20.1649 52.7839 21.338 53.6803C21.4303 53.7418 21.5487 53.7821 21.5581 53.9809ZM22.8055 38.8134C22.7606 38.6737 22.6469 38.6572 22.5499 38.6264C21.4753 38.2903 20.4906 38.5483 19.5628 39.0998C18.1426 39.9543 17.1272 41.2064 16.3224 42.636C16.268 42.7331 16.152 42.8349 16.2609 42.9722C16.3934 42.9319 16.4597 42.8159 16.5378 42.7236C17.2416 41.8846 18.0084 41.1005 18.8314 40.378C19.6054 39.6986 20.4409 39.114 21.4777 38.8844C21.9176 38.824 22.3617 38.8002 22.8055 38.8134Z" fill="#D14947"/>
        <path d="M33.8925 86.2711C33.1824 85.7977 32.5291 85.3243 31.8427 84.9077C30.7205 84.1859 29.5011 83.628 28.2212 83.2508C27.6096 83.0589 26.9653 82.9937 26.3277 83.0591C25.9821 83.1041 25.7123 83.3502 25.2909 83.381C25.433 82.6212 26.1738 82.375 26.5407 81.7833C25.4306 81.8567 24.33 82.0437 23.3832 81.201C24.659 80.1122 26.1312 79.7524 27.7242 79.7264C27.807 79.5725 27.6697 79.5063 27.5893 79.4211C27.052 78.8483 26.4815 78.3015 25.9797 77.7003C25.6567 77.2707 25.3603 76.8217 25.0921 76.3558C24.442 75.2861 23.6717 74.2942 22.7962 73.3995C22.035 72.6951 21.153 72.1339 20.1925 71.7426C19.8052 71.5617 19.3789 71.4804 18.9522 71.5059C18.867 71.5059 18.7605 71.5296 18.7344 71.4112C18.729 71.366 18.7383 71.3201 18.7609 71.2805C18.7835 71.2409 18.8182 71.2095 18.8599 71.1911C19.1114 70.9921 19.3947 70.8368 19.6978 70.7319C19.9409 70.6955 20.1742 70.611 20.3842 70.4834C20.1587 70.3836 19.9192 70.319 19.6741 70.2917C19.3223 70.2299 18.9866 70.0977 18.6872 69.9028C18.3878 69.708 18.131 69.4546 17.932 69.1579C17.7498 68.9023 17.7735 68.8455 18.0764 68.7603C19.4138 68.3886 20.7464 68.3792 22.034 68.9378C22.8149 69.2763 23.4855 69.8264 23.9702 70.526C24.1832 70.8313 24.382 71.1461 24.5832 71.4444C24.7536 71.4207 24.7631 71.2905 24.7962 71.2077C25.1963 70.1781 26.0436 69.5295 26.8295 68.8407C27.2247 68.4975 27.3857 68.604 27.4496 69.1224C27.5111 69.8444 27.3456 70.5677 26.9762 71.1911C26.8549 71.3448 26.7735 71.5261 26.7395 71.719C27.0332 71.5366 27.3411 71.3783 27.6603 71.2456C27.978 71.0925 28.3366 71.046 28.6828 71.113C28.3831 71.3685 28.1265 71.6706 27.923 72.0077C27.5347 72.8029 27.3416 73.6793 27.3597 74.564C27.3194 76.2493 27.6319 77.892 28.0461 79.5205C28.069 79.6257 28.1233 79.7215 28.202 79.7951C28.2806 79.8686 28.3798 79.9165 28.4863 79.9323C29.8805 80.2448 30.8888 81.1276 31.7456 82.1904C32.6287 83.3248 33.3408 84.5823 33.8593 85.9231C33.8835 85.9904 33.8993 86.0603 33.9067 86.1314C33.9068 86.1783 33.902 86.2251 33.8925 86.2711Z" fill="#D14947"/>
        <path d="M104.828 26.0535C105.599 27.0003 105.46 28.0701 105.28 29.2205C105.872 28.7826 106.167 28.1056 106.937 28.018C106.823 28.3305 106.714 28.5885 106.636 28.8536C106.383 29.7341 106.53 30.6075 106.757 31.4572C107.179 32.9376 107.817 34.3476 108.65 35.642C108.913 36.0681 109.183 36.4894 109.455 36.9249C109.285 37.0291 109.152 36.9439 109.013 36.88C107.957 36.4294 106.966 35.8403 106.066 35.1284C105.505 34.655 105.031 34.0869 104.501 33.578C104.075 33.1478 103.731 32.6432 103.486 32.0892C103.178 31.3832 103.065 30.6075 103.159 29.843C103.247 28.7116 103.507 27.6251 104.203 26.6831C104.376 26.4487 104.605 26.2949 104.828 26.0535Z" fill="#D14947"/>
        <path d="M14.2062 38.2123C14.7968 37.306 15.3273 36.3619 15.7944 35.3861C16.1542 34.676 16.3696 33.8949 16.6678 33.1541C16.8748 32.5643 16.9843 31.9447 16.9921 31.3197C17.0154 30.7468 16.8617 30.1807 16.5518 29.6983C16.4974 29.606 16.4146 29.5303 16.4737 29.3646C16.8111 29.4469 17.1236 29.6093 17.385 29.838C17.6548 30.0273 17.8892 30.2711 18.1921 30.4747C18.0454 29.826 17.9967 29.159 18.0478 28.4959C18.0623 28.2113 18.1434 27.934 18.2845 27.6864C18.4288 27.4189 18.5898 27.4024 18.7792 27.6391C19.7875 28.8959 20.436 30.3019 20.2916 31.9493C20.1794 33.0866 19.6962 34.1554 18.9164 34.9908C17.6933 36.3324 16.2141 37.4156 14.566 38.1768C14.5159 38.2169 14.4552 38.2416 14.3913 38.2479C14.3275 38.2542 14.2631 38.2418 14.2062 38.2123Z" fill="#D14947"/>
        <path d="M93.8213 50.8137C93.8213 52.383 93.8592 53.9499 93.8213 55.5169C93.7811 56.8471 93.6438 58.1726 93.5515 59.5005C93.4734 60.6129 93.3408 61.7183 93.213 62.8142C93.0552 64.1539 92.8674 65.4881 92.6497 66.8168C92.1961 69.5305 91.5931 72.2171 90.8437 74.8644C89.8989 78.2191 88.6757 81.4889 87.1867 84.64C85.6056 87.9796 83.6761 91.1429 81.4303 94.0771C79.749 96.2629 77.873 98.2918 75.8253 100.139C72.9442 102.763 69.6956 104.953 66.1823 106.639C65.1872 107.105 64.1688 107.519 63.1313 107.881C62.8575 107.974 62.5597 107.966 62.291 107.86C60.5196 107.248 58.803 106.488 57.1594 105.588C54.803 104.301 52.5764 102.789 50.5106 101.074C48.7929 99.6448 47.1815 98.0927 45.6891 96.4298C43.95 94.5052 42.3715 92.4415 40.9694 90.2592C38.7598 86.8135 36.9342 83.1362 35.5254 79.293C34.251 75.8109 33.2569 72.2325 32.5525 68.592C32.169 66.6542 31.8637 64.7007 31.6364 62.7314C31.4565 61.1597 31.3027 59.588 31.1891 58.0093C31.0636 56.2838 31.0068 54.5606 30.969 52.8327C30.9453 51.841 30.905 50.8516 30.9216 49.8622C30.9477 48.3497 30.9713 46.8349 31.0352 45.3247C31.0542 44.8513 31.1275 44.3566 31.1133 43.8714C31.102 43.7557 31.1302 43.6395 31.1934 43.5419C31.2566 43.4443 31.351 43.3711 31.4613 43.3341C33.156 42.5317 34.8413 41.7175 36.5313 40.908L41.4073 38.5789L54.8043 32.1526C57.2399 30.9857 59.6826 29.8282 62.1111 28.6471C62.2957 28.543 62.504 28.4883 62.7159 28.4883C62.9278 28.4883 63.1361 28.543 63.3206 28.6471C68.3701 31.1419 73.4331 33.6232 78.5094 36.0912L88.943 41.1991C90.3514 41.8879 91.7502 42.5909 93.1704 43.2536C93.3443 43.3213 93.4921 43.4428 93.5922 43.6003C93.6922 43.7578 93.7393 43.9432 93.7266 44.1294C93.8284 46.3473 93.8994 48.5793 93.8213 50.8137Z" fill="#1C1609"/>
        <path d="M97.5612 71.3452C97.5967 71.3784 97.6464 71.4162 97.5754 71.4588C97.5754 71.4588 97.5257 71.4257 97.4996 71.4068L97.5612 71.3452Z" fill="white"/>
        <path d="M96.9449 30.4648C96.9333 30.4648 96.9216 30.4928 96.9099 30.4928C96.8983 30.4928 96.8889 30.4718 96.8796 30.4601C96.8702 30.4485 96.9029 30.4321 96.9146 30.4321C96.9263 30.4321 96.9356 30.4531 96.9449 30.4648Z" fill="#C1A575"/>
        <path d="M26.3511 31.5755C26.3842 31.5352 26.415 31.4926 26.4458 31.4524L26.5191 31.5258L26.3866 31.611L26.3511 31.5755Z" fill="#D14947"/>
        <path d="M26.3852 31.6197C26.3619 31.6617 26.3409 31.7131 26.2896 31.6454C26.3089 31.6235 26.33 31.6032 26.3526 31.5847L26.3852 31.6197Z" fill="#D14947"/>
        <path d="M62.4235 9.8014C63.9765 9.8014 65.2355 8.54244 65.2355 6.98944C65.2355 5.43644 63.9765 4.17749 62.4235 4.17749C60.8705 4.17749 59.6116 5.43644 59.6116 6.98944C59.6116 8.54244 60.8705 9.8014 62.4235 9.8014Z" fill="#C1A575"/>
        <path d="M70.5329 21.2626C71.7277 21.2626 72.6963 20.294 72.6963 19.0992C72.6963 17.9044 71.7277 16.9358 70.5329 16.9358C69.3381 16.9358 68.3695 17.9044 68.3695 19.0992C68.3695 20.294 69.3381 21.2626 70.5329 21.2626Z" fill="#C1A575"/>
        <path d="M54.2056 21.3717C55.4005 21.3717 56.369 20.4031 56.369 19.2083C56.369 18.0135 55.4005 17.0449 54.2056 17.0449C53.0108 17.0449 52.0422 18.0135 52.0422 19.2083C52.0422 20.4031 53.0108 21.3717 54.2056 21.3717Z" fill="#C1A575"/>
        <path d="M62.3692 21.2626C63.564 21.2626 64.5326 20.294 64.5326 19.0992C64.5326 17.9044 63.564 16.9358 62.3692 16.9358C61.1744 16.9358 60.2058 17.9044 60.2058 19.0992C60.2058 20.294 61.1744 21.2626 62.3692 21.2626Z" fill="#C1A575"/>
        <path d="M46.0067 63.6317L45.7393 63.8565C44.7456 64.6765 43.9903 65.7481 43.5522 66.9596C43.4126 67.3265 43.3699 67.2697 43.7723 67.3975L44.2812 67.5656C44.3712 67.5963 44.4114 67.5656 44.4445 67.4756C44.8177 66.3633 45.497 65.3789 46.4044 64.6353C46.9782 64.1567 47.6399 63.7949 48.3524 63.5701C48.4205 63.5536 48.4906 63.5464 48.5607 63.5488C48.9347 63.5488 49.3063 63.537 49.6779 63.5251C49.7775 63.5249 49.8752 63.5528 49.9596 63.6056C50.8095 64.0868 51.5832 64.6914 52.2555 65.3998C53.3325 66.5436 54.244 67.8328 54.9633 69.2295C55.5588 70.3577 56.0553 71.5353 56.4474 72.7492C56.6733 73.449 56.8629 74.1601 57.0155 74.8795C57.2694 76.0128 57.3933 77.1714 57.3847 78.3329C57.3903 79.3876 57.1884 80.4331 56.7906 81.4099C56.3324 82.491 55.5282 83.3894 54.5041 83.9639C53.8678 84.3221 53.1852 84.5913 52.4757 84.7639C51.2279 85.0596 49.9517 85.2183 48.6696 85.2373C47.434 85.2831 46.1985 85.2791 44.9629 85.2255C44.1154 85.1988 43.2704 85.1197 42.4326 84.9888C41.2113 84.7829 40.0349 84.4467 38.9934 83.7438C38.0087 83.088 37.2708 82.1227 36.8963 81.0004C36.5206 79.8105 36.3839 78.558 36.4939 77.3151C36.5538 76.3579 36.6956 75.4077 36.9176 74.4747C37.3349 72.7002 37.9709 70.9845 38.8112 69.3668C39.402 68.2084 40.1162 67.1172 40.9414 66.1122C41.7166 65.1472 42.6576 64.328 43.7203 63.6932C43.7673 63.6633 43.8209 63.6455 43.8765 63.6411L45.886 63.5938C45.9263 63.6009 45.9665 63.5891 46.0067 63.6317Z" fill="#C1A575"/>
        <path d="M45.403 62.5878C44.7639 62.6067 44.2574 62.6162 43.7461 62.6399C43.6865 62.6472 43.6261 62.6353 43.5738 62.606C43.5214 62.5766 43.4798 62.5312 43.455 62.4765C42.9556 61.5913 42.449 60.7108 41.9425 59.8303C41.9046 59.764 41.8644 59.7001 41.8312 59.6338C41.817 59.6078 41.7839 59.5746 41.8147 59.5462C41.8454 59.5178 41.8762 59.5462 41.9046 59.5628C42.2668 59.7309 42.6265 59.906 42.9934 60.0622C43.5416 60.3139 44.1176 60.4998 44.7095 60.6161C45.1684 60.6783 45.6353 60.6436 46.0799 60.5143C46.6773 60.3412 47.2431 60.0735 47.7558 59.7214C47.9901 59.5634 48.2429 59.4346 48.5085 59.3379C48.6773 59.2929 48.8522 59.2745 49.0268 59.2835C50.0446 59.2669 51.0648 59.2835 52.0826 59.2385C52.2151 59.2385 52.2293 59.2527 52.163 59.3687C51.5855 60.3747 51.008 61.3759 50.4328 62.3819C50.4139 62.4166 50.3852 62.445 50.3503 62.4635C50.3153 62.4821 50.2757 62.4899 50.2363 62.486C49.4197 62.5191 48.6031 62.5191 47.7889 62.5381C46.9747 62.557 46.1107 62.5925 45.403 62.5878Z" fill="#C1A575"/>
        <path d="M50.4636 58.2702C50.0446 58.2702 49.5831 58.2868 49.1215 58.2702C48.5056 58.2545 47.8995 58.4271 47.3842 58.7649C46.9778 59.0204 46.552 59.2435 46.1107 59.4324C45.5063 59.6846 44.8277 59.6931 44.2172 59.4561C43.2829 59.1062 42.3762 58.6869 41.5046 58.2016C41.3579 58.1235 41.3579 58.1069 41.4597 57.9649C41.6681 57.72 41.9535 57.5531 42.2692 57.4915C42.6735 57.3986 43.0855 57.3431 43.5 57.3258C44.2235 57.2547 44.9425 57.144 45.6539 56.9944C46.0531 56.8875 46.4439 56.7515 46.8232 56.5873C47.6357 56.2815 48.5189 56.2157 49.3677 56.398C50.4327 56.6154 51.4234 57.1047 52.2436 57.8181C52.3274 57.8919 52.4065 57.9709 52.4802 58.0548C52.511 58.088 52.556 58.1258 52.5371 58.1779C52.5181 58.23 52.4566 58.2158 52.4116 58.2181C51.7702 58.256 51.1382 58.2821 50.4636 58.2702Z" fill="#C1A575"/>
        <path d="M74.7837 62.2728L74.4879 62.5213C73.3789 63.4366 72.5354 64.6324 72.0452 65.9842C71.8889 66.3937 71.8416 66.3298 72.2819 66.4741L72.8523 66.6611C72.9517 66.6966 72.9991 66.6611 73.0346 66.5617C73.4537 65.3144 74.2187 64.2119 75.2406 63.3829C75.8801 62.8509 76.6174 62.4489 77.4111 62.1994C77.4883 62.1796 77.5681 62.1716 77.6478 62.1757C78.0644 62.1757 78.4786 62.1615 78.8952 62.1497C79.0055 62.1484 79.114 62.1788 79.2076 62.2373C80.157 62.7745 81.0209 63.4502 81.771 64.2421C82.9739 65.5175 83.9914 66.9557 84.7936 68.5145C85.4583 69.7731 86.0127 71.0869 86.4505 72.4413C86.6995 73.2245 86.9081 74.0201 87.0754 74.8248C87.3569 76.0897 87.4943 77.3824 87.4849 78.6782C87.4949 79.8593 87.2704 81.0307 86.8245 82.1245C86.3095 83.3262 85.4127 84.3245 84.2729 84.9649C83.5619 85.3638 82.7998 85.664 82.0077 85.8572C80.6152 86.1892 79.1904 86.3678 77.759 86.3898C76.3815 86.4419 75.0031 86.4379 73.6239 86.3779C72.6772 86.3435 71.7334 86.2518 70.7978 86.1034C69.4344 85.8667 68.1207 85.4998 66.9609 84.714C65.8599 83.9785 65.0373 82.8951 64.6247 81.6369C64.2063 80.3142 64.0534 78.9217 64.175 77.5397C64.2425 76.474 64.4008 75.4161 64.6484 74.3774C65.1132 72.3974 65.8224 70.4828 66.7597 68.6778C67.4151 67.3847 68.2087 66.1665 69.1267 65.0445C69.9924 63.9686 71.0423 63.055 72.2274 62.3462C72.2805 62.3115 72.3417 62.2911 72.4049 62.287L74.6465 62.2349C74.6705 62.2272 74.6964 62.2267 74.7207 62.2334C74.7451 62.2401 74.767 62.2538 74.7837 62.2728Z" fill="#C1A575"/>
        <path d="M74.1118 61.106C73.4018 61.1273 72.8337 61.1368 72.2727 61.1628C72.2064 61.1722 72.1389 61.1597 72.0804 61.1272C72.0219 61.0947 71.9756 61.0441 71.9484 60.9829C71.3898 59.9959 70.8241 59.0112 70.2608 58.0266C70.2182 57.9532 70.1732 57.8846 70.1353 57.8088C70.1211 57.7804 70.0833 57.7426 70.1188 57.7094C70.1543 57.6763 70.185 57.7094 70.2182 57.7284C70.6229 57.9153 71.023 58.1118 71.4324 58.287C72.0445 58.5674 72.6871 58.7755 73.3473 58.9071C73.8595 58.9755 74.3803 58.936 74.8764 58.7911C75.5439 58.5985 76.1761 58.2996 76.7486 57.9059C77.0107 57.7301 77.2928 57.5863 77.5889 57.4775C77.7772 57.4282 77.972 57.4082 78.1664 57.4183C79.3026 57.3993 80.4411 57.4183 81.5772 57.3662C81.7264 57.3662 81.7406 57.3851 81.6648 57.513C81.0234 58.6349 80.3772 59.7545 79.7357 60.874C79.7137 60.9123 79.6815 60.9437 79.6426 60.9646C79.6037 60.9856 79.5597 60.9952 79.5156 60.9924C78.6067 61.0279 77.6954 61.0303 76.7841 61.0516C75.8729 61.0729 74.9024 61.1131 74.1118 61.106Z" fill="#C1A575"/>
        <path d="M79.7594 56.2867C79.286 56.2867 78.7771 56.3056 78.2611 56.2867C77.5741 56.2707 76.8983 56.463 76.3225 56.8382C75.8695 57.1238 75.3947 57.3731 74.9024 57.5838C74.2305 57.8633 73.4767 57.8726 72.7981 57.6098C71.7558 57.2191 70.7439 56.7515 69.7708 56.2109C69.6075 56.1234 69.6051 56.1044 69.7187 55.9529C69.9523 55.6791 70.2704 55.4908 70.6229 55.418C71.0748 55.3153 71.5351 55.2535 71.9981 55.2334C72.8034 55.1556 73.6038 55.034 74.3958 54.8689C74.8419 54.7498 75.2787 54.5979 75.7024 54.4144C76.6091 54.072 77.5952 53.998 78.5428 54.2014C79.7326 54.4465 80.8385 54.9962 81.7524 55.7967C81.8419 55.8776 81.9258 55.9646 82.0033 56.0571C82.0388 56.095 82.0908 56.1352 82.0672 56.192C82.0435 56.2488 81.9772 56.237 81.9275 56.2393C81.2174 56.2701 80.5144 56.2985 79.7594 56.2867Z" fill="#C1A575"/>
        <path d="M61.2352 52.1227C61.0884 52.2458 60.9464 52.3594 60.802 52.4872C59.1902 53.8231 57.9645 55.5653 57.2516 57.5336C57.0149 58.1324 56.9557 58.0378 57.609 58.2437C57.8859 58.3336 58.1629 58.4212 58.4374 58.5159C58.5866 58.5656 58.6528 58.5159 58.7049 58.3691C59.3097 56.5554 60.415 54.9496 61.8932 53.737C62.8261 52.9608 63.9009 52.3731 65.0578 52.0067C65.17 51.9785 65.2855 51.9665 65.4011 51.9712C66.0046 51.9594 66.6106 51.9523 67.2165 51.9334C67.3781 51.9324 67.5365 51.9776 67.6733 52.0635C69.0567 52.8449 70.3157 53.8286 71.4084 54.982C73.1563 56.8422 74.6358 58.9375 75.8039 61.2071C76.771 63.0419 77.578 64.9568 78.2158 66.9304C78.5843 68.0735 78.8932 69.2348 79.1413 70.4099C79.5516 72.2544 79.7517 74.1395 79.7378 76.0291C79.7502 77.7506 79.422 79.4576 78.772 81.0518C78.0264 82.809 76.7196 84.2698 75.0559 85.2058C74.0202 85.7868 72.9101 86.224 71.7564 86.5052C69.7255 87.0331 67.6497 87.2153 65.5644 87.284C63.5548 87.3573 61.5405 87.355 59.5357 87.2627C58.1568 87.2156 56.782 87.0828 55.4196 86.865C53.4337 86.5289 51.5212 85.9845 49.8288 84.8389C48.2308 83.7719 47.034 82.2028 46.4275 80.3795C45.7624 78.4292 45.6487 76.422 45.7742 74.3864C45.8721 72.8336 46.1018 71.2919 46.4606 69.7779C47.1383 66.8926 48.1719 64.1026 49.5377 61.4722C50.4979 59.5866 51.6606 57.8112 53.0053 56.1773C54.2666 54.6088 55.7966 53.2769 57.5238 52.2434C57.6011 52.1938 57.6901 52.1653 57.7818 52.1606C58.8706 52.1346 59.957 52.1061 61.0458 52.0825C61.0782 52.0727 61.1126 52.0713 61.1457 52.0783C61.1788 52.0854 61.2096 52.1006 61.2352 52.1227Z" fill="#D14947" stroke="black" stroke-width="0.769263" stroke-miterlimit="10"/>
        <path d="M60.2526 50.4258C59.2136 50.4566 58.3922 50.4708 57.5732 50.5087C57.4765 50.5222 57.378 50.5039 57.2926 50.4565C57.2072 50.4091 57.1395 50.3352 57.0999 50.2459C56.2856 48.8068 55.4651 47.3709 54.6382 45.9381C54.579 45.8315 54.5128 45.7298 54.456 45.6209C54.4347 45.5783 54.3802 45.5238 54.4323 45.4765C54.4844 45.4292 54.5317 45.4765 54.5767 45.5049C55.1684 45.7771 55.7602 46.0635 56.3495 46.3191C57.2423 46.7288 58.1807 47.0308 59.1449 47.2186C59.8916 47.3192 60.651 47.2628 61.3746 47.0529C62.3711 46.8162 63.2421 46.3002 64.1013 45.7629C64.4833 45.5072 64.894 45.2975 65.3251 45.138C65.5998 45.0662 65.8841 45.0375 66.1677 45.0528C67.8246 45.0244 69.4814 45.0528 71.1383 44.9771C71.3561 44.9652 71.375 45.0031 71.2685 45.1901C70.3312 46.8233 69.3939 48.4565 68.4565 50.0897C68.4251 50.1457 68.3783 50.1914 68.3217 50.2216C68.2651 50.2518 68.201 50.2652 68.137 50.2601C66.8091 50.3122 65.4836 50.3146 64.1558 50.3453C62.7782 50.3761 61.4054 50.4329 60.2526 50.4258Z" fill="#D14947" stroke="black" stroke-width="0.769263" stroke-miterlimit="10"/>
        <path d="M68.4853 43.4032C67.8036 43.4032 67.0509 43.4316 66.303 43.4032C65.2963 43.3758 64.3053 43.6566 63.4626 44.2079C62.8026 44.6245 62.11 44.9871 61.3915 45.292C60.4096 45.7027 59.3068 45.7172 58.3145 45.3322C56.7956 44.7617 55.3209 44.0797 53.9024 43.2919C53.6657 43.1641 53.6657 43.1357 53.8291 42.9156C54.1604 42.4753 54.6409 42.286 55.1475 42.1392C55.8052 41.9879 56.4756 41.8976 57.1499 41.8694C58.3305 41.7515 59.5039 41.5698 60.6649 41.325C61.3115 41.1509 61.9444 40.9294 62.5584 40.6622C63.8793 40.1642 65.3155 40.0565 66.6959 40.3521C68.4293 40.7106 70.0405 41.5113 71.373 42.6765C71.503 42.7959 71.6255 42.9231 71.7399 43.0576C71.7896 43.112 71.863 43.1712 71.8298 43.254C71.7967 43.3369 71.6996 43.3179 71.6263 43.3227C70.6108 43.3795 69.5836 43.4221 68.4853 43.4032Z" fill="#D14947" stroke="black" stroke-width="0.769263" stroke-miterlimit="10"/>
        <path d="M70.9802 76.306C70.7183 75.9738 70.5339 75.5872 70.4405 75.1746C70.2037 74.322 69.806 73.5226 69.2689 72.8195C68.7497 72.1567 68.2069 71.7386 67.6404 71.565C69.6113 71.1421 70.5975 69.946 70.5991 67.9767C70.5991 65.399 68.7268 64.3079 65.1219 64.3079H60.1939C56.589 64.3079 54.7854 65.399 54.7759 67.9767C54.7759 69.9412 55.7622 71.1373 57.7346 71.565C57.1666 71.7386 56.6245 72.1567 56.1085 72.8195C55.5691 73.5212 55.1712 74.3211 54.9369 75.1746C54.8423 75.5861 54.658 75.9716 54.3972 76.3036C54.1726 76.552 53.8674 76.7129 53.5356 76.7581V77.7593C53.8268 78.1877 54.3735 78.4008 55.1807 78.4008C55.8007 78.4372 56.4187 78.3029 56.9677 78.0126C57.3857 77.7641 57.7208 77.3977 57.9311 76.9593C58.1799 76.4086 58.3733 75.8345 58.5086 75.2456C58.6606 74.5756 58.8632 73.918 59.1146 73.2787C59.3276 72.7579 59.6022 72.436 59.9477 72.3153H61.1951V76.2019C61.2074 76.3378 61.1802 76.4744 61.1168 76.5953C61.0534 76.7162 60.9565 76.8163 60.8377 76.8835C60.5557 77.0631 60.2249 77.1507 59.8909 77.1344C59.8885 77.2293 59.8933 77.3243 59.9051 77.4185C59.9051 77.4185 59.9051 77.4374 59.9051 77.4469C59.904 77.4603 59.904 77.4737 59.9051 77.4871C59.9079 77.5071 59.9119 77.5268 59.917 77.5463V77.5629L59.9312 77.6291V77.6457C59.9337 77.6644 59.9385 77.6826 59.9454 77.7001C59.9454 77.7143 59.9454 77.7262 59.9454 77.7404V77.7617C60.0161 77.9911 60.1276 78.206 60.2744 78.396H60.3288H65.0509C65.3371 78.0382 65.491 77.5926 65.4864 77.1344C65.1571 77.1624 64.8279 77.079 64.5515 76.8977C64.4488 76.8185 64.3647 76.7177 64.3054 76.6023C64.2461 76.4869 64.2129 76.3599 64.2083 76.2303V72.3058H65.4391C65.7823 72.4265 66.0569 72.7485 66.2723 73.2716C66.524 73.9098 66.7258 74.5666 66.8759 75.2361C67.013 75.8248 67.2073 76.3988 67.4558 76.9498C67.666 77.3882 68.0012 77.7546 68.4191 78.0031C68.9671 78.2971 69.5851 78.4354 70.2062 78.4031C71.0109 78.4031 71.5601 78.1901 71.8488 77.7617V76.7605C71.5145 76.7169 71.2066 76.5558 70.9802 76.306ZM61.1904 70.8833C60.9146 70.914 60.6371 70.9282 60.3596 70.9259C60.0253 70.9434 59.6914 70.8847 59.383 70.7543C59.0747 70.624 58.8 70.4252 58.5796 70.1732C58.1293 69.6087 57.9012 68.899 57.9382 68.1778C57.9382 67.3226 58.1236 66.6843 58.4944 66.263C58.8684 65.8416 59.4578 65.6334 60.2626 65.6334C60.5739 65.6214 60.8855 65.6476 61.1904 65.7115V70.8833ZM66.793 70.1732C66.5732 70.4244 66.2992 70.6225 65.9917 70.7525C65.6842 70.8825 65.3512 70.9409 65.0178 70.9235C64.7418 70.9213 64.466 70.9047 64.1917 70.8738L64.1799 65.7138C64.3908 65.6662 64.6054 65.6361 64.8213 65.6239C64.8876 65.6239 64.9515 65.6239 65.0178 65.6239C65.8297 65.6239 66.5113 65.8606 66.8853 66.263C67.2593 66.6654 67.4416 67.3234 67.4416 68.1778C67.4751 68.8989 67.2464 69.6077 66.7977 70.1732H66.793Z" fill="#FFF3D2"/>
        <path d="M83.8542 55.0107C83.858 54.96 83.8779 54.9119 83.9111 54.8734C83.9349 54.8485 83.9667 54.8326 84.001 54.8284L84.4034 54.7432C84.5454 54.7148 84.685 54.684 84.8271 54.6509C85.0141 54.6059 85.2034 54.5539 85.3857 54.4923C85.6039 54.4222 85.8129 54.326 86.0082 54.2059C86.263 54.0431 86.4679 53.8129 86.5999 53.5408C86.6928 53.356 86.7673 53.1626 86.8224 52.9633C86.884 52.7597 86.9337 52.5538 86.981 52.3455C87.0165 52.1893 87.0473 52.033 87.0781 51.8721C87.0875 51.8134 87.1017 51.7556 87.1207 51.6993C87.1269 51.675 87.1383 51.6523 87.154 51.6328C87.1698 51.6133 87.1896 51.5973 87.212 51.5861C87.2344 51.5749 87.259 51.5686 87.2841 51.5677C87.3092 51.5668 87.3342 51.5714 87.3574 51.581C87.3913 51.5911 87.4218 51.6104 87.4456 51.6367C87.4694 51.663 87.4855 51.6953 87.4923 51.7301C87.5152 51.8134 87.5333 51.898 87.5467 51.9833C87.5704 52.1041 87.5964 52.22 87.6225 52.3431C87.6745 52.5798 87.7337 52.8165 87.8047 53.0319C87.8734 53.2717 87.9746 53.5011 88.1053 53.7136C88.2577 53.9502 88.4679 54.1441 88.716 54.2769C88.908 54.3757 89.1094 54.455 89.3172 54.5136C89.516 54.5775 89.7196 54.6272 89.9231 54.6722C90.077 54.7077 90.2356 54.7361 90.3965 54.7716C90.4825 54.7839 90.5666 54.8062 90.6474 54.8379C90.675 54.8519 90.6988 54.8722 90.7169 54.8973C90.7351 54.9223 90.7469 54.9514 90.7515 54.9819C90.7562 55.0125 90.7534 55.0437 90.7436 55.073C90.7337 55.1023 90.717 55.1288 90.6948 55.1503C90.6733 55.167 90.6481 55.1784 90.6214 55.1835C90.4794 55.2237 90.3326 55.2498 90.1882 55.2805C90.0439 55.3113 89.8308 55.3563 89.6533 55.4012C89.4758 55.4462 89.2888 55.5006 89.1113 55.5646C88.8846 55.6424 88.6714 55.755 88.4793 55.8983C88.2785 56.056 88.1165 56.2576 88.0059 56.4877C87.8878 56.7349 87.795 56.9934 87.729 57.2593C87.6651 57.496 87.613 57.7327 87.5656 57.9694C87.542 58.0806 87.5207 58.1943 87.4923 58.3055C87.4837 58.337 87.4668 58.3656 87.4436 58.3885C87.4203 58.4113 87.3914 58.4276 87.3597 58.4357C87.3384 58.4446 87.3154 58.4489 87.2923 58.4482C87.2692 58.4476 87.2465 58.442 87.2257 58.432C87.2049 58.4219 87.1864 58.4075 87.1716 58.3898C87.1568 58.3721 87.1458 58.3514 87.1396 58.3292C87.1069 58.225 87.0801 58.1191 87.0591 58.012C87.0236 57.8416 86.9881 57.6712 86.9479 57.5007C86.9076 57.3303 86.8816 57.2238 86.8414 57.0865C86.7616 56.7908 86.6371 56.509 86.4721 56.251C86.3125 56.0232 86.0996 55.838 85.852 55.7113C85.6254 55.5973 85.3874 55.5076 85.1419 55.4438C84.9217 55.3823 84.7016 55.3326 84.4791 55.2876C84.3489 55.2592 84.2164 55.2355 84.0862 55.2024C84.043 55.1937 84.001 55.1802 83.9608 55.1622C83.9296 55.151 83.9026 55.1304 83.8835 55.1033C83.8645 55.0762 83.8542 55.0438 83.8542 55.0107ZM87.3124 57.2688L87.3242 57.2427C87.336 57.2001 87.3479 57.1552 87.3621 57.1125C87.4286 56.8695 87.5141 56.6321 87.6177 56.4025C87.8155 55.9467 88.1722 55.5783 88.6213 55.3657C88.9096 55.2325 89.209 55.1248 89.516 55.0438C89.516 55.0438 89.5397 55.0438 89.5421 55.0296C89.5444 55.0154 89.5255 55.0154 89.516 55.0107L89.1065 54.8852C88.8742 54.8145 88.6516 54.7151 88.4438 54.5894C88.0968 54.3762 87.8189 54.0671 87.6438 53.6994C87.5405 53.4804 87.4558 53.2532 87.3905 53.0201C87.3716 52.9562 87.3526 52.8923 87.3313 52.8307C87.3313 52.8307 87.3313 52.8094 87.3171 52.8094C87.3029 52.8094 87.3029 52.8212 87.2982 52.8283L87.284 52.8686C87.2437 53.0059 87.2082 53.1432 87.1585 53.2781C87.0896 53.4823 87.0016 53.6796 86.8958 53.8674C86.7933 54.0429 86.6657 54.2024 86.5171 54.3408C86.3224 54.5165 86.099 54.6574 85.8567 54.7574C85.6261 54.8536 85.3888 54.9327 85.1466 54.9941C85.1178 54.9981 85.0902 55.0086 85.0661 55.0249C85.0979 55.0362 85.1303 55.0457 85.1632 55.0533C85.4679 55.1361 85.7642 55.2471 86.0484 55.3847C86.3217 55.5179 86.5595 55.7142 86.7419 55.9575C86.8858 56.1549 87.0028 56.3706 87.0899 56.5989C87.1656 56.7906 87.2272 56.9871 87.284 57.1859C87.2887 57.215 87.2983 57.243 87.3124 57.2688Z" fill="#D14947"/>
        <path d="M60.6104 92.7613C60.615 92.7097 60.6357 92.6609 60.6695 92.6216C60.6927 92.5974 60.7237 92.5822 60.7571 92.579L61.1619 92.4914C61.3015 92.463 61.4435 92.4323 61.5832 92.3991C61.7725 92.3541 61.9595 92.3021 62.1441 92.2405C62.3628 92.1714 62.5719 92.0752 62.7667 91.9541C63.0206 91.7912 63.2252 91.5621 63.3584 91.2914C63.4489 91.1047 63.5233 90.9107 63.5809 90.7115C63.6401 90.5079 63.6898 90.302 63.7395 90.0961C63.775 89.9398 63.8034 89.7836 63.8342 89.6227C63.846 89.5659 63.8602 89.5067 63.8768 89.4499C63.8836 89.426 63.8954 89.4038 63.9113 89.3847C63.9272 89.3655 63.9469 89.3499 63.9692 89.3388C63.9914 89.3277 64.0157 89.3213 64.0405 89.3201C64.0654 89.3188 64.0902 89.3227 64.1135 89.3315C64.1476 89.3418 64.1784 89.3611 64.2025 89.3873C64.2267 89.4135 64.2433 89.4458 64.2507 89.4807C64.2744 89.5635 64.2886 89.6487 64.3052 89.7339C64.3288 89.8546 64.3549 89.9706 64.3809 90.0961C64.433 90.3328 64.4922 90.5576 64.5632 90.7848C64.6314 91.0249 64.7325 91.2543 64.8638 91.4665C65.0159 91.7028 65.2262 91.896 65.4745 92.0275C65.6658 92.1258 65.8664 92.2051 66.0733 92.2642C66.2745 92.3257 66.4757 92.3778 66.6792 92.4228L67.1526 92.5198C67.2396 92.5321 67.3247 92.5552 67.4059 92.5885C67.4329 92.6028 67.4561 92.6232 67.4737 92.6482C67.4913 92.6731 67.5027 92.7019 67.5071 92.7321C67.5115 92.7623 67.5086 92.7931 67.4989 92.8221C67.4891 92.851 67.4727 92.8772 67.4509 92.8986C67.4307 92.9163 67.4062 92.9285 67.3799 92.9341C67.2355 92.9719 67.0911 92.998 66.9467 93.0287C66.8023 93.0595 66.5893 93.1045 66.4118 93.1495C66.2275 93.195 66.0458 93.2503 65.8674 93.3151C65.6413 93.3916 65.4288 93.5035 65.2378 93.6465C65.0369 93.8051 64.875 94.0075 64.7644 94.2382C64.6465 94.4858 64.5529 94.7442 64.4851 95.0099C64.4235 95.2466 64.3715 95.4833 64.3241 95.72C64.3004 95.8312 64.2768 95.9425 64.2507 96.0537C64.2423 96.0855 64.2255 96.1145 64.2023 96.1378C64.179 96.1611 64.15 96.1778 64.1182 96.1863C64.0965 96.1948 64.0733 96.1987 64.05 96.1977C64.0267 96.1968 64.0039 96.191 63.983 96.1807C63.9621 96.1705 63.9435 96.156 63.9285 96.1382C63.9135 96.1204 63.9023 96.0997 63.8957 96.0774C63.8625 95.9744 63.8363 95.8692 63.8176 95.7626C63.7821 95.5898 63.7466 95.4194 63.7063 95.2489C63.6661 95.0785 63.6377 94.972 63.5975 94.8371C63.5197 94.5407 63.395 94.2586 63.2282 94.0016C63.0708 93.7727 62.8583 93.5871 62.6104 93.4619C62.3837 93.3476 62.1457 93.2572 61.9003 93.1921C61.6826 93.1329 61.4601 93.0832 61.2376 93.0358C61.1074 93.0098 60.9772 92.9838 60.847 92.953C60.8041 92.9424 60.7621 92.9281 60.7216 92.9104C60.6899 92.9001 60.6622 92.8802 60.6422 92.8535C60.6223 92.8268 60.6112 92.7946 60.6104 92.7613ZM64.059 95.0194C64.0636 95.0102 64.0675 95.0007 64.0709 94.9909C64.0851 94.9483 64.0969 94.9057 64.1087 94.8608C64.1765 94.6182 64.262 94.3808 64.3644 94.1507C64.563 93.6941 64.9204 93.3249 65.3703 93.1116C65.6578 92.9784 65.9564 92.8707 66.2627 92.7897C66.2745 92.7897 66.2887 92.7897 66.2911 92.7755C66.2934 92.7613 66.2745 92.7755 66.265 92.7565L65.8532 92.6287C65.6211 92.5584 65.3985 92.4598 65.1904 92.3352C64.844 92.122 64.5669 91.8128 64.3928 91.4452C64.2881 91.226 64.2034 90.9979 64.1395 90.7635C64.1206 90.702 64.0993 90.6381 64.0803 90.5742C64.0803 90.5742 64.0803 90.5529 64.0638 90.5529C64.0472 90.5529 64.0495 90.5647 64.0472 90.5742L64.033 90.6144C63.9927 90.7493 63.9549 90.889 63.9075 91.0215C63.839 91.226 63.7511 91.4233 63.6448 91.6109C63.5414 91.7857 63.4139 91.9451 63.2661 92.0843C63.0709 92.2599 62.8477 92.4015 62.6057 92.5033C62.3744 92.5976 62.1372 92.6767 61.8956 92.74C61.8678 92.7437 61.8412 92.7534 61.8175 92.7684C61.8488 92.7811 61.8813 92.7906 61.9145 92.7968C62.2184 92.8808 62.5139 92.9926 62.7974 93.1305C63.0721 93.2627 63.3108 93.4592 63.4933 93.7033C63.6364 93.9 63.7526 94.115 63.8389 94.3424C63.915 94.5352 63.9806 94.7319 64.0353 94.9318C64.0393 94.9619 64.0473 94.9913 64.059 95.0194Z" fill="#D14947"/>
        <path d="M76.7083 49.3535C76.715 49.3414 76.7205 49.3287 76.7249 49.3156C76.7438 49.2541 76.7628 49.1902 76.7794 49.1263C76.877 48.7711 77.0012 48.4237 77.151 48.0872C77.4364 47.426 77.9531 46.8916 78.6043 46.5841C79.0212 46.3889 79.4545 46.2305 79.899 46.1107C79.9132 46.1107 79.9369 46.1107 79.9369 46.0918C79.9369 46.0729 79.9156 46.0705 79.9014 46.0634L79.3073 45.8812C78.9707 45.7781 78.6479 45.6342 78.3463 45.4527C77.8447 45.1445 77.4434 44.6971 77.1912 44.1651C77.0407 43.8481 76.918 43.5186 76.8243 43.1804L76.7391 42.9059C76.7391 42.8917 76.7391 42.8751 76.7154 42.8727C76.6918 42.8704 76.6965 42.8917 76.6918 42.9035C76.6826 42.9224 76.6755 42.9423 76.6705 42.9627C76.6113 43.1591 76.5592 43.3603 76.4882 43.5521C76.3886 43.8483 76.261 44.1344 76.1071 44.4065C75.9579 44.6604 75.773 44.8916 75.558 45.093C75.279 45.3465 74.9588 45.5507 74.6112 45.6965C74.2782 45.8377 73.9357 45.9555 73.5863 46.0492C73.5453 46.056 73.506 46.0704 73.4703 46.0918C73.5165 46.1097 73.564 46.124 73.6124 46.1344C74.053 46.252 74.4817 46.4105 74.8929 46.6078C75.2891 46.8005 75.6332 47.0854 75.8965 47.4386C76.1044 47.7237 76.2739 48.0348 76.4006 48.3641C76.5101 48.6428 76.6041 48.9272 76.6823 49.2162C76.6852 49.2629 76.694 49.309 76.7083 49.3535Z" fill="#C1A575"/>
        <path d="M41.237 54.5303L41.2536 54.4924L41.308 54.3031C41.4049 53.9469 41.5292 53.5987 41.6796 53.2616C41.9658 52.6016 42.4824 52.0682 43.1329 51.761C43.5497 51.5653 43.983 51.4069 44.4277 51.2876C44.4419 51.2876 44.4632 51.2876 44.4655 51.2663C44.4679 51.245 44.4419 51.2473 44.43 51.2402L43.8359 51.0556C43.5001 50.9533 43.1782 50.8102 42.8773 50.6295C42.375 50.3214 41.9729 49.8741 41.7198 49.3419C41.5718 49.0239 41.4491 48.6946 41.353 48.3573C41.3269 48.265 41.2962 48.1726 41.2701 48.0803C41.2701 48.0685 41.2701 48.0496 41.2465 48.0496C41.2228 48.0496 41.2251 48.0661 41.2204 48.0803C41.2127 48.0996 41.2064 48.1194 41.2015 48.1395C41.1423 48.336 41.0879 48.5348 41.0192 48.7289C40.919 49.0242 40.7914 49.3094 40.6381 49.581C40.4876 49.8347 40.3028 50.0665 40.089 50.2698C39.8092 50.5222 39.4892 50.7262 39.1422 50.8733C38.8088 51.0134 38.4664 51.1312 38.1173 51.226C38.0758 51.2306 38.036 51.2452 38.0013 51.2686C38.047 51.2857 38.0936 51.3 38.141 51.3112C38.5822 51.427 39.0111 51.5855 39.4215 51.7846C39.8187 51.9756 40.1638 52.2599 40.4275 52.6131C40.6354 52.8985 40.8042 53.2106 40.9293 53.5409C41.0391 53.8189 41.134 54.1025 41.2133 54.3907C41.2126 54.4383 41.2206 54.4856 41.237 54.5303Z" fill="#C1A575"/>
        <path d="M70.308 100.43L70.3246 100.393L70.379 100.203C70.476 99.847 70.6002 99.4989 70.7507 99.1618C71.0369 98.5017 71.5534 97.9683 72.204 97.6611C72.6209 97.4659 73.0541 97.3075 73.4987 97.1877C73.5129 97.1877 73.5342 97.1877 73.5366 97.1664C73.5389 97.1451 73.5129 97.1475 73.5011 97.1404L72.907 96.9558C72.5712 96.8535 72.2492 96.7104 71.9483 96.5297C71.446 96.2216 71.0439 95.7743 70.7909 95.2421C70.6428 94.924 70.5202 94.5948 70.424 94.2574C70.398 94.1651 70.3696 94.0728 70.3412 93.9805C70.3412 93.9686 70.3412 93.9497 70.3175 93.9497C70.2938 93.9497 70.2962 93.9663 70.2915 93.9805C70.2837 93.9997 70.2774 94.0195 70.2725 94.0397C70.2134 94.2361 70.1589 94.4349 70.0903 94.629C69.9901 94.9243 69.8625 95.2096 69.7092 95.4811C69.5587 95.7349 69.3739 95.9667 69.1601 96.1699C68.8802 96.4224 68.5602 96.6264 68.2133 96.7735C67.8798 96.9136 67.5374 97.0314 67.1884 97.1262C67.1468 97.1308 67.107 97.1454 67.0724 97.1688C67.1181 97.1856 67.1647 97.1998 67.212 97.2114C67.6533 97.3271 68.0822 97.4857 68.4926 97.6848C68.8898 97.8758 69.2349 98.16 69.4985 98.5132C69.7064 98.7992 69.8759 99.1111 70.0027 99.4411C70.1111 99.7201 70.2051 100.005 70.2844 100.293C70.284 100.34 70.292 100.386 70.308 100.43Z" fill="#C1A575"/>
    </g>
    <defs>
        <clipPath id="clip0_1_84539">
            <rect width="117.165" height="112" fill="white" transform="translate(3.63989)"/>
        </clipPath>
    </defs>
</svg>
